<svg xmlns="http://www.w3.org/2000/svg" width="31.541" height="72.672" viewBox="0 0 31.541 72.672"><g transform="translate(31.541) rotate(90)"><g transform="translate(0 0)"><path d="M62.694,0c-2.858,0-4.269,2.388-5.4,4.309C56.143,6.251,55.365,7.442,53.9,7.442s-2.24-1.191-3.385-3.133C49.383,2.388,47.972,0,45.115,0s-4.269,2.388-5.4,4.309c-1.147,1.943-1.924,3.133-3.387,3.133S34.087,6.251,32.94,4.309C31.806,2.388,30.4,0,27.538,0s-4.268,2.39-5.4,4.31c-1.147,1.941-1.923,3.132-3.384,3.132S16.517,6.251,15.37,4.31C14.237,2.388,12.827,0,9.97,0S5.7,2.388,4.57,4.31C3.423,6.251,2.647,7.442,1.186,7.442a1.241,1.241,0,0,0,0,2.48c2.856,0,4.267-2.388,5.4-4.309C7.732,3.671,8.509,2.48,9.97,2.48s2.237,1.191,3.384,3.133c1.133,1.92,2.544,4.309,5.4,4.309s4.267-2.388,5.4-4.309C25.3,3.671,26.076,2.48,27.538,2.48s2.238,1.191,3.385,3.133c1.133,1.92,2.544,4.309,5.4,4.309s4.268-2.388,5.4-4.309c1.145-1.943,1.923-3.133,3.387-3.133S47.353,3.671,48.5,5.613c1.132,1.92,2.544,4.309,5.4,4.309s4.271-2.388,5.4-4.309c1.148-1.943,1.926-3.133,3.388-3.133s2.241,1.191,3.389,3.133c1.133,1.92,2.546,4.309,5.4,4.309a1.241,1.241,0,0,0,0-2.48c-1.464,0-2.241-1.191-3.389-3.133C66.964,2.388,65.553,0,62.694,0Z" transform="translate(0 21.619)" fill="#b8d0f3"/><path d="M62.694,0c-2.858,0-4.269,2.39-5.4,4.309C56.143,6.253,55.365,7.443,53.9,7.443s-2.24-1.191-3.385-3.133C49.383,2.39,47.972,0,45.115,0s-4.269,2.39-5.4,4.31c-1.147,1.943-1.924,3.133-3.387,3.133S34.087,6.253,32.94,4.31C31.806,2.39,30.4,0,27.538,0s-4.268,2.391-5.4,4.31c-1.147,1.943-1.923,3.133-3.384,3.133S16.517,6.253,15.37,4.31C14.237,2.39,12.827,0,9.97,0S5.7,2.39,4.57,4.31C3.423,6.253,2.647,7.443,1.186,7.443a1.241,1.241,0,0,0,0,2.48c2.856,0,4.267-2.39,5.4-4.31C7.732,3.672,8.509,2.482,9.97,2.482s2.237,1.191,3.384,3.132c1.133,1.92,2.544,4.31,5.4,4.31s4.267-2.39,5.4-4.31c1.147-1.941,1.923-3.132,3.385-3.132s2.238,1.191,3.385,3.132c1.133,1.92,2.544,4.31,5.4,4.31s4.268-2.39,5.4-4.31c1.145-1.941,1.923-3.132,3.387-3.132S47.353,3.672,48.5,5.613c1.132,1.92,2.544,4.31,5.4,4.31s4.271-2.39,5.4-4.31c1.148-1.941,1.926-3.132,3.388-3.132s2.241,1.191,3.389,3.132c1.133,1.92,2.546,4.31,5.4,4.31a1.241,1.241,0,0,0,0-2.48c-1.464,0-2.241-1.191-3.389-3.133C66.964,2.39,65.553,0,62.694,0Z" transform="translate(0 10.808)" fill="#b8d0f3"/><path d="M62.694,0c-2.858,0-4.269,2.388-5.4,4.309C56.143,6.251,55.365,7.442,53.9,7.442s-2.24-1.191-3.385-3.133C49.383,2.388,47.972,0,45.115,0s-4.269,2.388-5.4,4.309c-1.147,1.943-1.924,3.133-3.387,3.133S34.087,6.251,32.94,4.309C31.806,2.388,30.4,0,27.538,0s-4.268,2.388-5.4,4.309c-1.147,1.943-1.923,3.133-3.384,3.133S16.517,6.251,15.37,4.309C14.237,2.388,12.827,0,9.97,0S5.7,2.388,4.57,4.309C3.423,6.251,2.647,7.442,1.186,7.442a1.241,1.241,0,0,0,0,2.48c2.856,0,4.267-2.39,5.4-4.31C7.732,3.671,8.509,2.48,9.97,2.48s2.237,1.191,3.384,3.132c1.133,1.92,2.544,4.31,5.4,4.31s4.267-2.39,5.4-4.309C25.3,3.671,26.076,2.48,27.538,2.48s2.238,1.191,3.385,3.133c1.133,1.919,2.544,4.309,5.4,4.309s4.268-2.39,5.4-4.309c1.145-1.943,1.923-3.133,3.387-3.133S47.353,3.671,48.5,5.613c1.132,1.919,2.544,4.309,5.4,4.309s4.271-2.39,5.4-4.309c1.148-1.943,1.926-3.133,3.388-3.133s2.241,1.191,3.389,3.133c1.133,1.919,2.546,4.309,5.4,4.309a1.241,1.241,0,0,0,0-2.48c-1.464,0-2.241-1.191-3.389-3.133C66.964,2.388,65.553,0,62.694,0Z" fill="#b8d0f3"/></g></g></svg>