<svg xmlns="http://www.w3.org/2000/svg" xmlns:xlink="http://www.w3.org/1999/xlink" width="602.463" height="578.418" viewBox="0 0 602.463 578.418"><defs><clipPath id="a"><rect width="602.463" height="578.418" fill="none"/></clipPath><clipPath id="c"><rect width="551.716" height="559.316" fill="none"/></clipPath><clipPath id="d"><rect width="12.334" height="20.577" fill="none"/></clipPath><clipPath id="e"><rect width="10.654" height="19.548" fill="none"/></clipPath><clipPath id="f"><path d="M280.578,187.442C250.24,265.384,238.3,349,227.27,431.976a4.476,4.476,0,0,0,3.6,5.008c.034,0,.068.012.1.018,1.438.257,2.878.471,4.317.664,7.942-.818,19.681-.226,30.106.572,7.876-.5,15.757-1.291,23.633-1.914,3.413-9.708,2.832-25.152,4.288-34.312,2.314-14.568,4.592-29.141,7.011-43.691,3.331-20.049,6.9-40.069,11.089-59.959,3.049,41.374,11.443,83.439,15.662,124.156.276,2.67.627,5.519,2.367,7.562,1.892,2.222,4.969,2.958,7.847,3.447a103.525,103.525,0,0,0,39.829-1.031c1.85-.414,3.826-.962,5.014-2.442,1.381-1.721,1.279-4.164,1.1-6.37Q377.6,352.071,369,280.73c-2.063-17.126-6.395-33.908-8.043-51.1-1.512-15.778-2.136-31.363-13.1-44.172a35.251,35.251,0,0,0-17.912-11.32c-2.936-4.868-6.481-8.866-10.216-11.03a19.553,19.553,0,0,0-9.9-2.825c-13.492,0-24.657,15.359-29.248,27.154" transform="translate(-227.23 -160.288)" fill="none"/></clipPath></defs><g clip-path="url(#a)"><g clip-path="url(#a)"><g transform="translate(25.374 4.784)" opacity="0.5"><g clip-path="url(#c)"><path d="M454.983,561.291a122.618,122.618,0,0,0,33.2.226c40.48-5.373,76.949-35.129,80.338-71.09,3.071-32.6-19.113-62.54-41.794-88.427s-47.834-52.689-52.333-85.157c-4.528-32.686,12.889-64.465,16.709-97.221,3.616-31.011-5.482-63.055-25.244-88.908-11.333-14.827-26.7-27.984-45.9-33.754-36.656-11.017-77.5,6.864-115.293-.578-33.068-6.509-57.113-30.742-80.492-52.359C195.179,17.215,165.04-1.024,121.958,4.078,85.39,8.408,48.8,27.929,36.381,59.855c-11.915,30.637.006,64.38,15.6,93.7s35.239,57.993,39.568,90.153c1.164,8.657,1,18.023-4.429,25.312-8.314,11.173-25.407,13.51-38.643,20.022-23.962,11.787-34.836,38.736-30.436,62.613,3.579,19.425,14.884,33.374,29.122,47.481,11.113,11.012,18.548,27.466,34.388,33.488,16.066,6.108,28.71,8.116,40.107,21.95,15.013,18.221,17.425,42.46,30.947,61.567,17.248,24.375,55.615,37.042,84.79,24.236,16.293-7.151,27.678-20.5,40.425-31.952s29.353-21.88,47.464-20.288c22.7,1.993,37.3,21.185,52.795,35.941a142.19,142.19,0,0,0,76.9,37.21" transform="translate(-17.085 -3.221)" fill="#f5e3da"/></g></g><path d="M547.31,334.107c4.727-4.429,4.245-11.648,4.245-21.822V68.049c0-23.59,2.287-37.378-24.228-37.389q-21.1-.011-42.2,0H45.228a6.092,6.092,0,0,0-6.053,6.129V86.05q0,74.643,0,149.287,0,33.295,0,66.591c0,7.577-.14,15.169,0,22.745.294,15.8,5.309,14.069,20.838,14.069H516.994c5.856,0,12.347.806,18.148,0,5.943-.827,9.741-2.364,12.168-4.637" transform="translate(18.976 14.872)" fill="#ebebeb"/><path d="M-.375-.375H63.7V47.666H-.375Zm63.327.75H.375V46.916H62.952Z" transform="translate(282.593 66.829)" fill="#c9ced6"/><path d="M-.375-.375H63.7V47.666H-.375Zm63.327.75H.375V46.916H62.952Z" transform="translate(351.574 66.829)" fill="#70588a"/><path d="M-.375-.375H63.7V47.666H-.375Zm63.327.75H.375V46.916H62.952Z" transform="translate(420.555 66.829)" fill="#70588a"/><path d="M-.375-.375H63.7V47.666H-.375Zm63.327.75H.375V46.916H62.952Z" transform="translate(489.536 66.829)" fill="#70588a"/><path d="M-.375-.375H63.7V47.666H-.375Zm63.327.75H.375V46.916H62.952Z" transform="translate(75.649 120.595)" fill="#70588a"/><path d="M-.375-.375H63.7V47.666H-.375Zm63.327.75H.375V46.916H62.952Z" transform="translate(144.63 120.595)" fill="#70588a"/><path d="M-.375-.375H63.7V47.666H-.375Zm63.327.75H.375V46.916H62.952Z" transform="translate(213.613 120.595)" fill="#70588a"/><path d="M-.375-.375H63.7V47.666H-.375Zm63.327.75H.375V46.916H62.952Z" transform="translate(282.593 120.595)" fill="#70588a"/><path d="M-.375-.375H63.7V47.666H-.375Zm63.327.75H.375V46.916H62.952Z" transform="translate(351.574 120.595)" fill="#70588a"/><rect width="63.327" height="47.291" transform="translate(420.555 120.595)" fill="#5cc9bf"/><path d="M-.375-.375H63.7V47.666H-.375Zm63.327.75H.375V46.916H62.952Z" transform="translate(489.536 120.595)" fill="#70588a"/><path d="M-.375-.375H63.7V47.666H-.375Zm63.327.75H.375V46.916H62.952Z" transform="translate(75.649 174.361)" fill="#70588a"/><path d="M-.375-.375H63.7V47.666H-.375Zm63.327.75H.375V46.916H62.952Z" transform="translate(144.63 174.361)" fill="#70588a"/><rect width="63.327" height="47.291" transform="translate(213.613 174.361)" fill="#5cc9bf"/><path d="M-.375-.375H63.7V47.666H-.375Zm63.327.75H.375V46.916H62.952Z" transform="translate(282.593 174.361)" fill="#70588a"/><path d="M-.375-.375H63.7V47.666H-.375Zm63.327.75H.375V46.916H62.952Z" transform="translate(351.574 174.361)" fill="#70588a"/><rect width="63.327" height="47.291" transform="translate(420.555 174.361)" fill="#5cc9bf"/><path d="M-.375-.375H63.7V47.666H-.375Zm63.327.75H.375V46.916H62.952Z" transform="translate(489.536 174.361)" fill="#70588a"/><path d="M-.375-.375H63.7V47.666H-.375Zm63.327.75H.375V46.916H62.952Z" transform="translate(75.649 228.127)" fill="#70588a"/><path d="M-.375-.375H63.7V47.666H-.375Zm63.327.75H.375V46.916H62.952Z" transform="translate(144.63 228.127)" fill="#70588a"/><path d="M-.375-.375H63.7V47.666H-.375Zm63.327.75H.375V46.916H62.952Z" transform="translate(213.613 228.127)" fill="#70588a"/><rect width="63.327" height="47.291" transform="translate(282.593 228.127)" fill="#f79654"/><path d="M-.375-.375H63.7V47.666H-.375Zm63.327.75H.375V46.916H62.952Z" transform="translate(351.574 228.127)" fill="#70588a"/><path d="M-.375-.375H63.7V47.666H-.375Zm63.327.75H.375V46.916H62.952Z" transform="translate(420.555 228.127)" fill="#70588a"/><path d="M-.375-.375H63.7V47.666H-.375Zm63.327.75H.375V46.916H62.952Z" transform="translate(489.536 228.127)" fill="#70588a"/><path d="M-.375-.375H63.7V47.666H-.375Zm63.327.75H.375V46.916H62.952Z" transform="translate(75.649 281.892)" fill="#70588a"/><path d="M-.375-.375H63.7V47.666H-.375Zm63.327.75H.375V46.916H62.952Z" transform="translate(144.63 281.892)" fill="#70588a"/><path d="M-.375-.375H63.7V47.666H-.375Zm63.327.75H.375V46.916H62.952Z" transform="translate(213.613 281.892)" fill="#70588a"/><path d="M-.375-.375H63.7V47.666H-.375Zm63.327.75H.375V46.916H62.952Z" transform="translate(282.593 281.892)" fill="#70588a"/><path d="M-.375-.375H63.7V47.666H-.375Zm63.327.75H.375V46.916H62.952Z" transform="translate(351.574 281.892)" fill="#70588a"/><path d="M-.375-.375H63.7V47.666H-.375Zm63.327.75H.375V46.916H62.952Z" transform="translate(420.555 281.892)" fill="#70588a"/><path d="M251.11,51.9a5.571,5.571,0,0,0-5.627-3.5,1.072,1.072,0,0,0-1,.906.659.659,0,0,0-.23.019,4.733,4.733,0,0,0-3.3,4.8A5.7,5.7,0,0,0,244.1,58.87a5.158,5.158,0,0,0,5.744-1.1A5.234,5.234,0,0,0,251.11,51.9m-2.032,4.307a3.726,3.726,0,0,1-3.838,1.455,4.1,4.1,0,0,1-2.722-2.963,3.519,3.519,0,0,1,2.076-4.121.625.625,0,0,0,.322-.257,1.255,1.255,0,0,0,.842.147,3.543,3.543,0,0,1,1.848.333,4.128,4.128,0,0,1,1.662,1.326,3.422,3.422,0,0,1-.19,4.08" transform="translate(116.889 23.462)" fill="#70588a"/><path d="M300.528,52.964a12.911,12.911,0,0,0-2.982-3.355,5.011,5.011,0,0,0-4.372-1.427.813.813,0,0,0-.652.748,5.491,5.491,0,0,0-4.022,3.128,7.065,7.065,0,0,0,5.522,9.254,5.837,5.837,0,0,0,3.584-.958c2.341-1.481,4.445-4.629,2.923-7.39m-1.611,2.69a6.206,6.206,0,0,1-1.758,2.449,4.593,4.593,0,0,1-2.446,1.212,3.634,3.634,0,0,1-2.519-.769,4.943,4.943,0,0,1-2.378-5.018,4.262,4.262,0,0,1,4.669-3.269.741.741,0,0,0,.174-.009,9.044,9.044,0,0,1,3.549,2.854,2.552,2.552,0,0,1,.708,2.55" transform="translate(139.705 23.33)" fill="#70588a"/><path d="M344.639,50.458a5.6,5.6,0,0,0-2.745-2.505,6.581,6.581,0,0,0-4.65-.241,9.9,9.9,0,0,0-4.258,2.832.805.805,0,0,0-.062,1.008,4.9,4.9,0,0,0-.25,2.425,5.74,5.74,0,0,0,5.629,4.7,6.918,6.918,0,0,0,6.379-3.921,4.945,4.945,0,0,0-.043-4.3m-5.422,6.1A4.021,4.021,0,0,1,334.78,54.6a3.394,3.394,0,0,1,.15-3.388c1.524-.875,3.278-1.687,4.945-1.455,1.562.217,3.212,1.472,3.073,3.154-.159,1.919-2,3.282-3.731,3.646" transform="translate(161.361 22.994)" fill="#70588a"/><path d="M345.4,86.691a4.791,4.791,0,0,0-3.621-.848.372.372,0,0,0-.4-.14c-2.407.732-5.043,1.749-6.19,4.219a6.119,6.119,0,0,0,8.476,7.807,7.107,7.107,0,0,0,3.992-6.631,5.662,5.662,0,0,0-2.256-4.408M342.92,95.83a4.225,4.225,0,0,1-4.873-.272,4.417,4.417,0,0,1-1.444-4.7,5.572,5.572,0,0,1,2.061-2.52c.475-.35.961-.671,1.458-.971.006.031,0,.058.006.091a1.138,1.138,0,0,0,1.389.8c1.9-.63,3.613.939,3.9,2.794a4.809,4.809,0,0,1-2.5,4.782" transform="translate(162.363 41.569)" fill="#70588a"/><path d="M299.8,90.405a6.121,6.121,0,0,0-5.116-3.824.6.6,0,0,0-.264-1.035c-3.07-.65-5.575,1.788-7.331,4.014-1.023,1.3-1.858,2.964-1.019,4.588a8.947,8.947,0,0,0,1.51,1.874,14.826,14.826,0,0,0,1.745,1.628,6.88,6.88,0,0,0,8.131.362,6.613,6.613,0,0,0,2.344-7.607m-2.86,5.514a4.87,4.87,0,0,1-5.7.723,11.654,11.654,0,0,1-2.728-2.4,3.112,3.112,0,0,1-.939-1.383,2.41,2.41,0,0,1,.478-1.628,13.8,13.8,0,0,1,2.633-3.082,7.51,7.51,0,0,1,1.328-.973.81.81,0,0,0,.68,1.423,4.7,4.7,0,0,1,5.008,1.968,4.6,4.6,0,0,1-.762,5.348" transform="translate(138.612 41.448)" fill="#70588a"/><path d="M255.093,89.627a8.913,8.913,0,0,0-1.717-2.079,13.7,13.7,0,0,0-1.9-1.634,4.736,4.736,0,0,0-4.65-.564c.116-.487-.209-1.059-.8-.835-2.791,1.06-5.682,2.954-6.145,6.19-.434,3.034,1.769,5.507,4.4,6.6a9.059,9.059,0,0,0,7.663-.4c2.493-1.341,4.638-4.427,3.148-7.276m-4.1,5.44a7.2,7.2,0,0,1-5.33.639c-1.865-.5-3.968-1.989-4.051-4.123-.105-2.713,2.2-4.513,4.418-5.535-.364.86.536,2.042,1.516,1.414a2.571,2.571,0,0,1,2.85.333,11.55,11.55,0,0,1,2.548,2.4c1.432,1.839-.313,3.942-1.951,4.868" transform="translate(116.346 40.976)" fill="#70588a"/><path d="M207.7,88.949c-1.262-2.626-4.019-3.49-6.738-3.444.14-.343-.043-.852-.481-.8a9.507,9.507,0,0,0-7.452,4.816,6.025,6.025,0,0,0,2.13,7.6c2.684,1.931,6.393,1.383,9.1-.2,2.687-1.571,4.972-4.8,3.445-7.975m-3.939,5.618c-1.852,1.393-4.547,2.2-6.769,1.27a4.294,4.294,0,0,1-2.575-5.079,7.274,7.274,0,0,1,2.644-3.342.914.914,0,0,0,.817.5c2.391.04,5.357-.569,7.209,1.386,1.662,1.752.278,4.06-1.325,5.263" transform="translate(93.346 41.091)" fill="#70588a"/><path d="M160.166,87.8c-2.314-2.973-6.589-3.114-9.644-1.3a1.209,1.209,0,0,0-.29.261,5.644,5.644,0,0,0-3.217,3.535,6.368,6.368,0,0,0,4.005,7.4,8.679,8.679,0,0,0,8.789-1.674,6.117,6.117,0,0,0,.356-8.223m-1.62,6.2a6.3,6.3,0,0,1-6.064,1.842,4.544,4.544,0,0,1-3.745-4.619,4.007,4.007,0,0,1,1.657-2.776,1.1,1.1,0,0,0,1.325.132c1.821-1.026,4.5-1.249,6.142.264A3.853,3.853,0,0,1,158.546,94" transform="translate(71.22 41.388)" fill="#70588a"/><path d="M115.6,89.553a7.737,7.737,0,0,0-4.207-2.624,8.62,8.62,0,0,0-5.34.11,1.149,1.149,0,0,0-.622.673,9.131,9.131,0,0,0-4.418,4.663c-1.5,3.723,1.65,6.79,4.849,8.021,3.162,1.216,7.111.692,9.346-2.048a7.04,7.04,0,0,0,.394-8.795m-1.788,6.125a5.3,5.3,0,0,1-5.689,2.7c-1.989-.29-5.507-1.911-5.109-4.466a6.661,6.661,0,0,1,2.3-3.578,7.114,7.114,0,0,1,1.837-1.178c1.883.319,3.842.352,5.465,1.4a3.865,3.865,0,0,1,1.2,5.122" transform="translate(48.815 41.992)" fill="#70588a"/><path d="M68.544,88.878a4.341,4.341,0,0,0-4.059-2.161A6.537,6.537,0,0,0,61.4,87.84,6.889,6.889,0,0,0,56.089,92.1a5.7,5.7,0,0,0,.055,4.648A4.742,4.742,0,0,0,59.322,99.1a8.458,8.458,0,0,0,7.724-2.422c1.956-1.978,2.963-5.228,1.5-7.8m-2.519,5.829A6.69,6.69,0,0,1,60.7,97.244a3.549,3.549,0,0,1-2.442-.918,3.29,3.29,0,0,1-.593-2.945A6,6,0,0,1,59.8,90.032a.777.777,0,0,0,1.09.3c1.451-.882,4.207-2.375,5.617-.645,1.182,1.451.558,3.689-.486,5.018" transform="translate(26.983 42.063)" fill="#70588a"/><path d="M345.4,158.654a4.791,4.791,0,0,0-3.621-.848.372.372,0,0,0-.4-.14c-2.407.732-5.043,1.749-6.19,4.219a6.119,6.119,0,0,0,8.476,7.807,7.107,7.107,0,0,0,3.992-6.631,5.662,5.662,0,0,0-2.256-4.408m-2.479,9.139a4.222,4.222,0,0,1-4.873-.272,4.417,4.417,0,0,1-1.444-4.7,5.572,5.572,0,0,1,2.061-2.52c.475-.35.961-.671,1.458-.971.006.031,0,.058.006.091a1.137,1.137,0,0,0,1.389.8c1.9-.63,3.613.939,3.9,2.793a4.811,4.811,0,0,1-2.5,4.782" transform="translate(162.363 76.479)" fill="#70588a"/><path d="M299.606,162.275a6.121,6.121,0,0,0-5.116-3.824.6.6,0,0,0-.264-1.035c-5.1-1.081-10.647,6.4-6.837,10.476a14.826,14.826,0,0,0,1.745,1.628,6.88,6.88,0,0,0,8.131.362,6.615,6.615,0,0,0,2.342-7.607m-2.86,5.514a4.87,4.87,0,0,1-5.7.723c-1.821-1.025-3.6-3.006-2.908-5.262,1.24-4.05,7.326-4.362,9.37-.811a4.6,4.6,0,0,1-.763,5.349" transform="translate(138.806 76.314)" fill="#70588a"/><path d="M255.093,162.549a8.913,8.913,0,0,0-1.717-2.079,13.6,13.6,0,0,0-1.9-1.634,4.736,4.736,0,0,0-4.65-.564c.116-.487-.209-1.059-.8-.835-2.791,1.06-5.682,2.954-6.145,6.19-.434,3.034,1.769,5.507,4.4,6.6a9.059,9.059,0,0,0,7.663-.4c2.493-1.34,4.638-4.427,3.148-7.276m-4.1,5.44a7.2,7.2,0,0,1-5.33.639c-1.865-.5-3.968-1.989-4.051-4.123-.105-2.713,2.2-4.513,4.418-5.535-.364.86.536,2.042,1.516,1.414a2.571,2.571,0,0,1,2.85.333,11.549,11.549,0,0,1,2.548,2.4c1.432,1.839-.313,3.941-1.951,4.868" transform="translate(116.346 76.352)" fill="#70588a"/><path d="M207.7,161.583c-1.262-2.626-4.019-3.49-6.738-3.444.14-.343-.043-.852-.481-.8a9.507,9.507,0,0,0-7.452,4.816,6.025,6.025,0,0,0,2.13,7.6c2.684,1.931,6.393,1.383,9.1-.2,2.687-1.571,4.972-4.8,3.445-7.975m-3.939,5.618c-1.852,1.393-4.547,2.2-6.769,1.27a4.294,4.294,0,0,1-2.575-5.079,7.274,7.274,0,0,1,2.644-3.342.914.914,0,0,0,.817.5c2.391.04,5.357-.569,7.209,1.386,1.662,1.752.278,4.06-1.325,5.263" transform="translate(93.346 76.328)" fill="#70588a"/><path d="M160.166,160.069c-2.314-2.973-6.589-3.114-9.644-1.3a1.208,1.208,0,0,0-.29.261,5.644,5.644,0,0,0-3.217,3.535,6.371,6.371,0,0,0,4.005,7.4,8.676,8.676,0,0,0,8.789-1.675,6.119,6.119,0,0,0,.356-8.225m-1.62,6.2a6.3,6.3,0,0,1-6.064,1.842,4.544,4.544,0,0,1-3.745-4.619,4.007,4.007,0,0,1,1.657-2.776,1.1,1.1,0,0,0,1.325.132c1.821-1.025,4.5-1.249,6.142.264a3.853,3.853,0,0,1,.685,5.156" transform="translate(71.22 76.447)" fill="#70588a"/><path d="M115.6,160.061a7.737,7.737,0,0,0-4.207-2.624,8.62,8.62,0,0,0-5.34.11,1.149,1.149,0,0,0-.622.673,9.131,9.131,0,0,0-4.418,4.663c-1.5,3.723,1.65,6.79,4.849,8.021,3.162,1.216,7.111.692,9.346-2.048a7.04,7.04,0,0,0,.394-8.795m-1.788,6.126a5.3,5.3,0,0,1-5.689,2.7c-1.989-.29-5.507-1.911-5.109-4.466a6.661,6.661,0,0,1,2.3-3.578,7.115,7.115,0,0,1,1.837-1.178c1.883.319,3.842.352,5.465,1.4a3.865,3.865,0,0,1,1.2,5.122" transform="translate(48.815 76.197)" fill="#70588a"/><path d="M68.544,159.87a4.338,4.338,0,0,0-4.059-2.161,6.537,6.537,0,0,0-3.083,1.123,6.889,6.889,0,0,0-5.314,4.259,5.7,5.7,0,0,0,.055,4.648,4.742,4.742,0,0,0,3.178,2.348,8.458,8.458,0,0,0,7.724-2.422c1.956-1.978,2.963-5.228,1.5-7.8M66.026,165.7a6.7,6.7,0,0,1-5.321,2.537,3.55,3.55,0,0,1-2.442-.918,3.292,3.292,0,0,1-.593-2.946,6,6,0,0,1,2.134-3.349.777.777,0,0,0,1.09.3c1.451-.882,4.207-2.375,5.617-.645,1.182,1.452.558,3.691-.486,5.02" transform="translate(26.983 76.503)" fill="#70588a"/><path d="M299.511,198.127c-1.239-3.232-5.764-5.046-8.936-3.958a6.1,6.1,0,0,0-3.478,3.108,8.83,8.83,0,0,0-.748,3.071c-.2,2.4.891,3.628,2.69,5.023a6.88,6.88,0,0,0,8.131.362,6.614,6.614,0,0,0,2.342-7.607m-2.86,5.514a4.87,4.87,0,0,1-5.7.723c-2.756-1.552-4.631-5.2-1.271-7.24,2.324-1.414,6.209-1.479,7.732,1.167a4.6,4.6,0,0,1-.762,5.349" transform="translate(138.902 94.042)" fill="#70588a"/><path d="M255.093,197.575a8.913,8.913,0,0,0-1.717-2.079,13.6,13.6,0,0,0-1.9-1.634,4.736,4.736,0,0,0-4.65-.564c.116-.487-.209-1.059-.8-.835-2.791,1.06-5.682,2.954-6.145,6.19-.434,3.034,1.769,5.507,4.4,6.6a9.059,9.059,0,0,0,7.663-.4c2.493-1.341,4.638-4.427,3.148-7.276m-4.1,5.44a7.2,7.2,0,0,1-5.33.639c-1.865-.5-3.968-1.989-4.051-4.123-.105-2.713,2.2-4.513,4.418-5.535-.364.86.536,2.042,1.516,1.414a2.571,2.571,0,0,1,2.85.333,11.55,11.55,0,0,1,2.548,2.4c1.432,1.839-.313,3.941-1.951,4.868" transform="translate(116.346 93.344)" fill="#70588a"/><path d="M207.7,196.9c-1.262-2.626-4.019-3.49-6.738-3.444.14-.345-.043-.852-.481-.8a9.507,9.507,0,0,0-7.452,4.816,6.025,6.025,0,0,0,2.13,7.6c2.684,1.931,6.393,1.383,9.1-.2,2.687-1.571,4.972-4.8,3.445-7.975m-3.939,5.618c-1.852,1.393-4.547,2.2-6.769,1.27a4.294,4.294,0,0,1-2.575-5.079,7.274,7.274,0,0,1,2.644-3.342.914.914,0,0,0,.817.5c2.391.04,5.357-.569,7.209,1.386,1.662,1.752.278,4.06-1.325,5.263" transform="translate(93.346 93.459)" fill="#70588a"/><path d="M160.166,195.749c-2.314-2.973-6.589-3.114-9.644-1.3a1.208,1.208,0,0,0-.29.261,5.644,5.644,0,0,0-3.217,3.535,6.371,6.371,0,0,0,4.005,7.4,8.676,8.676,0,0,0,8.789-1.675,6.117,6.117,0,0,0,.356-8.223m-1.62,6.2a6.3,6.3,0,0,1-6.064,1.842,4.544,4.544,0,0,1-3.745-4.619,4.007,4.007,0,0,1,1.657-2.776,1.1,1.1,0,0,0,1.325.132c1.821-1.025,4.5-1.249,6.142.264a3.853,3.853,0,0,1,.685,5.156" transform="translate(71.22 93.756)" fill="#70588a"/><path d="M115.6,197.5a7.746,7.746,0,0,0-4.207-2.624,8.631,8.631,0,0,0-5.34.11,1.145,1.145,0,0,0-.622.673,9.131,9.131,0,0,0-4.418,4.663c-1.5,3.723,1.65,6.79,4.849,8.021,3.162,1.216,7.111.692,9.346-2.048a7.04,7.04,0,0,0,.394-8.795m-1.788,6.125a5.3,5.3,0,0,1-5.689,2.7c-1.989-.29-5.507-1.911-5.109-4.466a6.661,6.661,0,0,1,2.3-3.578,7.113,7.113,0,0,1,1.837-1.178c1.883.319,3.842.352,5.465,1.4a3.865,3.865,0,0,1,1.2,5.122" transform="translate(48.815 94.36)" fill="#70588a"/><path d="M68.544,196.826a4.338,4.338,0,0,0-4.059-2.161,6.537,6.537,0,0,0-3.083,1.123,6.889,6.889,0,0,0-5.314,4.259,5.7,5.7,0,0,0,.055,4.648,4.742,4.742,0,0,0,3.178,2.348,8.458,8.458,0,0,0,7.724-2.422c1.956-1.978,2.963-5.228,1.5-7.8m-2.519,5.829a6.7,6.7,0,0,1-5.321,2.537,3.549,3.549,0,0,1-2.442-.918,3.292,3.292,0,0,1-.593-2.947,6,6,0,0,1,2.134-3.349.777.777,0,0,0,1.09.3c1.451-.882,4.207-2.375,5.617-.645,1.182,1.452.558,3.691-.486,5.02" transform="translate(26.983 94.431)" fill="#70588a"/><path d="M345.4,122.441a4.791,4.791,0,0,0-3.621-.848.372.372,0,0,0-.4-.14c-2.407.732-5.043,1.749-6.19,4.218a6.119,6.119,0,0,0,8.476,7.807,7.107,7.107,0,0,0,3.992-6.631,5.666,5.666,0,0,0-2.256-4.406m-2.479,9.139a4.222,4.222,0,0,1-4.873-.272,4.417,4.417,0,0,1-1.444-4.7,5.565,5.565,0,0,1,2.061-2.52c.475-.35.961-.671,1.458-.971.006.031,0,.059.006.091a1.138,1.138,0,0,0,1.389.8c1.9-.63,3.613.939,3.9,2.794a4.809,4.809,0,0,1-2.5,4.782" transform="translate(162.363 58.912)" fill="#70588a"/><path d="M255.093,126.337a8.913,8.913,0,0,0-1.717-2.079,13.6,13.6,0,0,0-1.9-1.634,4.736,4.736,0,0,0-4.65-.564c.116-.487-.209-1.057-.8-.835-2.791,1.06-5.682,2.954-6.145,6.19-.434,3.034,1.769,5.507,4.4,6.6a9.059,9.059,0,0,0,7.663-.4c2.493-1.341,4.638-4.427,3.148-7.276m-4.1,5.44a7.2,7.2,0,0,1-5.33.639c-1.865-.5-3.968-1.989-4.051-4.123-.105-2.713,2.2-4.513,4.418-5.535-.364.86.536,2.042,1.516,1.414a2.571,2.571,0,0,1,2.85.333,11.515,11.515,0,0,1,2.548,2.4c1.432,1.839-.313,3.942-1.951,4.868" transform="translate(116.346 58.785)" fill="#70588a"/><path d="M207.7,125.371c-1.262-2.626-4.019-3.49-6.738-3.444.14-.345-.043-.852-.481-.8a9.507,9.507,0,0,0-7.452,4.816,6.025,6.025,0,0,0,2.13,7.6c2.684,1.931,6.393,1.383,9.1-.2,2.687-1.573,4.972-4.8,3.445-7.975m-3.939,5.617c-1.852,1.392-4.547,2.2-6.769,1.27a4.294,4.294,0,0,1-2.575-5.079,7.274,7.274,0,0,1,2.644-3.342.914.914,0,0,0,.817.5c2.391.04,5.357-.569,7.209,1.386,1.662,1.752.278,4.06-1.325,5.263" transform="translate(93.346 58.76)" fill="#70588a"/><path d="M160.166,123.856c-2.314-2.973-6.589-3.114-9.644-1.3a1.208,1.208,0,0,0-.29.261,5.644,5.644,0,0,0-3.217,3.535,6.368,6.368,0,0,0,4.005,7.4,8.676,8.676,0,0,0,8.789-1.675,6.117,6.117,0,0,0,.356-8.223m-1.62,6.2a6.3,6.3,0,0,1-6.064,1.842,4.544,4.544,0,0,1-3.745-4.619,4.007,4.007,0,0,1,1.657-2.776,1.1,1.1,0,0,0,1.325.132c1.821-1.026,4.5-1.249,6.142.264a3.853,3.853,0,0,1,.685,5.156" transform="translate(71.22 58.879)" fill="#70588a"/><path d="M115.6,123.849a7.746,7.746,0,0,0-4.207-2.624,8.631,8.631,0,0,0-5.34.11,1.149,1.149,0,0,0-.622.673,9.132,9.132,0,0,0-4.418,4.663c-1.5,3.723,1.65,6.79,4.849,8.021,3.162,1.216,7.111.692,9.346-2.048a7.04,7.04,0,0,0,.394-8.795m-1.788,6.125a5.3,5.3,0,0,1-5.689,2.7c-1.989-.29-5.507-1.911-5.109-4.466a6.661,6.661,0,0,1,2.3-3.578,7.114,7.114,0,0,1,1.837-1.178c1.883.319,3.842.352,5.465,1.4a3.865,3.865,0,0,1,1.2,5.122" transform="translate(48.815 58.63)" fill="#70588a"/><path d="M68.544,123.658a4.341,4.341,0,0,0-4.059-2.161A6.537,6.537,0,0,0,61.4,122.62a6.889,6.889,0,0,0-5.314,4.259,5.7,5.7,0,0,0,.055,4.648,4.742,4.742,0,0,0,3.178,2.348,8.458,8.458,0,0,0,7.724-2.422c1.956-1.978,2.963-5.229,1.5-7.8m-2.519,5.829a6.7,6.7,0,0,1-5.321,2.537,3.549,3.549,0,0,1-2.442-.918,3.292,3.292,0,0,1-.593-2.946,6,6,0,0,1,2.134-3.349.777.777,0,0,0,1.09.3c1.451-.882,4.207-2.375,5.617-.645,1.182,1.452.558,3.691-.486,5.02" transform="translate(26.983 58.936)" fill="#70588a"/><path d="M296.172,122.745a5.7,5.7,0,0,0-2.124-.792,4.487,4.487,0,0,0-1.2-.11c-.177.018-.35.059-.526.089-.148.021-.3.048-.443.074-.12.024-.242.037-.362.062-.022,0-.037.018-.058.024a6.4,6.4,0,0,0-4.071,2.762,6.934,6.934,0,0,0,.563,7.372c1.844,1.744,4.855,1.291,6.864.125a6.825,6.825,0,0,0,3.339-6.065,4.3,4.3,0,0,0-1.983-3.542m-1.433,8.144a4.963,4.963,0,0,1-5.455.569,3.453,3.453,0,0,1-1.164-2.6,5.077,5.077,0,0,1,.306-2.985,5.743,5.743,0,0,1,2.7-2.489.68.68,0,0,0,.394.26,11.72,11.72,0,0,0,1.7.34,6.594,6.594,0,0,1,1.492.233,2.691,2.691,0,0,1,1.892,1.608c.616,1.764-.53,3.961-1.862,5.06" transform="translate(139.021 59.104)" fill="#70588a"/><path d="M312.238,210.846c3.223,4.071,7.136,7.516,10.61,11.361,3.679,4.072,6.514,8.811,10.186,12.885a42.639,42.639,0,0,0,11.225,8.835c2.967,1.62,9.864,5.505,13.369,4.634,6.811-1.695,1.706-13.164-.428-16.939a50.065,50.065,0,0,0-9.973-11.951c-3.976-3.649-8.3-6.889-12.588-10.161L320.2,198.49c-1.163-.888-2.3-1.81-3.5-2.655a7.093,7.093,0,0,0-3.3-1.417,5.374,5.374,0,0,0-5.009,2.914c-2.63,4.6,1.026,9.962,3.839,13.515" transform="translate(149.172 94.305)" fill="#5cc9bf"/><path d="M368.966,225.57c-.97-5.244-3.1-10.2-4.323-15.4-1.619-6.873-1.619-14.025-2.883-20.971s-4.1-14.061-9.879-18.124a10.935,10.935,0,0,0-5.367-2.14c-3.5-.266-6.855,1.908-8.831,4.812s-2.785,6.438-3.267,9.916a64.657,64.657,0,0,0,7.547,40.121c2.11,3.771,4.6,7.333,6.453,11.238a43.51,43.51,0,0,1,3.989,16.575c.116,2.482.067,5.069,1.144,7.308,1.048,2.179,4.843,5.491,7.467,4.1,2.342-1.243,3.952-8.588,4.784-10.968,2.958-8.45,4.818-17.538,3.166-26.468" transform="translate(161.943 81.945)" fill="#5cc9bf"/><path d="M384.717,213.183a67.41,67.41,0,0,0,.746-8.484c.083-3.869-1.187-8.834-5.035-9.242-1.935-.206-3.753.942-5.214,2.228-6.9,6.076-9.4,15.61-11.548,24.553-1.836,7.639-3.717,15.269-5.508,22.92-1.319,5.633-3.273,13.152-.255,18.525a3.264,3.264,0,0,0,1.262,1.39c1.592.811,3.31-.8,4.332-2.268,9.6-13.78,18.607-32.159,21.221-49.622" transform="translate(172.852 94.809)" fill="#5cc9bf"/><path d="M374.646,213.167a.094.094,0,0,0-.146-.019c-.912.836-1.013,2.133-1.317,3.3-.351,1.351-.717,2.7-1.078,4.047q-1.174,4.384-2.611,8.692c-1.953,5.86-4.354,11.535-6.774,17.214-4.362,10.238-8.661,20.894-7.957,32.24.061.989,1.608,1,1.546,0-.743-11.874,4.1-22.933,8.646-33.616,2.257-5.3,4.4-10.628,6.168-16.114.927-2.878,1.782-5.786,2.523-8.718.342-1.354.655-2.719.922-4.09a4.79,4.79,0,0,0,.077-2.939" transform="translate(172.066 103.39)" fill="#222221"/><path d="M361.91,272.06c-.195-8.027.045-16.05.609-24.087.8-11.432,1.764-22.978-.159-34.354a51.632,51.632,0,0,0-5.85-17.1c-.422-.738-1.528-.085-1.136.664,6.766,12.931,7.152,27.546,6.312,41.8-.438,7.429-1.112,14.841-1.277,22.284-.049,2.17-.053,4.34-.034,6.509-.315-.812-.634-1.619-.961-2.413a104.66,104.66,0,0,0-7.926-15.42c-6.361-10.235-14.152-19.428-22.43-28.152-.566-.6-1.441.293-.9.9a194.848,194.848,0,0,1,21.467,27.986,108.172,108.172,0,0,1,7.975,15.5,81.92,81.92,0,0,1,2.973,8.917c.132,3.043.309,6.086.566,9.122.076.9,1.484.9,1.408,0-.067-.795-.116-1.591-.172-2.385l.245.931c.233.878,1.726.735,1.632-.221a49.15,49.15,0,0,0-2.344-10.478" transform="translate(159.115 95.18)" fill="#222221"/><path d="M376.086,245.637c-2.562,11.789-4.3,24.151-2.468,36.016-4.126.024-24.941.135-31.643.062.082-1.032.16-2.066.214-3.1a62.391,62.391,0,0,0-2.29-21.834c-.535-1.72-1.637-7.286-2.339-8.952l.135-2.191h38.392Z" transform="translate(163.757 119.164)" fill="#f79654"/><path d="M184.045,275.267c2.205-.056,4.412-.07,6.618-.105,2.84.312,5.682.59,8.539.737,4.542.233,9.093.171,13.641.187l14.058.052c-.162.6-.3,1.2-.434,1.775-.631,2.629-1.242,5.256-1.8,7.9q-3.215,15.146-6.429,30.292c-4.334,20.446-8.323,40.97-12.477,61.453l-3.52,17.352-1.76,8.676c-.229,1.13-.509,2.281-.76,3.44h7.963c.414-2.183.735-4.39,1.155-6.48q1.386-6.87,2.77-13.742,2.769-13.743,5.54-27.484c3.645-18.084,7.323-36.163,10.806-54.28q1.464-7.612,2.926-15.226c.511-2.661,1.029-5.318,1.47-7.993l.6-3.65c.08-.484.187-.982.239-1.472l.007-.025a1.821,1.821,0,0,0,.514-.514q3.208.011,6.414.024c18.31.076,36.622-.015,54.932-.025q54.563-.031,109.127-.165,11.034-.024,22.069-.021a141,141,0,0,0,3.41,14.434c1.341,5.235,2.746,10.451,4.158,15.667,2.823,10.43,5.739,20.835,8.649,31.241q8.833,31.573,17.664,63.146.918,3.281,1.837,6.564h7.357q-.341-1.207-.683-2.415l-1.905-6.735-3.91-13.825-7.619-26.94c-5.113-18.078-10.169-36.173-15.432-54.208q-2.168-7.429-4.423-14.829c-1.231-4.013-2.324-8.17-3.869-12.1,11.545-.012,23.089-.045,34.632-.189a3.055,3.055,0,0,0,0-6.107c-36.614-.456-73.248-.239-109.865-.321q-54.563-.123-109.127-.085c-10.323-.006-20.646.052-30.969.089-5.152.019-10.339-.134-15.484.123-3.388.169-6.751.484-10.114.839-2.173-.037-4.345-.077-6.518-.132-3.264-.083-3.27,5.162,0,5.079" transform="translate(88.094 130.628)" fill="#70588a"/><path d="M184.129,188.2c3.074-.869,5.538-4.3,6.784-7.152,1.326-3.037,1.081-7.029-1.469-9.147a8.02,8.02,0,0,0-6-1.484c-6.579.717-11.636,6.637-13.446,13s-1.046,13.142-.266,19.715q.855,7.209,1.709,14.418c1.108,9.338-.134,19.119-.14,28.528a6.906,6.906,0,0,1-.615,3.411c-1.054,1.877-3.463,2.409-5.59,2.753-10.255,1.657-20.832,3.636-31.265,3.266-9.08-.321-19.568-3.257-23.836,7.749-2.393,6.168-.428,13.48,3.909,18.476s10.7,7.89,17.19,9.178,2.372,2.127,8.982,1.862c9.586-.383,30.072-1.968,39.259-4.729a46.245,46.245,0,0,0,18.147-9.934c4.7-4.345,5.872-9.771,6.374-16.069,1.059-13.284-3.082-26.554-6.688-39.17-3.353-11.731-9.9-22.547-12.919-34.195-.04-.157-.082-.319-.122-.48" transform="translate(52.861 82.643)" fill="#efb68f"/><path d="M125.959,245.972a4.666,4.666,0,0,0-2.99-1.576c-3.184-.484-6.3-.4-9.419-1.5a2.667,2.667,0,0,1-1.346-.852,2.936,2.936,0,0,1-.376-1.614q-.082-2.274-.163-4.55c0-.138-.01-.276-.019-.416,6.826-2.06,9.579-9.937,10.264-17.328.86-9.288-.091-20.765-8.557-26.468a19.665,19.665,0,0,0-18.635-1.512,21.082,21.082,0,0,0-11.755,14.679c-1.005,4.706.6,6.309,1.149,11.073.465,4.038.991,8.092,1.167,12.156.2,4.7-.132,10.77-1.185,14.119-.356,1.136-1.766,1.553-2.865,2.073-1.06.5-2.863-.233-3.756.747-3.916,4.305-7.58,8.866-11.838,12.821A143.628,143.628,0,0,0,96.9,266.885c7.527,1.291,22.722,5.744,27.916-2.262a15.709,15.709,0,0,0,2.076-5.777c.1-.512.177-1.028.251-1.542.514-3.517,1.381-8.366-1.184-11.333" transform="translate(31.841 91.442)" fill="#efb68f"/><path d="M177.53,228.152l-.319-.037a59.461,59.461,0,0,1-8.972-.181c-5.156-.321-10.316-.569-15.471-.9-9.684-.627-19.378-1.647-29.01-2.881a13.96,13.96,0,0,1-4.785,5.208c-7.485,4.726-18,1.85-22.938-5.121a117.67,117.67,0,0,0-14.351,2,74.921,74.921,0,0,0-18.855,6.3c-5.692,2.887-11.345,6.683-14.584,12.329a52.606,52.606,0,0,0-4.421,11.06,59.8,59.8,0,0,0-2.262,12.215c-.955,11.8,1.442,22.607,3.068,34.156,2.1,14.934,2.728,40.59,17.446,49.272,5.231,3.086,11.507,3.7,17.556,4.247,21.215,1.913,43.787,3.518,63.571-3.07a191.445,191.445,0,0,0,4.069-25.794c.688-7.669,1.256-15.352,1.568-23.048.294-7.246.747-14.486.994-21.735.126-3.714.206-7.43.178-11.146-.019-2.421,17.692-.658,25.694.144a189.4,189.4,0,0,0,3.208-24.154c.327-4.05.594-8.106.89-12.159.223-3.085,1.905-6.214-2.274-6.7" transform="translate(20.057 108.74)" fill="#4e8ae1"/><path d="M164.771,361.79q-.385-.568-.808-1.108c-5.124-6.57-13.975-10.855-21.208-14.716-7.978-4.259-16.926-7.764-26.128-7.234-8.3.48-19.825,6.11-21.543,14.894a5.112,5.112,0,0,0,.12,2.981c.988,2.309,4.106,2.516,6.618,2.538,10.714.1,21.022,3.391,31.018,6.949,5.15,1.834,10.27,3.763,15.476,5.433,4.654,1.493,15.964,8.035,19.222,1.243,1.784-3.707-.7-7.945-2.768-10.979" transform="translate(46.049 164.301)"/><path d="M239.971,306.926c-4.311-6.278-11.755-10.482-19.369-12.026-22.552-4.574-42.415,7.369-63.48,12.782-8.22,2.112-13.58,1.329-21.614.68-10.186-.821-20.643.181-30.894-.425-9.581-.567-19.947-1.308-28.9,1.331q-1.773-1.165-3.536-2.326c-10.017-6.572-20-13.117-32.557-10.723-9.876,1.882-19.4,6.889-25.517,15.019-6.5,8.636-4.547,19.914,1.276,28.525,4.821,7.129,11.946,12.376,19.326,16.8,25.456,15.272,53.262,24.631,83.306,22.546,4.463-.309,11.1,1.187,13.045,5.753.624,1.463,1.521,2.791,2.24,4.21,1.473,2.908,2.156,7.528,4.359,9.947,2.146,2.357,6.543.073,8.884-.958,5.409-2.382,10.045-6.2,15.39-8.629,16.22-7.377,33.227-14.086,48.8-22.789,10.42-5.825,19.722-10.285,25.315-21,5-9.576,10.109-21.665,6.845-32.656a21.481,21.481,0,0,0-2.915-6.064" transform="translate(4.872 142.566)" fill="#f79654"/><path d="M86.173,329.52q8.964,3.963,17.928,7.929c3.16,1.4,10.212,3.673,8.51,7.822-1.476,3.6-9.193,6.352-12.506,7.616-2.207.842-4.846,1.925-5.232,4.255a3.465,3.465,0,0,0-.012.936c3.4-1.2,6.791-2.424,10.149-3.737.8-.312,1.6-.633,2.391-.956q4.533-2.406,9.007-4.926a388.692,388.692,0,0,0,62.362-44.032c.714-.705,1.436-1.4,2.158-2.1-3.287.126-6.506,2.257-9.487,3.994-11.661,6.8-27.328,7.515-40.462,9.549a315.945,315.945,0,0,1-46.573,3.717c-6.365.036-13.036-.052-18.674,2.9.61-.321,9.156,3.116,10.552,3.407a31.088,31.088,0,0,1,5.369,1.659c1.451.585,2.9,1.247,4.521,1.966" transform="translate(31.888 146.664)" fill="#ab563c"/><path d="M124.844,343.422a51.266,51.266,0,0,0-6.246-4.464c-2.3-1.469-4.666-2.825-7.086-4.083-4.908-2.55-10.039-4.629-15.129-6.782-10.516-4.448-21.007-9.016-31.287-13.99-2.829-1.368-5.675-3.45-8.437-4.948s-5.436-3.148-8.247-4.558c-.437-.22-1,.382-.56.725,4.3,3.382,9.413,5.82,14.3,8.244,4.966,2.461,10.014,4.754,15.068,7.026q8,3.6,16.065,7.034c5.125,2.185,10.311,4.244,15.321,6.69,2.77,1.351,5.467,2.84,8.1,4.442,2.525,1.539,4.9,3.3,7.393,4.874.224-.3.5.079.746-.209" transform="translate(23.138 147.744)"/><path d="M98.529,357.888c-.01-.025-.021-.049-.033-.074l-2.4-5.537L91.347,341.29c-.181-.417-13.815,6.518-14.985,7.481a5.762,5.762,0,0,0-1.383,1.485,6.823,6.823,0,0,0-.685,2.687,25.639,25.639,0,0,0-.212,7.8c.492,2.566,2.076,5.1,4.556,5.921,1.88.621,3.927.18,5.856-.264,3.679-.848,7.271-1.626,10.873-2.685,1.6-.469,3.276-.2,4.9-.566A.628.628,0,0,0,100.6,363c.563-.587-1.778-4.452-2.067-5.113" transform="translate(35.827 165.558)" fill="#efb68f"/><path d="M87.032,343.262l-17.64,5.874A3.889,3.889,0,0,0,66,353.088c-1.335,8.874-3.2,17.658-4.487,26.539-1.164,8.021-.986,15.8-2.167,23.811-.462,3.138,4.634,4.221,6.808,3.125a11.741,11.741,0,0,0,4.072-4.163c4.494-6.588,7.687-12.965,9.229-20.729.472-2.382.838-4.862,2.127-6.919,1.5-2.391,4.043-3.891,6.489-5.3,1.057-.609,3.128-1.457,4.868-2.444a215.367,215.367,0,0,1-5.908-23.746" transform="translate(28.777 166.524)"/><path d="M132.408,350.31A5.451,5.451,0,0,0,135,346.893a11.424,11.424,0,0,0-1.311-9.61A17.29,17.29,0,0,0,123.1,330.1c-4.258-.894-8.388-2.415-12.725-3.292-3.12-.631-6.189-1.491-9.252-2.349-9.362-2.623-19.445-4.623-28.336-8.557a2.952,2.952,0,0,1-1.415-1.019,3.078,3.078,0,0,1-.045-2.333Q75.8,294.561,79.533,276.4a59.154,59.154,0,0,0,1.623-12.476,30.876,30.876,0,0,0-8.4-20.714c-3.22-3.388-7.665-6.132-12.306-5.584-3.812.45-7.091,3.085-9.236,6.27s-3.324,6.9-4.478,10.567c-3.891,12.352-8.4,24.839-10.145,37.679a71.814,71.814,0,0,0-.411,10.129c.062,9.711.3,20.04,5.66,28.143,17.587,26.6,58.371,23.34,85.712,20.792a14.062,14.062,0,0,0,4.855-.9" transform="translate(17.548 115.244)" fill="#efb68f"/><path d="M77.643,224.922c-.157-.655-.579-1.19-.784-1.819-.171-.527-.181-1.028-.4-1.545-.536-1.256-1.488-2.269-1.809-3.633-.272-1.152.144-2.112.134-3.229a16.457,16.457,0,0,0-.61-2.823q-.659-3.246-1.142-6.526a7.789,7.789,0,0,1,.006-3.324,6.679,6.679,0,0,1,2.041-2.892,19.269,19.269,0,0,1,4.041-2.863,5.381,5.381,0,0,0,1.9-1.341,8.625,8.625,0,0,0,.915-2.923,7.858,7.858,0,0,1,3.258-4.045c3.748-2.614,8.523-3.432,13.081-3.107a53.66,53.66,0,0,1,13.3,3.178,4.583,4.583,0,0,1,1.908,1.011c.821.857.867,2.2,1.519,3.194,1.007,1.536,3.113,1.824,4.638,2.847a5.385,5.385,0,0,1,2.326,3.907,6.6,6.6,0,0,1-6.477,7.039c-.915.022-1.824-.178-2.74-.169-2.256.025-4.3,1.314-6.508,1.764-2.057.419-4.2.1-6.279.368s-4.314,1.414-4.8,3.456c-.41,1.714-.385,2.452-2.087,3.264-1.111.53-2.519.72-3.279,1.793a24.814,24.814,0,0,0-2.115,4.549q-1.058,2.473-1.962,5.006a13.239,13.239,0,0,1-1.354,3.027,4.057,4.057,0,0,1-2.651,1.846c-1.571.227-2.373-1.735-3.128-2.789a5.612,5.612,0,0,1-.613-1,11.14,11.14,0,0,1-.324-2.226" transform="translate(35.341 89.643)"/><path d="M169.137,302.476c-5.853,3.163-11.076,7.614-16.177,11.841A194.367,194.367,0,0,1,137,326.776a67.99,67.99,0,0,1-8.814,5.012c-3.138,1.473-6.374,2.722-9.552,4.1a52.973,52.973,0,0,0-9.243,4.911c-3.025,2.1-5.594,4.77-8.594,6.9a66.348,66.348,0,0,1-10.629,5.762c-.893.416-1.785.83-2.675,1.255a7.293,7.293,0,0,0-2.147,1.212,2.013,2.013,0,0,0-.469,1.784,31.928,31.928,0,0,0,.648,3.322c.119.481.93.4.884-.12-.074-.852-.19-1.686-.322-2.531A2.642,2.642,0,0,1,86.039,357c.192-.5.683-.659,1.139-.884,1.571-.769,3.165-1.5,4.748-2.241a61.607,61.607,0,0,0,9.166-5.027c2.936-2.049,5.439-4.635,8.336-6.732a49.039,49.039,0,0,1,8.881-4.9c3.117-1.387,6.3-2.62,9.407-4.031a67.6,67.6,0,0,0,8.675-4.741,159.945,159.945,0,0,0,15.419-11.814c2.88-2.4,5.759-4.8,8.735-7.072,2.93-2.24,5.985-4.25,9.082-6.248a.484.484,0,0,0-.489-.835" transform="translate(41.16 146.706)"/><path d="M87.132,215.112c-5.508,1.72-9.328-3.971-7.849-7.91a5.935,5.935,0,0,1,11.3.515" transform="translate(38.307 98.634)" fill="#efb68f"/><path d="M59.393,232.031l.428-.272c1.415-.881,2.615.8,3.821,1.406,1.7.847,3.5,1.452,5.244,2.192a33.061,33.061,0,0,1,7.32,4.3A31.949,31.949,0,0,1,86.39,253.034c4.421,11.178,2.223,23.747-.037,35.554-7.411-.212-13.968.293-21.352-1.166a153.276,153.276,0,0,1-27.9-8.5,138.971,138.971,0,0,1,2.978-14.464,80.782,80.782,0,0,1,7.326-18.612c3.095-5.537,6.6-10.333,11.983-13.815" transform="translate(18.001 112.311)" fill="#4e8ae1"/><path d="M65.781,319.677h96.888a2.569,2.569,0,1,0,0-5.138H65.781a2.569,2.569,0,1,0,0,5.138" transform="translate(30.666 152.59)" fill="#ece8ef"/><path d="M74.62,330.828h84.8l17.614-43.495a2.154,2.154,0,0,0-2-2.963H94.884a2.151,2.151,0,0,0-2,1.346Z" transform="translate(36.2 137.954)" fill="#ece8ef"/><path d="M115.036,296.907h0a4.139,4.139,0,0,1,3.52,1.549,3.226,3.226,0,0,1,.241,3.057,6.7,6.7,0,0,1-2.766,3.14,8.157,8.157,0,0,1-4.26,1.288,4.137,4.137,0,0,1-3.52-1.547,3.227,3.227,0,0,1-.241-3.059,6.7,6.7,0,0,1,2.766-3.14A8.157,8.157,0,0,1,115.036,296.907Zm-3.266,8.534c2.751,0,5.693-1.842,6.559-4.106a2.742,2.742,0,0,0-.186-2.6,3.656,3.656,0,0,0-3.108-1.332c-2.751,0-5.693,1.842-6.559,4.106a2.743,2.743,0,0,0,.186,2.6A3.653,3.653,0,0,0,111.77,305.44Z" transform="translate(52.388 144.157)" fill="#a5a3a8"/><path d="M104.093,212.685a15.137,15.137,0,0,0-1.421.818,4.362,4.362,0,0,1-1.634.361,7.626,7.626,0,0,1-3.652-1.063c-.212-.113-.48.189-.272.35a7.01,7.01,0,0,0,3.977,1.662,4.575,4.575,0,0,0,1.959-.325c.606-.251,1.369-.646,1.5-1.348a.376.376,0,0,0-.457-.454" transform="translate(47.076 103.169)"/><path d="M188.645,157.844c-2.8,3.944-4.513,8.82-6.521,13.2q-3.143,6.852-6.338,13.681-.744,1.588-1.49,3.175-.448.951-.893,1.905c-.1.209-.512,1.283-.57,1.308-.251.11-2.027-1.617-2.37-1.907q-1.23-1.036-2.434-2.1c-1.828-1.622-3.6-3.307-5.358-5a51.591,51.591,0,0,0-4.907-4.65c-.9-.659-2.29.446-1.695,1.455a34.021,34.021,0,0,0,5.21,6.082c1.742,1.784,3.578,3.478,5.434,5.142,1.559,1.4,3.633,3.944,5.79,4.3,2.3.383,3.171-1.831,3.977-3.523,2.514-5.275,4.957-10.586,7.4-15.9,1.17-2.548,2.344-5.1,3.5-7.654a46.933,46.933,0,0,0,3.307-8.468,1.16,1.16,0,0,0-2.036-1.047" transform="translate(75.643 76.328)" fill="#4e8ae1"/><path d="M86.042,207.048a3,3,0,0,0-2.645-1.742.174.174,0,0,0-.046.34,2.764,2.764,0,0,1,2.021,1.684,2.988,2.988,0,0,1-.46,2.661c-.221.325.251.636.518.4a2.906,2.906,0,0,0,.612-3.344" transform="translate(40.376 99.598)" fill="#bf7e71"/><path d="M160.251,186.74c3.671-2.5,7.383-5.04,10.351-8.346a4.826,4.826,0,0,0,1.338-2.29,1.873,1.873,0,0,0-1.157-2.155c-.968-.251-1.852.557-2.584,1.239a17.723,17.723,0,0,1-10.336,4.634" transform="translate(76.583 84.363)" fill="#efb68f"/><path d="M99.44,220c-.493-.322-1.286-.091-1.845-.061-.664.037-1.329.056-1.995.065-1.307.016-2.606-.077-3.909-.143-.6-.03-.747.953-.143,1.059a23.719,23.719,0,0,0,4.053.294c.667,0,1.329-.03,1.995-.082.59-.048,1.5.027,1.935-.429a.456.456,0,0,0-.092-.7" transform="translate(44.226 106.646)" fill="#bf7e71"/><g transform="translate(15.099 460.896)" opacity="0.2"><g clip-path="url(#d)"><path d="M17.343,312.624c.9,1.807.44,4.054,1.289,5.887.63,1.357,1.892,2.3,2.747,3.533a6.086,6.086,0,0,1,.281,6.594,4.957,4.957,0,0,1-6.119,1.849c-1.672-.833-2.627-2.626-3.3-4.371C10.863,322.5,9.42,316.848,10.607,313c.965-3.129,5.033-3.789,6.737-.374" transform="translate(-10.167 -310.342)"/></g></g><g transform="translate(238.405 456.249)" opacity="0.2"><g clip-path="url(#e)"><path d="M169.159,308.345a5.183,5.183,0,0,0-5.488-.607,4.684,4.684,0,0,0-2.434,4.873,21.936,21.936,0,0,1,.829,3.08c.056,1.363-.769,2.586-1.206,3.878a5.867,5.867,0,0,0,.982,5.7,4.4,4.4,0,0,0,5.486.894c1.788-1.179,2.232-3.558,2.569-5.673.6-3.792,2.935-9.191-.738-12.141" transform="translate(-160.529 -307.213)"/></g></g><path d="M75.442,375.244a3.376,3.376,0,0,0-1.051-.2c-.266-.007-.529-.042-.793-.049-.232-.007-.46,0-.692-.021-.12-.009-.239-.021-.359-.033-.039-.006-.079-.012-.117-.019-.49-.085-.961-.238-1.447-.342a8.56,8.56,0,0,1-1.478-.46,1.087,1.087,0,0,0-1.231.5,1.116,1.116,0,0,0,.171,1.322,10.612,10.612,0,0,0,1.427,1.148,6.52,6.52,0,0,0,1.8.759c1.289.376,2.9.633,4.092-.138a1.36,1.36,0,0,0-.322-2.47" transform="translate(33.053 181.469)" fill="#f79654"/><path d="M75.351,370.234a4.014,4.014,0,0,0-1.464-.1l-1.145.042-1.1.04a4.232,4.232,0,0,0-.812.064c-.181.043-.356.11-.533.169a1.086,1.086,0,0,0-.769.893,1.068,1.068,0,0,0,.512,1.069,4.705,4.705,0,0,0,.711.349,4.947,4.947,0,0,0,.57.135l1.068.224,1.066.224.575.12a3.4,3.4,0,0,0,.624.1,3.98,3.98,0,0,0,.7-.086l.4-.169a1.257,1.257,0,0,0,.471-.432,1.607,1.607,0,0,0,.361-1.017,1.751,1.751,0,0,0-1.233-1.62" transform="translate(33.723 179.551)" fill="#f79654"/><path d="M78.194,367.426a3.008,3.008,0,0,0-1.347-.616l-1.549-.468c-1.049-.318-2.078-.714-3.111-1.078a.989.989,0,0,0-.76,1.8c.93.569,1.882,1.111,2.785,1.72l1.4.946a2.438,2.438,0,0,0,1.381.585,1.709,1.709,0,0,0,1.568-1.017,1.728,1.728,0,0,0-.37-1.876" transform="translate(34.417 177.176)" fill="#f79654"/><path d="M123.148,354.484a.865.865,0,0,0-1.124-.224,9.73,9.73,0,0,0-1.5,1.237,14.353,14.353,0,0,0-1.264,1.61,12.677,12.677,0,0,0-.91,1.559,7.934,7.934,0,0,0-.463,1.043,3.811,3.811,0,0,0-.114.462,2,2,0,0,0,.055.9,1.126,1.126,0,0,0,1.862.492,1.645,1.645,0,0,0,.444-.578c.015-.034.021-.05.031-.073l.016-.036.076-.172c.146-.336.247-.686.373-1.029.048-.126.1-.251.147-.377.031-.068.061-.138.092-.206.119-.26.248-.517.383-.769a12.992,12.992,0,0,1,.884-1.406c.165-.229.319-.465.483-.7.077-.108.154-.215.235-.322l.042-.053c.059-.074.12-.148.181-.223a.878.878,0,0,0,.07-1.142" transform="translate(57.121 171.798)" fill="#f79654"/><path d="M127.026,356.443a1.527,1.527,0,0,0-.563-.328,1.266,1.266,0,0,0-.983.129c-.244.186-.489.371-.72.572a4.733,4.733,0,0,0-.615.729,9.029,9.029,0,0,0-.728,1.114,11.678,11.678,0,0,0-.667,1.478,5.925,5.925,0,0,0-.211.631,5.842,5.842,0,0,0-.119,1.047,1.563,1.563,0,0,0,3.065.414c.053-.2.128-.4.177-.6s.086-.435.141-.651a8.489,8.489,0,0,1,.35-1.035,9.02,9.02,0,0,1,.462-.91c.208-.345.4-.7.609-1.041a1.293,1.293,0,0,0-.2-1.547" transform="translate(59.388 172.737)" fill="#f79654"/><path d="M70.324,256c-.789,3.447-1.467,6.924-2.174,10.388q-.53,2.6-1.057,5.2-.245,1.2-.489,2.4c-.08.4-.33,2.859-1.216,2.346a.52.52,0,0,0-.524.9c1.212.746,2.194-.352,2.507-1.472.591-2.112,1-4.293,1.5-6.429,1-4.3,2.049-8.6,2.945-12.924.2-.97-1.265-1.387-1.49-.411" transform="translate(31.346 123.921)"/><path d="M116.385,256.193c-.163-.108-.339-.212-.492-.336-.117-.1-.26-.258-.382-.383-.278-.288-.588-.545-.878-.823s-.56-.549-.83-.833c-.143-.15-.279-.31-.434-.45a1.606,1.606,0,0,0-1.081-.466.936.936,0,0,0-.753.377,1,1,0,0,0-.171.835c.094.612.7.977,1.182,1.277q.53.327,1.075.63a10.2,10.2,0,0,0,1.19.593c.159.062.358.123.493.192.166.085.364.206.545.3a.53.53,0,0,0,.535-.915" transform="translate(54.015 122.688)"/><path d="M106.676,224.391a.305.305,0,0,0-.441-.18c-.98.506-1.467,1.885-2.158,2.715a11.656,11.656,0,0,1-2.893,2.488,12.787,12.787,0,0,1-8.192,1.5c-3.085-.282-6.353-.6-9.193-1.928a11.193,11.193,0,0,1-3.241-2.235A8.216,8.216,0,0,1,79.4,225.3a4.439,4.439,0,0,0-1.007-1.436.522.522,0,0,0-.763.31c-.172.985.573,1.947,1.148,2.693a11.255,11.255,0,0,0,2.489,2.341,17.428,17.428,0,0,0,7.047,2.639c4.954.873,10.27,1.515,14.547-1.687a13.055,13.055,0,0,0,2.641-2.642c.621-.826,1.519-2.039,1.172-3.126" transform="translate(37.649 108.564)"/><path d="M171.693,235.463c-.87,1.61-1.669,3.239-2.7,4.76a31.213,31.213,0,0,1-3.472,4.246.525.525,0,0,0,.743.743,23.022,23.022,0,0,0,3.7-4.329,18.1,18.1,0,0,0,2.482-5.1.417.417,0,0,0-.759-.321" transform="translate(80.224 114.129)" fill="#bf7e71"/><path d="M42.838,299.959a11.2,11.2,0,0,1-.844-1.479,11.066,11.066,0,0,1-.933-3.148c-.076-.538-.956-.4-.94.128a10.07,10.07,0,0,0,.713,3.509,10.75,10.75,0,0,0,.809,1.631c.325.524.723,1.169,1.356,1.335a.5.5,0,0,0,.621-.472,3.544,3.544,0,0,0-.783-1.5" transform="translate(19.464 143.105)" fill="#bf7e71"/><path d="M128.448,42.678a38.874,38.874,0,0,0-2.556-6.986,6.373,6.373,0,0,1-.492.444,6.164,6.164,0,0,1-8.716-1.444A6.456,6.456,0,0,1,118.1,25.8a5.8,5.8,0,0,1,.618-.364,38.288,38.288,0,0,0-5.651-4.77,6.3,6.3,0,0,1-.221.676,6.194,6.194,0,0,1-8.256,3.2,6.426,6.426,0,0,1-3.134-8.425,6.187,6.187,0,0,1,.4-.7,36.777,36.777,0,0,0-7.287-1.259,6.433,6.433,0,0,1,.156.781,6.247,6.247,0,1,1-12.425,1.283,6.587,6.587,0,0,1,0-.906,37.082,37.082,0,0,0-7,2.642,6.27,6.27,0,0,1-.826,9.572,6.164,6.164,0,0,1-8.716-1.444,6.542,6.542,0,0,1-.483-.851,38.674,38.674,0,0,0-4.79,5.9,6.225,6.225,0,0,1,.9.307,6.427,6.427,0,0,1,3.134,8.425,6.194,6.194,0,0,1-8.256,3.2,6.313,6.313,0,0,1-.887-.521,38.994,38.994,0,0,0-1.237,7.6,6.349,6.349,0,1,1,2.226,12.478,6.141,6.141,0,0,1-1.032,0,38.911,38.911,0,0,0,2.66,7.209,6.336,6.336,0,0,1,.738-.668A6.163,6.163,0,0,1,67.448,70.6,6.455,6.455,0,0,1,66.034,79.5a6.161,6.161,0,0,1-.858.506A38.3,38.3,0,0,0,71,84.851a6.458,6.458,0,0,1,.294-.9,6.194,6.194,0,0,1,8.256-3.2,6.426,6.426,0,0,1,3.134,8.425,6.312,6.312,0,0,1-.46.815A36.858,36.858,0,0,0,89.584,91.2a6.525,6.525,0,0,1-.169-.844,6.249,6.249,0,1,1,12.425-.441,37.09,37.09,0,0,0,6.912-2.678,6.275,6.275,0,0,1-.5-.578,6.456,6.456,0,0,1,1.414-8.894,5.988,5.988,0,0,1,9.087,2.1,38.664,38.664,0,0,0,4.64-5.8,5.765,5.765,0,0,1-.643-.22,6.426,6.426,0,0,1-3.134-8.425,5.929,5.929,0,0,1,8.856-2.843,39.176,39.176,0,0,0,1.179-7.356,5.731,5.731,0,0,1-.624.129,6.372,6.372,0,0,1-1.258-12.678,5.8,5.8,0,0,1,.682,0m-11.241,7.35c1.417,14.269-8.77,27.005-22.751,28.45a25.586,25.586,0,0,1-27.879-23.22c-1.417-14.268,8.77-27.005,22.751-28.45a25.587,25.587,0,0,1,27.879,23.22" transform="translate(26.264 6.865)" fill="#f79654"/><path d="M60.353,45.789c-2.127,16.125,9,31.009,24.8,33.181s30.386-9.181,32.511-25.306-9-31.011-24.8-33.182S62.478,29.663,60.353,45.789M91.6,30.081a19.778,19.778,0,0,1,16.66,22.292,19.518,19.518,0,0,1-21.842,17,19.778,19.778,0,0,1-16.662-22.29,19.521,19.521,0,0,1,21.843-17" transform="translate(29.152 9.807)" fill="#f79654"/><path d="M172.574,43.424a35.713,35.713,0,0,0-2.345-6.411,5.367,5.367,0,0,1-.451.407,5.657,5.657,0,0,1-8-1.325,5.926,5.926,0,0,1,1.3-8.164,5.5,5.5,0,0,1,.567-.334,35.21,35.21,0,0,0-5.186-4.378,5.615,5.615,0,0,1-.2.621,5.684,5.684,0,0,1-7.576,2.935,5.9,5.9,0,0,1-2.875-7.732,5.756,5.756,0,0,1,.364-.643,33.814,33.814,0,0,0-6.688-1.155,5.7,5.7,0,0,1,.143.716,5.733,5.733,0,1,1-11.4,1.178,5.757,5.757,0,0,1,0-.832,33.995,33.995,0,0,0-6.422,2.425,5.591,5.591,0,0,1,.539.622,5.924,5.924,0,0,1-1.3,8.162,5.657,5.657,0,0,1-8-1.325,6.083,6.083,0,0,1-.443-.781,35.556,35.556,0,0,0-4.394,5.419,5.565,5.565,0,0,1,.829.282,5.9,5.9,0,0,1,2.875,7.732,5.685,5.685,0,0,1-7.577,2.935,5.605,5.605,0,0,1-.814-.48,35.875,35.875,0,0,0-1.136,6.971,5.477,5.477,0,0,1,.888-.184,5.848,5.848,0,0,1,1.154,11.636,5.608,5.608,0,0,1-.948,0,35.634,35.634,0,0,0,2.442,6.616,5.8,5.8,0,0,1,.677-.613,5.656,5.656,0,0,1,8,1.325,5.924,5.924,0,0,1-1.3,8.162,5.68,5.68,0,0,1-.789.465,35.07,35.07,0,0,0,5.342,4.449,5.872,5.872,0,0,1,.27-.824,5.685,5.685,0,0,1,7.577-2.935A5.9,5.9,0,0,1,130.57,86.1a5.83,5.83,0,0,1-.423.748,33.927,33.927,0,0,0,6.759,1.108,6.043,6.043,0,0,1-.154-.774,5.735,5.735,0,1,1,11.4-.405,34,34,0,0,0,6.343-2.458,5.859,5.859,0,0,1-.46-.53,5.926,5.926,0,0,1,1.3-8.164,5.657,5.657,0,0,1,8,1.325,6.076,6.076,0,0,1,.342.6,35.393,35.393,0,0,0,4.258-5.323,5.552,5.552,0,0,1-.591-.2,5.9,5.9,0,0,1-2.875-7.732,5.446,5.446,0,0,1,8.128-2.609,35.766,35.766,0,0,0,1.081-6.751,5.2,5.2,0,0,1-.572.119,5.848,5.848,0,0,1-1.154-11.636c.211-.015.414.006.624.007m-10.317,6.745a23.361,23.361,0,1,1-25.586-21.31,23.71,23.71,0,0,1,25.586,21.31" transform="translate(50.637 8.365)" fill="#f79654"/><path d="M110.08,46.279c-1.951,14.8,8.26,28.459,22.762,30.451s27.886-8.425,29.836-23.224-8.259-28.459-22.76-30.452-27.888,8.427-29.839,23.226m28.678-14.418A18.153,18.153,0,0,1,154.049,52.32,17.915,17.915,0,0,1,134,67.923a18.152,18.152,0,0,1-15.291-20.458,17.914,17.914,0,0,1,20.045-15.6" transform="translate(53.286 11.065)" fill="#f79654"/><path d="M297.568,43.016c-1.622-2.39-4.689-3.181-7.387-3.569-4.013-.575-8.086-.835-12.133-1.022-8.541-.394-17.1-.221-25.641-.1l-26.244.359-26.07.356-12.949.177a59.163,59.163,0,0,0-10.38.668,14.815,14.815,0,0,0-7.905,3.9c-.187-.037-.392.048-.374.293,1.237,17.207.945,34.483.2,51.7-.744,17.265-1.94,34.51-2.4,51.786-.107,4.053-.379,8.186-.14,12.236.153,2.611.876,5.62,3.567,6.686,1.767.7,3.9.535,5.764.613q3.19.134,6.38.258,6.552.256,13.106.468,26.131.851,52.276,1.023,13.027.087,26.056.006,6.558-.04,13.114-.125c2.948-.037,6.346.021,8.88-1.736,2.831-1.963,2.942-5.36,2.835-8.495q-.218-6.454-.383-12.907c-.214-8.721-.385-17.443-.453-26.166q-.2-26,.566-51.991.194-6.54.457-13.078c.086-2.15.2-4.3.27-6.453a8.046,8.046,0,0,0-1.019-4.888" transform="translate(80.557 18.523)" fill="#fff"/><path d="M271.289,57.966c-7.047-.861-14.327-.389-21.42-.367l-21.05.064c-12.318.037-24.672-.01-36.985.545v1.709c12.313.557,24.668.508,36.985.545l21.05.064c7.091.021,14.374.495,21.42-.367a1.1,1.1,0,0,0,0-2.194" transform="translate(93.062 27.87)" fill="#d47172"/><path d="M267.845,74.054c-6.869-.594-13.77-.41-20.661-.417l-21.031-.021c-6.887-.007-13.774.04-20.661.064-4.534.015-9.111.088-13.66.4v2.488c4.426.3,8.877.374,13.292.4q10.515.06,21.029.065l20.661-.021c7.013-.007,14.039.189,21.031-.417a1.27,1.27,0,0,0,0-2.538" transform="translate(93.062 35.712)" fill="#d47172"/><path d="M267.043,86.211l-19.018-.071c-6.2-.024-12.454.172-18.653-.091-6.221-.264-12.423-.5-18.652-.585-3.169-.046-6.34-.045-9.509-.058a58.745,58.745,0,0,0-9.133.171,1.349,1.349,0,0,0,0,2.583,58.379,58.379,0,0,0,9.133.171c3.169-.013,6.34-.012,9.509-.058,6.229-.089,12.43-.321,18.652-.585,6.2-.263,12.448-.068,18.653-.091l19.018-.071a.658.658,0,0,0,0-1.314" transform="translate(92.716 41.386)" fill="#d47172"/><path d="M265.757,108.81a27.471,27.471,0,0,0-4.53-.818c-1.458-.1-2.927-.117-4.389-.153-3.168-.077-6.34-.071-9.509-.105-6.339-.067-12.678-.042-19.018-.049l-19.018-.025c-6.211-.009-12.392-.151-18.557.683a1.023,1.023,0,0,0,0,1.959c6.165.835,12.347.692,18.557.683l19.018-.025c6.339-.009,12.68.018,19.018-.049,3.169-.034,6.341-.031,9.509-.105,1.461-.034,2.93-.061,4.389-.151a27.583,27.583,0,0,0,4.53-.818.536.536,0,0,0,0-1.025" transform="translate(92.177 52.221)" fill="#d47172"/><path d="M185.166,53.594a1.593,1.593,0,0,0-1.778.193,7.613,7.613,0,0,0-8.242,2.287A8.066,8.066,0,0,0,182.888,69a8.192,8.192,0,0,0,6.554-6.116,8.675,8.675,0,0,0-4.276-9.292M183.2,66a5.091,5.091,0,0,1-5.8-1.516,5.492,5.492,0,0,1-.717-6.052,6.528,6.528,0,0,1,6.227-3.245,1.361,1.361,0,0,0,.71,1.053,5.519,5.519,0,0,1,3.117,5.173A5.149,5.149,0,0,1,183.2,66" transform="translate(84.115 25.894)" fill="#5cc9bf"/><path d="M187.062,70.614a1.081,1.081,0,0,0-.126-.046.573.573,0,0,0-.111-.965,8.065,8.065,0,0,0-8.205.965,7.569,7.569,0,0,0-2.834,8.085,8.238,8.238,0,0,0,6.085,5.909,7.567,7.567,0,0,0,5.192-13.948m.867,8a5.165,5.165,0,0,1-5.036,3.546A5.6,5.6,0,0,1,178.3,78.5a5.16,5.16,0,0,1,1.216-5.654,7.679,7.679,0,0,1,6.189-2.183,1.328,1.328,0,0,0,.039,2.2,5.226,5.226,0,0,1,2.185,5.749" transform="translate(85.146 33.423)" fill="#5cc9bf"/><path d="M185.934,99.378a1.34,1.34,0,0,0-.711,2.583,7.738,7.738,0,0,1,4.706,5.13,5.876,5.876,0,0,1-2.306,6.071c-2.338,1.726-5.088,1-7.528-.146a6.385,6.385,0,0,1-2.9-2.241,4.207,4.207,0,0,1-.088-3.674,8.958,8.958,0,0,1,2.747-3.708c1.215-.97,3.042-1.839,4.314-.523.48.5,1.2-.242.751-.751a4.987,4.987,0,0,0-4.613-1.473,8.553,8.553,0,0,0-4.417,3.462,8.427,8.427,0,0,0-1.864,5.309,6.415,6.415,0,0,0,2.559,4.7,15.663,15.663,0,0,0,5.179,2.532,8.445,8.445,0,0,0,5.8-.18,8.923,8.923,0,0,0,5.441-8.32,9.535,9.535,0,0,0-7.069-8.767" transform="translate(84.42 48.188)" fill="#5cc9bf"/><path d="M264.307,52.937c.2,7.843.53,15.681.814,23.521.137,3.768.122,7.607.506,11.358.261,2.548,1.059,5.434,3.7,6.444a17.484,17.484,0,0,0,5.2.6q3,.165,6,.322,6,.323,12.012.6,12.014.552,24.034.919,24.041.735,48.1.7c15.176-.022,30.427,0,45.583-.958a.654.654,0,0,0,.713.169,3.436,3.436,0,0,0,.533-.247c.423-.028.847-.049,1.268-.079a.321.321,0,0,0,0-.642h-.291a7.564,7.564,0,0,0,1.537-4.556c.287-3.508.49-7.023.686-10.537q1.072-19.087.891-38.215c-.059-6.373-.248-12.744-.532-19.111-.281-6.3-.588-12.627-1.271-18.894,1.026.061,2.052.108,3.077.172,1.23.076,1.222-1.836,0-1.911C406.138,1.92,395.405,1.332,384.656.928q-28.592-1.076-57.214-.9-28.7.174-57.382,1.6a1.023,1.023,0,0,0-.958.729Q268.328,5,267.692,7.683c-3.483,14.792-3.777,30.133-3.385,45.255" transform="translate(128.157 0)" fill="#fff"/><path d="M274.26,16.781c32.735.009,65.47-.088,98.205.08,9.364.048,18.711.092,28.058.648a.485.485,0,0,1,0,.97c-16.451.977-32.993.7-49.471.707L302.32,19.2l-28.058.007a1.213,1.213,0,0,1,0-2.425" transform="translate(132.482 8.132)" fill="#d47172"/><path d="M271.934,27.686c8.535-.451,17.181-.094,25.73-.108q12.682-.02,25.363-.022,25.547-.007,51.093.048c9.56.027,19.134-.039,28.67.717a.554.554,0,0,1,0,1.108c-8.56.679-17.147.686-25.73.71-8.455.024-16.908.065-25.363.062q-25.547-.007-51.093-.025c-9.524-.015-19.161.391-28.67-.113a1.189,1.189,0,0,1,0-2.376" transform="translate(131.364 13.32)" fill="#d47172"/><path d="M271.883,38.683c12.212-.7,24.5-.356,36.732-.327s24.573-.456,36.732.881a.473.473,0,0,1,0,.946c-12.159,1.337-24.506.852-36.732.881s-24.519.376-36.732-.327a1.028,1.028,0,0,1,0-2.054" transform="translate(131.416 18.553)" fill="#d47172"/><path d="M344.775,55.424c.01,1.634-.267,3.7,1.334,4.715a4.411,4.411,0,0,0,2.4.459q1.3,0,2.6,0c1.844,0,3.689-.012,5.535-.024l2.93-.018a11.93,11.93,0,0,0,2.544-.1c1.892-.431,1.894-2.174,1.861-3.762-.031-1.494-.146-2.994-.309-4.484a1.385,1.385,0,0,0-.4-1.993,7.532,7.532,0,0,0-3.291-.4l-3.261-.024-6.2-.045c-1.51-.01-3.536-.361-4.785.7-1.39,1.181-.979,3.356-.968,4.977m2.988,2.2a.3.3,0,0,1,.007-.064,10.9,10.9,0,0,0-.01-2.134c0-.7,0-1.4,0-2.107,0-.074.028-.405.018-.552a.365.365,0,0,1,.039-.009c.68.042,1.38.006,2.061.015l4.4.056,4.4.056c.884.01,1.827.091,2.743.043-.082,1.1-.143,2.2-.168,3.293-.009.371,0,.743,0,1.114,0,.067-.022.26-.028.426h-.018a2.439,2.439,0,0,0-.489-.006l-1.139-.012c-2.985-.033-5.969-.07-8.954-.085-.814,0-1.628,0-2.442-.012a2.887,2.887,0,0,1-.423-.021" transform="translate(167.226 24.103)" fill="#5cc9bf"/><path d="M305.2,53.975c.379,1.681.444,4.7,2.232,5.531a10.647,10.647,0,0,0,3.019.544q1.758.232,3.523.389a82.365,82.365,0,0,0,13.933.058c1.7-.137,4.1-.053,4.308-2.277a19.641,19.641,0,0,0-.261-3.445c-.094-1.035-.239-2.06-.388-3.089a.75.75,0,0,0-.8-.668,1.218,1.218,0,0,0-1-1.046,21.022,21.022,0,0,0-4.279-.368q-1.954-.087-3.907-.147-4.152-.127-8.308-.107-1.833.009-3.665.043a11.886,11.886,0,0,0-3.2.184c-2.055.642-1.565,2.814-1.209,4.4m2.666-1.449c-.012-.045-.016-.092-.027-.138.024,0,.034,0,.061-.009a17.915,17.915,0,0,0,3.42-.028q1.711,0,3.422.013,3.664.038,7.329.151,1.709.056,3.419.132a22.293,22.293,0,0,0,3.9.088,1.413,1.413,0,0,0,.318-.1c-.012,1.028-.015,2.052.016,3.082.016.551.039,1.1.051,1.656s.187.514-.459.515c-2.357,0-4.718.294-7.083.29q-3.31-.007-6.615-.263-1.887-.149-3.765-.383-.76-.1-1.516-.206c-.3-.045-1.533-.052-1.718-.282.192.238-.058-1.242-.085-1.371-.094-.45-.193-.9-.29-1.348-.126-.6-.263-1.2-.383-1.8" transform="translate(147.904 23.939)" fill="#5cc9bf"/><path d="M272.547,55.031a17.8,17.8,0,0,0,1.215,4.518,1.286,1.286,0,0,0,1.145.658c3.6-.285,7.344.061,10.956.119,3.454.055,6.909.122,10.363.166,1.77.022,3.561.107,5.33.04a2.493,2.493,0,0,0,2.482-1.546c1.072-2.366,1.492-6.043.252-8.4-.359-.685-1.222-.288-1.325.331q-10.648-.454-21.3-.888l-5.649-.223c-1.282-.05-2.828-.195-3.512,1.158-.594,1.173-.165,2.841.039,4.071m3.469,2.606c-.135-.683-.282-1.363-.4-2.052a14.946,14.946,0,0,1-.429-2.847,24.849,24.849,0,0,1,2.911.192l3.567.165q3.569.165,7.136.328,7.017.31,14.033.6a9.826,9.826,0,0,1-.146,1.447,14.972,14.972,0,0,1-.38,1.568c-.306,1-.319,1.108-1.348,1.141-2.841.094-5.743-.156-8.587-.214l-8.587-.175c-2.562-.052-5.2.045-7.773-.151" transform="translate(132.053 24.145)" fill="#5cc9bf"/><path d="M148.571,115.957q-.613-2.6-1.363-5.158a.988.988,0,0,0-.927-.705q-27.737-1.374-55.517-1.546-27.683-.167-55.355.875c-10.4.391-20.784.961-31.17,1.605-1.182.073-1.191,1.923,0,1.849.992-.062,1.986-.108,2.978-.166-.661,6.064-.958,12.188-1.23,18.28-.275,6.159-.457,12.324-.515,18.49q-.174,18.494.863,36.974c.19,3.4.388,6.8.664,10.194a7.333,7.333,0,0,0,1.488,4.408H8.2a.31.31,0,0,0,0,.619c.408.03.818.049,1.227.076a3.583,3.583,0,0,0,.517.239.634.634,0,0,0,.689-.163c14.663.927,29.419.9,44.1.927q23.27.033,46.535-.677,11.631-.354,23.253-.888,5.812-.267,11.621-.578,2.9-.156,5.808-.312a16.9,16.9,0,0,0,5.035-.578c2.554-.977,3.327-3.769,3.579-6.235.371-3.63.358-7.344.49-10.99.275-7.585.591-15.169.789-22.757.379-14.631.1-29.474-3.278-43.784" transform="translate(1.625 52.648)" fill="#fff"/><path d="M90.749,120.047l.7,62.292L77.7,182.4l-.7-62.29Z" transform="translate(37.356 58.237)" fill="#7bc9c2"/><path d="M72.114,128.447l.567,49.965-13.746.068-.566-49.967Z" transform="translate(28.316 62.312)" fill="#7bc9c2"/><path d="M39.711,135.762l.469,39.319,13.746-.062-.469-39.256Z" transform="translate(19.265 65.861)" fill="#7bc9c2"/><path d="M34.425,146.865l.258,22.9-13.745.067-.26-22.9Z" transform="translate(10.032 71.247)" fill="#7bc9c2"/><path d="M131.651,161.864c-7.788-.582-15.681-.275-23.486-.3q-11.566-.033-23.131-.013l-46.618.006-26.334,0a.95.95,0,0,0,0,1.9c31.078,0,62.157.1,93.234,0,8.747-.025,17.606.346,26.333-.306a.648.648,0,0,0,0-1.3" transform="translate(5.417 78.35)" fill="#a5a3a8"/><path d="M151.366,79.955a15.641,15.641,0,0,0-2,2.158,1.4,1.4,0,0,0-.2,1.519c-6.7,11.5-13.243,23.117-19.716,34.749a162.576,162.576,0,0,1-12.693-14.308c-.7-.876-2.06.247-1.522,1.175a83.245,83.245,0,0,0,13.4,17.118,1.715,1.715,0,0,0,2.664-.343c7.737-13.228,15.429-26.511,22.857-39.914a1.785,1.785,0,0,0-2.791-2.153" transform="translate(55.841 38.569)" fill="#4e8ae1"/><path d="M192.33,116.281a15.642,15.642,0,0,0-2,2.158,1.4,1.4,0,0,0-.2,1.519c-6.7,11.5-13.243,23.117-19.716,34.749A162.576,162.576,0,0,1,157.716,140.4c-.7-.876-2.06.247-1.522,1.175a83.285,83.285,0,0,0,13.4,17.118,1.715,1.715,0,0,0,2.664-.343c7.737-13.228,15.429-26.511,22.858-39.914a1.785,1.785,0,0,0-2.791-2.153" transform="translate(75.714 56.192)" fill="#4e8ae1"/><path d="M297.9,112.222c26.37,7.05,54.035,14.7,67.208,26.376,10.574,9.374,10.267,20.355,3.279,30.271s-20.21,18.916-34.822,27.341c-5.525,3.186-11.594,5.225-17.951,4.714-4.487-.361-8.568-2.982-11.5-6.392a39.992,39.992,0,0,1-6.5-11.758,98.881,98.881,0,0,1-7.074-39.825,172.877,172.877,0,0,1,2.872-22.36c.557-3.218,1.755-7.121,4.969-7.7-.493.11.015-.783-.478-.671" transform="translate(140.913 54.437)" fill="#efb68f"/><path d="M306.908,331c.261,4.387,5.28,51.514,5.28,51.514l26.41-2.551-1.591-51Z" transform="translate(148.888 159.587)" fill="#efb68f"/><path d="M350.537,380.859c1.556-1.386,1.225-3.979.541-7.118-.316-1.452-.777-2.869-1.126-4.314-.524-2.164.12-6.4-.878-8.186-.851-1.524-2.226-1.353-3.887-1.455a57.107,57.107,0,0,0-9.266.053,32.084,32.084,0,0,1-8.205-.135c-1.824-.282-5.234-2.162-6.918-1.586-1.27.435-3.171,3.435-4.562,4.311a42.445,42.445,0,0,1-6.662,3.091,67.5,67.5,0,0,0-12.837,6.7c-2.577,1.775-8.275,5.443-9.3,8.476a1.929,1.929,0,0,0,.9,2.427,2.785,2.785,0,0,0,1.035.107l57.474-1.276a5.6,5.6,0,0,0,3.693-1.092" transform="translate(139.384 173.678)"/><path d="M284.2,265.015c-1.343-14.219-2.587-28.51-2.406-42.774.168-13.192-1.706-27.086-.258-40.178.885-8,5.786-12.521,14.008-12.986,9.971-.563,19.746,4.558,26.241,12.144,10.968,12.809,11.591,28.394,13.1,44.171,1.647,17.187,5.979,33.969,8.043,51.1q8.59,71.321,14.241,142.955c.174,2.205.276,4.648-1.108,6.373-1.187,1.479-3.163,2.027-5.014,2.442a103.584,103.584,0,0,1-39.829,1.031c-2.878-.489-5.954-1.225-7.847-3.447-1.741-2.044-2.091-4.892-2.367-7.562C295.792,367.968,284.2,315.595,284.2,265.015" transform="translate(136.31 82.002)" fill="#4e8ae1"/><path d="M239.4,335.876c-.183,4.423-1.035,47.2-1.035,47.2l26.652-1.671,7.289-49.869Z" transform="translate(115.637 160.837)" fill="#efb68f"/><rect width="23.706" height="29.833" transform="translate(412.539 135.948)" fill="#efb68f"/><path d="M319.729,163.114c-17.75-10.284-33.475,9.748-39.151,24.329C250.24,265.385,238.3,349.006,227.27,431.979a4.476,4.476,0,0,0,3.6,5.006l.1.018c1.438.257,2.878.471,4.317.664,7.942-.818,19.681-.226,30.106.572,7.876-.5,15.757-1.291,23.633-1.914,3.413-9.708,2.832-25.154,4.288-34.312,2.314-14.568,4.592-29.141,7.011-43.691,4.675-28.134,9.8-56.215,16.473-83.952q3.143-13.059,6.766-25.967c.1-.336,4.641-16.448,6.165-25.926l0-.082c-.062-1.668-.141-3.6,1.124-4.693a3.832,3.832,0,0,1,.848-.524c1.145-2.485,2.486-4.876,3.769-7.305,6.759-12.814-3.478-39.647-15.751-46.758" transform="translate(110.234 77.76)" fill="#4e8ae1"/></g><g transform="translate(337.465 238.047)"><g clip-path="url(#f)"><path d="M351.387,192.12c-1.043-5.094-7.736-4.868-13.994-5.59q-11.127-1.283-22.31-1.984c-15.208-.953-30.769-1.772-45.872.554a3.747,3.747,0,0,0-2.8,2.8c-2.106-.067-4.213-.119-6.325-.144-2.617-.033-3.282,4.08-.628,4.647,28.24,6.046,57.47,2.929,85.743,8.634a5.537,5.537,0,0,0,3.362-.015c1.354-.615,1.946-2.189,2.352-3.621a11.344,11.344,0,0,0,.469-5.281" transform="translate(-212.416 -148.983)" fill="#377dd1"/></g></g><g clip-path="url(#a)"><path d="M349.98,207.23q-2.018-22.587-3.285-45.232c-.313-5.593,0-11.557-.842-17.088-.648-4.255-2.877-8.054-5.133-11.808-2.468-4.1-4.819-8.281-7-12.546q-1.666-3.264-3.2-6.594c-1.317-2.857-1.589-4.748-4.947-5.59-6.483-1.623-13.359-3.554-20.107-3.258-6.855.3-13.755-.147-20.642.293-11.113.71-14.85,7.706-19.327,17.074a54.911,54.911,0,0,0-4.167,12.585c-2.544,12.35-1.608,25.107-1.631,37.716a245.824,245.824,0,0,1-6.439,55.417c32.815,3.3,65.978-1.142,98.876,1.172q-1.17-11.058-2.159-22.14" transform="translate(122.863 50.978)" fill="#f79654"/><path d="M306.607,134.247c-1.981-5.562-6.606-11.327-12.465-10.592-2.483.312-4.656,1.766-6.682,3.238-14.729,10.7-27.937,23.858-37.055,39.617.3-.526-4.026-6.135-4.515-6.879l-4.687-7.143c-4.583-6.983-8.7-14.438-13.777-21.083-7.246-9.491-14.232-18.839-19.964-29.35-.555-1.017-1.341-2.192-2.5-2.136a2.116,2.116,0,0,0-1.767,2.1,6.17,6.17,0,0,0,.829,2.865q1.867,3.914,3.735,7.827a.884.884,0,0,1-.386,1.4c-1.531.985-3.313,1.653-4.781,2.641-1.654,1.112-2.81,3.465-3.751,5.162-2.672,4.818.526,8.6,3.373,12.107,3.334,4.1,5.351,9.1,7.426,13.905a326.809,326.809,0,0,0,16.295,32.625c2.624,4.592,4.959,9.012,8.82,12.591,4.059,3.763,7.9,7.65,12.123,11.263,2.219,1.9,4.632,3.8,7.512,4.285,3.9.656,7.7-1.412,11.029-3.544a142.142,142.142,0,0,0,28.712-24.277c11.006-12.15,17.98-31.18,12.477-46.624" transform="translate(95.976 48.472)" fill="#efb68f"/><path d="M238.2,145.381l27.316-27.3a51.089,51.089,0,0,1,8.967-7.672c11.112-6.857,26.236-7.513,32.956,4.931,7.34,13.592-1.074,30.687-9.132,42.262-7.449,10.7-17.152,19.6-26.769,28.4a2.8,2.8,0,0,0,2.771-1.435" transform="translate(115.554 51.205)" fill="#f79654"/><path d="M274.975,89.844a43.332,43.332,0,0,0-.961,15.309c.456,3.211,2.948,5.269,5.8,6.538a14.668,14.668,0,0,0,12.7-.53,10.612,10.612,0,0,0,5.453-7.61c.405-2.1.457-4.253.906-6.341.691-3.212,2.317-6.294,2.125-9.575-.229-3.9-3.1-7.282-6.585-9.038s-7.5-2.13-11.407-2.1c-1.692.012-3.618.211-4.626,1.57a5.769,5.769,0,0,0-.795,1.877c-.942,3.26-1.889,6.569-2.612,9.9" transform="translate(132.775 37.108)" fill="#efb68f"/><path d="M289.378,99.716a4.583,4.583,0,0,0-.085,2.364c.478,1.354,2.143,1.787,3.252,2.7,1.547,1.276,2.431,3.04,4.068,4.268a15.5,15.5,0,0,0,6.278,2.936,3.667,3.667,0,0,0,1.99,0c1.106-.4,1.653-1.617,2.064-2.721a42.562,42.562,0,0,0,2.207-6.806c.367-1.959,1.359-2.972,2.314-4.727a10.928,10.928,0,0,0,.723-7.772,23.716,23.716,0,0,0-4.328-8.594c-1.721-2.207-3.117-4.651-5.764-5.865a23.158,23.158,0,0,0-7.488-1.555c-4.057-.394-8.22-.839-12.157.217s-7.662,3.988-8.372,8a2,2,0,0,0,.067,1.2,2.287,2.287,0,0,0,1.3.962c2.517,1.05,5.355,2.107,7.889,1.1,1.151-.459,4.241-2.145,3.662.261-.469,1.944-2.865,3.339-2.217,5.6.4,1.4,1.92,2.1,2.976,3.1a5.719,5.719,0,0,1,1.708,4.791c-.021.178-.052.356-.086.535" transform="translate(132.934 35.657)"/><path d="M286.081,86.617a4.5,4.5,0,1,0,0,8.97,4.5,4.5,0,1,0,0-8.97" transform="translate(136.445 42.02)" fill="#efb68f"/><path d="M275.386,382.533a4.235,4.235,0,0,0,4.136-5.086,36.238,36.238,0,0,1-.716-10.68,9.13,9.13,0,0,0,.046-2.614,2.582,2.582,0,0,0-1.506-2,4.047,4.047,0,0,0-1.859-.036c-3.668.456-7.157-.49-10.8-.365a32.879,32.879,0,0,1-6.16-.327c-2.186-.339-4.893-2.017-6.97-2.044-3.263-.042-5.458,5.018-8.88,6.34-5.473,2.115-11.29,3.306-16.627,5.743-4.628,2.112-10.114,5.924-11.712,11.073h61.047Z" transform="translate(103.981 174.342)"/><path d="M301.923,138.714q4.422,6.558,8.844,13.117c2.081,3.089,4,7.025,7.975,7.837,3.379.7,5.629,7.308,8.02,9.436,5.66,5.039,8.963.2,13.846-4.111a226.626,226.626,0,0,0,27.277-28.709c-22.1-16.543-48.121-28.786-74.522-31.082-24.466-2.127,4.04,26.808,8.56,33.512" transform="translate(137.563 50.982)" fill="#f79654"/><path d="M213.535,109.732c-.263-.1-.526-.2-.786-.3-2.13-.786-4.81-.9-5.049,2.027a2.889,2.889,0,0,0,.5,2.039,5.956,5.956,0,0,0,1.169.961,12.46,12.46,0,0,1,1.7,1.654,4.5,4.5,0,0,1,.844,1.16c.7,1.594,2,5.519,4.351,3.206a5.077,5.077,0,0,0,1.16-2.4c.511-1.947.795-4.16-.3-5.851a7.158,7.158,0,0,0-3.6-2.5" transform="translate(100.753 52.858)" fill="#efb68f"/><path d="M229.005,371a31.218,31.218,0,0,1-2.039-2.987,29.056,29.056,0,0,1-1.663-3.642.815.815,0,0,0-1.57.432,15.736,15.736,0,0,0,2.906,6.7c.42.572.93,1.429,1.738,1.429a1,1,0,0,0,.953-.726,1.453,1.453,0,0,0-.325-1.21" transform="translate(108.532 176.488)" fill="#5cc9bf"/><path d="M233.956,368.187a2.476,2.476,0,0,0-.376-.757,13.022,13.022,0,0,0-4.412-3.968.717.717,0,0,0-.867,1.124c.615.619,1.23,1.245,1.8,1.9a12.524,12.524,0,0,1,.838,1.02c-.153-.22.025.034.067.091.068.092.137.186.2.279.128.178.258.353.388.53.405.549.893,1.313,1.7,1.077a1.048,1.048,0,0,0,.655-1.3" transform="translate(110.654 176.279)" fill="#5cc9bf"/><path d="M239.651,365.069a11.564,11.564,0,0,0-2.706-1.8c-.915-.508-1.852-.976-2.783-1.455a.79.79,0,0,0-.8,1.365c.866.591,1.723,1.193,2.606,1.755a11.573,11.573,0,0,0,2.871,1.521.837.837,0,0,0,.809-1.389" transform="translate(113.021 175.477)" fill="#5cc9bf"/><path d="M306.5,365.967a.146.146,0,0,0-.024-.056l0-.027a1.061,1.061,0,0,0-.154-.44,2.424,2.424,0,0,0-.42-.443c-.206-.19-.423-.367-.634-.554-.431-.382-.855-.769-1.265-1.172-.815-.8-1.564-1.669-2.324-2.522a.7.7,0,0,0-.924-.055.709.709,0,0,0-.181.909,17.984,17.984,0,0,0,2.085,2.951c.37.441.753.872,1.157,1.28.206.209.414.42.639.61.123.1.248.208.376.306a1.062,1.062,0,0,0,.59.209l.079.01a.864.864,0,0,0,.8-.211.825.825,0,0,0,.209-.8" transform="translate(145.767 174.911)" fill="#5cc9bf"/><path d="M311.961,364.414a2.327,2.327,0,0,0-.75-1.046c-.336-.3-.668-.607-1.005-.907-.674-.6-1.354-1.2-2.033-1.793-.7-.612-1.432-1.173-2.137-1.77a.566.566,0,0,0-.8.8c1.01,1.124,2,2.262,3.036,3.367q.764.815,1.54,1.62c.068.07.134.144.2.212l.043.042v-.009a.22.22,0,0,1-.039-.05c.025-.015.034.012.039.044,0-.061,0-.034,0,.009h0v.019l0,.016,0,.039.007.025c-.013-.037-.009,0-.007.053a1.417,1.417,0,0,0,.039.3.791.791,0,0,0,.208.429.993.993,0,0,0,1.411-.04,1.419,1.419,0,0,0,.238-1.357" transform="translate(147.998 174.036)" fill="#5cc9bf"/><path d="M304.155,368.2a2.327,2.327,0,0,0-.75-1.046c-.336-.3-.668-.607-1.005-.907-.673-.6-1.354-1.2-2.033-1.793-.7-.613-1.432-1.173-2.137-1.77a.566.566,0,0,0-.8.8c1.01,1.124,2,2.262,3.036,3.367q.764.815,1.54,1.62c.068.071.134.144.2.212l.043.042v-.007a.276.276,0,0,1-.039-.051c.025-.015.034.012.039.045,0-.061,0-.034,0,.009v.009h0v.024a.234.234,0,0,0,0,.039l.007.025c-.013-.037-.009,0-.007.052a1.417,1.417,0,0,0,.039.3.791.791,0,0,0,.208.429.994.994,0,0,0,1.411-.04,1.419,1.419,0,0,0,.235-1.356" transform="translate(144.212 175.872)" fill="#5cc9bf"/><path d="M308.433,362.917h0c0,.085,0,.067,0,.027v-.025" transform="translate(149.626 176.058)" fill="#5cc9bf"/><path d="M308.431,362.906v0Z" transform="translate(149.626 176.054)" fill="#5cc9bf"/><path d="M302.535,195.732a.756.756,0,0,0-1.512,0,44.806,44.806,0,0,1-.818,8.306,71.114,71.114,0,0,1-2.109,7.709c-1.729,5.323-3.679,10.552-4.975,16.005-1.362,5.731-2.268,11.56-3.246,17.366q-1.5,8.924-2.969,17.856c-1.1,6.686-2.193,13.375-3.22,20.073-.086.561.76.815.869.239,2.244-11.967,4.322-23.968,6.386-35.968,1-5.817,1.917-11.661,3.214-17.423a153.323,153.323,0,0,1,4.931-16.133c1.965-5.713,3.992-11.911,3.45-18.029" transform="translate(137.619 94.6)"/><path d="M285.942,135.976c-2.148,2.352-3.766,5.244-5.618,7.836-1.963,2.747-4,5.44-6.071,8.1q-3.016,3.876-6.206,7.614c-2.161,2.531-4.449,4.983-6.5,7.6a.375.375,0,0,0,.53.53,77.116,77.116,0,0,0,7.038-7.305q3.241-3.68,6.315-7.5c2.02-2.513,3.959-5.092,5.85-7.7q1.488-2.056,2.929-4.148a27.394,27.394,0,0,0,2.644-4.325c.247-.554-.428-1.224-.906-.7" transform="translate(126.834 65.873)"/><path d="M317.684,144.836c-.582-3.083-1.163-6.168-1.766-9.246a90.675,90.675,0,0,0-2.066-9.573c-.122-.391-.786-.345-.749.1a85.464,85.464,0,0,0,1.564,9.065c.588,3.03,1.2,6.055,1.8,9.081,1.191,5.96,2.37,12.1,1.118,18.151a.341.341,0,0,0,.656.181c1.555-5.86.541-11.915-.563-17.761" transform="translate(151.893 61.005)"/><path d="M278.827,93.221a6.575,6.575,0,0,1-2.51.4,9.278,9.278,0,0,1-2.461-.633.221.221,0,0,0-.214.367,4.609,4.609,0,0,0,2.632.945,5.465,5.465,0,0,0,2.81-.469c.34-.162.1-.732-.257-.61" transform="translate(132.718 45.106)"/><path d="M287.609,88.74a2.6,2.6,0,0,0-1.338-.379,3.424,3.424,0,0,0-1.429.3,3.711,3.711,0,0,0-1.147.795,3.586,3.586,0,0,0-.465.593,1.566,1.566,0,0,0-.236.76c-.03.4.5.469.7.189.111-.165.206-.319.31-.5a2.3,2.3,0,0,1,.31-.428,3.006,3.006,0,0,1,.922-.685,3.438,3.438,0,0,1,2.216-.269.209.209,0,0,0,.16-.38" transform="translate(137.286 42.866)"/><path d="M264.614,212.512c-.431-.551-1.345-.713-1.954-1.035a11.155,11.155,0,0,1-4.751-4.751c-1.692-3.254-1.387-6.843-1.812-10.362-.059-.487-.855-.72-.952-.129-.613,3.743-.434,8.06,1.3,11.495a12.669,12.669,0,0,0,3.183,3.993,13.019,13.019,0,0,0,2.063,1.421,3.857,3.857,0,0,0,2.559.774.853.853,0,0,0,.37-1.406" transform="translate(123.621 95.027)"/><path d="M345.258,141.977c-.183-.529-1.106-.665-1.215,0-.092.56-.076,1.109-.189,1.666a6.125,6.125,0,0,1-.505,1.51,8.691,8.691,0,0,1-2.009,2.587c-.6.544.165,1.451.839,1.087a5.856,5.856,0,0,0,2.6-2.96,7.451,7.451,0,0,0,.527-1.825,4.618,4.618,0,0,0-.045-2.066" transform="translate(165.487 68.658)" fill="#bf7e71"/><path d="M240.661,167.848a13.221,13.221,0,0,1-3.195-.4,7.165,7.165,0,0,1-2.761-1.545c-.564-.511-1.387.3-.841.841,1.714,1.7,4.525,2.958,6.949,2.237a.58.58,0,0,0-.153-1.133" transform="translate(113.366 80.405)" fill="#bf7e71"/><path d="M237.868,150.158a9.52,9.52,0,0,0-.887-1.573l-1.089-1.524c-.716-1-1.457-1.983-2.2-2.966-.318-.42-1.017-.05-.728.425.648,1.062,1.3,2.122,1.974,3.168l.982,1.516a10.3,10.3,0,0,0,1.221,1.512c.385.4.936-.105.726-.558" transform="translate(112.983 69.815)" fill="#bf7e71"/><path d="M284.477,99.105a33.157,33.157,0,0,1-3.19.925,24.268,24.268,0,0,1-3.273.453.427.427,0,0,0,0,.854,13.046,13.046,0,0,0,6.9-1.2.568.568,0,0,0-.435-1.034" transform="translate(134.671 48.065)" fill="#bf7e71"/></g></g></svg>