<svg xmlns="http://www.w3.org/2000/svg" xmlns:xlink="http://www.w3.org/1999/xlink" width="76.929" height="80" viewBox="0 0 76.929 80"><defs><clipPath id="a"><rect width="76.929" height="80" fill="none"/></clipPath></defs><g transform="translate(-1206 -5364.8)"><g transform="translate(1206 5364.8)"><g transform="translate(0 0)" clip-path="url(#a)"><path d="M41.836,3.731A28.005,28.005,0,0,0,13.913,31.654a28.369,28.369,0,0,0,3.769,14.1A27.659,27.659,0,0,0,41.7,59.576,28,28,0,0,0,69.62,31.654,27.708,27.708,0,0,0,41.836,3.731" transform="translate(5.353 1.436)" fill="#fff"/><path d="M48.582,20.452l-10.472,8.8V11.8Z" transform="translate(14.664 4.539)" fill="#b8d0f3"/><path d="M35.978,36.546v5.305l-10.47-8.8L35.978,24.4V36.546Z" transform="translate(9.815 9.388)" fill="#b8d0f3"/><rect width="12.286" height="6.981" transform="translate(40.488 21.501)" fill="#b8d0f3"/><rect width="12.286" height="6.981" transform="translate(45.793 38.954)" fill="#b8d0f3"/><path d="M13.944,1.109a2.653,2.653,0,1,1-2.652,2.653,2.653,2.653,0,0,1,2.652-2.653" transform="translate(4.345 0.427)" fill="#fff"/><path d="M4.8,26.415A3.491,3.491,0,1,1,1.31,29.906,3.492,3.492,0,0,1,4.8,26.415" transform="translate(0.504 10.164)" fill="#fff"/><path d="M48.488,46.58a4.328,4.328,0,1,1-4.329,4.327,4.326,4.326,0,0,1,4.329-4.327" transform="translate(16.991 17.923)" fill="#fff"/><path d="M32.3,43.99h0L13.177,63.118a7.007,7.007,0,0,1-4.885,2.094A6.549,6.549,0,0,1,3.4,63.118a6.915,6.915,0,0,1,0-9.912L22.531,34.078A28.859,28.859,0,0,0,32.3,43.99" transform="translate(0.504 13.112)" fill="#fff"/><path d="M6.818,50.411a1.676,1.676,0,1,1-1.676,1.676,1.676,1.676,0,0,1,1.676-1.676" transform="translate(1.979 19.397)" fill="#4e8ae1"/><path d="M53.4,39.018a1.676,1.676,0,1,1-1.674,1.676A1.675,1.675,0,0,1,53.4,39.018" transform="translate(19.901 15.013)" fill="#4e8ae1"/><path d="M52.188,3.731a1.675,1.675,0,1,1-1.676,1.676,1.674,1.674,0,0,1,1.676-1.676" transform="translate(19.436 1.436)" fill="#4e8ae1"/><path d="M38.274,47.891A1.675,1.675,0,1,1,36.6,49.565a1.675,1.675,0,0,1,1.676-1.674" transform="translate(14.082 18.427)" fill="#4e8ae1"/><path d="M24.461,52.932a1.675,1.675,0,1,1-1.676,1.674,1.676,1.676,0,0,1,1.676-1.674" transform="translate(8.767 20.367)" fill="#4e8ae1"/><path d="M21.941,0a1.676,1.676,0,1,1-1.676,1.676A1.676,1.676,0,0,1,21.941,0" transform="translate(7.798 0)" fill="#4e8ae1"/><path d="M6.818,12.6a1.676,1.676,0,1,1-1.676,1.676A1.676,1.676,0,0,1,6.818,12.6" transform="translate(1.979 4.849)" fill="#4e8ae1"/><path d="M4.3,36.5a1.675,1.675,0,1,1-1.676,1.676A1.675,1.675,0,0,1,4.3,36.5" transform="translate(1.009 14.044)" fill="#4e8ae1"/><path d="M38.476,31.43a1.042,1.042,0,0,1-.7-.14,1.714,1.714,0,0,1-.978-1.536V24.449a1.815,1.815,0,1,1,3.63,0v1.536l6-5.027-6-5.025v1.536a1.815,1.815,0,0,1-3.63,0V12.163a1.673,1.673,0,0,1,2.792-1.257l10.472,8.8a1.617,1.617,0,0,1,.558,1.4,2.489,2.489,0,0,1-.558,1.4L39.592,31.29c-.28,0-.7.14-1.116.14" transform="translate(14.16 4.033)" fill="#4e8ae1"/><path d="M31.558,21.337h8.656V17.846h-8.8v3.491Zm10.47,3.491H29.742a1.847,1.847,0,0,1-1.814-1.815V16.031a1.847,1.847,0,0,1,1.814-1.815H42.028a1.848,1.848,0,0,1,1.815,1.815v6.981a2.072,2.072,0,0,1-1.815,1.815" transform="translate(10.746 5.47)" fill="#4e8ae1"/><path d="M36.444,44.11a1.586,1.586,0,0,1-1.116-.418L24.856,34.9a1.618,1.618,0,0,1-.558-1.4,2.479,2.479,0,0,1,.558-1.4l10.472-8.8a1.754,1.754,0,0,1,1.814-.278,1.714,1.714,0,0,1,.978,1.536v5.585a1.815,1.815,0,0,1-3.629,0V28.612l-6,5.027,6,5.027V37.13a1.815,1.815,0,1,1,3.629,0v5.305a1.714,1.714,0,0,1-.978,1.536,1.513,1.513,0,0,1-.7.14" transform="translate(9.349 8.805)" fill="#4e8ae1"/><path d="M35.287,33.94h8.8V30.449h-8.8Zm10.472,3.49H33.473a1.848,1.848,0,0,1-1.815-1.814V28.634a1.848,1.848,0,0,1,1.815-1.815H45.759a1.847,1.847,0,0,1,1.814,1.815v6.981a1.847,1.847,0,0,1-1.814,1.814" transform="translate(12.181 10.319)" fill="#4e8ae1"/><path d="M8.758,67.382a9.03,9.03,0,0,1-6.144-2.513,8.764,8.764,0,0,1,0-12.286L21.74,33.317a1.778,1.778,0,0,1,2.515,2.513L4.987,54.957a5.143,5.143,0,0,0,0,7.4,5.389,5.389,0,0,0,3.771,1.537,5.644,5.644,0,0,0,3.768-1.537L31.655,43.229a1.777,1.777,0,0,1,2.512,2.513L14.9,64.869a8.662,8.662,0,0,1-6.143,2.513" transform="translate(0.038 12.618)" fill="#4e8ae1"/><path d="M7.322,49.1a3.49,3.49,0,1,1-3.491,3.491A3.491,3.491,0,0,1,7.322,49.1" transform="translate(1.474 18.893)" fill="#4e8ae1"/><path d="M42.34,5.872a26.2,26.2,0,0,0-22.618,39.51,26.28,26.28,0,0,0,48.866-13.4A26.369,26.369,0,0,0,42.34,5.872m0,55.845A29.4,29.4,0,0,1,27.123,57.53,28.976,28.976,0,0,1,16.651,47.058,29.776,29.776,0,1,1,42.34,61.717" transform="translate(4.849 0.97)" fill="#4e8ae1"/><path d="M46.459,39.1a1.854,1.854,0,0,1-1.118-.418,1.9,1.9,0,0,1-.28-2.513A19.071,19.071,0,0,0,49.111,24.3a1.815,1.815,0,0,1,3.631,0,22.792,22.792,0,0,1-4.747,13.961,2.144,2.144,0,0,1-1.536.838" transform="translate(17.206 8.651)" fill="#4e8ae1"/><path d="M20.3,37.858A1.953,1.953,0,0,1,18.622,36.6a24.621,24.621,0,0,1-.979-6.423A22.643,22.643,0,0,1,40.4,7.562a1.848,1.848,0,0,1,1.815,1.814A1.731,1.731,0,0,1,40.4,11.052,19.306,19.306,0,0,0,21.134,30.319a18.44,18.44,0,0,0,.836,5.445A1.827,1.827,0,0,1,20.856,38c-.28-.278-.42-.14-.558-.14" transform="translate(6.789 2.91)" fill="#4e8ae1"/><path d="M5.305,28.634a1.815,1.815,0,0,0,0,3.631,1.848,1.848,0,0,0,1.815-1.815,1.951,1.951,0,0,0-1.815-1.815m0,6.981a5.305,5.305,0,1,1,5.305-5.305,5.489,5.489,0,0,1-5.305,5.305" transform="translate(0 9.621)" fill="#4e8ae1"/><path d="M14.409,3.351a.9.9,0,0,0-.838.838.838.838,0,1,0,1.676,0c.14-.418-.28-.838-.838-.838m0,5.305a4.328,4.328,0,0,1,0-8.656,4.351,4.351,0,0,1,4.329,4.329,4.262,4.262,0,0,1-4.329,4.327" transform="translate(3.879 0)" fill="#4e8ae1"/><path d="M48.992,48.76a2.652,2.652,0,0,0-2.653,2.652,2.568,2.568,0,0,0,2.653,2.653,2.652,2.652,0,0,0,2.653-2.653,2.746,2.746,0,0,0-2.653-2.652m0,8.795a6.143,6.143,0,1,1,6.144-6.143,6.2,6.2,0,0,1-6.144,6.143" transform="translate(16.487 17.419)" fill="#4e8ae1"/></g></g></g></svg>