<svg xmlns="http://www.w3.org/2000/svg" xmlns:xlink="http://www.w3.org/1999/xlink" width="66.724" height="70" viewBox="0 0 66.724 70"><defs><clipPath id="a"><rect width="66.724" height="70" fill="none"/></clipPath></defs><g transform="translate(0 0)"><g transform="translate(0 0)" clip-path="url(#a)"><path d="M39.165,11.992V1.316H1.314V61.974H49.478l-2.063-2.062,1.093-1.093L44.989,55.3a12.1,12.1,0,1,1,2.3-18.924A11.422,11.422,0,0,1,49.72,39.9v-27.9Z" transform="translate(0.262 0.262)" fill="#fff1e8"/><rect width="25.841" height="9.099" transform="translate(7.643 7.764)" fill="#fff"/><path d="M32.876,1.417C37,5.542,39.306,7.846,43.552,12.092H32.876Z" transform="translate(6.551 0.282)" fill="#fff"/><path d="M51.812,9a3.76,3.76,0,1,1-3.761,3.761A3.76,3.76,0,0,1,51.812,9" transform="translate(9.575 1.794)" fill="#fff"/><path d="M49.87,32.978a3.033,3.033,0,1,1-3.033,3.032,3.033,3.033,0,0,1,3.033-3.032" transform="translate(9.333 6.571)" fill="#fff"/><path d="M52.514,51.344a4.546,4.546,0,0,1-6.429,6.429l-4.368-4.367-2.063-2.063,1.093-1.091,4.247-4.247,1.091-1.091Z" transform="translate(7.902 8.95)" fill="#fff"/><path d="M45.5,46.409,41.25,50.656l-3.517-3.517a10.728,10.728,0,0,0,4.245-4.247Z" transform="translate(7.519 8.547)" fill="#fff"/><path d="M45.614,34.658a16.613,16.613,0,0,0-2.426-3.519,12.1,12.1,0,1,0-2.3,18.926,10.736,10.736,0,0,0,4.245-4.245,12.461,12.461,0,0,0,.486-11.162" transform="translate(4.49 5.498)" fill="#fff"/><path d="M38.444,34a6.777,6.777,0,1,1-9.585,0,6.966,6.966,0,0,1,9.585,0" transform="translate(5.352 6.395)" fill="#fff"/><path d="M53.147,44.794a1.534,1.534,0,0,1,.486,1.091,1.314,1.314,0,0,1-.486,1.091,1.8,1.8,0,0,1-1.091.487,1.607,1.607,0,0,1-1.577-1.578,1.316,1.316,0,0,1,.485-1.091,1.47,1.47,0,0,1,2.184,0" transform="translate(10.059 8.829)" fill="#ffcaa6"/><path d="M51.933,20.819a1.534,1.534,0,0,1,.486,1.091A1.181,1.181,0,0,1,51.933,23a1.8,1.8,0,0,1-1.091.487,1.607,1.607,0,0,1-1.577-1.578,1.317,1.317,0,0,1,.485-1.091,1.47,1.47,0,0,1,2.184,0" transform="translate(9.817 4.052)" fill="#ffcaa6"/><path d="M46.876,3.116a1.538,1.538,0,0,1,.485,1.091A1.185,1.185,0,0,1,46.876,5.3a1.812,1.812,0,0,1-1.093.486,1.607,1.607,0,0,1-1.577-1.578,1.315,1.315,0,0,1,.486-1.091,1.473,1.473,0,0,1,2.184,0" transform="translate(8.809 0.524)" fill="#ffcaa6"/><path d="M22.8,27.091a1.534,1.534,0,0,1,.486,1.091,1.182,1.182,0,0,1-.486,1.093,1.805,1.805,0,0,1-1.091.486,1.606,1.606,0,0,1-1.577-1.578,1.317,1.317,0,0,1,.485-1.091,1.473,1.473,0,0,1,2.184,0" transform="translate(4.011 5.302)" fill="#ffcaa6"/><path d="M21.585,56.224a1.534,1.534,0,0,1,.486,1.091,1.316,1.316,0,0,1-.486,1.093,1.809,1.809,0,0,1-1.091.486,1.605,1.605,0,0,1-1.577-1.578,1.317,1.317,0,0,1,.485-1.091,1.81,1.81,0,0,1,1.093-.485,1.538,1.538,0,0,1,1.091.485" transform="translate(3.77 11.107)" fill="#ffcaa6"/><path d="M43.815,13.83H33.139a1.606,1.606,0,0,1-1.577-1.576V1.577a1.577,1.577,0,1,1,3.154,0v9.1h9.1a1.606,1.606,0,0,1,1.577,1.578,1.8,1.8,0,0,1-1.577,1.576" transform="translate(6.289 0)" fill="#ffcaa6"/><path d="M32.355,17.311H6.635a1.6,1.6,0,0,1-1.577-1.576v-9.1A1.606,1.606,0,0,1,6.635,5.058H32.355a1.606,1.606,0,0,1,1.577,1.577v9.1a1.529,1.529,0,0,1-1.577,1.576M8.091,14.278H30.9V8.212H8.091Z" transform="translate(1.008 1.008)" fill="#ffcaa6"/><path d="M45.049,48.143a1.484,1.484,0,0,1-1.093-.485l-3.517-3.519a1.544,1.544,0,0,1,2.184-2.184l3.517,3.517a1.539,1.539,0,0,1,0,2.185,1.482,1.482,0,0,1-1.091.485" transform="translate(7.967 8.27)" fill="#ffcaa6"/><path d="M41.407,51.684a1.489,1.489,0,0,1-1.093-.485L36.8,47.68A1.544,1.544,0,0,1,38.98,45.5L42.5,49.014a1.539,1.539,0,0,1,0,2.185,1.321,1.321,0,0,1-1.091.485" transform="translate(7.242 8.975)" fill="#ffcaa6"/><path d="M49.618,63.813H1.577A1.605,1.605,0,0,1,0,62.236V1.577A1.606,1.606,0,0,1,1.577,0h37.85A1.486,1.486,0,0,1,40.52.486L51.2,11.162a1.8,1.8,0,0,1,.486,1.093v27.9a1.578,1.578,0,0,1-3.155,0v-27.3l-9.7-9.706H3.033V60.781H49.618A1.6,1.6,0,0,1,51.2,62.357a1.5,1.5,0,0,1-1.577,1.456" transform="translate(0 0)" fill="#ffcaa6"/><path d="M49.6,60.848a5.692,5.692,0,0,1-4.247-1.82L38.926,52.6a1.808,1.808,0,0,1-.486-1.093,1.483,1.483,0,0,1,.486-1.093l6.429-6.429a1.81,1.81,0,0,1,1.093-.485,1.477,1.477,0,0,1,1.091.485l6.43,6.429a6.232,6.232,0,0,1,0,8.614,6.157,6.157,0,0,1-4.368,1.82M42.08,51.626l5.338,5.338a2.923,2.923,0,0,0,2.184.849,3.493,3.493,0,0,0,2.184-.849,2.933,2.933,0,0,0,0-4.247l-5.459-5.459Z" transform="translate(7.66 8.668)" fill="#ffcaa6"/><path d="M34.851,53.6a14,14,0,0,1-9.706-4A13.648,13.648,0,0,1,34.851,26.3a14,14,0,0,1,9.706,4,15.084,15.084,0,0,1,2.789,3.882A13.287,13.287,0,0,1,46.74,46.8a15.493,15.493,0,0,1-2.063,2.67,10.53,10.53,0,0,1-2.67,2.063A13.168,13.168,0,0,1,34.851,53.6m0-24.264a10.563,10.563,0,0,0-7.522,3.154,10.692,10.692,0,0,0,0,15.044,10.36,10.36,0,0,0,7.522,3.154,10.08,10.08,0,0,0,5.338-1.456,9.028,9.028,0,0,0,2.062-1.7,14,14,0,0,0,1.7-2.063,10.46,10.46,0,0,0,.486-9.827,8.777,8.777,0,0,0-2.185-3.032,10.205,10.205,0,0,0-7.4-3.276" transform="translate(4.213 5.241)" fill="#ffcaa6"/><path d="M33.944,47.354a8.288,8.288,0,1,1,5.822-2.427,8.167,8.167,0,0,1-5.822,2.427m0-13.467a5.547,5.547,0,0,0-3.761,1.577,5.323,5.323,0,0,0-1.577,3.761,5.547,5.547,0,0,0,1.577,3.761,5.323,5.323,0,0,0,3.761,1.577A5.547,5.547,0,0,0,37.7,42.986,5.954,5.954,0,0,0,39.161,39.1a5.547,5.547,0,0,0-1.577-3.761,5.133,5.133,0,0,0-3.64-1.456" transform="translate(5.12 6.148)" fill="#ffcaa6"/><path d="M32.113,22.172H7.849a1.577,1.577,0,1,1,0-3.154H32.113a1.577,1.577,0,1,1,0,3.154" transform="translate(1.25 3.79)" fill="#ffcaa6"/><path d="M32.113,25.916H7.849a1.577,1.577,0,1,1,0-3.154H32.113a1.606,1.606,0,0,1,1.577,1.577,1.529,1.529,0,0,1-1.577,1.577" transform="translate(1.25 4.536)" fill="#ffcaa6"/><path d="M19.981,29.759H7.849a1.577,1.577,0,0,1,0-3.154H19.981a1.577,1.577,0,1,1,0,3.154" transform="translate(1.25 5.301)" fill="#ffcaa6"/><path d="M18.525,44.933H7.849a1.577,1.577,0,0,1,0-3.154H18.525A1.606,1.606,0,0,1,20.1,43.356a1.694,1.694,0,0,1-1.577,1.577" transform="translate(1.25 8.325)" fill="#ffcaa6"/><path d="M18.525,48.676H7.849a1.578,1.578,0,0,1,0-3.155H18.525A1.607,1.607,0,0,1,20.1,47.1a1.688,1.688,0,0,1-1.577,1.577" transform="translate(1.25 9.071)" fill="#ffcaa6"/><path d="M52.074,18.365a5.338,5.338,0,1,1,5.338-5.338,5.385,5.385,0,0,1-5.338,5.338m0-7.643a2.3,2.3,0,0,0-2.3,2.3,2.231,2.231,0,0,0,2.3,2.3,2.3,2.3,0,0,0,2.3-2.3,2.23,2.23,0,0,0-2.3-2.3" transform="translate(9.313 1.532)" fill="#ffcaa6"/><path d="M50.132,40.884a4.611,4.611,0,1,1,4.61-4.611,4.688,4.688,0,0,1-4.61,4.611m0-6.067a1.578,1.578,0,1,0,1.577,1.577,1.7,1.7,0,0,0-1.577-1.577" transform="translate(9.071 6.309)" fill="#ffcaa6"/></g></g></svg>