<svg xmlns="http://www.w3.org/2000/svg" xmlns:xlink="http://www.w3.org/1999/xlink" width="87.258" height="80" viewBox="0 0 87.258 80"><defs><clipPath id="a"><rect width="87.258" height="80" fill="none"/></clipPath></defs><g transform="translate(0 0)" clip-path="url(#a)"><path d="M81.169,36.822a3.594,3.594,0,0,1,3.63,3.63,4.173,4.173,0,0,1-1.016,2.614,3.5,3.5,0,0,1-2.614,1.016H4.945a3.6,3.6,0,0,1-3.63-3.63,4.169,4.169,0,0,1,1.016-2.614,3.5,3.5,0,0,1,2.614-1.016H81.169Z" transform="translate(0.572 16.027)" fill="#fff"/><path d="M33.122,41.779a9.147,9.147,0,1,1-9.147,9.147,9.145,9.145,0,0,1,9.147-9.147" transform="translate(10.435 18.184)" fill="#b8d0f3"/><path d="M49.12,12.14A2.168,2.168,0,0,1,51.3,14.462l-1.016,6.68a7.3,7.3,0,0,0-1.161,1.741,6.454,6.454,0,0,0-1.163-1.6l-1.016-6.825A2.169,2.169,0,0,1,49.12,12.14" transform="translate(20.426 5.284)" fill="#fff"/><path d="M60.7,16.489c16.117,0,5.372,29.038-3.485,29.038a14.843,14.843,0,0,1-2.469-.435,5.943,5.943,0,0,0-3.193,0,8.859,8.859,0,0,1-2.469.435c-8.857,0-19.455-29.038-3.485-29.038a8.8,8.8,0,0,1,6.388,2.9,15.09,15.09,0,0,1,1.163,1.6,12.049,12.049,0,0,1,1.161-1.742A9.535,9.535,0,0,1,60.7,16.489" transform="translate(16.255 7.177)" fill="#b8d0f3"/><path d="M39.036,1.417a3.63,3.63,0,1,1-3.63,3.628,3.63,3.63,0,0,1,3.63-3.628" transform="translate(15.411 0.616)" fill="#fff"/><path d="M8.345,3.945a4.5,4.5,0,1,1-4.5,4.5,4.5,4.5,0,0,1,4.5-4.5" transform="translate(1.673 1.717)" fill="#fff"/><path d="M14.181,12.342a10.886,10.886,0,0,1,4.066,8.711,4.445,4.445,0,0,1-.146,1.452c-.29.29-.58.436-.725.726a10.853,10.853,0,0,0-3.195,7.841,10.853,10.853,0,0,0-3.195-7.841c-.29-.29-.58-.436-.726-.726,0-.58-.145-1.016-.145-1.6a10.807,10.807,0,0,1,4.066-8.567" transform="translate(4.403 5.372)" fill="#b8d0f3"/><path d="M25.1,17.72a11.06,11.06,0,0,1-3.193,9,15.8,15.8,0,0,1-2.469,1.889c-.146.146-.436.146-.581.29a10.033,10.033,0,0,1-5.807.871V28.609a10.862,10.862,0,0,1,3.193-7.841l.726-.726A11.672,11.672,0,0,1,25.1,17.72" transform="translate(5.68 7.688)" fill="#fff"/><path d="M16.661,35.7h0v1.163a10.655,10.655,0,0,1-9-3.05,11.227,11.227,0,0,1-3.195-9,11.628,11.628,0,0,1,5.809.873c.145.144.435.144.581.29a8.622,8.622,0,0,1,2.612,1.886A11.482,11.482,0,0,1,16.661,35.7" transform="translate(1.922 10.76)" fill="#fff"/><path d="M25.144,24.7a11.062,11.062,0,0,1-3.193,9,10.652,10.652,0,0,1-9,3.05V35.584a10.688,10.688,0,0,1,5.807-9.728c.145-.145.435-.145.58-.291a13.507,13.507,0,0,1,5.808-.87" transform="translate(5.636 10.733)" fill="#fff"/><path d="M16.617,28.711h0v1.161A10.03,10.03,0,0,1,10.81,29a1.108,1.108,0,0,0-.581-.29A10.174,10.174,0,0,1,7.76,26.822a11.218,11.218,0,0,1-3.193-9,11.643,11.643,0,0,1,8.276,2.469c.29.29.58.433.726.726a11.386,11.386,0,0,1,3.048,7.694" transform="translate(1.967 7.733)" fill="#fff"/><path d="M55.722,4.091a1.917,1.917,0,0,1,.871,2.469A1.971,1.971,0,0,1,55,7.576a1.828,1.828,0,0,1-.871-.146,1.967,1.967,0,0,1-1.016-1.6,1.853,1.853,0,0,1,.145-.873,1.971,1.971,0,0,1,1.6-1.016,1.828,1.828,0,0,1,.871.146" transform="translate(23.116 1.717)" fill="#4e8ae1"/><path d="M39.335,11.678a1.918,1.918,0,0,1,.87,2.469,1.973,1.973,0,0,1-1.6,1.016,1.828,1.828,0,0,1-.871-.146,1.967,1.967,0,0,1-1.016-1.6,1.853,1.853,0,0,1,.145-.873,1.971,1.971,0,0,1,1.6-1.016,1.84,1.84,0,0,1,.873.146" transform="translate(15.983 5.019)" fill="#4e8ae1"/><path d="M30.433,1.561A1.918,1.918,0,0,1,31.3,4.029a1.975,1.975,0,0,1-1.6,1.016,1.861,1.861,0,0,1-.871-.144,1.976,1.976,0,0,1-1.016-1.6,1.839,1.839,0,0,1,.145-.87,1.967,1.967,0,0,1,1.6-1.016,1.864,1.864,0,0,1,.871.144" transform="translate(12.109 0.616)" fill="#4e8ae1"/><path d="M26.689,9.148a1.916,1.916,0,0,1,.871,2.469,1.971,1.971,0,0,1-1.6,1.016,1.844,1.844,0,0,1-.871-.145,1.975,1.975,0,0,1-1.016-1.6,1.847,1.847,0,0,1,.145-.871A1.971,1.971,0,0,1,25.817,9a1.828,1.828,0,0,1,.871.146" transform="translate(10.479 3.918)" fill="#4e8ae1"/><path d="M15.258,1.561a1.917,1.917,0,0,1,.871,2.469,1.97,1.97,0,0,1-1.6,1.016,1.858,1.858,0,0,1-.871-.144,1.977,1.977,0,0,1-1.018-1.6,1.823,1.823,0,0,1,.146-.87,1.967,1.967,0,0,1,1.6-1.016,1.855,1.855,0,0,1,.87.144" transform="translate(5.503 0.616)" fill="#4e8ae1"/><path d="M33.65,62.345A10.889,10.889,0,1,1,44.54,51.455,10.969,10.969,0,0,1,33.65,62.345m0-18.15a7.26,7.26,0,1,0,7.26,7.261,7.189,7.189,0,0,0-7.26-7.261" transform="translate(9.907 17.657)" fill="#4e8ae1"/><path d="M81.741,46.44H5.517A5.515,5.515,0,0,1,0,40.923,5.883,5.883,0,0,1,1.6,37a5.607,5.607,0,0,1,3.92-1.6H81.741a5.516,5.516,0,0,1,5.519,5.517,5.455,5.455,0,0,1-5.519,5.517M5.517,39.181a1.779,1.779,0,0,0-1.306.58,1.837,1.837,0,0,0-.581,1.308,1.922,1.922,0,0,0,1.887,1.887H81.741a1.777,1.777,0,0,0,1.308-.58,1.845,1.845,0,0,0,.581-1.308,1.921,1.921,0,0,0-1.889-1.887Z" transform="translate(0 15.411)" fill="#4e8ae1"/><path d="M48.49,23.746a1.731,1.731,0,0,1-1.742-1.6l-1.016-6.825V15.18a3.926,3.926,0,0,1,1.016-3.05,3.877,3.877,0,0,1,2.9-1.306,3.659,3.659,0,0,1,2.9,1.306,3.926,3.926,0,0,1,1.016,3.05v.145L52.556,22a1.705,1.705,0,0,1-2.032,1.452,2.066,2.066,0,0,1-.871-.29,1.258,1.258,0,0,1-.871.435c-.145.145-.145.145-.291.145m.726-8.856.436,2.612.435-2.612c0-.146,0-.146-.145-.291a.506.506,0,0,0-.29-.145c-.145,0-.291,0-.291.145s-.145.145-.145.291" transform="translate(19.893 4.711)" fill="#4e8ae1"/><path d="M57.891,47.943a9.894,9.894,0,0,1-3.048-.58,5.459,5.459,0,0,0-2.179,0,15.6,15.6,0,0,1-3.049.58c-3.193,0-6.678-2.759-9.437-7.694a30.06,30.06,0,0,1-4.065-13.938c0-3.195.726-5.809,2.322-7.7,1.161-1.6,3.63-3.34,7.841-3.34a10.545,10.545,0,0,1,7.549,3.195,10.3,10.3,0,0,1,7.549-3.195,9.709,9.709,0,0,1,7.841,3.34,12.452,12.452,0,0,1,2.322,7.7,28.439,28.439,0,0,1-4.065,13.938c-2.9,4.936-6.388,7.694-9.583,7.694m-4.065-4.356a8.567,8.567,0,0,1,2.032.291c1.308.29,1.887.435,2.032.435,1.887,0,4.356-2.322,6.388-5.807a25.959,25.959,0,0,0,3.485-12.2,9.11,9.11,0,0,0-1.451-5.372c-1.163-1.452-2.76-2.032-5.082-2.032A6.506,6.506,0,0,0,56.3,21.082a7.976,7.976,0,0,0-1.016,1.308,1.764,1.764,0,0,1-3.195,0,8.06,8.06,0,0,0-.871-1.161,6.714,6.714,0,0,0-5.081-2.322,5.842,5.842,0,0,0-4.937,2.032,8.442,8.442,0,0,0-1.451,5.372,25.974,25.974,0,0,0,3.483,12.2c2.034,3.485,4.5,5.807,6.388,5.807a6.4,6.4,0,0,0,2.032-.435,11.236,11.236,0,0,1,2.179-.291" transform="translate(15.719 6.648)" fill="#4e8ae1"/><path d="M56.571,31.794a.877.877,0,0,1-.581-.145,1.767,1.767,0,0,1-1.016-2.324c.871-2.467,1.016-4.791.29-5.807a2.3,2.3,0,0,0-1.887-.725,1.887,1.887,0,0,1,0-3.775,5.616,5.616,0,0,1,4.792,2.322c1.451,2.177,1.451,5.517.145,9.292a2.046,2.046,0,0,1-1.742,1.161" transform="translate(22.412 8.278)" fill="#4e8ae1"/><path d="M14.783,39.225a4.894,4.894,0,0,1-1.451-.146,1.846,1.846,0,0,1-1.6-1.6V36.177A12.724,12.724,0,0,1,15.51,27.03a11.645,11.645,0,0,1,3.048-2.179,3.169,3.169,0,0,0,.725-.435A11.644,11.644,0,0,1,25.961,23.4a1.847,1.847,0,0,1,1.6,1.6,12.592,12.592,0,0,1-3.775,10.454,12.078,12.078,0,0,1-9,3.775m9.147-12.2a6.223,6.223,0,0,0-3.193.87c-.148.146-.293.146-.583.291a8.469,8.469,0,0,0-2.179,1.6,9,9,0,0,0-2.611,5.952,9.3,9.3,0,0,0,5.951-2.614,10.136,10.136,0,0,0,2.615-6.1" transform="translate(5.108 10.139)" fill="#4e8ae1"/><path d="M15.925,39.177a13.123,13.123,0,0,1-9-3.63A13.42,13.42,0,0,1,3.148,25.094a1.715,1.715,0,0,1,1.6-1.6,13.207,13.207,0,0,1,6.678,1.016c.29.145.436.29.726.435A11.621,11.621,0,0,1,15.2,27.126a12.725,12.725,0,0,1,3.776,9.147v1.306a1.718,1.718,0,0,1-1.6,1.6Zm-9.147-12.2a9.152,9.152,0,0,0,2.759,5.952,8.992,8.992,0,0,0,5.953,2.614,9,9,0,0,0-2.614-5.953A20.8,20.8,0,0,0,10.7,28c-.145-.146-.29-.146-.58-.29-1.161-.291-2.324-.581-3.34-.726" transform="translate(1.353 10.188)" fill="#4e8ae1"/><path d="M18.718,24.965h-.291a1.806,1.806,0,0,1-1.6-2.034c0-.435.145-.87.145-1.306a9.369,9.369,0,0,0-2.324-6.1,9.094,9.094,0,0,0-2.322,6.1,4.018,4.018,0,0,0,.145,1.306,1.828,1.828,0,1,1-3.63.436A7.688,7.688,0,0,1,8.7,21.48a12.808,12.808,0,0,1,4.791-10.018,1.766,1.766,0,0,1,2.324,0A13.023,13.023,0,0,1,20.605,21.48a7.081,7.081,0,0,1-.145,1.742,1.678,1.678,0,0,1-1.742,1.742" transform="translate(3.787 4.799)" fill="#4e8ae1"/><path d="M14.783,32.373a4.941,4.941,0,0,1-1.451-.145,1.849,1.849,0,0,1-1.6-1.6V29.324a12.729,12.729,0,0,1,3.775-9.147q.435-.437.871-.871a13.67,13.67,0,0,1,9.58-2.9,1.846,1.846,0,0,1,1.6,1.6,12.588,12.588,0,0,1-3.775,10.454,13.73,13.73,0,0,1-2.9,2.177,3.131,3.131,0,0,0-.728.436,11.744,11.744,0,0,1-5.371,1.306m9.147-12.2A8.854,8.854,0,0,0,18.7,22.355c-.291.145-.436.436-.581.581a8.993,8.993,0,0,0-2.612,5.952,9.23,9.23,0,0,0,3.338-.725c.145-.146.29-.146.58-.291a7.009,7.009,0,0,0,2.032-1.6,11.858,11.858,0,0,0,2.47-6.1" transform="translate(5.108 7.118)" fill="#4e8ae1"/><path d="M15.881,32.358A12.525,12.525,0,0,1,10.654,31.2a3.171,3.171,0,0,1-.725-.433,13.832,13.832,0,0,1-2.9-2.179A13.414,13.414,0,0,1,3.249,18.129a1.716,1.716,0,0,1,1.6-1.6c.436,0,.871-.145,1.452-.145a12.974,12.974,0,0,1,8.131,2.9c.29.29.58.436.871.726a12.723,12.723,0,0,1,3.775,9.145v1.308a1.717,1.717,0,0,1-1.6,1.6,3.718,3.718,0,0,1-1.6.29m-9.147-12.2a9.165,9.165,0,0,0,2.759,5.955,11.137,11.137,0,0,0,2.032,1.595c.145.145.291.145.581.29a8.6,8.6,0,0,0,3.34.726,8.991,8.991,0,0,0-2.614-5.952l-.581-.581a9.258,9.258,0,0,0-5.517-2.032" transform="translate(1.397 7.133)" fill="#4e8ae1"/><path d="M13.419,40.766a1.922,1.922,0,0,1-1.887-1.887V33.651a1.887,1.887,0,0,1,3.775,0v5.227a1.922,1.922,0,0,1-1.887,1.887" transform="translate(5.019 13.826)" fill="#4e8ae1"/><path d="M39.608,11.036a5.518,5.518,0,1,1,5.517-5.517,5.514,5.514,0,0,1-5.517,5.517m0-7.26a1.921,1.921,0,0,0-1.887,1.886,1.887,1.887,0,1,0,3.775,0,1.921,1.921,0,0,0-1.887-1.886" transform="translate(14.838 0)" fill="#4e8ae1"/><path d="M29.79,29.436a4.5,4.5,0,1,1,4.5-4.5,4.523,4.523,0,0,1-4.5,4.5m0-5.517a.871.871,0,1,0,.871.871c.146-.435-.29-.871-.871-.871" transform="translate(11.007 8.894)" fill="#4e8ae1"/><path d="M8.917,15.406A6.445,6.445,0,0,1,2.529,9.018,6.443,6.443,0,0,1,8.917,2.631a6.443,6.443,0,0,1,6.388,6.387,6.445,6.445,0,0,1-6.388,6.388m0-9.147A2.757,2.757,0,0,0,6.159,9.018a2.669,2.669,0,0,0,2.759,2.759,2.669,2.669,0,0,0,2.759-2.759A2.758,2.758,0,0,0,8.917,6.259" transform="translate(1.101 1.145)" fill="#4e8ae1"/></g></svg>