<svg xmlns="http://www.w3.org/2000/svg" xmlns:xlink="http://www.w3.org/1999/xlink" width="812.289" height="185.27" viewBox="0 0 812.289 185.27"><defs><clipPath id="a"><path d="M16,0H188a0,0,0,0,1,0,0V184.817a0,0,0,0,1,0,0H16a16,16,0,0,1-16-16V16A16,16,0,0,1,16,0Z" fill="#edf3fc"/></clipPath><clipPath id="b"><path d="M144.236,166.619c.046-11.186,59.242-7.388,67.747-6.77,88.54,6.43,86.55,123.658,176.66,123.658,63.175,0,131.764-9.478,153.424,45.807s-28.88,67.921-32.49,113.728,37.682,47.387,68.478,53.705,48.737,30.012,48.737,108.99H144.236V166.619" transform="translate(-144.236 -158.732)" fill="none"/></clipPath><clipPath id="c"><rect width="924.046" height="806.626" fill="none"/></clipPath><clipPath id="d"><path d="M742.984,232.2c21.8,5.756,39.091,20.546,52.043,36.932,13.021,16.472,23.322,35.679,42.546,46.545,16.434,9.29,37.1,11.052,54.19,19.392,30.026,14.655,43.377,50.807,28.831,78.068-13.1,24.548-43.777,39.355-56.2,64.173-18.1,36.161,8.674,78.768-1.951,117.136C855.4,619.9,746.987,609.259,746.987,609.259l-281.219-5.334-3.211-314.333S497.775,250.972,580.7,267.2s71.509-8.906,89.594-25.057c11.122-9.933,27.812-13.583,44.084-13.583a114.576,114.576,0,0,1,28.607,3.647" transform="translate(-462.557 -228.557)" fill="none"/></clipPath><linearGradient id="e" x1="-0.706" y1="-0.413" x2="-0.704" y2="-0.413" gradientUnits="objectBoundingBox"><stop offset="0" stop-color="#ffd101"/><stop offset="1" stop-color="#fa7921"/></linearGradient></defs><g transform="translate(-186 -4116)"><rect width="812" height="184.569" rx="16" transform="translate(186.289 4116)" fill="#edf3fc"/><g transform="translate(186 4116.453)" clip-path="url(#a)"><g transform="translate(-294.37 -257.396)"><g clip-path="url(#b)"><g transform="translate(-297.254 -129.807)" opacity="0.7" style="mix-blend-mode:overlay;isolation:isolate"><g clip-path="url(#c)"><path d="M556.509,333.08l-8.533-7.374L915.513,0l8.533,7.374Z" transform="translate(-547.976 0)" fill="#fff"/><path d="M538.243,352.383l-8.533-7.375L897.247,19.3l8.533,7.374Z" transform="translate(-511.444 -3.517)" fill="#fff"/><path d="M519.977,371.685l-8.533-7.374L878.981,38.6l8.533,7.374Z" transform="translate(-474.913 -7.035)" fill="#fff"/><path d="M501.711,390.987l-8.533-7.375L860.715,57.907l8.533,7.374Z" transform="translate(-438.381 -10.552)" fill="#fff"/><path d="M483.446,410.289l-8.533-7.375L842.45,77.209l8.533,7.374Z" transform="translate(-401.849 -14.069)" fill="#fff"/><path d="M465.18,429.591l-8.533-7.374L824.184,96.511l8.533,7.374Z" transform="translate(-365.317 -17.587)" fill="#fff"/><path d="M446.914,448.894l-8.533-7.374L805.918,115.813l8.533,7.374Z" transform="translate(-328.786 -21.104)" fill="#fff"/><path d="M428.648,468.2l-8.533-7.374L787.652,135.115l8.533,7.374Z" transform="translate(-292.254 -24.621)" fill="#fff"/><path d="M410.382,487.5l-8.533-7.375L769.386,154.418l8.533,7.374Z" transform="translate(-255.722 -28.139)" fill="#fff"/><path d="M392.116,506.8l-8.533-7.374L751.12,173.72l8.533,7.374Z" transform="translate(-219.191 -31.656)" fill="#fff"/><path d="M373.85,526.1l-8.533-7.375L732.854,193.022l8.533,7.374Z" transform="translate(-182.659 -35.173)" fill="#fff"/><path d="M355.585,545.4l-8.533-7.375L714.589,212.324l8.533,7.374Z" transform="translate(-146.127 -38.691)" fill="#fff"/><path d="M337.319,564.707l-8.533-7.374L696.323,231.627,704.856,239Z" transform="translate(-109.596 -42.208)" fill="#fff"/><path d="M319.053,584.009l-8.533-7.375L678.057,250.929l8.533,7.374Z" transform="translate(-73.064 -45.725)" fill="#fff"/><path d="M300.787,603.311l-8.533-7.374L659.791,270.231l8.533,7.374Z" transform="translate(-36.532 -49.243)" fill="#fff"/><path d="M282.521,622.613l-8.533-7.375L641.525,289.533l8.533,7.374Z" transform="translate(0 -52.76)" fill="#fff"/><path d="M264.255,641.915l-8.533-7.374L623.259,308.835l8.533,7.374Z" transform="translate(36.531 -56.277)" fill="#fff"/><path d="M245.989,661.218l-8.533-7.375L604.993,328.138l8.533,7.374Z" transform="translate(73.063 -59.795)" fill="#fff"/><path d="M227.723,680.52l-8.533-7.374L586.727,347.44l8.533,7.374Z" transform="translate(109.595 -63.312)" fill="#fff"/><path d="M209.458,699.822l-8.533-7.375L568.462,366.742l8.533,7.374Z" transform="translate(146.127 -66.829)" fill="#fff"/><path d="M191.192,719.124l-8.533-7.375L550.2,386.044l8.533,7.374Z" transform="translate(182.658 -70.347)" fill="#fff"/><path d="M172.926,738.426l-8.533-7.374L531.93,405.346l8.533,7.374Z" transform="translate(219.19 -73.864)" fill="#fff"/><path d="M154.66,757.729l-8.533-7.375L513.664,424.649l8.533,7.374Z" transform="translate(255.722 -77.381)" fill="#fff"/><path d="M136.394,777.031l-8.533-7.374L495.4,443.951l8.533,7.374Z" transform="translate(292.254 -80.898)" fill="#fff"/><path d="M118.128,796.333l-8.533-7.375L477.132,463.253l8.533,7.374Z" transform="translate(328.785 -84.416)" fill="#fff"/><path d="M99.863,815.635l-8.533-7.374L458.867,482.555l8.533,7.374Z" transform="translate(365.317 -87.933)" fill="#fff"/><path d="M81.6,834.937l-8.533-7.375L440.6,501.857l8.533,7.374Z" transform="translate(401.849 -91.45)" fill="#fff"/><path d="M63.331,854.24,54.8,846.865,422.335,521.16l8.533,7.374Z" transform="translate(438.381 -94.968)" fill="#fff"/><path d="M45.065,873.542l-8.533-7.374L404.069,540.462l8.533,7.374Z" transform="translate(474.912 -98.485)" fill="#fff"/><path d="M26.8,892.844l-8.533-7.375L385.8,559.764l8.533,7.374Z" transform="translate(511.444 -102.002)" fill="#fff"/><path d="M8.533,912.146,0,904.772,367.537,579.066l8.533,7.374Z" transform="translate(547.976 -105.52)" fill="#fff"/></g></g></g></g><g transform="translate(-326.271 -19.626)" opacity="0.05"><g clip-path="url(#d)"><path d="M22.591,22.77,495.807,0,473.216,562.592,0,585.362Z" transform="translate(6.593 502.847) rotate(-102.947)" fill="url(#e)"/></g></g></g></g></svg>