<svg xmlns="http://www.w3.org/2000/svg" xmlns:xlink="http://www.w3.org/1999/xlink" width="930.071" height="400.013" viewBox="0 0 930.071 400.013"><defs><clipPath id="a"><rect width="420.738" height="400.013" fill="none"/></clipPath><clipPath id="b"><rect width="44.615" height="44.614" fill="none"/></clipPath></defs><g transform="translate(-325.355 -1041.987)"><g transform="translate(325.355 1041.987)"><g clip-path="url(#a)"><path d="M29.2,221.64c32.071,32.071,81.464,29.465,113.531-2.605s34.676-81.461,2.608-113.534S65,77.154,32.926,109.224-2.866,189.569,29.2,221.64" transform="translate(12.958 155.585)" fill="#b72125"/><path d="M29.919,208.331c28.2,28.2,71.625,25.9,99.822-2.293s30.49-71.625,2.29-99.822S61.39,81.293,33.193,109.49s-31.471,70.643-3.274,98.84" transform="translate(19.324 161.95)" fill="#ef6c5a"/><path d="M26.616,110.517l21.4,20.872a6.278,6.278,0,0,0,10.47-2.944l7.377-28.972a6.279,6.279,0,0,0-7.787-7.592L29.3,99.975a6.282,6.282,0,0,0-2.683,10.542" transform="translate(46.205 171.305)" fill="#e31f23"/><path d="M31.1,97.966a9.85,9.85,0,0,0,2.382,2.964,1.256,1.256,0,0,0,2.089-.588,9.9,9.9,0,0,0,.485-3.77A2.574,2.574,0,1,0,31.1,97.966" transform="translate(57.96 177.015)" fill="#ffab00"/><path d="M34.307,96.815a9.834,9.834,0,0,0-.413,3.782,1.254,1.254,0,0,0,1.891,1.059,9.761,9.761,0,0,0,3.01-2.321,2.573,2.573,0,0,0-4.488-2.519" transform="translate(63.348 178.522)" fill="#ffab00"/><path d="M32.773,97.229a9.933,9.933,0,0,1,2.324,3.013,1.256,1.256,0,0,1-1.065,1.891,9.948,9.948,0,0,1-3.779-.41,2.576,2.576,0,0,1,2.519-4.493" transform="translate(54.097 181.14)" fill="#ffab00"/><path d="M48.182,98.053l-7.736,28.874a6.277,6.277,0,0,0,7.69,7.69l28.874-7.736a6.279,6.279,0,0,0,2.815-10.508L58.687,95.236a6.279,6.279,0,0,0-10.5,2.818" transform="translate(75.194 174.586)" fill="#e31f23"/><path d="M49.051,99.187a9.886,9.886,0,0,0-1.42,3.526,1.257,1.257,0,0,0,1.532,1.535,9.9,9.9,0,0,0,3.529-1.42,2.575,2.575,0,0,0-3.641-3.641" transform="translate(88.961 184.003)" fill="#ffab00"/><path d="M52.142,101.368a9.854,9.854,0,0,0-3.5,1.492,1.252,1.252,0,0,0,0,2.163,9.854,9.854,0,0,0,3.5,1.492,2.574,2.574,0,1,0,0-5.148" transform="translate(89.765 189.492)" fill="#ffab00"/><path d="M50.049,100.284a9.823,9.823,0,0,1-1.492,3.5,1.25,1.25,0,0,1-2.163,0,9.823,9.823,0,0,1-1.492-3.5,2.574,2.574,0,0,1,5.148,0" transform="translate(83.935 182.654)" fill="#ffab00"/><path d="M74.988,108.847l-28.544,8.869a6.28,6.28,0,0,0-2.4,10.611L66,148.613a6.278,6.278,0,0,0,10.387-3.225l6.594-29.158a6.281,6.281,0,0,0-7.988-7.383" transform="translate(78.551 202.931)" fill="#e31f23"/><path d="M56.053,115.168a9.877,9.877,0,0,0-3.744.68,1.259,1.259,0,0,0-.479,2.118,9.949,9.949,0,0,0,3.085,2.224,2.574,2.574,0,0,0,1.139-5.021" transform="translate(96.143 215.214)" fill="#ffab00"/><path d="M54.739,119.221a9.871,9.871,0,0,0-3.128-2.166,1.258,1.258,0,0,0-1.836,1.156,9.938,9.938,0,0,0,.608,3.756,2.574,2.574,0,0,0,4.356-2.746" transform="translate(93.046 218.55)" fill="#ffab00"/><path d="M55.658,117a9.875,9.875,0,0,1-3.753.608,1.256,1.256,0,0,1-1.156-1.836,9.887,9.887,0,0,1,2.163-3.125A2.573,2.573,0,1,1,55.658,117" transform="translate(94.598 209.839)" fill="#ffab00"/><path d="M32.926,92.364c.043-.04.08-.075.121-.115l109.807,109.8c-.04.037-.077.08-.115.121C110.668,234.241,61.275,236.85,29.2,204.779S.855,124.434,32.926,92.364" transform="translate(12.958 172.445)" fill="#b72125"/><path d="M11.754,106.194S-3.121,144.643,35,174.705c0,0-22.315-24.837-23.245-68.511" transform="translate(16.63 198.513)" fill="#ef6c5a"/><path d="M33.345,95.91c.032-.032.063-.06.1-.092l89.323,89.323c-.032.029-.06.063-.092.1-26.091,26.088-66.268,28.209-92.358,2.118S7.257,122,33.345,95.91" transform="translate(22.802 179.117)" fill="#d32a37"/><path d="M30.661,175.585c.792-5.825.083-11.741.241-17.618s1.346-12.057,5.254-16.444A32.26,32.26,0,0,1,.84,149.434c5.69.97,11.446-1.808,15.733-5.667s7.475-8.76,11.156-13.2a18.109,18.109,0,0,1,5.965-5.185,7.887,7.887,0,0,1,6.258-.318c-2.614-1.747-4.327-4.221-6.729-6.473-2.778-2.605-5.389-13.5-6.806-17.018,3.521,1.415,14.413,4.026,17.018,6.8,2.252,2.4,4.729,4.118,6.473,6.731a7.906,7.906,0,0,1,.318-6.261,18.17,18.17,0,0,1,5.185-5.965C59.86,99.2,64.758,96.009,68.62,91.723S75.254,81.68,74.284,75.99a32.255,32.255,0,0,1-7.911,35.316c4.393-3.911,10.574-5.1,16.447-5.254s11.79.551,17.615-.241,11.807-3.432,14.717-8.536c.1,8.413-4.809,16.134-10.777,22.065-3.974,3.948-8.66,7.432-14.109,8.74a37.08,37.08,0,0,1-6.539.812q-7.136.409-14.292.3a37.659,37.659,0,0,1,11.124,3.59,24.7,24.7,0,0,1,9.922,8.465c3.638,5.744,4.063,13.46,9,18.131-6.479-1.716-13.007-3.452-19.064-6.33a46.978,46.978,0,0,1-5.753-3.231,46.58,46.58,0,0,1,3.234,5.75c2.878,6.06,4.608,12.585,6.33,19.067-4.674-4.944-12.387-5.366-18.131-9.007a24.708,24.708,0,0,1-8.467-9.922,37.541,37.541,0,0,1-3.587-11.124q.108,7.149-.3,14.3a37.314,37.314,0,0,1-.809,6.536c-1.308,5.452-4.792,10.135-8.743,14.111C38.259,185.49,30.538,190.4,22.125,190.3c5.107-2.912,7.744-8.895,8.536-14.717" transform="translate(1.57 142.052)" fill="#71a42d"/><path d="M.1,92.492l.026.112A3.47,3.47,0,0,0,4.349,95.27a54.477,54.477,0,0,1,25.437-.121,82.242,82.242,0,0,1,26.771,11.827l2.275-2.2A74.175,74.175,0,0,0,3.107,88.125,3.53,3.53,0,0,0,.1,92.492" transform="translate(0.001 163.835)" fill="#c6db69"/><path d="M180.634,78.472c0-19.721-12.355-35.712-27.6-35.712a21.633,21.633,0,0,0-5,.585,42.712,42.712,0,0,0-27.678,0,21.614,21.614,0,0,0-5-.585c-15.242,0-27.6,15.991-27.6,35.712a43.026,43.026,0,0,0,5.113,20.711c5.65,17.824,22.014,47.456,41.321,47.456s35.672-29.632,41.321-47.456a43.026,43.026,0,0,0,5.113-20.711" transform="translate(164.063 76.72)" fill="#c71a1c"/><path d="M147.23,70.508c0-12.393-7.764-22.438-17.339-22.438a13.6,13.6,0,0,0-3.139.367,26.866,26.866,0,0,0-17.391,0,13.6,13.6,0,0,0-3.139-.367c-9.578,0-17.339,10.046-17.339,22.438a27.072,27.072,0,0,0,3.211,13.012c3.552,11.2,13.833,29.813,25.962,29.813s22.412-18.616,25.962-29.813a27.041,27.041,0,0,0,3.214-13.012" transform="translate(166.151 87.842)" fill="#e44a40"/><path d="M117.908,57.8a1.076,1.076,0,0,1-.964-.568c-1.673-3.067-1.8-4.118-1.8-4.364a2.765,2.765,0,1,1,5.529,0c0,.247-.129,1.294-1.8,4.364a1.07,1.07,0,0,1-.961.568" transform="translate(215.24 93.649)" fill="#fff"/><path d="M117.576,65.426a1.073,1.073,0,0,1-.964-.568c-1.67-3.07-1.8-4.118-1.8-4.367a2.763,2.763,0,1,1,5.526,0c0,.25-.129,1.294-1.8,4.367a1.076,1.076,0,0,1-.964.568" transform="translate(214.625 107.914)" fill="#fff"/><path d="M114.907,72.238a1.076,1.076,0,0,1-.964-.568c-1.67-3.07-1.8-4.12-1.8-4.367a2.765,2.765,0,1,1,5.529,0c0,.247-.132,1.3-1.8,4.367a1.076,1.076,0,0,1-.964.568" transform="translate(209.636 120.642)" fill="#fff"/><path d="M110.688,78.155a1.074,1.074,0,0,1-.964-.571c-1.67-3.067-1.8-4.115-1.8-4.361a2.765,2.765,0,1,1,5.529,0c0,.25-.129,1.294-1.8,4.361a1.074,1.074,0,0,1-.964.571" transform="translate(201.743 131.703)" fill="#fff"/><path d="M106.226,81.581a1.074,1.074,0,0,1-.964-.571c-1.67-3.067-1.8-4.118-1.8-4.364a2.765,2.765,0,1,1,5.529,0c0,.247-.129,1.3-1.8,4.364a1.069,1.069,0,0,1-.964.571" transform="translate(193.408 138.107)" fill="#fff"/><path d="M106.226,73.951a1.076,1.076,0,0,1-.964-.568c-1.67-3.07-1.8-4.12-1.8-4.367a2.765,2.765,0,1,1,5.529,0c0,.247-.129,1.3-1.8,4.367a1.071,1.071,0,0,1-.964.568" transform="translate(193.408 123.844)" fill="#fff"/><path d="M106.226,66.252a1.07,1.07,0,0,1-.961-.568c-1.673-3.07-1.8-4.118-1.8-4.367a2.765,2.765,0,1,1,5.529,0c0,.25-.129,1.3-1.8,4.367a1.073,1.073,0,0,1-.964.568" transform="translate(193.408 109.452)" fill="#fff"/><path d="M106.226,58.552a1.07,1.07,0,0,1-.961-.568c-1.673-3.07-1.8-4.118-1.8-4.367a2.765,2.765,0,0,1,5.529,0c0,.25-.129,1.3-1.8,4.367a1.073,1.073,0,0,1-.964.568" transform="translate(193.408 95.064)" fill="#fff"/><path d="M112.416,54.369a1.076,1.076,0,0,1-.964-.568c-1.67-3.067-1.8-4.118-1.8-4.364a2.765,2.765,0,1,1,5.529,0c0,.247-.129,1.294-1.8,4.364a1.076,1.076,0,0,1-.964.568" transform="translate(204.979 87.244)" fill="#fff"/><path d="M112.416,61.977a1.076,1.076,0,0,1-.964-.568c-1.67-3.067-1.8-4.118-1.8-4.367a2.765,2.765,0,0,1,5.529,0c0,.25-.129,1.3-1.8,4.367a1.076,1.076,0,0,1-.964.568" transform="translate(204.979 101.466)" fill="#fff"/><path d="M111.082,68.851a1.076,1.076,0,0,1-.964-.568c-1.67-3.07-1.8-4.118-1.8-4.367a2.763,2.763,0,1,1,5.526,0c0,.25-.129,1.3-1.8,4.367a1.076,1.076,0,0,1-.964.568" transform="translate(202.486 114.316)" fill="#fff"/><path d="M94.546,57.8a1.076,1.076,0,0,1-.964-.568c-1.67-3.07-1.8-4.118-1.8-4.364a2.765,2.765,0,1,1,5.529,0c0,.247-.132,1.294-1.8,4.364a1.073,1.073,0,0,1-.964.568" transform="translate(171.574 93.649)" fill="#fff"/><path d="M94.876,65.426a1.076,1.076,0,0,1-.964-.568c-1.67-3.073-1.8-4.118-1.8-4.367a2.765,2.765,0,0,1,5.529,0c0,.25-.132,1.294-1.8,4.367a1.071,1.071,0,0,1-.964.568" transform="translate(172.191 107.914)" fill="#fff"/><path d="M97.547,72.238a1.076,1.076,0,0,1-.964-.568c-1.673-3.07-1.8-4.118-1.8-4.367a2.765,2.765,0,1,1,5.529,0c0,.25-.129,1.3-1.8,4.367a1.07,1.07,0,0,1-.961.568" transform="translate(177.178 120.642)" fill="#fff"/><path d="M101.768,78.155a1.074,1.074,0,0,1-.964-.571c-1.67-3.067-1.8-4.115-1.8-4.361a2.765,2.765,0,1,1,5.529,0c0,.25-.129,1.294-1.8,4.361a1.074,1.074,0,0,1-.964.571" transform="translate(185.069 131.703)" fill="#fff"/><path d="M100.036,54.369a1.076,1.076,0,0,1-.964-.568c-1.67-3.07-1.8-4.118-1.8-4.364a2.765,2.765,0,1,1,5.529,0c0,.247-.129,1.294-1.8,4.364a1.071,1.071,0,0,1-.964.568" transform="translate(181.837 87.244)" fill="#fff"/><path d="M100.036,61.977a1.076,1.076,0,0,1-.964-.568c-1.67-3.07-1.8-4.118-1.8-4.367a2.765,2.765,0,0,1,5.529,0c0,.25-.129,1.3-1.8,4.367a1.071,1.071,0,0,1-.964.568" transform="translate(181.837 101.466)" fill="#fff"/><path d="M101.375,68.851a1.08,1.08,0,0,1-.967-.568c-1.67-3.073-1.8-4.118-1.8-4.367a2.766,2.766,0,0,1,5.532,0c0,.25-.129,1.294-1.8,4.367a1.079,1.079,0,0,1-.964.568" transform="translate(184.329 114.316)" fill="#fff"/><path d="M114.576,65.47c.439-2.964-.815-5.9-2.178-8.568A88.651,88.651,0,0,0,99.05,37.58a3.992,3.992,0,0,1,1.558-2.625c2.471,4.689,6.674,8.224,9.581,12.654,2.488,3.788,3.968,8.135,5.323,12.459a8.358,8.358,0,0,1,.537,2.944,2.865,2.865,0,0,1-1.472,2.459" transform="translate(185.159 65.343)" fill="#0a8837"/><path d="M133.968,38.04a28.019,28.019,0,0,1-18.252,20.989c-3.894,1.306-8.115,1.753-11.716,3.736a26.39,26.39,0,0,1,1.317-11.07c2.258-5.836,7.495-10.017,13-12.99s11.486-5.033,16.843-8.264c-.608,2.491-.723,5.076-1.194,7.6" transform="translate(194.268 56.907)" fill="#0a8837"/><path d="M94.109,47.886a28.018,28.018,0,0,0,27.353,5.041c3.859-1.4,7.44-3.687,11.489-4.381a26.4,26.4,0,0,0-7.928-7.836c-5.4-3.156-12.1-3.162-18.261-2.054s-12.12,3.219-18.324,4.029c2.029,1.572,3.73,3.521,5.67,5.2" transform="translate(165.323 71.009)" fill="#0a8837"/><path d="M133.006,53.4a22.062,22.062,0,0,1-21.732-2.7c-2.565-1.968-4.711-4.531-7.584-6.011a20.73,20.73,0,0,1,7.808-4c4.8-1.087,9.839.494,14.195,2.783s8.335,5.294,12.8,7.371c-1.891.7-3.635,1.759-5.486,2.559" transform="translate(193.832 75.401)" fill="#0a8837"/><path d="M103.464,68.794A22.051,22.051,0,0,0,116.026,50.86c.258-3.225-.2-6.534.626-9.658a20.748,20.748,0,0,0-8.206,3.11c-4.029,2.835-6.226,7.63-7.449,12.4s-1.659,9.73-3.11,14.439c1.788-.938,3.742-1.518,5.578-2.359" transform="translate(182.983 77.021)" fill="#0a8837"/><path d="M159.506,227.622C168.743,181.44,182.275,88.2,183.629,31.29a5.235,5.235,0,0,0-5.245-5.354H49.484a5.235,5.235,0,0,0-5.245,5.354c1.354,56.9,14.886,150.15,24.12,196.332,7.489,37.431-1.225,90.462-4.264,112.691a6.638,6.638,0,0,0,6.577,7.543h83.616a6.636,6.636,0,0,0,6.579-7.526c-3.036-22.217-8.846-75.266-1.36-112.708" transform="translate(82.695 48.483)" fill="#bebfba"/><path d="M46.674,27.388c.049,1.782.112,6.381.184,8.235C49.076,91.868,61.8,179.452,70.616,223.542c5.859,29.3,2.241,67-1.24,93.635a9.832,9.832,0,0,0,9.762,11.093H137.15a9.832,9.832,0,0,0,9.8-10.783c-2.623-26.355-4.657-64.7,1.188-93.945,8.82-44.09,21.54-131.674,23.761-187.919.072-1.854.135-6.453.189-8.235Z" transform="translate(87.25 51.198)" fill="#fff"/><path d="M68.382,28.356V326.464H96.57a9.835,9.835,0,0,0,9.8-10.786c-2.623-26.355-4.657-64.7,1.188-93.942,8.832-44.151,21.575-131.918,23.77-188.154q.1-2.66.181-5.225Z" transform="translate(127.83 53.007)" fill="#e5e6ea"/><path d="M86.859,287.24a18.86,18.86,0,0,1-18.774-20.811c2.689-25.675,4.8-55.1.083-78.695l-.924-4.614C58.725,140.568,50.671,74.6,47.607,48.206l-.181-1.549H168.521l-.184,1.549c-3.062,26.381-11.11,92.336-19.638,134.917l-.924,4.611c-3.96,19.813-4.8,47.229-2.419,79.289a18.615,18.615,0,0,1-4.978,14.18,18.96,18.96,0,0,1-13.847,6.037Z" transform="translate(88.656 87.218)" fill="#7db840"/><path d="M68.527,287.24V46.657h60.549l-.181,1.549c-3.064,26.381-11.113,92.336-19.641,134.917l-.921,4.611c-3.963,19.813-4.8,47.229-2.422,79.289a18.6,18.6,0,0,1-4.978,14.18,18.96,18.96,0,0,1-13.847,6.037Z" transform="translate(128.101 87.218)" fill="#549a53"/><rect width="375.741" height="12.994" transform="translate(204.194 372.708) rotate(-82.718)" fill="#fff"/><path d="M71.158,319.537l12.889,1.647L121.481,28.442h-13.1Z" transform="translate(133.02 53.168)" fill="#fff"/><path d="M100.789,9.787,86.919,15.8l1.03-8.046,13.868-6.014Z" transform="translate(162.481 3.25)" fill="#f87468"/><path d="M99.885,16.857l-13.87,6.014,1.03-8.049,13.868-6.011Z" transform="translate(160.79 16.471)" fill="#f87468"/><path d="M98.98,23.931,85.11,29.942,86.14,21.9l13.868-6.014Z" transform="translate(159.1 29.689)" fill="#f87468"/><path d="M98.076,31l-13.87,6.014,1.03-8.049L99.1,22.955Z" transform="translate(157.41 42.91)" fill="#f87468"/><path d="M97.17,38.074,83.3,44.086,84.33,36.04,98.2,30.026Z" transform="translate(155.721 56.129)" fill="#f87468"/><path d="M96.266,45.144,82.4,51.158l1.027-8.049L97.293,37.1Z" transform="translate(154.031 69.349)" fill="#f87468"/><path d="M95.361,52.218,81.494,58.229l1.027-8.049,13.87-6.011Z" transform="translate(152.34 82.568)" fill="#f87468"/><path d="M94.459,59.289,80.588,65.3l1.03-8.049,13.87-6.014Z" transform="translate(150.648 95.786)" fill="#f87468"/><path d="M93.555,66.361l-13.87,6.011,1.03-8.049,13.87-6.011Z" transform="translate(148.957 109.007)" fill="#f87468"/><path d="M92.648,73.433,78.781,79.444,79.808,71.4l13.87-6.014Z" transform="translate(147.269 122.226)" fill="#f87468"/><path d="M91.747,80.5l-13.87,6.014L78.9,78.468l13.87-6.011Z" transform="translate(145.577 135.446)" fill="#f87468"/><path d="M90.842,87.576l-13.87,6.011L78,85.542l13.868-6.014Z" transform="translate(143.887 148.665)" fill="#f87468"/><path d="M89.938,94.646l-13.87,6.014,1.03-8.049L90.965,86.6Z" transform="translate(142.196 161.885)" fill="#f87468"/><path d="M89.034,101.72l-13.87,6.011,1.03-8.046,13.868-6.014Z" transform="translate(140.506 175.104)" fill="#f87468"/><path d="M88.129,108.789,74.259,114.8l1.03-8.049,13.868-6.011Z" transform="translate(138.816 188.325)" fill="#f87468"/><path d="M87.225,115.863l-13.87,6.011,1.03-8.046,13.868-6.014Z" transform="translate(137.125 201.543)" fill="#f87468"/><path d="M86.321,122.933l-13.87,6.014,1.03-8.048,13.868-6.011Z" transform="translate(135.435 214.764)" fill="#f87468"/><path d="M85.415,130.007l-13.868,6.011,1.027-8.049,13.87-6.011Z" transform="translate(133.746 227.982)" fill="#f87468"/><path d="M73.232,48.967a9.994,9.994,0,0,0-9.994-9.994h-.209a9.981,9.981,0,0,0-9.974,10.665c.961,13.965,3.093,40.294,7.1,70.744a6.5,6.5,0,0,0,6.447,5.644h.123a6.506,6.506,0,0,0,6.508-6.5Z" transform="translate(99.132 72.854)" fill="#fff"/><path d="M56.676,78.889c1.179,7.618,2.473,15.362,3.9,23.115a3,3,0,0,0,5.954-.565V78.16a4.9,4.9,0,0,0-4.9-4.9h-.106a4.891,4.891,0,0,0-4.852,5.624" transform="translate(105.838 136.958)" fill="#fff"/><path d="M159.506,227.623c9.236-46.182,22.768-139.427,24.123-196.332a5.234,5.234,0,0,0-5.245-5.354H49.484a5.234,5.234,0,0,0-5.245,5.354c1.354,56.9,14.886,150.15,24.12,196.332,7.489,37.431-1.225,90.462-4.264,112.691a6.638,6.638,0,0,0,6.577,7.544h83.616a6.636,6.636,0,0,0,6.579-7.526c-3.036-22.217-8.846-75.269-1.36-112.708m-6.812-1.366c-5.848,29.239-3.813,67.59-1.191,93.942a9.829,9.829,0,0,1-9.8,10.786H83.7a9.836,9.836,0,0,1-9.764-11.093c3.481-26.636,7.1-64.331,1.24-93.635C66.353,182.167,53.633,94.58,51.415,38.338c-.075-1.856-.138-6.453-.186-8.235h125.41c-.049,1.782-.112,6.379-.187,8.235-2.218,56.242-14.938,143.829-23.758,187.919" transform="translate(82.695 48.485)" fill="#d6e4e8"/><path d="M114.37,227.622C123.606,181.44,137.138,88.2,138.493,31.29a5.235,5.235,0,0,0-5.245-5.354H69.075V30.1H131.5c-.049,1.782-.112,6.381-.186,8.235-2.218,56.245-14.938,143.829-23.758,187.919-5.848,29.242-3.813,67.59-1.191,93.945a9.828,9.828,0,0,1-9.8,10.783H68.383v16.872h40.768a6.636,6.636,0,0,0,6.579-7.526c-3.036-22.217-8.846-75.266-1.36-112.708" transform="translate(127.831 48.483)" fill="#b6cad1"/><path d="M128.15,140.8H58.459a3.555,3.555,0,0,1-3.552-3.552v-.072a3.553,3.553,0,0,1,3.552-3.552H128.15a3.551,3.551,0,0,1,3.552,3.552v.072a3.553,3.553,0,0,1-3.552,3.552" transform="translate(102.64 249.786)" fill="#fff"/><path d="M72.039,173.925l.121-.631a73.575,73.575,0,0,1,47.757-55.685L166.885,101A132.233,132.233,0,0,0,192.77,88.533l29.755-18.55a42.841,42.841,0,0,1,52.948,6.063l.485.488a42.833,42.833,0,0,1,6.063,52.948l-18.55,29.752a132.3,132.3,0,0,0-12.462,25.884L234.4,232.089a73.572,73.572,0,0,1-55.683,47.757l-.907.172a73.221,73.221,0,0,1-48.274-7.354q-32.68-17.56-50.566-51.287a72.808,72.808,0,0,1-6.927-47.453" transform="translate(132.233 118.703)" fill="#549a53"/><path d="M117.257,120.064l46.971-16.614A141.016,141.016,0,0,0,191.746,90.2L221.5,71.655a34.34,34.34,0,0,1,42.644,4.881l.488.485c.109.109.2.23.313.341L101.76,240.542c-.08-.08-.169-.149-.247-.232A116.548,116.548,0,0,1,80.9,212.087a64.655,64.655,0,0,1-6.106-42.03l.112-.617a65.45,65.45,0,0,1,42.349-49.376" transform="translate(137.667 124.106)" fill="#f8f29e"/><path d="M100.013,104.385a51.536,51.536,0,1,0,72.881,0,51.538,51.538,0,0,0-72.881,0" transform="translate(158.742 166.915)" fill="#a35e2f"/><path d="M100.719,105.092a38.813,38.813,0,1,0,54.891,0,38.817,38.817,0,0,0-54.891,0" transform="translate(167.031 175.205)" fill="#c37d46"/><path d="M251.192,112.518l-18.547,29.755A140.817,140.817,0,0,0,219.4,169.787l-16.613,46.971A65.45,65.45,0,0,1,153.4,259.107l-.9.166a65.075,65.075,0,0,1-42.779-6.5,113.372,113.372,0,0,1-26.28-19.377l163.18-163.18a34.325,34.325,0,0,1,4.568,42.3" transform="translate(155.986 131.256)" fill="#549a53"/><path d="M165.659,113.568l-8.318,13.342a63.138,63.138,0,0,0-5.942,12.341l-7.449,21.067A29.356,29.356,0,0,1,121.8,179.308l-.4.075a29.177,29.177,0,0,1-19.184-2.915,50.8,50.8,0,0,1-11.787-8.688L163.611,94.6a15.394,15.394,0,0,1,2.049,18.972" transform="translate(169.041 176.833)" fill="#7db840"/><path d="M93.97,163.176a65.17,65.17,0,0,0,38.854,4.611l.9-.166A65.222,65.222,0,0,0,183.1,125.284l.275-.775c1.653-4.68-5.033-7.584-7.311-3.174q-2.423,4.7-4.792,9.44c-12.992,25.982-47.843,39.8-77.3,32.4" transform="translate(175.662 222.742)" fill="#7db840"/></g></g><rect width="426" height="65" rx="16" transform="translate(789.427 1052)" fill="#fff1e8"/><path d="M16,2A14,14,0,0,0,2,16V49A14,14,0,0,0,16,63H410a14,14,0,0,0,14-14V16A14,14,0,0,0,410,2H16m0-2H410a16,16,0,0,1,16,16V49a16,16,0,0,1-16,16H16A16,16,0,0,1,0,49V16A16,16,0,0,1,16,0Z" transform="translate(789.427 1052)" fill="#feebde"/><rect width="426" height="65" rx="16" transform="translate(809.427 1129)" fill="#fff1e8"/><path d="M16,2A14,14,0,0,0,2,16V49A14,14,0,0,0,16,63H410a14,14,0,0,0,14-14V16A14,14,0,0,0,410,2H16m0-2H410a16,16,0,0,1,16,16V49a16,16,0,0,1-16,16H16A16,16,0,0,1,0,49V16A16,16,0,0,1,16,0Z" transform="translate(809.427 1129)" fill="#feebde"/><rect width="426" height="65" rx="16" transform="translate(829.427 1206)" fill="#fff1e8"/><path d="M16,2A14,14,0,0,0,2,16V49A14,14,0,0,0,16,63H410a14,14,0,0,0,14-14V16A14,14,0,0,0,410,2H16m0-2H410a16,16,0,0,1,16,16V49a16,16,0,0,1-16,16H16A16,16,0,0,1,0,49V16A16,16,0,0,1,16,0Z" transform="translate(829.427 1206)" fill="#feebde"/><rect width="426" height="65" rx="16" transform="translate(809.427 1283)" fill="#fff1e8"/><path d="M16,2A14,14,0,0,0,2,16V49A14,14,0,0,0,16,63H410a14,14,0,0,0,14-14V16A14,14,0,0,0,410,2H16m0-2H410a16,16,0,0,1,16,16V49a16,16,0,0,1-16,16H16A16,16,0,0,1,0,49V16A16,16,0,0,1,16,0Z" transform="translate(809.427 1283)" fill="#feebde"/><rect width="426" height="65" rx="16" transform="translate(789.427 1360)" fill="#fff1e8"/><path d="M16,2A14,14,0,0,0,2,16V49A14,14,0,0,0,16,63H410a14,14,0,0,0,14-14V16A14,14,0,0,0,410,2H16m0-2H410a16,16,0,0,1,16,16V49a16,16,0,0,1-16,16H16A16,16,0,0,1,0,49V16A16,16,0,0,1,16,0Z" transform="translate(789.427 1360)" fill="#feebde"/><path d="M9.688,13.391a4.185,4.185,0,0,1-1.332,2.785,4.365,4.365,0,0,1-2.98.98,4.008,4.008,0,0,1-3.23-1.445A5.815,5.815,0,0,1,.93,11.844V10.75A6.481,6.481,0,0,1,1.5,7.961,4.231,4.231,0,0,1,3.1,6.113a4.47,4.47,0,0,1,2.406-.645A4.11,4.11,0,0,1,8.414,6.48a4.235,4.235,0,0,1,1.273,2.8H8.18a3.268,3.268,0,0,0-.848-1.975A2.565,2.565,0,0,0,5.508,6.7,2.684,2.684,0,0,0,3.254,7.759a4.882,4.882,0,0,0-.816,3.026v1.1a5.018,5.018,0,0,0,.773,2.948A2.5,2.5,0,0,0,5.375,15.93a2.887,2.887,0,0,0,1.918-.566,3.143,3.143,0,0,0,.887-1.973Zm7.079,2.773a3.07,3.07,0,0,1-2.477.992,2.628,2.628,0,0,1-2.059-.785,3.4,3.4,0,0,1-.715-2.324v-5.5h1.445v5.461q0,1.922,1.563,1.922a2.163,2.163,0,0,0,2.2-1.234V8.547h1.445V17H16.8Zm5-7.617.039.938a3.122,3.122,0,0,1,2.508-1.094A2.417,2.417,0,0,1,26.728,9.75a3.2,3.2,0,0,1,1.1-.984,3.242,3.242,0,0,1,1.6-.375q2.781,0,2.828,2.945V17H30.807V11.422a1.941,1.941,0,0,0-.414-1.355A1.823,1.823,0,0,0,29,9.617a1.916,1.916,0,0,0-1.336.48,1.949,1.949,0,0,0-.617,1.293V17H25.6V11.461a1.613,1.613,0,0,0-1.8-1.844,1.934,1.934,0,0,0-1.945,1.211V17H20.4V8.547Zm19.845,4.32a5.062,5.062,0,0,1-.883,3.109,2.829,2.829,0,0,1-2.391,1.18,3.1,3.1,0,0,1-2.422-.977v4.07H34.472V8.547h1.32l.07.938a2.977,2.977,0,0,1,2.453-1.094,2.882,2.882,0,0,1,2.41,1.148,5.117,5.117,0,0,1,.887,3.2ZM40.167,12.7a3.735,3.735,0,0,0-.609-2.258,1.963,1.963,0,0,0-1.672-.828,2.125,2.125,0,0,0-1.969,1.164V14.82A2.129,2.129,0,0,0,37.9,15.977a1.954,1.954,0,0,0,1.652-.824A4.077,4.077,0,0,0,40.167,12.7ZM45.058,17H43.613V5h1.445Zm3.923,0H47.536V8.547h1.445ZM47.419,6.3a.863.863,0,0,1,.215-.594.807.807,0,0,1,.637-.242.819.819,0,0,1,.641.242.854.854,0,0,1,.219.594.826.826,0,0,1-.219.586.834.834,0,0,1-.641.234.821.821,0,0,1-.637-.234A.834.834,0,0,1,47.419,6.3Zm5.274,2.242.039.938A3.122,3.122,0,0,1,55.24,8.391,2.417,2.417,0,0,1,57.654,9.75a3.2,3.2,0,0,1,1.1-.984,3.242,3.242,0,0,1,1.6-.375q2.781,0,2.828,2.945V17H61.732V11.422a1.941,1.941,0,0,0-.414-1.355,1.823,1.823,0,0,0-1.391-.449,1.917,1.917,0,0,0-1.336.48,1.949,1.949,0,0,0-.617,1.293V17H56.521V11.461a1.613,1.613,0,0,0-1.8-1.844,1.934,1.934,0,0,0-1.945,1.211V17H51.326V8.547ZM66.967,17H65.522V8.547h1.445ZM65.4,6.3a.863.863,0,0,1,.215-.594.807.807,0,0,1,.637-.242.819.819,0,0,1,.641.242.854.854,0,0,1,.219.594.826.826,0,0,1-.219.586.834.834,0,0,1-.641.234.821.821,0,0,1-.637-.234A.834.834,0,0,1,65.4,6.3Zm7.423,10.852a3.693,3.693,0,0,1-2.8-1.129,4.19,4.19,0,0,1-1.078-3.02v-.266a5.073,5.073,0,0,1,.48-2.246,3.748,3.748,0,0,1,1.344-1.547,3.378,3.378,0,0,1,1.871-.559,3.166,3.166,0,0,1,2.563,1.086,4.7,4.7,0,0,1,.914,3.109v.6H70.4a3,3,0,0,0,.73,2.02,2.3,2.3,0,0,0,1.777.77,2.517,2.517,0,0,0,1.3-.312,3.259,3.259,0,0,0,.93-.828l.883.688A3.55,3.55,0,0,1,72.828,17.156Zm-.18-7.578a1.928,1.928,0,0,0-1.469.637A3.1,3.1,0,0,0,70.445,12h4.234v-.109a2.753,2.753,0,0,0-.594-1.707A1.815,1.815,0,0,0,72.648,9.578ZM79.2,8.547l.047,1.063a3.08,3.08,0,0,1,2.531-1.219q2.68,0,2.7,3.023V17H83.04V11.406a1.946,1.946,0,0,0-.418-1.352,1.675,1.675,0,0,0-1.277-.437,2.086,2.086,0,0,0-1.234.375,2.546,2.546,0,0,0-.828.984V17H77.837V8.547ZM88.666,6.5V8.547h1.578V9.664H88.666v5.249a1.173,1.173,0,0,0,.211.763.888.888,0,0,0,.719.254,3.5,3.5,0,0,0,.688-.094V17a4.215,4.215,0,0,1-1.109.155,1.8,1.8,0,0,1-1.461-.586,2.517,2.517,0,0,1-.492-1.664V9.664H85.681V8.547H87.22V6.5Zm2.767,6.2a4.993,4.993,0,0,1,.488-2.234A3.643,3.643,0,0,1,93.28,8.93a3.7,3.7,0,0,1,1.988-.539,3.565,3.565,0,0,1,2.793,1.2,4.6,4.6,0,0,1,1.066,3.18v.1a5.036,5.036,0,0,1-.473,2.215A3.589,3.589,0,0,1,97.3,16.609a3.743,3.743,0,0,1-2.02.547,3.556,3.556,0,0,1-2.785-1.2A4.575,4.575,0,0,1,91.432,12.8Zm1.453.172a3.616,3.616,0,0,0,.652,2.258,2.211,2.211,0,0,0,3.5-.012,3.955,3.955,0,0,0,.648-2.418,3.61,3.61,0,0,0-.66-2.254,2.1,2.1,0,0,0-1.754-.863,2.075,2.075,0,0,0-1.727.852A3.925,3.925,0,0,0,92.885,12.867Zm11.744-.164a4.952,4.952,0,0,1,.922-3.129,3.137,3.137,0,0,1,4.766-.168V5h1.445V17h-1.328l-.07-.906a2.943,2.943,0,0,1-2.414,1.063,2.887,2.887,0,0,1-2.395-1.2,5.008,5.008,0,0,1-.926-3.141Zm1.445.164a3.749,3.749,0,0,0,.594,2.25,1.92,1.92,0,0,0,1.641.813,2.108,2.108,0,0,0,2.008-1.234V10.813a2.125,2.125,0,0,0-1.992-1.2,1.929,1.929,0,0,0-1.656.82A4.128,4.128,0,0,0,106.075,12.867Zm11.478,4.289a3.693,3.693,0,0,1-2.8-1.129,4.19,4.19,0,0,1-1.078-3.02v-.266a5.073,5.073,0,0,1,.48-2.246A3.748,3.748,0,0,1,115.5,8.949a3.378,3.378,0,0,1,1.871-.559,3.166,3.166,0,0,1,2.563,1.086,4.7,4.7,0,0,1,.914,3.109v.6h-5.727a3,3,0,0,0,.73,2.02,2.3,2.3,0,0,0,1.777.77,2.517,2.517,0,0,0,1.3-.312,3.259,3.259,0,0,0,.93-.828l.883.688A3.55,3.55,0,0,1,117.552,17.156Zm-.18-7.578a1.928,1.928,0,0,0-1.469.637A3.1,3.1,0,0,0,115.169,12H119.4v-.109a2.753,2.753,0,0,0-.594-1.707A1.815,1.815,0,0,0,117.373,9.578Zm12.7,7.578a3.693,3.693,0,0,1-2.8-1.129,4.19,4.19,0,0,1-1.078-3.02v-.266a5.073,5.073,0,0,1,.48-2.246,3.748,3.748,0,0,1,1.344-1.547,3.378,3.378,0,0,1,1.871-.559,3.166,3.166,0,0,1,2.563,1.086,4.7,4.7,0,0,1,.914,3.109v.6H127.64a3,3,0,0,0,.73,2.02,2.3,2.3,0,0,0,1.777.77,2.517,2.517,0,0,0,1.3-.312,3.258,3.258,0,0,0,.93-.828l.883.688A3.55,3.55,0,0,1,130.07,17.156Zm-.18-7.578a1.928,1.928,0,0,0-1.469.637A3.1,3.1,0,0,0,127.687,12h4.234v-.109a2.753,2.753,0,0,0-.594-1.707A1.815,1.815,0,0,0,129.89,9.578ZM140,14.758a1.064,1.064,0,0,0-.441-.91,4.249,4.249,0,0,0-1.539-.559,7.277,7.277,0,0,1-1.742-.562,2.479,2.479,0,0,1-.953-.781,1.869,1.869,0,0,1-.309-1.078,2.193,2.193,0,0,1,.879-1.758,3.432,3.432,0,0,1,2.246-.719,3.532,3.532,0,0,1,2.332.742,2.357,2.357,0,0,1,.895,1.9h-1.453a1.3,1.3,0,0,0-.5-1.023,1.888,1.888,0,0,0-1.27-.43,1.976,1.976,0,0,0-1.234.344,1.082,1.082,0,0,0-.445.9.877.877,0,0,0,.414.789,5.1,5.1,0,0,0,1.5.508,7.8,7.8,0,0,1,1.754.578,2.558,2.558,0,0,1,1,.809,1.988,1.988,0,0,1,.324,1.152,2.163,2.163,0,0,1-.906,1.816,3.8,3.8,0,0,1-2.352.684,4.257,4.257,0,0,1-1.8-.359,2.922,2.922,0,0,1-1.223-1,2.42,2.42,0,0,1-.441-1.395h1.445a1.5,1.5,0,0,0,.582,1.152,2.258,2.258,0,0,0,1.434.426,2.331,2.331,0,0,0,1.316-.332A1.02,1.02,0,0,0,140,14.758Zm10.509-1.891a5.062,5.062,0,0,1-.883,3.109,2.829,2.829,0,0,1-2.391,1.18,3.1,3.1,0,0,1-2.422-.977v4.07h-1.445V8.547h1.32l.07.938a2.977,2.977,0,0,1,2.453-1.094,2.882,2.882,0,0,1,2.41,1.148,5.117,5.117,0,0,1,.887,3.2Zm-1.445-.164a3.735,3.735,0,0,0-.609-2.258,1.963,1.963,0,0,0-1.672-.828,2.125,2.125,0,0,0-1.969,1.164V14.82a2.129,2.129,0,0,0,1.984,1.156,1.954,1.954,0,0,0,1.652-.824A4.077,4.077,0,0,0,149.064,12.7Zm6.829,4.453a3.693,3.693,0,0,1-2.8-1.129,4.19,4.19,0,0,1-1.078-3.02v-.266a5.073,5.073,0,0,1,.48-2.246,3.748,3.748,0,0,1,1.344-1.547,3.378,3.378,0,0,1,1.871-.559,3.166,3.166,0,0,1,2.563,1.086,4.7,4.7,0,0,1,.914,3.109v.6h-5.727a3,3,0,0,0,.73,2.02,2.3,2.3,0,0,0,1.777.77,2.517,2.517,0,0,0,1.3-.312,3.258,3.258,0,0,0,.93-.828l.883.688A3.55,3.55,0,0,1,155.893,17.156Zm-.18-7.578a1.928,1.928,0,0,0-1.469.637A3.1,3.1,0,0,0,153.51,12h4.234v-.109a2.753,2.753,0,0,0-.594-1.707A1.815,1.815,0,0,0,155.713,9.578Zm8.579,6.4a2.082,2.082,0,0,0,1.352-.469,1.649,1.649,0,0,0,.641-1.172h1.367a2.621,2.621,0,0,1-.5,1.383,3.293,3.293,0,0,1-1.23,1.047,3.55,3.55,0,0,1-1.629.391A3.482,3.482,0,0,1,161.546,16a4.59,4.59,0,0,1-1.02-3.152v-.242a5.089,5.089,0,0,1,.453-2.2,3.451,3.451,0,0,1,1.3-1.492,3.7,3.7,0,0,1,2-.531,3.39,3.39,0,0,1,2.363.852,3.043,3.043,0,0,1,1,2.211h-1.367a1.992,1.992,0,0,0-.621-1.348,1.932,1.932,0,0,0-1.379-.527,2.023,2.023,0,0,0-1.707.793,3.724,3.724,0,0,0-.605,2.293v.273a3.65,3.65,0,0,0,.6,2.25A2.033,2.033,0,0,0,164.292,15.977ZM170.887,17h-1.445V8.547h1.445ZM169.324,6.3a.863.863,0,0,1,.215-.594.807.807,0,0,1,.637-.242.819.819,0,0,1,.641.242.854.854,0,0,1,.219.594.826.826,0,0,1-.219.586.834.834,0,0,1-.641.234.821.821,0,0,1-.637-.234A.834.834,0,0,1,169.324,6.3Zm4.4,10.7V9.664h-1.336V8.547h1.336V7.828a2.937,2.937,0,0,1,.809-2.2,3.136,3.136,0,0,1,2.285-.789,6.881,6.881,0,0,1,2.211.477l-.242,1.219a5.008,5.008,0,0,0-1.859-.391,1.819,1.819,0,0,0-1.34.418,1.723,1.723,0,0,0-.41,1.254v.734H176.9V9.664h-1.727V17Zm6.023,0h-1.453V8.547h1.453Zm5.782-1.023a2.082,2.082,0,0,0,1.352-.469,1.649,1.649,0,0,0,.641-1.172h1.367a2.621,2.621,0,0,1-.5,1.383,3.293,3.293,0,0,1-1.23,1.047,3.55,3.55,0,0,1-1.629.391A3.482,3.482,0,0,1,182.783,16a4.59,4.59,0,0,1-1.02-3.152v-.242a5.089,5.089,0,0,1,.453-2.2,3.451,3.451,0,0,1,1.3-1.492,3.7,3.7,0,0,1,2-.531,3.39,3.39,0,0,1,2.363.852,3.043,3.043,0,0,1,1,2.211h-1.367a1.992,1.992,0,0,0-.621-1.348,1.932,1.932,0,0,0-1.379-.527,2.023,2.023,0,0,0-1.707.793,3.724,3.724,0,0,0-.605,2.293v.273a3.65,3.65,0,0,0,.6,2.25A2.033,2.033,0,0,0,185.529,15.977ZM195.772,17a3.036,3.036,0,0,1-.2-.891,3.225,3.225,0,0,1-2.406,1.047,2.984,2.984,0,0,1-2.051-.707,2.287,2.287,0,0,1-.8-1.793,2.39,2.39,0,0,1,1-2.051,4.733,4.733,0,0,1,2.824-.73h1.406v-.664A1.623,1.623,0,0,0,195.093,10a1.821,1.821,0,0,0-1.336-.449,2.107,2.107,0,0,0-1.3.391,1.151,1.151,0,0,0-.523.945h-1.453a2,2,0,0,1,.449-1.223,3.066,3.066,0,0,1,1.219-.934,4.1,4.1,0,0,1,1.691-.344,3.342,3.342,0,0,1,2.289.73,2.635,2.635,0,0,1,.859,2.012v3.891a4.757,4.757,0,0,0,.3,1.852V17Zm-2.4-1.1a2.54,2.54,0,0,0,1.289-.352,2.127,2.127,0,0,0,.883-.914V12.9h-1.133q-2.656,0-2.656,1.555a1.316,1.316,0,0,0,.453,1.063A1.742,1.742,0,0,0,193.374,15.9Zm9.313.078a2.082,2.082,0,0,0,1.352-.469,1.649,1.649,0,0,0,.641-1.172h1.367a2.621,2.621,0,0,1-.5,1.383,3.293,3.293,0,0,1-1.23,1.047,3.55,3.55,0,0,1-1.629.391A3.482,3.482,0,0,1,199.941,16a4.59,4.59,0,0,1-1.02-3.152v-.242a5.089,5.089,0,0,1,.453-2.2,3.451,3.451,0,0,1,1.3-1.492,3.7,3.7,0,0,1,2-.531,3.39,3.39,0,0,1,2.363.852,3.043,3.043,0,0,1,1,2.211H204.68a1.992,1.992,0,0,0-.621-1.348,1.932,1.932,0,0,0-1.379-.527,2.023,2.023,0,0,0-1.707.793,3.724,3.724,0,0,0-.605,2.293v.273a3.65,3.65,0,0,0,.6,2.25A2.033,2.033,0,0,0,202.687,15.977ZM209.282,17h-1.445V8.547h1.445ZM207.72,6.3a.863.863,0,0,1,.215-.594.807.807,0,0,1,.637-.242.819.819,0,0,1,.641.242.854.854,0,0,1,.219.594.826.826,0,0,1-.219.586.834.834,0,0,1-.641.234.821.821,0,0,1-.637-.234A.834.834,0,0,1,207.72,6.3Zm3.532,6.391a4.993,4.993,0,0,1,.488-2.234A3.642,3.642,0,0,1,213.1,8.93a3.7,3.7,0,0,1,1.988-.539,3.565,3.565,0,0,1,2.793,1.2,4.6,4.6,0,0,1,1.066,3.18v.1a5.036,5.036,0,0,1-.473,2.215,3.589,3.589,0,0,1-1.352,1.527,3.743,3.743,0,0,1-2.02.547,3.556,3.556,0,0,1-2.785-1.2,4.575,4.575,0,0,1-1.066-3.164Zm1.453.172a3.616,3.616,0,0,0,.652,2.258,2.211,2.211,0,0,0,3.5-.012A3.954,3.954,0,0,0,217.5,12.7a3.61,3.61,0,0,0-.66-2.254,2.1,2.1,0,0,0-1.754-.863,2.075,2.075,0,0,0-1.727.852A3.925,3.925,0,0,0,212.7,12.867Zm9.462-4.32.047,1.063a3.08,3.08,0,0,1,2.531-1.219q2.68,0,2.7,3.023V17H226V11.406a1.946,1.946,0,0,0-.418-1.352,1.675,1.675,0,0,0-1.277-.437,2.086,2.086,0,0,0-1.234.375,2.546,2.546,0,0,0-.828.984V17H220.8V8.547Zm11.009,8.609a3.693,3.693,0,0,1-2.8-1.129,4.19,4.19,0,0,1-1.078-3.02v-.266a5.073,5.073,0,0,1,.48-2.246,3.748,3.748,0,0,1,1.344-1.547A3.378,3.378,0,0,1,233,8.391a3.166,3.166,0,0,1,2.563,1.086,4.7,4.7,0,0,1,.914,3.109v.6h-5.727a3,3,0,0,0,.73,2.02,2.3,2.3,0,0,0,1.777.77,2.517,2.517,0,0,0,1.3-.312,3.258,3.258,0,0,0,.93-.828l.883.688A3.55,3.55,0,0,1,233.176,17.156ZM233,9.578a1.928,1.928,0,0,0-1.469.637A3.1,3.1,0,0,0,230.793,12h4.234v-.109a2.753,2.753,0,0,0-.594-1.707A1.815,1.815,0,0,0,233,9.578Zm10.11,5.18a1.064,1.064,0,0,0-.441-.91,4.249,4.249,0,0,0-1.539-.559,7.277,7.277,0,0,1-1.742-.562,2.479,2.479,0,0,1-.953-.781,1.869,1.869,0,0,1-.309-1.078A2.193,2.193,0,0,1,239,9.109a3.432,3.432,0,0,1,2.246-.719,3.532,3.532,0,0,1,2.332.742,2.357,2.357,0,0,1,.895,1.9H243.02a1.3,1.3,0,0,0-.5-1.023,1.888,1.888,0,0,0-1.27-.43,1.976,1.976,0,0,0-1.234.344,1.082,1.082,0,0,0-.445.9.877.877,0,0,0,.414.789,5.1,5.1,0,0,0,1.5.508,7.8,7.8,0,0,1,1.754.578,2.558,2.558,0,0,1,1,.809,1.988,1.988,0,0,1,.324,1.152,2.163,2.163,0,0,1-.906,1.816,3.8,3.8,0,0,1-2.352.684,4.257,4.257,0,0,1-1.8-.359,2.922,2.922,0,0,1-1.223-1,2.42,2.42,0,0,1-.441-1.395h1.445a1.5,1.5,0,0,0,.582,1.152,2.258,2.258,0,0,0,1.434.426,2.331,2.331,0,0,0,1.316-.332A1.02,1.02,0,0,0,243.106,14.758ZM250.96,17V9.664h-1.336V8.547h1.336V7.828a2.937,2.937,0,0,1,.809-2.2,3.136,3.136,0,0,1,2.285-.789,6.881,6.881,0,0,1,2.211.477l-.242,1.219a5.008,5.008,0,0,0-1.859-.391,1.819,1.819,0,0,0-1.34.418,1.723,1.723,0,0,0-.41,1.254v.734h1.727V9.664h-1.727V17Zm6.023,0H255.53V8.547h1.453Zm7.313-2.242a1.064,1.064,0,0,0-.441-.91,4.249,4.249,0,0,0-1.539-.559,7.276,7.276,0,0,1-1.742-.562,2.478,2.478,0,0,1-.953-.781,1.869,1.869,0,0,1-.309-1.078,2.193,2.193,0,0,1,.879-1.758,3.432,3.432,0,0,1,2.246-.719,3.532,3.532,0,0,1,2.332.742,2.357,2.357,0,0,1,.895,1.9h-1.453a1.3,1.3,0,0,0-.5-1.023,1.888,1.888,0,0,0-1.27-.43,1.976,1.976,0,0,0-1.234.344,1.082,1.082,0,0,0-.445.9.877.877,0,0,0,.414.789,5.1,5.1,0,0,0,1.5.508,7.8,7.8,0,0,1,1.754.578,2.559,2.559,0,0,1,1,.809,1.988,1.988,0,0,1,.324,1.152,2.163,2.163,0,0,1-.906,1.816,3.8,3.8,0,0,1-2.352.684,4.257,4.257,0,0,1-1.8-.359,2.922,2.922,0,0,1-1.223-1,2.42,2.42,0,0,1-.441-1.395h1.445a1.5,1.5,0,0,0,.582,1.152,2.258,2.258,0,0,0,1.434.426,2.331,2.331,0,0,0,1.316-.332A1.02,1.02,0,0,0,264.3,14.758ZM269.235,17H267.79V8.547h1.445ZM267.672,6.3a.863.863,0,0,1,.215-.594.807.807,0,0,1,.637-.242.819.819,0,0,1,.641.242.854.854,0,0,1,.219.594.826.826,0,0,1-.219.586.834.834,0,0,1-.641.234.821.821,0,0,1-.637-.234A.834.834,0,0,1,267.672,6.3Zm7.306,9.672a2.082,2.082,0,0,0,1.352-.469,1.649,1.649,0,0,0,.641-1.172h1.367a2.621,2.621,0,0,1-.5,1.383,3.293,3.293,0,0,1-1.23,1.047,3.551,3.551,0,0,1-1.629.391A3.482,3.482,0,0,1,272.232,16a4.59,4.59,0,0,1-1.02-3.152v-.242a5.089,5.089,0,0,1,.453-2.2,3.451,3.451,0,0,1,1.3-1.492,3.7,3.7,0,0,1,2-.531,3.39,3.39,0,0,1,2.363.852,3.043,3.043,0,0,1,1,2.211H276.97a1.992,1.992,0,0,0-.621-1.348,1.932,1.932,0,0,0-1.379-.527,2.023,2.023,0,0,0-1.707.793,3.724,3.724,0,0,0-.605,2.293v.273a3.65,3.65,0,0,0,.6,2.25A2.033,2.033,0,0,0,274.978,15.977ZM279.62,12.7a4.993,4.993,0,0,1,.488-2.234,3.643,3.643,0,0,1,1.359-1.531,3.7,3.7,0,0,1,1.988-.539,3.565,3.565,0,0,1,2.793,1.2,4.6,4.6,0,0,1,1.066,3.18v.1a5.036,5.036,0,0,1-.473,2.215,3.589,3.589,0,0,1-1.352,1.527,3.743,3.743,0,0,1-2.02.547,3.556,3.556,0,0,1-2.785-1.2A4.575,4.575,0,0,1,279.62,12.8Zm1.453.172a3.616,3.616,0,0,0,.652,2.258,2.211,2.211,0,0,0,3.5-.012,3.955,3.955,0,0,0,.648-2.418,3.61,3.61,0,0,0-.66-2.254,2.1,2.1,0,0,0-1.754-.863,2.075,2.075,0,0,0-1.727.852A3.925,3.925,0,0,0,281.073,12.867Zm7.743-.164a4.961,4.961,0,0,1,.914-3.152,3.226,3.226,0,0,1,4.82-.152l.063-.852h1.328v11.7H294.5V16.219a3.033,3.033,0,0,1-2.328.938,2.915,2.915,0,0,1-2.441-1.191,5.072,5.072,0,0,1-.91-3.16Zm1.445.164a3.761,3.761,0,0,0,.613,2.281,1.951,1.951,0,0,0,1.652.828,2.164,2.164,0,0,0,1.969-1.141V10.7a2.171,2.171,0,0,0-1.953-1.117,1.965,1.965,0,0,0-1.664.832A4.094,4.094,0,0,0,290.261,12.867Zm13.259,3.3a3.07,3.07,0,0,1-2.477.992,2.628,2.628,0,0,1-2.059-.785,3.4,3.4,0,0,1-.715-2.324v-5.5h1.445v5.461q0,1.922,1.563,1.922a2.163,2.163,0,0,0,2.2-1.234V8.547h1.445V17h-1.375Zm5.212.836h-1.453V8.547h1.453Zm.016-11.992h1.75L308.4,7.3l-1.164,0Zm3.767,3.539.039.938a3.122,3.122,0,0,1,2.508-1.094,2.417,2.417,0,0,1,2.414,1.359,3.2,3.2,0,0,1,1.1-.984,3.242,3.242,0,0,1,1.6-.375q2.781,0,2.828,2.945V17h-1.445V11.422a1.941,1.941,0,0,0-.414-1.355,1.823,1.823,0,0,0-1.391-.449,1.916,1.916,0,0,0-1.336.48,1.949,1.949,0,0,0-.617,1.293V17h-1.453V11.461a1.613,1.613,0,0,0-1.8-1.844,1.934,1.934,0,0,0-1.945,1.211V17h-1.445V8.547ZM326.788,17h-1.445V8.547h1.445ZM325.226,6.3a.863.863,0,0,1,.215-.594.807.807,0,0,1,.637-.242.819.819,0,0,1,.641.242.854.854,0,0,1,.219.594.826.826,0,0,1-.219.586.834.834,0,0,1-.641.234.821.821,0,0,1-.637-.234A.834.834,0,0,1,325.226,6.3Zm7.306,9.672a2.082,2.082,0,0,0,1.352-.469,1.649,1.649,0,0,0,.641-1.172h1.367a2.621,2.621,0,0,1-.5,1.383,3.293,3.293,0,0,1-1.23,1.047,3.551,3.551,0,0,1-1.629.391A3.482,3.482,0,0,1,329.785,16a4.59,4.59,0,0,1-1.02-3.152v-.242a5.089,5.089,0,0,1,.453-2.2,3.451,3.451,0,0,1,1.3-1.492,3.7,3.7,0,0,1,2-.531,3.39,3.39,0,0,1,2.363.852,3.043,3.043,0,0,1,1,2.211h-1.367a1.992,1.992,0,0,0-.621-1.348,1.932,1.932,0,0,0-1.379-.527,2.023,2.023,0,0,0-1.707.793,3.724,3.724,0,0,0-.605,2.293v.273a3.65,3.65,0,0,0,.6,2.25A2.033,2.033,0,0,0,332.532,15.977ZM342.775,17a3.036,3.036,0,0,1-.2-.891,3.225,3.225,0,0,1-2.406,1.047,2.984,2.984,0,0,1-2.051-.707,2.288,2.288,0,0,1-.8-1.793,2.39,2.39,0,0,1,1-2.051,4.733,4.733,0,0,1,2.824-.73h1.406v-.664A1.623,1.623,0,0,0,342.1,10a1.821,1.821,0,0,0-1.336-.449,2.108,2.108,0,0,0-1.3.391,1.151,1.151,0,0,0-.523.945h-1.453a2,2,0,0,1,.449-1.223,3.066,3.066,0,0,1,1.219-.934,4.1,4.1,0,0,1,1.691-.344,3.342,3.342,0,0,1,2.289.73,2.635,2.635,0,0,1,.859,2.012v3.891a4.757,4.757,0,0,0,.3,1.852V17Zm-2.4-1.1a2.54,2.54,0,0,0,1.289-.352,2.126,2.126,0,0,0,.883-.914V12.9h-1.133q-2.656,0-2.656,1.555a1.316,1.316,0,0,0,.453,1.063A1.742,1.742,0,0,0,340.376,15.9Zm10.845-1.141a1.064,1.064,0,0,0-.441-.91,4.249,4.249,0,0,0-1.539-.559,7.276,7.276,0,0,1-1.742-.562,2.478,2.478,0,0,1-.953-.781,1.869,1.869,0,0,1-.309-1.078,2.193,2.193,0,0,1,.879-1.758,3.432,3.432,0,0,1,2.246-.719,3.532,3.532,0,0,1,2.332.742,2.357,2.357,0,0,1,.895,1.9h-1.453a1.3,1.3,0,0,0-.5-1.023,1.888,1.888,0,0,0-1.27-.43,1.976,1.976,0,0,0-1.234.344,1.082,1.082,0,0,0-.445.9.877.877,0,0,0,.414.789,5.1,5.1,0,0,0,1.5.508,7.8,7.8,0,0,1,1.754.578,2.559,2.559,0,0,1,1,.809,1.988,1.988,0,0,1,.324,1.152,2.163,2.163,0,0,1-.906,1.816,3.8,3.8,0,0,1-2.352.684,4.257,4.257,0,0,1-1.8-.359,2.922,2.922,0,0,1-1.223-1,2.42,2.42,0,0,1-.441-1.395h1.445a1.5,1.5,0,0,0,.582,1.152,2.258,2.258,0,0,0,1.434.426,2.331,2.331,0,0,0,1.316-.332A1.02,1.02,0,0,0,351.221,14.758Zm3.4,1.484a.905.905,0,0,1,.223-.625.848.848,0,0,1,.668-.25.874.874,0,0,1,.676.25.887.887,0,0,1,.23.625.839.839,0,0,1-.23.6.89.89,0,0,1-.676.242.8.8,0,0,1-.891-.844Z" transform="translate(812.427 1074)" fill="#12263f"/><path d="M7.75,11.742H2.82v4.031H8.547V17H1.32V5.625H8.469V6.852H2.82v3.664H7.75Zm7.4,3.016a1.064,1.064,0,0,0-.441-.91,4.249,4.249,0,0,0-1.539-.559,7.277,7.277,0,0,1-1.742-.562,2.479,2.479,0,0,1-.953-.781,1.869,1.869,0,0,1-.309-1.078,2.193,2.193,0,0,1,.879-1.758,3.432,3.432,0,0,1,2.246-.719,3.532,3.532,0,0,1,2.332.742,2.357,2.357,0,0,1,.895,1.9H15.063a1.3,1.3,0,0,0-.5-1.023,1.888,1.888,0,0,0-1.27-.43,1.976,1.976,0,0,0-1.234.344,1.082,1.082,0,0,0-.445.9.877.877,0,0,0,.414.789,5.1,5.1,0,0,0,1.5.508,7.8,7.8,0,0,1,1.754.578,2.558,2.558,0,0,1,1,.809,1.988,1.988,0,0,1,.324,1.152,2.163,2.163,0,0,1-.906,1.816,3.8,3.8,0,0,1-2.352.684,4.257,4.257,0,0,1-1.8-.359,2.922,2.922,0,0,1-1.223-1A2.42,2.42,0,0,1,9.876,14.4h1.445a1.5,1.5,0,0,0,.582,1.152,2.258,2.258,0,0,0,1.434.426,2.331,2.331,0,0,0,1.316-.332A1.02,1.02,0,0,0,15.149,14.758ZM20.478,6.5V8.547h1.578V9.664H20.478v5.249a1.173,1.173,0,0,0,.211.763.888.888,0,0,0,.719.254,3.5,3.5,0,0,0,.688-.094V17a4.215,4.215,0,0,1-1.109.155,1.8,1.8,0,0,1-1.461-.586,2.517,2.517,0,0,1-.492-1.664V9.664H17.494V8.547h1.539V6.5ZM29,17a3.036,3.036,0,0,1-.2-.891,3.225,3.225,0,0,1-2.406,1.047,2.984,2.984,0,0,1-2.051-.707,2.287,2.287,0,0,1-.8-1.793,2.39,2.39,0,0,1,1-2.051,4.733,4.733,0,0,1,2.824-.73h1.406v-.664A1.623,1.623,0,0,0,28.323,10a1.821,1.821,0,0,0-1.336-.449,2.107,2.107,0,0,0-1.3.391,1.151,1.151,0,0,0-.523.945H23.714a2,2,0,0,1,.449-1.223,3.066,3.066,0,0,1,1.219-.934,4.1,4.1,0,0,1,1.691-.344,3.342,3.342,0,0,1,2.289.73,2.635,2.635,0,0,1,.859,2.012v3.891a4.757,4.757,0,0,0,.3,1.852V17Zm-2.4-1.1a2.54,2.54,0,0,0,1.289-.352,2.127,2.127,0,0,0,.883-.914V12.9H27.643q-2.656,0-2.656,1.555a1.316,1.316,0,0,0,.453,1.063A1.742,1.742,0,0,0,26.6,15.9Zm13.079-3.031a5.026,5.026,0,0,1-.891,3.113A2.846,2.846,0,0,1,36.4,17.156a2.947,2.947,0,0,1-2.477-1.133l-.07.977H32.527V5h1.445V9.477a2.93,2.93,0,0,1,2.414-1.086A2.863,2.863,0,0,1,38.8,9.555a5.177,5.177,0,0,1,.879,3.188ZM38.238,12.7a3.906,3.906,0,0,0-.57-2.281,1.888,1.888,0,0,0-1.641-.8,2.122,2.122,0,0,0-2.055,1.328V14.6a2.181,2.181,0,0,0,2.07,1.328,1.878,1.878,0,0,0,1.617-.8A4.153,4.153,0,0,0,38.238,12.7ZM43.114,17H41.669V8.547h1.445ZM41.552,6.3a.863.863,0,0,1,.215-.594.807.807,0,0,1,.637-.242.819.819,0,0,1,.641.242.854.854,0,0,1,.219.594.826.826,0,0,1-.219.586.834.834,0,0,1-.641.234.821.821,0,0,1-.637-.234A.834.834,0,0,1,41.552,6.3ZM47.037,17H45.592V5h1.445Zm3.923,0H49.514V8.547H50.96ZM49.4,6.3a.863.863,0,0,1,.215-.594.807.807,0,0,1,.637-.242.819.819,0,0,1,.641.242.854.854,0,0,1,.219.594.826.826,0,0,1-.219.586.834.834,0,0,1-.641.234.821.821,0,0,1-.637-.234A.834.834,0,0,1,49.4,6.3Zm3.563,6.4a4.952,4.952,0,0,1,.922-3.129,3.137,3.137,0,0,1,4.766-.168V5h1.445V17H58.765l-.07-.906a2.943,2.943,0,0,1-2.414,1.063,2.887,2.887,0,0,1-2.395-1.2,5.008,5.008,0,0,1-.926-3.141Zm1.445.164A3.749,3.749,0,0,0,55,15.117a1.92,1.92,0,0,0,1.641.813A2.108,2.108,0,0,0,58.648,14.7V10.813a2.125,2.125,0,0,0-1.992-1.2,1.929,1.929,0,0,0-1.656.82A4.128,4.128,0,0,0,54.406,12.867ZM67.594,17a3.036,3.036,0,0,1-.2-.891,3.225,3.225,0,0,1-2.406,1.047,2.984,2.984,0,0,1-2.051-.707,2.287,2.287,0,0,1-.8-1.793,2.39,2.39,0,0,1,1-2.051,4.733,4.733,0,0,1,2.824-.73h1.406v-.664A1.623,1.623,0,0,0,66.915,10a1.821,1.821,0,0,0-1.336-.449,2.108,2.108,0,0,0-1.3.391,1.151,1.151,0,0,0-.523.945H62.305a2,2,0,0,1,.449-1.223,3.066,3.066,0,0,1,1.219-.934,4.1,4.1,0,0,1,1.691-.344,3.342,3.342,0,0,1,2.289.73,2.635,2.635,0,0,1,.859,2.012v3.891a4.757,4.757,0,0,0,.3,1.852V17Zm-2.4-1.1a2.54,2.54,0,0,0,1.289-.352,2.127,2.127,0,0,0,.883-.914V12.9H66.235q-2.656,0-2.656,1.555a1.316,1.316,0,0,0,.453,1.063A1.742,1.742,0,0,0,65.2,15.9Zm5.571-3.2a4.952,4.952,0,0,1,.922-3.129,3.137,3.137,0,0,1,4.766-.168V5H77.9V17H76.572l-.07-.906a2.943,2.943,0,0,1-2.414,1.063,2.887,2.887,0,0,1-2.395-1.2,5.008,5.008,0,0,1-.926-3.141Zm1.445.164a3.749,3.749,0,0,0,.594,2.25,1.92,1.92,0,0,0,1.641.813A2.108,2.108,0,0,0,76.455,14.7V10.813a2.125,2.125,0,0,0-1.992-1.2,1.929,1.929,0,0,0-1.656.82A4.128,4.128,0,0,0,72.213,12.867ZM83.832,12.7a4.952,4.952,0,0,1,.922-3.129,3.137,3.137,0,0,1,4.766-.168V5h1.445V17H89.636l-.07-.906a2.943,2.943,0,0,1-2.414,1.063,2.887,2.887,0,0,1-2.395-1.2,5.008,5.008,0,0,1-.926-3.141Zm1.445.164a3.749,3.749,0,0,0,.594,2.25,1.92,1.92,0,0,0,1.641.813A2.108,2.108,0,0,0,89.519,14.7V10.813a2.125,2.125,0,0,0-1.992-1.2,1.929,1.929,0,0,0-1.656.82A4.128,4.128,0,0,0,85.277,12.867Zm13.188,3.3a3.07,3.07,0,0,1-2.477.992,2.628,2.628,0,0,1-2.059-.785,3.4,3.4,0,0,1-.715-2.324v-5.5h1.445v5.461q0,1.922,1.563,1.922a2.163,2.163,0,0,0,2.2-1.234V8.547h1.445V17H98.5Zm7.728-6.32a4.331,4.331,0,0,0-.711-.055A1.9,1.9,0,0,0,103.552,11v6h-1.445V8.547h1.406l.023.977a2.251,2.251,0,0,1,2.016-1.133,1.477,1.477,0,0,1,.641.109ZM112.467,17a3.036,3.036,0,0,1-.2-.891,3.225,3.225,0,0,1-2.406,1.047,2.984,2.984,0,0,1-2.051-.707,2.288,2.288,0,0,1-.8-1.793,2.39,2.39,0,0,1,1-2.051,4.733,4.733,0,0,1,2.824-.73h1.406v-.664A1.623,1.623,0,0,0,111.788,10a1.821,1.821,0,0,0-1.336-.449,2.108,2.108,0,0,0-1.3.391,1.151,1.151,0,0,0-.523.945h-1.453a2,2,0,0,1,.449-1.223,3.066,3.066,0,0,1,1.219-.934,4.1,4.1,0,0,1,1.691-.344,3.342,3.342,0,0,1,2.289.73,2.635,2.635,0,0,1,.859,2.012v3.891a4.757,4.757,0,0,0,.3,1.852V17Zm-2.4-1.1a2.54,2.54,0,0,0,1.289-.352,2.127,2.127,0,0,0,.883-.914V12.9h-1.133q-2.656,0-2.656,1.555a1.316,1.316,0,0,0,.453,1.063A1.742,1.742,0,0,0,110.069,15.9Zm7.29-7.352.047,1.063a3.08,3.08,0,0,1,2.531-1.219q2.68,0,2.7,3.023V17h-1.445V11.406a1.946,1.946,0,0,0-.418-1.352,1.675,1.675,0,0,0-1.277-.437,2.086,2.086,0,0,0-1.234.375,2.546,2.546,0,0,0-.828.984V17h-1.445V8.547ZM126.821,6.5V8.547H128.4V9.664h-1.578v5.249a1.173,1.173,0,0,0,.211.763.888.888,0,0,0,.719.254,3.5,3.5,0,0,0,.688-.094V17a4.215,4.215,0,0,1-1.109.155,1.8,1.8,0,0,1-1.461-.586,2.517,2.517,0,0,1-.492-1.664V9.664h-1.539V8.547h1.539V6.5Zm6.813,10.656a3.693,3.693,0,0,1-2.8-1.129,4.19,4.19,0,0,1-1.078-3.02v-.266a5.073,5.073,0,0,1,.48-2.246,3.748,3.748,0,0,1,1.344-1.547,3.378,3.378,0,0,1,1.871-.559,3.166,3.166,0,0,1,2.563,1.086,4.7,4.7,0,0,1,.914,3.109v.6H131.2a3,3,0,0,0,.73,2.02,2.3,2.3,0,0,0,1.777.77,2.517,2.517,0,0,0,1.3-.312,3.258,3.258,0,0,0,.93-.828l.883.688A3.55,3.55,0,0,1,133.634,17.156Zm-.18-7.578a1.928,1.928,0,0,0-1.469.637A3.1,3.1,0,0,0,131.251,12h4.234v-.109a2.753,2.753,0,0,0-.594-1.707A1.815,1.815,0,0,0,133.454,9.578ZM144.214,17h-1.445V5h1.445Zm7.571,0a3.036,3.036,0,0,1-.2-.891,3.225,3.225,0,0,1-2.406,1.047,2.984,2.984,0,0,1-2.051-.707,2.287,2.287,0,0,1-.8-1.793,2.39,2.39,0,0,1,1-2.051,4.733,4.733,0,0,1,2.824-.73h1.406v-.664A1.623,1.623,0,0,0,151.106,10a1.821,1.821,0,0,0-1.336-.449,2.107,2.107,0,0,0-1.3.391,1.151,1.151,0,0,0-.523.945H146.5a2,2,0,0,1,.449-1.223,3.066,3.066,0,0,1,1.219-.934,4.1,4.1,0,0,1,1.691-.344,3.342,3.342,0,0,1,2.289.73A2.635,2.635,0,0,1,153,11.133v3.891a4.757,4.757,0,0,0,.3,1.852V17Zm-2.4-1.1a2.54,2.54,0,0,0,1.289-.352,2.127,2.127,0,0,0,.883-.914V12.9h-1.133q-2.656,0-2.656,1.555a1.316,1.316,0,0,0,.453,1.063A1.742,1.742,0,0,0,149.387,15.9Zm12.713-.859,2.094-6.492h1.477L162.639,17h-1.1l-3.062-8.453h1.477ZM168.671,17h-1.445V8.547h1.445ZM167.108,6.3a.863.863,0,0,1,.215-.594.807.807,0,0,1,.637-.242.819.819,0,0,1,.641.242.854.854,0,0,1,.219.594.826.826,0,0,1-.219.586.834.834,0,0,1-.641.234.821.821,0,0,1-.637-.234A.834.834,0,0,1,167.108,6.3Zm3.563,6.4a4.952,4.952,0,0,1,.922-3.129,3.137,3.137,0,0,1,4.766-.168V5H177.8V17h-1.328l-.07-.906a2.943,2.943,0,0,1-2.414,1.063,2.887,2.887,0,0,1-2.395-1.2,5.008,5.008,0,0,1-.926-3.141Zm1.445.164a3.749,3.749,0,0,0,.594,2.25,1.919,1.919,0,0,0,1.641.813,2.108,2.108,0,0,0,2.008-1.234V10.813a2.125,2.125,0,0,0-1.992-1.2,1.929,1.929,0,0,0-1.656.82A4.128,4.128,0,0,0,172.117,12.867ZM185.306,17a3.036,3.036,0,0,1-.2-.891,3.225,3.225,0,0,1-2.406,1.047,2.984,2.984,0,0,1-2.051-.707,2.287,2.287,0,0,1-.8-1.793,2.39,2.39,0,0,1,1-2.051,4.733,4.733,0,0,1,2.824-.73h1.406v-.664A1.623,1.623,0,0,0,184.626,10a1.821,1.821,0,0,0-1.336-.449,2.107,2.107,0,0,0-1.3.391,1.151,1.151,0,0,0-.523.945h-1.453a2,2,0,0,1,.449-1.223,3.066,3.066,0,0,1,1.219-.934,4.1,4.1,0,0,1,1.691-.344,3.342,3.342,0,0,1,2.289.73,2.635,2.635,0,0,1,.859,2.012v3.891a4.757,4.757,0,0,0,.3,1.852V17Zm-2.4-1.1a2.54,2.54,0,0,0,1.289-.352,2.127,2.127,0,0,0,.883-.914V12.9h-1.133q-2.656,0-2.656,1.555a1.316,1.316,0,0,0,.453,1.063A1.742,1.742,0,0,0,182.907,15.9Zm15.142.266a3.07,3.07,0,0,1-2.477.992,2.628,2.628,0,0,1-2.059-.785,3.4,3.4,0,0,1-.715-2.324v-5.5h1.445v5.461q0,1.922,1.563,1.922a2.163,2.163,0,0,0,2.2-1.234V8.547h1.445V17h-1.375ZM196.878,5h1.75l-2.094,2.3-1.164,0Zm6.774,1.5V8.547h1.578V9.664h-1.578v5.249a1.173,1.173,0,0,0,.211.763.888.888,0,0,0,.719.254,3.5,3.5,0,0,0,.688-.094V17a4.215,4.215,0,0,1-1.109.155,1.8,1.8,0,0,1-1.461-.586,2.517,2.517,0,0,1-.492-1.664V9.664h-1.539V8.547h1.539V6.5ZM208.528,17h-1.445V8.547h1.445ZM206.966,6.3a.863.863,0,0,1,.215-.594.807.807,0,0,1,.637-.242.819.819,0,0,1,.641.242.854.854,0,0,1,.219.594.826.826,0,0,1-.219.586.834.834,0,0,1-.641.234.821.821,0,0,1-.637-.234A.834.834,0,0,1,206.966,6.3ZM212.451,17h-1.445V5h1.445Zm2.384-.758a.905.905,0,0,1,.223-.625.848.848,0,0,1,.668-.25.874.874,0,0,1,.676.25.887.887,0,0,1,.23.625.839.839,0,0,1-.23.6.89.89,0,0,1-.676.242.8.8,0,0,1-.891-.844Z" transform="translate(832.427 1151)" fill="#12263f"/><path d="M7.6,14.023H2.836L1.766,17H.219L4.563,5.625H5.875L10.227,17H8.688ZM3.289,12.8H7.156L5.219,7.477ZM16.7,16.164a3.07,3.07,0,0,1-2.477.992,2.628,2.628,0,0,1-2.059-.785,3.4,3.4,0,0,1-.715-2.324v-5.5H12.9v5.461q0,1.922,1.563,1.922a2.163,2.163,0,0,0,2.2-1.234V8.547H18.11V17H16.735Zm8.563-1.406a1.064,1.064,0,0,0-.441-.91,4.249,4.249,0,0,0-1.539-.559,7.277,7.277,0,0,1-1.742-.562,2.479,2.479,0,0,1-.953-.781,1.869,1.869,0,0,1-.309-1.078,2.193,2.193,0,0,1,.879-1.758,3.432,3.432,0,0,1,2.246-.719,3.532,3.532,0,0,1,2.332.742,2.357,2.357,0,0,1,.895,1.9H25.182a1.3,1.3,0,0,0-.5-1.023,1.888,1.888,0,0,0-1.27-.43,1.976,1.976,0,0,0-1.234.344,1.082,1.082,0,0,0-.445.9.877.877,0,0,0,.414.789,5.1,5.1,0,0,0,1.5.508,7.8,7.8,0,0,1,1.754.578,2.558,2.558,0,0,1,1,.809,1.988,1.988,0,0,1,.324,1.152,2.163,2.163,0,0,1-.906,1.816,3.8,3.8,0,0,1-2.352.684,4.257,4.257,0,0,1-1.8-.359,2.922,2.922,0,0,1-1.223-1,2.42,2.42,0,0,1-.441-1.395h1.445a1.5,1.5,0,0,0,.582,1.152,2.258,2.258,0,0,0,1.434.426,2.331,2.331,0,0,0,1.316-.332A1.02,1.02,0,0,0,25.267,14.758Zm6.876,2.4a3.693,3.693,0,0,1-2.8-1.129,4.19,4.19,0,0,1-1.078-3.02v-.266a5.073,5.073,0,0,1,.48-2.246,3.748,3.748,0,0,1,1.344-1.547,3.378,3.378,0,0,1,1.871-.559,3.166,3.166,0,0,1,2.563,1.086,4.7,4.7,0,0,1,.914,3.109v.6H29.714a3,3,0,0,0,.73,2.02,2.3,2.3,0,0,0,1.777.77,2.517,2.517,0,0,0,1.3-.312,3.259,3.259,0,0,0,.93-.828l.883.688A3.55,3.55,0,0,1,32.143,17.156Zm-.18-7.578a1.928,1.928,0,0,0-1.469.637A3.1,3.1,0,0,0,29.761,12h4.234v-.109a2.753,2.753,0,0,0-.594-1.707A1.815,1.815,0,0,0,31.964,9.578Zm6.556-1.031.047,1.063A3.08,3.08,0,0,1,41.1,8.391q2.68,0,2.7,3.023V17H42.355V11.406a1.946,1.946,0,0,0-.418-1.352,1.675,1.675,0,0,0-1.277-.437,2.086,2.086,0,0,0-1.234.375,2.546,2.546,0,0,0-.828.984V17H37.152V8.547Zm10.892,7.43a2.082,2.082,0,0,0,1.352-.469,1.649,1.649,0,0,0,.641-1.172H52.77a2.621,2.621,0,0,1-.5,1.383,3.293,3.293,0,0,1-1.23,1.047,3.55,3.55,0,0,1-1.629.391A3.482,3.482,0,0,1,46.665,16a4.59,4.59,0,0,1-1.02-3.152v-.242a5.089,5.089,0,0,1,.453-2.2,3.451,3.451,0,0,1,1.3-1.492,3.7,3.7,0,0,1,2-.531,3.39,3.39,0,0,1,2.363.852,3.043,3.043,0,0,1,1,2.211H51.4a1.992,1.992,0,0,0-.621-1.348A1.932,1.932,0,0,0,49.4,9.578a2.023,2.023,0,0,0-1.707.793,3.724,3.724,0,0,0-.605,2.293v.273a3.65,3.65,0,0,0,.6,2.25A2.033,2.033,0,0,0,49.411,15.977ZM56.006,17H54.56V8.547h1.445ZM54.443,6.3a.863.863,0,0,1,.215-.594.807.807,0,0,1,.637-.242.819.819,0,0,1,.641.242.854.854,0,0,1,.219.594.826.826,0,0,1-.219.586.834.834,0,0,1-.641.234.821.821,0,0,1-.637-.234A.834.834,0,0,1,54.443,6.3ZM63.577,17a3.036,3.036,0,0,1-.2-.891,3.225,3.225,0,0,1-2.406,1.047,2.984,2.984,0,0,1-2.051-.707,2.287,2.287,0,0,1-.8-1.793,2.39,2.39,0,0,1,1-2.051,4.733,4.733,0,0,1,2.824-.73H63.35v-.664A1.623,1.623,0,0,0,62.9,10a1.821,1.821,0,0,0-1.336-.449,2.107,2.107,0,0,0-1.3.391,1.151,1.151,0,0,0-.523.945H58.288a2,2,0,0,1,.449-1.223,3.066,3.066,0,0,1,1.219-.934,4.1,4.1,0,0,1,1.691-.344,3.342,3.342,0,0,1,2.289.73,2.635,2.635,0,0,1,.859,2.012v3.891a4.757,4.757,0,0,0,.3,1.852V17Zm-2.4-1.1a2.54,2.54,0,0,0,1.289-.352,2.127,2.127,0,0,0,.883-.914V12.9H62.218q-2.656,0-2.656,1.555a1.316,1.316,0,0,0,.453,1.063A1.742,1.742,0,0,0,61.178,15.9Zm9.572-3.2a4.952,4.952,0,0,1,.922-3.129,3.137,3.137,0,0,1,4.766-.168V5h1.445V17H76.555l-.07-.906a2.943,2.943,0,0,1-2.414,1.063,2.887,2.887,0,0,1-2.395-1.2,5.008,5.008,0,0,1-.926-3.141Zm1.445.164a3.749,3.749,0,0,0,.594,2.25,1.92,1.92,0,0,0,1.641.813A2.108,2.108,0,0,0,76.438,14.7V10.813a2.125,2.125,0,0,0-1.992-1.2,1.929,1.929,0,0,0-1.656.82A4.128,4.128,0,0,0,72.2,12.867Zm11.478,4.289a3.693,3.693,0,0,1-2.8-1.129,4.19,4.19,0,0,1-1.078-3.02v-.266a5.073,5.073,0,0,1,.48-2.246,3.748,3.748,0,0,1,1.344-1.547,3.378,3.378,0,0,1,1.871-.559,3.166,3.166,0,0,1,2.563,1.086,4.7,4.7,0,0,1,.914,3.109v.6H81.244a3,3,0,0,0,.73,2.02,2.3,2.3,0,0,0,1.777.77,2.517,2.517,0,0,0,1.3-.312,3.259,3.259,0,0,0,.93-.828l.883.688A3.55,3.55,0,0,1,83.673,17.156Zm-.18-7.578a1.928,1.928,0,0,0-1.469.637A3.1,3.1,0,0,0,81.291,12h4.234v-.109a2.753,2.753,0,0,0-.594-1.707A1.815,1.815,0,0,0,83.494,9.578Zm12.58,6.4a2.082,2.082,0,0,0,1.352-.469,1.649,1.649,0,0,0,.641-1.172h1.367a2.621,2.621,0,0,1-.5,1.383,3.293,3.293,0,0,1-1.23,1.047,3.55,3.55,0,0,1-1.629.391A3.482,3.482,0,0,1,93.328,16a4.59,4.59,0,0,1-1.02-3.152v-.242a5.089,5.089,0,0,1,.453-2.2,3.451,3.451,0,0,1,1.3-1.492,3.7,3.7,0,0,1,2-.531,3.39,3.39,0,0,1,2.363.852,3.043,3.043,0,0,1,1,2.211H98.066a1.992,1.992,0,0,0-.621-1.348,1.932,1.932,0,0,0-1.379-.527,2.023,2.023,0,0,0-1.707.793,3.724,3.724,0,0,0-.605,2.293v.273a3.65,3.65,0,0,0,.6,2.25A2.033,2.033,0,0,0,96.074,15.977Zm4.642-3.281a4.993,4.993,0,0,1,.488-2.234,3.643,3.643,0,0,1,1.359-1.531,3.7,3.7,0,0,1,1.988-.539,3.565,3.565,0,0,1,2.793,1.2,4.6,4.6,0,0,1,1.066,3.18v.1a5.036,5.036,0,0,1-.473,2.215,3.589,3.589,0,0,1-1.352,1.527,3.743,3.743,0,0,1-2.02.547,3.556,3.556,0,0,1-2.785-1.2,4.575,4.575,0,0,1-1.066-3.164Zm1.453.172a3.616,3.616,0,0,0,.652,2.258,2.211,2.211,0,0,0,3.5-.012,3.955,3.955,0,0,0,.648-2.418,3.61,3.61,0,0,0-.66-2.254,2.1,2.1,0,0,0-1.754-.863,2.075,2.075,0,0,0-1.727.852A3.925,3.925,0,0,0,102.168,12.867Zm9.462-4.32.047,1.063a3.08,3.08,0,0,1,2.531-1.219q2.68,0,2.7,3.023V17h-1.445V11.406a1.946,1.946,0,0,0-.418-1.352,1.675,1.675,0,0,0-1.277-.437,2.086,2.086,0,0,0-1.234.375,2.546,2.546,0,0,0-.828.984V17h-1.445V8.547ZM121.092,6.5V8.547h1.578V9.664h-1.578v5.249a1.173,1.173,0,0,0,.211.763.888.888,0,0,0,.719.254,3.5,3.5,0,0,0,.688-.094V17a4.215,4.215,0,0,1-1.109.155,1.8,1.8,0,0,1-1.461-.586,2.517,2.517,0,0,1-.492-1.664V9.664h-1.539V8.547h1.539V6.5ZM129.617,17a3.036,3.036,0,0,1-.2-.891,3.225,3.225,0,0,1-2.406,1.047,2.984,2.984,0,0,1-2.051-.707,2.288,2.288,0,0,1-.8-1.793,2.39,2.39,0,0,1,1-2.051,4.733,4.733,0,0,1,2.824-.73h1.406v-.664A1.623,1.623,0,0,0,128.937,10a1.821,1.821,0,0,0-1.336-.449,2.108,2.108,0,0,0-1.3.391,1.151,1.151,0,0,0-.523.945h-1.453a2,2,0,0,1,.449-1.223A3.066,3.066,0,0,1,126,8.734a4.1,4.1,0,0,1,1.691-.344,3.342,3.342,0,0,1,2.289.73,2.635,2.635,0,0,1,.859,2.012v3.891a4.757,4.757,0,0,0,.3,1.852V17Zm-2.4-1.1a2.54,2.54,0,0,0,1.289-.352,2.127,2.127,0,0,0,.883-.914V12.9h-1.133q-2.656,0-2.656,1.555a1.316,1.316,0,0,0,.453,1.063A1.742,1.742,0,0,0,127.218,15.9ZM134.5,8.547l.039.938a3.122,3.122,0,0,1,2.508-1.094,2.417,2.417,0,0,1,2.414,1.359,3.2,3.2,0,0,1,1.1-.984,3.242,3.242,0,0,1,1.6-.375q2.781,0,2.828,2.945V17h-1.445V11.422a1.941,1.941,0,0,0-.414-1.355,1.823,1.823,0,0,0-1.391-.449,1.917,1.917,0,0,0-1.336.48,1.949,1.949,0,0,0-.617,1.293V17h-1.453V11.461a1.613,1.613,0,0,0-1.8-1.844,1.934,1.934,0,0,0-1.945,1.211V17h-1.445V8.547ZM148.775,17h-1.445V8.547h1.445ZM147.212,6.3a.863.863,0,0,1,.215-.594.807.807,0,0,1,.637-.242.819.819,0,0,1,.641.242.854.854,0,0,1,.219.594.826.826,0,0,1-.219.586.834.834,0,0,1-.641.234.821.821,0,0,1-.637-.234A.834.834,0,0,1,147.212,6.3Zm5.282,2.242.047,1.063a3.08,3.08,0,0,1,2.531-1.219q2.68,0,2.7,3.023V17H156.33V11.406a1.946,1.946,0,0,0-.418-1.352,1.675,1.675,0,0,0-1.277-.437,2.086,2.086,0,0,0-1.234.375,2.546,2.546,0,0,0-.828.984V17h-1.445V8.547ZM165.214,17a3.036,3.036,0,0,1-.2-.891,3.225,3.225,0,0,1-2.406,1.047,2.984,2.984,0,0,1-2.051-.707,2.287,2.287,0,0,1-.8-1.793,2.39,2.39,0,0,1,1-2.051,4.733,4.733,0,0,1,2.824-.73h1.406v-.664A1.623,1.623,0,0,0,164.534,10a1.821,1.821,0,0,0-1.336-.449,2.107,2.107,0,0,0-1.3.391,1.151,1.151,0,0,0-.523.945h-1.453a2,2,0,0,1,.449-1.223,3.066,3.066,0,0,1,1.219-.934,4.1,4.1,0,0,1,1.691-.344,3.342,3.342,0,0,1,2.289.73,2.635,2.635,0,0,1,.859,2.012v3.891a4.757,4.757,0,0,0,.3,1.852V17Zm-2.4-1.1a2.54,2.54,0,0,0,1.289-.352,2.127,2.127,0,0,0,.883-.914V12.9h-1.133q-2.656,0-2.656,1.555a1.316,1.316,0,0,0,.453,1.063A1.742,1.742,0,0,0,162.816,15.9Zm7.29-7.352.047,1.063a3.08,3.08,0,0,1,2.531-1.219q2.68,0,2.7,3.023V17h-1.445V11.406a1.946,1.946,0,0,0-.418-1.352,1.675,1.675,0,0,0-1.277-.437,2.086,2.086,0,0,0-1.234.375,2.546,2.546,0,0,0-.828.984V17h-1.445V8.547ZM179.567,6.5V8.547h1.578V9.664h-1.578v5.249a1.173,1.173,0,0,0,.211.763.888.888,0,0,0,.719.254,3.5,3.5,0,0,0,.688-.094V17a4.215,4.215,0,0,1-1.109.155,1.8,1.8,0,0,1-1.461-.586,2.517,2.517,0,0,1-.492-1.664V9.664h-1.539V8.547h1.539V6.5Zm6.813,10.656a3.693,3.693,0,0,1-2.8-1.129,4.19,4.19,0,0,1-1.078-3.02v-.266a5.073,5.073,0,0,1,.48-2.246,3.748,3.748,0,0,1,1.344-1.547,3.378,3.378,0,0,1,1.871-.559,3.166,3.166,0,0,1,2.563,1.086,4.7,4.7,0,0,1,.914,3.109v.6h-5.727a3,3,0,0,0,.73,2.02,2.3,2.3,0,0,0,1.777.77,2.517,2.517,0,0,0,1.3-.312,3.258,3.258,0,0,0,.93-.828l.883.688A3.55,3.55,0,0,1,186.381,17.156Zm-.18-7.578a1.928,1.928,0,0,0-1.469.637A3.1,3.1,0,0,0,184,12h4.234v-.109a2.753,2.753,0,0,0-.594-1.707A1.815,1.815,0,0,0,186.2,9.578Zm10.11,5.18a1.064,1.064,0,0,0-.441-.91,4.249,4.249,0,0,0-1.539-.559,7.277,7.277,0,0,1-1.742-.562,2.479,2.479,0,0,1-.953-.781,1.869,1.869,0,0,1-.309-1.078,2.193,2.193,0,0,1,.879-1.758,3.432,3.432,0,0,1,2.246-.719,3.532,3.532,0,0,1,2.332.742,2.357,2.357,0,0,1,.895,1.9h-1.453a1.3,1.3,0,0,0-.5-1.023,1.888,1.888,0,0,0-1.27-.43,1.976,1.976,0,0,0-1.234.344,1.082,1.082,0,0,0-.445.9.877.877,0,0,0,.414.789,5.1,5.1,0,0,0,1.5.508,7.8,7.8,0,0,1,1.754.578,2.558,2.558,0,0,1,1,.809,1.988,1.988,0,0,1,.324,1.152,2.163,2.163,0,0,1-.906,1.816,3.8,3.8,0,0,1-2.352.684,4.257,4.257,0,0,1-1.8-.359,2.922,2.922,0,0,1-1.223-1,2.42,2.42,0,0,1-.441-1.395h1.445a1.5,1.5,0,0,0,.582,1.152,2.258,2.258,0,0,0,1.434.426,2.331,2.331,0,0,0,1.316-.332A1.02,1.02,0,0,0,196.312,14.758Zm3.4,1.484a.905.905,0,0,1,.223-.625.848.848,0,0,1,.668-.25.874.874,0,0,1,.676.25.887.887,0,0,1,.23.625.839.839,0,0,1-.23.6.89.89,0,0,1-.676.242.8.8,0,0,1-.891-.844Z" transform="translate(852.427 1228)" fill="#12263f"/><path d="M9.688,13.391a4.185,4.185,0,0,1-1.332,2.785,4.365,4.365,0,0,1-2.98.98,4.008,4.008,0,0,1-3.23-1.445A5.815,5.815,0,0,1,.93,11.844V10.75A6.481,6.481,0,0,1,1.5,7.961,4.231,4.231,0,0,1,3.1,6.113a4.47,4.47,0,0,1,2.406-.645A4.11,4.11,0,0,1,8.414,6.48a4.235,4.235,0,0,1,1.273,2.8H8.18a3.268,3.268,0,0,0-.848-1.975A2.565,2.565,0,0,0,5.508,6.7,2.684,2.684,0,0,0,3.254,7.759a4.882,4.882,0,0,0-.816,3.026v1.1a5.018,5.018,0,0,0,.773,2.948A2.5,2.5,0,0,0,5.375,15.93a2.887,2.887,0,0,0,1.918-.566,3.143,3.143,0,0,0,.887-1.973Zm1.477-.7a4.993,4.993,0,0,1,.488-2.234A3.643,3.643,0,0,1,13.013,8.93,3.7,3.7,0,0,1,15,8.391a3.565,3.565,0,0,1,2.793,1.2,4.6,4.6,0,0,1,1.066,3.18v.1a5.036,5.036,0,0,1-.473,2.215,3.589,3.589,0,0,1-1.352,1.527,3.743,3.743,0,0,1-2.02.547,3.556,3.556,0,0,1-2.785-1.2A4.575,4.575,0,0,1,11.165,12.8Zm1.453.172a3.616,3.616,0,0,0,.652,2.258,2.211,2.211,0,0,0,3.5-.012,3.955,3.955,0,0,0,.648-2.418,3.61,3.61,0,0,0-.66-2.254A2.1,2.1,0,0,0,15,9.578a2.075,2.075,0,0,0-1.727.852A3.925,3.925,0,0,0,12.618,12.867Zm9.462-4.32.047,1.063a3.08,3.08,0,0,1,2.531-1.219q2.68,0,2.7,3.023V17H25.916V11.406a1.946,1.946,0,0,0-.418-1.352,1.675,1.675,0,0,0-1.277-.437,2.086,2.086,0,0,0-1.234.375,2.546,2.546,0,0,0-.828.984V17H20.713V8.547ZM30.292,17V9.664H28.956V8.547h1.336V7.68a2.878,2.878,0,0,1,.727-2.1,2.745,2.745,0,0,1,2.055-.742,3.816,3.816,0,0,1,.992.132l-.078,1.165a4.151,4.151,0,0,0-.781-.07,1.41,1.41,0,0,0-1.086.411,1.669,1.669,0,0,0-.383,1.18v.893h1.8V9.664h-1.8V17Zm4.5-4.3a4.993,4.993,0,0,1,.488-2.234A3.643,3.643,0,0,1,36.64,8.93a3.7,3.7,0,0,1,1.988-.539,3.565,3.565,0,0,1,2.793,1.2,4.6,4.6,0,0,1,1.066,3.18v.1a5.036,5.036,0,0,1-.473,2.215,3.589,3.589,0,0,1-1.352,1.527,3.743,3.743,0,0,1-2.02.547,3.556,3.556,0,0,1-2.785-1.2A4.575,4.575,0,0,1,34.793,12.8Zm1.453.172a3.616,3.616,0,0,0,.652,2.258,2.211,2.211,0,0,0,3.5-.012,3.955,3.955,0,0,0,.648-2.418,3.61,3.61,0,0,0-.66-2.254,2.1,2.1,0,0,0-1.754-.863,2.075,2.075,0,0,0-1.727.852A3.925,3.925,0,0,0,36.246,12.867ZM48.427,9.844a4.331,4.331,0,0,0-.711-.055A1.9,1.9,0,0,0,45.786,11v6H44.341V8.547h1.406l.023.977a2.251,2.251,0,0,1,2.016-1.133,1.477,1.477,0,0,1,.641.109Zm2.728-1.3.039.938A3.122,3.122,0,0,1,53.7,8.391,2.417,2.417,0,0,1,56.115,9.75a3.2,3.2,0,0,1,1.1-.984,3.242,3.242,0,0,1,1.6-.375q2.781,0,2.828,2.945V17H60.193V11.422a1.941,1.941,0,0,0-.414-1.355,1.823,1.823,0,0,0-1.391-.449,1.917,1.917,0,0,0-1.336.48,1.949,1.949,0,0,0-.617,1.293V17H54.982V11.461a1.613,1.613,0,0,0-1.8-1.844,1.934,1.934,0,0,0-1.945,1.211V17H49.787V8.547ZM65.428,17H63.983V8.547h1.445ZM63.866,6.3a.863.863,0,0,1,.215-.594.807.807,0,0,1,.637-.242.819.819,0,0,1,.641.242.854.854,0,0,1,.219.594.826.826,0,0,1-.219.586.834.834,0,0,1-.641.234.821.821,0,0,1-.637-.234A.834.834,0,0,1,63.866,6.3Zm3.563,6.4a4.952,4.952,0,0,1,.922-3.129,3.137,3.137,0,0,1,4.766-.168V5h1.445V17H73.234l-.07-.906a2.943,2.943,0,0,1-2.414,1.063,2.887,2.887,0,0,1-2.395-1.2,5.008,5.008,0,0,1-.926-3.141Zm1.445.164a3.749,3.749,0,0,0,.594,2.25,1.92,1.92,0,0,0,1.641.813A2.108,2.108,0,0,0,73.117,14.7V10.813a2.125,2.125,0,0,0-1.992-1.2,1.929,1.929,0,0,0-1.656.82A4.128,4.128,0,0,0,68.875,12.867ZM82.063,17a3.036,3.036,0,0,1-.2-.891,3.225,3.225,0,0,1-2.406,1.047,2.984,2.984,0,0,1-2.051-.707,2.288,2.288,0,0,1-.8-1.793,2.39,2.39,0,0,1,1-2.051,4.733,4.733,0,0,1,2.824-.73h1.406v-.664A1.623,1.623,0,0,0,81.383,10a1.821,1.821,0,0,0-1.336-.449,2.108,2.108,0,0,0-1.3.391,1.151,1.151,0,0,0-.523.945H76.774a2,2,0,0,1,.449-1.223,3.066,3.066,0,0,1,1.219-.934,4.1,4.1,0,0,1,1.691-.344,3.342,3.342,0,0,1,2.289.73,2.635,2.635,0,0,1,.859,2.012v3.891a4.757,4.757,0,0,0,.3,1.852V17Zm-2.4-1.1a2.54,2.54,0,0,0,1.289-.352,2.127,2.127,0,0,0,.883-.914V12.9H80.7q-2.656,0-2.656,1.555a1.316,1.316,0,0,0,.453,1.063A1.742,1.742,0,0,0,79.665,15.9Zm5.571-3.2a4.952,4.952,0,0,1,.922-3.129,3.137,3.137,0,0,1,4.766-.168V5h1.445V17H91.041l-.07-.906a2.943,2.943,0,0,1-2.414,1.063,2.887,2.887,0,0,1-2.395-1.2,5.008,5.008,0,0,1-.926-3.141Zm1.445.164a3.749,3.749,0,0,0,.594,2.25,1.92,1.92,0,0,0,1.641.813A2.108,2.108,0,0,0,90.923,14.7V10.813a2.125,2.125,0,0,0-1.992-1.2,1.929,1.929,0,0,0-1.656.82A4.128,4.128,0,0,0,86.681,12.867Zm15.361,3.109a2.082,2.082,0,0,0,1.352-.469,1.649,1.649,0,0,0,.641-1.172H105.4a2.621,2.621,0,0,1-.5,1.383,3.293,3.293,0,0,1-1.23,1.047,3.55,3.55,0,0,1-1.629.391A3.482,3.482,0,0,1,99.3,16a4.59,4.59,0,0,1-1.02-3.152v-.242a5.089,5.089,0,0,1,.453-2.2,3.451,3.451,0,0,1,1.3-1.492,3.7,3.7,0,0,1,2-.531,3.39,3.39,0,0,1,2.363.852,3.043,3.043,0,0,1,1,2.211h-1.367a1.992,1.992,0,0,0-.621-1.348,1.932,1.932,0,0,0-1.379-.527,2.023,2.023,0,0,0-1.707.793,3.724,3.724,0,0,0-.605,2.293v.273a3.65,3.65,0,0,0,.6,2.25A2.033,2.033,0,0,0,102.043,15.977Zm4.642-3.281a4.993,4.993,0,0,1,.488-2.234,3.643,3.643,0,0,1,1.359-1.531,3.7,3.7,0,0,1,1.988-.539,3.565,3.565,0,0,1,2.793,1.2,4.6,4.6,0,0,1,1.066,3.18v.1a5.036,5.036,0,0,1-.473,2.215,3.589,3.589,0,0,1-1.352,1.527,3.743,3.743,0,0,1-2.02.547,3.556,3.556,0,0,1-2.785-1.2,4.575,4.575,0,0,1-1.066-3.164Zm1.453.172a3.616,3.616,0,0,0,.652,2.258,2.211,2.211,0,0,0,3.5-.012,3.955,3.955,0,0,0,.648-2.418,3.61,3.61,0,0,0-.66-2.254,2.1,2.1,0,0,0-1.754-.863,2.075,2.075,0,0,0-1.727.852A3.925,3.925,0,0,0,108.137,12.867Zm9.462-4.32.047,1.063a3.08,3.08,0,0,1,2.531-1.219q2.68,0,2.7,3.023V17h-1.445V11.406a1.946,1.946,0,0,0-.418-1.352,1.675,1.675,0,0,0-1.277-.437,2.086,2.086,0,0,0-1.234.375,2.546,2.546,0,0,0-.828.984V17h-1.445V8.547ZM130.671,17h-1.445V5h1.445Zm7.571,0a3.036,3.036,0,0,1-.2-.891,3.225,3.225,0,0,1-2.406,1.047,2.984,2.984,0,0,1-2.051-.707,2.287,2.287,0,0,1-.8-1.793,2.39,2.39,0,0,1,1-2.051,4.733,4.733,0,0,1,2.824-.73h1.406v-.664A1.623,1.623,0,0,0,137.563,10a1.821,1.821,0,0,0-1.336-.449,2.107,2.107,0,0,0-1.3.391,1.151,1.151,0,0,0-.523.945h-1.453a2,2,0,0,1,.449-1.223,3.066,3.066,0,0,1,1.219-.934,4.1,4.1,0,0,1,1.691-.344,3.342,3.342,0,0,1,2.289.73,2.635,2.635,0,0,1,.859,2.012v3.891a4.757,4.757,0,0,0,.3,1.852V17Zm-2.4-1.1a2.54,2.54,0,0,0,1.289-.352,2.127,2.127,0,0,0,.883-.914V12.9h-1.133q-2.656,0-2.656,1.555a1.316,1.316,0,0,0,.453,1.063A1.742,1.742,0,0,0,135.844,15.9Zm11.291-7.352.047,1.063a3.08,3.08,0,0,1,2.531-1.219q2.68,0,2.7,3.023V17h-1.445V11.406a1.946,1.946,0,0,0-.418-1.352,1.675,1.675,0,0,0-1.277-.437,2.086,2.086,0,0,0-1.234.375,2.546,2.546,0,0,0-.828.984V17h-1.445V8.547Zm7.118,4.148a4.993,4.993,0,0,1,.488-2.234A3.642,3.642,0,0,1,156.1,8.93a3.7,3.7,0,0,1,1.988-.539,3.565,3.565,0,0,1,2.793,1.2,4.6,4.6,0,0,1,1.066,3.18v.1a5.036,5.036,0,0,1-.473,2.215,3.589,3.589,0,0,1-1.352,1.527,3.743,3.743,0,0,1-2.02.547,3.556,3.556,0,0,1-2.785-1.2,4.575,4.575,0,0,1-1.066-3.164Zm1.453.172a3.616,3.616,0,0,0,.652,2.258,2.211,2.211,0,0,0,3.5-.012A3.954,3.954,0,0,0,160.5,12.7a3.61,3.61,0,0,0-.66-2.254,2.1,2.1,0,0,0-1.754-.863,2.075,2.075,0,0,0-1.727.852A3.925,3.925,0,0,0,155.706,12.867Zm12.181-3.023a4.331,4.331,0,0,0-.711-.055A1.9,1.9,0,0,0,165.246,11v6H163.8V8.547h1.406l.023.977a2.251,2.251,0,0,1,2.016-1.133,1.477,1.477,0,0,1,.641.109Zm2.727-1.3.039.938a3.122,3.122,0,0,1,2.508-1.094,2.417,2.417,0,0,1,2.414,1.359,3.2,3.2,0,0,1,1.1-.984,3.242,3.242,0,0,1,1.6-.375q2.781,0,2.828,2.945V17h-1.445V11.422a1.941,1.941,0,0,0-.414-1.355,1.823,1.823,0,0,0-1.391-.449,1.917,1.917,0,0,0-1.336.48,1.949,1.949,0,0,0-.617,1.293V17h-1.453V11.461a1.613,1.613,0,0,0-1.8-1.844,1.934,1.934,0,0,0-1.945,1.211V17h-1.445V8.547ZM188.537,17a3.036,3.036,0,0,1-.2-.891,3.225,3.225,0,0,1-2.406,1.047,2.984,2.984,0,0,1-2.051-.707,2.287,2.287,0,0,1-.8-1.793,2.39,2.39,0,0,1,1-2.051,4.733,4.733,0,0,1,2.824-.73h1.406v-.664A1.623,1.623,0,0,0,187.857,10a1.821,1.821,0,0,0-1.336-.449,2.107,2.107,0,0,0-1.3.391,1.151,1.151,0,0,0-.523.945h-1.453a2,2,0,0,1,.449-1.223,3.066,3.066,0,0,1,1.219-.934,4.1,4.1,0,0,1,1.691-.344,3.342,3.342,0,0,1,2.289.73,2.635,2.635,0,0,1,.859,2.012v3.891a4.757,4.757,0,0,0,.3,1.852V17Zm-2.4-1.1a2.54,2.54,0,0,0,1.289-.352,2.127,2.127,0,0,0,.883-.914V12.9h-1.133q-2.656,0-2.656,1.555a1.316,1.316,0,0,0,.453,1.063A1.742,1.742,0,0,0,186.139,15.9Zm7.884-9.4V8.547H195.6V9.664h-1.578v5.249a1.173,1.173,0,0,0,.211.763.888.888,0,0,0,.719.254,3.5,3.5,0,0,0,.688-.094V17a4.215,4.215,0,0,1-1.109.155,1.8,1.8,0,0,1-1.461-.586,2.517,2.517,0,0,1-.492-1.664V9.664h-1.539V8.547h1.539V6.5ZM198.9,17h-1.445V8.547H198.9ZM197.336,6.3a.863.863,0,0,1,.215-.594.807.807,0,0,1,.637-.242.819.819,0,0,1,.641.242.854.854,0,0,1,.219.594.826.826,0,0,1-.219.586.834.834,0,0,1-.641.234.821.821,0,0,1-.637-.234A.834.834,0,0,1,197.336,6.3Zm6.7,8.734,2.094-6.492h1.477L204.579,17h-1.1l-3.062-8.453h1.477ZM210.611,17h-1.445V8.547h1.445ZM209.049,6.3a.863.863,0,0,1,.215-.594.807.807,0,0,1,.637-.242.819.819,0,0,1,.641.242.854.854,0,0,1,.219.594.826.826,0,0,1-.219.586.834.834,0,0,1-.641.234.821.821,0,0,1-.637-.234A.834.834,0,0,1,209.049,6.3Zm3.563,6.4a4.952,4.952,0,0,1,.922-3.129,3.137,3.137,0,0,1,4.766-.168V5h1.445V17h-1.328l-.07-.906a2.943,2.943,0,0,1-2.414,1.063,2.887,2.887,0,0,1-2.395-1.2,5.008,5.008,0,0,1-.926-3.141Zm1.445.164a3.749,3.749,0,0,0,.594,2.25,1.919,1.919,0,0,0,1.641.813A2.108,2.108,0,0,0,218.3,14.7V10.813a2.125,2.125,0,0,0-1.992-1.2,1.929,1.929,0,0,0-1.656.82A4.128,4.128,0,0,0,214.057,12.867ZM227.246,17a3.036,3.036,0,0,1-.2-.891,3.225,3.225,0,0,1-2.406,1.047,2.984,2.984,0,0,1-2.051-.707,2.287,2.287,0,0,1-.8-1.793,2.39,2.39,0,0,1,1-2.051,4.733,4.733,0,0,1,2.824-.73h1.406v-.664A1.623,1.623,0,0,0,226.566,10a1.821,1.821,0,0,0-1.336-.449,2.107,2.107,0,0,0-1.3.391,1.151,1.151,0,0,0-.523.945h-1.453a2,2,0,0,1,.449-1.223,3.066,3.066,0,0,1,1.219-.934,4.1,4.1,0,0,1,1.691-.344,3.342,3.342,0,0,1,2.289.73,2.635,2.635,0,0,1,.859,2.012v3.891a4.757,4.757,0,0,0,.3,1.852V17Zm-2.4-1.1a2.54,2.54,0,0,0,1.289-.352,2.127,2.127,0,0,0,.883-.914V12.9h-1.133q-2.656,0-2.656,1.555a1.316,1.316,0,0,0,.453,1.063A1.742,1.742,0,0,0,224.847,15.9Zm5.571-3.2a4.952,4.952,0,0,1,.922-3.129,3.137,3.137,0,0,1,4.766-.168V5h1.445V17h-1.328l-.07-.906a2.943,2.943,0,0,1-2.414,1.063,2.887,2.887,0,0,1-2.395-1.2,5.008,5.008,0,0,1-.926-3.141Zm1.445.164a3.749,3.749,0,0,0,.594,2.25,1.919,1.919,0,0,0,1.641.813,2.108,2.108,0,0,0,2.008-1.234V10.813a2.125,2.125,0,0,0-1.992-1.2,1.929,1.929,0,0,0-1.656.82A4.128,4.128,0,0,0,231.864,12.867Zm14.76,2.172,2.094-6.492h1.477L247.163,17h-1.1L243,8.547h1.477ZM253.195,17H251.75V8.547h1.445ZM251.632,6.3a.863.863,0,0,1,.215-.594.807.807,0,0,1,.637-.242.819.819,0,0,1,.641.242.854.854,0,0,1,.219.594.826.826,0,0,1-.219.586.834.834,0,0,1-.641.234.821.821,0,0,1-.637-.234A.834.834,0,0,1,251.632,6.3Zm3.571,6.4a4.968,4.968,0,0,1,.914-3.145,3.151,3.151,0,0,1,4.836-.074l.07-.937h1.32V16.8a3.439,3.439,0,0,1-.973,2.586,3.589,3.589,0,0,1-2.613.945,4.348,4.348,0,0,1-1.789-.391,3.08,3.08,0,0,1-1.336-1.07l.75-.867a2.826,2.826,0,0,0,2.273,1.148,2.214,2.214,0,0,0,1.645-.594,2.269,2.269,0,0,0,.59-1.672v-.727a2.971,2.971,0,0,1-2.367,1,2.887,2.887,0,0,1-2.4-1.2A5.224,5.224,0,0,1,255.2,12.7Zm1.453.164a3.79,3.79,0,0,0,.586,2.246,1.9,1.9,0,0,0,1.641.816,2.117,2.117,0,0,0,2.008-1.242V10.828A2.142,2.142,0,0,0,258.9,9.617a1.921,1.921,0,0,0-1.648.82A4.128,4.128,0,0,0,256.657,12.867Zm11.415,4.289a3.693,3.693,0,0,1-2.8-1.129,4.19,4.19,0,0,1-1.078-3.02v-.266a5.073,5.073,0,0,1,.48-2.246,3.748,3.748,0,0,1,1.344-1.547,3.379,3.379,0,0,1,1.871-.559,3.166,3.166,0,0,1,2.563,1.086,4.7,4.7,0,0,1,.914,3.109v.6h-5.727a3,3,0,0,0,.73,2.02,2.3,2.3,0,0,0,1.777.77,2.517,2.517,0,0,0,1.3-.312,3.259,3.259,0,0,0,.93-.828l.883.688A3.55,3.55,0,0,1,268.072,17.156Zm-.18-7.578a1.928,1.928,0,0,0-1.469.637A3.1,3.1,0,0,0,265.689,12h4.234v-.109a2.753,2.753,0,0,0-.594-1.707A1.815,1.815,0,0,0,267.892,9.578Zm6.556-1.031.047,1.063a3.08,3.08,0,0,1,2.531-1.219q2.68,0,2.7,3.023V17h-1.445V11.406a1.946,1.946,0,0,0-.418-1.352,1.675,1.675,0,0,0-1.277-.437,2.086,2.086,0,0,0-1.234.375,2.546,2.546,0,0,0-.828.984V17h-1.445V8.547ZM283.91,6.5V8.547h1.578V9.664H283.91v5.249a1.173,1.173,0,0,0,.211.763.888.888,0,0,0,.719.254,3.5,3.5,0,0,0,.688-.094V17a4.215,4.215,0,0,1-1.109.155,1.8,1.8,0,0,1-1.461-.586,2.517,2.517,0,0,1-.492-1.664V9.664h-1.539V8.547h1.539V6.5Zm6.813,10.656a3.693,3.693,0,0,1-2.8-1.129,4.19,4.19,0,0,1-1.078-3.02v-.266a5.073,5.073,0,0,1,.48-2.246,3.748,3.748,0,0,1,1.344-1.547,3.379,3.379,0,0,1,1.871-.559,3.166,3.166,0,0,1,2.563,1.086,4.7,4.7,0,0,1,.914,3.109v.6h-5.727a3,3,0,0,0,.73,2.02,2.3,2.3,0,0,0,1.777.77,2.517,2.517,0,0,0,1.3-.312,3.259,3.259,0,0,0,.93-.828l.883.688A3.55,3.55,0,0,1,290.723,17.156Zm-.18-7.578a1.928,1.928,0,0,0-1.469.637A3.1,3.1,0,0,0,288.34,12h4.234v-.109a2.753,2.753,0,0,0-.594-1.707A1.815,1.815,0,0,0,290.543,9.578Zm5.22,6.664a.905.905,0,0,1,.223-.625.848.848,0,0,1,.668-.25.874.874,0,0,1,.676.25.887.887,0,0,1,.23.625.839.839,0,0,1-.23.6.89.89,0,0,1-.676.242.8.8,0,0,1-.891-.844Z" transform="translate(832.427 1305)" fill="#12263f"/><path d="M4.672,11.93a7.053,7.053,0,0,1-2.809-1.363,2.6,2.6,0,0,1-.879-2A2.751,2.751,0,0,1,2.059,6.348a4.269,4.269,0,0,1,2.793-.879,4.66,4.66,0,0,1,2.09.453,3.436,3.436,0,0,1,1.422,1.25,3.2,3.2,0,0,1,.5,1.742H7.359A2.08,2.08,0,0,0,6.7,7.287,2.669,2.669,0,0,0,4.852,6.7a2.732,2.732,0,0,0-1.73.489A1.632,1.632,0,0,0,2.5,8.542,1.468,1.468,0,0,0,3.09,9.72,5.785,5.785,0,0,0,5.1,10.6a9.316,9.316,0,0,1,2.219.88A3.367,3.367,0,0,1,8.5,12.6a2.861,2.861,0,0,1,.387,1.508,2.658,2.658,0,0,1-1.078,2.215,4.6,4.6,0,0,1-2.883.832,5.347,5.347,0,0,1-2.187-.449,3.681,3.681,0,0,1-1.566-1.23A3,3,0,0,1,.625,13.7H2.133a1.959,1.959,0,0,0,.762,1.629,3.207,3.207,0,0,0,2.035.6,2.948,2.948,0,0,0,1.82-.484,1.573,1.573,0,0,0,.633-1.32A1.545,1.545,0,0,0,6.8,12.832,6.755,6.755,0,0,0,4.672,11.93ZM15.845,17a3.036,3.036,0,0,1-.2-.891,3.225,3.225,0,0,1-2.406,1.047,2.984,2.984,0,0,1-2.051-.707,2.287,2.287,0,0,1-.8-1.793,2.39,2.39,0,0,1,1-2.051,4.733,4.733,0,0,1,2.824-.73h1.406v-.664A1.623,1.623,0,0,0,15.165,10a1.821,1.821,0,0,0-1.336-.449,2.107,2.107,0,0,0-1.3.391,1.151,1.151,0,0,0-.523.945H10.556A2,2,0,0,1,11,9.668a3.066,3.066,0,0,1,1.219-.934,4.1,4.1,0,0,1,1.691-.344,3.342,3.342,0,0,1,2.289.73,2.635,2.635,0,0,1,.859,2.012v3.891a4.757,4.757,0,0,0,.3,1.852V17Zm-2.4-1.1a2.54,2.54,0,0,0,1.289-.352,2.127,2.127,0,0,0,.883-.914V12.9H14.485q-2.656,0-2.656,1.555a1.316,1.316,0,0,0,.453,1.063A1.742,1.742,0,0,0,13.446,15.9ZM21.33,6.5V8.547h1.578V9.664H21.33v5.249a1.173,1.173,0,0,0,.211.763.888.888,0,0,0,.719.254,3.5,3.5,0,0,0,.688-.094V17a4.215,4.215,0,0,1-1.109.155,1.8,1.8,0,0,1-1.461-.586,2.517,2.517,0,0,1-.492-1.664V9.664H18.346V8.547h1.539V6.5ZM26.206,17H24.761V8.547h1.445ZM24.643,6.3a.863.863,0,0,1,.215-.594.807.807,0,0,1,.637-.242.819.819,0,0,1,.641.242.854.854,0,0,1,.219.594.826.826,0,0,1-.219.586.834.834,0,0,1-.641.234.821.821,0,0,1-.637-.234A.834.834,0,0,1,24.643,6.3Zm8.837,8.453a1.064,1.064,0,0,0-.441-.91,4.249,4.249,0,0,0-1.539-.559,7.277,7.277,0,0,1-1.742-.562,2.479,2.479,0,0,1-.953-.781,1.869,1.869,0,0,1-.309-1.078,2.193,2.193,0,0,1,.879-1.758,3.432,3.432,0,0,1,2.246-.719,3.532,3.532,0,0,1,2.332.742,2.357,2.357,0,0,1,.895,1.9H33.394a1.3,1.3,0,0,0-.5-1.023,1.888,1.888,0,0,0-1.27-.43,1.976,1.976,0,0,0-1.234.344,1.082,1.082,0,0,0-.445.9.877.877,0,0,0,.414.789,5.1,5.1,0,0,0,1.5.508,7.8,7.8,0,0,1,1.754.578,2.558,2.558,0,0,1,1,.809,1.988,1.988,0,0,1,.324,1.152,2.163,2.163,0,0,1-.906,1.816,3.8,3.8,0,0,1-2.352.684,4.257,4.257,0,0,1-1.8-.359,2.922,2.922,0,0,1-1.223-1,2.42,2.42,0,0,1-.441-1.395h1.445a1.5,1.5,0,0,0,.582,1.152,2.258,2.258,0,0,0,1.434.426,2.331,2.331,0,0,0,1.316-.332A1.02,1.02,0,0,0,33.48,14.758ZM37.559,17V9.664H36.223V8.547h1.336V7.68a2.878,2.878,0,0,1,.727-2.1,2.745,2.745,0,0,1,2.055-.742,3.816,3.816,0,0,1,.992.132l-.078,1.165a4.151,4.151,0,0,0-.781-.07,1.41,1.41,0,0,0-1.086.411A1.669,1.669,0,0,0,39,7.653v.893h1.8V9.664H39V17Zm10.1,0a3.036,3.036,0,0,1-.2-.891,3.225,3.225,0,0,1-2.406,1.047A2.984,2.984,0,0,1,43,16.449a2.287,2.287,0,0,1-.8-1.793,2.39,2.39,0,0,1,1-2.051,4.733,4.733,0,0,1,2.824-.73h1.406v-.664A1.623,1.623,0,0,0,46.982,10a1.821,1.821,0,0,0-1.336-.449,2.107,2.107,0,0,0-1.3.391,1.151,1.151,0,0,0-.523.945H42.373a2,2,0,0,1,.449-1.223,3.066,3.066,0,0,1,1.219-.934,4.1,4.1,0,0,1,1.691-.344,3.342,3.342,0,0,1,2.289.73,2.635,2.635,0,0,1,.859,2.012v3.891a4.757,4.757,0,0,0,.3,1.852V17Zm-2.4-1.1a2.54,2.54,0,0,0,1.289-.352,2.127,2.127,0,0,0,.883-.914V12.9H46.3q-2.656,0-2.656,1.555a1.316,1.316,0,0,0,.453,1.063A1.742,1.742,0,0,0,45.263,15.9Zm9.313.078a2.082,2.082,0,0,0,1.352-.469,1.649,1.649,0,0,0,.641-1.172h1.367a2.621,2.621,0,0,1-.5,1.383,3.293,3.293,0,0,1-1.23,1.047,3.55,3.55,0,0,1-1.629.391A3.482,3.482,0,0,1,51.831,16a4.59,4.59,0,0,1-1.02-3.152v-.242a5.089,5.089,0,0,1,.453-2.2,3.451,3.451,0,0,1,1.3-1.492,3.7,3.7,0,0,1,2-.531,3.39,3.39,0,0,1,2.363.852,3.043,3.043,0,0,1,1,2.211H56.569a1.992,1.992,0,0,0-.621-1.348,1.932,1.932,0,0,0-1.379-.527,2.023,2.023,0,0,0-1.707.793,3.724,3.724,0,0,0-.605,2.293v.273a3.65,3.65,0,0,0,.6,2.25A2.033,2.033,0,0,0,54.577,15.977Zm8.415,0a2.082,2.082,0,0,0,1.352-.469,1.649,1.649,0,0,0,.641-1.172h1.367a2.621,2.621,0,0,1-.5,1.383,3.293,3.293,0,0,1-1.23,1.047,3.55,3.55,0,0,1-1.629.391A3.482,3.482,0,0,1,60.246,16a4.59,4.59,0,0,1-1.02-3.152v-.242a5.089,5.089,0,0,1,.453-2.2,3.451,3.451,0,0,1,1.3-1.492,3.7,3.7,0,0,1,2-.531,3.39,3.39,0,0,1,2.363.852,3.043,3.043,0,0,1,1,2.211H64.984a1.992,1.992,0,0,0-.621-1.348,1.932,1.932,0,0,0-1.379-.527,2.023,2.023,0,0,0-1.707.793,3.724,3.724,0,0,0-.605,2.293v.273a3.65,3.65,0,0,0,.6,2.25A2.033,2.033,0,0,0,62.992,15.977ZM69.587,17H68.141V8.547h1.445ZM68.024,6.3a.863.863,0,0,1,.215-.594.807.807,0,0,1,.637-.242.819.819,0,0,1,.641.242.854.854,0,0,1,.219.594.826.826,0,0,1-.219.586.834.834,0,0,1-.641.234.821.821,0,0,1-.637-.234A.834.834,0,0,1,68.024,6.3ZM71.556,12.7a4.993,4.993,0,0,1,.488-2.234A3.643,3.643,0,0,1,73.4,8.93a3.7,3.7,0,0,1,1.988-.539,3.565,3.565,0,0,1,2.793,1.2,4.6,4.6,0,0,1,1.066,3.18v.1a5.036,5.036,0,0,1-.473,2.215,3.589,3.589,0,0,1-1.352,1.527,3.743,3.743,0,0,1-2.02.547,3.556,3.556,0,0,1-2.785-1.2A4.575,4.575,0,0,1,71.556,12.8Zm1.453.172a3.616,3.616,0,0,0,.652,2.258,2.211,2.211,0,0,0,3.5-.012,3.955,3.955,0,0,0,.648-2.418,3.61,3.61,0,0,0-.66-2.254,2.1,2.1,0,0,0-1.754-.863,2.075,2.075,0,0,0-1.727.852A3.925,3.925,0,0,0,73.009,12.867ZM76.048,5H77.8L75.7,7.3l-1.164,0Zm6.423,3.547.047,1.063a3.08,3.08,0,0,1,2.531-1.219q2.68,0,2.7,3.023V17H86.307V11.406a1.946,1.946,0,0,0-.418-1.352,1.675,1.675,0,0,0-1.277-.437,2.086,2.086,0,0,0-1.234.375,2.546,2.546,0,0,0-.828.984V17H81.1V8.547ZM93.622,12.7a4.952,4.952,0,0,1,.922-3.129,3.137,3.137,0,0,1,4.766-.168V5h1.445V17H99.426l-.07-.906a2.943,2.943,0,0,1-2.414,1.063,2.887,2.887,0,0,1-2.395-1.2,5.008,5.008,0,0,1-.926-3.141Zm1.445.164a3.749,3.749,0,0,0,.594,2.25,1.92,1.92,0,0,0,1.641.813A2.108,2.108,0,0,0,99.309,14.7V10.813a2.125,2.125,0,0,0-1.992-1.2,1.929,1.929,0,0,0-1.656.82A4.128,4.128,0,0,0,95.067,12.867Zm11.478,4.289a3.693,3.693,0,0,1-2.8-1.129,4.19,4.19,0,0,1-1.078-3.02v-.266a5.073,5.073,0,0,1,.48-2.246,3.748,3.748,0,0,1,1.344-1.547,3.378,3.378,0,0,1,1.871-.559,3.166,3.166,0,0,1,2.563,1.086,4.7,4.7,0,0,1,.914,3.109v.6h-5.727a3,3,0,0,0,.73,2.02,2.3,2.3,0,0,0,1.777.77,2.517,2.517,0,0,0,1.3-.312,3.259,3.259,0,0,0,.93-.828l.883.688A3.55,3.55,0,0,1,106.544,17.156Zm-.18-7.578a1.928,1.928,0,0,0-1.469.637A3.1,3.1,0,0,0,104.162,12H108.4v-.109a2.753,2.753,0,0,0-.594-1.707A1.815,1.815,0,0,0,106.365,9.578Zm12.7,7.578a3.693,3.693,0,0,1-2.8-1.129,4.19,4.19,0,0,1-1.078-3.02v-.266a5.073,5.073,0,0,1,.48-2.246,3.748,3.748,0,0,1,1.344-1.547,3.378,3.378,0,0,1,1.871-.559,3.166,3.166,0,0,1,2.563,1.086,4.7,4.7,0,0,1,.914,3.109v.6h-5.727a3,3,0,0,0,.73,2.02,2.3,2.3,0,0,0,1.777.77,2.517,2.517,0,0,0,1.3-.312,3.259,3.259,0,0,0,.93-.828l.883.688A3.55,3.55,0,0,1,119.062,17.156Zm-.18-7.578a1.928,1.928,0,0,0-1.469.637A3.1,3.1,0,0,0,116.679,12h4.234v-.109a2.753,2.753,0,0,0-.594-1.707A1.815,1.815,0,0,0,118.882,9.578Zm8.024,2.055,1.875-3.086h1.688l-2.766,4.18L130.555,17h-1.672l-1.953-3.164L124.977,17H123.3l2.852-4.273-2.766-4.18h1.672Zm12.274,1.234a5.062,5.062,0,0,1-.883,3.109,2.829,2.829,0,0,1-2.391,1.18,3.1,3.1,0,0,1-2.422-.977v4.07H132.04V8.547h1.32l.07.938a2.977,2.977,0,0,1,2.453-1.094,2.882,2.882,0,0,1,2.41,1.148,5.117,5.117,0,0,1,.887,3.2Zm-1.445-.164a3.735,3.735,0,0,0-.609-2.258,1.963,1.963,0,0,0-1.672-.828,2.125,2.125,0,0,0-1.969,1.164V14.82a2.129,2.129,0,0,0,1.984,1.156,1.954,1.954,0,0,0,1.652-.824A4.077,4.077,0,0,0,137.736,12.7Zm6.829,4.453a3.693,3.693,0,0,1-2.8-1.129,4.19,4.19,0,0,1-1.078-3.02v-.266a5.073,5.073,0,0,1,.48-2.246,3.748,3.748,0,0,1,1.344-1.547,3.378,3.378,0,0,1,1.871-.559,3.166,3.166,0,0,1,2.563,1.086,4.7,4.7,0,0,1,.914,3.109v.6h-5.727a3,3,0,0,0,.73,2.02,2.3,2.3,0,0,0,1.777.77,2.517,2.517,0,0,0,1.3-.312,3.258,3.258,0,0,0,.93-.828l.883.688A3.55,3.55,0,0,1,144.565,17.156Zm-.18-7.578a1.928,1.928,0,0,0-1.469.637A3.1,3.1,0,0,0,142.182,12h4.234v-.109a2.753,2.753,0,0,0-.594-1.707A1.815,1.815,0,0,0,144.385,9.578Zm8.579,6.4a2.082,2.082,0,0,0,1.352-.469,1.649,1.649,0,0,0,.641-1.172h1.367a2.621,2.621,0,0,1-.5,1.383,3.293,3.293,0,0,1-1.23,1.047,3.55,3.55,0,0,1-1.629.391A3.482,3.482,0,0,1,150.218,16a4.59,4.59,0,0,1-1.02-3.152v-.242a5.089,5.089,0,0,1,.453-2.2,3.451,3.451,0,0,1,1.3-1.492,3.7,3.7,0,0,1,2-.531,3.39,3.39,0,0,1,2.363.852,3.043,3.043,0,0,1,1,2.211h-1.367a1.992,1.992,0,0,0-.621-1.348,1.932,1.932,0,0,0-1.379-.527,2.023,2.023,0,0,0-1.707.793,3.724,3.724,0,0,0-.605,2.293v.273a3.65,3.65,0,0,0,.6,2.25A2.033,2.033,0,0,0,152.964,15.977ZM159.949,6.5V8.547h1.578V9.664h-1.578v5.249a1.173,1.173,0,0,0,.211.763.888.888,0,0,0,.719.254,3.5,3.5,0,0,0,.688-.094V17a4.215,4.215,0,0,1-1.109.155A1.8,1.8,0,0,1,159,16.57a2.517,2.517,0,0,1-.492-1.664V9.664h-1.539V8.547H158.5V6.5ZM168.474,17a3.036,3.036,0,0,1-.2-.891,3.225,3.225,0,0,1-2.406,1.047,2.984,2.984,0,0,1-2.051-.707,2.287,2.287,0,0,1-.8-1.793,2.39,2.39,0,0,1,1-2.051,4.733,4.733,0,0,1,2.824-.73h1.406v-.664A1.623,1.623,0,0,0,167.794,10a1.821,1.821,0,0,0-1.336-.449,2.107,2.107,0,0,0-1.3.391,1.151,1.151,0,0,0-.523.945h-1.453a2,2,0,0,1,.449-1.223,3.066,3.066,0,0,1,1.219-.934,4.1,4.1,0,0,1,1.691-.344,3.342,3.342,0,0,1,2.289.73,2.635,2.635,0,0,1,.859,2.012v3.891a4.757,4.757,0,0,0,.3,1.852V17Zm-2.4-1.1a2.54,2.54,0,0,0,1.289-.352,2.127,2.127,0,0,0,.883-.914V12.9h-1.133q-2.656,0-2.656,1.555a1.316,1.316,0,0,0,.453,1.063A1.742,1.742,0,0,0,166.075,15.9Zm7.884-9.4V8.547h1.578V9.664h-1.578v5.249a1.173,1.173,0,0,0,.211.763.888.888,0,0,0,.719.254,3.5,3.5,0,0,0,.688-.094V17a4.215,4.215,0,0,1-1.109.155,1.8,1.8,0,0,1-1.461-.586,2.517,2.517,0,0,1-.492-1.664V9.664h-1.539V8.547h1.539V6.5ZM178.835,17H177.39V8.547h1.445ZM177.272,6.3a.863.863,0,0,1,.215-.594.807.807,0,0,1,.637-.242.819.819,0,0,1,.641.242.854.854,0,0,1,.219.594.826.826,0,0,1-.219.586.834.834,0,0,1-.641.234.821.821,0,0,1-.637-.234A.834.834,0,0,1,177.272,6.3Zm6.7,8.734,2.094-6.492h1.477L184.516,17h-1.1l-3.062-8.453h1.477ZM194.079,17a3.036,3.036,0,0,1-.2-.891,3.225,3.225,0,0,1-2.406,1.047,2.984,2.984,0,0,1-2.051-.707,2.287,2.287,0,0,1-.8-1.793,2.39,2.39,0,0,1,1-2.051,4.733,4.733,0,0,1,2.824-.73h1.406v-.664A1.623,1.623,0,0,0,193.4,10a1.821,1.821,0,0,0-1.336-.449,2.107,2.107,0,0,0-1.3.391,1.151,1.151,0,0,0-.523.945H188.79a2,2,0,0,1,.449-1.223,3.066,3.066,0,0,1,1.219-.934,4.1,4.1,0,0,1,1.691-.344,3.342,3.342,0,0,1,2.289.73,2.635,2.635,0,0,1,.859,2.012v3.891a4.757,4.757,0,0,0,.3,1.852V17Zm-2.4-1.1a2.54,2.54,0,0,0,1.289-.352,2.127,2.127,0,0,0,.883-.914V12.9H192.72q-2.656,0-2.656,1.555a1.316,1.316,0,0,0,.453,1.063A1.742,1.742,0,0,0,191.681,15.9Zm10.845-1.141a1.064,1.064,0,0,0-.441-.91,4.249,4.249,0,0,0-1.539-.559,7.277,7.277,0,0,1-1.742-.562,2.479,2.479,0,0,1-.953-.781,1.869,1.869,0,0,1-.309-1.078,2.193,2.193,0,0,1,.879-1.758,3.432,3.432,0,0,1,2.246-.719A3.532,3.532,0,0,1,203,9.133a2.357,2.357,0,0,1,.895,1.9h-1.453a1.3,1.3,0,0,0-.5-1.023,1.888,1.888,0,0,0-1.27-.43,1.976,1.976,0,0,0-1.234.344,1.082,1.082,0,0,0-.445.9.877.877,0,0,0,.414.789,5.1,5.1,0,0,0,1.5.508,7.8,7.8,0,0,1,1.754.578,2.558,2.558,0,0,1,1,.809,1.988,1.988,0,0,1,.324,1.152,2.163,2.163,0,0,1-.906,1.816,3.8,3.8,0,0,1-2.352.684,4.257,4.257,0,0,1-1.8-.359,2.922,2.922,0,0,1-1.223-1,2.42,2.42,0,0,1-.441-1.395H198.7a1.5,1.5,0,0,0,.582,1.152,2.258,2.258,0,0,0,1.434.426,2.331,2.331,0,0,0,1.316-.332A1.02,1.02,0,0,0,202.525,14.758Zm7.017-2.055a4.952,4.952,0,0,1,.922-3.129,3.137,3.137,0,0,1,4.766-.168V5h1.445V17h-1.328l-.07-.906a2.943,2.943,0,0,1-2.414,1.063,2.887,2.887,0,0,1-2.395-1.2,5.008,5.008,0,0,1-.926-3.141Zm1.445.164a3.749,3.749,0,0,0,.594,2.25,1.919,1.919,0,0,0,1.641.813A2.108,2.108,0,0,0,215.23,14.7V10.813a2.125,2.125,0,0,0-1.992-1.2,1.929,1.929,0,0,0-1.656.82A4.128,4.128,0,0,0,210.988,12.867Zm11.477,4.289a3.693,3.693,0,0,1-2.8-1.129,4.19,4.19,0,0,1-1.078-3.02v-.266a5.073,5.073,0,0,1,.48-2.246,3.748,3.748,0,0,1,1.344-1.547,3.378,3.378,0,0,1,1.871-.559,3.166,3.166,0,0,1,2.563,1.086,4.7,4.7,0,0,1,.914,3.109v.6h-5.727a3,3,0,0,0,.73,2.02,2.3,2.3,0,0,0,1.777.77,2.517,2.517,0,0,0,1.3-.312,3.258,3.258,0,0,0,.93-.828l.883.688A3.55,3.55,0,0,1,222.466,17.156Zm-.18-7.578a1.928,1.928,0,0,0-1.469.637A3.1,3.1,0,0,0,220.083,12h4.234v-.109a2.753,2.753,0,0,0-.594-1.707A1.815,1.815,0,0,0,222.286,9.578ZM229.045,17H227.6V5h1.445Zm7.713-8.453.039.938A3.122,3.122,0,0,1,239.3,8.391a2.417,2.417,0,0,1,2.414,1.359,3.2,3.2,0,0,1,1.1-.984,3.242,3.242,0,0,1,1.6-.375q2.781,0,2.828,2.945V17H245.8V11.422a1.941,1.941,0,0,0-.414-1.355,1.823,1.823,0,0,0-1.391-.449,1.917,1.917,0,0,0-1.336.48,1.949,1.949,0,0,0-.617,1.293V17h-1.453V11.461a1.613,1.613,0,0,0-1.8-1.844,1.934,1.934,0,0,0-1.945,1.211V17H235.39V8.547Zm16.212,8.609a3.693,3.693,0,0,1-2.8-1.129,4.19,4.19,0,0,1-1.078-3.02v-.266a5.073,5.073,0,0,1,.48-2.246,3.748,3.748,0,0,1,1.344-1.547,3.378,3.378,0,0,1,1.871-.559,3.166,3.166,0,0,1,2.563,1.086,4.7,4.7,0,0,1,.914,3.109v.6H250.54a3,3,0,0,0,.73,2.02,2.3,2.3,0,0,0,1.777.77,2.517,2.517,0,0,0,1.3-.312,3.258,3.258,0,0,0,.93-.828l.883.688A3.55,3.55,0,0,1,252.969,17.156Zm-.18-7.578a1.928,1.928,0,0,0-1.469.637A3.1,3.1,0,0,0,250.586,12h4.234v-.109a2.753,2.753,0,0,0-.594-1.707A1.815,1.815,0,0,0,252.79,9.578Zm9.274.266a4.331,4.331,0,0,0-.711-.055A1.9,1.9,0,0,0,259.423,11v6h-1.445V8.547h1.406l.023.977a2.251,2.251,0,0,1,2.016-1.133,1.477,1.477,0,0,1,.641.109Zm4.61,6.133a2.082,2.082,0,0,0,1.352-.469,1.649,1.649,0,0,0,.641-1.172h1.367a2.621,2.621,0,0,1-.5,1.383,3.293,3.293,0,0,1-1.23,1.047,3.551,3.551,0,0,1-1.629.391A3.482,3.482,0,0,1,263.928,16a4.59,4.59,0,0,1-1.02-3.152v-.242a5.089,5.089,0,0,1,.453-2.2,3.451,3.451,0,0,1,1.3-1.492,3.7,3.7,0,0,1,2-.531,3.39,3.39,0,0,1,2.363.852,3.043,3.043,0,0,1,1,2.211h-1.367a1.992,1.992,0,0,0-.621-1.348,1.932,1.932,0,0,0-1.379-.527,2.023,2.023,0,0,0-1.707.793,3.724,3.724,0,0,0-.605,2.293v.273a3.65,3.65,0,0,0,.6,2.25A2.033,2.033,0,0,0,266.674,15.977ZM276.917,17a3.036,3.036,0,0,1-.2-.891,3.225,3.225,0,0,1-2.406,1.047,2.984,2.984,0,0,1-2.051-.707,2.288,2.288,0,0,1-.8-1.793,2.39,2.39,0,0,1,1-2.051,4.733,4.733,0,0,1,2.824-.73h1.406v-.664A1.623,1.623,0,0,0,276.238,10a1.821,1.821,0,0,0-1.336-.449,2.108,2.108,0,0,0-1.3.391,1.151,1.151,0,0,0-.523.945h-1.453a2,2,0,0,1,.449-1.223,3.066,3.066,0,0,1,1.219-.934,4.1,4.1,0,0,1,1.691-.344,3.342,3.342,0,0,1,2.289.73,2.635,2.635,0,0,1,.859,2.012v3.891a4.757,4.757,0,0,0,.3,1.852V17Zm-2.4-1.1a2.54,2.54,0,0,0,1.289-.352,2.126,2.126,0,0,0,.883-.914V12.9h-1.133q-2.656,0-2.656,1.555a1.316,1.316,0,0,0,.453,1.063A1.742,1.742,0,0,0,274.519,15.9Zm5.571-3.2a4.952,4.952,0,0,1,.922-3.129,3.137,3.137,0,0,1,4.766-.168V5h1.445V17h-1.328l-.07-.906a2.943,2.943,0,0,1-2.414,1.063,2.887,2.887,0,0,1-2.395-1.2,5.008,5.008,0,0,1-.926-3.141Zm1.445.164a3.749,3.749,0,0,0,.594,2.25,1.92,1.92,0,0,0,1.641.813,2.109,2.109,0,0,0,2.008-1.234V10.813a2.125,2.125,0,0,0-1.992-1.2,1.929,1.929,0,0,0-1.656.82A4.128,4.128,0,0,0,281.536,12.867Zm7.587-.172a4.993,4.993,0,0,1,.488-2.234A3.643,3.643,0,0,1,290.97,8.93a3.7,3.7,0,0,1,1.988-.539,3.565,3.565,0,0,1,2.793,1.2,4.6,4.6,0,0,1,1.066,3.18v.1a5.036,5.036,0,0,1-.473,2.215,3.589,3.589,0,0,1-1.352,1.527,3.743,3.743,0,0,1-2.02.547,3.556,3.556,0,0,1-2.785-1.2,4.575,4.575,0,0,1-1.066-3.164Zm1.453.172a3.616,3.616,0,0,0,.652,2.258,2.211,2.211,0,0,0,3.5-.012,3.955,3.955,0,0,0,.648-2.418,3.61,3.61,0,0,0-.66-2.254,2.1,2.1,0,0,0-1.754-.863,2.075,2.075,0,0,0-1.727.852A3.925,3.925,0,0,0,290.576,12.867Zm8.126,3.375a.905.905,0,0,1,.223-.625.848.848,0,0,1,.668-.25.874.874,0,0,1,.676.25.887.887,0,0,1,.23.625.839.839,0,0,1-.23.6.89.89,0,0,1-.676.242.8.8,0,0,1-.891-.844Z" transform="translate(812.427 1382)" fill="#12263f"/><g transform="translate(755.386 1062.193)"><g transform="translate(0 0)"><g clip-path="url(#b)"><path d="M23.525,44.55a21.031,21.031,0,0,1-8.183-40.4A21.031,21.031,0,0,1,31.709,42.9a20.894,20.894,0,0,1-8.183,1.652" transform="translate(-1.218 -1.218)" fill="#f3f9ff"/><path d="M22.307,0A22.307,22.307,0,1,1,0,22.307,22.307,22.307,0,0,1,22.307,0m0,2.564A19.749,19.749,0,0,0,14.623,40.5,19.749,19.749,0,0,0,29.991,4.114a19.617,19.617,0,0,0-7.684-1.55" transform="translate(0 0)" fill="#d2e1e7"/></g></g></g><g transform="translate(775.386 1139)"><g transform="translate(0 0)"><g clip-path="url(#b)"><path d="M23.525,44.55a21.031,21.031,0,0,1-8.183-40.4A21.031,21.031,0,0,1,31.709,42.9a20.894,20.894,0,0,1-8.183,1.652" transform="translate(-1.218 -1.218)" fill="#f3f9ff"/><path d="M22.307,0A22.307,22.307,0,1,1,0,22.307,22.307,22.307,0,0,1,22.307,0m0,2.564A19.749,19.749,0,0,0,14.623,40.5,19.749,19.749,0,0,0,29.991,4.114a19.617,19.617,0,0,0-7.684-1.55" transform="translate(0 0)" fill="#d2e1e7"/></g></g></g><g transform="translate(795.386 1216)"><g transform="translate(0 0)"><g clip-path="url(#b)"><path d="M23.525,44.55a21.031,21.031,0,0,1-8.183-40.4A21.031,21.031,0,0,1,31.709,42.9a20.894,20.894,0,0,1-8.183,1.652" transform="translate(-1.218 -1.218)" fill="#f3f9ff"/><path d="M22.307,0A22.307,22.307,0,1,1,0,22.307,22.307,22.307,0,0,1,22.307,0m0,2.564A19.749,19.749,0,0,0,14.623,40.5,19.749,19.749,0,0,0,29.991,4.114a19.617,19.617,0,0,0-7.684-1.55" transform="translate(0 0)" fill="#d2e1e7"/></g></g></g><g transform="translate(775.386 1293)"><g transform="translate(0 0)"><g clip-path="url(#b)"><path d="M23.525,44.55a21.031,21.031,0,0,1-8.183-40.4A21.031,21.031,0,0,1,31.709,42.9a20.894,20.894,0,0,1-8.183,1.652" transform="translate(-1.218 -1.218)" fill="#f3f9ff"/><path d="M22.307,0A22.307,22.307,0,1,1,0,22.307,22.307,22.307,0,0,1,22.307,0m0,2.564A19.749,19.749,0,0,0,14.623,40.5,19.749,19.749,0,0,0,29.991,4.114a19.617,19.617,0,0,0-7.684-1.55" transform="translate(0 0)" fill="#d2e1e7"/></g></g></g><g transform="translate(755.386 1370.193)"><g transform="translate(0 0)"><g clip-path="url(#b)"><path d="M23.525,44.55a21.031,21.031,0,0,1-8.183-40.4A21.031,21.031,0,0,1,31.709,42.9a20.894,20.894,0,0,1-8.183,1.652" transform="translate(-1.218 -1.218)" fill="#f3f9ff"/><path d="M22.307,0A22.307,22.307,0,1,1,0,22.307,22.307,22.307,0,0,1,22.307,0m0,2.564A19.749,19.749,0,0,0,14.623,40.5,19.749,19.749,0,0,0,29.991,4.114a19.617,19.617,0,0,0-7.684-1.55" transform="translate(0 0)" fill="#d2e1e7"/></g></g></g><path d="M13.492,22H10.026V10.967l-3.4.995V9.336L13.174,7.07h.318Z" transform="translate(766.279 1072.086)" fill="#3e6eb4"/><path d="M16.25,22H5.832V19.744l4.8-5.045Q12.4,12.679,12.4,11.49a2.232,2.232,0,0,0-.42-1.466,1.5,1.5,0,0,0-1.22-.5,1.52,1.52,0,0,0-1.282.672,2.76,2.76,0,0,0-.492,1.677H5.524a4.9,4.9,0,0,1,.687-2.538,4.818,4.818,0,0,1,1.907-1.82,5.665,5.665,0,0,1,2.728-.656,5.573,5.573,0,0,1,3.727,1.118,3.99,3.99,0,0,1,1.307,3.209,4.661,4.661,0,0,1-.328,1.718,7.532,7.532,0,0,1-1.02,1.753,25.7,25.7,0,0,1-2.23,2.456l-1.928,2.225H16.25Z" transform="translate(786.279 1149)" fill="#3e6eb4"/><path d="M8.99,13.089h1.63a1.7,1.7,0,0,0,1.938-1.9,1.64,1.64,0,0,0-.461-1.2,1.75,1.75,0,0,0-1.3-.467,1.873,1.873,0,0,0-1.195.4,1.22,1.22,0,0,0-.508.995H5.637a3.537,3.537,0,0,1,.656-2.1,4.334,4.334,0,0,1,1.82-1.441,6.223,6.223,0,0,1,2.558-.518,6.114,6.114,0,0,1,3.917,1.138,3.784,3.784,0,0,1,1.425,3.127,3.154,3.154,0,0,1-.59,1.82,4.2,4.2,0,0,1-1.718,1.389,4.014,4.014,0,0,1,1.866,1.307,3.443,3.443,0,0,1,.677,2.169,3.852,3.852,0,0,1-1.538,3.2,6.384,6.384,0,0,1-4.04,1.2,6.621,6.621,0,0,1-2.722-.559,4.265,4.265,0,0,1-1.9-1.548A4.025,4.025,0,0,1,5.4,17.847H8.877a1.556,1.556,0,0,0,.554,1.189,1.955,1.955,0,0,0,1.364.5,2.048,2.048,0,0,0,1.456-.508,1.7,1.7,0,0,0,.543-1.3,1.983,1.983,0,0,0-.564-1.6,2.358,2.358,0,0,0-1.559-.472H8.99Z" transform="translate(806.279 1226)" fill="#3e6eb4"/><path d="M14.958,16.166h1.518v2.666H14.958V22H11.5V18.832H5.729l-.205-2.112L11.5,7.1V7.07h3.456Zm-6.142,0H11.5V11.572l-.215.349Z" transform="translate(786.279 1303)" fill="#3e6eb4"/><path d="M6.037,14.707,6.95,7.07h8.726V9.757H9.759l-.338,2.966a4.076,4.076,0,0,1,.969-.381,4.421,4.421,0,0,1,1.174-.165,4.38,4.38,0,0,1,3.42,1.318,5.308,5.308,0,0,1,1.195,3.7,5.3,5.3,0,0,1-.641,2.6,4.4,4.4,0,0,1-1.8,1.789A5.681,5.681,0,0,1,11,22.205a6.113,6.113,0,0,1-2.635-.579,4.728,4.728,0,0,1-1.928-1.588,3.859,3.859,0,0,1-.687-2.28H9.216a1.96,1.96,0,0,0,.523,1.3,1.66,1.66,0,0,0,1.241.481q1.743,0,1.743-2.579,0-2.384-2.133-2.384a2.128,2.128,0,0,0-1.8.778Z" transform="translate(766.279 1380.193)" fill="#3e6eb4"/></g></svg>