<svg xmlns="http://www.w3.org/2000/svg" xmlns:xlink="http://www.w3.org/1999/xlink" width="79.461" height="80" viewBox="0 0 79.461 80"><defs><clipPath id="a"><rect width="79.461" height="80" fill="none"/></clipPath></defs><g transform="translate(0 0)"><g transform="translate(0 0)" clip-path="url(#a)"><path d="M3.035,0H47.556A3.034,3.034,0,0,1,50.59,3.034v62.06a3.034,3.034,0,0,1-3.034,3.034H3.034A3.034,3.034,0,0,1,0,65.094V3.035A3.035,3.035,0,0,1,3.035,0Z" transform="translate(13.627 10.253)" fill="#b8d0f3"/><path d="M56.078,12.746a4.182,4.182,0,1,1-4.184,4.182,4.183,4.183,0,0,1,4.184-4.182" transform="translate(17.313 4.252)" fill="#fff"/><path d="M4.689,44.308a3.373,3.373,0,1,1-3.373,3.373,3.372,3.372,0,0,1,3.373-3.373" transform="translate(0.439 14.782)" fill="#fff"/><path d="M45.73,9.814A6.855,6.855,0,0,1,46,11.568a5.125,5.125,0,0,1-5.126,5.126H24.144A5.214,5.214,0,0,1,20.5,15.21a4.98,4.98,0,0,1-1.483-3.642,7.841,7.841,0,0,1,.269-1.754,4.944,4.944,0,0,1,4.721-3.373h3.373a5.127,5.127,0,0,1,10.254,0h3.371A5.211,5.211,0,0,1,44.65,7.926a6.292,6.292,0,0,1,1.08,1.888" transform="translate(6.345 0.438)" fill="#fff"/><path d="M21.751,41.24v3.778l-3.238,1.888-3.237-1.888V41.24l3.237-1.888Z" transform="translate(5.096 13.128)" fill="#fff"/><path d="M21.751,30.416v3.777l-3.238,1.89-3.237-1.89V30.416l3.237-1.888Z" transform="translate(5.096 9.517)" fill="#fff"/><path d="M21.751,19.693v3.778l-3.238,1.888-3.237-1.888V19.693L18.513,17.8Z" transform="translate(5.096 5.939)" fill="#fff"/><path d="M48.965,30.719a2.361,2.361,0,0,1,.944,1.888l-.944,6.205a6.749,6.749,0,0,0-1.079,1.619,5.972,5.972,0,0,0-1.08-1.483l-1.079-6.341a1.949,1.949,0,0,1,2.023-2.159,3.952,3.952,0,0,1,1.215.271" transform="translate(15.251 10.158)" fill="#fff"/><path d="M57.828,34.8c14.975,0,4.992,26.982-3.238,26.982a13.661,13.661,0,0,1-2.294-.405h-.269a9.044,9.044,0,0,0-2.7,0,8.232,8.232,0,0,1-2.294.405c-8.23,0-18.077-26.982-3.238-26.982a8.176,8.176,0,0,1,5.937,2.7,14.354,14.354,0,0,1,1.079,1.484,11.269,11.269,0,0,1,1.079-1.619A8.274,8.274,0,0,1,57.828,34.8" transform="translate(12.054 11.609)" fill="#fff"/><path d="M56.346,25.026a1.7,1.7,0,0,1,.136.81,1.663,1.663,0,0,1-.944,1.484,1.719,1.719,0,0,1-.811.135,1.657,1.657,0,0,1-1.483-.946,1.694,1.694,0,0,1-.136-.808,1.66,1.66,0,0,1,.944-1.484,1.735,1.735,0,0,1,2.294.81" transform="translate(17.718 8.026)" fill="#4e8ae1"/><path d="M55.132,3.586a1.7,1.7,0,0,1,.136.81,1.662,1.662,0,0,1-.944,1.484,1.719,1.719,0,0,1-.811.135A1.658,1.658,0,0,1,52.03,5.07a1.7,1.7,0,0,1-.136-.81,1.7,1.7,0,0,1,3.238-.675" transform="translate(17.313 0.865)" fill="#4e8ae1"/><path d="M9.611,4.794a1.714,1.714,0,0,1,.135.81A1.658,1.658,0,0,1,8.8,7.088a1.714,1.714,0,0,1-.81.135,1.656,1.656,0,0,1-1.483-.944,1.7,1.7,0,0,1-.136-.81,1.66,1.66,0,0,1,.944-1.484,1.78,1.78,0,0,1,2.294.81" transform="translate(2.126 1.276)" fill="#4e8ae1"/><path d="M7.082,37.659a1.716,1.716,0,0,1,.135.81,1.658,1.658,0,0,1-.944,1.484,1.714,1.714,0,0,1-.81.135,1.658,1.658,0,0,1-1.484-.944,1.011,1.011,0,0,1-.135-.675,1.656,1.656,0,0,1,.944-1.483,1.616,1.616,0,0,1,2.294.673" transform="translate(1.282 12.257)" fill="#4e8ae1"/><path d="M3.238,21.289a1.7,1.7,0,0,1,.136.81,1.66,1.66,0,0,1-.944,1.484,1.722,1.722,0,0,1-.811.135,1.656,1.656,0,0,1-1.483-.944A1.7,1.7,0,0,1,0,21.964a1.662,1.662,0,0,1,.944-1.484,1.631,1.631,0,0,1,2.294.81" transform="translate(0 6.771)" fill="#4e8ae1"/><path d="M57.2,77.874H14.7a5.845,5.845,0,0,1-5.8-5.8v-59.9a5.844,5.844,0,0,1,5.8-5.8H22.8a1.754,1.754,0,1,1,0,3.507H14.7a2.418,2.418,0,0,0-2.429,2.429V72.342A2.418,2.418,0,0,0,14.7,74.77H57.2a2.418,2.418,0,0,0,2.429-2.429V70.994a1.754,1.754,0,0,1,3.507,0v1.348A6.118,6.118,0,0,1,57.2,77.874" transform="translate(2.97 2.126)" fill="#4e8ae1"/><path d="M51.662,40.538a1.766,1.766,0,0,1-1.754-1.619V12.208a2.419,2.419,0,0,0-2.43-2.429H39.384a1.754,1.754,0,0,1,0-3.507h8.094a5.844,5.844,0,0,1,5.8,5.8V38.784a1.767,1.767,0,0,1-1.619,1.754" transform="translate(12.555 2.092)" fill="#4e8ae1"/><path d="M47.08,41.039a1.608,1.608,0,0,1-1.619-1.483l-.946-6.341V33.08a3.649,3.649,0,0,1,.946-2.833,3.6,3.6,0,0,1,2.7-1.215,4.073,4.073,0,0,1,2.159.675,3.77,3.77,0,0,1,1.619,3.373v.135l-.944,6.205a1.586,1.586,0,0,1-1.89,1.35,1.92,1.92,0,0,1-.81-.269,1.164,1.164,0,0,1-.81.4c-.269.135-.269.135-.4.135m.675-8.094.4,2.429.4-2.429a.47.47,0,0,0-.135-.269h-.269c-.135,0-.271,0-.271.135a.131.131,0,0,0-.133.135" transform="translate(14.843 9.685)" fill="#4e8ae1"/><path d="M55.136,63.94A9.164,9.164,0,0,1,52.3,63.4h-.135a4.463,4.463,0,0,0-1.888,0,14.419,14.419,0,0,1-2.834.54c-2.967,0-6.205-2.563-8.769-7.151A27.926,27.926,0,0,1,34.9,43.838a10.775,10.775,0,0,1,2.158-7.15c1.08-1.484,3.374-3.1,7.286-3.1a9.8,9.8,0,0,1,7.015,2.967,9.572,9.572,0,0,1,7.016-2.967,9.021,9.021,0,0,1,7.286,3.1,11.572,11.572,0,0,1,2.158,7.15,26.435,26.435,0,0,1-3.777,12.951c-2.7,4.588-5.936,7.151-8.9,7.151m-3.778-4.048a6.574,6.574,0,0,1,1.619.135.5.5,0,0,1,.405.135c1.214.269,1.754.4,1.888.4,1.754,0,4.048-2.158,5.936-5.395a24.146,24.146,0,0,0,3.238-11.333,8.465,8.465,0,0,0-1.35-4.992,5.944,5.944,0,0,0-4.857-1.888,6.046,6.046,0,0,0-4.586,2.023,3.2,3.2,0,0,0-.81,1.214,1.638,1.638,0,0,1-2.967,0l-.811-1.214a6.243,6.243,0,0,0-4.721-2.158,5.425,5.425,0,0,0-4.586,1.888,7.844,7.844,0,0,0-1.35,4.992,24.121,24.121,0,0,0,3.238,11.332c1.888,3.238,4.182,5.4,5.936,5.4a5.949,5.949,0,0,0,1.888-.4c.539,0,1.214-.135,1.888-.135" transform="translate(11.643 11.204)" fill="#4e8ae1"/><path d="M18.918,27.433a1.926,1.926,0,0,1-.81-.269l-3.238-1.888a1.552,1.552,0,0,1-.81-1.484V20.015a1.694,1.694,0,0,1,.81-1.484l3.238-1.888a2,2,0,0,1,1.754,0L23.1,18.53a1.549,1.549,0,0,1,.81,1.484v3.777a1.693,1.693,0,0,1-.81,1.484l-3.238,1.888a1.457,1.457,0,0,1-.944.269M17.3,22.847l1.619.944,1.619-.944V21.093l-1.619-.944-1.619.944Z" transform="translate(4.691 5.484)" fill="#4e8ae1"/><path d="M39.759,21.21H24.515a1.754,1.754,0,1,1,0-3.507H39.759a1.786,1.786,0,0,1,1.754,1.754,2,2,0,0,1-1.754,1.754" transform="translate(7.594 5.906)" fill="#4e8ae1"/><path d="M46.505,24.953H24.515a1.754,1.754,0,1,1,0-3.507h21.99A1.785,1.785,0,0,1,48.258,23.2a1.873,1.873,0,0,1-1.752,1.754" transform="translate(7.593 7.154)" fill="#4e8ae1"/><path d="M18.918,38.256a1.926,1.926,0,0,1-.81-.269L14.871,36.1a1.551,1.551,0,0,1-.81-1.484V30.837a1.694,1.694,0,0,1,.81-1.484l3.238-1.888a2,2,0,0,1,1.754,0L23.1,29.353a1.549,1.549,0,0,1,.81,1.484v3.777A1.691,1.691,0,0,1,23.1,36.1l-3.238,1.888a3.446,3.446,0,0,1-.944.269M17.3,33.67l1.619.944,1.619-.944V31.781l-1.619-.81-1.619.944Z" transform="translate(4.691 9.095)" fill="#4e8ae1"/><path d="M39.759,31.933H24.515a1.754,1.754,0,1,1,0-3.507H39.759a1.786,1.786,0,0,1,1.754,1.754,1.876,1.876,0,0,1-1.754,1.754" transform="translate(7.594 9.483)" fill="#4e8ae1"/><path d="M36.388,35.777H24.515a1.754,1.754,0,1,1,0-3.507H36.388a1.784,1.784,0,0,1,1.751,1.754,2,2,0,0,1-1.751,1.754" transform="translate(7.593 10.766)" fill="#4e8ae1"/><path d="M18.918,48.98a1.926,1.926,0,0,1-.81-.269l-3.238-1.888a1.552,1.552,0,0,1-.81-1.484V41.56a1.693,1.693,0,0,1,.81-1.483l3.238-1.888a2,2,0,0,1,1.754,0L23.1,40.077a1.548,1.548,0,0,1,.81,1.483v3.778a1.694,1.694,0,0,1-.81,1.484l-3.238,1.888a1.457,1.457,0,0,1-.944.269M17.3,44.529l1.619.944,1.619-.944v-1.89L18.918,41.7l-1.619.943Z" transform="translate(4.691 12.672)" fill="#4e8ae1"/><path d="M39.759,42.757H24.515a1.754,1.754,0,0,1,0-3.507H39.759A1.786,1.786,0,0,1,41.513,41a1.885,1.885,0,0,1-1.754,1.754" transform="translate(7.594 13.094)" fill="#4e8ae1"/><path d="M33.014,46.5h-8.5a1.754,1.754,0,1,1,0-3.507h8.5a1.786,1.786,0,0,1,1.754,1.754A1.878,1.878,0,0,1,33.014,46.5" transform="translate(7.593 14.343)" fill="#4e8ae1"/><path d="M5.128,53.246a5.126,5.126,0,1,1,5.126-5.126,5.125,5.125,0,0,1-5.126,5.126m0-6.745a1.754,1.754,0,0,0,0,3.507A1.784,1.784,0,0,0,6.88,48.255,1.7,1.7,0,0,0,5.128,46.5" transform="translate(0 14.343)" fill="#4e8ae1"/><path d="M56.516,23.3a5.936,5.936,0,1,1,5.935-5.936A5.987,5.987,0,0,1,56.516,23.3m0-8.5a2.562,2.562,0,0,0-2.565,2.563,2.481,2.481,0,0,0,2.565,2.563,2.562,2.562,0,0,0,2.563-2.563A2.481,2.481,0,0,0,56.516,14.8" transform="translate(16.875 3.813)" fill="#4e8ae1"/><path d="M41.413,18.617H24.549a6.33,6.33,0,0,1-4.722-2.024A7.134,7.134,0,0,1,17.8,11.872a6.87,6.87,0,0,1,.4-2.294,6.7,6.7,0,0,1,6.341-4.452h1.888A6.766,6.766,0,0,1,32.913,0a6.648,6.648,0,0,1,6.476,5.126h1.89A6.33,6.33,0,0,1,46,7.15a8.3,8.3,0,0,1,1.619,2.565,6.307,6.307,0,0,1,.405,2.292,6.537,6.537,0,0,1-6.611,6.611M24.549,8.5a3.5,3.5,0,0,0-3.238,2.294,2.973,2.973,0,0,0-.135,1.079,3.877,3.877,0,0,0,.944,2.429,3.256,3.256,0,0,0,2.429.944H41.413a3.34,3.34,0,0,0,3.373-3.373,2.608,2.608,0,0,0-.136-1.079,2.418,2.418,0,0,0-.808-1.215,3.256,3.256,0,0,0-2.429-.944H38.04A1.785,1.785,0,0,1,36.287,6.88a3.373,3.373,0,1,0-6.745,0,1.786,1.786,0,0,1-1.754,1.754H24.549Z" transform="translate(5.94 0)" fill="#4e8ae1"/></g></g></svg>