<svg xmlns="http://www.w3.org/2000/svg" xmlns:xlink="http://www.w3.org/1999/xlink" width="77.683" height="80" viewBox="0 0 77.683 80"><defs><clipPath id="a"><rect width="77.683" height="80" fill="none"/></clipPath></defs><path d="M19.2,58.392l-4.232,4.232L1.315,48.975l3.959-3.959Z" transform="translate(0.459 15.601)" fill="#b8d0f3"/><g transform="translate(0 0)"><g clip-path="url(#a)"><path d="M48.541,50.22,64.35,34.138a4.943,4.943,0,0,1,6.814,0,4.933,4.933,0,0,1,0,6.95L48.679,63.713,18.15,62.622,4.249,49.266l8.994-9L45,43.679a4.587,4.587,0,0,1,2.727,1.226,4.735,4.735,0,0,1,1.361,2.725,4.051,4.051,0,0,1-.544,2.589" transform="translate(1.475 11.382)" fill="#b8d0f3"/><path d="M5.826,25.188a2.59,2.59,0,1,1-2.589,2.591,2.591,2.591,0,0,1,2.589-2.591" transform="translate(1.124 8.747)" fill="#fff"/><path d="M54.694,20.13a3.408,3.408,0,1,1-3.407,3.407,3.408,3.408,0,0,1,3.407-3.407" transform="translate(17.81 6.99)" fill="#fff"/><path d="M48.818,1.214A2.589,2.589,0,1,1,46.229,3.8a2.589,2.589,0,0,1,2.589-2.589" transform="translate(16.053 0.422)" fill="#fff"/><path d="M32.071,9.8a7.257,7.257,0,0,1,2.317-4.361,7.062,7.062,0,0,1,6-1.772,7.155,7.155,0,0,1-1.908,5.316,10.588,10.588,0,0,0-6.814,3.406Z" transform="translate(10.995 1.234)" fill="#fff"/><path d="M31.382,9.669h0l.408,2.862a10.423,10.423,0,0,0-6.813-3.543,7.151,7.151,0,0,1-1.909-5.315,7.061,7.061,0,0,1,6,1.77,6.938,6.938,0,0,1,2.317,4.226" transform="translate(8.005 1.235)" fill="#fff"/><path d="M31.356,1.82a2.68,2.68,0,0,1,2.725,2.863l-.954,5.587-.408,2.589a19.545,19.545,0,0,0-1.5,2.045A9.7,9.7,0,0,0,29.857,13l-.408-2.862-.818-5.451A2.681,2.681,0,0,1,31.356,1.82" transform="translate(9.939 0.632)" fill="#fff"/><path d="M44.826,7.587c19.762,0,6.678,35.706-4.225,35.706a15.2,15.2,0,0,1-3.135-.544,6.077,6.077,0,0,0-3.815,0,12.625,12.625,0,0,1-3.135.544c-10.9,0-23.85-35.706-4.225-35.706h1.091a9.854,9.854,0,0,1,6.813,3.543,9.65,9.65,0,0,1,1.363,1.908,7.981,7.981,0,0,1,1.5-2.045,10.592,10.592,0,0,1,6.814-3.406Z" transform="translate(5.601 2.635)" fill="#fff"/><path d="M54.659,49.447v.137a1.636,1.636,0,0,1-1.5,1.634h-.136a1.636,1.636,0,0,1-1.636-1.5v-.135a1.636,1.636,0,0,1,1.5-1.636,1.888,1.888,0,0,1,1.772,1.5" transform="translate(17.845 16.651)" fill="#4e8ae1"/><path d="M53.446,12.833v.135a1.637,1.637,0,0,1-1.5,1.637h-.136a1.637,1.637,0,0,1-1.636-1.5v-.137a1.638,1.638,0,0,1,3.271-.135" transform="translate(17.424 3.93)" fill="#4e8ae1"/><path d="M48.388,30.535v.139a1.634,1.634,0,0,1-1.5,1.633h-.137a1.636,1.636,0,0,1-1.636-1.5v-.135a1.639,1.639,0,0,1,3.272-.139" transform="translate(15.667 10.077)" fill="#4e8ae1"/><path d="M48.388,55.825v.137a1.638,1.638,0,0,1-1.5,1.636h-.137a1.638,1.638,0,0,1-1.636-1.5v-.135a1.639,1.639,0,0,1,3.272-.137" transform="translate(15.667 18.859)" fill="#4e8ae1"/><path d="M15.511,31.745v.136a1.635,1.635,0,0,1-1.5,1.634h-.136a1.636,1.636,0,0,1-1.636-1.5v-.136a1.637,1.637,0,0,1,1.5-1.636,1.886,1.886,0,0,1,1.772,1.5" transform="translate(4.25 10.503)" fill="#4e8ae1"/><path d="M11.667,19.307v.137a1.635,1.635,0,0,1-1.5,1.634h-.136A1.636,1.636,0,0,1,8.4,19.58v-.136a1.638,1.638,0,0,1,3.271-.137" transform="translate(2.916 6.178)" fill="#4e8ae1"/><path d="M11.667,5.246v.136a1.635,1.635,0,0,1-1.5,1.634h-.136A1.635,1.635,0,0,1,8.4,5.518V5.382a1.638,1.638,0,0,1,3.271-.136" transform="translate(2.916 1.295)" fill="#4e8ae1"/><path d="M18.6,60.49a2.2,2.2,0,0,1-1.227-.408L3.47,46.589a1.735,1.735,0,0,1,2.453-2.453l.136.136,13.9,13.357a1.727,1.727,0,0,1,0,2.453,2.3,2.3,0,0,1-1.362.408" transform="translate(1.027 15.149)" fill="#4e8ae1"/><path d="M15.4,69.11a1.662,1.662,0,0,1-1.226-.546L.546,54.936A2.021,2.021,0,0,1,0,53.71a1.66,1.66,0,0,1,.546-1.226L13.629,39.4a1.746,1.746,0,0,1,1.363-.544L46.61,42.261a6.207,6.207,0,0,1,3.817,1.772,6.772,6.772,0,0,1,1.5,2.317L64.736,33.267A6.553,6.553,0,0,1,74,42.534L51.38,65.43a2.032,2.032,0,0,1-1.226.546l-29.711-1.09-3.815,3.679a1.664,1.664,0,0,1-1.227.546M4.089,53.71,15.264,64.885,18.4,61.75a2.032,2.032,0,0,1,1.226-.546L49.336,62.3,71.551,40.353a3.209,3.209,0,0,0,0-4.5,3.294,3.294,0,0,0-2.317-.954,2.989,2.989,0,0,0-2.317.954L51.38,51.8a5.957,5.957,0,0,1-5.587,3l-17.446-.818a1.7,1.7,0,1,1,.136-3.407l17.446.818a2.924,2.924,0,0,0,2.589-1.5,2.348,2.348,0,0,0,.272-1.636,3.114,3.114,0,0,0-.818-1.636,3.555,3.555,0,0,0-1.772-.816L15.264,42.4Z" transform="translate(0 10.89)" fill="#4e8ae1"/><path d="M30.316,15.19a1.625,1.625,0,0,1-1.636-1.5L27.318,5.378V5.24a4.12,4.12,0,0,1,1.226-3.271A4.227,4.227,0,0,1,31.816.607a4.757,4.757,0,0,1,3.271,1.362A5.149,5.149,0,0,1,36.314,5.24v.137l-1.363,8.176a1.6,1.6,0,0,1-1.908,1.363,1.878,1.878,0,0,1-1.091-.682,1.974,1.974,0,0,1-1.226.816.5.5,0,0,1-.41.137m.41-10.222,1.09,6.542,1.09-6.542a.8.8,0,0,0-.272-.682,1.365,1.365,0,0,0-1.636,0,1.046,1.046,0,0,0-.272.682" transform="translate(9.479 0.211)" fill="#4e8ae1"/><path d="M31.9,12.267a1.637,1.637,0,0,1-1.636-1.5v-.41A5.6,5.6,0,0,0,28.5,7.224a5.075,5.075,0,0,0-3-1.363,5.432,5.432,0,0,0,1.362,2.453,1.737,1.737,0,1,1-2.589,2.317A8.816,8.816,0,0,1,21.955,4.09a1.75,1.75,0,0,1,1.363-1.636,9.021,9.021,0,0,1,7.359,2.18A9.337,9.337,0,0,1,33.54,9.813c0,.273,0,.408.136.546a1.7,1.7,0,0,1-1.5,1.908Z" transform="translate(7.619 0.817)" fill="#4e8ae1"/><path d="M32.392,12.267h-.136a1.7,1.7,0,0,1-1.5-1.908V9.95a8.928,8.928,0,0,1,2.863-5.315,9.161,9.161,0,0,1,7.359-2.18A1.617,1.617,0,0,1,42.342,4.09a8.816,8.816,0,0,1-2.317,6.541,1.871,1.871,0,0,1-2.452.137,1.875,1.875,0,0,1-.137-2.455A6.25,6.25,0,0,0,38.8,5.861a6.057,6.057,0,0,0-3,1.363A5.955,5.955,0,0,0,34.028,10.5v.273a1.637,1.637,0,0,1-1.636,1.5" transform="translate(10.674 0.817)" fill="#4e8ae1"/><path d="M41.038,45.386a15.6,15.6,0,0,1-3.543-.68,5.584,5.584,0,0,0-3,0,15.6,15.6,0,0,1-3.543.68c-3.815,0-7.9-3.271-11.175-9.132-3-5.315-4.907-11.584-4.907-16.9a14.561,14.561,0,0,1,2.725-9.13c2.045-2.589,5.179-3.951,9.268-3.951h1.227a12.134,12.134,0,0,1,7.9,4.089l.136.135.273-.272a11.959,11.959,0,0,1,7.9-3.951H45.4c4.09,0,7.088,1.362,9.268,3.951a14.553,14.553,0,0,1,2.727,9.13,34.816,34.816,0,0,1-4.907,16.9c-3.543,5.861-7.632,9.132-11.448,9.132m-5.043-4.225a15.193,15.193,0,0,1,2.453.272,13.743,13.743,0,0,0,2.589.546c2.452,0,5.588-2.863,8.313-7.359,2.727-4.769,4.5-10.631,4.5-15.266a11.4,11.4,0,0,0-1.908-6.95C50.578,10.633,48.4,9.679,45.4,9.679h-.816a8.6,8.6,0,0,0-5.724,2.862,5.179,5.179,0,0,0-1.226,1.772,1.656,1.656,0,0,1-3,0,11.384,11.384,0,0,0-1.09-1.636,8.616,8.616,0,0,0-5.723-2.863H27c-3,0-5.179.954-6.541,2.727a11.688,11.688,0,0,0-1.908,6.95,31.64,31.64,0,0,0,4.5,15.264c2.589,4.5,5.724,7.359,8.314,7.359a7.235,7.235,0,0,0,2.588-.544,4.562,4.562,0,0,1,2.045-.41" transform="translate(5.164 2.178)" fill="#4e8ae1"/><path d="M38.363,30.331a1.221,1.221,0,0,1-.682-.137,1.753,1.753,0,0,1-.818-2.316c2.044-4.635,3.135-10.767.408-13.355a1.736,1.736,0,1,1,2.455-2.455c4.225,4.089,2.724,11.72.272,17.172a1.924,1.924,0,0,1-1.636,1.091" transform="translate(12.745 4.013)" fill="#4e8ae1"/><path d="M6.248,32.424A4.224,4.224,0,1,1,10.473,28.2a4.246,4.246,0,0,1-4.225,4.225m0-5.043a.818.818,0,1,0,0,1.636.818.818,0,1,0,0-1.636" transform="translate(0.702 8.326)" fill="#4e8ae1"/><path d="M49.24,8.45a4.225,4.225,0,1,1,4.225-4.225A4.246,4.246,0,0,1,49.24,8.45m0-5.179a.877.877,0,0,0-.816.818.817.817,0,1,0,1.634,0,.878.878,0,0,0-.818-.818" transform="translate(15.632 0)" fill="#4e8ae1"/><path d="M55.151,29.173a5.179,5.179,0,1,1,5.179-5.179,5.177,5.177,0,0,1-5.179,5.179m0-6.814a1.772,1.772,0,1,0,1.772,1.772,1.8,1.8,0,0,0-1.772-1.772" transform="translate(17.353 6.534)" fill="#4e8ae1"/></g></g></svg>