<svg xmlns="http://www.w3.org/2000/svg" xmlns:xlink="http://www.w3.org/1999/xlink" width="1228.427" height="168.248" viewBox="0 0 1228.427 168.248"><defs><clipPath id="a"><path d="M0,0H276a16,16,0,0,1,16,16V152.248a16,16,0,0,1-16,16H0a0,0,0,0,1,0,0V0A0,0,0,0,1,0,0Z" fill="#edf3fc"/></clipPath><clipPath id="b"><path d="M626.792,165.911c-.046-10.183-59.242-6.725-67.747-6.163-88.54,5.854-86.55,112.571-176.66,112.572-63.175,0-131.764-8.628-153.424,41.7s28.88,61.832,32.49,103.532-37.682,43.138-68.478,48.89-48.737,27.321-48.737,99.219H626.792V165.911" transform="translate(-144.236 -158.732)" fill="none"/></clipPath><clipPath id="c"><rect width="924.046" height="734.31" fill="none"/></clipPath><clipPath id="d"><path d="M646.072,231.877c-21.8,5.24-39.091,18.7-52.043,33.621-13.021,14.995-23.322,32.48-42.546,42.372-16.434,8.457-37.1,10.061-54.19,17.653-30.026,13.341-43.377,46.252-28.831,71.069,13.1,22.347,43.777,35.827,56.2,58.419,18.1,32.919-8.674,71.706,1.951,106.634,7.047,23.169,115.459,13.481,115.459,13.481l281.219-4.855L926.5,284.121s-35.218-35.158-118.142-20.387-71.509-8.108-89.594-22.811c-11.122-9.042-27.812-12.365-44.084-12.365a125.246,125.246,0,0,0-28.607,3.32" transform="translate(-462.557 -228.557)" fill="none"/></clipPath><linearGradient id="e" x1="-0.706" y1="1.413" x2="-0.704" y2="1.413" gradientUnits="objectBoundingBox"><stop offset="0" stop-color="#ffd101"/><stop offset="1" stop-color="#fa7921"/></linearGradient></defs><g transform="translate(-185.787 -5843.064)"><rect width="1228" height="168" rx="16" transform="translate(185.787 5843.064)" fill="#edf3fc"/><g transform="translate(1122.213 5843.064)" clip-path="url(#a)"><g transform="translate(-0.186 -234.32)"><g clip-path="url(#b)"><g transform="translate(-144.236 -118.169)" opacity="0.7" style="mix-blend-mode:overlay;isolation:isolate"><g clip-path="url(#c)"><path d="M915.513,303.219l8.533-6.713L556.509,0l-8.533,6.713Z" transform="translate(0 0)" fill="#fff"/><path d="M897.247,322.521l8.533-6.714L538.243,19.3l-8.533,6.713Z" transform="translate(0 -4.933)" fill="#fff"/><path d="M878.981,341.823l8.533-6.713L519.977,38.6l-8.533,6.713Z" transform="translate(0 -9.865)" fill="#fff"/><path d="M860.716,361.125l8.533-6.714L501.712,57.907l-8.533,6.713Z" transform="translate(0 -14.797)" fill="#fff"/><path d="M842.45,380.428l8.533-6.714L483.446,77.209l-8.533,6.713Z" transform="translate(0 -19.73)" fill="#fff"/><path d="M824.184,399.73l8.533-6.713L465.18,96.511l-8.533,6.713Z" transform="translate(0 -24.662)" fill="#fff"/><path d="M805.918,419.032l8.533-6.713L446.914,115.813l-8.533,6.713Z" transform="translate(0 -29.595)" fill="#fff"/><path d="M787.652,438.334l8.533-6.713L428.648,135.115l-8.533,6.713Z" transform="translate(0 -34.527)" fill="#fff"/><path d="M769.386,457.637l8.533-6.714L410.382,154.418l-8.533,6.713Z" transform="translate(0 -39.46)" fill="#fff"/><path d="M751.12,476.939l8.533-6.713L392.116,173.72l-8.533,6.713Z" transform="translate(0 -44.392)" fill="#fff"/><path d="M732.854,496.241l8.533-6.714L373.85,193.022l-8.533,6.713Z" transform="translate(0 -49.325)" fill="#fff"/><path d="M714.589,515.543l8.533-6.714L355.585,212.324l-8.533,6.713Z" transform="translate(0 -54.257)" fill="#fff"/><path d="M696.323,534.845l8.533-6.713L337.319,231.627l-8.533,6.713Z" transform="translate(0 -59.19)" fill="#fff"/><path d="M678.057,554.147l8.533-6.714L319.053,250.929l-8.533,6.713Z" transform="translate(0 -64.122)" fill="#fff"/><path d="M659.791,573.45l8.533-6.713L300.787,270.231l-8.533,6.713Z" transform="translate(0 -69.055)" fill="#fff"/><path d="M641.525,592.752l8.533-6.714L282.521,289.533l-8.533,6.713Z" transform="translate(0 -73.987)" fill="#fff"/><path d="M623.259,612.054l8.533-6.713L264.255,308.835l-8.533,6.713Z" transform="translate(0 -78.92)" fill="#fff"/><path d="M604.993,631.356l8.533-6.714L245.989,328.138l-8.533,6.713Z" transform="translate(0 -83.852)" fill="#fff"/><path d="M586.727,650.658l8.533-6.713L227.724,347.44l-8.533,6.713Z" transform="translate(0 -88.785)" fill="#fff"/><path d="M568.462,669.961l8.533-6.714L209.458,366.742l-8.533,6.713Z" transform="translate(0 -93.717)" fill="#fff"/><path d="M550.2,689.263l8.533-6.714L191.192,386.044l-8.533,6.713Z" transform="translate(0 -98.65)" fill="#fff"/><path d="M531.93,708.565l8.533-6.713L172.926,405.346l-8.533,6.713Z" transform="translate(0 -103.582)" fill="#fff"/><path d="M513.664,727.867l8.533-6.714L154.66,424.649l-8.533,6.713Z" transform="translate(0 -108.515)" fill="#fff"/><path d="M495.4,747.169l8.533-6.713L136.394,443.951l-8.533,6.713Z" transform="translate(0 -113.447)" fill="#fff"/><path d="M477.132,766.472l8.533-6.714L118.128,463.253l-8.533,6.713Z" transform="translate(0 -118.379)" fill="#fff"/><path d="M458.866,785.774l8.533-6.713L99.862,482.555l-8.533,6.713Z" transform="translate(0 -123.312)" fill="#fff"/><path d="M440.6,805.076l8.533-6.714L81.6,501.857l-8.533,6.713Z" transform="translate(0 -128.244)" fill="#fff"/><path d="M422.335,824.378l8.533-6.714L63.331,521.16,54.8,527.872Z" transform="translate(0 -133.177)" fill="#fff"/><path d="M404.069,843.68l8.533-6.713L45.065,540.462l-8.533,6.713Z" transform="translate(0 -138.109)" fill="#fff"/><path d="M385.8,862.983l8.533-6.714L26.8,559.764l-8.533,6.713Z" transform="translate(0 -143.042)" fill="#fff"/><path d="M367.537,882.285l8.533-6.713L8.533,579.066,0,585.779Z" transform="translate(0 -147.974)" fill="#fff"/></g></g></g></g><g transform="translate(50.33 -17.867)" opacity="0.05"><g clip-path="url(#d)"><path d="M31.681,560.5l433.366,31.931-31.681-560.5L0,0Z" transform="translate(-113.132 338.376) rotate(-77.053)" fill="url(#e)"/></g></g></g></g></svg>