<svg xmlns="http://www.w3.org/2000/svg" xmlns:xlink="http://www.w3.org/1999/xlink" width="812.289" height="184.883" viewBox="0 0 812.289 184.883"><defs><clipPath id="a"><path d="M0,0H172a16,16,0,0,1,16,16V168.817a16,16,0,0,1-16,16H0a0,0,0,0,1,0,0V0A0,0,0,0,1,0,0Z" fill="#edf3fc"/></clipPath><clipPath id="b"><path d="M626.792,166.619c-.046-11.186-59.242-7.388-67.747-6.77-88.54,6.43-86.55,123.658-176.66,123.658-63.175,0-131.764-9.478-153.424,45.807s28.88,67.921,32.49,113.728-37.682,47.387-68.478,53.705-48.737,30.012-48.737,108.99H626.792V166.619" transform="translate(-144.236 -158.732)" fill="none"/></clipPath><clipPath id="c"><rect width="924.046" height="806.626" fill="none"/></clipPath><clipPath id="d"><path d="M646.072,232.2c-21.8,5.756-39.091,20.546-52.043,36.932-13.021,16.472-23.322,35.679-42.546,46.545-16.434,9.29-37.1,11.052-54.19,19.392-30.026,14.655-43.377,50.807-28.831,78.068,13.1,24.548,43.777,39.355,56.2,64.173,18.1,36.161-8.674,78.768,1.951,117.136,7.047,25.451,115.459,14.809,115.459,14.809l281.219-5.334L926.5,289.593s-35.218-38.62-118.142-22.395-71.509-8.906-89.594-25.057c-11.122-9.933-27.812-13.583-44.084-13.583a114.576,114.576,0,0,0-28.607,3.647" transform="translate(-462.557 -228.557)" fill="none"/></clipPath><linearGradient id="e" x1="-0.706" y1="1.413" x2="-0.704" y2="1.413" gradientUnits="objectBoundingBox"><stop offset="0" stop-color="#ffd101"/><stop offset="1" stop-color="#fa7921"/></linearGradient></defs><g transform="translate(-601.711 -2778.546)"><rect width="812" height="184.569" rx="16" transform="translate(601.711 2778.546)" fill="#edf3fc"/><g transform="translate(1226 2778.611)" clip-path="url(#a)"><g transform="translate(-0.186 -257.396)"><g clip-path="url(#b)"><g transform="translate(-144.236 -129.807)" opacity="0.7" style="mix-blend-mode:overlay;isolation:isolate"><g clip-path="url(#c)"><path d="M915.513,333.08l8.533-7.374L556.509,0l-8.533,7.374Z" transform="translate(0 0)" fill="#fff"/><path d="M897.247,352.383l8.533-7.375L538.243,19.3l-8.533,7.374Z" transform="translate(0 -3.517)" fill="#fff"/><path d="M878.981,371.685l8.533-7.374L519.977,38.6l-8.533,7.374Z" transform="translate(0 -7.035)" fill="#fff"/><path d="M860.716,390.987l8.533-7.375L501.712,57.907l-8.533,7.374Z" transform="translate(0 -10.552)" fill="#fff"/><path d="M842.45,410.289l8.533-7.375L483.446,77.209l-8.533,7.374Z" transform="translate(0 -14.069)" fill="#fff"/><path d="M824.184,429.591l8.533-7.374L465.18,96.511l-8.533,7.374Z" transform="translate(0 -17.587)" fill="#fff"/><path d="M805.918,448.894l8.533-7.374L446.914,115.813l-8.533,7.374Z" transform="translate(0 -21.104)" fill="#fff"/><path d="M787.652,468.2l8.533-7.374L428.648,135.115l-8.533,7.374Z" transform="translate(0 -24.621)" fill="#fff"/><path d="M769.386,487.5l8.533-7.375L410.382,154.418l-8.533,7.374Z" transform="translate(0 -28.139)" fill="#fff"/><path d="M751.12,506.8l8.533-7.374L392.116,173.72l-8.533,7.374Z" transform="translate(0 -31.656)" fill="#fff"/><path d="M732.854,526.1l8.533-7.375L373.85,193.022l-8.533,7.374Z" transform="translate(0 -35.173)" fill="#fff"/><path d="M714.589,545.4l8.533-7.375L355.585,212.324l-8.533,7.374Z" transform="translate(0 -38.691)" fill="#fff"/><path d="M696.323,564.707l8.533-7.374L337.319,231.627,328.786,239Z" transform="translate(0 -42.208)" fill="#fff"/><path d="M678.057,584.009l8.533-7.375L319.053,250.929,310.52,258.3Z" transform="translate(0 -45.725)" fill="#fff"/><path d="M659.791,603.311l8.533-7.374L300.787,270.231l-8.533,7.374Z" transform="translate(0 -49.243)" fill="#fff"/><path d="M641.525,622.613l8.533-7.375L282.521,289.533l-8.533,7.374Z" transform="translate(0 -52.76)" fill="#fff"/><path d="M623.259,641.915l8.533-7.374L264.255,308.835l-8.533,7.374Z" transform="translate(0 -56.277)" fill="#fff"/><path d="M604.993,661.218l8.533-7.375L245.989,328.138l-8.533,7.374Z" transform="translate(0 -59.795)" fill="#fff"/><path d="M586.727,680.52l8.533-7.374L227.724,347.44l-8.533,7.374Z" transform="translate(0 -63.312)" fill="#fff"/><path d="M568.462,699.822l8.533-7.375L209.458,366.742l-8.533,7.374Z" transform="translate(0 -66.829)" fill="#fff"/><path d="M550.2,719.124l8.533-7.375L191.192,386.044l-8.533,7.374Z" transform="translate(0 -70.347)" fill="#fff"/><path d="M531.93,738.426l8.533-7.374L172.926,405.346l-8.533,7.374Z" transform="translate(0 -73.864)" fill="#fff"/><path d="M513.664,757.729l8.533-7.375L154.66,424.649l-8.533,7.374Z" transform="translate(0 -77.381)" fill="#fff"/><path d="M495.4,777.031l8.533-7.374L136.394,443.951l-8.533,7.374Z" transform="translate(0 -80.898)" fill="#fff"/><path d="M477.132,796.333l8.533-7.375L118.128,463.253l-8.533,7.374Z" transform="translate(0 -84.416)" fill="#fff"/><path d="M458.866,815.635l8.533-7.374L99.862,482.555l-8.533,7.374Z" transform="translate(0 -87.933)" fill="#fff"/><path d="M440.6,834.937l8.533-7.375L81.6,501.857l-8.533,7.374Z" transform="translate(0 -91.45)" fill="#fff"/><path d="M422.335,854.24l8.533-7.375L63.331,521.16,54.8,528.533Z" transform="translate(0 -94.968)" fill="#fff"/><path d="M404.069,873.542l8.533-7.374L45.065,540.462l-8.533,7.374Z" transform="translate(0 -98.485)" fill="#fff"/><path d="M385.8,892.844l8.533-7.375L26.8,559.764l-8.533,7.374Z" transform="translate(0 -102.002)" fill="#fff"/><path d="M367.537,912.146l8.533-7.374L8.533,579.066,0,586.44Z" transform="translate(0 -105.52)" fill="#fff"/></g></g></g></g><g transform="translate(50.33 -19.626)" opacity="0.05"><g clip-path="url(#d)"><path d="M22.591,562.592l473.216,22.77L473.216,22.77,0,0Z" transform="translate(-113.132 371.699) rotate(-77.053)" fill="url(#e)"/></g></g></g></g></svg>