<svg xmlns="http://www.w3.org/2000/svg" xmlns:xlink="http://www.w3.org/1999/xlink" width="79.463" height="80" viewBox="0 0 79.463 80"><defs><clipPath id="a"><rect width="79.463" height="80" fill="none"/></clipPath></defs><path d="M74.511,52.024v5.041H6.351V52.024h68.16Z" transform="translate(0 21.624)" fill="#b8d0f3"/><g transform="translate(0 0)"><g clip-path="url(#a)"><path d="M67.034,1.311v69.5h-38V17.338A16.041,16.041,0,0,1,45.065,1.311Z" transform="translate(10.756 0.486)" fill="#b8d0f3"/><path d="M22.864,25.9a5.718,5.718,0,0,0-2.624.691,5.178,5.178,0,0,0-2.487-.691c-3.869,0-6.91,3.869-6.91,8.7s3.041,8.706,6.91,8.706a5.7,5.7,0,0,0,2.624-.692A5.714,5.714,0,0,0,23,43.315c3.867,0,6.908-3.869,6.908-8.706-.138-4.835-3.179-8.7-7.048-8.7m16.442-8.567v53.61h-38V1.311H23.279A16.038,16.038,0,0,1,39.306,17.338" transform="translate(0.485 0.486)" fill="#fff"/><path d="M20.324,19.257c3.869,0,6.91,3.869,6.91,8.7s-3.041,8.7-6.91,8.7a5.707,5.707,0,0,1-2.624-.692,5.708,5.708,0,0,1-2.626.692c-3.869,0-6.908-3.869-6.908-8.7s3.04-8.7,6.908-8.7a5.724,5.724,0,0,1,2.626.691,6.208,6.208,0,0,1,2.624-.691" transform="translate(3.025 7.133)" fill="#b8d0f3"/><path d="M20.81,38.773a8.7,8.7,0,0,1-2.624-.414,8.07,8.07,0,0,1-2.626.414c-4.7,0-8.7-4.7-8.7-10.363s3.869-10.363,8.7-10.363a8.659,8.659,0,0,1,2.626.415,8.031,8.031,0,0,1,2.624-.415c4.7,0,8.706,4.7,8.706,10.363S25.647,38.773,20.81,38.773m-2.486-4.146a1.75,1.75,0,0,1,.829.138,4.248,4.248,0,0,0,1.8.414c2.9,0,5.25-3.038,5.25-6.908s-2.349-6.908-5.25-6.908a4.25,4.25,0,0,0-1.8.415,1.5,1.5,0,0,1-1.52,0,4.244,4.244,0,0,0-1.8-.415c-2.9,0-5.251,3.04-5.251,6.908s2.349,6.908,5.251,6.908a4.242,4.242,0,0,0,1.8-.414,1.035,1.035,0,0,1,.691-.138" transform="translate(2.54 6.685)" fill="#4e8ae1"/><path d="M15.61,23.459a1.641,1.641,0,0,1-1.658-1.381c-.415-2.072-.137-6.355,3.73-7.737a1.8,1.8,0,0,1,2.21.968,1.8,1.8,0,0,1-.966,2.21c-2.073.829-1.52,3.869-1.52,3.869a1.833,1.833,0,0,1-1.381,2.072Z" transform="translate(5.115 5.28)" fill="#4e8ae1"/><path d="M8.705,73.092H1.8A1.83,1.83,0,0,1,0,71.3V1.8A1.829,1.829,0,0,1,1.8,0H23.764A17.634,17.634,0,0,1,41.452,17.685a1.8,1.8,0,1,1-3.593,0A14.211,14.211,0,0,0,23.627,3.455H3.594V69.5H8.842a1.827,1.827,0,0,1,1.8,1.8,2.061,2.061,0,0,1-1.932,1.8" transform="translate(0 0)" fill="#4e8ae1"/><path d="M67.519,73.054H62.268a1.8,1.8,0,1,1,0-3.592h3.453V3.417H45.55A14.211,14.211,0,0,0,31.318,17.648v53.61a1.8,1.8,0,1,1-3.592,0V17.786A17.632,17.632,0,0,1,45.411.1H67.379a1.83,1.83,0,0,1,1.8,1.8V71.4a1.594,1.594,0,0,1-1.658,1.658" transform="translate(10.27 0.037)" fill="#4e8ae1"/><path d="M58.743,19.018H34.562a1.8,1.8,0,0,1,0-3.592H58.743a1.8,1.8,0,1,1,0,3.592" transform="translate(12.138 5.714)" fill="#4e8ae1"/><path d="M58.743,24.059H34.562a1.8,1.8,0,0,1,0-3.592H58.743a1.8,1.8,0,1,1,0,3.592" transform="translate(12.138 7.582)" fill="#4e8ae1"/><path d="M58.743,29.1H34.562a1.8,1.8,0,0,1,0-3.592H58.743a1.8,1.8,0,1,1,0,3.592" transform="translate(12.138 9.449)" fill="#4e8ae1"/><path d="M58.743,34.142H34.562a1.8,1.8,0,0,1,0-3.593H58.743a1.8,1.8,0,1,1,0,3.593" transform="translate(12.138 11.316)" fill="#4e8ae1"/><path d="M58.743,39.183H34.562a1.8,1.8,0,0,1,0-3.593H58.743a1.8,1.8,0,1,1,0,3.593" transform="translate(12.138 13.183)" fill="#4e8ae1"/><path d="M58.743,44.224H34.562a1.8,1.8,0,0,1,0-3.593H58.743a1.8,1.8,0,1,1,0,3.593" transform="translate(12.138 15.051)" fill="#4e8ae1"/><path d="M58.743,49.265H34.562a1.8,1.8,0,0,1,0-3.593H58.743a1.8,1.8,0,1,1,0,3.593" transform="translate(12.138 16.918)" fill="#4e8ae1"/><path d="M31.016,44.224H6.836a1.8,1.8,0,0,1,0-3.593h24.18a1.8,1.8,0,1,1,0,3.593" transform="translate(1.867 15.051)" fill="#4e8ae1"/><path d="M31.016,49.265H6.836a1.8,1.8,0,0,1,0-3.593h24.18a1.8,1.8,0,1,1,0,3.593" transform="translate(1.867 16.918)" fill="#4e8ae1"/><path d="M70.809,61.214H6.838a1.829,1.829,0,0,1-1.8-1.8V52.509a1.828,1.828,0,0,1,1.8-1.8H70.809a1.829,1.829,0,0,1,1.8,1.8v6.908a2.05,2.05,0,0,1-1.8,1.8M8.633,57.761H69.151V54.307H8.633Z" transform="translate(1.867 18.786)" fill="#4e8ae1"/></g></g></svg>