<svg xmlns="http://www.w3.org/2000/svg" xmlns:xlink="http://www.w3.org/1999/xlink" width="117.331" height="110" viewBox="0 0 117.331 110"><defs><clipPath id="a"><rect width="117.331" height="110" fill="none"/></clipPath></defs><path d="M17.5,6.069,21.243,17.4H14.971Z" transform="translate(15.133)" fill="#b8d0f3"/><path d="M42.79,6.069,46.533,17.4H40.261Z" transform="translate(40.695)" fill="#b8d0f3"/><g transform="translate(0 0)"><g clip-path="url(#a)"><path d="M34.148,17.4v3.667a8.566,8.566,0,0,1-8.491,8.491H20.832a8.566,8.566,0,0,1-8.491-8.491V17.4H34.148Z" transform="translate(11.202 15.794)" fill="#b8d0f3"/><path d="M59.438,17.4v3.667a8.566,8.566,0,0,1-8.491,8.491H46.122a8.566,8.566,0,0,1-8.491-8.491V17.4H59.438Z" transform="translate(34.158 15.794)" fill="#b8d0f3"/><path d="M34.757,8.6l4.825,40.911H27.616L32.441,8.6Z" transform="translate(25.067 7.805)" fill="#b8d0f3"/><path d="M8.345,58.905H13.17V54.08H8.345ZM13.17,46.747H8.345v4.825H13.17Zm0-7.141H8.345v4.825H13.17Zm19.3-28.947L27.644,32.275H22.819V35.94a8.566,8.566,0,0,0,8.489,8.493h4.826a8.568,8.568,0,0,0,8.491-8.493V32.275H39.8ZM63.732,56.4,58.905,15.291H56.394L51.572,56.4ZM80.714,10.659,75.887,32.275H71.061V35.94a8.571,8.571,0,0,0,8.493,8.493h4.825A8.568,8.568,0,0,0,92.87,35.94V32.275H88.045Zm33.77-4.437v71.6a5.19,5.19,0,0,1-5.21,5.21H6.222a5.189,5.189,0,0,1-5.21-5.21V6.222a5.189,5.189,0,0,1,5.21-5.21H109.274a5.19,5.19,0,0,1,5.21,5.21M59.1,73.573a2.7,2.7,0,1,0-2.705,2.7,2.639,2.639,0,0,0,2.705-2.7" transform="translate(0.919 0.918)" fill="#fff"/><path d="M31.329,37.631a2.7,2.7,0,1,1-2.7,2.7,3.075,3.075,0,0,1,2.7-2.7" transform="translate(25.986 34.157)" fill="#4e8ae1"/><rect width="4.825" height="4.825" transform="translate(9.262 54.999)" fill="#4e8ae1"/><rect width="4.825" height="4.825" transform="translate(9.262 47.666)" fill="#4e8ae1"/><rect width="4.825" height="4.825" transform="translate(9.262 40.525)" fill="#4e8ae1"/><path d="M26.675,32.405H21.851a10.378,10.378,0,0,1-10.42-10.422V18.317a1.821,1.821,0,0,1,1.929-1.929H35.167A1.823,1.823,0,0,1,37.1,18.317v3.667A10.63,10.63,0,0,1,26.675,32.405M15.29,20.247v1.736a6.508,6.508,0,0,0,6.561,6.562h4.825a6.509,6.509,0,0,0,6.562-6.562V20.247Z" transform="translate(10.376 14.875)" fill="#4e8ae1"/><path d="M41.926,13.743H32.277a1.823,1.823,0,0,1-1.929-1.931,1.821,1.821,0,0,1,1.929-1.929H40v-2.9a1.823,1.823,0,0,1,1.929-1.931h19.3a1.824,1.824,0,0,1,1.931,1.931,1.824,1.824,0,0,1-1.931,1.931H43.856v2.894a1.824,1.824,0,0,1-1.931,1.931" transform="translate(27.547 4.59)" fill="#4e8ae1"/><path d="M46.031,13.743H36.382a1.823,1.823,0,0,1-1.929-1.931V8.918H14.575a1.824,1.824,0,0,1-1.931-1.931,1.824,1.824,0,0,1,1.931-1.931H36.382a1.824,1.824,0,0,1,1.931,1.931v2.9h7.719a1.823,1.823,0,0,1,1.931,1.929,1.935,1.935,0,0,1-1.931,1.931" transform="translate(11.477 4.59)" fill="#4e8ae1"/><path d="M27.868,30.724a1.852,1.852,0,0,1-1.736-1.351L21.115,14.322,17.833,29.181a2.114,2.114,0,0,1-2.316,1.543,2.116,2.116,0,0,1-1.543-2.316L18.8,6.6a2.052,2.052,0,0,1,1.736-1.543,2.1,2.1,0,0,1,1.931,1.353L29.8,28.218a2.006,2.006,0,0,1-1.158,2.507c-.387-.193-.58,0-.773,0" transform="translate(12.657 4.591)" fill="#4e8ae1"/><path d="M51.965,32.405H47.141a10.378,10.378,0,0,1-10.42-10.422V18.317a1.822,1.822,0,0,1,1.929-1.929H60.457a1.823,1.823,0,0,1,1.931,1.929v3.667A10.631,10.631,0,0,1,51.965,32.405M40.58,20.247v1.736a6.509,6.509,0,0,0,6.561,6.562h4.825a6.508,6.508,0,0,0,6.562-6.562V20.247Z" transform="translate(33.332 14.875)" fill="#4e8ae1"/><path d="M53.158,30.724a1.852,1.852,0,0,1-1.736-1.351L46.4,14.322,43.123,29.181a1.968,1.968,0,1,1-3.859-.773L44.089,6.6a2.05,2.05,0,0,1,1.736-1.543,2.1,2.1,0,0,1,1.931,1.353L54.9,28.218a2.006,2.006,0,0,1-1.158,2.507c-.193-.193-.385,0-.58,0" transform="translate(35.613 4.591)" fill="#4e8ae1"/><path d="M44.5,71.033a2.326,2.326,0,0,1-1.931-1.353L34.653,45.558a1.953,1.953,0,1,1,3.667-1.349L46.231,68.33a2.006,2.006,0,0,1-1.156,2.509.709.709,0,0,1-.58.195" transform="translate(31.345 38.966)" fill="#4e8ae1"/><path d="M21.318,71.033a.707.707,0,0,1-.58-.195A1.932,1.932,0,0,1,19.58,68.33l7.913-24.121a1.953,1.953,0,1,1,3.667,1.349L23.247,69.681a2.321,2.321,0,0,1-1.929,1.353" transform="translate(17.664 38.966)" fill="#4e8ae1"/><path d="M77.293,59.5H14.576a1.93,1.93,0,1,1,0-3.859H77.293a1.93,1.93,0,1,1,0,3.859" transform="translate(11.478 50.502)" fill="#4e8ae1"/><path d="M83.947,37.95H1.929a1.93,1.93,0,0,1,0-3.859H83.947a1.93,1.93,0,1,1,0,3.859" transform="translate(0 30.944)" fill="#4e8ae1"/><path d="M68.177,37.95H51.195a1.93,1.93,0,1,1,0-3.859H68.177a1.93,1.93,0,1,1,0,3.859" transform="translate(44.717 30.944)" fill="#4e8ae1"/><path d="M110.193,85.877H7.141A7.251,7.251,0,0,1,0,78.737V7.142A7.252,7.252,0,0,1,7.141,0H110.193a7.252,7.252,0,0,1,7.141,7.142V78.737a7.251,7.251,0,0,1-7.141,7.141M7.141,3.861A3.384,3.384,0,0,0,3.859,7.142V78.737a3.383,3.383,0,0,0,3.281,3.281H110.193a3.383,3.383,0,0,0,3.281-3.281V7.142a3.384,3.384,0,0,0-3.281-3.281Z" transform="translate(0 0)" fill="#4e8ae1"/><path d="M40.5,52.552a2.051,2.051,0,0,1-1.931-1.736L34.517,15.884,30.465,50.816a2.26,2.26,0,0,1-2.123,1.736A2.263,2.263,0,0,1,26.6,50.428L31.43,9.323a2.049,2.049,0,0,1,1.929-1.736h2.509A2.049,2.049,0,0,1,37.8,9.323l4.826,41.105a1.918,1.918,0,0,1-1.738,2.123c-.193-.195-.193,0-.385,0" transform="translate(24.149 6.886)" fill="#4e8ae1"/><path d="M65.562,32.891H19.632a1.929,1.929,0,1,1,0-3.857h45.93a1.822,1.822,0,0,1,1.931,1.927,1.934,1.934,0,0,1-1.931,1.931" transform="translate(16.069 26.354)" fill="#4e8ae1"/></g></g></svg>