<svg xmlns="http://www.w3.org/2000/svg" xmlns:xlink="http://www.w3.org/1999/xlink" width="84.125" height="80" viewBox="0 0 84.125 80"><defs><clipPath id="a"><rect width="84.125" height="80" fill="none"/></clipPath></defs><g transform="translate(0 0)"><g transform="translate(0 0)" clip-path="url(#a)"><path d="M21.544,5.467A9.308,9.308,0,0,1,19.821,16.59,9.542,9.542,0,0,1,8.7,18.313a71.058,71.058,0,0,0,6.891-5.953,71.061,71.061,0,0,0,5.953-6.893" transform="translate(4.929 3.097)" fill="#fff"/><path d="M17.424,14.162a71.245,71.245,0,0,1-6.891,5.953,11.225,11.225,0,0,1-2.35-1.723,9.094,9.094,0,0,1-1.725-2.35A9.388,9.388,0,0,1,8.337,5.076,9.58,9.58,0,0,1,19.46,3.352a11.225,11.225,0,0,1,2.35,1.723,9.09,9.09,0,0,1,1.723,2.35c-1.723,1.88-3.76,4.386-6.11,6.736" transform="translate(3.099 1.295)" fill="#fff"/><path d="M50.8,32.367a5.8,5.8,0,1,1-5.8,5.8,5.8,5.8,0,0,1,5.8-5.8" transform="translate(25.496 18.338)" fill="#b8d0f3"/><path d="M42.776,44.767a2.973,2.973,0,0,1,2.975,2.976,2.879,2.879,0,0,1-2.975,2.976A2.974,2.974,0,0,1,39.8,47.743a2.88,2.88,0,0,1,2.976-2.976" transform="translate(22.549 25.363)" fill="#b8d0f3"/><path d="M4.176,37.267A2.976,2.976,0,1,1,1.2,40.243a2.974,2.974,0,0,1,2.975-2.976" transform="translate(0.68 21.114)" fill="#b8d0f3"/><path d="M27.686,41.823l-4.7,4.7L18.756,50.6,9.2,41.04l4.228-4.073,4.7-4.7Z" transform="translate(5.212 18.281)" fill="#b8d0f3"/><path d="M25.65,46.19,36.772,35.067c-4.7,15.822.627,18.642-3.76,23.185L23.3,48.539Z" transform="translate(13.201 19.868)" fill="#fff"/><path d="M26.429,21.267,15.306,32.39l-2.193,2.193L3.4,24.87c4.388-4.386,7.206,1.1,23.029-3.6" transform="translate(1.926 12.049)" fill="#fff"/><path d="M41.21,31.823l-6.11-6.11c4.385-4.386,8.146-5.013,9.556-3.6,1.567,1.723.627,5.64-3.446,9.713" transform="translate(19.887 12.146)" fill="#b8d0f3"/><path d="M34.813,12.237c1.567,1.567.627,5.483-3.6,9.556l-6.11-6.11c4.386-4.23,8.146-5.013,9.713-3.446" transform="translate(14.221 6.51)" fill="#b8d0f3"/><path d="M50.9,30.277,39.932,41.243,28.653,52.365l-2.195,2.35-2.5,2.35L18,51.112l4.7-4.7L44.788,24.167Z" transform="translate(10.198 13.692)" fill="#b8d0f3"/><path d="M40.9,20.22,18.808,42.465l-4.7,4.7L8,41.056l2.507-2.507L12.7,36.356,23.822,25.233,34.788,14.267Z" transform="translate(4.533 8.083)" fill="#b8d0f3"/><path d="M50.169,19.466,40.3,29.336a7.116,7.116,0,0,0,.472-9.869c-2.663-2.663-7.05-2.35-9.871.47l9.871-9.869Z" transform="translate(17.506 5.703)" fill="#b8d0f3"/><path d="M41.6,16.749c2.662,2.663,2.35,7.05-.472,9.869s-7.361,3.133-9.869.47c-2.663-2.663-2.35-7.05.47-9.869a6.837,6.837,0,0,1,9.871-.47" transform="translate(16.674 8.421)" fill="#fff"/><path d="M49.364,25.766l-2.82,2.82L24.457,50.832,14.9,41.275l22.09-22.089,2.818-2.82c-2.818,2.82-3.133,7.363-.468,9.869a7.31,7.31,0,0,0,10.024-.47" transform="translate(8.441 9.273)" fill="#b8d0f3"/><path d="M52.14,6.9c2.507,2.35.94,8.616-5.483,15.039L37.1,12.382C43.835,5.646,49.79,4.393,52.14,6.9" transform="translate(21.019 3.231)" fill="#b8d0f3"/><path d="M13.849,37.385a1.908,1.908,0,0,1-1.408-.627L2.727,27.046a2.333,2.333,0,0,1-.627-1.41,1.705,1.705,0,0,1,.627-1.41c2.665-2.663,5.17-2.507,8.3-2.35A41.03,41.03,0,0,0,26.7,20a1.982,1.982,0,0,1,1.253,3.76,46.189,46.189,0,0,1-17.074,2.037,8.294,8.294,0,0,0-3.6.157l7.99,7.99a1.986,1.986,0,0,1,0,2.82,2.809,2.809,0,0,1-1.41.627" transform="translate(1.19 11.283)" fill="#4e8ae1"/><path d="M47.378,24.732a1.909,1.909,0,0,1-1.41-.627,1.986,1.986,0,0,1,0-2.82c5.8-5.8,6.893-10.966,5.483-12.376a2.61,2.61,0,0,0-1.723-.627c-2.821,0-6.738,2.35-10.5,6.11a1.994,1.994,0,0,1-2.82-2.82c4.7-4.7,9.4-7.206,13.316-7.206A6.267,6.267,0,0,1,54.27,6.09c1.725,1.723,2.037,4.7.942,7.99a27.14,27.14,0,0,1-6.58,9.869,1.29,1.29,0,0,1-1.253.783" transform="translate(20.297 2.474)" fill="#4e8ae1"/><path d="M39.278,34.985a1.908,1.908,0,0,1-1.408-.627,1.986,1.986,0,0,1,0-2.82L49.148,20.26l-6.736-6.736L31.132,24.8a1.994,1.994,0,0,1-2.82-2.82L41,9.294a2.325,2.325,0,0,1,1.408-.627,1.911,1.911,0,0,1,1.41.627l9.556,9.556a1.986,1.986,0,0,1,0,2.82L40.688,34.359a1.911,1.911,0,0,1-1.41.627" transform="translate(15.708 4.91)" fill="#4e8ae1"/><path d="M36.51,31.469h0a8.408,8.408,0,0,1-5.953-2.35,7.91,7.91,0,0,1-2.35-6.266,9.652,9.652,0,0,1,2.82-6.266,9.364,9.364,0,0,1,6.736-2.82,8.408,8.408,0,0,1,5.953,2.35,7.91,7.91,0,0,1,2.35,6.266,9.652,9.652,0,0,1-2.82,6.266,10.364,10.364,0,0,1-6.736,2.82m1.253-14.1a5.609,5.609,0,0,0-3.916,1.723,5.971,5.971,0,0,0-1.723,3.76A4.712,4.712,0,0,0,33.377,26.3a4.374,4.374,0,0,0,3.133,1.253,5.339,5.339,0,0,0,3.916-1.723,5.971,5.971,0,0,0,1.723-3.76A4.145,4.145,0,0,0,40.9,18.78a3.944,3.944,0,0,0-3.133-1.41" transform="translate(15.97 7.8)" fill="#4e8ae1"/><path d="M41.989,34.479a1.911,1.911,0,0,1-1.41-.627,1.986,1.986,0,0,1,0-2.82c3.6-3.6,3.916-6.423,3.446-6.893a1.622,1.622,0,0,0-.628-.157c-1.252,0-3.445.94-6.266,3.76a1.993,1.993,0,0,1-2.818-2.82c3.133-3.133,6.266-4.856,8.929-4.856A4.484,4.484,0,0,1,46.53,21.32c2.508,2.663,1.1,7.676-3.6,12.376,0,.627-.47.783-.94.783" transform="translate(19.108 11.369)" fill="#4e8ae1"/><path d="M31.989,24.579a1.911,1.911,0,0,1-1.41-.627,1.986,1.986,0,0,1,0-2.82c3.6-3.6,3.916-6.423,3.446-6.893a1.622,1.622,0,0,0-.628-.157c-1.252,0-3.445.94-6.266,3.76a1.993,1.993,0,0,1-2.818-2.82c3.133-3.133,6.266-4.856,9.085-4.856a4.489,4.489,0,0,1,3.291,1.253c2.507,2.663,1.1,7.676-3.6,12.376a1,1,0,0,1-1.1.783" transform="translate(13.442 5.76)" fill="#4e8ae1"/><path d="M33.835,60.9h0a1.7,1.7,0,0,1-1.408-.627l-9.714-9.713a1.994,1.994,0,0,1,2.82-2.82l7.99,7.99a12.242,12.242,0,0,0,.157-3.6,46.751,46.751,0,0,1,2.037-17.076,1.982,1.982,0,0,1,3.761,1.253,41.044,41.044,0,0,0-1.881,15.666c.157,3.133.315,5.64-2.35,8.3a1.911,1.911,0,0,1-1.41.627" transform="translate(12.535 19.097)" fill="#4e8ae1"/><path d="M14.845,49.767a1.908,1.908,0,0,1-1.408-.627l-6.111-6.11a2.331,2.331,0,0,1-.625-1.41,1.911,1.911,0,0,1,.625-1.41L34.27,13.579a1.986,1.986,0,0,1,2.82,0l6.111,6.11a1.986,1.986,0,0,1,0,2.82L20.8,44.6a1.994,1.994,0,0,1-2.821-2.82L38.815,20.942l-3.291-3.29L11.555,41.778l4.7,4.7a1.986,1.986,0,0,1,0,2.82,2.519,2.519,0,0,1-1.41.47" transform="translate(3.796 7.361)" fill="#4e8ae1"/><path d="M19.493,53.369a1.914,1.914,0,0,1-1.41-.627L8.527,43.186a2.333,2.333,0,0,1-.627-1.41,1.914,1.914,0,0,1,.627-1.41L17.3,31.594a2.333,2.333,0,0,1,1.41-.627,1.914,1.914,0,0,1,1.41.627l9.556,9.556a1.994,1.994,0,0,1-2.82,2.82l-7.99-8.3-6.11,6.11,6.736,6.736,2.82-2.82a1.994,1.994,0,1,1,2.82,2.82l-4.23,4.23a2.333,2.333,0,0,1-1.41.627" transform="translate(4.476 17.545)" fill="#4e8ae1"/><path d="M24.747,59.824a1.919,1.919,0,0,1-1.411-.627l-6.108-6.11a2.335,2.335,0,0,1-.628-1.41,1.916,1.916,0,0,1,.628-1.41L44.014,23.479a1.986,1.986,0,0,1,2.82,0l6.111,6.11A2.333,2.333,0,0,1,53.572,31a1.92,1.92,0,0,1-.627,1.41L26.157,59.2a1.527,1.527,0,0,1-1.41.627m-3.29-7.99,3.29,3.29L48.872,31l-3.291-3.29Z" transform="translate(9.404 12.97)" fill="#4e8ae1"/><path d="M19.018,10.6a2.253,2.253,0,0,1-1.1-.313,1.846,1.846,0,0,1-.472-2.663,14.433,14.433,0,0,0,2.038-3.29A14.449,14.449,0,0,0,16.2,6.371a1.826,1.826,0,0,1-2.663-.47,1.826,1.826,0,0,1,.472-2.663c4.541-3.29,7.361-4.073,9.086-2.35s.938,4.543-2.35,9.086a3.29,3.29,0,0,1-1.725.627" transform="translate(7.456 0)" fill="#4e8ae1"/><path d="M6.115,20.642a3.393,3.393,0,0,1-2.193-.783c-1.723-1.723-.94-4.543,2.35-9.086a1.846,1.846,0,0,1,2.663-.47,1.847,1.847,0,0,1,.47,2.663,14.356,14.356,0,0,0-2.037,3.29,14.378,14.378,0,0,0,3.288-2.037,1.913,1.913,0,1,1,2.195,3.133c-2.82,2.193-5.013,3.29-6.736,3.29" transform="translate(1.718 5.624)" fill="#4e8ae1"/><path d="M13.788,22.2a10.842,10.842,0,0,1-5.326-1.41,1.963,1.963,0,0,1,1.88-3.446,7.649,7.649,0,0,0,8.929-1.41,7.859,7.859,0,0,0,1.408-8.929,1.964,1.964,0,0,1,3.448-1.88A11.4,11.4,0,0,1,22.091,18.6a11.8,11.8,0,0,1-8.3,3.6" transform="translate(4.228 2.339)" fill="#4e8ae1"/><path d="M11.28,22.842a1.987,1.987,0,0,1-.94-.157,15.844,15.844,0,0,1-2.82-2.037,9.3,9.3,0,0,1-2.037-2.82A11.4,11.4,0,0,1,7.521,4.357a11.232,11.232,0,0,1,8.146-3.29A12.11,12.11,0,0,1,20.992,2.32a15.853,15.853,0,0,1,2.821,2.037,9.3,9.3,0,0,1,2.037,2.82,1.923,1.923,0,0,1-.158,2.037,59.2,59.2,0,0,1-6.108,7.05,59.345,59.345,0,0,1-7.05,6.11,2.083,2.083,0,0,1-1.253.47M15.667,4.827A7.46,7.46,0,0,0,10.341,7.02a7.862,7.862,0,0,0-1.41,8.929,7.328,7.328,0,0,0,1.41,1.88,2.729,2.729,0,0,0,.783.627c1.723-1.41,3.76-3.133,5.64-5.013A54.022,54.022,0,0,0,21.775,7.8c-.155-.313-.468-.47-.625-.783a9.764,9.764,0,0,0-1.88-1.41,9.293,9.293,0,0,0-3.6-.783" transform="translate(2.349 0.604)" fill="#4e8ae1"/><path d="M4.856,45.78a4.856,4.856,0,1,1,4.858-4.856A4.881,4.881,0,0,1,4.856,45.78m0-5.8a.94.94,0,0,0,0,1.88.94.94,0,1,0,0-1.88" transform="translate(0 20.434)" fill="#4e8ae1"/><path d="M43.457,53.28a4.856,4.856,0,1,1,4.856-4.856,4.987,4.987,0,0,1-4.856,4.856m0-5.953a.94.94,0,1,0,0,1.88.9.9,0,0,0,.94-.94,1.011,1.011,0,0,0-.94-.94" transform="translate(21.869 24.683)" fill="#4e8ae1"/><path d="M51.533,46.733A7.833,7.833,0,1,1,59.366,38.9a7.857,7.857,0,0,1-7.833,7.833m0-11.749A3.916,3.916,0,1,0,55.449,38.9a3.878,3.878,0,0,0-3.916-3.916" transform="translate(24.759 17.601)" fill="#4e8ae1"/></g></g></svg>