<svg xmlns="http://www.w3.org/2000/svg" xmlns:xlink="http://www.w3.org/1999/xlink" width="464.066" height="570.069" viewBox="0 0 464.066 570.069"><defs><clipPath id="a"><rect width="464.066" height="351.168" fill="none"/></clipPath></defs><g transform="translate(5748 10245)"><g transform="translate(-5748 -10130.221)"><g clip-path="url(#a)"><path d="M460.508,288.711l.293-31.575.02-2.091.107-11.539L461,235.59l3.063-.855v-6.694l-65.816-17.228,20.322-7.244c22.1-10.368,24.356-66.927,0-73.836l-22.688-4.575-21.855-4.406,2.809-.571,4.169-.847h0L397.387,116c.213-.045.432-.095.655-.149.08-.02.163-.044.244-.065.145-.037.289-.074.437-.116.1-.028.2-.06.3-.09.135-.04.269-.079.406-.123.11-.036.222-.076.333-.114.13-.044.259-.086.39-.134s.238-.091.357-.137.255-.1.384-.148.25-.107.376-.161.249-.106.375-.163.265-.125.4-.188.244-.116.366-.178.271-.141.406-.213.243-.128.364-.2c.139-.077.278-.16.418-.242.118-.07.236-.138.355-.211.142-.088.284-.181.426-.273.116-.076.232-.15.348-.229.142-.1.284-.2.427-.3.115-.083.23-.165.345-.252.143-.107.286-.219.428-.332.112-.089.225-.178.336-.27.144-.119.287-.243.43-.367.109-.1.218-.191.326-.29.144-.131.286-.266.428-.4.106-.1.211-.2.316-.31.142-.143.283-.291.424-.44.1-.109.2-.218.3-.33q.21-.234.417-.479.147-.174.293-.352.206-.255.408-.519.141-.185.28-.374.2-.276.4-.562c.089-.129.176-.261.263-.393.131-.2.26-.4.387-.608.085-.137.167-.277.25-.418.125-.213.248-.428.369-.648.079-.146.157-.295.235-.445.119-.228.237-.459.352-.695.074-.153.146-.31.218-.466.112-.245.224-.491.332-.745.068-.16.133-.324.2-.487.106-.263.211-.528.312-.8.061-.166.119-.337.179-.507.1-.281.2-.564.288-.855.055-.173.106-.351.159-.528.09-.3.179-.6.263-.913.048-.178.092-.363.137-.546.081-.321.161-.644.235-.977.041-.182.077-.371.115-.557.071-.345.142-.69.205-1.047.033-.186.061-.379.092-.568.061-.37.121-.74.173-1.122.025-.185.045-.378.068-.566.049-.4.1-.8.137-1.212.018-.178.029-.365.045-.546.036-.434.073-.87.1-1.319.01-.163.014-.334.022-.5.023-.48.046-.962.057-1.46,0-.119,0-.244,0-.365.019-1.2.009-2.445-.048-3.749a63.221,63.221,0,0,0-1.421-11.069h0q-.357-1.587-.783-3.048c-.006-.023-.013-.047-.02-.07q-.42-1.438-.9-2.756l-.036-.1q-.479-1.31-1.006-2.5l-.035-.077q-.535-1.2-1.115-2.287h0c-3.933-7.357-9.175-10.555-12.726-9.834L362.9,38.651,266.752,0,108.635,32.129l-46.286,9.4v63.492l9.288,3.733-30.619,4.334L.52,118.825v9.328l5.357,1.58v47.551L.52,176.665v9.286l17.934,5.087-5.193.714a9.88,9.88,0,0,0-1.014.227c-.1.027-.2.061-.3.092-.233.072-.464.15-.69.238-.1.041-.206.083-.308.127-.227.1-.449.2-.668.316-.085.044-.169.086-.253.132-.28.154-.555.321-.822.5l-.045.029c-.3.207-.6.432-.888.672l-.008.007c-.273.228-.538.474-.8.73-.038.037-.075.077-.112.115q-.347.35-.675.732l-.1.115c-7.311,8.685-8.152,29.2-4.406,44.908.008.032.015.063.023.094a60.313,60.313,0,0,0,1.91,6.438l.066.181q.348.951.723,1.855c.023.056.047.111.071.167a36.627,36.627,0,0,0,1.634,3.41c.034.063.068.127.1.189q.415.747.855,1.433c.048.076.1.151.145.225.3.454.6.892.91,1.3l.1.121q.456.594.935,1.125c.033.036.065.076.1.112.324.353.657.677,1,.983.063.057.126.114.19.169a11.936,11.936,0,0,0,1.027.8c.059.041.119.078.178.118a10.088,10.088,0,0,0,1.121.655c.268.1,1.209.453,2.751,1.035l1.467.555,1.75.662,4.311,1.633,1.239.469,8.687,3.293,1.645.624,3.447,1.307,1.8.683,3.745,1.421,1.943.737c18.344,6.96,42.584,16.161,68,25.813l2.727,1.036c62.771,23.834,131.664,50,136.3,51.762.107.044.169.065.17.065h0l210.821-50.323v-6.686l-3.615.84.047-4.99Z" fill="#f9ab76"/><path d="M460.5,289.895l.087-9.309.013-1.462.01-1.086.087-9.368.023-2.5.211-22.662L461,235.59l3.063-.856v-6.693L398.25,210.812l-2.938,1.048L273.755,255.187l-12.906,4.6h0L18.457,191.037l-.492.068-4.7.646a10.149,10.149,0,0,0-1.014.227c-.1.028-.2.062-.3.092-.233.072-.464.15-.69.238-.1.041-.206.084-.308.128-.227.1-.449.2-.668.316-.084.043-.169.085-.252.131-.281.155-.555.321-.823.5-.015.01-.03.018-.044.028q-.456.312-.888.672l-.008.008c-.274.228-.539.473-.8.729-.038.038-.075.077-.112.115q-.346.351-.674.733l-.1.114c-.244.289-.481.589-.71.9l.036.014C.6,203.983-.918,217.95.53,231.031l-.008-.008c.006.055.016.108.023.163.163,1.455.371,2.894.607,4.314.053.323.11.64.167.96.256,1.437.536,2.858.863,4.233.008.031.015.062.023.094a60.382,60.382,0,0,0,1.91,6.438l.066.181q.348.951.723,1.854c.023.057.047.111.071.167a36.648,36.648,0,0,0,1.634,3.411l.1.188q.415.747.855,1.434c.048.076.1.15.146.225.3.454.6.891.909,1.3.032.042.064.08.1.121q.458.6.935,1.125c.033.037.065.076.1.112.324.353.657.678,1,.983.063.057.126.114.19.17a12.139,12.139,0,0,0,1.027.8c.059.041.119.078.178.117a9.928,9.928,0,0,0,1.121.655c.268.1,1.21.453,2.751,1.036l1.467.554,1.75.662,2.024.767,2.287.866,1.239.469,5.561,2.108,3.126,1.186,1.645.623,3.447,1.308,1.8.683,3.744,1.42,1.943.737,10.365,3.933,7.84,2.975,8.258,3.135,25.409,9.645,16.132,6.125,2.727,1.036,10.976,4.167,5.508,2.092c22.959,8.718,45.917,17.437,65.517,24.881l6.024,2.288,5.923,2.249,2.8,1.066,3.1,1.175,1.092.415,3.983,1.513,1.766.671,2.648,1.005,1.474.56,1.882.715,5.077,1.929.9.343,2.214.84.74.282,2.19.831,1.29.491,11.189,4.25c.107.043.169.064.171.064h0l210.821-50.323v-6.687l-3.614.84.046-4.951Z" fill="#88c8c9"/><path d="M253.245,351.168h0a13.384,13.384,0,0,1-1.273-.939c-.12-.1-.239-.2-.358-.308q-.47-.413-.92-.877c-.1-.106-.207-.206-.309-.316q-.557-.6-1.083-1.284c-.108-.14-.212-.291-.318-.436q-.369-.5-.722-1.04c-.133-.2-.266-.407-.395-.618-.218-.353-.428-.721-.636-1.094-.186-.334-.368-.674-.546-1.023-.187-.367-.371-.737-.549-1.119-.154-.33-.3-.668-.449-1.009-.111-.258-.219-.519-.326-.783-.157-.386-.314-.772-.463-1.171-.011-.03-.021-.061-.033-.091-.368-.995-.711-2.029-1.028-3.092-.033-.109-.067-.217-.1-.327q-.238-.819-.459-1.658c-.007-.026-.014-.053-.02-.079-.465-1.794-.862-3.66-1.189-5.573-2.421-14.187-.981-30.932,4.853-39.866C166.862,255.635,85.843,227.782,5.915,196.7.6,203.983-.919,217.95.529,231.031l-.007-.007c.006.054.016.107.022.162.164,1.455.372,2.894.607,4.315.054.322.111.639.168.959.256,1.438.535,2.858.863,4.233.008.032.015.063.023.094a60.382,60.382,0,0,0,1.91,6.438l.066.181q.348.951.723,1.855c.023.056.047.111.071.167a36.748,36.748,0,0,0,1.634,3.41c.034.063.068.127.1.188q.415.747.855,1.434c.048.076.1.15.145.225.3.454.6.891.91,1.3.032.041.064.079.095.121q.458.594.936,1.124c.033.037.065.076.1.113.324.353.657.677,1,.982.063.057.126.115.19.17a12.139,12.139,0,0,0,1.027.8c.059.041.119.078.178.118a10.088,10.088,0,0,0,1.121.655c.268.1,1.209.452,2.751,1.035l1.467.554,1.75.663,2.024.766,2.287.866,1.239.47,5.561,2.108,3.126,1.185,1.645.624,3.447,1.307,1.8.683,3.745,1.421,1.943.737,10.364,3.932,7.84,2.976,8.259,3.134,25.408,9.646c5.293,2.009,10.686,4.056,16.132,6.125l2.728,1.035,10.976,4.168,5.508,2.091,65.517,24.881,6.024,2.288,5.922,2.25,2.8,1.065,3.1,1.176,1.092.415,3.983,1.513,1.766.67,2.648,1.006,1.474.56,1.882.715,5.077,1.928.9.343,2.213.841.741.281,2.189.832,1.291.49,11.189,4.25.17.065Z" fill="#2a7a7c"/><path d="M262.306,291.1s-12.551,3.138-10.856,26.2c1.618,22.035,9.2,24.13,9.2,24.13l10.579-2.458L460.452,295l.045-4.951,0-.153.087-9.308.013-1.462.009-1.087.087-9.367.025-2.5.21-22.662L461,235.59Z" fill="#f7f6f9"/><path d="M457.608,255.83c-32.944,7.985-65.716,16.986-98.091,27.016q49.375-10.892,98.07-24.8l-.082,8.812c-19.048,4.108-38.043,8.974-56.679,14.631,19-3.238,37.969-7.239,56.655-12.005l-.085,9.1a247.614,247.614,0,0,0-32.572,8.032,250.024,250.024,0,0,0,32.547-5.276l-.074,7.972c-36.995,6.924-73.661,15.407-110.018,25.149,36.983-6.508,73.634-14.29,110-23.609l-.023,2.416-187.3,44.015a27.935,27.935,0,0,1-3.111-5.793,444.953,444.953,0,0,0,65.413-16.376,444.716,444.716,0,0,0-65.59,15.914,29.117,29.117,0,0,1-1.825-9.239,81.641,81.641,0,0,0,24.969-7.981,81.606,81.606,0,0,0-24.98,6.564A28.4,28.4,0,0,1,268.05,307.6a542.593,542.593,0,0,0,70.739-19.133,542.672,542.672,0,0,0-70.284,18.3,26.262,26.262,0,0,1,10.425-10.141c29.517-9.682,143.167-42.982,178.785-52.288Z" fill="#fff"/><path d="M408.376,145.51c-5.848,1.893-147.527,52.014-147.527,52.014v.133l-7.6-2.025L5.879,129.733v47.55l254.97,72.437L410.17,196.483a16.553,16.553,0,0,0,3.143-1.734c8.441-17.357,7.5-44.7-4.937-49.239" fill="#fff"/><path d="M408.376,145.51c-5.848,1.893-147.527,52.014-147.527,52.014v52.2L410.17,196.483a16.553,16.553,0,0,0,3.143-1.734c8.441-17.357,7.5-44.7-4.937-49.239" fill="#dadada"/><path d="M67.409,257.334l118.426,43.144v-19.1L67.409,236.736Z" fill="#edbf34"/><path d="M381.888,289.6a587.3,587.3,0,0,0-79.015,20.3,587.145,587.145,0,0,0,79.015-20.3" fill="#fff"/><path d="M167.217,147.18,71.639,108.759l-30.62,4.334a51.266,51.266,0,0,0,13.506,6.1c38.162,10.555,75.267,20.563,112.692,27.987" fill="#ec7004"/><path d="M257.273,144.475l-1.52.309-24.163,4.91-.366.074L209.1,154.263c6.129.843,12.275,1.617,18.454,2.275,53.918,4.777,121.916-5.642,168.326-31.38l-21.855-4.407L260.616,143.8Z" fill="#f79654"/><path d="M260.848,197.657v-.133S402.527,147.4,408.375,145.51c12.434,4.542,13.378,31.882,4.937,49.239,16.991-11.746,16.226-55.377-4.937-60.813-5.848,1.893-147.527,52.015-147.527,52.015l-57.716-14.883-13.674-3.525L.521,118.825v9.328l5.357,1.58,247.367,65.9Z" fill="#f79654"/><path d="M260.848,259.787V249.721L5.878,177.284l-5.357-.619v9.286l17.935,5.087Z" fill="#b9713f"/><path d="M415.483,86.323c-.006-.675-.022-1.362-.052-2.07a62.973,62.973,0,0,0-1.423-11.069h0c-.237-1.059-.5-2.075-.782-3.05-.007-.023-.013-.046-.02-.069q-.42-1.438-.9-2.757c-.011-.032-.023-.064-.035-.1q-.479-1.31-1.006-2.5l-.036-.077c-.356-.8-.73-1.565-1.114-2.286v0c-3.934-7.356-9.176-10.555-12.727-9.833L362.9,38.651,266.755,0,108.637,32.129h0L62.351,41.534v63.491l9.288,3.734,95.578,38.421,25.768,10.358,16.119-3.275,22.121-4.495.366-.074,24.163-4.91,1.519-.309,3.344-.679,113.412-23.045,2.735-.556,4.243-.862L397.388,116c.214-.045.431-.095.655-.15.082-.02.168-.045.253-.067.1-.026.208-.054.312-.082l.016,0,.1-.027c.1-.028.2-.06.3-.09.134-.04.268-.079.4-.123.109-.036.221-.076.333-.114.129-.044.258-.087.389-.134s.24-.092.36-.138.252-.095.38-.147.254-.108.38-.162.248-.106.373-.163.264-.124.4-.187.243-.116.367-.178.271-.141.4-.214.242-.127.364-.195c.138-.077.276-.159.416-.241.118-.07.238-.14.358-.213.14-.087.281-.179.423-.271.116-.076.233-.151.349-.231.143-.1.286-.2.43-.3.113-.082.228-.164.341-.249.144-.108.289-.222.432-.335.112-.088.223-.176.332-.268.146-.119.288-.243.432-.368.108-.1.218-.191.326-.289.143-.131.285-.267.427-.4.107-.1.211-.2.316-.309.142-.144.284-.292.425-.442.1-.108.2-.216.3-.327.142-.157.28-.318.419-.481.1-.116.2-.233.292-.351q.207-.255.41-.521.139-.183.277-.371c.135-.184.269-.372.4-.564.089-.129.176-.26.263-.393.13-.2.259-.4.387-.607.083-.137.167-.277.25-.418.125-.213.249-.429.37-.65.078-.145.156-.293.233-.441.12-.229.238-.46.353-.7.074-.153.145-.309.217-.466.112-.244.224-.491.332-.745.068-.159.133-.322.2-.485.106-.264.213-.53.313-.8.061-.164.118-.333.177-.5.1-.283.2-.567.289-.86.056-.172.107-.35.159-.525.091-.3.181-.6.263-.917.048-.177.091-.359.137-.539.082-.323.161-.647.237-.982.04-.183.075-.372.113-.558.071-.344.143-.689.206-1.046.032-.185.061-.377.092-.566.06-.371.12-.742.172-1.126.026-.182.044-.371.068-.555.049-.4.1-.805.139-1.221.017-.179.027-.365.043-.546.038-.435.073-.87.1-1.32.01-.163.014-.333.022-.5.023-.481.047-.963.057-1.461,0-.119,0-.244,0-.364.009-.554.015-1.111.009-1.686l0,.007" fill="#95b9ed"/><path d="M192.985,157.538c6.742-1.37,13.208-5.716,14.832-20.084a74.836,74.836,0,0,0,.3-11.568,63.068,63.068,0,0,0-2.1-14.234,34.215,34.215,0,0,0-4.859-10.659,19.563,19.563,0,0,0-8.169-6.947L62.351,41.533v5.49l121.4,47.9c3.942,1.664,16.167,8.969,17,28.125.87,19.979-3.1,27.288-9.317,27.288L62.351,98.424v6.6l9.288,3.734,95.578,38.421Z" fill="#4e8ae1"/><path d="M362.9,38.651h0q-9.159,1.9-18.482,3.85l8.149,3.01h0l-45.744,8.566L299.4,51.335C233.854,62.919,166.169,67.117,108.637,32.129h0L62.351,41.534,192.985,94.046l27.076-5.5,5.751-1.168,13.123-2.667,2.705-.549L369.158,58.249l1.41-.287L383.5,55.335l4.272-.868,9.619-1.954Z" fill="#71a1e7"/><path d="M200.75,123.05c-.834-19.156-13.058-26.462-17-28.126l-121.4-47.9v51.4l129.082,51.914c6.212,0,10.188-7.309,9.318-27.288" fill="#fff"/><path d="M415.483,86.323c-.006-.675-.022-1.362-.052-2.07a62.973,62.973,0,0,0-1.423-11.069h0c-.237-1.059-.5-2.075-.782-3.05-.007-.023-.013-.046-.02-.069q-.42-1.438-.9-2.757c-.011-.032-.023-.064-.035-.1q-.479-1.31-1.006-2.5l-.036-.077c-.356-.8-.73-1.565-1.114-2.286v0c-3.934-7.356-9.176-10.555-12.727-9.833l-9.62,1.954-4.272.868-12.928,2.627-1.41.287L241.641,84.16l-2.706.549-13.123,2.667-5.75,1.168-27.077,5.5a19.565,19.565,0,0,1,8.169,6.947,34.214,34.214,0,0,1,4.86,10.659,63.026,63.026,0,0,1,2.1,14.234,74.586,74.586,0,0,1-.3,11.568c-1.623,14.368-8.09,18.714-14.832,20.084l16.119-3.275,22.121-4.495.366-.074,24.163-4.91,1.519-.309,3.344-.679,113.412-23.045,2.735-.556,4.243-.862L397.388,116c.214-.045.431-.095.655-.15.082-.02.168-.045.253-.067.1-.026.208-.054.312-.082l.016,0,.1-.027c.1-.028.2-.06.3-.09.134-.04.268-.079.4-.123.109-.036.221-.076.333-.114.129-.044.258-.087.389-.134s.24-.092.36-.138.252-.095.38-.147.254-.108.38-.162.248-.106.373-.163.264-.124.4-.187.243-.116.367-.178.271-.141.4-.214.242-.127.364-.195c.138-.077.276-.159.416-.241.118-.07.238-.14.358-.213.14-.087.281-.179.423-.271.116-.076.233-.151.349-.231.143-.1.286-.2.43-.3.113-.082.228-.164.341-.249.144-.108.289-.222.432-.335.112-.088.223-.176.332-.268.146-.119.288-.243.432-.368.108-.1.218-.191.326-.289.143-.131.285-.267.427-.4.107-.1.211-.2.316-.309.142-.144.284-.292.425-.442.1-.108.2-.216.3-.327.142-.157.28-.318.419-.481.1-.116.2-.233.292-.351q.207-.255.41-.521.139-.183.277-.371c.135-.184.269-.372.4-.564.089-.129.176-.26.263-.393.13-.2.259-.4.387-.607.083-.137.167-.277.25-.418.125-.213.249-.429.37-.65.078-.145.156-.293.233-.441.12-.229.238-.46.353-.7.074-.153.145-.309.217-.466.112-.244.224-.491.332-.745.068-.159.133-.322.2-.485.106-.264.213-.53.313-.8.061-.164.118-.333.177-.5.1-.283.2-.567.289-.86.056-.172.107-.35.159-.525.091-.3.181-.6.263-.917.048-.177.091-.359.137-.539.082-.323.161-.647.237-.982.04-.183.075-.372.113-.558.071-.344.143-.689.206-1.046.032-.185.061-.377.092-.566.06-.371.12-.742.172-1.126.026-.182.044-.371.068-.555.049-.4.1-.805.139-1.221.017-.179.027-.365.043-.546.038-.435.073-.87.1-1.32.01-.163.014-.333.022-.5.023-.481.047-.963.057-1.461,0-.119,0-.244,0-.364.009-.554.015-1.111.009-1.686l0,.007" fill="#4e8ae1"/><path d="M352.571,45.511l-8.149-3.01-82.9-30.626-45.743,8.566,83.631,30.895,7.423,2.742Z" fill="#fff"/><path d="M91.68,44.176l46.693,17.249,7.269-1.585L98.949,42.591Z" fill="#fff"/><path d="M103.971,41.4l46.693,17.249,7.269-1.585L111.24,39.815Z" fill="#fff"/><path d="M239.848,130.95v0c-.066-1.354-.154-2.707-.282-4.053a97.723,97.723,0,0,0-4.121-20.684q-.542-1.679-1.159-3.328c-.159-.43-.317-.861-.484-1.288q-.24-.606-.491-1.207c-.4-.968-.814-1.931-1.261-2.877-.325-.688-.677-1.364-1.031-2.039a52.588,52.588,0,0,0-5.207-8.094l-5.75,1.169-1.24.252a45.258,45.258,0,0,1,5.715,7.872c.008.013.014.026.022.039a57.7,57.7,0,0,1,4.705,10.637l0,.007c.424,1.275.824,2.559,1.176,3.858a91.061,91.061,0,0,1,3.318,20.973q.053,1.809.007,3.611c0,.039,0,.077,0,.116q-.048,1.851-.21,3.689a36.662,36.662,0,0,1-2.334,10.17l.367-.075,6.633-1.348c.219-.789.409-1.585.582-2.385.061-.284.112-.57.168-.854.1-.513.2-1.026.279-1.543.058-.355.11-.711.16-1.069q.089-.649.162-1.3c.046-.412.093-.823.13-1.236.028-.324.049-.649.072-.974q.206-2.894.147-5.813v-.024q-.022-1.1-.076-2.194" fill="#f8b133"/><path d="M261.692,130.586q-.022-.874-.064-1.747c-.006-.111-.013-.221-.018-.332q-.052-.98-.125-1.958c-.044-.564-.086-1.129-.139-1.69a95.692,95.692,0,0,0-4.736-22.565q-.609-1.738-1.3-3.443t-1.48-3.377c-.4-.844-.832-1.672-1.278-2.493-.247-.453-.492-.907-.749-1.355a50.79,50.79,0,0,0-5.908-8.331l-4.255.865-2.706.55a3.183,3.183,0,0,0,.61.885,43.407,43.407,0,0,1,5.695,7.245v0c.493.776.958,1.569,1.407,2.372.051.091.1.182.154.274q.63,1.143,1.2,2.317c.07.143.138.287.207.431q.546,1.145,1.045,2.314c.063.149.122.3.184.448.334.808.658,1.62.958,2.444h0c.687,1.883,1.3,3.795,1.826,5.732a93.934,93.934,0,0,1,3.2,18.606v0c.08,1.295.118,2.59.13,3.883,0,.538.006,1.075,0,1.612-.006.415-.017.831-.032,1.245-.038,1.016-.089,2.03-.179,3.039a38.4,38.4,0,0,1-1.432,7.6l1.847-.375,1.52-.309,3.343-.679c.157-.736.293-1.476.414-2.22.045-.281.079-.565.12-.848.066-.459.134-.917.188-1.378.042-.363.074-.728.109-1.092s.074-.753.1-1.131c.032-.42.054-.84.077-1.261.017-.316.035-.632.046-.949.018-.472.029-.944.036-1.417,0-.256.008-.512.009-.768q0-.786-.012-1.572c0-.192-.008-.383-.013-.574" fill="#f8b133"/><path d="M380.993,105.525c-.051-1.075-.1-2.15-.177-3.223l-.025,0a145.09,145.09,0,0,0-3.3-22.369l.012,0c-.192-.84-.419-1.672-.626-2.509-.245-.985-.473-1.974-.739-2.954q-.753-2.787-1.62-5.543h0c-.032-.1-.057-.2-.088-.3-1.146-3.606-2.442-7.161-3.857-10.668l-1.41.286-4.784.973q2.213,5.34,3.966,10.851v.005q.865,2.706,1.617,5.445l.008.028q.753,2.745,1.4,5.518v0a139.406,139.406,0,0,1,3.31,22.479v.006q.1,1.476.159,2.953c.006.13.011.26.016.39q.054,1.32.084,2.642c.008.38.011.759.016,1.138.009.671.019,1.341.019,2.012,0,1.1-.013,2.2-.042,3.3q-.06,2.312-.2,4.62l.67-.137,1.369-.278,4.242-.861h0c.09-1.871.128-3.745.144-5.618.005-.546.007-1.09.006-1.635-.005-1.63-.032-3.26-.091-4.89-.02-.555-.047-1.11-.073-1.665" fill="#f8b133"/><path d="M400,102.627c-.015-.4-.044-.8-.062-1.2-.046-.994-.089-1.987-.154-2.98l-.028.006a145.1,145.1,0,0,0-3.14-22.052h.005q-.627-2.808-1.369-5.587c-.259-.972-.555-1.932-.834-2.9-.243-.843-.468-1.692-.727-2.531l-.013,0c-.112-.361-.2-.728-.319-1.088-1.1-3.452-2.331-6.858-3.674-10.221l-1.92.39-4.271.868q2.256,5.505,4.026,11.189,1.7,5.443,2.958,11.01h0a139.359,139.359,0,0,1,3.16,22.16h0q.177,2.883.232,5.771c0,.178.005.356.008.533.031,1.886.03,3.772-.019,5.658-.044,1.705-.128,3.409-.235,5.111l3.761-.765c.391-.082.8-.181,1.22-.3l.015,0c.423-.119.86-.255,1.306-.412.1-1.887.137-3.777.157-5.667.005-.517.009-1.033.009-1.55,0-1.816-.024-3.632-.092-5.446" fill="#f8b133"/><path d="M238.8,145.96c.061-.284.113-.569.168-.854.1-.513.2-1.026.279-1.542.058-.356.11-.712.16-1.069.06-.434.113-.869.162-1.3.046-.412.093-.823.13-1.236.029-.324.049-.649.072-.974q.205-2.894.147-5.813v-.023q-.022-1.1-.076-2.2v0l-6.087,1.237q.053,1.809.008,3.611c0,.039,0,.078,0,.116q-.048,1.851-.21,3.689a36.688,36.688,0,0,1-2.333,10.17l.366-.075,6.634-1.348c.219-.788.408-1.585.581-2.385" fill="#ef7e31"/><path d="M255.423,127.78v0c.081,1.3.118,2.591.13,3.883,0,.538.007,1.076,0,1.612q-.011.624-.032,1.245c-.039,1.016-.089,2.031-.18,3.039a38.275,38.275,0,0,1-1.432,7.6l1.848-.376,1.52-.308,3.342-.68c.157-.735.293-1.476.414-2.219.046-.282.08-.566.121-.849.066-.459.134-.917.187-1.378.043-.363.074-.727.109-1.091s.074-.753.1-1.131c.031-.42.054-.841.076-1.262.017-.316.035-.631.047-.948.018-.472.028-.944.036-1.417,0-.256.007-.512.008-.768q0-.786-.011-1.573c0-.191-.008-.382-.013-.574-.016-.582-.036-1.164-.065-1.747-.005-.11-.012-.221-.018-.331-.035-.654-.075-1.307-.125-1.959Z" fill="#ef7e31"/><path d="M381.157,112.08c-.005-1.63-.031-3.261-.09-4.89-.02-.555-.047-1.11-.074-1.665-.051-1.075-.1-2.15-.177-3.224l-.024.006-6.12,1.243v.006q.1,1.475.159,2.953c.006.13.011.26.016.39q.056,1.32.085,2.642c.008.379.011.759.015,1.138.01.67.02,1.341.019,2.012,0,1.1-.013,2.2-.042,3.3q-.06,2.312-.2,4.619l.67-.136,1.369-.278,4.242-.862c.09-1.871.129-3.745.145-5.619q.008-.817.005-1.634" fill="#ef7e31"/><path d="M400.086,109.624c.006-.517.009-1.033.009-1.551,0-1.815-.023-3.631-.092-5.445-.015-.4-.044-.8-.062-1.2-.045-.993-.089-1.987-.154-2.979l-.028.006L393.641,99.7h0q.177,2.881.233,5.771c0,.177,0,.355.007.533.031,1.885.03,3.771-.019,5.657-.044,1.706-.128,3.409-.235,5.111l3.761-.764c.391-.082.8-.182,1.22-.3l.015,0c.424-.118.861-.255,1.307-.411.094-1.887.137-3.777.156-5.667" fill="#ef7e31"/><path d="M235.445,106.209h0q-.542-1.679-1.159-3.327c-.159-.431-.317-.861-.484-1.288q-.24-.607-.491-1.208c-.4-.968-.814-1.93-1.261-2.877-.325-.688-.677-1.363-1.031-2.038l-6.481,1.2c.007.013.013.026.021.039a57.694,57.694,0,0,1,4.705,10.636l0,.008Z" fill="#ffd231"/><path d="M246.8,95.488c.42.762.818,1.535,1.2,2.317.07.143.139.287.207.43q.548,1.146,1.046,2.315c.062.149.122.3.183.448.335.807.659,1.62.959,2.443v0l6.214-1.149q-.609-1.738-1.3-3.443t-1.48-3.377c-.4-.844-.832-1.672-1.278-2.493-.246-.453-.492-.907-.748-1.355l-6.565,1.214,0,0c.492.776.958,1.569,1.407,2.371l.154.275" fill="#ffd231"/><path d="M369.966,75.551q.753,2.745,1.4,5.518v0l6.126-1.133.013,0c-.193-.841-.42-1.672-.627-2.509-.245-.985-.473-1.974-.738-2.954q-.754-2.787-1.621-5.543h0l-6.173,1.142v.005q.865,2.706,1.617,5.445l.008.028" fill="#ffd231"/><path d="M390.482,77.534h0l6.137-1.136h.005q-.627-2.808-1.37-5.587c-.258-.972-.553-1.932-.833-2.9-.244-.843-.468-1.692-.728-2.531l-.012,0-6.158,1.139q1.7,5.442,2.959,11.01" fill="#ffd231"/><path d="M376.137,74.473c.265.98.492,1.969.737,2.954.208.837.435,1.668.627,2.509l-.013,0,12.993-2.4h0q-1.254-5.56-2.958-11.009l-13.011,2.406h0q.869,2.754,1.621,5.543" fill="#71a1e7"/><path d="M253.83,95.474q.786,1.667,1.48,3.377t1.3,3.443L371.362,81.071v0q-.642-2.772-1.4-5.517c0-.01-.005-.019-.008-.029q-.752-2.738-1.616-5.444l0-.005L251.8,91.626c.257.448.5.9.749,1.355.446.821.88,1.649,1.278,2.493" fill="#71a1e7"/><path d="M393.694,65.383c.259.839.484,1.688.728,2.531.279.966.575,1.926.833,2.9Q396,73.59,396.624,76.4l17.383-3.215h0q-.357-1.587-.783-3.05c-.007-.022-.013-.045-.02-.068q-.42-1.438-.9-2.757c-.011-.032-.023-.064-.035-.1q-.479-1.31-1.007-2.5c-.011-.026-.023-.051-.034-.077q-.537-1.2-1.116-2.287h0l-16.434,3.039Z" fill="#71a1e7"/><path d="M229.264,107.344a57.639,57.639,0,0,0-4.706-10.637c-.007-.012-.013-.026-.021-.039l-23.383,4.325a34.215,34.215,0,0,1,4.859,10.659l23.253-4.3,0-.007" fill="#71a1e7"/><path d="M233.31,100.385c.167.4.332.8.491,1.207.168.428.325.858.485,1.288q.617,1.65,1.158,3.328h0l14.953-2.766v0c-.3-.823-.623-1.636-.958-2.443-.062-.149-.121-.3-.184-.448q-.5-1.17-1.045-2.315c-.069-.143-.137-.287-.207-.43q-.573-1.173-1.2-2.317c-.051-.092-.1-.183-.155-.275-.448-.8-.914-1.6-1.407-2.371v0l-14.22,2.63c.353.674.706,1.35,1.03,2.038.447.947.861,1.909,1.261,2.877" fill="#71a1e7"/><path d="M374.726,120.609q.138-2.307.2-4.62c.029-1.1.04-2.2.042-3.3,0-.67-.01-1.341-.019-2.012-.005-.379-.008-.758-.016-1.137q-.029-1.321-.084-2.643c0-.129-.01-.259-.016-.389q-.064-1.478-.159-2.954v0l-113.187,23c.05.652.09,1.305.125,1.959.006.11.013.221.018.332.029.582.049,1.164.064,1.747.006.191.01.382.014.573q.014.788.011,1.573c0,.256-.005.512-.008.768-.008.473-.018.945-.036,1.417-.012.317-.03.632-.047.948-.022.421-.045.842-.076,1.262-.029.378-.067.754-.1,1.131s-.066.728-.109,1.091c-.053.461-.121.92-.187,1.378-.041.283-.075.567-.121.849-.121.743-.257,1.484-.414,2.219l113.412-23.044,2.737-.556-1.369.278Z" fill="#3b68a9"/><path d="M400.724,98.256l-.937.19c.066.993.109,1.986.155,2.979.018.4.047.8.062,1.2.068,1.814.091,3.63.091,5.446q0,.775-.009,1.55c-.019,1.89-.062,3.78-.156,5.667-.446.156-.883.293-1.306.411l.1-.027c.1-.027.2-.06.3-.09.134-.04.268-.079.4-.123.11-.035.222-.075.333-.113.13-.045.258-.087.39-.134s.239-.092.359-.138.253-.1.381-.148.253-.107.38-.162.247-.1.372-.162.264-.124.4-.188.244-.115.366-.177.272-.142.407-.214.242-.128.363-.195c.139-.077.277-.16.415-.241.12-.07.239-.14.359-.214.141-.087.282-.179.423-.271.117-.076.233-.151.35-.23.143-.1.286-.2.428-.3.115-.082.229-.164.343-.249.144-.109.288-.222.432-.336.111-.088.222-.176.332-.267.145-.119.288-.244.431-.369.109-.1.218-.19.326-.289.144-.131.286-.266.428-.4.106-.1.211-.2.316-.309.142-.144.284-.292.425-.442q.151-.162.3-.328c.141-.156.28-.317.419-.481q.147-.172.292-.351c.137-.17.274-.343.409-.52q.139-.183.278-.371c.134-.185.268-.373.4-.565.088-.128.176-.26.263-.392.13-.2.259-.4.386-.608.084-.137.167-.277.25-.417.125-.213.248-.429.37-.651.079-.144.156-.292.233-.44.12-.229.238-.461.353-.7.074-.153.146-.31.218-.466.112-.244.224-.491.332-.745.068-.159.133-.323.2-.486.107-.264.213-.529.314-.8.06-.164.118-.333.177-.5.1-.282.2-.566.289-.859.055-.172.106-.35.159-.526.09-.3.179-.6.263-.917.048-.176.091-.359.136-.538.082-.324.162-.648.236-.982.041-.183.077-.372.115-.558.071-.345.142-.69.2-1.046.033-.186.061-.378.092-.566.06-.371.121-.743.173-1.127.025-.181.044-.37.067-.554.049-.4.1-.805.139-1.221.017-.179.028-.366.044-.546.037-.435.073-.87.1-1.32.01-.163.014-.333.022-.5.023-.481.046-.963.057-1.461,0-.119,0-.244,0-.364.009-.554.015-1.111.008-1.686l0,.007a21.1,21.1,0,0,1-14.759,11.933" fill="#3b68a9"/><path d="M393.862,111.658c.049-1.886.05-3.772.019-5.657,0-.178,0-.356-.008-.534q-.058-2.888-.232-5.771L380.815,102.3c.075,1.074.127,2.149.178,3.224.026.555.053,1.11.073,1.665.059,1.63.086,3.26.09,4.89q0,.817-.005,1.634c-.016,1.874-.055,3.748-.144,5.619L397.388,116l-3.761.764c.107-1.7.191-3.406.235-5.111" fill="#3b68a9"/><path d="M255.338,137.564c.09-1.009.141-2.023.179-3.039.015-.414.026-.83.033-1.245.009-.537.006-1.074,0-1.612-.012-1.293-.05-2.588-.13-3.883v0l-15.576,3.165v.005q.054,1.1.076,2.194v.023q.057,2.914-.147,5.813c-.023.325-.043.65-.072.975-.037.413-.083.824-.13,1.235-.049.436-.1.87-.162,1.3-.05.357-.1.713-.159,1.069-.084.516-.179,1.03-.279,1.542-.056.285-.107.571-.169.854-.173.8-.362,1.6-.581,2.386l-6.634,1.348,24.164-4.91-1.848.375a38.324,38.324,0,0,0,1.432-7.6" fill="#3b68a9"/><path d="M233.557,139.6q.163-1.836.21-3.689c0-.038,0-.077,0-.115q.043-1.8-.008-3.612l-25.944,5.272c-1.623,14.368-8.09,18.714-14.831,20.084l16.118-3.275,22.121-4.495a36.644,36.644,0,0,0,2.333-10.17" fill="#3b68a9"/><path d="M200.75,123.05c-.834-19.156-13.058-26.462-17-28.126l-121.4-47.9v9.6L172.213,99.973c3.942,1.664,16.167,8.97,17,28.126.418,9.6-.286,16.272-1.817,20.616L62.35,98.424l129.082,51.914c6.212,0,10.188-7.309,9.318-27.288" fill="#f7f6f9"/><path d="M299.409,51.337l7.419,2.741,45.743-8.567-8.149-3.01c-14.789,3.078-29.843,6.154-45.013,8.836" fill="#ece8ef"/><path d="M270.634,205.949c24.448-8.716,98.233-36.89,130.192-42.325,12.386-2.107,11.5,31.809,12.486,31.124,8.441-17.356,7.5-44.7-4.937-49.238-5.848,1.893-147.527,52.014-147.527,52.014v52.2s3.6-41.565,9.786-43.771" fill="#bcc7c7"/><path d="M249.336,212.457l11.512,37.263V197.657l-7.6-2.026L5.879,129.733v47.55l7.383-36.411Z" fill="#f7f6f9"/><path d="M260.648,341.423s-7.58-2.1-9.2-24.13c-1.7-23.059,10.856-26.2,10.856-26.2L461,235.59l3.063-.855v-6.694L334.8,261.644l-81.56,21.2a10.766,10.766,0,0,0-1.373.682c-.1.056-.2.108-.292.168a11.9,11.9,0,0,0-1.136.8c-.152.12-.3.246-.45.374-.245.211-.484.438-.719.671q-.415.412-.81.869c-.108.124-.215.252-.321.381a19.746,19.746,0,0,0-1.224,1.673c-5.834,8.934-7.274,25.678-4.852,39.866.326,1.913.723,3.778,1.188,5.572.007.026.013.053.02.079q.219.842.46,1.658c.032.11.065.218.1.327.318,1.063.66,2.1,1.029,3.092.011.03.021.061.032.091.149.4.306.785.463,1.171.108.264.216.526.327.783.147.341.295.679.448,1.009.178.382.363.752.55,1.119.178.349.36.689.545,1.023.208.373.419.741.636,1.094.13.211.262.415.4.618.235.359.477.7.723,1.04.106.145.209.3.318.437q.525.68,1.083,1.284c.1.11.206.209.309.315q.45.463.92.877c.119.1.237.209.358.308a13.257,13.257,0,0,0,1.273.939h0l210.821-50.323v-6.686l-3.615.84L271.227,338.965Z" fill="#38a3a5"/><path d="M246.921,288.464a19.492,19.492,0,0,1,1.222-1.672c.106-.13.214-.257.322-.382.264-.3.533-.593.81-.869.235-.232.473-.459.719-.67.148-.129.3-.255.449-.375a12.36,12.36,0,0,1,1.137-.8c.1-.059.194-.112.291-.168a11.027,11.027,0,0,1,1.373-.682l-239.982-91.1a10.13,10.13,0,0,0-1.013.227c-.1.028-.2.062-.3.092-.233.072-.464.15-.69.238-.1.041-.207.084-.308.128-.227.1-.449.2-.668.316-.084.043-.169.085-.252.131-.281.155-.555.321-.824.5-.015.01-.03.018-.043.028-.3.208-.6.432-.888.672l-.008.008c-.274.228-.539.473-.8.729-.038.038-.075.077-.112.115-.231.234-.457.478-.674.733-.033.038-.067.076-.1.114-.245.289-.482.589-.711.9l.037.014C85.844,227.781,166.861,255.635,246.921,288.464Z" fill="#60b5b7"/><path d="M253.243,351.167a13.089,13.089,0,0,1-1.273-.939c-.121-.1-.239-.2-.358-.308q-.47-.413-.92-.877c-.1-.106-.208-.2-.309-.315q-.557-.6-1.083-1.284c-.108-.141-.212-.292-.318-.437q-.369-.5-.723-1.04c-.133-.2-.265-.407-.394-.618-.218-.353-.429-.721-.636-1.094-.186-.334-.368-.674-.546-1.023-.187-.366-.372-.737-.55-1.119-.153-.329-.3-.668-.448-1.009-.111-.257-.219-.519-.326-.782-.157-.387-.315-.773-.463-1.172-.012-.029-.022-.061-.033-.09-.369-1-.711-2.03-1.029-3.093-.032-.109-.066-.217-.1-.327q-.24-.818-.459-1.658l-.021-.079c-.464-1.794-.861-3.659-1.188-5.572C194.074,308.588,16.253,247.112.529,231.031l-.008-.007c.006.055.017.107.023.162.164,1.455.371,2.894.607,4.315.054.323.11.64.167.96.257,1.436.536,2.858.864,4.232.007.032.015.063.023.094a60.313,60.313,0,0,0,1.91,6.438l.066.181q.348.951.723,1.855c.023.056.047.111.07.167a36.882,36.882,0,0,0,1.634,3.41c.035.063.068.127.1.189q.415.747.854,1.434c.049.075.1.15.146.224.3.454.6.891.91,1.3.031.041.064.08.095.121q.458.594.936,1.125c.033.036.065.076.1.112.325.353.658.677,1,.983.064.057.127.114.191.169a11.969,11.969,0,0,0,1.026.8c.06.041.12.078.179.118a9.909,9.909,0,0,0,1.121.655c.267.1,1.209.453,2.751,1.035l1.467.555,1.75.662,2.024.766,2.287.867,1.239.469,5.561,2.108,3.126,1.185,1.644.624,3.448,1.307,1.8.683,3.745,1.421,1.943.737,10.364,3.933q3.807,1.443,7.84,2.975l8.259,3.134,25.408,9.646L114.05,298.3l2.728,1.036,10.976,4.167,5.508,2.092c22.958,8.718,45.916,17.436,65.517,24.881l6.024,2.288,5.922,2.249,2.8,1.065,3.1,1.176,1.092.415,3.984,1.513,1.766.671,2.647,1.005,1.475.56,1.882.715,5.077,1.928.9.343,2.214.841.741.281,14.84,5.637h0" fill="#1c5253"/></g></g><g transform="translate(4531.687 -15456.48) rotate(-90)"><path d="M5.5,2A3.5,3.5,0,1,0,9,5.5,3.5,3.5,0,0,0,5.5,2m0-2A5.5,5.5,0,1,1,0,5.5,5.5,5.5,0,0,1,5.5,0Z" transform="translate(-5337.668 -10052.687)" fill="#216c88" opacity="0.5"/><path d="M-6555.751-10045.687h-74.271v-3h74.271Z" transform="translate(1302.832)" fill="#216c88" opacity="0.5"/></g><path d="M5.5,2A3.5,3.5,0,1,0,9,5.5,3.5,3.5,0,0,0,5.5,2m0-2A5.5,5.5,0,1,1,0,5.5,5.5,5.5,0,0,1,5.5,0Z" transform="translate(-5705.378 -9967.128) rotate(90)" fill="#216c88" opacity="0.5"/><path d="M-6410.791-10045.687h-219.232v-3h219.232Z" transform="translate(-15758.064 -3326.628) rotate(90)" fill="#216c88" opacity="0.5"/><path d="M5.5,2A3.5,3.5,0,1,0,9,5.5,3.5,3.5,0,0,0,5.5,2m0-2A5.5,5.5,0,1,1,0,5.5,5.5,5.5,0,0,1,5.5,0Z" transform="translate(-5312.079 -9852.749) rotate(90)" fill="#216c88" opacity="0.5"/><path d="M-6519.75-10045.687h-110.271v-3h110.271Z" transform="translate(-15364.766 -3212.249) rotate(90)" fill="#216c88" opacity="0.5"/><rect width="263.421" height="69.069" rx="16" transform="translate(-5648 -10245)" fill="#fff1e8"/><path d="M16,2A14,14,0,0,0,2,16V53.069a14,14,0,0,0,14,14H247.421a14,14,0,0,0,14-14V16a14,14,0,0,0-14-14H16m0-2H247.421a16,16,0,0,1,16,16V53.069a16,16,0,0,1-16,16H16a16,16,0,0,1-16-16V16A16,16,0,0,1,16,0Z" transform="translate(-5648 -10245)" fill="#feebde"/><path d="M9.688,13.391a4.185,4.185,0,0,1-1.332,2.785,4.365,4.365,0,0,1-2.98.98,4.008,4.008,0,0,1-3.23-1.445A5.815,5.815,0,0,1,.93,11.844V10.75A6.481,6.481,0,0,1,1.5,7.961,4.231,4.231,0,0,1,3.1,6.113a4.47,4.47,0,0,1,2.406-.645A4.11,4.11,0,0,1,8.414,6.48a4.235,4.235,0,0,1,1.273,2.8H8.18a3.268,3.268,0,0,0-.848-1.975A2.565,2.565,0,0,0,5.508,6.7,2.684,2.684,0,0,0,3.254,7.759a4.882,4.882,0,0,0-.816,3.026v1.1a5.018,5.018,0,0,0,.773,2.948A2.5,2.5,0,0,0,5.375,15.93a2.887,2.887,0,0,0,1.918-.566,3.143,3.143,0,0,0,.887-1.973Zm7.079,2.773a3.07,3.07,0,0,1-2.477.992,2.628,2.628,0,0,1-2.059-.785,3.4,3.4,0,0,1-.715-2.324v-5.5h1.445v5.461q0,1.922,1.563,1.922a2.163,2.163,0,0,0,2.2-1.234V8.547h1.445V17H16.8Zm5-7.617.039.938a3.122,3.122,0,0,1,2.508-1.094A2.417,2.417,0,0,1,26.728,9.75a3.2,3.2,0,0,1,1.1-.984,3.242,3.242,0,0,1,1.6-.375q2.781,0,2.828,2.945V17H30.807V11.422a1.941,1.941,0,0,0-.414-1.355A1.823,1.823,0,0,0,29,9.617a1.916,1.916,0,0,0-1.336.48,1.949,1.949,0,0,0-.617,1.293V17H25.6V11.461a1.613,1.613,0,0,0-1.8-1.844,1.934,1.934,0,0,0-1.945,1.211V17H20.4V8.547Zm19.845,4.32a5.062,5.062,0,0,1-.883,3.109,2.829,2.829,0,0,1-2.391,1.18,3.1,3.1,0,0,1-2.422-.977v4.07H34.472V8.547h1.32l.07.938a2.977,2.977,0,0,1,2.453-1.094,2.882,2.882,0,0,1,2.41,1.148,5.117,5.117,0,0,1,.887,3.2ZM40.167,12.7a3.735,3.735,0,0,0-.609-2.258,1.963,1.963,0,0,0-1.672-.828,2.125,2.125,0,0,0-1.969,1.164V14.82A2.129,2.129,0,0,0,37.9,15.977a1.954,1.954,0,0,0,1.652-.824A4.077,4.077,0,0,0,40.167,12.7ZM45.058,17H43.613V5h1.445Zm3.923,0H47.536V8.547h1.445ZM47.419,6.3a.863.863,0,0,1,.215-.594.807.807,0,0,1,.637-.242.819.819,0,0,1,.641.242.854.854,0,0,1,.219.594.826.826,0,0,1-.219.586.834.834,0,0,1-.641.234.821.821,0,0,1-.637-.234A.834.834,0,0,1,47.419,6.3Zm5.274,2.242.039.938A3.122,3.122,0,0,1,55.24,8.391,2.417,2.417,0,0,1,57.654,9.75a3.2,3.2,0,0,1,1.1-.984,3.242,3.242,0,0,1,1.6-.375q2.781,0,2.828,2.945V17H61.732V11.422a1.941,1.941,0,0,0-.414-1.355,1.823,1.823,0,0,0-1.391-.449,1.917,1.917,0,0,0-1.336.48,1.949,1.949,0,0,0-.617,1.293V17H56.521V11.461a1.613,1.613,0,0,0-1.8-1.844,1.934,1.934,0,0,0-1.945,1.211V17H51.326V8.547ZM66.967,17H65.522V8.547h1.445ZM65.4,6.3a.863.863,0,0,1,.215-.594.807.807,0,0,1,.637-.242.819.819,0,0,1,.641.242.854.854,0,0,1,.219.594.826.826,0,0,1-.219.586.834.834,0,0,1-.641.234.821.821,0,0,1-.637-.234A.834.834,0,0,1,65.4,6.3Zm7.423,10.852a3.693,3.693,0,0,1-2.8-1.129,4.19,4.19,0,0,1-1.078-3.02v-.266a5.073,5.073,0,0,1,.48-2.246,3.748,3.748,0,0,1,1.344-1.547,3.378,3.378,0,0,1,1.871-.559,3.166,3.166,0,0,1,2.563,1.086,4.7,4.7,0,0,1,.914,3.109v.6H70.4a3,3,0,0,0,.73,2.02,2.3,2.3,0,0,0,1.777.77,2.517,2.517,0,0,0,1.3-.312,3.259,3.259,0,0,0,.93-.828l.883.688A3.55,3.55,0,0,1,72.828,17.156Zm-.18-7.578a1.928,1.928,0,0,0-1.469.637A3.1,3.1,0,0,0,70.445,12h4.234v-.109a2.753,2.753,0,0,0-.594-1.707A1.815,1.815,0,0,0,72.648,9.578ZM79.2,8.547l.047,1.063a3.08,3.08,0,0,1,2.531-1.219q2.68,0,2.7,3.023V17H83.04V11.406a1.946,1.946,0,0,0-.418-1.352,1.675,1.675,0,0,0-1.277-.437,2.086,2.086,0,0,0-1.234.375,2.546,2.546,0,0,0-.828.984V17H77.837V8.547ZM88.666,6.5V8.547h1.578V9.664H88.666v5.249a1.173,1.173,0,0,0,.211.763.888.888,0,0,0,.719.254,3.5,3.5,0,0,0,.688-.094V17a4.215,4.215,0,0,1-1.109.155,1.8,1.8,0,0,1-1.461-.586,2.517,2.517,0,0,1-.492-1.664V9.664H85.681V8.547H87.22V6.5Zm2.767,6.2a4.993,4.993,0,0,1,.488-2.234A3.643,3.643,0,0,1,93.28,8.93a3.7,3.7,0,0,1,1.988-.539,3.565,3.565,0,0,1,2.793,1.2,4.6,4.6,0,0,1,1.066,3.18v.1a5.036,5.036,0,0,1-.473,2.215A3.589,3.589,0,0,1,97.3,16.609a3.743,3.743,0,0,1-2.02.547,3.556,3.556,0,0,1-2.785-1.2A4.575,4.575,0,0,1,91.432,12.8Zm1.453.172a3.616,3.616,0,0,0,.652,2.258,2.211,2.211,0,0,0,3.5-.012,3.955,3.955,0,0,0,.648-2.418,3.61,3.61,0,0,0-.66-2.254,2.1,2.1,0,0,0-1.754-.863,2.075,2.075,0,0,0-1.727.852A3.925,3.925,0,0,0,92.885,12.867Zm11.744-.164a4.952,4.952,0,0,1,.922-3.129,3.137,3.137,0,0,1,4.766-.168V5h1.445V17h-1.328l-.07-.906a2.943,2.943,0,0,1-2.414,1.063,2.887,2.887,0,0,1-2.395-1.2,5.008,5.008,0,0,1-.926-3.141Zm1.445.164a3.749,3.749,0,0,0,.594,2.25,1.92,1.92,0,0,0,1.641.813,2.108,2.108,0,0,0,2.008-1.234V10.813a2.125,2.125,0,0,0-1.992-1.2,1.929,1.929,0,0,0-1.656.82A4.128,4.128,0,0,0,106.075,12.867Zm11.478,4.289a3.693,3.693,0,0,1-2.8-1.129,4.19,4.19,0,0,1-1.078-3.02v-.266a5.073,5.073,0,0,1,.48-2.246A3.748,3.748,0,0,1,115.5,8.949a3.378,3.378,0,0,1,1.871-.559,3.166,3.166,0,0,1,2.563,1.086,4.7,4.7,0,0,1,.914,3.109v.6h-5.727a3,3,0,0,0,.73,2.02,2.3,2.3,0,0,0,1.777.77,2.517,2.517,0,0,0,1.3-.312,3.259,3.259,0,0,0,.93-.828l.883.688A3.55,3.55,0,0,1,117.552,17.156Zm-.18-7.578a1.928,1.928,0,0,0-1.469.637A3.1,3.1,0,0,0,115.169,12H119.4v-.109a2.753,2.753,0,0,0-.594-1.707A1.815,1.815,0,0,0,117.373,9.578ZM4.6,41.156a3.693,3.693,0,0,1-2.8-1.129,4.19,4.19,0,0,1-1.078-3.02v-.266a5.073,5.073,0,0,1,.48-2.246,3.748,3.748,0,0,1,1.344-1.547,3.378,3.378,0,0,1,1.871-.559,3.166,3.166,0,0,1,2.563,1.086A4.7,4.7,0,0,1,7.9,36.586v.6H2.172a3,3,0,0,0,.73,2.02,2.3,2.3,0,0,0,1.777.77,2.517,2.517,0,0,0,1.3-.312,3.259,3.259,0,0,0,.93-.828l.883.688A3.55,3.55,0,0,1,4.6,41.156Zm-.18-7.578a1.928,1.928,0,0,0-1.469.637A3.1,3.1,0,0,0,2.219,36H6.453v-.109a2.753,2.753,0,0,0-.594-1.707A1.815,1.815,0,0,0,4.422,33.578Zm10.11,5.18a1.064,1.064,0,0,0-.441-.91,4.249,4.249,0,0,0-1.539-.559,7.277,7.277,0,0,1-1.742-.562,2.479,2.479,0,0,1-.953-.781,1.869,1.869,0,0,1-.309-1.078,2.193,2.193,0,0,1,.879-1.758,3.432,3.432,0,0,1,2.246-.719A3.532,3.532,0,0,1,15,33.133a2.357,2.357,0,0,1,.895,1.9H14.446a1.3,1.3,0,0,0-.5-1.023,1.888,1.888,0,0,0-1.27-.43,1.976,1.976,0,0,0-1.234.344,1.082,1.082,0,0,0-.445.9.877.877,0,0,0,.414.789,5.1,5.1,0,0,0,1.5.508,7.8,7.8,0,0,1,1.754.578,2.558,2.558,0,0,1,1,.809,1.988,1.988,0,0,1,.324,1.152,2.163,2.163,0,0,1-.906,1.816,3.8,3.8,0,0,1-2.352.684,4.257,4.257,0,0,1-1.8-.359,2.922,2.922,0,0,1-1.223-1A2.42,2.42,0,0,1,9.259,38.4H10.7a1.5,1.5,0,0,0,.582,1.152,2.258,2.258,0,0,0,1.434.426,2.331,2.331,0,0,0,1.316-.332A1.02,1.02,0,0,0,14.532,38.758Zm10.509-1.891a5.062,5.062,0,0,1-.883,3.109,2.829,2.829,0,0,1-2.391,1.18,3.1,3.1,0,0,1-2.422-.977v4.07H17.9v-11.7h1.32l.07.938a2.977,2.977,0,0,1,2.453-1.094,2.882,2.882,0,0,1,2.41,1.148,5.117,5.117,0,0,1,.887,3.2ZM23.6,36.7a3.735,3.735,0,0,0-.609-2.258,1.963,1.963,0,0,0-1.672-.828,2.125,2.125,0,0,0-1.969,1.164V38.82a2.129,2.129,0,0,0,1.984,1.156,1.954,1.954,0,0,0,1.652-.824A4.077,4.077,0,0,0,23.6,36.7Zm6.829,4.453a3.693,3.693,0,0,1-2.8-1.129,4.19,4.19,0,0,1-1.078-3.02v-.266a5.073,5.073,0,0,1,.48-2.246,3.748,3.748,0,0,1,1.344-1.547,3.378,3.378,0,0,1,1.871-.559,3.166,3.166,0,0,1,2.563,1.086,4.7,4.7,0,0,1,.914,3.109v.6H27.995a3,3,0,0,0,.73,2.02,2.3,2.3,0,0,0,1.777.77,2.517,2.517,0,0,0,1.3-.312,3.258,3.258,0,0,0,.93-.828l.883.688A3.55,3.55,0,0,1,30.425,41.156Zm-.18-7.578a1.928,1.928,0,0,0-1.469.637A3.1,3.1,0,0,0,28.042,36h4.234v-.109a2.753,2.753,0,0,0-.594-1.707A1.815,1.815,0,0,0,30.245,33.578Zm8.579,6.4a2.082,2.082,0,0,0,1.352-.469,1.649,1.649,0,0,0,.641-1.172h1.367a2.621,2.621,0,0,1-.5,1.383,3.293,3.293,0,0,1-1.23,1.047,3.55,3.55,0,0,1-1.629.391A3.482,3.482,0,0,1,36.078,40a4.59,4.59,0,0,1-1.02-3.152v-.242a5.089,5.089,0,0,1,.453-2.2,3.451,3.451,0,0,1,1.3-1.492,3.7,3.7,0,0,1,2-.531,3.39,3.39,0,0,1,2.363.852,3.043,3.043,0,0,1,1,2.211H40.816a1.992,1.992,0,0,0-.621-1.348,1.932,1.932,0,0,0-1.379-.527,2.023,2.023,0,0,0-1.707.793,3.724,3.724,0,0,0-.605,2.293v.273a3.65,3.65,0,0,0,.6,2.25A2.033,2.033,0,0,0,38.824,39.977ZM45.419,41H43.973V32.547h1.445ZM43.856,30.3a.863.863,0,0,1,.215-.594.807.807,0,0,1,.637-.242.819.819,0,0,1,.641.242.854.854,0,0,1,.219.594.826.826,0,0,1-.219.586.834.834,0,0,1-.641.234.821.821,0,0,1-.637-.234A.834.834,0,0,1,43.856,30.3Zm4.4,10.7V33.664H46.92V32.547h1.336v-.719a2.937,2.937,0,0,1,.809-2.2,3.136,3.136,0,0,1,2.285-.789,6.881,6.881,0,0,1,2.211.477l-.242,1.219a5.008,5.008,0,0,0-1.859-.391,1.819,1.819,0,0,0-1.34.418,1.723,1.723,0,0,0-.41,1.254v.734h1.727v1.117H49.709V41Zm6.023,0H52.826V32.547h1.453Zm5.782-1.023a2.082,2.082,0,0,0,1.352-.469,1.649,1.649,0,0,0,.641-1.172h1.367a2.621,2.621,0,0,1-.5,1.383,3.293,3.293,0,0,1-1.23,1.047,3.55,3.55,0,0,1-1.629.391A3.482,3.482,0,0,1,57.315,40a4.59,4.59,0,0,1-1.02-3.152v-.242a5.089,5.089,0,0,1,.453-2.2,3.451,3.451,0,0,1,1.3-1.492,3.7,3.7,0,0,1,2-.531,3.39,3.39,0,0,1,2.363.852,3.043,3.043,0,0,1,1,2.211H62.053a1.992,1.992,0,0,0-.621-1.348,1.932,1.932,0,0,0-1.379-.527,2.023,2.023,0,0,0-1.707.793,3.724,3.724,0,0,0-.605,2.293v.273a3.65,3.65,0,0,0,.6,2.25A2.033,2.033,0,0,0,60.061,39.977ZM70.3,41a3.036,3.036,0,0,1-.2-.891A3.225,3.225,0,0,1,67.7,41.156a2.984,2.984,0,0,1-2.051-.707,2.287,2.287,0,0,1-.8-1.793,2.39,2.39,0,0,1,1-2.051,4.733,4.733,0,0,1,2.824-.73h1.406v-.664A1.623,1.623,0,0,0,69.625,34a1.821,1.821,0,0,0-1.336-.449,2.107,2.107,0,0,0-1.3.391,1.151,1.151,0,0,0-.523.945H65.015a2,2,0,0,1,.449-1.223,3.066,3.066,0,0,1,1.219-.934,4.1,4.1,0,0,1,1.691-.344,3.342,3.342,0,0,1,2.289.73,2.635,2.635,0,0,1,.859,2.012v3.891a4.757,4.757,0,0,0,.3,1.852V41Zm-2.4-1.1a2.54,2.54,0,0,0,1.289-.352,2.127,2.127,0,0,0,.883-.914V36.9H68.945q-2.656,0-2.656,1.555a1.316,1.316,0,0,0,.453,1.063A1.742,1.742,0,0,0,67.906,39.9Zm9.313.078a2.082,2.082,0,0,0,1.352-.469,1.649,1.649,0,0,0,.641-1.172h1.367a2.621,2.621,0,0,1-.5,1.383,3.293,3.293,0,0,1-1.23,1.047,3.55,3.55,0,0,1-1.629.391A3.482,3.482,0,0,1,74.473,40a4.59,4.59,0,0,1-1.02-3.152v-.242a5.089,5.089,0,0,1,.453-2.2,3.451,3.451,0,0,1,1.3-1.492,3.7,3.7,0,0,1,2-.531,3.39,3.39,0,0,1,2.363.852,3.043,3.043,0,0,1,1,2.211H79.212a1.992,1.992,0,0,0-.621-1.348,1.932,1.932,0,0,0-1.379-.527,2.023,2.023,0,0,0-1.707.793,3.724,3.724,0,0,0-.605,2.293v.273a3.65,3.65,0,0,0,.6,2.25A2.033,2.033,0,0,0,77.219,39.977ZM83.814,41H82.369V32.547h1.445ZM82.252,30.3a.863.863,0,0,1,.215-.594.807.807,0,0,1,.637-.242.819.819,0,0,1,.641.242.854.854,0,0,1,.219.594.826.826,0,0,1-.219.586.834.834,0,0,1-.641.234.821.821,0,0,1-.637-.234A.834.834,0,0,1,82.252,30.3ZM85.784,36.7a4.993,4.993,0,0,1,.488-2.234,3.643,3.643,0,0,1,1.359-1.531,3.7,3.7,0,0,1,1.988-.539,3.565,3.565,0,0,1,2.793,1.2,4.6,4.6,0,0,1,1.066,3.18v.1a5.036,5.036,0,0,1-.473,2.215,3.589,3.589,0,0,1-1.352,1.527,3.743,3.743,0,0,1-2.02.547,3.556,3.556,0,0,1-2.785-1.2A4.575,4.575,0,0,1,85.784,36.8Zm1.453.172a3.616,3.616,0,0,0,.652,2.258,2.211,2.211,0,0,0,3.5-.012,3.955,3.955,0,0,0,.648-2.418,3.61,3.61,0,0,0-.66-2.254,2.1,2.1,0,0,0-1.754-.863,2.075,2.075,0,0,0-1.727.852A3.925,3.925,0,0,0,87.237,36.867Zm9.462-4.32.047,1.063a3.08,3.08,0,0,1,2.531-1.219q2.68,0,2.7,3.023V41h-1.445V35.406a1.946,1.946,0,0,0-.418-1.352,1.675,1.675,0,0,0-1.277-.437,2.086,2.086,0,0,0-1.234.375,2.546,2.546,0,0,0-.828.984V41H95.332V32.547Zm11.009,8.609a3.693,3.693,0,0,1-2.8-1.129,4.19,4.19,0,0,1-1.078-3.02v-.266a5.073,5.073,0,0,1,.48-2.246,3.748,3.748,0,0,1,1.344-1.547,3.378,3.378,0,0,1,1.871-.559,3.166,3.166,0,0,1,2.563,1.086A4.7,4.7,0,0,1,111,36.586v.6h-5.727a3,3,0,0,0,.73,2.02,2.3,2.3,0,0,0,1.777.77,2.517,2.517,0,0,0,1.3-.312,3.259,3.259,0,0,0,.93-.828l.883.688A3.55,3.55,0,0,1,107.708,41.156Zm-.18-7.578a1.928,1.928,0,0,0-1.469.637A3.1,3.1,0,0,0,105.325,36h4.234v-.109a2.753,2.753,0,0,0-.594-1.707A1.815,1.815,0,0,0,107.528,33.578Zm10.11,5.18a1.064,1.064,0,0,0-.441-.91,4.249,4.249,0,0,0-1.539-.559,7.277,7.277,0,0,1-1.742-.562,2.479,2.479,0,0,1-.953-.781,1.869,1.869,0,0,1-.309-1.078,2.193,2.193,0,0,1,.879-1.758,3.432,3.432,0,0,1,2.246-.719,3.532,3.532,0,0,1,2.332.742,2.357,2.357,0,0,1,.895,1.9h-1.453a1.3,1.3,0,0,0-.5-1.023,1.888,1.888,0,0,0-1.27-.43,1.976,1.976,0,0,0-1.234.344,1.082,1.082,0,0,0-.445.9.877.877,0,0,0,.414.789,5.1,5.1,0,0,0,1.5.508,7.8,7.8,0,0,1,1.754.578,2.558,2.558,0,0,1,1,.809,1.988,1.988,0,0,1,.324,1.152,2.163,2.163,0,0,1-.906,1.816,3.8,3.8,0,0,1-2.352.684,4.257,4.257,0,0,1-1.8-.359,2.922,2.922,0,0,1-1.223-1,2.42,2.42,0,0,1-.441-1.395h1.445a1.5,1.5,0,0,0,.582,1.152,2.258,2.258,0,0,0,1.434.426,2.331,2.331,0,0,0,1.316-.332A1.02,1.02,0,0,0,117.638,38.758ZM125.492,41V33.664h-1.336V32.547h1.336v-.719a2.937,2.937,0,0,1,.809-2.2,3.136,3.136,0,0,1,2.285-.789,6.881,6.881,0,0,1,2.211.477l-.242,1.219a5.008,5.008,0,0,0-1.859-.391,1.819,1.819,0,0,0-1.34.418,1.723,1.723,0,0,0-.41,1.254v.734h1.727v1.117h-1.727V41Zm6.023,0h-1.453V32.547h1.453Zm7.313-2.242a1.064,1.064,0,0,0-.441-.91,4.249,4.249,0,0,0-1.539-.559,7.277,7.277,0,0,1-1.742-.562,2.479,2.479,0,0,1-.953-.781,1.869,1.869,0,0,1-.309-1.078,2.193,2.193,0,0,1,.879-1.758,3.432,3.432,0,0,1,2.246-.719,3.532,3.532,0,0,1,2.332.742,2.357,2.357,0,0,1,.895,1.9h-1.453a1.3,1.3,0,0,0-.5-1.023,1.888,1.888,0,0,0-1.27-.43,1.976,1.976,0,0,0-1.234.344,1.082,1.082,0,0,0-.445.9.877.877,0,0,0,.414.789,5.1,5.1,0,0,0,1.5.508,7.8,7.8,0,0,1,1.754.578,2.558,2.558,0,0,1,1,.809,1.988,1.988,0,0,1,.324,1.152,2.163,2.163,0,0,1-.906,1.816,3.8,3.8,0,0,1-2.352.684,4.257,4.257,0,0,1-1.8-.359,2.922,2.922,0,0,1-1.223-1,2.42,2.42,0,0,1-.441-1.395H135a1.5,1.5,0,0,0,.582,1.152,2.258,2.258,0,0,0,1.434.426,2.331,2.331,0,0,0,1.316-.332A1.02,1.02,0,0,0,138.828,38.758ZM143.767,41h-1.445V32.547h1.445ZM142.2,30.3a.863.863,0,0,1,.215-.594.807.807,0,0,1,.637-.242.819.819,0,0,1,.641.242.854.854,0,0,1,.219.594.826.826,0,0,1-.219.586.834.834,0,0,1-.641.234.821.821,0,0,1-.637-.234A.834.834,0,0,1,142.2,30.3Zm7.306,9.672a2.082,2.082,0,0,0,1.352-.469,1.649,1.649,0,0,0,.641-1.172h1.367a2.621,2.621,0,0,1-.5,1.383,3.293,3.293,0,0,1-1.23,1.047,3.55,3.55,0,0,1-1.629.391A3.482,3.482,0,0,1,146.764,40a4.59,4.59,0,0,1-1.02-3.152v-.242a5.089,5.089,0,0,1,.453-2.2,3.451,3.451,0,0,1,1.3-1.492,3.7,3.7,0,0,1,2-.531,3.39,3.39,0,0,1,2.363.852,3.043,3.043,0,0,1,1,2.211H151.5a1.992,1.992,0,0,0-.621-1.348,1.932,1.932,0,0,0-1.379-.527,2.023,2.023,0,0,0-1.707.793,3.724,3.724,0,0,0-.605,2.293v.273a3.65,3.65,0,0,0,.6,2.25A2.033,2.033,0,0,0,149.51,39.977Zm4.642-3.281a4.993,4.993,0,0,1,.488-2.234A3.642,3.642,0,0,1,156,32.93a3.7,3.7,0,0,1,1.988-.539,3.565,3.565,0,0,1,2.793,1.2,4.6,4.6,0,0,1,1.066,3.18v.1a5.036,5.036,0,0,1-.473,2.215,3.589,3.589,0,0,1-1.352,1.527,3.743,3.743,0,0,1-2.02.547,3.556,3.556,0,0,1-2.785-1.2,4.575,4.575,0,0,1-1.066-3.164Zm1.453.172a3.616,3.616,0,0,0,.652,2.258,2.211,2.211,0,0,0,3.5-.012A3.954,3.954,0,0,0,160.4,36.7a3.61,3.61,0,0,0-.66-2.254,2.1,2.1,0,0,0-1.754-.863,2.075,2.075,0,0,0-1.727.852A3.925,3.925,0,0,0,155.6,36.867Zm7.743-.164a4.961,4.961,0,0,1,.914-3.152,3.226,3.226,0,0,1,4.82-.152l.063-.852h1.328v11.7h-1.445V40.219a3.033,3.033,0,0,1-2.328.938,2.915,2.915,0,0,1-2.441-1.191,5.072,5.072,0,0,1-.91-3.16Zm1.445.164a3.761,3.761,0,0,0,.613,2.281,1.951,1.951,0,0,0,1.652.828,2.164,2.164,0,0,0,1.969-1.141V34.7a2.171,2.171,0,0,0-1.953-1.117,1.965,1.965,0,0,0-1.664.832A4.094,4.094,0,0,0,164.793,36.867Zm13.259,3.3a3.07,3.07,0,0,1-2.477.992,2.628,2.628,0,0,1-2.059-.785,3.4,3.4,0,0,1-.715-2.324v-5.5h1.445v5.461q0,1.922,1.563,1.922a2.163,2.163,0,0,0,2.2-1.234V32.547h1.445V41h-1.375Zm5.212.836h-1.453V32.547h1.453Zm.016-11.992h1.75l-2.094,2.3-1.164,0Zm3.767,3.539.039.938a3.122,3.122,0,0,1,2.508-1.094,2.417,2.417,0,0,1,2.414,1.359,3.2,3.2,0,0,1,1.1-.984,3.242,3.242,0,0,1,1.6-.375q2.781,0,2.828,2.945V41h-1.445V35.422a1.941,1.941,0,0,0-.414-1.355,1.823,1.823,0,0,0-1.391-.449,1.917,1.917,0,0,0-1.336.48,1.949,1.949,0,0,0-.617,1.293V41h-1.453V35.461a1.613,1.613,0,0,0-1.8-1.844,1.934,1.934,0,0,0-1.945,1.211V41h-1.445V32.547ZM201.32,41h-1.445V32.547h1.445Zm-1.562-10.7a.863.863,0,0,1,.215-.594.807.807,0,0,1,.637-.242.819.819,0,0,1,.641.242.854.854,0,0,1,.219.594.826.826,0,0,1-.219.586.834.834,0,0,1-.641.234.821.821,0,0,1-.637-.234A.834.834,0,0,1,199.758,30.3Zm7.306,9.672a2.082,2.082,0,0,0,1.352-.469,1.649,1.649,0,0,0,.641-1.172h1.367a2.621,2.621,0,0,1-.5,1.383,3.293,3.293,0,0,1-1.23,1.047,3.55,3.55,0,0,1-1.629.391A3.482,3.482,0,0,1,204.317,40a4.59,4.59,0,0,1-1.02-3.152v-.242a5.089,5.089,0,0,1,.453-2.2,3.451,3.451,0,0,1,1.3-1.492,3.7,3.7,0,0,1,2-.531,3.39,3.39,0,0,1,2.363.852,3.043,3.043,0,0,1,1,2.211h-1.367a1.992,1.992,0,0,0-.621-1.348,1.932,1.932,0,0,0-1.379-.527,2.023,2.023,0,0,0-1.707.793,3.724,3.724,0,0,0-.605,2.293v.273a3.65,3.65,0,0,0,.6,2.25A2.033,2.033,0,0,0,207.063,39.977ZM217.307,41a3.036,3.036,0,0,1-.2-.891,3.225,3.225,0,0,1-2.406,1.047,2.984,2.984,0,0,1-2.051-.707,2.287,2.287,0,0,1-.8-1.793,2.39,2.39,0,0,1,1-2.051,4.733,4.733,0,0,1,2.824-.73h1.406v-.664A1.623,1.623,0,0,0,216.627,34a1.821,1.821,0,0,0-1.336-.449,2.107,2.107,0,0,0-1.3.391,1.151,1.151,0,0,0-.523.945h-1.453a2,2,0,0,1,.449-1.223,3.066,3.066,0,0,1,1.219-.934,4.1,4.1,0,0,1,1.691-.344,3.342,3.342,0,0,1,2.289.73,2.635,2.635,0,0,1,.859,2.012v3.891a4.757,4.757,0,0,0,.3,1.852V41Zm-2.4-1.1a2.54,2.54,0,0,0,1.289-.352,2.127,2.127,0,0,0,.883-.914V36.9h-1.133q-2.656,0-2.656,1.555a1.316,1.316,0,0,0,.453,1.063A1.742,1.742,0,0,0,214.908,39.9Zm10.845-1.141a1.064,1.064,0,0,0-.441-.91,4.249,4.249,0,0,0-1.539-.559,7.277,7.277,0,0,1-1.742-.562,2.479,2.479,0,0,1-.953-.781,1.869,1.869,0,0,1-.309-1.078,2.193,2.193,0,0,1,.879-1.758,3.432,3.432,0,0,1,2.246-.719,3.532,3.532,0,0,1,2.332.742,2.357,2.357,0,0,1,.895,1.9h-1.453a1.3,1.3,0,0,0-.5-1.023,1.888,1.888,0,0,0-1.27-.43,1.976,1.976,0,0,0-1.234.344,1.082,1.082,0,0,0-.445.9.877.877,0,0,0,.414.789,5.1,5.1,0,0,0,1.5.508,7.8,7.8,0,0,1,1.754.578,2.558,2.558,0,0,1,1,.809,1.988,1.988,0,0,1,.324,1.152,2.163,2.163,0,0,1-.906,1.816,3.8,3.8,0,0,1-2.352.684,4.257,4.257,0,0,1-1.8-.359,2.922,2.922,0,0,1-1.223-1,2.42,2.42,0,0,1-.441-1.395h1.445a1.5,1.5,0,0,0,.582,1.152,2.258,2.258,0,0,0,1.434.426,2.331,2.331,0,0,0,1.316-.332A1.02,1.02,0,0,0,225.753,38.758Zm3.4,1.484a.905.905,0,0,1,.223-.625.848.848,0,0,1,.668-.25.874.874,0,0,1,.676.25.887.887,0,0,1,.23.625.839.839,0,0,1-.23.6.89.89,0,0,1-.676.242.8.8,0,0,1-.891-.844Z" transform="translate(-5634 -10233)" fill="#12263f"/><rect width="196.41" height="69.069" rx="16" transform="translate(-5748 -9744)" fill="#fff1e8"/><path d="M16,2A14,14,0,0,0,2,16V53.069a14,14,0,0,0,14,14H180.41a14,14,0,0,0,14-14V16a14,14,0,0,0-14-14H16m0-2H180.41a16,16,0,0,1,16,16V53.069a16,16,0,0,1-16,16H16a16,16,0,0,1-16-16V16A16,16,0,0,1,16,0Z" transform="translate(-5748 -9744)" fill="#feebde"/><path d="M7.75,11.742H2.82v4.031H8.547V17H1.32V5.625H8.469V6.852H2.82v3.664H7.75Zm7.4,3.016a1.064,1.064,0,0,0-.441-.91,4.249,4.249,0,0,0-1.539-.559,7.277,7.277,0,0,1-1.742-.562,2.479,2.479,0,0,1-.953-.781,1.869,1.869,0,0,1-.309-1.078,2.193,2.193,0,0,1,.879-1.758,3.432,3.432,0,0,1,2.246-.719,3.532,3.532,0,0,1,2.332.742,2.357,2.357,0,0,1,.895,1.9H15.063a1.3,1.3,0,0,0-.5-1.023,1.888,1.888,0,0,0-1.27-.43,1.976,1.976,0,0,0-1.234.344,1.082,1.082,0,0,0-.445.9.877.877,0,0,0,.414.789,5.1,5.1,0,0,0,1.5.508,7.8,7.8,0,0,1,1.754.578,2.558,2.558,0,0,1,1,.809,1.988,1.988,0,0,1,.324,1.152,2.163,2.163,0,0,1-.906,1.816,3.8,3.8,0,0,1-2.352.684,4.257,4.257,0,0,1-1.8-.359,2.922,2.922,0,0,1-1.223-1A2.42,2.42,0,0,1,9.876,14.4h1.445a1.5,1.5,0,0,0,.582,1.152,2.258,2.258,0,0,0,1.434.426,2.331,2.331,0,0,0,1.316-.332A1.02,1.02,0,0,0,15.149,14.758ZM20.478,6.5V8.547h1.578V9.664H20.478v5.249a1.173,1.173,0,0,0,.211.763.888.888,0,0,0,.719.254,3.5,3.5,0,0,0,.688-.094V17a4.215,4.215,0,0,1-1.109.155,1.8,1.8,0,0,1-1.461-.586,2.517,2.517,0,0,1-.492-1.664V9.664H17.494V8.547h1.539V6.5ZM29,17a3.036,3.036,0,0,1-.2-.891,3.225,3.225,0,0,1-2.406,1.047,2.984,2.984,0,0,1-2.051-.707,2.287,2.287,0,0,1-.8-1.793,2.39,2.39,0,0,1,1-2.051,4.733,4.733,0,0,1,2.824-.73h1.406v-.664A1.623,1.623,0,0,0,28.323,10a1.821,1.821,0,0,0-1.336-.449,2.107,2.107,0,0,0-1.3.391,1.151,1.151,0,0,0-.523.945H23.714a2,2,0,0,1,.449-1.223,3.066,3.066,0,0,1,1.219-.934,4.1,4.1,0,0,1,1.691-.344,3.342,3.342,0,0,1,2.289.73,2.635,2.635,0,0,1,.859,2.012v3.891a4.757,4.757,0,0,0,.3,1.852V17Zm-2.4-1.1a2.54,2.54,0,0,0,1.289-.352,2.127,2.127,0,0,0,.883-.914V12.9H27.643q-2.656,0-2.656,1.555a1.316,1.316,0,0,0,.453,1.063A1.742,1.742,0,0,0,26.6,15.9Zm13.079-3.031a5.026,5.026,0,0,1-.891,3.113A2.846,2.846,0,0,1,36.4,17.156a2.947,2.947,0,0,1-2.477-1.133l-.07.977H32.527V5h1.445V9.477a2.93,2.93,0,0,1,2.414-1.086A2.863,2.863,0,0,1,38.8,9.555a5.177,5.177,0,0,1,.879,3.188ZM38.238,12.7a3.906,3.906,0,0,0-.57-2.281,1.888,1.888,0,0,0-1.641-.8,2.122,2.122,0,0,0-2.055,1.328V14.6a2.181,2.181,0,0,0,2.07,1.328,1.878,1.878,0,0,0,1.617-.8A4.153,4.153,0,0,0,38.238,12.7ZM43.114,17H41.669V8.547h1.445ZM41.552,6.3a.863.863,0,0,1,.215-.594.807.807,0,0,1,.637-.242.819.819,0,0,1,.641.242.854.854,0,0,1,.219.594.826.826,0,0,1-.219.586.834.834,0,0,1-.641.234.821.821,0,0,1-.637-.234A.834.834,0,0,1,41.552,6.3ZM47.037,17H45.592V5h1.445Zm3.923,0H49.514V8.547H50.96ZM49.4,6.3a.863.863,0,0,1,.215-.594.807.807,0,0,1,.637-.242.819.819,0,0,1,.641.242.854.854,0,0,1,.219.594.826.826,0,0,1-.219.586.834.834,0,0,1-.641.234.821.821,0,0,1-.637-.234A.834.834,0,0,1,49.4,6.3Zm3.563,6.4a4.952,4.952,0,0,1,.922-3.129,3.137,3.137,0,0,1,4.766-.168V5h1.445V17H58.765l-.07-.906a2.943,2.943,0,0,1-2.414,1.063,2.887,2.887,0,0,1-2.395-1.2,5.008,5.008,0,0,1-.926-3.141Zm1.445.164A3.749,3.749,0,0,0,55,15.117a1.92,1.92,0,0,0,1.641.813A2.108,2.108,0,0,0,58.648,14.7V10.813a2.125,2.125,0,0,0-1.992-1.2,1.929,1.929,0,0,0-1.656.82A4.128,4.128,0,0,0,54.406,12.867ZM67.594,17a3.036,3.036,0,0,1-.2-.891,3.225,3.225,0,0,1-2.406,1.047,2.984,2.984,0,0,1-2.051-.707,2.287,2.287,0,0,1-.8-1.793,2.39,2.39,0,0,1,1-2.051,4.733,4.733,0,0,1,2.824-.73h1.406v-.664A1.623,1.623,0,0,0,66.915,10a1.821,1.821,0,0,0-1.336-.449,2.108,2.108,0,0,0-1.3.391,1.151,1.151,0,0,0-.523.945H62.305a2,2,0,0,1,.449-1.223,3.066,3.066,0,0,1,1.219-.934,4.1,4.1,0,0,1,1.691-.344,3.342,3.342,0,0,1,2.289.73,2.635,2.635,0,0,1,.859,2.012v3.891a4.757,4.757,0,0,0,.3,1.852V17Zm-2.4-1.1a2.54,2.54,0,0,0,1.289-.352,2.127,2.127,0,0,0,.883-.914V12.9H66.235q-2.656,0-2.656,1.555a1.316,1.316,0,0,0,.453,1.063A1.742,1.742,0,0,0,65.2,15.9Zm5.571-3.2a4.952,4.952,0,0,1,.922-3.129,3.137,3.137,0,0,1,4.766-.168V5H77.9V17H76.572l-.07-.906a2.943,2.943,0,0,1-2.414,1.063,2.887,2.887,0,0,1-2.395-1.2,5.008,5.008,0,0,1-.926-3.141Zm1.445.164a3.749,3.749,0,0,0,.594,2.25,1.92,1.92,0,0,0,1.641.813A2.108,2.108,0,0,0,76.455,14.7V10.813a2.125,2.125,0,0,0-1.992-1.2,1.929,1.929,0,0,0-1.656.82A4.128,4.128,0,0,0,72.213,12.867ZM83.832,12.7a4.952,4.952,0,0,1,.922-3.129,3.137,3.137,0,0,1,4.766-.168V5h1.445V17H89.636l-.07-.906a2.943,2.943,0,0,1-2.414,1.063,2.887,2.887,0,0,1-2.395-1.2,5.008,5.008,0,0,1-.926-3.141Zm1.445.164a3.749,3.749,0,0,0,.594,2.25,1.92,1.92,0,0,0,1.641.813A2.108,2.108,0,0,0,89.519,14.7V10.813a2.125,2.125,0,0,0-1.992-1.2,1.929,1.929,0,0,0-1.656.82A4.128,4.128,0,0,0,85.277,12.867Zm13.188,3.3a3.07,3.07,0,0,1-2.477.992,2.628,2.628,0,0,1-2.059-.785,3.4,3.4,0,0,1-.715-2.324v-5.5h1.445v5.461q0,1.922,1.563,1.922a2.163,2.163,0,0,0,2.2-1.234V8.547h1.445V17H98.5Zm7.728-6.32a4.331,4.331,0,0,0-.711-.055A1.9,1.9,0,0,0,103.552,11v6h-1.445V8.547h1.406l.023.977a2.251,2.251,0,0,1,2.016-1.133,1.477,1.477,0,0,1,.641.109ZM112.467,17a3.036,3.036,0,0,1-.2-.891,3.225,3.225,0,0,1-2.406,1.047,2.984,2.984,0,0,1-2.051-.707,2.288,2.288,0,0,1-.8-1.793,2.39,2.39,0,0,1,1-2.051,4.733,4.733,0,0,1,2.824-.73h1.406v-.664A1.623,1.623,0,0,0,111.788,10a1.821,1.821,0,0,0-1.336-.449,2.108,2.108,0,0,0-1.3.391,1.151,1.151,0,0,0-.523.945h-1.453a2,2,0,0,1,.449-1.223,3.066,3.066,0,0,1,1.219-.934,4.1,4.1,0,0,1,1.691-.344,3.342,3.342,0,0,1,2.289.73,2.635,2.635,0,0,1,.859,2.012v3.891a4.757,4.757,0,0,0,.3,1.852V17Zm-2.4-1.1a2.54,2.54,0,0,0,1.289-.352,2.127,2.127,0,0,0,.883-.914V12.9h-1.133q-2.656,0-2.656,1.555a1.316,1.316,0,0,0,.453,1.063A1.742,1.742,0,0,0,110.069,15.9Zm7.29-7.352.047,1.063a3.08,3.08,0,0,1,2.531-1.219q2.68,0,2.7,3.023V17h-1.445V11.406a1.946,1.946,0,0,0-.418-1.352,1.675,1.675,0,0,0-1.277-.437,2.086,2.086,0,0,0-1.234.375,2.546,2.546,0,0,0-.828.984V17h-1.445V8.547ZM126.821,6.5V8.547H128.4V9.664h-1.578v5.249a1.173,1.173,0,0,0,.211.763.888.888,0,0,0,.719.254,3.5,3.5,0,0,0,.688-.094V17a4.215,4.215,0,0,1-1.109.155,1.8,1.8,0,0,1-1.461-.586,2.517,2.517,0,0,1-.492-1.664V9.664h-1.539V8.547h1.539V6.5Zm6.813,10.656a3.693,3.693,0,0,1-2.8-1.129,4.19,4.19,0,0,1-1.078-3.02v-.266a5.073,5.073,0,0,1,.48-2.246,3.748,3.748,0,0,1,1.344-1.547,3.378,3.378,0,0,1,1.871-.559,3.166,3.166,0,0,1,2.563,1.086,4.7,4.7,0,0,1,.914,3.109v.6H131.2a3,3,0,0,0,.73,2.02,2.3,2.3,0,0,0,1.777.77,2.517,2.517,0,0,0,1.3-.312,3.258,3.258,0,0,0,.93-.828l.883.688A3.55,3.55,0,0,1,133.634,17.156Zm-.18-7.578a1.928,1.928,0,0,0-1.469.637A3.1,3.1,0,0,0,131.251,12h4.234v-.109a2.753,2.753,0,0,0-.594-1.707A1.815,1.815,0,0,0,133.454,9.578ZM144.214,17h-1.445V5h1.445Zm7.571,0a3.036,3.036,0,0,1-.2-.891,3.225,3.225,0,0,1-2.406,1.047,2.984,2.984,0,0,1-2.051-.707,2.287,2.287,0,0,1-.8-1.793,2.39,2.39,0,0,1,1-2.051,4.733,4.733,0,0,1,2.824-.73h1.406v-.664A1.623,1.623,0,0,0,151.106,10a1.821,1.821,0,0,0-1.336-.449,2.107,2.107,0,0,0-1.3.391,1.151,1.151,0,0,0-.523.945H146.5a2,2,0,0,1,.449-1.223,3.066,3.066,0,0,1,1.219-.934,4.1,4.1,0,0,1,1.691-.344,3.342,3.342,0,0,1,2.289.73A2.635,2.635,0,0,1,153,11.133v3.891a4.757,4.757,0,0,0,.3,1.852V17Zm-2.4-1.1a2.54,2.54,0,0,0,1.289-.352,2.127,2.127,0,0,0,.883-.914V12.9h-1.133q-2.656,0-2.656,1.555a1.316,1.316,0,0,0,.453,1.063A1.742,1.742,0,0,0,149.387,15.9ZM3.883,39.039l2.094-6.492H7.453L4.422,41H3.32L.258,32.547H1.734ZM10.454,41H9.009V32.547h1.445ZM8.892,30.3a.863.863,0,0,1,.215-.594.807.807,0,0,1,.637-.242.819.819,0,0,1,.641.242.854.854,0,0,1,.219.594.826.826,0,0,1-.219.586.834.834,0,0,1-.641.234.821.821,0,0,1-.637-.234A.834.834,0,0,1,8.892,30.3Zm3.563,6.4a4.952,4.952,0,0,1,.922-3.129,2.915,2.915,0,0,1,2.414-1.184,2.932,2.932,0,0,1,2.352,1.016V29h1.445V41H18.26l-.07-.906a2.943,2.943,0,0,1-2.414,1.063,2.887,2.887,0,0,1-2.395-1.2,5.008,5.008,0,0,1-.926-3.141Zm1.445.164a3.749,3.749,0,0,0,.594,2.25,1.92,1.92,0,0,0,1.641.813A2.108,2.108,0,0,0,18.142,38.7V34.813a2.125,2.125,0,0,0-1.992-1.2,1.929,1.929,0,0,0-1.656.82A4.128,4.128,0,0,0,13.9,36.867ZM27.089,41a3.036,3.036,0,0,1-.2-.891,3.225,3.225,0,0,1-2.406,1.047,2.984,2.984,0,0,1-2.051-.707,2.287,2.287,0,0,1-.8-1.793,2.39,2.39,0,0,1,1-2.051,4.733,4.733,0,0,1,2.824-.73h1.406v-.664A1.623,1.623,0,0,0,26.409,34a1.821,1.821,0,0,0-1.336-.449,2.107,2.107,0,0,0-1.3.391,1.151,1.151,0,0,0-.523.945H21.8a2,2,0,0,1,.449-1.223,3.066,3.066,0,0,1,1.219-.934,4.1,4.1,0,0,1,1.691-.344,3.342,3.342,0,0,1,2.289.73,2.635,2.635,0,0,1,.859,2.012v3.891a4.757,4.757,0,0,0,.3,1.852V41Zm-2.4-1.1a2.54,2.54,0,0,0,1.289-.352,2.127,2.127,0,0,0,.883-.914V36.9H25.729q-2.656,0-2.656,1.555a1.316,1.316,0,0,0,.453,1.063A1.742,1.742,0,0,0,24.69,39.9Zm15.143.266a3.07,3.07,0,0,1-2.477.992,2.628,2.628,0,0,1-2.059-.785,3.4,3.4,0,0,1-.715-2.324v-5.5h1.445v5.461q0,1.922,1.563,1.922a2.163,2.163,0,0,0,2.2-1.234V32.547h1.445V41H39.864ZM38.661,29h1.75l-2.094,2.3-1.164,0Zm6.774,1.5v2.047h1.578v1.117H45.435v5.249a1.173,1.173,0,0,0,.211.763.888.888,0,0,0,.719.254,3.5,3.5,0,0,0,.688-.094V41a4.215,4.215,0,0,1-1.109.155,1.8,1.8,0,0,1-1.461-.586,2.517,2.517,0,0,1-.492-1.664V33.664H42.451V32.547H43.99V30.5ZM50.311,41H48.866V32.547h1.445ZM48.749,30.3a.863.863,0,0,1,.215-.594.807.807,0,0,1,.637-.242.819.819,0,0,1,.641.242.854.854,0,0,1,.219.594.826.826,0,0,1-.219.586.834.834,0,0,1-.641.234.821.821,0,0,1-.637-.234A.834.834,0,0,1,48.749,30.3ZM54.234,41H52.789V29h1.445Zm2.384-.758a.905.905,0,0,1,.223-.625.848.848,0,0,1,.668-.25.874.874,0,0,1,.676.25.887.887,0,0,1,.23.625.839.839,0,0,1-.23.6.89.89,0,0,1-.676.242.8.8,0,0,1-.891-.844Z" transform="translate(-5737.396 -9732)" fill="#12263f"/><rect width="196.41" height="69.069" rx="16" transform="translate(-5480.344 -9744)" fill="#fff1e8"/><path d="M16,2A14,14,0,0,0,2,16V53.069a14,14,0,0,0,14,14H180.41a14,14,0,0,0,14-14V16a14,14,0,0,0-14-14H16m0-2H180.41a16,16,0,0,1,16,16V53.069a16,16,0,0,1-16,16H16a16,16,0,0,1-16-16V16A16,16,0,0,1,16,0Z" transform="translate(-5480.344 -9744)" fill="#feebde"/><path d="M7.6,14.023H2.836L1.766,17H.219L4.563,5.625H5.875L10.227,17H8.688ZM3.289,12.8H7.156L5.219,7.477ZM16.7,16.164a3.07,3.07,0,0,1-2.477.992,2.628,2.628,0,0,1-2.059-.785,3.4,3.4,0,0,1-.715-2.324v-5.5H12.9v5.461q0,1.922,1.563,1.922a2.163,2.163,0,0,0,2.2-1.234V8.547H18.11V17H16.735Zm8.563-1.406a1.064,1.064,0,0,0-.441-.91,4.249,4.249,0,0,0-1.539-.559,7.277,7.277,0,0,1-1.742-.562,2.479,2.479,0,0,1-.953-.781,1.869,1.869,0,0,1-.309-1.078,2.193,2.193,0,0,1,.879-1.758,3.432,3.432,0,0,1,2.246-.719,3.532,3.532,0,0,1,2.332.742,2.357,2.357,0,0,1,.895,1.9H25.182a1.3,1.3,0,0,0-.5-1.023,1.888,1.888,0,0,0-1.27-.43,1.976,1.976,0,0,0-1.234.344,1.082,1.082,0,0,0-.445.9.877.877,0,0,0,.414.789,5.1,5.1,0,0,0,1.5.508,7.8,7.8,0,0,1,1.754.578,2.558,2.558,0,0,1,1,.809,1.988,1.988,0,0,1,.324,1.152,2.163,2.163,0,0,1-.906,1.816,3.8,3.8,0,0,1-2.352.684,4.257,4.257,0,0,1-1.8-.359,2.922,2.922,0,0,1-1.223-1,2.42,2.42,0,0,1-.441-1.395h1.445a1.5,1.5,0,0,0,.582,1.152,2.258,2.258,0,0,0,1.434.426,2.331,2.331,0,0,0,1.316-.332A1.02,1.02,0,0,0,25.267,14.758Zm6.876,2.4a3.693,3.693,0,0,1-2.8-1.129,4.19,4.19,0,0,1-1.078-3.02v-.266a5.073,5.073,0,0,1,.48-2.246,3.748,3.748,0,0,1,1.344-1.547,3.378,3.378,0,0,1,1.871-.559,3.166,3.166,0,0,1,2.563,1.086,4.7,4.7,0,0,1,.914,3.109v.6H29.714a3,3,0,0,0,.73,2.02,2.3,2.3,0,0,0,1.777.77,2.517,2.517,0,0,0,1.3-.312,3.259,3.259,0,0,0,.93-.828l.883.688A3.55,3.55,0,0,1,32.143,17.156Zm-.18-7.578a1.928,1.928,0,0,0-1.469.637A3.1,3.1,0,0,0,29.761,12h4.234v-.109a2.753,2.753,0,0,0-.594-1.707A1.815,1.815,0,0,0,31.964,9.578Zm6.556-1.031.047,1.063A3.08,3.08,0,0,1,41.1,8.391q2.68,0,2.7,3.023V17H42.355V11.406a1.946,1.946,0,0,0-.418-1.352,1.675,1.675,0,0,0-1.277-.437,2.086,2.086,0,0,0-1.234.375,2.546,2.546,0,0,0-.828.984V17H37.152V8.547Zm10.892,7.43a2.082,2.082,0,0,0,1.352-.469,1.649,1.649,0,0,0,.641-1.172H52.77a2.621,2.621,0,0,1-.5,1.383,3.293,3.293,0,0,1-1.23,1.047,3.55,3.55,0,0,1-1.629.391A3.482,3.482,0,0,1,46.665,16a4.59,4.59,0,0,1-1.02-3.152v-.242a5.089,5.089,0,0,1,.453-2.2,3.451,3.451,0,0,1,1.3-1.492,3.7,3.7,0,0,1,2-.531,3.39,3.39,0,0,1,2.363.852,3.043,3.043,0,0,1,1,2.211H51.4a1.992,1.992,0,0,0-.621-1.348A1.932,1.932,0,0,0,49.4,9.578a2.023,2.023,0,0,0-1.707.793,3.724,3.724,0,0,0-.605,2.293v.273a3.65,3.65,0,0,0,.6,2.25A2.033,2.033,0,0,0,49.411,15.977ZM56.006,17H54.56V8.547h1.445ZM54.443,6.3a.863.863,0,0,1,.215-.594.807.807,0,0,1,.637-.242.819.819,0,0,1,.641.242.854.854,0,0,1,.219.594.826.826,0,0,1-.219.586.834.834,0,0,1-.641.234.821.821,0,0,1-.637-.234A.834.834,0,0,1,54.443,6.3ZM63.577,17a3.036,3.036,0,0,1-.2-.891,3.225,3.225,0,0,1-2.406,1.047,2.984,2.984,0,0,1-2.051-.707,2.287,2.287,0,0,1-.8-1.793,2.39,2.39,0,0,1,1-2.051,4.733,4.733,0,0,1,2.824-.73H63.35v-.664A1.623,1.623,0,0,0,62.9,10a1.821,1.821,0,0,0-1.336-.449,2.107,2.107,0,0,0-1.3.391,1.151,1.151,0,0,0-.523.945H58.288a2,2,0,0,1,.449-1.223,3.066,3.066,0,0,1,1.219-.934,4.1,4.1,0,0,1,1.691-.344,3.342,3.342,0,0,1,2.289.73,2.635,2.635,0,0,1,.859,2.012v3.891a4.757,4.757,0,0,0,.3,1.852V17Zm-2.4-1.1a2.54,2.54,0,0,0,1.289-.352,2.127,2.127,0,0,0,.883-.914V12.9H62.218q-2.656,0-2.656,1.555a1.316,1.316,0,0,0,.453,1.063A1.742,1.742,0,0,0,61.178,15.9Zm9.572-3.2a4.952,4.952,0,0,1,.922-3.129,3.137,3.137,0,0,1,4.766-.168V5h1.445V17H76.555l-.07-.906a2.943,2.943,0,0,1-2.414,1.063,2.887,2.887,0,0,1-2.395-1.2,5.008,5.008,0,0,1-.926-3.141Zm1.445.164a3.749,3.749,0,0,0,.594,2.25,1.92,1.92,0,0,0,1.641.813A2.108,2.108,0,0,0,76.438,14.7V10.813a2.125,2.125,0,0,0-1.992-1.2,1.929,1.929,0,0,0-1.656.82A4.128,4.128,0,0,0,72.2,12.867Zm11.478,4.289a3.693,3.693,0,0,1-2.8-1.129,4.19,4.19,0,0,1-1.078-3.02v-.266a5.073,5.073,0,0,1,.48-2.246,3.748,3.748,0,0,1,1.344-1.547,3.378,3.378,0,0,1,1.871-.559,3.166,3.166,0,0,1,2.563,1.086,4.7,4.7,0,0,1,.914,3.109v.6H81.244a3,3,0,0,0,.73,2.02,2.3,2.3,0,0,0,1.777.77,2.517,2.517,0,0,0,1.3-.312,3.259,3.259,0,0,0,.93-.828l.883.688A3.55,3.55,0,0,1,83.673,17.156Zm-.18-7.578a1.928,1.928,0,0,0-1.469.637A3.1,3.1,0,0,0,81.291,12h4.234v-.109a2.753,2.753,0,0,0-.594-1.707A1.815,1.815,0,0,0,83.494,9.578ZM4.484,39.977a2.082,2.082,0,0,0,1.352-.469,1.649,1.649,0,0,0,.641-1.172H7.844a2.621,2.621,0,0,1-.5,1.383,3.293,3.293,0,0,1-1.23,1.047,3.55,3.55,0,0,1-1.629.391A3.482,3.482,0,0,1,1.738,40a4.59,4.59,0,0,1-1.02-3.152v-.242a5.089,5.089,0,0,1,.453-2.2,3.451,3.451,0,0,1,1.3-1.492,3.7,3.7,0,0,1,2-.531,3.39,3.39,0,0,1,2.363.852,3.043,3.043,0,0,1,1,2.211H6.477a1.992,1.992,0,0,0-.621-1.348,1.932,1.932,0,0,0-1.379-.527,2.023,2.023,0,0,0-1.707.793,3.724,3.724,0,0,0-.605,2.293v.273a3.65,3.65,0,0,0,.6,2.25A2.033,2.033,0,0,0,4.484,39.977ZM9.126,36.7a4.993,4.993,0,0,1,.488-2.234,3.643,3.643,0,0,1,1.359-1.531,3.7,3.7,0,0,1,1.988-.539,3.565,3.565,0,0,1,2.793,1.2,4.6,4.6,0,0,1,1.066,3.18v.1a5.036,5.036,0,0,1-.473,2.215A3.589,3.589,0,0,1,15,40.609a3.743,3.743,0,0,1-2.02.547,3.556,3.556,0,0,1-2.785-1.2A4.575,4.575,0,0,1,9.126,36.8Zm1.453.172a3.616,3.616,0,0,0,.652,2.258,2.211,2.211,0,0,0,3.5-.012,3.955,3.955,0,0,0,.648-2.418,3.61,3.61,0,0,0-.66-2.254,2.1,2.1,0,0,0-1.754-.863,2.075,2.075,0,0,0-1.727.852A3.925,3.925,0,0,0,10.579,36.867Zm9.462-4.32.047,1.063a3.08,3.08,0,0,1,2.531-1.219q2.68,0,2.7,3.023V41H23.877V35.406a1.946,1.946,0,0,0-.418-1.352,1.675,1.675,0,0,0-1.277-.437,2.086,2.086,0,0,0-1.234.375,2.546,2.546,0,0,0-.828.984V41H18.674V32.547ZM29.5,30.5v2.047h1.578v1.117H29.5v5.249a1.173,1.173,0,0,0,.211.763.888.888,0,0,0,.719.254,3.5,3.5,0,0,0,.688-.094V41a4.215,4.215,0,0,1-1.109.155,1.8,1.8,0,0,1-1.461-.586,2.517,2.517,0,0,1-.492-1.664V33.664H26.518V32.547h1.539V30.5ZM38.027,41a3.036,3.036,0,0,1-.2-.891,3.225,3.225,0,0,1-2.406,1.047,2.984,2.984,0,0,1-2.051-.707,2.287,2.287,0,0,1-.8-1.793,2.39,2.39,0,0,1,1-2.051,4.733,4.733,0,0,1,2.824-.73H37.8v-.664A1.623,1.623,0,0,0,37.347,34a1.821,1.821,0,0,0-1.336-.449,2.107,2.107,0,0,0-1.3.391,1.151,1.151,0,0,0-.523.945H32.738a2,2,0,0,1,.449-1.223,3.066,3.066,0,0,1,1.219-.934,4.1,4.1,0,0,1,1.691-.344,3.342,3.342,0,0,1,2.289.73,2.635,2.635,0,0,1,.859,2.012v3.891a4.757,4.757,0,0,0,.3,1.852V41Zm-2.4-1.1a2.54,2.54,0,0,0,1.289-.352,2.127,2.127,0,0,0,.883-.914V36.9H36.668q-2.656,0-2.656,1.555a1.316,1.316,0,0,0,.453,1.063A1.742,1.742,0,0,0,35.629,39.9Zm7.282-7.352.039.938a3.122,3.122,0,0,1,2.508-1.094,2.417,2.417,0,0,1,2.414,1.359,3.2,3.2,0,0,1,1.1-.984,3.242,3.242,0,0,1,1.6-.375q2.781,0,2.828,2.945V41H51.95V35.422a1.941,1.941,0,0,0-.414-1.355,1.823,1.823,0,0,0-1.391-.449,1.916,1.916,0,0,0-1.336.48,1.949,1.949,0,0,0-.617,1.293V41H46.739V35.461a1.613,1.613,0,0,0-1.8-1.844,1.934,1.934,0,0,0-1.945,1.211V41H41.544V32.547ZM57.185,41H55.74V32.547h1.445ZM55.623,30.3a.863.863,0,0,1,.215-.594.807.807,0,0,1,.637-.242.819.819,0,0,1,.641.242.854.854,0,0,1,.219.594.826.826,0,0,1-.219.586.834.834,0,0,1-.641.234.821.821,0,0,1-.637-.234A.834.834,0,0,1,55.623,30.3Zm5.282,2.242.047,1.063a3.08,3.08,0,0,1,2.531-1.219q2.68,0,2.7,3.023V41H64.741V35.406a1.946,1.946,0,0,0-.418-1.352,1.675,1.675,0,0,0-1.277-.437,2.086,2.086,0,0,0-1.234.375,2.546,2.546,0,0,0-.828.984V41H59.538V32.547ZM73.625,41a3.036,3.036,0,0,1-.2-.891,3.225,3.225,0,0,1-2.406,1.047,2.984,2.984,0,0,1-2.051-.707,2.288,2.288,0,0,1-.8-1.793,2.39,2.39,0,0,1,1-2.051,4.733,4.733,0,0,1,2.824-.73H73.4v-.664A1.623,1.623,0,0,0,72.945,34a1.821,1.821,0,0,0-1.336-.449,2.107,2.107,0,0,0-1.3.391,1.151,1.151,0,0,0-.523.945H68.336a2,2,0,0,1,.449-1.223A3.066,3.066,0,0,1,70,32.734a4.1,4.1,0,0,1,1.691-.344,3.342,3.342,0,0,1,2.289.73,2.635,2.635,0,0,1,.859,2.012v3.891a4.757,4.757,0,0,0,.3,1.852V41Zm-2.4-1.1a2.54,2.54,0,0,0,1.289-.352,2.127,2.127,0,0,0,.883-.914V36.9H72.265q-2.656,0-2.656,1.555a1.316,1.316,0,0,0,.453,1.063A1.742,1.742,0,0,0,71.226,39.9Zm7.29-7.352.047,1.063a3.08,3.08,0,0,1,2.531-1.219q2.68,0,2.7,3.023V41H82.352V35.406a1.946,1.946,0,0,0-.418-1.352,1.675,1.675,0,0,0-1.277-.437,2.086,2.086,0,0,0-1.234.375,2.546,2.546,0,0,0-.828.984V41H77.149V32.547ZM87.978,30.5v2.047h1.578v1.117H87.978v5.249a1.173,1.173,0,0,0,.211.763.888.888,0,0,0,.719.254,3.5,3.5,0,0,0,.688-.094V41a4.215,4.215,0,0,1-1.109.155,1.8,1.8,0,0,1-1.461-.586,2.517,2.517,0,0,1-.492-1.664V33.664H84.994V32.547h1.539V30.5Zm6.813,10.656a3.693,3.693,0,0,1-2.8-1.129,4.19,4.19,0,0,1-1.078-3.02v-.266A5.073,5.073,0,0,1,91.4,34.5a3.748,3.748,0,0,1,1.344-1.547,3.378,3.378,0,0,1,1.871-.559,3.166,3.166,0,0,1,2.563,1.086,4.7,4.7,0,0,1,.914,3.109v.6H92.362a3,3,0,0,0,.73,2.02,2.3,2.3,0,0,0,1.777.77,2.517,2.517,0,0,0,1.3-.312,3.259,3.259,0,0,0,.93-.828l.883.688A3.55,3.55,0,0,1,94.792,41.156Zm-.18-7.578a1.928,1.928,0,0,0-1.469.637A3.1,3.1,0,0,0,92.409,36h4.234v-.109a2.753,2.753,0,0,0-.594-1.707A1.815,1.815,0,0,0,94.612,33.578Zm10.11,5.18a1.064,1.064,0,0,0-.441-.91,4.249,4.249,0,0,0-1.539-.559A7.277,7.277,0,0,1,101,36.727a2.479,2.479,0,0,1-.953-.781,1.869,1.869,0,0,1-.309-1.078,2.193,2.193,0,0,1,.879-1.758,3.432,3.432,0,0,1,2.246-.719,3.532,3.532,0,0,1,2.332.742,2.357,2.357,0,0,1,.895,1.9h-1.453a1.3,1.3,0,0,0-.5-1.023,1.888,1.888,0,0,0-1.27-.43,1.976,1.976,0,0,0-1.234.344,1.082,1.082,0,0,0-.445.9.877.877,0,0,0,.414.789,5.1,5.1,0,0,0,1.5.508,7.8,7.8,0,0,1,1.754.578,2.558,2.558,0,0,1,1,.809,1.988,1.988,0,0,1,.324,1.152,2.163,2.163,0,0,1-.906,1.816,3.8,3.8,0,0,1-2.352.684,4.257,4.257,0,0,1-1.8-.359,2.922,2.922,0,0,1-1.223-1,2.42,2.42,0,0,1-.441-1.395h1.445a1.5,1.5,0,0,0,.582,1.152,2.258,2.258,0,0,0,1.434.426,2.331,2.331,0,0,0,1.316-.332A1.02,1.02,0,0,0,104.722,38.758Zm3.4,1.484a.905.905,0,0,1,.223-.625.848.848,0,0,1,.668-.25.874.874,0,0,1,.676.25.887.887,0,0,1,.23.625.839.839,0,0,1-.23.6.89.89,0,0,1-.676.242.8.8,0,0,1-.891-.844Z" transform="translate(-5466.122 -9732)" fill="#12263f"/></g></svg>