<svg xmlns="http://www.w3.org/2000/svg" xmlns:xlink="http://www.w3.org/1999/xlink" width="916" height="126.754" viewBox="0 0 916 126.754"><defs><clipPath id="a"><path d="M0,0H172a16,16,0,0,1,16,16v94.754a16,16,0,0,1-16,16H0a0,0,0,0,1,0,0V0A0,0,0,0,1,0,0Z" fill="#edf3fc"/></clipPath><clipPath id="b"><path d="M626.792,164.141c-.046-7.672-59.242-5.067-67.747-4.643-88.54,4.41-86.55,84.808-176.66,84.809-63.175,0-131.764-6.5-153.424,31.416s28.88,46.583,32.49,78-37.682,32.5-68.478,36.833-48.737,20.583-48.737,74.749H626.792V164.141" transform="translate(-144.236 -158.732)" fill="none"/></clipPath><clipPath id="c"><rect width="924.046" height="553.211" fill="none"/></clipPath><clipPath id="d"><path d="M646.072,231.058a108.675,108.675,0,0,0-52.043,25.329c-13.021,11.3-23.322,24.47-42.546,31.922-16.434,6.371-37.1,7.58-54.19,13.3-30.026,10.051-43.377,34.845-28.831,53.542,13.1,16.836,43.777,26.991,56.2,44.012,18.1,24.8-8.674,54.022,1.951,80.336,7.047,17.455,115.459,10.157,115.459,10.157L923.288,486l3.211-215.58s-35.218-26.487-118.142-15.359-71.509-6.108-89.594-17.185c-11.122-6.812-27.812-9.316-44.084-9.316a164.541,164.541,0,0,0-28.607,2.5" transform="translate(-462.557 -228.557)" fill="none"/></clipPath><linearGradient id="e" x1="-0.706" y1="1.413" x2="-0.704" y2="1.413" gradientUnits="objectBoundingBox"><stop offset="0" stop-color="#ffd101"/><stop offset="1" stop-color="#fa7921"/></linearGradient></defs><g transform="translate(-498 -1107.947)"><rect width="915.711" height="126.506" rx="16" transform="translate(498 1108)" fill="#edf3fc"/><g transform="translate(1226 1107.947)" clip-path="url(#a)"><g transform="translate(-0.186 -176.531)"><g clip-path="url(#b)"><g transform="translate(-144.236 -89.026)" opacity="0.7" style="mix-blend-mode:overlay;isolation:isolate"><g clip-path="url(#c)"><path d="M915.513,228.438l8.533-5.057L556.509,0l-8.533,5.057Z" transform="translate(0 0)" fill="#fff"/><path d="M897.247,247.74l8.533-5.058L538.243,19.3,529.71,24.36Z" transform="translate(0 -8.476)" fill="#fff"/><path d="M878.981,267.042l8.533-5.057L519.977,38.6l-8.533,5.057Z" transform="translate(0 -16.953)" fill="#fff"/><path d="M860.716,286.344l8.533-5.058L501.712,57.907l-8.533,5.057Z" transform="translate(0 -25.429)" fill="#fff"/><path d="M842.45,305.646l8.533-5.058L483.446,77.209l-8.533,5.057Z" transform="translate(0 -33.906)" fill="#fff"/><path d="M824.184,324.949l8.533-5.057L465.18,96.511l-8.533,5.057Z" transform="translate(0 -42.382)" fill="#fff"/><path d="M805.918,344.251l8.533-5.057L446.914,115.813l-8.533,5.057Z" transform="translate(0 -50.859)" fill="#fff"/><path d="M787.652,363.553l8.533-5.057L428.648,135.115l-8.533,5.057Z" transform="translate(0 -59.335)" fill="#fff"/><path d="M769.386,382.855l8.533-5.058L410.382,154.418l-8.533,5.057Z" transform="translate(0 -67.811)" fill="#fff"/><path d="M751.12,402.157l8.533-5.057L392.116,173.72l-8.533,5.057Z" transform="translate(0 -76.288)" fill="#fff"/><path d="M732.854,421.46l8.533-5.058L373.85,193.022l-8.533,5.057Z" transform="translate(0 -84.764)" fill="#fff"/><path d="M714.589,440.762l8.533-5.058L355.585,212.324l-8.533,5.057Z" transform="translate(0 -93.241)" fill="#fff"/><path d="M696.323,460.064l8.533-5.057L337.319,231.627l-8.533,5.057Z" transform="translate(0 -101.717)" fill="#fff"/><path d="M678.057,479.366l8.533-5.058L319.053,250.929l-8.533,5.057Z" transform="translate(0 -110.193)" fill="#fff"/><path d="M659.791,498.668l8.533-5.057L300.787,270.231l-8.533,5.057Z" transform="translate(0 -118.67)" fill="#fff"/><path d="M641.525,517.971l8.533-5.058L282.521,289.533l-8.533,5.057Z" transform="translate(0 -127.146)" fill="#fff"/><path d="M623.259,537.273l8.533-5.057L264.255,308.835l-8.533,5.057Z" transform="translate(0 -135.623)" fill="#fff"/><path d="M604.993,556.575l8.533-5.058L245.989,328.138l-8.533,5.057Z" transform="translate(0 -144.099)" fill="#fff"/><path d="M586.727,575.877l8.533-5.057L227.724,347.44,219.19,352.5Z" transform="translate(0 -152.575)" fill="#fff"/><path d="M568.462,595.179l8.533-5.058L209.458,366.742l-8.533,5.057Z" transform="translate(0 -161.052)" fill="#fff"/><path d="M550.2,614.482l8.533-5.058L191.192,386.044l-8.533,5.057Z" transform="translate(0 -169.528)" fill="#fff"/><path d="M531.93,633.784l8.533-5.057L172.926,405.346l-8.533,5.057Z" transform="translate(0 -178.005)" fill="#fff"/><path d="M513.664,653.086l8.533-5.058L154.66,424.649l-8.533,5.057Z" transform="translate(0 -186.481)" fill="#fff"/><path d="M495.4,672.388l8.533-5.057L136.394,443.951l-8.533,5.057Z" transform="translate(0 -194.957)" fill="#fff"/><path d="M477.132,691.69l8.533-5.058L118.128,463.253,109.6,468.31Z" transform="translate(0 -203.434)" fill="#fff"/><path d="M458.866,710.993l8.533-5.057L99.862,482.555l-8.533,5.057Z" transform="translate(0 -211.91)" fill="#fff"/><path d="M440.6,730.295l8.533-5.058L81.6,501.857l-8.533,5.057Z" transform="translate(0 -220.387)" fill="#fff"/><path d="M422.335,749.6l8.533-5.058L63.331,521.16,54.8,526.217Z" transform="translate(0 -228.863)" fill="#fff"/><path d="M404.069,768.9l8.533-5.057L45.065,540.462l-8.533,5.057Z" transform="translate(0 -237.339)" fill="#fff"/><path d="M385.8,788.2l8.533-5.058L26.8,559.764l-8.533,5.057Z" transform="translate(0 -245.816)" fill="#fff"/><path d="M367.537,807.5l8.533-5.057L8.533,579.066,0,584.123Z" transform="translate(0 -254.292)" fill="#fff"/></g></g></g></g><g transform="translate(50.33 -13.46)" opacity="0.05"><g clip-path="url(#d)"><path d="M54.443,555.27l333.572,54.872L333.572,54.872,0,0Z" transform="translate(-113.132 254.924) rotate(-77.053)" fill="url(#e)"/></g></g></g></g></svg>