<svg xmlns="http://www.w3.org/2000/svg" xmlns:xlink="http://www.w3.org/1999/xlink" width="80.139" height="80" viewBox="0 0 80.139 80">
  <defs>
    <clipPath id="clip-path">
      <rect id="Rectángulo_457646" data-name="Rectángulo 457646" width="80.139" height="80" fill="none"/>
    </clipPath>
  </defs>
  <g id="Grupo_1208705" data-name="Grupo 1208705" transform="translate(0 0)">
    <rect id="Rectángulo_457645" data-name="Rectángulo 457645" width="50.935" height="77.369" transform="translate(12.386 1.316)" fill="#b8d0f3"/>
    <g id="Grupo_1208701" data-name="Grupo 1208701" transform="translate(0 0)">
      <g id="Grupo_1208700" data-name="Grupo 1208700" clip-path="url(#clip-path)">
        <path id="Trazado_1262192" data-name="Trazado 1262192" d="M3.954,16.489a2.639,2.639,0,1,1-2.639,2.639,2.638,2.638,0,0,1,2.639-2.639" transform="translate(0.49 6.15)" fill="#fff"/>
        <path id="Trazado_1262193" data-name="Trazado 1262193" d="M11.732,40.564H1.315V54.453H39.509V40.564Z" transform="translate(0.491 15.13)" fill="#fff"/>
        <path id="Trazado_1262194" data-name="Trazado 1262194" d="M58.839,11.431V37.543l-3.472,6.943-3.472-6.943V11.431Z" transform="translate(19.355 4.264)" fill="#fff"/>
        <path id="Trazado_1262195" data-name="Trazado 1262195" d="M58.839,8.632V13.91H51.9V8.632A3.439,3.439,0,0,1,55.367,5.16a3.992,3.992,0,0,1,2.5.972,3.988,3.988,0,0,1,.972,2.5" transform="translate(19.355 1.925)" fill="#fff"/>
        <path id="Trazado_1262196" data-name="Trazado 1262196" d="M50.157,39.25A12.222,12.222,0,1,1,37.935,51.471,12.222,12.222,0,0,1,50.157,39.25" transform="translate(14.148 14.639)" fill="#fff"/>
        <path id="Trazado_1262197" data-name="Trazado 1262197" d="M58.693,38.49a1.764,1.764,0,0,1,.555,1.251,1.353,1.353,0,0,1-.555,1.249,2.074,2.074,0,0,1-1.251.556,1.839,1.839,0,0,1-1.805-1.805,1.512,1.512,0,0,1,.556-1.251,1.686,1.686,0,0,1,2.5,0" transform="translate(20.751 14.149)" fill="#4e8ae1"/>
        <path id="Trazado_1262198" data-name="Trazado 1262198" d="M53.635.555a1.765,1.765,0,0,1,.556,1.251,1.762,1.762,0,0,1-.556,1.249,1.763,1.763,0,0,1-1.251.556,1.839,1.839,0,0,1-1.805-1.805A1.508,1.508,0,0,1,51.135.555,1.761,1.761,0,0,1,52.384,0a2.073,2.073,0,0,1,1.251.555" transform="translate(18.864 0.001)" fill="#4e8ae1"/>
        <path id="Trazado_1262199" data-name="Trazado 1262199" d="M48.577,52.451a1.759,1.759,0,0,1,.556,1.249,1.506,1.506,0,0,1-.556,1.249,2.07,2.07,0,0,1-1.249.556A1.84,1.84,0,0,1,45.521,53.7a1.508,1.508,0,0,1,.556-1.249,1.76,1.76,0,0,1,1.251-.556,2.063,2.063,0,0,1,1.249.556" transform="translate(16.978 19.356)" fill="#4e8ae1"/>
        <path id="Trazado_1262200" data-name="Trazado 1262200" d="M6.8,30.9a1.764,1.764,0,0,1,.555,1.251A1.353,1.353,0,0,1,6.8,33.4a2.074,2.074,0,0,1-1.251.556,1.839,1.839,0,0,1-1.805-1.805A1.512,1.512,0,0,1,4.3,30.9a1.761,1.761,0,0,1,1.249-.555A2.624,2.624,0,0,1,6.8,30.9" transform="translate(1.396 11.319)" fill="#4e8ae1"/>
        <path id="Trazado_1262201" data-name="Trazado 1262201" d="M4.27,9.458a1.762,1.762,0,0,1,.556,1.249,1.512,1.512,0,0,1-.556,1.251,1.765,1.765,0,0,1-1.249.556,1.841,1.841,0,0,1-1.807-1.807A1.509,1.509,0,0,1,1.77,9.458,1.764,1.764,0,0,1,3.021,8.9a1.764,1.764,0,0,1,1.249.555" transform="translate(0.453 3.321)" fill="#4e8ae1"/>
        <path id="Trazado_1262202" data-name="Trazado 1262202" d="M61.476,61.626H9.392a1.839,1.839,0,0,1-1.805-1.807v-8.75a1.805,1.805,0,0,1,3.611,0v6.946H61.615a1.838,1.838,0,0,1,1.805,1.8,2.2,2.2,0,0,1-1.944,1.807" transform="translate(2.83 18.375)" fill="#4e8ae1"/>
        <path id="Trazado_1262203" data-name="Trazado 1262203" d="M9.392,57.36a1.836,1.836,0,0,1-1.805-1.8V1.805A1.838,1.838,0,0,1,9.392,0H61.476a1.837,1.837,0,0,1,1.8,1.805V53.889a1.805,1.805,0,0,1-3.611,0V3.611H11.059V55.693A1.605,1.605,0,0,1,9.392,57.36" transform="translate(2.83 0.001)" fill="#4e8ae1"/>
        <path id="Trazado_1262204" data-name="Trazado 1262204" d="M50.61,65.812A13.888,13.888,0,1,1,64.5,51.924,13.929,13.929,0,0,1,50.61,65.812m0-24.306A10.417,10.417,0,1,0,61.027,51.924,10.492,10.492,0,0,0,50.61,41.507" transform="translate(13.696 14.187)" fill="#4e8ae1"/>
        <path id="Trazado_1262205" data-name="Trazado 1262205" d="M47.328,54.039a1.839,1.839,0,0,1-1.807-1.8V43.483a1.806,1.806,0,0,1,3.612,0v8.751a1.939,1.939,0,0,1-1.805,1.8" transform="translate(16.978 15.545)" fill="#4e8ae1"/>
        <path id="Trazado_1262206" data-name="Trazado 1262206" d="M55.82,48.983a1.709,1.709,0,0,1-1.528-.972l-3.474-6.943a1.775,1.775,0,0,1-.139-.835V9.123a5.276,5.276,0,0,1,5.279-5.279,5.634,5.634,0,0,1,3.75,1.528,5.369,5.369,0,0,1,1.527,3.751v31.25a1.759,1.759,0,0,1-.139.832l-3.472,6.946a2.688,2.688,0,0,1-1.8.832m-1.807-9.027,1.807,3.472,1.8-3.472V9.123a1.7,1.7,0,0,0-.555-1.251,2.074,2.074,0,0,0-1.249-.556,1.84,1.84,0,0,0-1.807,1.807Z" transform="translate(18.902 1.434)" fill="#4e8ae1"/>
        <path id="Trazado_1262207" data-name="Trazado 1262207" d="M59.33,13.727H52.385a1.805,1.805,0,0,1,0-3.611H59.33a1.805,1.805,0,1,1,0,3.611" transform="translate(18.865 3.773)" fill="#4e8ae1"/>
        <path id="Trazado_1262208" data-name="Trazado 1262208" d="M41.776,16.256H15.664a1.805,1.805,0,0,1,0-3.611H41.776a1.838,1.838,0,0,1,1.805,1.8,1.941,1.941,0,0,1-1.805,1.807" transform="translate(5.169 4.717)" fill="#4e8ae1"/>
        <path id="Trazado_1262209" data-name="Trazado 1262209" d="M50.387,20H15.664a1.805,1.805,0,0,1,0-3.611H50.387a1.839,1.839,0,0,1,1.805,1.807A1.75,1.75,0,0,1,50.387,20" transform="translate(5.169 6.113)" fill="#4e8ae1"/>
        <path id="Trazado_1262210" data-name="Trazado 1262210" d="M50.387,23.843H15.664a1.806,1.806,0,0,1,0-3.612H50.387a1.806,1.806,0,0,1,0,3.612" transform="translate(5.169 7.546)" fill="#4e8ae1"/>
        <path id="Trazado_1262211" data-name="Trazado 1262211" d="M50.387,27.586H15.664a1.805,1.805,0,0,1,0-3.611H50.387a1.839,1.839,0,0,1,1.805,1.807,1.75,1.75,0,0,1-1.805,1.8" transform="translate(5.169 8.942)" fill="#4e8ae1"/>
        <path id="Trazado_1262212" data-name="Trazado 1262212" d="M50.387,31.43H15.664a1.805,1.805,0,0,1,0-3.611H50.387a1.805,1.805,0,0,1,0,3.611" transform="translate(5.169 10.376)" fill="#4e8ae1"/>
        <path id="Trazado_1262213" data-name="Trazado 1262213" d="M40,56.649H1.807A1.839,1.839,0,0,1,0,54.842V40.954a1.839,1.839,0,0,1,1.807-1.805H40a1.839,1.839,0,0,1,1.805,1.805V54.842A1.835,1.835,0,0,1,40,56.649M3.472,53.178H38.195V42.76H3.472Z" transform="translate(0 14.602)" fill="#4e8ae1"/>
        <path id="Trazado_1262214" data-name="Trazado 1262214" d="M4.407,23.886A4.3,4.3,0,1,1,8.712,19.58a4.327,4.327,0,0,1-4.306,4.306m0-5.139a.833.833,0,1,0,0,1.667.833.833,0,1,0,0-1.667" transform="translate(0.038 5.698)" fill="#4e8ae1"/>
      </g>
    </g>
  </g>
</svg>
