<svg xmlns="http://www.w3.org/2000/svg" xmlns:xlink="http://www.w3.org/1999/xlink" width="81.054" height="80" viewBox="0 0 81.054 80"><defs><clipPath id="a"><rect width="81.054" height="80" fill="none"/></clipPath></defs><g transform="translate(0 0)" clip-path="url(#a)"><path d="M8.785,43.8A2.585,2.585,0,1,1,6.2,46.385,2.585,2.585,0,0,1,8.785,43.8" transform="translate(2.235 15.792)" fill="#fff"/><path d="M25.9,52.5a3.4,3.4,0,1,1-3.4,3.4,3.4,3.4,0,0,1,3.4-3.4" transform="translate(8.112 18.929)" fill="#fff"/><path d="M63.341,1.3H7.15A5.807,5.807,0,0,0,1.3,7.15V44.7a5.807,5.807,0,0,0,5.85,5.85H35.858A17.862,17.862,0,0,1,66.334,39.123a15.524,15.524,0,0,1,2.857,3.81V7.15a5.724,5.724,0,0,0-5.85-5.85" transform="translate(0.469 0.469)" fill="#fff1e8"/><path d="M21.693,41.744a1.725,1.725,0,0,1,.544,1.224,1.326,1.326,0,0,1-.544,1.224,1.725,1.725,0,0,1-1.224.544A1.8,1.8,0,0,1,18.7,42.969a1.477,1.477,0,0,1,.544-1.224,1.725,1.725,0,0,1,1.224-.544,3.362,3.362,0,0,1,1.224.544" transform="translate(6.742 14.855)" fill="#fdc9a6"/><path d="M6.693,51.744a1.725,1.725,0,0,1,.544,1.224,1.326,1.326,0,0,1-.544,1.224,2.026,2.026,0,0,1-1.224.544A1.8,1.8,0,0,1,3.7,52.969a1.477,1.477,0,0,1,.544-1.224A1.725,1.725,0,0,1,5.469,51.2a3.362,3.362,0,0,1,1.224.544" transform="translate(1.334 18.46)" fill="#fdc9a6"/><path d="M36.327,52.789H7.619A7.607,7.607,0,0,1,0,45.17V7.619A7.607,7.607,0,0,1,7.619,0H63.81a7.607,7.607,0,0,1,7.619,7.619V43.4a1.769,1.769,0,1,1-3.537,0V7.619A4.239,4.239,0,0,0,63.673,3.4H7.619A4.239,4.239,0,0,0,3.4,7.619V45.17a4.239,4.239,0,0,0,4.218,4.218H36.327A1.8,1.8,0,0,1,38.1,51.156a1.687,1.687,0,0,1-1.769,1.633" transform="translate(0 0)" fill="#fdc9a6"/><path d="M9.218,45.865a.816.816,0,0,0,0,1.633.878.878,0,0,0,.816-.816c.136-.408-.272-.816-.816-.816m0,5.17a4.218,4.218,0,1,1,4.218-4.218,4.153,4.153,0,0,1-4.218,4.218" transform="translate(1.803 15.359)" fill="#fdc9a6"/><path d="M26.37,54.737a1.769,1.769,0,1,0,1.769,1.769,1.8,1.8,0,0,0-1.769-1.769m0,6.8a5.17,5.17,0,1,1,5.17-5.17,5.168,5.168,0,0,1-5.17,5.17" transform="translate(7.644 18.46)" fill="#fdc9a6"/><path d="M62.907,53.988l-7.619,7.619L45.9,52.219a1.957,1.957,0,0,0,.408-.272,18.338,18.338,0,0,0,6.122-5.578A20.14,20.14,0,0,1,53.519,44.6Z" transform="translate(16.549 16.08)" fill="#fff"/><path d="M31.885,55.885a17.679,17.679,0,0,1-5.17-13.878A17.862,17.862,0,0,1,57.191,30.579a15.524,15.524,0,0,1,2.857,3.81A17.972,17.972,0,0,1,54.47,58.2a18.248,18.248,0,0,1-22.585-2.313" transform="translate(9.611 9.149)" fill="#fff"/><path d="M55.74,63.692a1.662,1.662,0,0,1-1.224-.544L45.128,53.76a1.746,1.746,0,0,1,.408-2.721,1.957,1.957,0,0,0,.408-.272,1.735,1.735,0,0,1,2.585,1.361l7.347,7.347,5.17-5.17-7.075-6.8a1.971,1.971,0,0,1-1.5-.136,1.617,1.617,0,0,1-.544-2.313l.408-.816a1.746,1.746,0,0,1,2.721-.408l9.388,9.388a1.725,1.725,0,0,1,0,2.449l-7.619,7.619c-.136.272-.544.408-1.088.408" transform="translate(16.096 15.628)" fill="#fdc9a6"/><path d="M45,27.365a15.616,15.616,0,0,0-11.429,4.762,16.3,16.3,0,0,0-4.762,10.34A16.47,16.47,0,0,0,33.576,55.12a16.151,16.151,0,0,0,25.714-3.81,16.394,16.394,0,0,0-.272-15.646,16.026,16.026,0,0,0-2.585-3.4A15.743,15.743,0,0,0,45,27.365m0,35.918A19.591,19.591,0,0,1,25.413,42.331a19.138,19.138,0,0,1,5.714-12.517,19.708,19.708,0,0,1,27.755,0A18.105,18.105,0,0,1,62.012,33.9,20.664,20.664,0,0,1,64.6,43.284,19.618,19.618,0,0,1,54.665,60.7a.133.133,0,0,0-.136.136A20.631,20.631,0,0,1,45,63.284" transform="translate(9.145 8.689)" fill="#fdc9a6"/><path d="M49.793,43.161a1.8,1.8,0,0,1-1.769-1.769,7.751,7.751,0,0,0-7.755-7.755,1.769,1.769,0,0,1,0-3.537A11.207,11.207,0,0,1,51.425,41.256a1.73,1.73,0,0,1-1.633,1.9" transform="translate(13.881 10.853)" fill="#fdc9a6"/><path d="M21.624,10.337H8.019a1.769,1.769,0,1,1,0-3.537H21.624a1.8,1.8,0,0,1,1.769,1.769,2.018,2.018,0,0,1-1.769,1.769" transform="translate(2.253 2.452)" fill="#fdc9a6"/><path d="M21.624,32.537H8.019a1.769,1.769,0,0,1,0-3.537H21.624a1.8,1.8,0,0,1,1.769,1.769,2.018,2.018,0,0,1-1.769,1.769" transform="translate(2.253 10.456)" fill="#fdc9a6"/><path d="M33.461,15.337H8.019a1.769,1.769,0,1,1,0-3.537H33.6a1.8,1.8,0,0,1,1.769,1.769,1.916,1.916,0,0,1-1.9,1.769" transform="translate(2.253 4.255)" fill="#fdc9a6"/><path d="M47.066,20.337H8.019a1.769,1.769,0,1,1,0-3.537H47.2a1.8,1.8,0,0,1,1.769,1.769,1.925,1.925,0,0,1-1.9,1.769" transform="translate(2.253 6.057)" fill="#fdc9a6"/></g></svg>