<svg xmlns="http://www.w3.org/2000/svg" xmlns:xlink="http://www.w3.org/1999/xlink" width="81.209" height="80" viewBox="0 0 81.209 80"><defs><clipPath id="a"><rect width="81.209" height="80" fill="none"/></clipPath></defs><g clip-path="url(#a)"><path d="M29.107,29.278H24.463a1.4,1.4,0,0,1-1.408-1.391,1.336,1.336,0,0,1,.845-1.252,1.6,1.6,0,0,0,.845-1.948A1.667,1.667,0,0,0,23.055,23.3H18.41A1.4,1.4,0,0,1,17,21.9a1.505,1.505,0,0,1,1.408-1.391h1.126A1.829,1.829,0,0,0,21.225,19.4a1.709,1.709,0,0,0-.422-1.948L15.6,12.3a1.5,1.5,0,0,1,0-2.087,1.543,1.543,0,0,1,2.111,0l5.208,5.148a1.757,1.757,0,0,0,1.97.417,1.677,1.677,0,0,0,1.126-1.67V13a1.4,1.4,0,0,1,1.408-1.391A1.505,1.505,0,0,1,28.826,13v4.591a1.658,1.658,0,0,0,1.407,1.67,1.809,1.809,0,0,0,1.97-.835,1.62,1.62,0,0,1,1.267-.835,1.4,1.4,0,0,1,1.407,1.391v4.591a1.658,1.658,0,0,0,1.408,1.67,1.812,1.812,0,0,0,1.971-.835,1.616,1.616,0,0,1,1.266-.835,1.4,1.4,0,0,1,1.407,1.391v5.843H39.1L30.8,22.6a1.8,1.8,0,0,0-2.534,0,1.749,1.749,0,0,0,0,2.5l5.77,5.7H30.8a1.8,1.8,0,0,0-1.689-1.53" transform="translate(5.937 3.835)" fill="#b8d0f3"/><path d="M9.518,30a1.809,1.809,0,1,1-1.83,1.809A1.819,1.819,0,0,1,9.518,30" transform="translate(3.008 11.739)" fill="#4e8ae1"/><path d="M52.511,30a1.809,1.809,0,1,1-1.83,1.809A1.819,1.819,0,0,1,52.511,30" transform="translate(19.832 11.739)" fill="#4e8ae1"/><path d="M9.518,40a1.809,1.809,0,1,1-1.83,1.809A1.819,1.819,0,0,1,9.518,40" transform="translate(3.008 15.652)" fill="#4e8ae1"/><path d="M52.511,40a1.809,1.809,0,1,1-1.83,1.809A1.819,1.819,0,0,1,52.511,40" transform="translate(19.832 15.652)" fill="#4e8ae1"/><path d="M9.518,50a1.809,1.809,0,1,1-1.83,1.809A1.819,1.819,0,0,1,9.518,50" transform="translate(3.008 19.565)" fill="#4e8ae1"/><path d="M52.511,50a1.809,1.809,0,1,1-1.83,1.809A1.819,1.819,0,0,1,52.511,50" transform="translate(19.832 19.565)" fill="#4e8ae1"/><path d="M55.04,16.3a1.809,1.809,0,1,1-1.83,1.809A1.818,1.818,0,0,1,55.04,16.3" transform="translate(20.821 6.378)" fill="#4e8ae1"/><path d="M55.04,7.5a1.809,1.809,0,1,1-1.83,1.809A1.818,1.818,0,0,1,55.04,7.5" transform="translate(20.821 2.935)" fill="#4e8ae1"/><path d="M42.393,1.3a1.809,1.809,0,1,1-1.828,1.809A1.819,1.819,0,0,1,42.393,1.3" transform="translate(15.873 0.509)" fill="#4e8ae1"/><path d="M13.362,0a1.819,1.819,0,0,1,1.83,1.809,1.83,1.83,0,0,1-3.659,0A1.819,1.819,0,0,1,13.362,0" transform="translate(4.513)" fill="#4e8ae1"/><path d="M8.3,8.8a1.809,1.809,0,1,1-1.83,1.809A1.82,1.82,0,0,1,8.3,8.8" transform="translate(2.533 3.443)" fill="#4e8ae1"/><path d="M23.478,16.3a1.809,1.809,0,1,1-1.83,1.809,1.819,1.819,0,0,1,1.83-1.809" transform="translate(8.471 6.378)" fill="#4e8ae1"/><path d="M35.305,18.566a5.674,5.674,0,0,0,5.768,5.7A5.832,5.832,0,0,0,46.844,18.7a5.752,5.752,0,0,0,5.066-8.209l2.675-2.643a1.749,1.749,0,0,0,0-2.5,1.8,1.8,0,0,0-2.534,0L49.378,7.99a5.654,5.654,0,0,0-8.3,5.01,5.645,5.645,0,0,0-5.768,5.565m5.768,2.225a2.226,2.226,0,1,1,2.253-2.225,2.4,2.4,0,0,1-2.253,2.225m5.632-10.017a2.106,2.106,0,0,1,1.547.7,2.166,2.166,0,0,1,0,3.061,2.214,2.214,0,1,1-1.547-3.757" transform="translate(13.815 1.888)" fill="#4e8ae1"/><path d="M79.378,32.085H75.719A10.675,10.675,0,0,0,65.305,23.32,10.545,10.545,0,0,0,54.89,32.085h-4.5V26.24a4.976,4.976,0,0,0-6.052-4.87V20.12a4.975,4.975,0,0,0-6.052-4.87V14a4.867,4.867,0,0,0-4.925-4.87,5.156,5.156,0,0,0-4.363,2.5l-3.1-2.92a4.965,4.965,0,0,0-7.037,0,4.833,4.833,0,0,0,0,6.957l2.957,2.92a4.9,4.9,0,0,0,2.392,9.184h1.267a4.859,4.859,0,0,0,.985,4.174H21.112a4.456,4.456,0,0,0-4.363-5.287h-.985A4.458,4.458,0,0,0,11.4,21.371H4.363a4.314,4.314,0,1,0,0,8.627h.985a3.914,3.914,0,0,0,0,1.807H5.208a1.854,1.854,0,0,0-1.83,1.81V75.355a1.853,1.853,0,0,0,1.83,1.809h74.17a1.854,1.854,0,0,0,1.831-1.809V33.616a1.724,1.724,0,0,0-1.831-1.53M21.393,49.476H63.616V59.911H21.393ZM63.616,73.824H21.393V63.389H63.616ZM7.318,49.476H17.874V59.911H7.318Zm0-13.913H17.874V46H7.318ZM63.616,46H21.393V35.563H63.616Zm3.517,3.478H77.689V59.911H67.133ZM77.689,46H67.133V35.563H77.689ZM65.305,26.8a6.918,6.918,0,0,1,6.755,5.287H70.23a5.227,5.227,0,0,0-9.852,0H58.55A6.917,6.917,0,0,1,65.305,26.8M35.046,30.276H30.4a1.4,1.4,0,0,1-1.407-1.391,1.338,1.338,0,0,1,.845-1.254,1.6,1.6,0,0,0,.845-1.946,1.665,1.665,0,0,0-1.689-1.391H24.349A1.4,1.4,0,0,1,22.941,22.9a1.505,1.505,0,0,1,1.408-1.391h1.126A1.828,1.828,0,0,0,27.162,20.4a1.706,1.706,0,0,0-.422-1.948L21.533,13.3a1.5,1.5,0,0,1,0-2.087,1.545,1.545,0,0,1,2.112,0l5.208,5.148a1.756,1.756,0,0,0,1.97.417,1.679,1.679,0,0,0,1.126-1.671V14a1.4,1.4,0,0,1,1.408-1.391A1.505,1.505,0,0,1,34.763,14v4.59a1.659,1.659,0,0,0,1.407,1.671,1.81,1.81,0,0,0,1.971-.835,1.62,1.62,0,0,1,1.267-.836,1.4,1.4,0,0,1,1.407,1.391v4.593a1.656,1.656,0,0,0,1.408,1.668,1.807,1.807,0,0,0,1.97-.833,1.618,1.618,0,0,1,1.266-.835,1.4,1.4,0,0,1,1.408,1.391v5.842h-1.83l-8.3-8.207a1.8,1.8,0,0,0-2.534,0,1.751,1.751,0,0,0,0,2.5l5.771,5.7H36.733a1.8,1.8,0,0,0-1.688-1.529M3.8,25.963a.9.9,0,0,1,.845-.835h7.037a.835.835,0,1,1,0,1.67H4.644a.807.807,0,0,1-.845-.835M9.007,31.11a.9.9,0,0,1,.845-.833h7.037a.835.835,0,1,1,0,1.67H9.852c-.422.139-.845-.278-.845-.836M7.318,63.389H17.874V73.824H7.318ZM77.689,73.824H67.133V63.389H77.689Z" transform="translate(0 2.837)" fill="#4e8ae1"/><path d="M24.19,8.726h5.348A4.456,4.456,0,0,0,33.9,14.013H40.94a4.313,4.313,0,1,0,0-8.626h-.986A4.456,4.456,0,0,0,35.59.1H24.19a4.36,4.36,0,0,0-4.363,4.313A4.271,4.271,0,0,0,24.19,8.726m17.593.835a.9.9,0,0,1-.843.835H33.9a.9.9,0,0,1-.845-.835.9.9,0,0,1,.845-.835H40.94a.9.9,0,0,1,.843.835M24.19,3.578h11.4a.9.9,0,0,1,.845.835.9.9,0,0,1-.845.835H24.19a.9.9,0,0,1-.845-.835.807.807,0,0,1,.845-.835" transform="translate(7.758 0.039)" fill="#4e8ae1"/><rect width="35.186" height="3.478" transform="translate(24.911 41.878)" fill="#4e8ae1"/><rect width="35.186" height="3.478" transform="translate(24.911 55.791)" fill="#4e8ae1"/><rect width="35.186" height="3.478" transform="translate(24.911 69.704)" fill="#4e8ae1"/></g></svg>