<svg xmlns="http://www.w3.org/2000/svg" xmlns:xlink="http://www.w3.org/1999/xlink" width="85.4" height="80" viewBox="0 0 85.4 80"><defs><clipPath id="a"><rect width="85.4" height="80" fill="none"/></clipPath></defs><g transform="translate(0 0)"><g transform="translate(0 0)" clip-path="url(#a)"><path d="M29.349,50.2A14.224,14.224,0,0,1,25.8,22.2V7.569h7.1V22.2A14.224,14.224,0,0,1,29.349,50.2" transform="translate(6.174 3.087)" fill="#fff"/><path d="M28.867,25.186a19.269,19.269,0,0,0-11.844-2.42,14.215,14.215,0,1,0,25.984,3.166c-4.442,1.3-9.6,1.722-14.14-.746" transform="translate(6.175 9.225)" fill="#b8d0f3"/><rect width="71.048" height="7.105" transform="translate(7.105 71.048)" fill="#fff"/><path d="M32.156,51.632a12.632,12.632,0,0,1-.284,2.416H21.783a13.872,13.872,0,0,1-.284-2.416c0-4.121,4.974-3.838,5.4-9.946a11.918,11.918,0,0,1,5.257,9.946" transform="translate(8.767 17)" fill="#a7c7fc"/><path d="M46.773,32.8H57.43V52.413a5.4,5.4,0,1,1-10.8,0c.142-1.7.142-17.337.142-19.609" transform="translate(19.016 13.378)" fill="#b8d0f3"/><path d="M8.958,13.929a2.7,2.7,0,0,1,2.7,2.7,2.5,2.5,0,0,1-2.7,2.557,2.613,2.613,0,0,1-2.7-2.7,2.578,2.578,0,0,1,2.7-2.557" transform="translate(2.552 5.68)" fill="#a7c7fc"/><path d="M54.873,2.523a4.405,4.405,0,1,1,0,8.81,4.337,4.337,0,0,1-4.405-4.405,4.336,4.336,0,0,1,4.405-4.405" transform="translate(20.581 1.029)" fill="#b8d0f3"/><path d="M41.4,12.616a3.553,3.553,0,1,1-3.552,3.552A3.517,3.517,0,0,1,41.4,12.616" transform="translate(15.436 5.145)" fill="#b8d0f3"/><path d="M53.525,12.616a1.848,1.848,0,1,1-1.847,1.847,1.985,1.985,0,0,1,1.847-1.847" transform="translate(21.075 5.145)" fill="#4e8ae1"/><path d="M53.525,24.022a1.847,1.847,0,1,1-1.847,1.846,1.881,1.881,0,0,1,1.847-1.846" transform="translate(21.075 9.796)" fill="#4e8ae1"/><path d="M37.175,3.835a1.881,1.881,0,0,1,1.847,1.847A1.882,1.882,0,0,1,37.175,7.53a2.011,2.011,0,0,1-1.847-1.989,1.762,1.762,0,0,1,1.847-1.706" transform="translate(14.407 1.564)" fill="#4e8ae1"/><path d="M37.175,37.85a1.847,1.847,0,1,1,0,3.694,1.847,1.847,0,0,1,0-3.694" transform="translate(14.407 15.435)" fill="#4e8ae1"/><path d="M35.862,44.209a1.847,1.847,0,1,1-1.847,1.847,1.881,1.881,0,0,1,1.847-1.847" transform="translate(13.872 18.029)" fill="#4e8ae1"/><path d="M29.6,0a1.88,1.88,0,0,1,1.847,1.846A1.855,1.855,0,0,1,29.6,3.552,1.986,1.986,0,0,1,27.757,1.7,1.761,1.761,0,0,1,29.6,0" transform="translate(11.319 0)" fill="#4e8ae1"/><path d="M19.511,41.685a1.847,1.847,0,1,1-1.847,1.847,1.792,1.792,0,0,1,1.847-1.847" transform="translate(7.203 16.999)" fill="#4e8ae1"/><path d="M15.676,0a1.88,1.88,0,0,1,1.847,1.846,1.763,1.763,0,0,1-1.847,1.706A1.881,1.881,0,0,1,13.829,1.7,1.761,1.761,0,0,1,15.676,0" transform="translate(5.64 0)" fill="#4e8ae1"/><path d="M13.152,36.639a1.848,1.848,0,1,1-1.847,1.847,1.879,1.879,0,0,1,1.847-1.847" transform="translate(4.61 14.941)" fill="#4e8ae1"/><path d="M5.582,22.71a1.847,1.847,0,0,1,0,3.694,1.88,1.88,0,0,1-1.847-1.847A1.984,1.984,0,0,1,5.582,22.71" transform="translate(1.523 9.261)" fill="#4e8ae1"/><path d="M61.688,60a1.882,1.882,0,0,1-1.847-1.847v-5.4H42.221a1.847,1.847,0,0,1,0-3.694H61.688A1.88,1.88,0,0,1,63.535,50.9v7.105A1.914,1.914,0,0,1,61.688,60" transform="translate(16.465 20.004)" fill="#4e8ae1"/><path d="M5.582,59.954a1.881,1.881,0,0,1-1.847-1.847V51a1.881,1.881,0,0,1,1.847-1.847h5.4a1.847,1.847,0,0,1,0,3.694H7.428v5.4a1.86,1.86,0,0,1-1.846,1.706" transform="translate(1.523 20.046)" fill="#4e8ae1"/><path d="M83.553,57.9H1.848a1.848,1.848,0,1,1,0-3.7h81.7A1.883,1.883,0,0,1,85.4,56.049,2.109,2.109,0,0,1,83.553,57.9" transform="translate(0 22.103)" fill="#4e8ae1"/><path d="M47.448,61.617H29.4a1.847,1.847,0,1,1,0-3.694H45.6V31.35H38.355c-1,0-.144-.853-.144-1.848s-.852-1.847,0-1.847h8.954A1.88,1.88,0,0,1,49.011,29.5V59.77a1.652,1.652,0,0,1-1.563,1.847" transform="translate(11.238 11.278)" fill="#4e8ae1"/><path d="M27.321,61.576H9.417a1.879,1.879,0,0,1-1.846-1.847V29.6a1.88,1.88,0,0,1,1.846-1.847H18.37A1.882,1.882,0,0,1,20.217,29.6a1.862,1.862,0,0,1-1.706,1.848H11.123V58.165h16.2a1.881,1.881,0,0,1,1.847,1.848,1.857,1.857,0,0,1-1.847,1.563" transform="translate(3.088 11.319)" fill="#4e8ae1"/><path d="M30.139,9.952H28.292a1.847,1.847,0,1,1,0-3.694h1.847a1.881,1.881,0,0,1,1.847,1.847,2.108,2.108,0,0,1-1.847,1.847" transform="translate(10.784 2.552)" fill="#4e8ae1"/><path d="M23.78,9.952H21.933a1.847,1.847,0,0,1,0-3.694H23.78a1.847,1.847,0,0,1,0,3.694" transform="translate(8.191 2.552)" fill="#4e8ae1"/><path d="M29.884,52.58A15.975,15.975,0,0,1,13.969,38.656a9.472,9.472,0,0,1-.141-1.989A15.937,15.937,0,0,1,24.485,21.6V8.105a1.88,1.88,0,0,1,1.847-1.847h7.1a1.881,1.881,0,0,1,1.848,1.847V21.462A15.934,15.934,0,0,1,45.941,36.524a9.374,9.374,0,0,1-.142,1.989A16.1,16.1,0,0,1,29.884,52.58m-1.7-42.628V22.884a1.7,1.7,0,0,1-1.278,1.7,12.46,12.46,0,0,0-9.379,12.079,5.817,5.817,0,0,0,.142,1.563,12.455,12.455,0,0,0,24.725,0c0-.567.141-.994.141-1.563a12.46,12.46,0,0,0-9.377-12.079,1.573,1.573,0,0,1-1.28-1.7V9.952Z" transform="translate(5.639 2.552)" fill="#4e8ae1"/><path d="M52.526,60.053a7.037,7.037,0,0,1-7.105-7.105V33.338a1.847,1.847,0,1,1,3.694,0V52.947a3.553,3.553,0,1,0,7.105,0V33.338a1.879,1.879,0,0,1,1.846-1.847,1.653,1.653,0,0,1,1.564,1.847V52.947a7.124,7.124,0,0,1-7.1,7.105" transform="translate(18.523 12.842)" fill="#4e8ae1"/><path d="M60.165,35.185H45.956a1.847,1.847,0,0,1,0-3.694H60.165a1.847,1.847,0,0,1,0,3.694" transform="translate(17.988 12.842)" fill="#4c7fc7"/><path d="M47.231,47.483a1.56,1.56,0,0,1-1.42-.852,1.749,1.749,0,0,1,.427-2.416l5.4-3.553A1.734,1.734,0,0,1,53.625,43.5l-5.4,3.552a1.89,1.89,0,0,1-1,.427" transform="translate(18.558 16.459)" fill="#4e8ae1"/><path d="M32.366,56.405H22.277a1.689,1.689,0,0,1-1.7-1.42,19.232,19.232,0,0,1-.284-2.842c0-2.7,1.563-4.121,2.842-5.257a6.232,6.232,0,0,0,2.557-4.832,1.712,1.712,0,0,1,1-1.422,1.749,1.749,0,0,1,1.847.144,13.721,13.721,0,0,1,6.11,11.509,19.063,19.063,0,0,1-.284,2.842,2.758,2.758,0,0,1-1.989,1.278M23.7,52.853H30.8v-.711a10.422,10.422,0,0,0-2.416-6.679A9.131,9.131,0,0,1,25.4,49.442c-1.138,1-1.564,1.564-1.564,2.559a1.8,1.8,0,0,0-.142.852" transform="translate(8.274 16.49)" fill="#4e8ae1"/><path d="M41.938,22.1a5.4,5.4,0,1,1,5.4-5.4,5.4,5.4,0,0,1-5.4,5.4m0-7.105a1.847,1.847,0,1,0,1.847,1.847A1.88,1.88,0,0,0,41.938,15" transform="translate(14.9 4.61)" fill="#4e8ae1"/><path d="M9.452,21.528a4.405,4.405,0,1,1,4.405-4.405,4.427,4.427,0,0,1-4.405,4.405m0-5.4a.852.852,0,1,0,0,1.7.916.916,0,0,0,.852-.853c.142-.425-.284-.852-.852-.852" transform="translate(2.058 5.186)" fill="#4e8ae1"/><path d="M55.408,13.715a6.307,6.307,0,0,1-6.252-6.252,6.251,6.251,0,1,1,12.5,0,6.307,6.307,0,0,1-6.251,6.252m0-8.81a2.7,2.7,0,0,0-2.7,2.7,2.7,2.7,0,1,0,5.4,0,2.613,2.613,0,0,0-2.7-2.7" transform="translate(20.046 0.494)" fill="#4e8ae1"/></g></g></svg>