<svg xmlns="http://www.w3.org/2000/svg" xmlns:xlink="http://www.w3.org/1999/xlink" width="71.725" height="80" viewBox="0 0 71.725 80"><defs><clipPath id="a"><rect width="71.725" height="80" fill="none"/></clipPath></defs><g transform="translate(0 0)"><g transform="translate(0 0)" clip-path="url(#a)"><path d="M26.173,19H39.29V36.133L56.454,65.425a3.543,3.543,0,0,1-2.095,5.25H11.1a3.7,3.7,0,0,1-2.093-5.25L26.173,36.133ZM45.709,62.247a1.838,1.838,0,0,0-1.814-1.8,1.72,1.72,0,0,0-1.675,1.8,1.838,1.838,0,0,0,1.816,1.8,2.058,2.058,0,0,0,1.673-1.8M24.778,55.339a1.814,1.814,0,1,0-1.813,1.8,2.058,2.058,0,0,0,1.813-1.8" transform="translate(3.271 7.252)" fill="#fff"/><path d="M56.453,57.925l-9.47-16.162c-4.47,1.387-9.763,1.926-14.392-.59A18.8,18.8,0,0,0,20.151,38.91L9.009,57.925a3.7,3.7,0,0,0,2.093,5.25H54.359a3.542,3.542,0,0,0,2.095-5.25" transform="translate(3.27 14.752)" fill="#b8d0f3"/><path d="M7.325,26.5a3.454,3.454,0,1,1,0,6.908,3.454,3.454,0,1,1,0-6.908" transform="translate(1.465 10.115)" fill="#fff"/><path d="M46.036,10.3a4.283,4.283,0,1,1-4.326,4.283A4.326,4.326,0,0,1,46.036,10.3" transform="translate(15.92 3.932)" fill="#fff"/><path d="M46.511,39A3.438,3.438,0,0,1,50,42.454a3.488,3.488,0,0,1-6.976,0A3.437,3.437,0,0,1,46.511,39" transform="translate(16.422 14.886)" fill="#fff"/><path d="M23.007,8.037a4.188,4.188,0,0,1,1.675,5.941,4.345,4.345,0,0,1-6,1.52,4.884,4.884,0,0,1-2.092-2.349c-.839-2.487.7-3.592-2.651-5.112,2.371,0,5.581-1.934,9.069,0" transform="translate(5.32 2.74)" fill="#b8d0f3"/><path d="M28.356,13.442l-.56-.553a6.357,6.357,0,0,1,.839-9.119c4.6-3.731,9.907-1.934,13.394-2.349-3.069,2.073-.977,9.119-4.884,12.3a6.818,6.818,0,0,1-8.789-.276" transform="translate(10.02 0.513)" fill="#b8d0f3"/><path d="M43.524,27.8a1.8,1.8,0,1,1-1.814,1.8,1.751,1.751,0,0,1,1.814-1.8" transform="translate(15.92 10.611)" fill="#4e8ae1"/><path d="M34.637,49a1.8,1.8,0,1,1-1.813,1.8A1.938,1.938,0,0,1,34.637,49" transform="translate(12.529 18.703)" fill="#4e8ae1"/><path d="M19.488,44a1.8,1.8,0,1,1-1.814,1.8A1.941,1.941,0,0,1,19.488,44" transform="translate(6.746 16.795)" fill="#4e8ae1"/><path d="M16.963,19a1.8,1.8,0,1,1-1.813,1.8A1.838,1.838,0,0,1,16.963,19" transform="translate(5.783 7.252)" fill="#4e8ae1"/><path d="M4.339,9a1.8,1.8,0,1,1,0,3.592,1.837,1.837,0,0,1-1.813-1.8A1.938,1.938,0,0,1,4.339,9" transform="translate(0.964 3.435)" fill="#4e8ae1"/><path d="M33.418,17.409A8.691,8.691,0,0,1,27.7,15.2c-.279-.276-.558-.415-.7-.691A8.229,8.229,0,0,1,27.974,2.9,13.8,13.8,0,0,1,36.766,0a15.317,15.317,0,0,1,2.512.138c.7,0,1.4.138,1.954.138h.977a1.692,1.692,0,0,1,1.813,1.105,1.82,1.82,0,0,1-.7,2.073c-.836.553-1.115,2.349-1.256,4.145-.417,2.625-.836,5.941-3.348,8.014a9.063,9.063,0,0,1-5.3,1.8M29.649,12.3l.42.415a5.027,5.027,0,0,0,3.349,1.244,4.905,4.905,0,0,0,3.069-1.105c1.535-1.244,1.814-3.592,2.233-5.941a12.745,12.745,0,0,1,.7-3.316h-.14c-.7,0-1.535-.138-2.372-.138a9.5,9.5,0,0,0-6.559,2.073,4.784,4.784,0,0,0-.7,6.77" transform="translate(9.562 0)" fill="#4e8ae1"/><path d="M26.852,26.73a1.653,1.653,0,0,1-1.675-1.382c-.14-.829-.279-1.52-.42-2.349a19.533,19.533,0,0,1,2.651-11.192,30.992,30.992,0,0,1,6.839-8.014,1.934,1.934,0,0,1,2.511.276,1.9,1.9,0,0,1-.279,2.487,28.969,28.969,0,0,0-6,6.908,14.809,14.809,0,0,0-2.231,9.119,7.934,7.934,0,0,0,.279,1.8,1.738,1.738,0,0,1-1.256,2.073c-.141.138-.279.276-.419.276" transform="translate(9.43 1.318)" fill="#4e8ae1"/><path d="M21.282,18.473h0a6.289,6.289,0,0,1-5.86-4.145A9.213,9.213,0,0,1,15,11.841c0-.415,0-.691-.138-.829,0-.138-.279-.415-1.256-.829a1.756,1.756,0,0,1-.977-1.934,1.653,1.653,0,0,1,1.675-1.382,4.858,4.858,0,0,0,1.814-.415A15.605,15.605,0,0,1,20.026,5.9a8.587,8.587,0,0,1,4.187,1.105A6.233,6.233,0,0,1,27.145,10.6a6.142,6.142,0,0,1-.56,4.7,5.958,5.958,0,0,1-5.3,3.178m-2.511-5.389a2.438,2.438,0,0,0,1.255,1.382,2.382,2.382,0,0,0,1.4.415,2.645,2.645,0,0,0,2.231-1.244,2.737,2.737,0,0,0,.279-2.073,2.314,2.314,0,0,0-1.256-1.52,5.253,5.253,0,0,0-2.511-.691,9.511,9.511,0,0,0-1.954.276,9.5,9.5,0,0,1,.417,1.934,1.946,1.946,0,0,0,.141,1.52" transform="translate(4.811 2.252)" fill="#4e8ae1"/><path d="M28.655,23.665a1.6,1.6,0,0,1-1.675-1.658,6.937,6.937,0,0,0-.279-1.8,7.064,7.064,0,0,0-5.3-5.25,1.762,1.762,0,1,1,.7-3.454,10.786,10.786,0,0,1,7.954,7.876c.138.691.279,1.52.417,2.349a1.952,1.952,0,0,1-1.813,1.934h0" transform="translate(7.627 4.384)" fill="#4e8ae1"/><path d="M26.559,63.943a1.839,1.839,0,0,1-1.816-1.8V20.7a1.814,1.814,0,0,1,3.628,0V62.147a1.837,1.837,0,0,1-1.813,1.8" transform="translate(9.444 7.214)" fill="#4e8ae1"/><path d="M53.717,73.244H12.69a7.069,7.069,0,0,1-1.675-.276A5.423,5.423,0,0,1,7.668,69.79a5.237,5.237,0,0,1,.419-4.56L24.969,36.353V19.5a1.839,1.839,0,0,1,1.816-1.8H39.9a1.837,1.837,0,0,1,1.813,1.8V36.215L58.322,65.092a5.255,5.255,0,0,1,.417,4.56A5.1,5.1,0,0,1,55.39,72.83a3.744,3.744,0,0,1-1.673.415m-25.4-51.952V36.767a1.95,1.95,0,0,1-.279.829L11.016,66.888a1.794,1.794,0,0,0-.138,1.658,1.969,1.969,0,0,0,1.255,1.105c.14,0,.419.138.558.138H53.717c.278,0,.417,0,.557-.138a1.971,1.971,0,0,0,1.256-1.105,1.8,1.8,0,0,0-.14-1.658L38.227,37.6a2.012,2.012,0,0,1-.141-.967V21.292Z" transform="translate(2.799 6.756)" fill="#4e8ae1"/><path d="M69.911,58.792H1.816a1.8,1.8,0,1,1,0-3.592h68.1A1.838,1.838,0,0,1,71.725,57a2.061,2.061,0,0,1-1.814,1.8" transform="translate(0 21.07)" fill="#4e8ae1"/><path d="M7.827,35.7a5.251,5.251,0,1,1,5.3-5.25,5.274,5.274,0,0,1-5.3,5.25m0-6.908a1.8,1.8,0,1,0,1.814,1.8,1.751,1.751,0,0,0-1.814-1.8" transform="translate(0.964 9.619)" fill="#4e8ae1"/><path d="M47.013,48.2a5.251,5.251,0,1,1,5.3-5.25,5.461,5.461,0,0,1-5.3,5.25m0-6.908a1.8,1.8,0,1,0,1.816,1.8,1.942,1.942,0,0,0-1.816-1.8" transform="translate(15.92 14.39)" fill="#4e8ae1"/><path d="M46.537,21.159A6.163,6.163,0,0,1,40.4,15.079a6.14,6.14,0,0,1,12.279,0,6.164,6.164,0,0,1-6.14,6.079m0-8.7a2.625,2.625,0,1,0,2.651,2.625,2.553,2.553,0,0,0-2.651-2.625" transform="translate(15.42 3.435)" fill="#4e8ae1"/></g></g></svg>