<svg xmlns="http://www.w3.org/2000/svg" xmlns:xlink="http://www.w3.org/1999/xlink" width="88.053" height="80" viewBox="0 0 88.053 80"><defs><clipPath id="a"><rect width="88.053" height="80" fill="none"/></clipPath></defs><g transform="translate(0 0)" clip-path="url(#a)"><path d="M46.71,1.3a5,5,0,0,1,5,4.95,5,5,0,0,1-10,0,5,5,0,0,1,5-4.95" transform="translate(24.893 0.776)" fill="#b8d0f3"/><path d="M28.069,11.3a3.992,3.992,0,1,1-4.032,3.992A3.972,3.972,0,0,1,28.069,11.3" transform="translate(14.345 6.744)" fill="#b8d0f3"/><path d="M21.217,5.534V50.4H15.25V5.534A3.047,3.047,0,0,1,18.314,2.5a2.611,2.611,0,0,1,2.1.958,3.019,3.019,0,0,1,.806,2.076" transform="translate(9.101 1.492)" fill="#b8d0f3"/><path d="M26.816,37.39v3.194H12.624V37.39a4.83,4.83,0,0,1,4.838-4.79h4.354a4.77,4.77,0,0,1,5,4.79" transform="translate(7.534 19.456)" fill="#b8d0f3"/><path d="M35.348,51.552h2.1V43.568H28.251L25.35,27.6H61.634L57.925,48.2,55.506,61.452H35.348Z" transform="translate(15.129 16.472)" fill="#b8d0f3"/><path d="M51.79,37.6v7.984H1.313V37.6H51.79Z" transform="translate(0.784 22.44)" fill="#b8d0f3"/><path d="M24.164,43.4a2.124,2.124,0,0,1-2.1-2.076V38.126a2.877,2.877,0,0,0-2.9-2.874,2.076,2.076,0,1,1,0-4.152A6.85,6.85,0,0,1,26.1,37.966V41.16A1.947,1.947,0,0,1,24.164,43.4" transform="translate(10.186 18.561)" fill="#4e8ae1"/><path d="M13.51,43.336a2.124,2.124,0,0,1-2.1-2.076V38.066A6.849,6.849,0,0,1,18.346,31.2a2.076,2.076,0,1,1,0,4.152,2.878,2.878,0,0,0-2.9,2.874V41.42a1.95,1.95,0,0,1-1.934,1.916" transform="translate(6.811 18.621)" fill="#4e8ae1"/><path d="M18.029,49.2h2.1V6.25c0-.319-.161-.639-.323-.639a1.227,1.227,0,0,0-.645-.319,1.036,1.036,0,0,0-.968.958V49.2ZM22.061,53.2H15.933a2.124,2.124,0,0,1-2.1-2.076V6.25a5.029,5.029,0,0,1,8.548-3.513A4.928,4.928,0,0,1,23.835,6.25V51.12A1.7,1.7,0,0,1,22.061,53.2" transform="translate(8.257 0.776)" fill="#4e8ae1"/><path d="M52.553,64.313H32.395a2.076,2.076,0,1,1,0-4.152H50.942l5.8-32.255a1.962,1.962,0,0,1,3.871.639L54.488,62.557a2.054,2.054,0,0,1-1.935,1.756" transform="translate(18.082 15.687)" fill="#4e8ae1"/><path d="M29.044,46.269a1.91,1.91,0,0,1-1.934-1.6L24.046,28.7a2.117,2.117,0,0,1,1.613-2.4,2.139,2.139,0,0,1,2.419,1.6l3.063,15.968a2.115,2.115,0,0,1-1.611,2.4Z" transform="translate(14.336 15.687)" fill="#4e8ae1"/><path d="M52.573,48.276h-2.1a2.076,2.076,0,1,1,0-4.152V40.292H4.193v3.992a2.076,2.076,0,1,1,0,4.152H2.1A2.124,2.124,0,0,1,0,46.36V38.376A2.124,2.124,0,0,1,2.1,36.3H52.573a2.124,2.124,0,0,1,2.1,2.076V46.36a2.232,2.232,0,0,1-2.1,1.916" transform="translate(0 21.664)" fill="#4e8ae1"/><path d="M5.345,51.42H47.758V45.352H5.345Zm44.348,3.992H3.41a2.124,2.124,0,0,1-2.1-2.076V43.276A2.124,2.124,0,0,1,3.41,41.2H49.854a2.124,2.124,0,0,1,2.1,2.076v10.06a2.4,2.4,0,0,1-2.258,2.076" transform="translate(0.784 24.589)" fill="#4e8ae1"/><path d="M27.641,25.352a2.124,2.124,0,0,0-2.1,2.076,1.941,1.941,0,0,0,.645,1.437,2.413,2.413,0,0,0,1.451.639H63.925a2.124,2.124,0,0,0,2.1-2.076,1.941,1.941,0,0,0-.645-1.437,1.979,1.979,0,0,0-1.451-.639Zm36.284,7.984H27.641a6.565,6.565,0,0,1-4.354-1.756A6.085,6.085,0,0,1,27.641,21.2H63.925a6.565,6.565,0,0,1,4.354,1.756,6.138,6.138,0,0,1,1.774,4.311,6.312,6.312,0,0,1-6.129,6.068" transform="translate(12.838 12.652)" fill="#4e8ae1"/><path d="M58.444,51.574a8.9,8.9,0,0,1-5.967-2.236l-1.129-1.118L34.9,33.53a2.017,2.017,0,0,1-.161-2.874,2.066,2.066,0,0,1,2.9-.16L55.219,46.3a5.1,5.1,0,0,0,8.386-3.673,4.218,4.218,0,0,0-.484-1.916l-2.58-5.908a1.825,1.825,0,0,1,1.129-2.555,1.854,1.854,0,0,1,2.58,1.118l2.58,5.908a8.631,8.631,0,0,1,.806,3.513,8.944,8.944,0,0,1-7.58,8.782Z" transform="translate(20.416 17.887)" fill="#4e8ae1"/><path d="M28.853,14.152a2.076,2.076,0,1,0,2.1,2.076,2.123,2.123,0,0,0-2.1-2.076m0,7.984a6.068,6.068,0,1,1,6.127-6.068,6.1,6.1,0,0,1-6.127,6.068" transform="translate(13.562 5.968)" fill="#4e8ae1"/><path d="M7.626,26.592a.958.958,0,1,0,0,1.916.958.958,0,1,0,0-1.916m0,5.908a4.95,4.95,0,1,1,5-4.95,5,5,0,0,1-5,4.95" transform="translate(1.567 13.488)" fill="#4e8ae1"/><path d="M47.493,4.152a3.048,3.048,0,0,0-3.064,3.034,3.064,3.064,0,0,0,6.129,0,2.951,2.951,0,0,0-3.064-3.034m0,9.9A7.123,7.123,0,0,1,40.4,7.026a7.1,7.1,0,0,1,14.191,0,7.02,7.02,0,0,1-7.1,7.026" transform="translate(24.11 0)" fill="#4e8ae1"/></g></svg>