<svg xmlns="http://www.w3.org/2000/svg" xmlns:xlink="http://www.w3.org/1999/xlink" width="80" height="80" viewBox="0 0 80 80"><defs><clipPath id="a"><rect width="80" height="80" transform="translate(0.195)" fill="none"/></clipPath></defs><g transform="translate(-0.196)"><g transform="translate(0)" clip-path="url(#a)"><path d="M3.229,0h69.93a3.23,3.23,0,0,1,3.23,3.23V50.521a3.23,3.23,0,0,1-3.23,3.23H3.229A3.229,3.229,0,0,1,0,50.522V3.229A3.229,3.229,0,0,1,3.229,0Z" transform="translate(1.805 14.027)" fill="#fff"/><path d="M43.394,54.811v4.862h-22.5V54.811a5.573,5.573,0,0,0,5.556-5.556H37.976a5.37,5.37,0,0,0,5.417,5.556" transform="translate(7.857 18.521)" fill="#b8d0f3"/><path d="M8.62,1.312a3.438,3.438,0,0,1,3.472,3.472,3.472,3.472,0,1,1-6.943,0A3.438,3.438,0,0,1,8.62,1.312" transform="translate(1.936 0.493)" fill="#fff"/><path d="M49.371,2.624A2.637,2.637,0,0,1,52.01,5.263a2.639,2.639,0,1,1-5.277,0,2.554,2.554,0,0,1,2.638-2.639" transform="translate(17.573 0.986)" fill="#fff"/><path d="M43.947,18.976a3.472,3.472,0,1,1-3.472,3.472,3.438,3.438,0,0,1,3.472-3.472" transform="translate(15.22 7.135)" fill="#fff"/><rect width="65.973" height="38.195" transform="translate(7.082 19.165)" fill="#b8d0f3"/><path d="M25.788,22.508A12.2,12.2,0,1,1,10.094,34.175a12.083,12.083,0,0,1,8.749-11.667V6.258h6.945v16.25Z" transform="translate(3.796 2.353)" fill="#fff"/><path d="M45.953,52.373a1.757,1.757,0,0,1,.555,1.249,1.508,1.508,0,0,1-.555,1.251,1.944,1.944,0,0,1-1.249.417A1.839,1.839,0,0,1,42.9,53.485a1.507,1.507,0,0,1,.556-1.251,1.762,1.762,0,0,1,1.251-.556,1.459,1.459,0,0,1,1.249.695" transform="translate(16.131 19.433)" fill="#4e8ae1"/><path d="M42.079,1.906a1.758,1.758,0,0,1,.556,1.249,1.355,1.355,0,0,1-.556,1.251,1.773,1.773,0,0,1-2.916-1.388,1.506,1.506,0,0,1,.555-1.251,1.761,1.761,0,0,1,1.249-.556,1.235,1.235,0,0,1,1.112.695" transform="translate(14.727 0.455)" fill="#4e8ae1"/><path d="M34.548,22.055A1.763,1.763,0,0,1,35.1,23.3a1.354,1.354,0,0,1-.555,1.251,1.761,1.761,0,0,1-1.251.555A1.838,1.838,0,0,1,31.492,23.3a1.506,1.506,0,0,1,.556-1.249A1.758,1.758,0,0,1,33.3,21.5a1.355,1.355,0,0,1,1.251.556" transform="translate(11.842 8.084)" fill="#4e8ae1"/><path d="M32.024,4.391a1.763,1.763,0,0,1,.555,1.249,1.508,1.508,0,0,1-.555,1.251,2.068,2.068,0,0,1-1.251.555A1.838,1.838,0,0,1,28.968,5.64a1.506,1.506,0,0,1,.556-1.249,1.761,1.761,0,0,1,1.249-.556,1.355,1.355,0,0,1,1.251.556" transform="translate(10.893 1.442)" fill="#4e8ae1"/><path d="M30.813,44.765a1.762,1.762,0,0,1,.556,1.251,1.508,1.508,0,0,1-.556,1.249,1.759,1.759,0,0,1-1.251.556,1.84,1.84,0,0,1-1.805-1.805,1.506,1.506,0,0,1,.557-1.251,2.484,2.484,0,0,1,1.248-.556,1.507,1.507,0,0,1,1.251.556" transform="translate(10.438 16.624)" fill="#4e8ae1"/><path d="M16.884.556a1.757,1.757,0,0,1,.555,1.249,1.35,1.35,0,0,1-.555,1.249,2.062,2.062,0,0,1-1.249.556,1.838,1.838,0,0,1-1.807-1.805A1.508,1.508,0,0,1,14.385.556,2.059,2.059,0,0,1,15.635,0a1.761,1.761,0,0,1,1.249.556" transform="translate(5.2 0)" fill="#4e8ae1"/><path d="M15.673,52.335a1.763,1.763,0,0,1,.555,1.249,1.838,1.838,0,0,1-1.8,1.807,1.507,1.507,0,0,1-1.251-.556,1.762,1.762,0,0,1-.556-1.251,1.506,1.506,0,0,1,.556-1.249,2.063,2.063,0,0,1,1.251-.556,1.354,1.354,0,0,1,1.249.556" transform="translate(4.744 19.471)" fill="#4e8ae1"/><path d="M39.257,61.971a1.838,1.838,0,0,1-1.805-1.805V56.833A7.3,7.3,0,0,1,31.9,49.749a1.805,1.805,0,1,1,3.611,0,3.883,3.883,0,0,0,3.89,3.889A1.837,1.837,0,0,1,41.2,55.443V60.3a2.078,2.078,0,0,1-1.944,1.666" transform="translate(11.994 18.028)" fill="#4e8ae1"/><path d="M21.386,62.009a1.837,1.837,0,0,1-1.8-1.805V55.342a1.838,1.838,0,0,1,1.8-1.805,3.881,3.881,0,0,0,3.889-3.889,1.806,1.806,0,0,1,3.612,0,7.3,7.3,0,0,1-5.556,7.084v3.333c-.278,1.112-.971,1.944-1.944,1.944" transform="translate(7.364 17.99)" fill="#4e8ae1"/><path d="M49.508,59.125H18.258a1.805,1.805,0,0,1,0-3.611h31.25a1.837,1.837,0,0,1,1.805,1.805,2.058,2.058,0,0,1-1.805,1.805" transform="translate(6.187 20.875)" fill="#4e8ae1"/><path d="M71.614,54.422H5.641a1.838,1.838,0,0,1-1.805-1.805V14.422a1.838,1.838,0,0,1,1.805-1.805h15.7a1.805,1.805,0,0,1,0,3.611H7.447V50.951h62.5V16.228H28.281a1.805,1.805,0,1,1,0-3.611h43.47a1.838,1.838,0,0,1,1.807,1.805V52.617a2.348,2.348,0,0,1-1.944,1.805" transform="translate(1.442 4.744)" fill="#4e8ae1"/><path d="M73.751,66.281H6.25A6.225,6.225,0,0,1,0,60.031V15.17A6.225,6.225,0,0,1,6.25,8.92H22.639a1.805,1.805,0,1,1,0,3.611H6.25a2.787,2.787,0,0,0-2.777,2.778V60.17A2.786,2.786,0,0,0,6.25,62.947h67.5A2.786,2.786,0,0,0,76.53,60.17v-45a2.787,2.787,0,0,0-2.778-2.778H29.583a1.805,1.805,0,0,1,0-3.611H73.751A6.224,6.224,0,0,1,80,15.031V59.892a6.437,6.437,0,0,1-6.25,6.389" transform="translate(0 3.302)" fill="#4e8ae1"/><path d="M57.188,55.29H48.439a1.806,1.806,0,1,1,0-3.612h8.749a1.806,1.806,0,0,1,0,3.612" transform="translate(17.535 19.433)" fill="#4e8ae1"/><path d="M13.079,55.29H4.33a1.806,1.806,0,1,1,0-3.612h8.749a1.838,1.838,0,0,1,1.805,1.807,2.058,2.058,0,0,1-1.805,1.805" transform="translate(0.949 19.433)" fill="#4e8ae1"/><path d="M22.772,48.519a13.93,13.93,0,0,1-13.89-13.89A13.667,13.667,0,0,1,11.66,26.3a13.978,13.978,0,0,1,5.834-4.445v-15a1.8,1.8,0,1,1,3.609,0V22.963a1.791,1.791,0,0,1-1.249,1.666,10.417,10.417,0,1,0,13.332,10,10.543,10.543,0,0,0-7.5-10,1.79,1.79,0,0,1-1.248-1.666V6.853a1.8,1.8,0,1,1,3.609,0V21.714a14.235,14.235,0,0,1,5.833,4.445,13.66,13.66,0,0,1,2.778,8.333A13.959,13.959,0,0,1,22.772,48.519" transform="translate(3.34 1.897)" fill="#4e8ae1"/><path d="M26.152,8.658H15.734a1.805,1.805,0,0,1,0-3.611H26.152a1.838,1.838,0,0,1,1.8,1.805,2.059,2.059,0,0,1-1.8,1.805" transform="translate(5.238 1.898)" fill="#4e8ae1"/><path d="M33.4,42.733a1.837,1.837,0,0,1-1.805-1.805V27.038a1.805,1.805,0,1,1,3.611,0v13.89A2.06,2.06,0,0,1,33.4,42.733" transform="translate(11.88 9.488)" fill="#4e8ae1"/><path d="M43.623,31.368h-5.28a1.805,1.805,0,0,1,0-3.611h5.28a1.805,1.805,0,0,1,0,3.611" transform="translate(13.74 10.437)" fill="#4e8ae1"/><path d="M50.566,35.1H38.343a1.805,1.805,0,0,1,0-3.611H50.566a1.805,1.805,0,0,1,0,3.611" transform="translate(13.74 11.842)" fill="#4e8ae1"/><path d="M50.566,38.938H38.343a1.805,1.805,0,0,1,0-3.611H50.566a1.805,1.805,0,0,1,0,3.611" transform="translate(13.74 13.284)" fill="#4e8ae1"/><path d="M44.44,28.22a5.278,5.278,0,1,1,5.278-5.278A5.366,5.366,0,0,1,44.44,28.22m0-6.945a1.805,1.805,0,1,0,1.805,1.805,1.939,1.939,0,0,0-1.805-1.805" transform="translate(14.727 6.642)" fill="#4e8ae1"/><path d="M12.585,38.938H5.64a1.805,1.805,0,0,1,0-3.611h6.945a1.837,1.837,0,0,1,1.805,1.805,1.939,1.939,0,0,1-1.805,1.805" transform="translate(1.442 13.284)" fill="#4e8ae1"/><path d="M9.113,10.556a5.278,5.278,0,1,1,5.278-5.278,5.366,5.366,0,0,1-5.278,5.278m0-6.945A1.839,1.839,0,0,0,7.308,5.416,1.838,1.838,0,0,0,9.113,7.221a1.851,1.851,0,0,0,1.668-1.944A1.69,1.69,0,0,0,9.113,3.611" transform="translate(1.442 0)" fill="#4e8ae1"/><path d="M49.827,10.023a4.3,4.3,0,1,1,4.306-4.3,4.327,4.327,0,0,1-4.306,4.3m0-5.277a.9.9,0,0,0-.833.833.9.9,0,0,0,.833.834.8.8,0,0,0,.835-.834.8.8,0,0,0-.835-.833" transform="translate(17.118 0.531)" fill="#4e8ae1"/></g></g></svg>