<svg xmlns="http://www.w3.org/2000/svg" xmlns:xlink="http://www.w3.org/1999/xlink" width="79.508" height="80" viewBox="0 0 79.508 80"><defs><clipPath id="a"><rect width="79.508" height="80" fill="none"/></clipPath></defs><g transform="translate(0 0)" clip-path="url(#a)"><path d="M77.16,32.17V45.527l-8.5.674a30.9,30.9,0,0,1-3.238,7.825L70.954,60.5,61.51,69.943l-6.476-5.53a26.44,26.44,0,0,1-3.372,1.753V54.295A19.438,19.438,0,1,0,20.5,38.781a19.337,19.337,0,0,0,4.181,12.006H12.674a27.672,27.672,0,0,1-1.619-4.722l-8.5-.674V32.036l8.5-.676a26.681,26.681,0,0,1,3.237-7.824l-5.53-6.476L18.2,7.618l6.476,5.532a26.626,26.626,0,0,1,7.825-3.238l.673-8.5H46.535l.674,8.5a26.618,26.618,0,0,1,7.824,3.238A10.861,10.861,0,0,0,65.422,23.537,26.647,26.647,0,0,1,68.66,31.36Z" transform="translate(0.864 0.477)" fill="#b8d0f3"/><path d="M30.468,45.975V61.084H25.342V45.975Z" transform="translate(8.567 15.542)" fill="#fff"/><path d="M22.906,51.016V59.38H17.78V51.016Z" transform="translate(6.011 17.247)" fill="#fff"/><path d="M34.164,43.455V61.936H29.173V43.455Z" transform="translate(9.862 14.69)" fill="#b8d0f3"/><path d="M26.6,48.5V60.232H21.611V48.5Z" transform="translate(7.306 16.395)" fill="#b8d0f3"/><rect width="5.126" height="5.127" transform="translate(18.8 71.636)" fill="#b8d0f3"/><path d="M52.036,53.658v9.983h-8.5V45.16H38.546v3.372H33.42V51.9H28.427v3.372H23.3V58.65H18.31v4.991H8.192V57.705L1.447,56.9,8.192,51.9V38.413H52.036V53.658Z" transform="translate(0.489 12.986)" fill="#fff"/><path d="M4.82,1.815A3.373,3.373,0,1,1,1.447,5.188,3.373,3.373,0,0,1,4.82,1.815" transform="translate(0.489 0.614)" fill="#fff"/><path d="M54.321,54.747a2.563,2.563,0,1,1-2.564,2.564,2.563,2.563,0,0,1,2.564-2.564" transform="translate(17.497 18.508)" fill="#fff"/><path d="M53.007,1.615A11.088,11.088,0,0,0,41.675,12.272v.81A10.859,10.859,0,0,0,52.064,23.469h.269A11.09,11.09,0,0,0,63.665,12.812a10.969,10.969,0,0,0-10.658-11.2" transform="translate(14.089 0.545)" fill="#b8d0f3"/><path d="M57.308,48.5a1.618,1.618,0,1,1-1.618,1.618A1.619,1.619,0,0,1,57.308,48.5" transform="translate(18.827 16.395)" fill="#4e8ae1"/><path d="M56,38.413a1.619,1.619,0,1,1-1.619,1.619A1.618,1.618,0,0,1,56,38.413" transform="translate(18.383 12.986)" fill="#4e8ae1"/><path d="M43.394,54.847a1.619,1.619,0,1,1-1.619,1.619,1.619,1.619,0,0,1,1.619-1.619" transform="translate(14.123 18.542)" fill="#4e8ae1"/><path d="M20.71.605a1.619,1.619,0,1,1-1.619,1.619A1.62,1.62,0,0,1,20.71.605" transform="translate(6.454 0.205)" fill="#4e8ae1"/><path d="M3.066,14.519a1.618,1.618,0,1,1-1.619,1.618,1.618,1.618,0,0,1,1.619-1.618" transform="translate(0.489 4.908)" fill="#4e8ae1"/><path d="M3.066,38.413a1.619,1.619,0,1,1-1.619,1.619,1.62,1.62,0,0,1,1.619-1.619" transform="translate(0.489 12.986)" fill="#4e8ae1"/><path d="M53.146,3.776a9.273,9.273,0,0,0-9.309,9.039v.676a9.121,9.121,0,0,0,8.77,8.768h.405A9.271,9.271,0,0,0,62.32,13.22a8.738,8.738,0,0,0-2.562-6.611,9.978,9.978,0,0,0-6.476-2.966.132.132,0,0,1-.135.134m0,21.855h-.673a13.132,13.132,0,0,1-8.364-3.642,12.842,12.842,0,0,1-3.644-8.364v-.943a13.342,13.342,0,0,1,3.777-8.77A12.691,12.691,0,0,1,53.012.4h.4a12.6,12.6,0,0,1,8.768,3.912,13.1,13.1,0,0,1,3.507,9.037,13.057,13.057,0,0,1-3.776,8.77,12.691,12.691,0,0,1-8.77,3.507" transform="translate(13.68 0.137)" fill="#4e8ae1"/><path d="M13.016,53.018a1.657,1.657,0,0,1-1.484-.945,21.288,21.288,0,0,1-1.35-3.777l-7.418-.673A1.735,1.735,0,0,1,1.145,46V32.647a1.558,1.558,0,0,1,1.619-1.619l7.284-.539a30.362,30.362,0,0,1,2.564-6.071l-4.722-5.8a1.677,1.677,0,0,1,.134-2.293L17.468,6.88a1.679,1.679,0,0,1,2.293-.135l5.53,4.722A30.449,30.449,0,0,1,31.364,8.9L31.9,1.619A1.736,1.736,0,0,1,33.522,0h13.49a1.559,1.559,0,0,1,1.619,1.619L49.171,8.9a27.106,27.106,0,0,1,7.015,3.1,1.571,1.571,0,0,1,.674,2.158,1.736,1.736,0,0,1-2.293.81h-.134a29.844,29.844,0,0,0-7.421-3.1A1.581,1.581,0,0,1,45.8,10.389l-.541-6.88H35.006l-.539,6.88a1.581,1.581,0,0,1-1.214,1.484,29.823,29.823,0,0,0-7.421,3.1,1.616,1.616,0,0,1-1.888-.135l-5.263-4.452L11.4,17.673l4.45,5.261a1.632,1.632,0,0,1,.135,1.889,27.833,27.833,0,0,0-3.1,7.42A1.579,1.579,0,0,1,11.4,33.457l-6.747.674V44.385l6.88.539a1.581,1.581,0,0,1,1.484,1.214c.4,1.485.945,2.969,1.484,4.453a1.583,1.583,0,0,1-.81,2.158c-.135.269-.4.269-.674.269" transform="translate(0.387 0)" fill="#4e8ae1"/><path d="M49.517,66.395a1.529,1.529,0,0,1-1.078-.4l-5.532-4.722c-.81.405-1.619.81-2.562,1.214a1.666,1.666,0,0,1-1.215-3.1l3.238-1.618a1.614,1.614,0,0,1,1.889.135l5.26,4.452L56.8,55.064l-4.722-5.127a1.832,1.832,0,0,1-.135-2.023,29.773,29.773,0,0,0,3.1-7.421,1.581,1.581,0,0,1,1.484-1.214l6.88-.539V28.486l-6.88-.539a1.581,1.581,0,0,1-1.484-1.214,29.794,29.794,0,0,0-3.1-7.421.131.131,0,0,0-.135-.134,1.779,1.779,0,0,1,.811-2.293,1.57,1.57,0,0,1,2.157.674,27.988,27.988,0,0,1,3.1,7.149l7.286.541a1.724,1.724,0,0,1,1.484,1.619V40.224a1.559,1.559,0,0,1-1.619,1.619l-7.284.539a30.407,30.407,0,0,1-2.564,6.071l4.722,5.532a1.678,1.678,0,0,1-.136,2.293L50.327,65.72c0,.541-.4.674-.81.674" transform="translate(12.856 5.645)" fill="#4e8ae1"/><path d="M47.64,51.824a1.751,1.751,0,0,1-1.08-3.1,17.574,17.574,0,0,0,7.015-14.165,17.808,17.808,0,1,0-35.615,0,18.273,18.273,0,0,0,3.779,11.062,1.874,1.874,0,0,1-.27,2.429,1.875,1.875,0,0,1-2.429-.269A21.16,21.16,0,1,1,56.813,34.691a20.634,20.634,0,0,1-8.364,16.727.959.959,0,0,1-.81.405" transform="translate(4.886 4.568)" fill="#4e8ae1"/><path d="M52.526,65.8h-8.5a1.754,1.754,0,0,1,0-3.508h6.745V40.441H10.3V52.313a1.663,1.663,0,0,1-.674,1.349L6.254,56.225l2.562.272A1.722,1.722,0,0,1,10.3,58.114V62.43h8.364a1.754,1.754,0,0,1,0,3.508H8.547a1.787,1.787,0,0,1-1.756-1.753V59.732l-5.26-.539A1.942,1.942,0,0,1,.047,57.979a1.542,1.542,0,0,1,.676-1.754l6.069-4.586V38.957A1.787,1.787,0,0,1,8.547,37.2H52.39a1.786,1.786,0,0,1,1.754,1.753V64.186A1.741,1.741,0,0,1,52.526,65.8" transform="translate(0 12.577)" fill="#4e8ae1"/><path d="M19.518,60.76H14.392a1.785,1.785,0,0,1-1.753-1.754V53.879a1.785,1.785,0,0,1,1.753-1.754h5.126a1.754,1.754,0,0,1,0,3.508H16.146v1.753h3.372a1.787,1.787,0,0,1,1.754,1.756,1.767,1.767,0,0,1-1.754,1.618" transform="translate(4.273 17.621)" fill="#4e8ae1"/><path d="M23.349,61.611H18.223a1.785,1.785,0,0,1-1.753-1.754v-8.5a1.784,1.784,0,0,1,1.753-1.753h5.126a1.754,1.754,0,1,1,0,3.507H19.977v5.126h3.372A1.787,1.787,0,0,1,25.1,59.994a2,2,0,0,1-1.754,1.618" transform="translate(5.568 16.77)" fill="#4e8ae1"/><path d="M27.08,62.464H21.954A1.786,1.786,0,0,1,20.2,60.709V48.838a1.786,1.786,0,0,1,1.754-1.754H27.08a1.754,1.754,0,0,1,0,3.507H23.707v8.5H27.08a1.786,1.786,0,0,1,1.753,1.756,1.765,1.765,0,0,1-1.753,1.618" transform="translate(6.829 15.917)" fill="#4e8ae1"/><path d="M30.911,63.282H25.785a1.786,1.786,0,0,1-1.754-1.754V46.418a1.786,1.786,0,0,1,1.754-1.754h5.126a1.754,1.754,0,0,1,0,3.508H27.538V60.045h3.373A1.784,1.784,0,0,1,32.664,61.8a2.025,2.025,0,0,1-1.753,1.484" transform="translate(8.124 15.099)" fill="#4e8ae1"/><path d="M31.269,60.76h1.753V45.516H31.269Zm3.372,3.373H29.515a1.785,1.785,0,0,1-1.753-1.754V43.9a1.784,1.784,0,0,1,1.753-1.754h5.126A1.785,1.785,0,0,1,36.4,43.9V62.516a1.767,1.767,0,0,1-1.754,1.618" transform="translate(9.385 14.247)" fill="#4e8ae1"/><path d="M13.152,54.429A1.48,1.48,0,0,1,11.8,53.62a1.659,1.659,0,0,1,.4-2.293L27.317,41.209a1.647,1.647,0,1,1,1.889,2.7L14.1,54.024a1.464,1.464,0,0,1-.945.4" transform="translate(3.893 13.834)" fill="#4e8ae1"/><path d="M5.263,4.012A1.786,1.786,0,0,0,3.509,5.765,1.786,1.786,0,0,0,5.263,7.519,1.785,1.785,0,0,0,7.016,5.765,1.876,1.876,0,0,0,5.263,4.012m0,6.745a5.127,5.127,0,1,1,5.126-5.126,5.213,5.213,0,0,1-5.126,5.126" transform="translate(0.046 0.17)" fill="#4e8ae1"/><path d="M54.73,56.909a.81.81,0,1,0,.808.811c.136-.541-.269-.811-.808-.811m0,4.992a4.182,4.182,0,1,1,4.181-4.181A4.117,4.117,0,0,1,54.73,61.9" transform="translate(17.088 18.099)" fill="#4e8ae1"/><path d="M45.7,34.7a1.787,1.787,0,0,1-1.754-1.754,10.118,10.118,0,1,0-20.236,0,1.754,1.754,0,1,1-3.507,0,13.49,13.49,0,1,1,26.981,0A1.57,1.57,0,0,1,45.7,34.7" transform="translate(6.829 6.578)" fill="#4e8ae1"/></g></svg>