<svg xmlns="http://www.w3.org/2000/svg" xmlns:xlink="http://www.w3.org/1999/xlink" width="80.283" height="80" viewBox="0 0 80.283 80"><defs><clipPath id="a"><rect width="80.283" height="80" fill="none"/></clipPath></defs><g transform="translate(0 0)"><g transform="translate(0 0)" clip-path="url(#a)"><path d="M45.794,36.6l15.63,15.631a6.518,6.518,0,0,1,0,9.093,6.347,6.347,0,0,1-9.093,0L36.7,45.693a33.206,33.206,0,0,0,4.974-4.121A27.4,27.4,0,0,0,45.794,36.6" transform="translate(15.023 14.983)" fill="#fff"/><path d="M13.488,28.532a2.7,2.7,0,1,1-2.7,2.7,2.7,2.7,0,0,1,2.7-2.7" transform="translate(4.416 11.681)" fill="#b8d0f3"/><path d="M37.345,25.306a3.306,3.306,0,0,1,3.268,3.268,3.268,3.268,0,1,1-3.268-3.268" transform="translate(13.95 10.36)" fill="#b8d0f3"/><path d="M36.064,10.384a4.427,4.427,0,0,1,4.4,4.406,4.552,4.552,0,0,1-4.4,4.548,4.444,4.444,0,0,1-3.553-1.848,4.378,4.378,0,0,1-.853-2.7,4.428,4.428,0,0,1,4.406-4.406" transform="translate(12.96 4.251)" fill="#b8d0f3"/><path d="M25.073,31.859a4.4,4.4,0,1,1-4.4,4.4,4.427,4.427,0,0,1,4.4-4.4" transform="translate(8.461 13.043)" fill="#b8d0f3"/><path d="M14.688,10.384a4.428,4.428,0,0,1,4.406,4.406,4.553,4.553,0,0,1-4.406,4.548,4.477,4.477,0,0,1,0-8.954" transform="translate(4.21 4.251)" fill="#b8d0f3"/><path d="M26.105,16.736a7.957,7.957,0,1,1-7.957,7.957,7.944,7.944,0,0,1,7.957-7.957" transform="translate(7.429 6.852)" fill="#b8d0f3"/><path d="M33.029,44.438a4.4,4.4,0,1,0,4.4,4.4,4.252,4.252,0,0,0-4.4-4.4M44.965,21.277h0a4.369,4.369,0,1,0-.853-2.558,4.254,4.254,0,0,0,.853,2.558M18.393,23.123a4.4,4.4,0,1,0-4.4-4.4,4.428,4.428,0,0,0,4.4,4.4m14.636,0a7.958,7.958,0,1,0,7.957,7.957,7.857,7.857,0,0,0-7.957-7.957m23.3-12.505a32.345,32.345,0,0,1,4.12,40.641,34.564,34.564,0,0,1-9.093,9.095A32.494,32.494,0,0,1,10.72,56.232,32.254,32.254,0,0,1,56.333,10.618M53.917,38.329a3.307,3.307,0,0,0-3.268-3.27,3.268,3.268,0,1,0,3.268,3.27m-6.394,14.35a.569.569,0,1,0-.569.569c.285.141.569-.142.569-.569M33.882,11.472a.853.853,0,1,0-1.705,0,.914.914,0,0,0,.853.851c.426-.141.853-.424.853-.851M20.1,42.591a2.7,2.7,0,1,0-2.7,2.7,2.612,2.612,0,0,0,2.7-2.7" transform="translate(0.506 0.465)" fill="#fff"/><path d="M36.6,21.537a6.257,6.257,0,0,1-4.974-2.416,6.137,6.137,0,0,1-1.28-3.7,6.253,6.253,0,0,1,12.505,0A6.187,6.187,0,0,1,36.6,21.537m-2.132-4.689h0a2.63,2.63,0,1,0-.568-1.563,2.978,2.978,0,0,0,.568,1.563" transform="translate(12.423 3.756)" fill="#4e8ae1"/><path d="M15.225,21.578a6.253,6.253,0,1,1,6.252-6.253,6.216,6.216,0,0,1-6.252,6.253m0-8.81a2.7,2.7,0,1,0,2.7,2.7,2.7,2.7,0,0,0-2.7-2.7" transform="translate(3.673 3.715)" fill="#4e8ae1"/><path d="M14.025,36.418a4.547,4.547,0,1,1,4.547-4.548,4.49,4.49,0,0,1-4.547,4.548m0-5.543a1,1,0,1,0,1,1,.972.972,0,0,0-1-1" transform="translate(3.88 11.186)" fill="#4e8ae1"/><path d="M34.376,40.824a2.416,2.416,0,1,1,2.416-2.416,2.491,2.491,0,0,1-2.416,2.416m0-3.553a1.137,1.137,0,1,0,1.137,1.137,1.223,1.223,0,0,0-1.137-1.137" transform="translate(13.083 14.735)" fill="#4e8ae1"/><path d="M24.537,11.768A2.557,2.557,0,1,1,27.1,9.212a2.547,2.547,0,0,1-2.558,2.557m0-3.552a1,1,0,1,0,1,1,.972.972,0,0,0-1-1" transform="translate(8.998 2.725)" fill="#4e8ae1"/><path d="M37.841,33.942a4.974,4.974,0,1,1,4.974-4.972,4.944,4.944,0,0,1-4.974,4.972m0-6.394a1.421,1.421,0,1,0,1.421,1.422,1.528,1.528,0,0,0-1.421-1.422" transform="translate(13.455 9.823)" fill="#4e8ae1"/><path d="M26.642,35.035a9.8,9.8,0,1,1,9.8-9.8,9.824,9.824,0,0,1-9.8,9.8m0-16.057a6.252,6.252,0,1,0,6.252,6.252,6.307,6.307,0,0,0-6.252-6.252" transform="translate(6.893 6.315)" fill="#4e8ae1"/><path d="M25.61,43.053A6.253,6.253,0,1,1,31.862,36.8a6.308,6.308,0,0,1-6.252,6.253m0-8.952a2.7,2.7,0,1,0,2.7,2.7,2.7,2.7,0,0,0-2.7-2.7" transform="translate(7.925 12.506)" fill="#4e8ae1"/><path d="M24.331,35.711a1.881,1.881,0,0,1-1.848-1.848v-5.4a1.848,1.848,0,1,1,3.7,0v5.542a1.762,1.762,0,0,1-1.848,1.705" transform="translate(9.204 10.896)" fill="#4e8ae1"/><path d="M29.061,22.172A2.519,2.519,0,0,1,27.64,21.6a1.825,1.825,0,0,1,.283-2.558l5.4-4.406a1.619,1.619,0,0,1,1.137-.424,1.88,1.88,0,0,1,1.848,1.846,1.749,1.749,0,0,1-.71,1.421l-5.258,4.406a7.3,7.3,0,0,1-1.278.283" transform="translate(11.153 5.82)" fill="#4e8ae1"/><path d="M20.849,21.944a1.892,1.892,0,0,1-1.137-.427l-4.4-3.552a1.938,1.938,0,0,1-.285-2.558,1.938,1.938,0,0,1,2.558-.283l4.406,3.553a1.935,1.935,0,0,1,.283,2.557,2.253,2.253,0,0,1-1.421.71" transform="translate(6.006 6.048)" fill="#4e8ae1"/><path d="M57.5,65.544a8.293,8.293,0,0,1-5.826-2.416L36.048,47.5a1.808,1.808,0,1,1,2.558-2.557l15.63,15.63A4.625,4.625,0,0,0,57.5,61.992a4.116,4.116,0,0,0,3.268-1.422A4.624,4.624,0,0,0,62.193,57.3a4.119,4.119,0,0,0-1.421-3.268L45.143,38.4A1.808,1.808,0,1,1,47.7,35.846L63.331,51.477A8.044,8.044,0,0,1,65.746,57.3,8.248,8.248,0,0,1,57.5,65.544" transform="translate(14.538 14.456)" fill="#4e8ae1"/><path d="M33.96,67.92h0A33.96,33.96,0,0,1,9.946,9.947,33.964,33.964,0,0,1,67.779,30.834,34.447,34.447,0,0,1,62.236,52.86a38.187,38.187,0,0,1-4.262,5.256,30.039,30.039,0,0,1-5.257,4.265A34.9,34.9,0,0,1,33.96,67.92m0-64.511a30.782,30.782,0,0,0-21.6,8.81,30.075,30.075,0,0,0-8.952,21.6,30.66,30.66,0,0,0,8.952,21.6,30.072,30.072,0,0,0,21.6,8.952,29.5,29.5,0,0,0,16.767-5.116,30.443,30.443,0,0,0,4.689-46.89A29.75,29.75,0,0,0,33.96,3.409" transform="translate(0 0)" fill="#4e8ae1"/></g></g></svg>