<svg xmlns="http://www.w3.org/2000/svg" xmlns:xlink="http://www.w3.org/1999/xlink" width="95.093" height="110" viewBox="0 0 95.093 110"><defs><clipPath id="a"><rect width="95.093" height="110" fill="none"/></clipPath></defs><g transform="translate(0 0)"><g transform="translate(0 0)" clip-path="url(#a)"><path d="M20.3,78.72l6.181,10.9c-11.009.956-20.667,2.869-20.667,2.869S-3.072,55.007,4.075,49.27s-2.7-43.028-2.7-43.028,26.846,5.737,34.956-2.486c7.146-7.267,52.532,1.912,52.532,1.912s6.181,25.243,0,39.012C82.68,58.641,90.983,85.8,90.983,85.8S79.01,92.68,68.387,94.4V63.421a4.636,4.636,0,0,0-9.271,0V56.728A4.652,4.652,0,0,0,51.2,53.477a4.591,4.591,0,0,0-1.352,3.251V51.374a4.653,4.653,0,0,0-7.919-3.251,4.591,4.591,0,0,0-1.352,3.251v6.693a4.653,4.653,0,0,0-7.919-3.251A4.6,4.6,0,0,0,31.3,58.067v19.7L27.25,72.027a4.476,4.476,0,0,0-6.567,0A4.329,4.329,0,0,0,20.3,78.72" transform="translate(1.18 0.874)" fill="#fff"/><path d="M27.181,31.614a4.677,4.677,0,0,1,4.636,4.59V29.511a4.591,4.591,0,0,1,1.352-3.251,4.652,4.652,0,0,1,7.917,3.251v5.355a4.591,4.591,0,0,1,1.352-3.251,4.655,4.655,0,0,1,7.921,3.251v6.693a4.635,4.635,0,0,1,9.269,0V73.877c0,5.163-4.247,10.709-9.657,10.709H31.623c-4.442,0-8.305-4.4-9.271-8.606l-4.829-8.606-5.6-10.518a4.372,4.372,0,0,1,0-6.5,4.476,4.476,0,0,1,6.567,0l4.056,5.737V36.4A4.591,4.591,0,0,1,23.9,33.144a4.781,4.781,0,0,1,3.283-1.53" transform="translate(9.555 22.737)" fill="#edf3fc"/><path d="M32.73,47.237a2.544,2.544,0,0,1-2.511-2.486V34.807a2.51,2.51,0,0,1,5.02,0v9.944a2.684,2.684,0,0,1-2.509,2.486" transform="translate(27.57 29.488)" fill="#4e8ae1"/><path d="M27.781,43.737a2.544,2.544,0,0,1-2.511-2.486V31.307a2.51,2.51,0,0,1,5.02,0v9.944a2.423,2.423,0,0,1-2.509,2.486" transform="translate(23.055 26.295)" fill="#4e8ae1"/><path d="M22.933,44.437a2.544,2.544,0,0,1-2.511-2.486V32.007a2.51,2.51,0,0,1,5.02,0v9.944a2.537,2.537,0,0,1-2.509,2.486" transform="translate(18.632 26.934)" fill="#4e8ae1"/><path d="M69.569,97.761a2.287,2.287,0,0,1-2.318-1.912,2.247,2.247,0,0,1,1.93-2.677c7.726-1.339,16.611-5.546,20.089-7.267-1.74-6.5-7.146-28.494-1.545-40.924,4.825-11.092,1.352-30.6.191-35.952C84.44,8.454,75.364,6.733,66.094,5.777c-21.632-2.486-26.075.191-26.847.956-3.863,3.825-11.4,5.546-22.21,4.972-4.442-.191-8.305-.765-11.2-1.147.773,3.633,2.125,9.562,3.09,16.064,2.9,19.123,0,23.9-2.318,25.817-.579.382-3.283,3.633-.966,21.61.966,6.884,2.318,13.578,3.09,17.02,3.477-.574,10.816-1.721,18.735-2.486a2.408,2.408,0,1,1,.578,4.781c-10.814.956-20.472,2.869-20.472,2.869a2.609,2.609,0,0,1-2.9-1.721c0-.382-2.318-9.562-3.67-19.7C-1.505,55.5,1.2,50.717,3.517,48.8,4.1,48.422,6.8,45.171,4.1,27.386A192.543,192.543,0,0,0,.233,8.263,2.5,2.5,0,0,1,.813,5.968,3.1,3.1,0,0,1,3.13,5.2a112.311,112.311,0,0,0,14.1,1.721C26.5,7.5,33.068,6.159,35.77,3.482,38.088,1.187,43.689-1.49,66.67,1,78.84,2.335,90.427,4.63,90.427,4.63a2.541,2.541,0,0,1,1.931,1.721c.191,1.147,6.181,26.2-.2,40.542-5.791,13,2.127,39.2,2.32,39.586a2.123,2.123,0,0,1-1.161,2.677c-.576.191-12.553,7.076-23.367,8.8,0-.191-.2-.191-.386-.191" transform="translate(0 0.001)" fill="#4e8ae1"/><path d="M16.358,52.5a2.2,2.2,0,0,0-1.545.574,2.309,2.309,0,0,0,0,3.06c.193.191.386.382.386.574L26.209,76.21a.7.7,0,0,1,.191.574c.773,3.251,3.863,6.693,6.953,6.693H51.7c4.054,0,7.145-4.59,7.145-8.414V42.744a2.317,2.317,0,0,0-4.634,0,2.511,2.511,0,0,1-5.022,0V36.051a2.332,2.332,0,0,0-3.863-1.721,2.151,2.151,0,0,0-.579,1.53,2.544,2.544,0,0,1-2.511,2.486,2.016,2.016,0,0,1-2.125-2.1V30.888a2.332,2.332,0,0,0-3.863-1.721,2.159,2.159,0,0,0-.579,1.53V37.39a2.511,2.511,0,0,1-5.022,0,2.332,2.332,0,0,0-3.863-1.721,2.158,2.158,0,0,0-.578,1.53V56.9a2.684,2.684,0,0,1-1.74,2.295,2.232,2.232,0,0,1-2.7-.956L17.9,52.689c-.579,0-.966-.191-1.545-.191M51.7,88.449H33.353c-5.794,0-10.237-5.163-11.589-9.944L11.143,59.382a5.9,5.9,0,0,1-1.931-4.59,6.911,6.911,0,0,1,2.125-4.972,7.048,7.048,0,0,1,5.022-2.1,7.77,7.77,0,0,1,5.022,1.912V37.39A6.909,6.909,0,0,1,23.5,32.418a7.051,7.051,0,0,1,5.022-2.1,9.783,9.783,0,0,1,2.318.382,6.911,6.911,0,0,1,2.125-4.972A7.068,7.068,0,0,1,44.94,29.358a9.815,9.815,0,0,1,2.318-.382A7.1,7.1,0,0,1,54.4,36.051a9.8,9.8,0,0,1,2.318-.382,7.221,7.221,0,0,1,7.146,7.076V75.063c-.193,6.311-5.408,13.386-12.166,13.386" transform="translate(8.405 21.551)" fill="#4e8ae1"/><path d="M19.92,17.324A34.7,34.7,0,0,1,9.3,15.794a2.348,2.348,0,0,1-1.545-3.06,2.38,2.38,0,0,1,3.09-1.53c.193,0,12.555,3.825,22.212-2.1,11.007-6.884,21.439-.191,21.822,0a2.426,2.426,0,0,1,.774,3.251,2.48,2.48,0,0,1-3.283.765c-.386-.191-8.305-5.163-16.8,0A29.269,29.269,0,0,1,19.92,17.324" transform="translate(6.966 5.473)" fill="#4e8ae1"/><path d="M20.207,20.367a18.28,18.28,0,0,1-6.567-.956,2.347,2.347,0,0,1-1.545-3.06,2.38,2.38,0,0,1,3.09-1.53c.193,0,6.953,2.1,12.166-1.147,6.953-4.4,13.713-.191,13.907,0a2.427,2.427,0,0,1,.773,3.251,2.479,2.479,0,0,1-3.283.765,8.38,8.38,0,0,0-8.692,0,18.723,18.723,0,0,1-9.849,2.677" transform="translate(10.928 10.653)" fill="#4e8ae1"/></g></g></svg>