<svg xmlns="http://www.w3.org/2000/svg" xmlns:xlink="http://www.w3.org/1999/xlink" width="81.631" height="80" viewBox="0 0 81.631 80"><defs><clipPath id="a"><rect width="81.631" height="80" fill="none"/></clipPath></defs><g transform="translate(0 0)" clip-path="url(#a)"><path d="M57.829,16.8a16.622,16.622,0,0,1,2.177,8.163A16.191,16.191,0,1,1,43.816,8.772a15.88,15.88,0,0,1,8.3,2.313A14.426,14.426,0,0,1,57.829,16.8" transform="translate(9.653 3.065)" fill="#fff"/><path d="M62.644,2.536a3.944,3.944,0,0,1,0,5.714L51.488,19.407a16.413,16.413,0,0,0-5.715-5.715L56.93,2.536a3.915,3.915,0,0,1,2.857-1.225,3.7,3.7,0,0,1,2.857,1.225" transform="translate(15.995 0.458)" fill="#fff"/><path d="M10.963,12.7a3.4,3.4,0,1,1-3.4,3.4,3.4,3.4,0,0,1,3.4-3.4" transform="translate(2.642 4.439)" fill="#fff"/><path d="M26.9,2.622a4.218,4.218,0,1,1-4.217,4.217A4.217,4.217,0,0,1,26.9,2.622" transform="translate(7.927 0.916)" fill="#fff"/><path d="M55.517,35.288a2.585,2.585,0,1,1-2.586,2.584,2.586,2.586,0,0,1,2.586-2.584" transform="translate(18.496 12.331)" fill="#fff"/><rect width="6.803" height="18.776" transform="translate(47.619 52.789)" fill="#edf3fc"/><rect width="6.803" height="25.579" transform="translate(23.809 45.986)" fill="#edf3fc"/><path d="M0,0H6.8V15.374H0Z" transform="translate(59.591 56.191)" fill="#b8d0f3"/><path d="M0,0H6.8V22.177H0Z" transform="translate(35.782 49.388)" fill="#b8d0f3"/><rect width="6.803" height="28.979" transform="translate(11.972 42.586)" fill="#b8d0f3"/><path d="M55.824,28.271a1.726,1.726,0,0,1,.544,1.224,1.328,1.328,0,0,1-.544,1.225,1.729,1.729,0,0,1-1.225.544A1.8,1.8,0,0,1,52.831,29.5a1.474,1.474,0,0,1,.544-1.224,1.648,1.648,0,0,1,2.449,0" transform="translate(18.461 9.688)" fill="#4e8ae1"/><path d="M55.824,47.225a1.729,1.729,0,0,1,.544,1.225,1.477,1.477,0,0,1-.544,1.224,1.723,1.723,0,0,1-1.225.544,1.8,1.8,0,0,1-1.768-1.768,1.478,1.478,0,0,1,.544-1.225,1.728,1.728,0,0,1,1.224-.544,1.328,1.328,0,0,1,1.225.544" transform="translate(18.461 16.312)" fill="#4e8ae1"/><path d="M42.011,3.065a1.726,1.726,0,0,1,.544,1.225,1.475,1.475,0,0,1-.544,1.224,1.723,1.723,0,0,1-1.224.544A1.8,1.8,0,0,1,39.018,4.29a1.477,1.477,0,0,1,.545-1.225,2.025,2.025,0,0,1,1.224-.544,1.728,1.728,0,0,1,1.224.544" transform="translate(13.634 0.881)" fill="#4e8ae1"/><path d="M23.056,14.458a1.724,1.724,0,0,1,.545,1.224,1.477,1.477,0,0,1-.545,1.225,1.718,1.718,0,0,1-1.224.544,1.8,1.8,0,0,1-1.768-1.769,1.475,1.475,0,0,1,.544-1.224,1.728,1.728,0,0,1,1.224-.544,1.325,1.325,0,0,1,1.224.544" transform="translate(7.011 4.862)" fill="#4e8ae1"/><path d="M21.847,25.75a1.731,1.731,0,0,1,.544,1.225,1.479,1.479,0,0,1-.544,1.224,1.723,1.723,0,0,1-1.225.544,1.8,1.8,0,0,1-1.768-1.768A1.476,1.476,0,0,1,19.4,25.75a1.728,1.728,0,0,1,1.224-.544,3.382,3.382,0,0,1,1.225.544" transform="translate(6.588 8.808)" fill="#4e8ae1"/><path d="M11.764,3.065a1.727,1.727,0,0,1,.545,1.225,1.476,1.476,0,0,1-.545,1.224,2.018,2.018,0,0,1-1.224.544A1.8,1.8,0,0,1,8.772,4.29a1.476,1.476,0,0,1,.544-1.225,2.029,2.029,0,0,1,1.224-.544,3.375,3.375,0,0,1,1.224.544" transform="translate(3.065 0.881)" fill="#4e8ae1"/><path d="M52.038,21.5a1.665,1.665,0,0,1-1.225-.544,1.725,1.725,0,0,1,0-2.449L61.968,7.348a2.509,2.509,0,0,0,.68-1.633,2.25,2.25,0,0,0-.68-1.633,2.51,2.51,0,0,0-1.633-.68,2.254,2.254,0,0,0-1.631.68L47.547,15.239A1.731,1.731,0,1,1,45.1,12.79L56.255,1.633a5.917,5.917,0,0,1,8.163,0A5.76,5.76,0,0,1,66.05,5.715,5.76,5.76,0,0,1,64.418,9.8L53.262,20.953a1.663,1.663,0,0,1-1.224.544" transform="translate(15.581 0)" fill="#4e8ae1"/><path d="M44.339,10.828A14.421,14.421,0,1,0,58.761,25.249,13.92,13.92,0,0,0,56.72,17.9a15.276,15.276,0,0,0-5.035-5.17,15.157,15.157,0,0,0-7.346-1.9m0,32.38a17.823,17.823,0,1,1,0-35.645,17.6,17.6,0,0,1,9.115,2.449,16.626,16.626,0,0,1,6.259,6.395,17.485,17.485,0,0,1,2.448,8.979A17.883,17.883,0,0,1,44.339,43.207" transform="translate(9.266 2.642)" fill="#4e8ae1"/><path d="M42.578,34.679A11.061,11.061,0,0,1,31.557,23.659a1.768,1.768,0,1,1,3.537,0,7.62,7.62,0,1,0,7.62-7.619,1.769,1.769,0,1,1,0-3.538,10.974,10.974,0,0,1,11.02,11.021A11.3,11.3,0,0,1,42.578,34.679" transform="translate(11.027 4.369)" fill="#4e8ae1"/><path d="M46.251,55.7h3.4V43.731h-3.4Zm5.17,3.4h-6.8a1.8,1.8,0,0,1-1.769-1.769V42.1a1.8,1.8,0,0,1,1.769-1.769h6.8A1.8,1.8,0,0,1,53.19,42.1V57.472a2.019,2.019,0,0,1-1.769,1.633" transform="translate(14.973 14.092)" fill="#4e8ae1"/><path d="M37.514,56.584h3.4V41.346h-3.4Zm5.035,3.4h-6.8a1.8,1.8,0,0,1-1.769-1.769V39.577a1.8,1.8,0,0,1,1.769-1.768h6.8a1.8,1.8,0,0,1,1.768,1.768V58.353a1.781,1.781,0,0,1-1.768,1.633" transform="translate(11.873 13.212)" fill="#4e8ae1"/><path d="M28.607,57.465h3.4V38.825h-3.4Zm5.17,3.4h-6.8A1.8,1.8,0,0,1,25.205,59.1V37.057a1.8,1.8,0,0,1,1.769-1.769h6.8a1.8,1.8,0,0,1,1.769,1.769V59.234a2.019,2.019,0,0,1-1.769,1.633" transform="translate(8.808 12.331)" fill="#4e8ae1"/><path d="M19.87,58.346h3.4V36.305h-3.4Zm5.035,3.4H18.1a1.8,1.8,0,0,1-1.769-1.769V34.536A1.8,1.8,0,0,1,18.1,32.767h6.8a1.8,1.8,0,0,1,1.769,1.769V60.115A1.782,1.782,0,0,1,24.9,61.748" transform="translate(5.707 11.45)" fill="#4e8ae1"/><path d="M10.963,59.226h3.4V33.784h-3.4Zm5.17,3.4H9.33a1.8,1.8,0,0,1-1.768-1.769V32.016A1.8,1.8,0,0,1,9.33,30.247h6.8A1.8,1.8,0,0,1,17.9,32.016V61a2.019,2.019,0,0,1-1.769,1.633" transform="translate(2.642 10.569)" fill="#4e8ae1"/><path d="M64.625,73.835H1.769A1.8,1.8,0,0,1,0,72.065V19.413a1.8,1.8,0,0,1,1.769-1.769,1.8,1.8,0,0,1,1.768,1.769v51.02H64.761A1.8,1.8,0,0,1,66.53,72.2a2.038,2.038,0,0,1-1.905,1.633" transform="translate(0 6.165)" fill="#4e8ae1"/><path d="M5.17,24.912h-3.4a1.768,1.768,0,1,1,0-3.537h3.4a1.8,1.8,0,0,1,1.769,1.768A1.9,1.9,0,0,1,5.17,24.912" transform="translate(0 7.469)" fill="#4e8ae1"/><path d="M5.17,28.743h-3.4a1.768,1.768,0,1,1,0-3.537h3.4a1.8,1.8,0,0,1,1.769,1.769A1.9,1.9,0,0,1,5.17,28.743" transform="translate(0 8.808)" fill="#4e8ae1"/><path d="M5.17,32.474h-3.4a1.769,1.769,0,0,1,0-3.538h3.4a1.8,1.8,0,0,1,1.769,1.769A1.9,1.9,0,0,1,5.17,32.474" transform="translate(0 10.111)" fill="#4e8ae1"/><path d="M5.17,36.305h-3.4a1.769,1.769,0,0,1,0-3.538h3.4a1.8,1.8,0,0,1,1.769,1.769A1.9,1.9,0,0,1,5.17,36.305" transform="translate(0 11.45)" fill="#4e8ae1"/><path d="M5.17,40.035h-3.4a1.768,1.768,0,1,1,0-3.537h3.4a1.8,1.8,0,0,1,1.769,1.769A1.9,1.9,0,0,1,5.17,40.035" transform="translate(0 12.754)" fill="#4e8ae1"/><path d="M5.17,43.867h-3.4a1.769,1.769,0,0,1,0-3.538h3.4A1.8,1.8,0,0,1,6.939,42.1,1.9,1.9,0,0,1,5.17,43.867" transform="translate(0 14.092)" fill="#4e8ae1"/><path d="M5.17,47.6h-3.4a1.768,1.768,0,1,1,0-3.537h3.4a1.8,1.8,0,0,1,1.769,1.768A2.019,2.019,0,0,1,5.17,47.6" transform="translate(0 15.396)" fill="#4e8ae1"/><path d="M5.17,51.428h-3.4a1.768,1.768,0,1,1,0-3.537h3.4a1.8,1.8,0,0,1,1.769,1.768A2.018,2.018,0,0,1,5.17,51.428" transform="translate(0 16.735)" fill="#4e8ae1"/><path d="M5.17,55.159h-3.4a1.769,1.769,0,0,1,0-3.538h3.4A1.8,1.8,0,0,1,6.939,53.39,2.019,2.019,0,0,1,5.17,55.159" transform="translate(0 18.038)" fill="#4e8ae1"/><path d="M11.421,14.83A1.768,1.768,0,1,0,13.19,16.6a1.8,1.8,0,0,0-1.769-1.768m0,6.8a5.17,5.17,0,1,1,5.17-5.17,5.168,5.168,0,0,1-5.17,5.17" transform="translate(2.184 3.946)" fill="#4e8ae1"/><path d="M55.939,37.445a.816.816,0,1,0,.816.815.879.879,0,0,0-.816-.815m0,5.17A4.218,4.218,0,1,1,60.156,38.4a4.239,4.239,0,0,1-4.217,4.217" transform="translate(18.073 11.943)" fill="#4e8ae1"/><path d="M27.36,4.713A2.585,2.585,0,1,0,29.946,7.3,2.5,2.5,0,0,0,27.36,4.713m0,8.57A6.039,6.039,0,0,1,21.374,7.3a5.987,5.987,0,0,1,11.974,0,6.04,6.04,0,0,1-5.987,5.986" transform="translate(7.469 0.458)" fill="#4e8ae1"/></g></svg>