<svg xmlns="http://www.w3.org/2000/svg" xmlns:xlink="http://www.w3.org/1999/xlink" width="79.436" height="90" viewBox="0 0 79.436 90"><defs><clipPath id="a"><rect width="79.436" height="90" fill="none"/></clipPath></defs><g transform="translate(0 0)" clip-path="url(#a)"><path d="M76.777,51.366V64.858H11.9A10.654,10.654,0,0,1,1.212,54.279a11.027,11.027,0,0,1,3.1-7.513A10.959,10.959,0,0,1,11.9,43.7h64.88Z" transform="translate(0.646 23.301)" fill="#fff"/><path d="M62.7,34.9a6.839,6.839,0,0,1,6.812,6.746A6.7,6.7,0,0,1,67.5,46.4a6.828,6.828,0,0,1-4.8,1.993H7.574V34.9H62.7Z" transform="translate(4.039 18.609)" fill="#b8d0f3"/><path d="M47.473,22.4V41.566h-9.6V22.4Z" transform="translate(20.194 11.944)" fill="#b8d0f3"/><path d="M52.682,22.4V41.565H19.7a9.781,9.781,0,0,1-6.814-2.76A9.631,9.631,0,0,1,19.854,22.4H52.682Z" transform="translate(5.386 11.944)" fill="#b8d0f3"/><path d="M30.853,9.14c.155-.153.155-.46.31-.612A7.9,7.9,0,0,1,37.82,5c14.866,0,4.955,26.526-3.1,26.526a6.839,6.839,0,0,1-3.56-.921h-.31a9.41,9.41,0,0,1-3.562.921C19.084,31.526,9.33,5,24.195,5a7.915,7.915,0,0,1,6.659,4.14" transform="translate(8.786 2.666)" fill="#b8d0f3"/><path d="M77.423,67.444H12.543A12.43,12.43,0,0,1,0,55.025a11.646,11.646,0,0,1,3.717-8.739,12.756,12.756,0,0,1,8.827-3.68,1.993,1.993,0,1,1,0,3.986,9.258,9.258,0,0,0-6.194,2.453,8.4,8.4,0,0,0-2.478,6.133,8.615,8.615,0,0,0,8.672,8.588H75.41V46.286H66.74a1.993,1.993,0,1,1,0-3.985H77.423a2.038,2.038,0,0,1,2.013,1.992V65.451a2.287,2.287,0,0,1-2.013,1.993" transform="translate(0 22.555)" fill="#4e8ae1"/><path d="M62.982,44.144h-.929a2.04,2.04,0,0,1-2.013-1.993,2.07,2.07,0,0,1,.929-1.685V24.979H20.4a7.63,7.63,0,0,0-7.743,7.666,7.156,7.156,0,0,0,2.323,5.366,7.924,7.924,0,0,0,5.42,2.3,1.994,1.994,0,1,1,0,3.988,11.663,11.663,0,0,1-8.207-3.375A11.427,11.427,0,0,1,8.786,32.8,11.64,11.64,0,0,1,20.4,21.3H62.982a2.037,2.037,0,0,1,2.012,1.992V42.151a2.038,2.038,0,0,1-2.012,1.993" transform="translate(4.685 11.358)" fill="#4e8ae1"/><path d="M63.4,50.925H8.275a2.04,2.04,0,0,1-2.013-1.993V35.593A2.04,2.04,0,0,1,8.275,33.6H63.4a8.614,8.614,0,0,1,8.67,8.586,9.067,9.067,0,0,1-2.476,6.133A8.724,8.724,0,0,1,63.4,50.925M10.132,47.092H63.4a4.829,4.829,0,0,0,3.407-1.38A4.732,4.732,0,0,0,68.2,42.339a4.8,4.8,0,0,0-4.8-4.753H10.132Z" transform="translate(3.339 17.916)" fill="#4e8ae1"/><path d="M72.738,55.086H10.8a1.993,1.993,0,1,1,0-3.986H72.738a2.04,2.04,0,0,1,2.013,1.993,2.287,2.287,0,0,1-2.013,1.993" transform="translate(4.685 27.247)" fill="#4e8ae1"/><path d="M72.738,51.286H10.8a1.993,1.993,0,1,1,0-3.986H72.738a2.04,2.04,0,0,1,2.013,1.993,2.287,2.287,0,0,1-2.013,1.993" transform="translate(4.685 25.221)" fill="#4e8ae1"/><path d="M38.573,44.252a2.04,2.04,0,0,1-2.013-1.993V23.093a2.013,2.013,0,0,1,4.026,0V42.258a2.287,2.287,0,0,1-2.013,1.993" transform="translate(19.495 11.251)" fill="#4e8ae1"/><path d="M35.378,34.259a10.082,10.082,0,0,1-3.715-.767,10.772,10.772,0,0,1-3.717.767c-3.1,0-6.349-2.608-8.982-7.053A27.242,27.242,0,0,1,15.25,14.327a11.747,11.747,0,0,1,2.168-7.208C18.655,5.586,20.823,3.9,24.849,3.9a10.451,10.451,0,0,1,6.968,2.76A9.75,9.75,0,0,1,38.786,3.9c4.026,0,6.348,1.685,7.432,3.218a11.444,11.444,0,0,1,2.168,7.208,27.242,27.242,0,0,1-3.715,12.879c-2.942,4.445-6.194,7.053-9.293,7.053m-4.025-4.753h.31a1.982,1.982,0,0,1,.929.153,6.143,6.143,0,0,0,2.786.613c3.408,0,8.827-8.893,8.827-16.254a7.263,7.263,0,0,0-1.392-4.751c-.929-1.227-2.324-1.687-4.336-1.687a5.791,5.791,0,0,0-4.955,2.6c-.155.155-.155.308-.31.461a1.89,1.89,0,0,1-3.407,0A6.2,6.2,0,0,0,24.54,7.581a5.387,5.387,0,0,0-4.334,1.687,7.263,7.263,0,0,0-1.4,4.751c0,7.361,5.42,16.254,8.827,16.254a9.12,9.12,0,0,0,2.787-.613,1.982,1.982,0,0,1,.929-.153" transform="translate(8.132 2.08)" fill="#4e8ae1"/><path d="M27,13.187a1.834,1.834,0,0,1-1.858-1.533V11.5C23.132,3.066,27,.308,27.468,0l2.013,3.221s-2.013,1.687-.619,7.359a1.928,1.928,0,0,1-1.394,2.3c-.155.307-.31.307-.465.307" transform="translate(13.101 0)" fill="#4e8ae1"/><path d="M28.441,23.18a1.912,1.912,0,0,1-1.549-.767,1.777,1.777,0,0,1,.465-2.606,8.674,8.674,0,0,0,3.1-4.6,1.9,1.9,0,0,1,2.323-1.38,1.876,1.876,0,0,1,1.394,2.3,13.56,13.56,0,0,1-4.646,6.9c-.31,0-.619.153-1.084.153" transform="translate(14.141 7.331)" fill="#4e8ae1"/></g></svg>