<svg xmlns="http://www.w3.org/2000/svg" xmlns:xlink="http://www.w3.org/1999/xlink" width="79.966" height="80" viewBox="0 0 79.966 80"><defs><clipPath id="a"><rect width="79.966" height="80" fill="none"/></clipPath></defs><rect width="7.561" height="10.082" transform="translate(14.199 68.506)" fill="#b8d0f3"/><rect width="7.561" height="20.164" transform="translate(40.694 58.424)" fill="#b8d0f3"/><rect width="7.563" height="31.456" transform="translate(68.572 47.132)" fill="#b8d0f3"/><path d="M55.528,20.165v6.351H47.965V57.972H42.924V20.165h12.6Z" transform="translate(20.607 20.616)" fill="#b8d0f3"/><path d="M36.673,31.557v6.251H29.112V57.972H24.071V31.557Z" transform="translate(10.609 20.616)" fill="#b8d0f3"/><path d="M17.719,41.639V47.89H10.158V57.972H5.117V41.639Z" transform="translate(0 20.616)" fill="#b8d0f3"/><g transform="translate(0 0)"><g clip-path="url(#a)"><path d="M56.068,1.31h3.395a6.668,6.668,0,0,1-2.037,4.754A6.913,6.913,0,0,1,52.672,8.1H49.277a6.663,6.663,0,0,1,2.037-4.754A5.971,5.971,0,0,1,56.068,1.31" transform="translate(17.107 0.455)" fill="#fff"/><path d="M51.9,16.874h-3.4a6.67,6.67,0,0,1-4.754-2.038,6.919,6.919,0,0,1-2.038-4.754h3.4a6.668,6.668,0,0,1,4.754,2.037A6.675,6.675,0,0,1,51.9,16.874" transform="translate(14.482 3.5)" fill="#fff"/><path d="M56.068,10.082h3.395a6.668,6.668,0,0,1-2.037,4.754,6.919,6.919,0,0,1-4.754,2.038H49.277a6.668,6.668,0,0,1,2.037-4.755,6.435,6.435,0,0,1,4.754-2.037" transform="translate(17.107 3.5)" fill="#fff"/><path d="M51.9,8.1h-3.4a6.664,6.664,0,0,1-4.754-2.038A6.919,6.919,0,0,1,41.714,1.31h3.4a6.67,6.67,0,0,1,4.754,2.038A6.438,6.438,0,0,1,51.9,8.1" transform="translate(14.482 0.455)" fill="#fff"/><path d="M37.944,17.644a2.58,2.58,0,1,1-2.581,2.58,2.58,2.58,0,0,1,2.581-2.58" transform="translate(12.277 6.125)" fill="#fff"/><path d="M16.074,31.557a3.4,3.4,0,1,1-3.4,3.4,3.4,3.4,0,0,1,3.4-3.4" transform="translate(4.401 10.955)" fill="#fff"/><path d="M20.477,24.42h0L10.29,34.606a3.7,3.7,0,1,1-5.3-5.161L15.18,19.256a14.827,14.827,0,0,0,5.3,5.164" transform="translate(1.356 6.685)" fill="#fff"/><path d="M25.669,2.52a14.805,14.805,0,0,1,0,29.611,14.012,14.012,0,0,1-7.47-2.038,16.022,16.022,0,0,1-5.3-5.161,14.16,14.16,0,0,1-2.037-7.606A14.666,14.666,0,0,1,25.669,2.52" transform="translate(3.771 0.875)" fill="#fff"/><path d="M38.3,5.142a1.629,1.629,0,1,1-1.63,1.63,1.63,1.63,0,0,1,1.63-1.63" transform="translate(12.732 1.785)" fill="#4e8ae1"/><path d="M33.262,25.306a1.63,1.63,0,1,1-1.63,1.63,1.631,1.631,0,0,1,1.63-1.63" transform="translate(10.981 8.785)" fill="#4e8ae1"/><path d="M6.847,34.078a1.63,1.63,0,1,1-1.63,1.63,1.631,1.631,0,0,1,1.63-1.63" transform="translate(1.811 11.831)" fill="#4e8ae1"/><path d="M5.537,18.955a1.629,1.629,0,1,1-1.63,1.63,1.63,1.63,0,0,1,1.63-1.63" transform="translate(1.356 6.58)" fill="#4e8ae1"/><path d="M22.584,65.863A1.8,1.8,0,0,1,20.819,64.1V43.724H7.237V64.1A1.8,1.8,0,0,1,5.47,65.863,1.8,1.8,0,0,1,3.7,64.1v-22A1.8,1.8,0,0,1,5.47,40.329h16.98a1.8,1.8,0,0,1,1.765,1.765V64.233a1.566,1.566,0,0,1-1.63,1.63" transform="translate(1.286 14.001)" fill="#4e8ae1"/><path d="M41.538,69.363A1.8,1.8,0,0,1,39.773,67.6V33.642H26.191V67.6a1.765,1.765,0,1,1-3.531,0V32.012a1.8,1.8,0,0,1,1.765-1.765H41.4a1.8,1.8,0,0,1,1.765,1.765V67.733a1.752,1.752,0,0,1-1.63,1.63" transform="translate(7.867 10.501)" fill="#4e8ae1"/><path d="M60.394,73.319a1.8,1.8,0,0,1-1.767-1.766V22.385H45.044v49.3a1.765,1.765,0,1,1-3.531,0V20.62a1.8,1.8,0,0,1,1.766-1.767H60.394a1.8,1.8,0,0,1,1.765,1.767V71.553a1.8,1.8,0,0,1-1.765,1.766" transform="translate(14.412 6.545)" fill="#4e8ae1"/><path d="M51.633,15.664h1.358a5.5,5.5,0,0,0,3.668-1.5,5.683,5.683,0,0,0,1.222-1.9H56.524a5.5,5.5,0,0,0-3.668,1.494,4.589,4.589,0,0,0-1.222,1.9m1.494,3.395H49.732a1.8,1.8,0,0,1-1.767-1.765,8.777,8.777,0,0,1,2.446-5.977,8.425,8.425,0,0,1,5.975-2.444h3.4a1.8,1.8,0,0,1,1.766,1.765A8.782,8.782,0,0,1,59.1,16.614a9.044,9.044,0,0,1-5.976,2.445" transform="translate(16.652 3.08)" fill="#4e8ae1"/><path d="M44.072,12.3a5.662,5.662,0,0,0,1.222,1.9,5.248,5.248,0,0,0,3.667,1.5h1.358A5.675,5.675,0,0,0,49.1,13.8,5.248,5.248,0,0,0,45.429,12.3Zm8.285,6.791h-3.4a8.782,8.782,0,0,1-5.976-2.445A8.886,8.886,0,0,1,40.4,10.537a1.8,1.8,0,0,1,1.765-1.766h3.4a8.772,8.772,0,0,1,5.976,2.446,8.421,8.421,0,0,1,2.445,5.975,1.817,1.817,0,0,1-1.629,1.9" transform="translate(14.027 3.045)" fill="#4e8ae1"/><path d="M51.633,6.791h1.358A5.506,5.506,0,0,0,56.66,5.3a5.688,5.688,0,0,0,1.222-1.9H56.524a5.5,5.5,0,0,0-3.668,1.5,5.683,5.683,0,0,0-1.222,1.9m1.494,3.395H49.732a1.8,1.8,0,0,1-1.767-1.765,8.774,8.774,0,0,1,2.446-5.976A8.426,8.426,0,0,1,56.386,0h3.4a1.8,1.8,0,0,1,1.766,1.765A8.785,8.785,0,0,1,59.1,7.742a9.043,9.043,0,0,1-5.976,2.444" transform="translate(16.652 0)" fill="#4e8ae1"/><path d="M44.037,3.395a5.668,5.668,0,0,0,1.222,1.9,5.253,5.253,0,0,0,3.667,1.494h1.358a5.683,5.683,0,0,0-1.222-1.9,5.243,5.243,0,0,0-3.668-1.5Zm8.285,6.791h-3.4A8.78,8.78,0,0,1,42.95,7.742a8.43,8.43,0,0,1-2.445-5.977A1.8,1.8,0,0,1,42.271,0h3.4a8.778,8.778,0,0,1,5.975,2.445,8.422,8.422,0,0,1,2.445,5.976,2.014,2.014,0,0,1-1.765,1.765" transform="translate(14.062 0)" fill="#4e8ae1"/><path d="M49.732,27.635a1.8,1.8,0,0,1-1.767-1.765V5.5a1.766,1.766,0,0,1,3.532,0V25.871a2.015,2.015,0,0,1-1.765,1.765" transform="translate(16.652 1.295)" fill="#4e8ae1"/><path d="M48.42,71.113a1.8,1.8,0,0,1-1.765-1.766V26.971a1.8,1.8,0,0,1,1.765-1.765H58.608a1.765,1.765,0,0,1,0,3.531H50.05V69.483a1.565,1.565,0,0,1-1.63,1.63" transform="translate(16.197 8.751)" fill="#4e8ae1"/><path d="M29.567,67.193A1.8,1.8,0,0,1,27.8,65.427V38.263A1.8,1.8,0,0,1,29.567,36.5H39.753a1.765,1.765,0,1,1,0,3.531H31.2V65.563a1.753,1.753,0,0,1-1.63,1.63" transform="translate(9.652 12.671)" fill="#4e8ae1"/><path d="M10.613,63.693a1.8,1.8,0,0,1-1.766-1.766V48.345a1.8,1.8,0,0,1,1.766-1.765H20.8a1.765,1.765,0,1,1,0,3.531H12.243V62.063a1.566,1.566,0,0,1-1.63,1.63" transform="translate(3.071 16.171)" fill="#4e8ae1"/><path d="M77.754,60.193H3.051a1.765,1.765,0,0,1,0-3.531h74.7a1.765,1.765,0,1,1,0,3.531" transform="translate(0.446 19.671)" fill="#4e8ae1"/><path d="M8.13,37.9a4.931,4.931,0,0,1-3.8-1.63,5.36,5.36,0,0,1-1.63-3.8,4.931,4.931,0,0,1,1.63-3.8L14.513,18.48a1.729,1.729,0,0,1,2.445,2.446L6.771,31.113a1.945,1.945,0,0,0-.543,1.358,2.077,2.077,0,0,0,.543,1.358,1.944,1.944,0,0,0,1.359.543,2.07,2.07,0,0,0,1.358-.543L19.674,23.641a1.729,1.729,0,1,1,2.445,2.446L11.932,36.274a5.134,5.134,0,0,1-3.8,1.63" transform="translate(0.936 6.239)" fill="#4e8ae1"/><path d="M26.123,4.706A13.188,13.188,0,0,0,12.948,17.881a12.652,12.652,0,0,0,1.9,6.655,12.561,12.561,0,0,0,4.618,4.618,12.868,12.868,0,0,0,6.655,1.766,13.107,13.107,0,1,0,0-26.214m0,29.745A16.7,16.7,0,0,1,17.7,32.143a15.107,15.107,0,0,1-5.841-5.84,16.565,16.565,0,1,1,14.262,8.149" transform="translate(3.316 0.455)" fill="#4e8ae1"/><path d="M24.513,26.628A10.319,10.319,0,0,1,14.19,16.306a1.766,1.766,0,0,1,3.532,0,6.926,6.926,0,1,0,6.927-6.927,1.766,1.766,0,1,1,0-3.532A10.318,10.318,0,0,1,34.971,16.17,10.64,10.64,0,0,1,24.513,26.628" transform="translate(4.926 2.03)" fill="#4e8ae1"/><path d="M5.572,23.349a1.8,1.8,0,0,1-1.766-1.766V2.975A1.8,1.8,0,0,1,5.572,1.21,1.8,1.8,0,0,1,7.337,2.975V21.719a1.778,1.778,0,0,1-1.765,1.63" transform="translate(1.321 0.42)" fill="#4e8ae1"/><path d="M12.054,9.757a1.651,1.651,0,0,1-1.222-.543l-3.939-3.8L2.954,9.35A1.729,1.729,0,0,1,.509,6.905L5.672,1.744a1.721,1.721,0,0,1,2.444,0l5.161,5.161a1.722,1.722,0,0,1,0,2.445,2.184,2.184,0,0,1-1.222.407" transform="translate(0 0.429)" fill="#4e8ae1"/><path d="M16.529,33.642a1.8,1.8,0,0,0-1.766,1.766,1.684,1.684,0,0,0,1.766,1.63,1.8,1.8,0,0,0,1.765-1.766,1.683,1.683,0,0,0-1.765-1.63m0,6.791a5.159,5.159,0,0,1-5.161-5.161,5.045,5.045,0,0,1,5.161-5.025,5.159,5.159,0,0,1,5.161,5.161,5.045,5.045,0,0,1-5.161,5.025" transform="translate(3.947 10.501)" fill="#4e8ae1"/><path d="M38.364,19.83a.815.815,0,1,0,.814.814.875.875,0,0,0-.814-.814m0,5.025a4.211,4.211,0,1,1,4.21-4.211,4.233,4.233,0,0,1-4.21,4.211" transform="translate(11.857 5.705)" fill="#4e8ae1"/></g></g></svg>