<svg xmlns="http://www.w3.org/2000/svg" xmlns:xlink="http://www.w3.org/1999/xlink" width="125.729" height="110" viewBox="0 0 125.729 110"><defs><clipPath id="a"><rect width="125.73" height="110" fill="none"/></clipPath></defs><path d="M44.874,50.946l-8.717,5.071L24.9,49.519v-13l11.252-6.5,11.254,6.5v13Z" transform="translate(30.87 34.712)" fill="#fff"/><path d="M21.1,22.169l7.925-4.6,11.252,6.5v13l-11.252,6.5-11.252-6.5v-13Z" transform="translate(22.032 20.316)" fill="#fff"/><g transform="translate(0 0)"><g clip-path="url(#a)"><path d="M14.83,17.071H25.5l7.112,6.775-4.392,2.391V42.579l14.854,8.168V67.089l14.852,8.17,11.506-6.378,6.7,6.378H91.4A50.871,50.871,0,0,1,57.717,87.815c-27.2.2-49.583-21.124-49.583-47.23a44.61,44.61,0,0,1,6.7-23.514" transform="translate(8.812 16.805)" fill="#fff"/><path d="M88.125,87.322H72.852l-6.694-6.376,3.348-1.794V62.81l14.641-8.368V38.1L69.3,29.932,54.444,38.1,39.59,29.932,29.128,35.711l-7.112-6.775H11.347a50.426,50.426,0,0,1,43.1-23.915c27.4,0,49.789,21.122,49.789,47.428A47.462,47.462,0,0,1,88.125,87.322m1.881-19.928a2.722,2.722,0,1,0-2.719,2.592,2.706,2.706,0,0,0,2.719-2.592" transform="translate(12.292 4.943)" fill="#b8d0f3"/><path d="M10.352,49a4.988,4.988,0,1,1,0,9.964,4.988,4.988,0,1,1,0-9.964" transform="translate(5.548 48.242)" fill="#b8d0f3"/><path d="M12.812,3.816A3.883,3.883,0,0,1,16.787,7.6a3.76,3.76,0,0,1-3.975,3.786A3.759,3.759,0,0,1,8.837,7.6a3.883,3.883,0,0,1,3.975-3.786" transform="translate(9.573 3.756)" fill="#fff"/><path d="M58.1,1.3a6.367,6.367,0,0,1,6.481,6.178,6.492,6.492,0,0,1-12.969,0A6.238,6.238,0,0,1,58.1,1.3" transform="translate(55.915 1.284)" fill="#b8d0f3"/><path d="M28.713,24.921a3.841,3.841,0,0,1,0,5.38,4.332,4.332,0,0,1-5.648,0,3.841,3.841,0,0,1,0-5.38,4.332,4.332,0,0,1,5.648,0" transform="translate(23.797 23.503)" fill="#b8d0f3"/><path d="M37.55,37.473a3.841,3.841,0,0,1,0,5.38,4.332,4.332,0,0,1-5.648,0,3.841,3.841,0,0,1,0-5.38,4.332,4.332,0,0,1,5.648,0" transform="translate(33.37 35.86)" fill="#b8d0f3"/><path d="M61.741,25.843V41.985l-14.854,8.17-14.854-8.17V25.843l14.854-8.17Z" transform="translate(34.701 17.398)" fill="#fff"/><path d="M51.726,52.82A2.594,2.594,0,1,1,49,55.412a2.706,2.706,0,0,1,2.723-2.592" transform="translate(53.085 51.998)" fill="#4e8ae1"/><path d="M49.215,35.247a2.594,2.594,0,1,1-2.721,2.592,2.707,2.707,0,0,1,2.721-2.592" transform="translate(50.367 34.699)" fill="#4e8ae1"/><path d="M48.01,1.3A2.707,2.707,0,0,1,50.729,3.9,2.68,2.68,0,0,1,48.01,6.288,2.857,2.857,0,0,1,45.289,3.9,2.856,2.856,0,0,1,48.01,1.3" transform="translate(49.062 1.284)" fill="#4e8ae1"/><path d="M37.968,11.347a2.708,2.708,0,0,1,2.721,2.592,2.682,2.682,0,0,1-2.721,2.389,2.855,2.855,0,0,1-2.721-2.389,2.708,2.708,0,0,1,2.721-2.592" transform="translate(38.183 11.17)" fill="#4e8ae1"/><path d="M29.131,11.347a2.708,2.708,0,0,1,2.721,2.592,2.546,2.546,0,0,1-2.721,2.389,2.706,2.706,0,0,1-2.721-2.59,2.857,2.857,0,0,1,2.721-2.391" transform="translate(28.61 11.17)" fill="#4e8ae1"/><path d="M20.394,36.452a2.708,2.708,0,0,1,2.721,2.592,2.685,2.685,0,0,1-2.721,2.391,2.86,2.86,0,0,1-2.721-2.592,2.548,2.548,0,0,1,2.721-2.391" transform="translate(19.145 35.885)" fill="#4e8ae1"/><path d="M19.089,52.82a2.594,2.594,0,1,1-2.721,2.592,2.706,2.706,0,0,1,2.721-2.592" transform="translate(17.732 51.998)" fill="#4e8ae1"/><path d="M6.535,41.473a2.594,2.594,0,1,1-2.719,2.592,2.859,2.859,0,0,1,2.719-2.592" transform="translate(4.134 40.828)" fill="#4e8ae1"/><path d="M33.933,54.081a3.094,3.094,0,0,1-1.256-.4l-14.852-8.17a2.267,2.267,0,0,1-1.256-2.191V26.979a2.469,2.469,0,0,1,1.256-2.191l14.852-8.17a3.224,3.224,0,0,1,2.719,0l14.854,8.17A2.489,2.489,0,0,1,51.3,28.176a2.753,2.753,0,0,1-3.556,1L34.142,21.8,21.8,28.572V42.124L35.4,49.5a2.492,2.492,0,0,1,1.048,3.387,3.69,3.69,0,0,1-2.51,1.2" transform="translate(17.949 16.064)" fill="#4e8ae1"/><path d="M48.409,54.081a2.664,2.664,0,0,1-2.3-1.2A2.5,2.5,0,0,1,47.153,49.5l13.6-7.372V28.572L48.409,21.8,36.065,28.572V43.321a2.722,2.722,0,0,1-5.437,0V26.979a2.471,2.471,0,0,1,1.254-2.191l14.854-8.17a3.224,3.224,0,0,1,2.719,0l14.854,8.17a2.264,2.264,0,0,1,1.254,2.191V43.321a2.471,2.471,0,0,1-1.254,2.191l-14.854,8.17a1.642,1.642,0,0,1-1.046.4" transform="translate(33.179 16.064)" fill="#4e8ae1"/><path d="M41.061,66.431a3.109,3.109,0,0,1-1.256-.4l-14.852-8.17A2.27,2.27,0,0,1,23.7,55.671V39.329a2.471,2.471,0,0,1,1.254-2.191l14.852-8.17a3.243,3.243,0,0,1,2.721,0l14.854,8.17a2.269,2.269,0,0,1,1.254,2.191V55.671a2.481,2.481,0,0,1-1.254,2.193l-14.854,8.17a5.539,5.539,0,0,1-1.465.4M28.72,54.276l12.342,6.775L53.4,54.276V40.724L41.061,33.949,28.72,40.724Z" transform="translate(25.673 28.223)" fill="#4e8ae1"/><path d="M59.229,103.453c-28.868,0-52.3-22.319-52.3-49.82A46.806,46.806,0,0,1,10.068,36.7a45.156,45.156,0,0,1,3.767-7.771A51.759,51.759,0,0,1,32.661,10.789,53.253,53.253,0,0,1,59.229,3.816c28.87,0,52.3,22.317,52.3,49.818a48.628,48.628,0,0,1-9.625,28.9A43.968,43.968,0,0,1,94.585,90.3a52.9,52.9,0,0,1-35.356,13.153m0-94.656C42.494,8.8,26.8,17.366,18.436,31.315a38.125,38.125,0,0,0-3.346,7.174A41.344,41.344,0,0,0,12.37,53.634c0,24.71,21.129,44.837,47.07,44.837a47.9,47.9,0,0,0,31.8-11.756,42.7,42.7,0,0,0,6.485-7.176,43.205,43.205,0,0,0,8.787-25.9C106.3,28.925,85.171,8.8,59.229,8.8" transform="translate(7.505 3.756)" fill="#4e8ae1"/><path d="M36.008,47.6a6.66,6.66,0,0,1-4.6-1.794,6.045,6.045,0,0,1,0-8.767,6.8,6.8,0,0,1,9.206,0,6.045,6.045,0,0,1,0,8.767,6.311,6.311,0,0,1-4.6,1.794m0-7.372a.848.848,0,0,0-.835.4,1.428,1.428,0,0,0,0,1.792c.419.4.627.4.835.4a.85.85,0,0,0,.837-.4,1.428,1.428,0,0,0,0-1.792.85.85,0,0,0-.837-.4" transform="translate(31.983 34.698)" fill="#4e8ae1"/><path d="M27.27,35.049a6.667,6.667,0,0,1-4.6-1.792,6.05,6.05,0,0,1,0-8.769,6.8,6.8,0,0,1,9.206,0,6.05,6.05,0,0,1,0,8.769,6.668,6.668,0,0,1-4.6,1.792m0-7.372a.848.848,0,0,0-.835.4c-.421.4-.421.6-.421.8a.78.78,0,0,0,.421.8c.419.4.627.4.835.4a.85.85,0,0,0,.837-.4c.419-.4.419-.6.419-.8a.782.782,0,0,0-.419-.8.85.85,0,0,0-.837-.4" transform="translate(22.519 22.341)" fill="#4e8ae1"/><path d="M82.608,57.067H49.556a2.615,2.615,0,0,1-1.883-.8L33.446,42.72a2.444,2.444,0,0,1,0-3.588,2.747,2.747,0,0,1,3.767,0L50.6,51.888H82.4a2.7,2.7,0,0,1,2.719,2.59,2.665,2.665,0,0,1-2.51,2.59" transform="translate(35.382 37.787)" fill="#4e8ae1"/><path d="M66.87,54.085H54.737a2.594,2.594,0,1,1,0-5.181H66.66a2.708,2.708,0,0,1,2.721,2.59,2.667,2.667,0,0,1-2.51,2.592" transform="translate(56.349 48.143)" fill="#4e8ae1"/><path d="M72.309,46.552H47.2a2.593,2.593,0,1,1,0-5.179h25.1a2.593,2.593,0,1,1,0,5.179" transform="translate(48.192 40.729)" fill="#4e8ae1"/><path d="M45.607,34.5a2.618,2.618,0,0,1-1.883-.8L30.335,20.945H5.231a2.706,2.706,0,0,1-2.721-2.59,2.706,2.706,0,0,1,2.721-2.59H31.38a2.619,2.619,0,0,1,1.883.8L47.489,30.114a2.441,2.441,0,0,1,0,3.586,2.709,2.709,0,0,1-1.881.8" transform="translate(2.719 15.521)" fill="#4e8ae1"/><path d="M10.669,17.131H2.721A2.7,2.7,0,0,1,0,14.542,2.706,2.706,0,0,1,2.721,11.95h7.948a2.708,2.708,0,0,1,2.721,2.592,2.706,2.706,0,0,1-2.721,2.59" transform="translate(0 11.764)" fill="#4e8ae1"/><path d="M22.436,24.662H4.026a2.706,2.706,0,0,1-2.721-2.59,2.708,2.708,0,0,1,2.721-2.592h18.41a2.707,2.707,0,0,1,2.719,2.592,3.035,3.035,0,0,1-2.719,2.59" transform="translate(1.414 19.178)" fill="#4e8ae1"/><path d="M47.121,27.775H39.173a2.594,2.594,0,1,1,0-5.181h7.948a2.708,2.708,0,0,1,2.721,2.59,3.039,3.039,0,0,1-2.721,2.592" transform="translate(39.489 22.242)" fill="#4e8ae1"/><path d="M45.706,31.49H40.475a2.594,2.594,0,1,1,0-5.181h5.231a2.708,2.708,0,0,1,2.721,2.59,3.041,3.041,0,0,1-2.721,2.592" transform="translate(40.903 25.9)" fill="#4e8ae1"/><path d="M11.765,62.844a7.582,7.582,0,1,1,0-15.145,7.582,7.582,0,1,1,0,15.145m0-9.964a2.594,2.594,0,1,0,2.721,2.59,2.579,2.579,0,0,0-2.721-2.59" transform="translate(4.135 46.957)" fill="#4e8ae1"/><path d="M14.117,14.966A6.369,6.369,0,0,1,7.632,8.789a6.369,6.369,0,0,1,6.485-6.178A6.369,6.369,0,0,1,20.6,8.789a6.369,6.369,0,0,1-6.485,6.178m0-7.374a1.319,1.319,0,0,0-1.256,1.2,1.257,1.257,0,0,0,2.51,0,1.176,1.176,0,0,0-1.254-1.2" transform="translate(8.268 2.57)" fill="#4e8ae1"/><path d="M59.517,17.537a9.077,9.077,0,0,1-9.208-8.767,9.216,9.216,0,0,1,18.41,0,9.073,9.073,0,0,1-9.2,8.767m0-12.355A3.882,3.882,0,0,0,55.54,8.968a3.979,3.979,0,0,0,7.948,0,3.881,3.881,0,0,0-3.971-3.786" transform="translate(54.5 0)" fill="#4e8ae1"/></g></g></svg>