<svg xmlns="http://www.w3.org/2000/svg" xmlns:xlink="http://www.w3.org/1999/xlink" width="82.176" height="80" viewBox="0 0 82.176 80"><defs><clipPath id="a"><rect width="82.176" height="80" fill="none"/></clipPath></defs><g transform="translate(0 0)"><g transform="translate(0 0)" clip-path="url(#a)"><path d="M44.771,37.5V60.489a28.162,28.162,0,0,0-22.177,0V26.475A24.707,24.707,0,0,1,37.969,24.3a16.356,16.356,0,0,0,6.8,13.2" transform="translate(8.018 8.491)" fill="#b8d0f3"/><path d="M28.4,26.473V60.487a28.156,28.156,0,0,0-22.177,0V26.473c.135,0,11.156-5.715,22.177,0" transform="translate(2.209 8.494)" fill="#b8d0f3"/><path d="M59.128,38.175V64.027H35.319a3.369,3.369,0,0,1-3.4,3.4h-3.4a3.368,3.368,0,0,1-3.4-3.4H1.3v-33.2h6.8V58.039a28.163,28.163,0,0,1,22.177,0,28.162,28.162,0,0,1,22.177,0V35.047a15.183,15.183,0,0,0,6.667,3.128" transform="translate(0.463 10.94)" fill="#fff"/><path d="M54,46.494a2.585,2.585,0,1,1,0,5.17,2.5,2.5,0,0,1-2.585-2.585A2.673,2.673,0,0,1,54,46.494" transform="translate(18.246 16.5)" fill="#fff"/><path d="M10.933,10.142a3.4,3.4,0,1,1-3.4,3.4,3.369,3.369,0,0,1,3.4-3.4" transform="translate(2.673 3.599)" fill="#fff"/><path d="M33.138,2.611A4.218,4.218,0,1,1,28.92,6.829a4.153,4.153,0,0,1,4.218-4.218" transform="translate(10.263 0.927)" fill="#fff"/><path d="M55.165,15.455a17.007,17.007,0,1,1-8.434,0V1.3H55.3v14.15Z" transform="translate(12.045 0.463)" fill="#fff"/><path d="M55.693,3.816a1.8,1.8,0,0,1,1.768,1.768,1.769,1.769,0,1,1-3.538,0,1.9,1.9,0,0,1,1.769-1.768" transform="translate(19.136 1.354)" fill="#4e8ae1"/><path d="M55.693,36.452a1.8,1.8,0,0,1,1.768,1.769,1.688,1.688,0,0,1-1.768,1.633,1.8,1.8,0,0,1-1.769-1.769,1.689,1.689,0,0,1,1.769-1.633" transform="translate(19.136 12.936)" fill="#4e8ae1"/><path d="M49.467,51.515A1.769,1.769,0,1,1,47.7,53.283a1.8,1.8,0,0,1,1.769-1.768" transform="translate(16.927 18.282)" fill="#4e8ae1"/><path d="M45.57,23.138a1.724,1.724,0,0,1,.545,1.225,1.325,1.325,0,0,1-.545,1.225,1.726,1.726,0,0,1-1.223.543,1.8,1.8,0,0,1-1.769-1.768,1.481,1.481,0,0,1,.543-1.225,1.729,1.729,0,0,1,1.226-.543,2.551,2.551,0,0,1,1.223.543" transform="translate(15.11 8.019)" fill="#4e8ae1"/><path d="M28.078,13.857a1.769,1.769,0,1,1-1.769,1.769,1.9,1.9,0,0,1,1.769-1.769" transform="translate(9.336 4.918)" fill="#4e8ae1"/><path d="M21.852,5.121a1.769,1.769,0,1,1,0,3.538,1.926,1.926,0,0,1-1.768-1.9,1.688,1.688,0,0,1,1.768-1.633" transform="translate(7.127 1.818)" fill="#4e8ae1"/><path d="M6.789,2.611A1.8,1.8,0,0,1,8.559,4.379,1.8,1.8,0,0,1,6.789,6.149a1.926,1.926,0,0,1-1.769-1.9A1.688,1.688,0,0,1,6.789,2.611" transform="translate(1.781 0.927)" fill="#4e8ae1"/><path d="M6.789,18.878a1.769,1.769,0,1,1,0,3.538A1.9,1.9,0,0,1,5.02,20.647a1.8,1.8,0,0,1,1.769-1.769" transform="translate(1.781 6.7)" fill="#4e8ae1"/><path d="M28.83,62.594a1.222,1.222,0,0,1-.68-.137,26.129,26.129,0,0,0-20.681,0,1.442,1.442,0,0,1-1.633-.135,1.564,1.564,0,0,1-.816-1.5V26.812a1.676,1.676,0,0,1,.952-1.5c.543-.271,11.973-5.986,23.674,0a1.7,1.7,0,0,1-1.634,2.993c-8.434-4.353-16.87-1.5-19.592-.408V58.377a29.289,29.289,0,0,1,21.089.952,1.75,1.75,0,0,1,.816,2.313,1.67,1.67,0,0,1-1.5.952" transform="translate(1.782 8.018)" fill="#4e8ae1"/><path d="M20.251,34.7h-.272l-8.571-1.768a1.735,1.735,0,0,1,.68-3.4L20.659,31.3a1.734,1.734,0,0,1,1.362,2.042,1.88,1.88,0,0,1-1.769,1.36" transform="translate(3.558 10.472)" fill="#4e8ae1"/><path d="M20.251,38.414h-.272l-8.571-1.768a1.735,1.735,0,0,1,.68-3.4l8.571,1.769a1.732,1.732,0,0,1,1.362,2.04,1.878,1.878,0,0,1-1.769,1.36" transform="translate(3.558 11.79)" fill="#4e8ae1"/><path d="M20.251,42.23h-.272l-8.571-1.768a1.735,1.735,0,0,1,.68-3.4l8.571,1.769a1.732,1.732,0,0,1,1.362,2.04,1.878,1.878,0,0,1-1.769,1.36" transform="translate(3.558 13.144)" fill="#4e8ae1"/><path d="M20.251,45.946h-.272l-8.571-1.769a1.734,1.734,0,1,1,.68-3.4l8.571,1.768a1.733,1.733,0,0,1,1.362,2.042,1.88,1.88,0,0,1-1.769,1.36" transform="translate(3.558 14.463)" fill="#4e8ae1"/><path d="M28.048,38.414a1.614,1.614,0,0,1-1.633-1.36,1.8,1.8,0,0,1,1.36-2.04l8.571-1.769a1.735,1.735,0,1,1,.68,3.4l-8.571,1.768Z" transform="translate(9.367 11.79)" fill="#4e8ae1"/><path d="M28.048,42.23a1.614,1.614,0,0,1-1.633-1.36,1.8,1.8,0,0,1,1.36-2.04l8.571-1.769a1.735,1.735,0,1,1,.68,3.4L28.456,42.23Z" transform="translate(9.367 13.144)" fill="#4e8ae1"/><path d="M28.048,45.946a1.616,1.616,0,0,1-1.633-1.36,1.8,1.8,0,0,1,1.36-2.042l8.571-1.768a1.734,1.734,0,1,1,.68,3.4l-8.571,1.769Z" transform="translate(9.367 14.463)" fill="#4e8ae1"/><path d="M32.38,69.523h-3.4a5.515,5.515,0,0,1-3.673-1.5,5.732,5.732,0,0,1-1.225-1.9H1.768A1.8,1.8,0,0,1,0,64.353V31.291a1.8,1.8,0,0,1,1.768-1.768h6.8a1.769,1.769,0,0,1,0,3.538H3.4V62.72H25.579a1.8,1.8,0,0,1,1.767,1.769,1.663,1.663,0,0,0,.546,1.225,1.726,1.726,0,0,0,1.223.543h3.4a1.8,1.8,0,0,0,1.768-1.768,1.8,1.8,0,0,1,1.768-1.769H58.23V38.911a1.769,1.769,0,0,1,3.538,0V64.49A1.8,1.8,0,0,1,60,66.258H37.143a5.049,5.049,0,0,1-4.762,3.265" transform="translate(0 10.477)" fill="#4e8ae1"/><path d="M23.057,62.559a2.541,2.541,0,0,1-.952-.272,1.5,1.5,0,0,1-.816-1.36V26.912a1.676,1.676,0,0,1,.951-1.5A25.753,25.753,0,0,1,38.568,23.1a1.656,1.656,0,0,1-.545,3.267,22.824,22.824,0,0,0-13.333,1.5V58.341a29.711,29.711,0,0,1,18.776,0V37.933a1.8,1.8,0,0,1,1.768-1.768,1.686,1.686,0,0,1,1.633,1.768V60.926a1.875,1.875,0,0,1-.816,1.5,1.746,1.746,0,0,1-1.633.137c-.135,0-10.068-4.762-20.681,0Z" transform="translate(7.555 8.053)" fill="#4e8ae1"/><path d="M49.629,39.008a11.973,11.973,0,0,1,0-23.946,1.769,1.769,0,1,1,0,3.538,8.623,8.623,0,0,0-8.571,8.572A8.523,8.523,0,0,0,57.929,28.94H51.261a1.769,1.769,0,0,1,0-3.538h8.572A1.8,1.8,0,0,1,61.6,27.172,12.144,12.144,0,0,1,49.629,39.008" transform="translate(13.364 5.345)" fill="#4e8ae1"/><path d="M51.411,51.156a16.963,16.963,0,0,1-3.673-.408,20.217,20.217,0,0,1-7.618-3.4,18.421,18.421,0,0,1-7.483-14.558V32.38A18.586,18.586,0,0,1,45.425,14.694V1.768a1.769,1.769,0,0,1,3.538,0v14.15a1.635,1.635,0,0,1-1.225,1.633A15.278,15.278,0,0,0,36.309,32.38v.408a15.085,15.085,0,0,0,6.123,11.838,14.637,14.637,0,0,0,6.123,2.721,22.317,22.317,0,0,0,2.993.272,15.358,15.358,0,0,0,3.945-30.2,1.506,1.506,0,0,1-1.225-1.633V1.768a1.769,1.769,0,0,1,3.538,0V14.694A18.713,18.713,0,0,1,70.594,32.38c-.543,10.34-8.979,18.776-19.184,18.776" transform="translate(11.582 0)" fill="#4e8ae1"/><path d="M55.542,3.538H41.936a1.8,1.8,0,0,1-1.769-1.769A1.8,1.8,0,0,1,41.936,0H55.542a1.8,1.8,0,0,1,1.769,1.768,1.9,1.9,0,0,1-1.769,1.769" transform="translate(14.254 0)" fill="#4e8ae1"/><path d="M11.4,19.041a5.168,5.168,0,0,1-5.17-5.17A5.053,5.053,0,0,1,11.4,8.837a5.167,5.167,0,0,1,5.169,5.17A5.053,5.053,0,0,1,11.4,19.041m0-6.8a1.8,1.8,0,0,0-1.769,1.769A1.687,1.687,0,0,0,11.4,15.638a1.8,1.8,0,0,0,1.768-1.768A1.687,1.687,0,0,0,11.4,12.238" transform="translate(2.209 3.136)" fill="#4e8ae1"/><path d="M54.427,53.724a4.218,4.218,0,1,1,4.216-4.218,4.152,4.152,0,0,1-4.216,4.218m0-5.035a.816.816,0,1,0,.816.817c.137-.545-.272-.817-.816-.817" transform="translate(17.818 16.072)" fill="#4e8ae1"/><path d="M33.6,13.278a6.039,6.039,0,0,1-5.986-5.986,5.987,5.987,0,1,1,11.973,0A6.04,6.04,0,0,1,33.6,13.278m0-8.571a2.583,2.583,0,0,0-2.585,2.585,2.585,2.585,0,0,0,5.17,0A2.583,2.583,0,0,0,33.6,4.707" transform="translate(9.8 0.463)" fill="#4e8ae1"/></g></g></svg>