<svg xmlns="http://www.w3.org/2000/svg" xmlns:xlink="http://www.w3.org/1999/xlink" width="108.714" height="110" viewBox="0 0 108.714 110"><defs><clipPath id="a"><rect width="108.714" height="110" fill="none"/></clipPath></defs><g transform="translate(0 0)" clip-path="url(#a)"><path d="M73.625,34.485a38.481,38.481,0,0,0-5.133-11.918A36.514,36.514,0,0,0,52.176,9.186,36.605,36.605,0,0,0,1.209,42.918,37.058,37.058,0,0,0,16.792,72.985a9.143,9.143,0,0,1,12.65.365,8.542,8.542,0,0,1,2.568,5.866,30.283,30.283,0,0,0,5.866.551A36.927,36.927,0,0,0,71.241,58.5a15.925,15.925,0,0,0,1.284-3.117,35,35,0,0,0,2.2-12.467,32.271,32.271,0,0,0-1.1-8.434" transform="translate(0.989 5.116)" fill="#fff"/><path d="M82.4,27.611v5.5l-8.25,1.833A22.03,22.03,0,0,1,71.4,41.727l4.582,7.15-4.033,3.851L64.8,48.142a22.024,22.024,0,0,1-6.782,2.751l-1.833,8.25h-6.6a35,35,0,0,0,2.2-12.467,42.5,42.5,0,0,0-.916-8.434h.182a10.733,10.733,0,0,0,2.384.367,8.41,8.41,0,0,0,8.434-8.434,8.569,8.569,0,0,0-8.434-8.615,8.888,8.888,0,0,0-7.7,4.766h-.184A36.506,36.506,0,0,0,29.238,12.944l5.317-5.317,7.15,4.582a21.954,21.954,0,0,1,6.782-2.748L50.32,1.21h5.5l1.833,8.252a21.982,21.982,0,0,1,6.784,2.748l7.148-4.582,3.851,3.849-4.584,7.152A20.29,20.29,0,0,1,73.6,25.411Z" transform="translate(23.927 0.99)" fill="#b8d0f3"/><path d="M39.342,60.419v4.951H3.226V60.419a22.357,22.357,0,0,1,2.017-2.2,22.757,22.757,0,0,1,16.134-6.6,22.753,22.753,0,0,1,16.133,6.6c.549.735,1.284,1.467,1.833,2.2" transform="translate(2.64 42.245)" fill="#b8d0f3"/><path d="M11.037,44.016a9.143,9.143,0,0,1,12.65.365,8.542,8.542,0,0,1,2.568,5.866,9.217,9.217,0,0,1-2.568,6.966,8.857,8.857,0,0,1-12.832,0,9.184,9.184,0,0,1,0-12.832.635.635,0,0,1,.182-.365" transform="translate(6.745 34.085)" fill="#b8d0f3"/><path d="M8.2,1.311A5.683,5.683,0,1,1,2.521,6.993,5.682,5.682,0,0,1,8.2,1.311" transform="translate(2.063 1.073)" fill="#fff"/><path d="M56.305,35.288a4.583,4.583,0,1,1-4.584,4.582,4.583,4.583,0,0,1,4.584-4.582" transform="translate(42.327 28.878)" fill="#fff"/><path d="M62.557,65.114A2.383,2.383,0,1,0,60.175,67.5a2.565,2.565,0,0,0,2.382-2.386M66.59,58.7a9.214,9.214,0,0,1,2.751,6.415,8.9,8.9,0,0,1-2.751,6.417,9.074,9.074,0,0,1-13.016,0L35.791,53.75,48.807,40.732Z" transform="translate(29.29 33.334)" fill="#b8d0f3"/><path d="M40.577,58.535l-2.382,2.384-8.068-8.068-.184-.182A37.231,37.231,0,0,0,47.727,34.884l.184.185,8.066,8.064-2.384,2.384Z" transform="translate(24.504 28.548)" fill="#b8d0f3"/><path d="M31.789,13.813A22.916,22.916,0,1,1,8.872,36.73,22.916,22.916,0,0,1,31.789,13.813" transform="translate(7.261 11.304)" fill="#fff"/><path d="M58.962,10.183a2.2,2.2,0,1,1-2.2,2.2,2.2,2.2,0,0,1,2.2-2.2" transform="translate(46.452 8.333)" fill="#4e8ae1"/><path d="M56.44,44.161a2.2,2.2,0,1,1-2.2,2.2,2.2,2.2,0,0,1,2.2-2.2" transform="translate(44.39 36.14)" fill="#4e8ae1"/><path d="M50.191,1.311a2.2,2.2,0,1,1-2.2,2.2,2.2,2.2,0,0,1,2.2-2.2" transform="translate(39.274 1.073)" fill="#4e8ae1"/><path d="M35.067,55.553a2.2,2.2,0,1,1-2.2,2.2,2.2,2.2,0,0,1,2.2-2.2" transform="translate(26.897 45.462)" fill="#4e8ae1"/><path d="M28.716,49.2a2.2,2.2,0,1,1-2.2,2.2,2.2,2.2,0,0,1,2.2-2.2" transform="translate(21.7 40.265)" fill="#4e8ae1"/><rect width="4.584" height="4.586" transform="translate(45.832 57.382)" fill="#4e8ae1"/><rect width="4.584" height="4.586" transform="translate(39.049 57.382)" fill="#4e8ae1"/><rect width="4.584" height="4.584" transform="translate(39.049 39.049)" fill="#4e8ae1"/><rect width="4.584" height="4.586" transform="translate(32.081 57.382)" fill="#4e8ae1"/><rect width="4.584" height="4.584" transform="translate(32.081 39.049)" fill="#4e8ae1"/><rect width="4.584" height="4.584" transform="translate(25.299 39.049)" fill="#4e8ae1"/><path d="M13.592,1.311a2.2,2.2,0,1,1-2.2,2.2,2.2,2.2,0,0,1,2.2-2.2" transform="translate(9.323 1.073)" fill="#4e8ae1"/><path d="M3.51,42.951a2.2,2.2,0,1,1-2.2,2.2,2.2,2.2,0,0,1,2.2-2.2" transform="translate(1.072 35.149)" fill="#4e8ae1"/><path d="M61.144,77.617a11.375,11.375,0,0,1-8.068-3.3L35.293,56.533a2.334,2.334,0,1,1,3.3-3.3L56.377,71.016a6.876,6.876,0,0,0,11.734-4.95,7.428,7.428,0,0,0-2.017-4.95L48.31,43.334a2.334,2.334,0,0,1,3.3-3.3L69.392,57.815a11.074,11.074,0,0,1,3.3,8.068,11.841,11.841,0,0,1-3.3,8.066,11.031,11.031,0,0,1-8.248,3.668" transform="translate(28.321 32.199)" fill="#4e8ae1"/><path d="M39.164,64.27a2.237,2.237,0,0,1-1.651-.733l-8.066-8.068a2.333,2.333,0,0,1,3.3-3.3l6.417,6.415.733-.733L53.645,44.1,47.23,37.687a2.332,2.332,0,0,1,3.3-3.3L58.6,42.453a2.743,2.743,0,0,1,.733,1.649,2.241,2.241,0,0,1-.733,1.651L40.629,63.537a1.665,1.665,0,0,1-1.466.733" transform="translate(23.535 27.579)" fill="#4e8ae1"/><path d="M51.264,51.622A4.583,4.583,0,1,1,46.68,56.2a4.582,4.582,0,0,1,4.584-4.58" transform="translate(38.201 42.245)" fill="#4e8ae1"/><path d="M56.974,62.7h-6.6a2.383,2.383,0,0,1,0-4.766h4.766l1.467-6.6a2.167,2.167,0,0,1,1.651-1.649,17.779,17.779,0,0,0,6.05-2.566,1.923,1.923,0,0,1,2.382,0l5.684,3.666L73.656,49.5,69.99,43.817a1.931,1.931,0,0,1,0-2.384,22.252,22.252,0,0,0,2.566-6.052,2.172,2.172,0,0,1,1.651-1.649l6.6-1.466V30.434l-6.6-1.467a2.167,2.167,0,0,1-1.651-1.649,17.713,17.713,0,0,0-2.566-6.05,1.931,1.931,0,0,1,0-2.384L73.656,13.2l-1.282-1.282L66.69,15.583a1.923,1.923,0,0,1-2.382,0,22.264,22.264,0,0,0-6.05-2.566,2.167,2.167,0,0,1-1.651-1.651l-1.467-6.6H53.306l-1.466,6.6a2.172,2.172,0,0,1-1.651,1.651,17.763,17.763,0,0,0-6.05,2.566,1.926,1.926,0,0,1-2.384,0l-5.682-3.666-4.033,4.033a2.334,2.334,0,0,1-3.3-3.3l5.317-5.317a2.486,2.486,0,0,1,2.933-.365l6.05,3.849A21.967,21.967,0,0,1,47.808,8.8l1.466-6.966A2.179,2.179,0,0,1,51.474,0h5.5a2.179,2.179,0,0,1,2.2,1.833L60.64,8.8a21.952,21.952,0,0,1,4.766,2.018l6.052-3.849a2.519,2.519,0,0,1,2.933.365l4.033,3.851a2.489,2.489,0,0,1,.367,2.931l-3.851,6.05a21.873,21.873,0,0,1,2.017,4.768L83.922,26.4a2.179,2.179,0,0,1,1.835,2.2v5.5a2.179,2.179,0,0,1-1.835,2.2l-6.966,1.467a21.9,21.9,0,0,1-2.017,4.766l3.851,6.05a2.528,2.528,0,0,1-.367,2.935L74.39,55.367a2.489,2.489,0,0,1-2.933.365l-6.052-3.849A21.947,21.947,0,0,1,60.64,53.9l-1.466,6.966a2.176,2.176,0,0,1-2.2,1.833" transform="translate(22.958 0)" fill="#4e8ae1"/><path d="M46.832,32.925a18.209,18.209,0,0,1-3.117-.365,2.319,2.319,0,0,1,1.467-4.4,5.693,5.693,0,0,0,1.833.182,6.232,6.232,0,1,0,0-12.465,5.838,5.838,0,0,0-5.5,3.484A2.337,2.337,0,0,1,37.3,17.344a10.82,10.82,0,0,1,20.533,4.766,10.994,10.994,0,0,1-11,10.816" transform="translate(30.348 9.241)" fill="#4e8ae1"/><path d="M32.861,17.168A20.716,20.716,0,1,0,53.576,37.885,20.695,20.695,0,0,0,32.861,17.168m0,45.832A25.3,25.3,0,1,1,57.976,37.885,25.349,25.349,0,0,1,32.861,63" transform="translate(6.188 10.149)" fill="#4e8ae1"/><path d="M14.932,36.384a2.307,2.307,0,0,1-.916-4.4L23.182,27.4A2.263,2.263,0,0,1,26.3,28.5l1.284,2.382L41.514,23a2.3,2.3,0,0,1,2.2,4.033L27.582,36.2a2.166,2.166,0,0,1-1.833.184,2.848,2.848,0,0,1-1.467-1.1L23,32.716,15.848,36.2a1.986,1.986,0,0,1-.916.184" transform="translate(10.367 18.616)" fill="#4e8ae1"/><path d="M6.682,64.244H38.214V62.409c-.365-.547-.916-.916-1.282-1.466a20.362,20.362,0,0,0-28.967,0,10.54,10.54,0,0,0-1.284,1.466Zm33.732,4.584H4.3a2.428,2.428,0,0,1-2.382-2.384V61.493a2.434,2.434,0,0,1,.549-1.466,28.442,28.442,0,0,1,2.2-2.384A24.8,24.8,0,0,1,22.449,50.31a25.123,25.123,0,0,1,17.784,7.333c.733.735,1.466,1.649,2.2,2.384a2.08,2.08,0,0,1,.551,1.466v4.951a2.74,2.74,0,0,1-2.568,2.384" transform="translate(1.568 41.172)" fill="#4e8ae1"/><path d="M39.049,83.1a35.918,35.918,0,0,1-6.233-.549,2.347,2.347,0,0,1-2.017-2.2A2.4,2.4,0,0,1,33,77.971h.367a27.817,27.817,0,0,0,5.5.365,32.865,32.865,0,0,0,14.483-3.3A35.1,35.1,0,0,0,70.031,58.354a13.845,13.845,0,0,0,1.1-2.933,35.841,35.841,0,0,0,2.017-11.734,37.028,37.028,0,0,0-.916-7.883A35.549,35.549,0,0,0,67.465,24.62,34.23,34.23,0,0,0,52.249,11.971,33.643,33.643,0,0,0,38.866,9.222a34.239,34.239,0,0,0-19.8,62.332c.184,0,.184.184.367.184a2.322,2.322,0,0,1,.733,1.651,2.427,2.427,0,0,1-2.384,2.382A2.64,2.64,0,0,1,16.5,75.4,39.355,39.355,0,0,1,0,43.5,38.99,38.99,0,0,1,54.265,7.755,38.5,38.5,0,0,1,71.5,22.054,39.054,39.054,0,0,1,77,34.7a36.552,36.552,0,0,1,1.1,8.983,35.859,35.859,0,0,1-2.382,13.2c-.367,1.1-.916,2.2-1.284,3.3A39.368,39.368,0,0,1,55.547,79.071a33.288,33.288,0,0,1-16.5,4.033" transform="translate(0 3.796)" fill="#4e8ae1"/><path d="M18.324,44.913a6.36,6.36,0,0,0-4.584,1.833l-.185.182a6.872,6.872,0,0,0,0,9.535,6.646,6.646,0,0,0,9.534,0,7.524,7.524,0,0,0,2.018-5.135,5.855,5.855,0,0,0-2.018-4.4,6.649,6.649,0,0,0-4.764-2.015m0,18.149a11.064,11.064,0,0,1-8.066-3.3,11.507,11.507,0,0,1,0-16.132c.182-.184.182-.184.367-.367a10.939,10.939,0,0,1,7.7-2.933,11.063,11.063,0,0,1,8.064,3.3,11.367,11.367,0,0,1-8.064,19.433" transform="translate(5.693 33.004)" fill="#4e8ae1"/><path d="M57.378,38.743a2.384,2.384,0,1,0,2.382,2.386,2.562,2.562,0,0,0-2.382-2.386m0,9.168a6.967,6.967,0,1,1,6.966-6.968,7.085,7.085,0,0,1-6.966,6.968" transform="translate(41.254 27.805)" fill="#4e8ae1"/><path d="M9.276,4.584A3.483,3.483,0,1,0,12.76,8.066,3.372,3.372,0,0,0,9.276,4.584m0,11.55A8.139,8.139,0,0,1,1.21,8.066,8.138,8.138,0,0,1,9.276,0a8.138,8.138,0,0,1,8.066,8.066,8.139,8.139,0,0,1-8.066,8.068" transform="translate(0.99 0)" fill="#4e8ae1"/></g></svg>