<svg xmlns="http://www.w3.org/2000/svg" xmlns:xlink="http://www.w3.org/1999/xlink" width="82.186" height="80" viewBox="0 0 82.186 80"><defs><clipPath id="a"><rect width="82.186" height="80" fill="none"/></clipPath></defs><g transform="translate(0 0)" clip-path="url(#a)"><path d="M12.291,1.311A3.419,3.419,0,1,1,8.873,4.73a3.419,3.419,0,0,1,3.418-3.419" transform="translate(3.162 0.467)" fill="#fff"/><path d="M53.009,2.521a2.6,2.6,0,1,1-2.6,2.6,2.6,2.6,0,0,1,2.6-2.6" transform="translate(17.964 0.898)" fill="#fff"/><path d="M73.378,11.393H7.737a6.42,6.42,0,0,0-6.426,6.428v7.247H79.942V17.821a6.539,6.539,0,0,0-6.565-6.428" transform="translate(0.467 4.06)" fill="#fff"/><path d="M1.311,21.475v42.8a6.419,6.419,0,0,0,6.426,6.428h65.64a6.42,6.42,0,0,0,6.428-6.428v-42.8Z" transform="translate(0.467 7.653)" fill="#fff"/><path d="M35.142,29.945H32.68a13.859,13.859,0,0,0,0,27.623h2.462A13.892,13.892,0,0,0,47.86,43.62,13.729,13.729,0,0,0,35.142,29.945" transform="translate(7.114 10.671)" fill="#fff"/><path d="M35.087,29.945a13.859,13.859,0,0,0,0,27.623c-8.751-.411-16.682-5.744-21.879-13.949,5.333-7.932,13.128-13.265,21.879-13.675" transform="translate(4.707 10.671)" fill="#b8d0f3"/><path d="M31.154,29.945c8.752.41,16.547,5.743,21.881,13.81-5.2,8.069-13.128,13.4-21.881,13.949a13.858,13.858,0,0,0,12.718-13.81A14.087,14.087,0,0,0,31.154,29.945" transform="translate(11.102 10.671)" fill="#b8d0f3"/><rect width="3.418" height="32.41" transform="translate(73.572 37.743)" fill="#4e8ae1"/><rect width="3.418" height="3.419" transform="translate(73.572 32.547)" fill="#4e8ae1"/><path d="M54.629,15.671a1.732,1.732,0,0,1,.548,1.23,1.489,1.489,0,0,1-.548,1.232,1.737,1.737,0,0,1-1.23.547A1.809,1.809,0,0,1,51.622,16.9a1.485,1.485,0,0,1,.545-1.23,1.74,1.74,0,0,1,1.232-.547,2.043,2.043,0,0,1,1.23.547" transform="translate(18.395 5.389)" fill="#4e8ae1"/><rect width="61.537" height="3.419" transform="translate(10.257 32.547)" fill="#4e8ae1"/><path d="M48.279,29.585a1.733,1.733,0,0,1,.545,1.23,1.332,1.332,0,0,1-.545,1.23,1.736,1.736,0,0,1-1.232.548,1.811,1.811,0,0,1-1.778-1.778,1.483,1.483,0,0,1,.547-1.23,1.736,1.736,0,0,1,1.232-.548,1.334,1.334,0,0,1,1.232.548" transform="translate(16.131 10.347)" fill="#4e8ae1"/><path d="M48.279,48.438a1.734,1.734,0,0,1,.545,1.23,1.485,1.485,0,0,1-.545,1.232,1.735,1.735,0,0,1-1.232.547,1.81,1.81,0,0,1-1.778-1.778,1.485,1.485,0,0,1,.547-1.23,1.661,1.661,0,0,1,2.463,0" transform="translate(16.131 17.066)" fill="#4e8ae1"/><path d="M44.547,4.379a1.738,1.738,0,0,1,.548,1.23,1.489,1.489,0,0,1-.548,1.232,1.74,1.74,0,0,1-1.232.547,1.81,1.81,0,0,1-1.777-1.778,1.487,1.487,0,0,1,.547-1.23,2.043,2.043,0,0,1,1.23-.547,1.334,1.334,0,0,1,1.232.547" transform="translate(14.802 1.366)" fill="#4e8ae1"/><path d="M37.46,41.775A1.969,1.969,0,0,0,36.5,41.5H36.23V40.406H36.5a1.163,1.163,0,0,0,.821-.273.716.716,0,0,0,.274-.548c0-.273-.138-.41-.274-.41-.137-.137-.274-.137-.548-.137a1.024,1.024,0,0,0-.684.137,1.074,1.074,0,0,0-.547.547l-.958-1.095c.138-.136.274-.273.411-.408a1.023,1.023,0,0,1,.547-.275,1.243,1.243,0,0,1,.684-.136h.684a2.343,2.343,0,0,1,.958.136c.274.137.547.137.684.411.137.137.411.273.411.548a1.027,1.027,0,0,1,.136.682.83.83,0,0,1-.136.548c0,.136-.137.273-.274.411l-.41.408c-.137.138-.275.138-.548.138.137,0,.411.136.548.136l.41.411a.709.709,0,0,1,.274.547,5.951,5.951,0,0,1,.136.684,1.745,1.745,0,0,1-.136.821,1.062,1.062,0,0,1-.548.547l-.819.411a2.667,2.667,0,0,1-1.095.137,3.219,3.219,0,0,1-2.325-.821L35,42.868c.136.137.41.274.547.411a1.732,1.732,0,0,0,.821.137c.684,0,1.093-.274,1.093-.822a.6.6,0,0,0,0-.819" transform="translate(12.18 13.473)" fill="#4e8ae1"/><path d="M33.154,1.859a1.729,1.729,0,0,1,.547,1.23,1.483,1.483,0,0,1-.547,1.23,1.729,1.729,0,0,1-1.23.547,1.809,1.809,0,0,1-1.778-1.777,1.485,1.485,0,0,1,.547-1.23,2.037,2.037,0,0,1,1.232-.548,1.331,1.331,0,0,1,1.23.548" transform="translate(10.742 0.467)" fill="#4e8ae1"/><path d="M33.083,40.033l.274-.274a.478.478,0,0,0,.137-.273.5.5,0,0,0-.137-.411c-.137-.136-.274-.136-.547-.136a1.027,1.027,0,0,0-.684.136c-.138.137-.411.274-.548.547l-.958-1.093c.137-.137.273-.273.411-.273a1.028,1.028,0,0,1,.547-.275,1.241,1.241,0,0,1,.684-.136c.273,0,.548-.137.821-.137a2.92,2.92,0,0,1,1.641.41,1.336,1.336,0,0,1,.547,1.232c0,.273,0,.41-.137.547,0,.137-.136.274-.274.41l-.408.411c-.137.137-.275.137-.411.273-.137,0-.273.138-.411.138-.136.136-.273.136-.41.273s-.274.137-.41.274-.137.137-.275.273h2.6v1.369H30.347v-.821c0-.274.138-.411.274-.684.137-.137.273-.411.411-.548s.41-.274.684-.547a2.963,2.963,0,0,0,.684-.411c.411-.136.547-.136.684-.273" transform="translate(10.814 13.437)" fill="#4e8ae1"/><path d="M29.929,37.708v4.1h1.23v1.367h-4.1V41.811h1.369V39.349c0,.137-.137.137-.274.273s-.274.137-.41.274c-.138,0-.274.137-.411.137h-.411V38.664a.505.505,0,0,0,.411-.136c.137-.137.273-.137.547-.273.137-.138.274-.138.411-.275s.273-.136.273-.273Z" transform="translate(9.592 13.437)" fill="#4e8ae1"/><path d="M24.944,43.351a1.979,1.979,0,0,1-.958-.274c-.273-.137-.547-.411-.819-.547a2.211,2.211,0,0,1-.548-.958,3.034,3.034,0,0,1-.136-1.095,2.682,2.682,0,0,1,.136-1.093,2.2,2.2,0,0,1,.548-.958,2.821,2.821,0,0,1,.819-.547,2.533,2.533,0,0,1,.958-.274,1.974,1.974,0,0,1,.958.274c.274.136.548.411.821.547a2.188,2.188,0,0,1,.547.958,3,3,0,0,1,.137,1.093,2.664,2.664,0,0,1-.137,1.095,2.2,2.2,0,0,1-.547.958,2.864,2.864,0,0,1-.821.547,1.974,1.974,0,0,1-.958.274m.958-2.873a2.568,2.568,0,0,0-.274-1.093.775.775,0,0,0-1.367,0,2.321,2.321,0,0,0,0,2.188.775.775,0,0,0,1.367,0,1.473,1.473,0,0,0,.274-1.095" transform="translate(8.012 13.401)" fill="#4e8ae1"/><path d="M23.072,5.589a1.729,1.729,0,0,1,.547,1.23,1.487,1.487,0,0,1-.547,1.232,1.734,1.734,0,0,1-1.23.547,1.81,1.81,0,0,1-1.778-1.778,1.485,1.485,0,0,1,.547-1.23,1.73,1.73,0,0,1,1.232-.547,2.557,2.557,0,0,1,1.23.547" transform="translate(7.15 1.797)" fill="#4e8ae1"/><rect width="3.418" height="3.419" transform="translate(18.872 20.649)" fill="#4e8ae1"/><path d="M15.51,29.585a1.73,1.73,0,0,1,.548,1.23,1.331,1.331,0,0,1-.548,1.23,1.73,1.73,0,0,1-1.23.548A1.81,1.81,0,0,1,12.5,30.815a1.481,1.481,0,0,1,.548-1.23,1.73,1.73,0,0,1,1.23-.548,1.331,1.331,0,0,1,1.23.548" transform="translate(4.455 10.347)" fill="#4e8ae1"/><rect width="3.418" height="3.419" transform="translate(13.676 20.649)" fill="#4e8ae1"/><rect width="3.419" height="3.419" transform="translate(8.616 20.649)" fill="#4e8ae1"/><rect width="3.418" height="32.41" transform="translate(5.198 37.743)" fill="#4e8ae1"/><rect width="3.418" height="3.419" transform="translate(5.198 32.547)" fill="#4e8ae1"/><path d="M80.41,23.72H1.778a1.777,1.777,0,1,1,0-3.555H80.41a1.809,1.809,0,0,1,1.777,1.777A1.911,1.911,0,0,1,80.41,23.72" transform="translate(0 7.186)" fill="#4e8ae1"/><path d="M58.651,18.679H24.463a1.777,1.777,0,1,1,0-3.555H58.651A1.81,1.81,0,0,1,60.428,16.9a1.911,1.911,0,0,1-1.777,1.778" transform="translate(8.084 5.389)" fill="#4e8ae1"/><path d="M8.2,13.638a4.845,4.845,0,0,0-4.785,4.787V68.338A4.845,4.845,0,0,0,8.2,73.125h65.64a4.845,4.845,0,0,0,4.787-4.787V18.288A4.846,4.846,0,0,0,73.845,13.5Zm65.64,62.769H8.2A8.23,8.23,0,0,1,0,68.2V18.288a8.229,8.229,0,0,1,8.2-8.2h65.64a8.23,8.23,0,0,1,8.206,8.2V68.2a8.231,8.231,0,0,1-8.206,8.206" transform="translate(0 3.593)" fill="#4e8ae1"/><path d="M12.758,3.556a1.809,1.809,0,0,0-1.777,1.777,1.777,1.777,0,1,0,3.555,0,1.9,1.9,0,0,0-1.778-1.777m0,6.837A5.2,5.2,0,0,1,12.758,0a5.081,5.081,0,0,1,5.061,5.2,5.167,5.167,0,0,1-5.061,5.2" transform="translate(2.695 0)" fill="#4e8ae1"/><path d="M53.441,4.694a.881.881,0,0,0-.821.821.821.821,0,1,0,1.641,0,.882.882,0,0,0-.821-.821m0,5.2a4.239,4.239,0,1,1,4.24-4.24,4.261,4.261,0,0,1-4.24,4.24" transform="translate(17.533 0.503)" fill="#4e8ae1"/><path d="M34.343,32.044H33.248a12.211,12.211,0,0,0,0,24.341H35.3a12.211,12.211,0,0,0,0-24.341Zm0,27.9H32.976A15.467,15.467,0,0,1,18.753,44.352a16.243,16.243,0,0,1,4.1-10.668,15.221,15.221,0,0,1,10.12-4.922,9.135,9.135,0,0,1,2.734,0,15.464,15.464,0,0,1,14.223,15.59,16.243,16.243,0,0,1-4.1,10.665A15.217,15.217,0,0,1,35.71,59.94Z" transform="translate(6.683 10.213)" fill="#4e8ae1"/><path d="M15.7,44.325c5.061,7.384,12.307,11.76,19.965,12.169h2.188c7.659-.41,14.769-4.785,19.965-12.169C52.758,36.94,45.511,32.564,37.989,32.153H35.8c-7.8.274-14.908,4.787-20.1,12.172m21.06,15.588H35.527c-9.025-.41-17.5-5.743-23.246-14.632a1.636,1.636,0,0,1,0-1.914C18.024,34.478,26.5,29.145,35.527,28.735h2.6c9.026.41,17.505,5.743,23.248,14.632a1.64,1.64,0,0,1,0,1.914C55.631,54.171,47.153,59.5,38.126,59.913Z" transform="translate(4.266 10.24)" fill="#4e8ae1"/></g></svg>