<svg xmlns="http://www.w3.org/2000/svg" xmlns:xlink="http://www.w3.org/1999/xlink" width="96.133" height="110" viewBox="0 0 96.133 110"><defs><clipPath id="a"><rect width="96.133" height="110" fill="none"/></clipPath></defs><g transform="translate(0 0)"><g transform="translate(0 0)" clip-path="url(#a)"><path d="M92.657,53.428v16.49H14.141A12.956,12.956,0,0,1,1.21,56.99a13.548,13.548,0,0,1,3.747-9.182,13.2,13.2,0,0,1,9.184-3.749H92.657Z" transform="translate(1.039 37.832)" fill="#fff"/><path d="M74.273,35.187a8.317,8.317,0,0,1,8.245,8.245,8.314,8.314,0,0,1-8.245,8.245H7.561V35.187H74.273Z" transform="translate(6.492 30.214)" fill="#b8d0f3"/><path d="M49.426,22.584V46.009H37.808V22.584Z" transform="translate(32.464 19.393)" fill="#b8d0f3"/><path d="M61.615,22.584V46.008H21.7a11.713,11.713,0,1,1,.188-23.424H61.615Z" transform="translate(8.657 19.392)" fill="#b8d0f3"/><path d="M33.848,10.1c.186-.188.186-.561.375-.749a9.533,9.533,0,0,1,8.057-4.31c17.99,0,6,32.418-3.749,32.418a8.193,8.193,0,0,1-4.308-1.124h-.375a11.286,11.286,0,0,1-4.31,1.124c-9.933,0-21.739-32.418-3.749-32.418A9.572,9.572,0,0,1,33.848,10.1" transform="translate(14.125 4.329)" fill="#b8d0f3"/><path d="M93.7,73.381H15.18A15.117,15.117,0,0,1,0,58.2,14.3,14.3,0,0,1,4.5,47.519a15.361,15.361,0,0,1,10.682-4.5,2.436,2.436,0,0,1,0,4.872,11.146,11.146,0,0,0-7.5,3,10.322,10.322,0,0,0-3,7.5A10.475,10.475,0,0,0,15.18,68.883h76.08V47.519H80.765a2.436,2.436,0,0,1,0-4.872H93.7a2.481,2.481,0,0,1,2.437,2.437V70.944A2.781,2.781,0,0,1,93.7,73.381" transform="translate(0 36.62)" fill="#4e8ae1"/><path d="M74.359,49.4H73.234A2.481,2.481,0,0,1,70.8,46.96,2.539,2.539,0,0,1,71.922,44.9V25.974h-49.1a9.277,9.277,0,0,0-9.369,9.369,8.789,8.789,0,0,0,2.81,6.557,9.55,9.55,0,0,0,6.559,2.812,2.436,2.436,0,0,1,0,4.871,14.054,14.054,0,1,1,0-28.108H74.359a2.479,2.479,0,0,1,2.435,2.435V46.96A2.479,2.479,0,0,1,74.359,49.4" transform="translate(7.531 18.441)" fill="#4e8ae1"/><path d="M75.4,55.051H8.686a2.48,2.48,0,0,1-2.435-2.435v-16.3a2.479,2.479,0,0,1,2.435-2.435H75.4A10.477,10.477,0,0,1,85.892,44.371a11.146,11.146,0,0,1-3,7.5,10.515,10.515,0,0,1-7.5,3.184M10.935,50.367H75.4a5.809,5.809,0,0,0,0-11.618H10.935Z" transform="translate(5.367 29.089)" fill="#4e8ae1"/><path d="M86.164,56.393H11.207a2.437,2.437,0,0,1,0-4.873H86.164A2.481,2.481,0,0,1,88.6,53.957a2.781,2.781,0,0,1-2.437,2.437" transform="translate(7.532 44.238)" fill="#4e8ae1"/><path d="M86.164,52.561H11.207a2.436,2.436,0,0,1,0-4.872H86.164A2.481,2.481,0,0,1,88.6,50.124a2.779,2.779,0,0,1-2.437,2.437" transform="translate(7.532 40.949)" fill="#4e8ae1"/><path d="M38.934,49.57A2.481,2.481,0,0,1,36.5,47.133V23.711a2.437,2.437,0,1,1,4.873,0V47.133a2.781,2.781,0,0,1-2.437,2.437" transform="translate(31.338 18.267)" fill="#4e8ae1"/><path d="M39.585,41.037a12.036,12.036,0,0,1-4.5-.939,12.873,12.873,0,0,1-4.5.939c-3.747,0-7.684-3.186-10.869-8.622a33.519,33.519,0,0,1-4.5-15.741,14.452,14.452,0,0,1,2.623-8.806c1.5-1.875,4.122-3.935,9-3.935A12.582,12.582,0,0,1,35.275,7.3a11.746,11.746,0,0,1,8.431-3.372c4.873,0,7.684,2.059,9,3.935a14.078,14.078,0,0,1,2.623,8.806,33.519,33.519,0,0,1-4.5,15.741c-3.561,5.437-7.5,8.622-11.243,8.622m-4.873-5.81h.375a2.377,2.377,0,0,1,1.124.188,7.362,7.362,0,0,0,3.373.749c4.121,0,10.68-10.869,10.68-19.863a8.943,8.943,0,0,0-1.686-5.81c-1.124-1.5-2.81-2.059-5.247-2.059a6.981,6.981,0,0,0-6,3.184c-.188.188-.188.375-.375.563a2.275,2.275,0,0,1-4.122,0,7.483,7.483,0,0,0-6.371-3.747A6.5,6.5,0,0,0,21.22,10.49a8.943,8.943,0,0,0-1.688,5.81c0,8.994,6.559,19.863,10.682,19.863a10.979,10.979,0,0,0,3.373-.749,2.374,2.374,0,0,1,1.124-.188" transform="translate(13.072 3.378)" fill="#4e8ae1"/><path d="M27.474,16.116a2.226,2.226,0,0,1-2.249-1.874v-.188C22.79,3.749,27.474.375,28.037,0l2.435,3.935s-2.435,2.063-.749,9a2.357,2.357,0,0,1-1.686,2.81c-.188.375-.375.375-.563.375" transform="translate(21.061 0.001)" fill="#4e8ae1"/><path d="M28.8,25.388a2.307,2.307,0,0,1-1.874-.937,2.183,2.183,0,0,1,.561-3.186c2.812-1.874,3.749-5.622,3.749-5.622a2.317,2.317,0,1,1,4.5,1.124A16.6,16.6,0,0,1,30.112,25.2c-.375,0-.751.186-1.312.186" transform="translate(22.733 11.902)" fill="#4e8ae1"/></g></g></svg>