<svg xmlns="http://www.w3.org/2000/svg" xmlns:xlink="http://www.w3.org/1999/xlink" width="112.241" height="110" viewBox="0 0 112.241 110"><defs><clipPath id="a"><rect width="112.241" height="110" fill="none"/></clipPath></defs><g transform="translate(0 0)"><g transform="translate(0 0.001)" clip-path="url(#a)"><path d="M83.792,66.331V15.719a8.09,8.09,0,0,0-8.031-8.031h-8.4a7.094,7.094,0,0,1-7.1,7.1h-25.4a7.214,7.214,0,0,1-5.042-2.055,6.9,6.9,0,0,1-2.055-5.042h-8.4a8.09,8.09,0,0,0-8.031,8.031V93.224a8.09,8.09,0,0,0,8.031,8.031H75.948a7.92,7.92,0,0,0,7.844-7.285,14.037,14.037,0,0,1,0-27.639" transform="translate(9.587 6.505)" fill="#b8d0f3"/><path d="M22.371,38.036A4.669,4.669,0,1,1,17.7,42.705a4.67,4.67,0,0,1,4.669-4.669" transform="translate(14.979 32.185)" fill="#fff"/><path d="M22.371,27.92A4.669,4.669,0,1,1,17.7,32.589a4.67,4.67,0,0,1,4.669-4.669" transform="translate(14.979 23.625)" fill="#fff"/><path d="M22.371,17.8A4.669,4.669,0,1,1,17.7,22.473,4.67,4.67,0,0,1,22.371,17.8" transform="translate(14.979 15.065)" fill="#fff"/><path d="M55.885,67.177a14.018,14.018,0,0,1,.188-27.639,9.859,9.859,0,0,1,2.426-.186,14.007,14.007,0,1,1,0,28.014c-1.121,0-1.868-.188-2.614-.188" transform="translate(37.493 33.298)" fill="#fff"/><path d="M5.984,41.88a4.669,4.669,0,1,1-4.669,4.669A4.67,4.67,0,0,1,5.984,41.88" transform="translate(1.113 35.438)" fill="#fff"/><path d="M57.87,5.159a3.548,3.548,0,1,1-3.548,3.548A3.547,3.547,0,0,1,57.87,5.159" transform="translate(45.967 4.365)" fill="#fff"/><path d="M33.094,1.417a4.669,4.669,0,1,1-4.669,4.669,4.67,4.67,0,0,1,4.669-4.669" transform="translate(24.053 1.198)" fill="#fff"/><path d="M58.432,19.766a2.365,2.365,0,0,1,.746,1.68,1.824,1.824,0,0,1-.746,1.682,2.787,2.787,0,0,1-1.682.746,2.472,2.472,0,0,1-2.428-2.428,2.022,2.022,0,0,1,.748-1.68,2.263,2.263,0,0,1,3.362,0" transform="translate(45.967 16.092)" fill="#4e8ae1"/><path d="M57.956,6a6.891,6.891,0,0,1,2.055,5.042,7.093,7.093,0,0,1-7.095,7.1H27.328a7.214,7.214,0,0,1-5.042-2.055,6.9,6.9,0,0,1-2.055-5.042,7.094,7.094,0,0,1,7.1-7.1h8.217a4.669,4.669,0,0,0,9.338,0H53.1A7.118,7.118,0,0,1,57.956,6" transform="translate(17.119 3.337)" fill="#fff"/><path d="M14.124,3.377a2.373,2.373,0,0,1,.746,1.682,1.821,1.821,0,0,1-.746,1.68,2.789,2.789,0,0,1-1.682.748,2.472,2.472,0,0,1-2.428-2.428,2.028,2.028,0,0,1,.748-1.682,2.267,2.267,0,0,1,3.362,0" transform="translate(8.474 2.225)" fill="#4e8ae1"/><path d="M9.066,18.551a2.374,2.374,0,0,1,.748,1.682,1.818,1.818,0,0,1-.748,1.68,2.784,2.784,0,0,1-1.68.748,2.474,2.474,0,0,1-2.43-2.428,2.03,2.03,0,0,1,.75-1.682,2.368,2.368,0,0,1,1.68-.746,2.368,2.368,0,0,1,1.68.746" transform="translate(4.194 15.066)" fill="#4e8ae1"/><path d="M9.066,52.642a2.369,2.369,0,0,1,.748,1.68A1.821,1.821,0,0,1,9.066,56a2.784,2.784,0,0,1-1.68.748,2.474,2.474,0,0,1-2.43-2.43,2.026,2.026,0,0,1,.75-1.68,2.779,2.779,0,0,1,1.68-.748,2.369,2.369,0,0,1,1.68.748" transform="translate(4.194 43.912)" fill="#4e8ae1"/><path d="M53.942,21.306H28.356a8.755,8.755,0,0,1-6.536-2.8,9.86,9.86,0,0,1-2.8-6.536A9.248,9.248,0,0,1,28.356,2.63h8.217A2.472,2.472,0,0,1,39,5.058a2.472,2.472,0,0,1-2.428,2.428H28.356a4.624,4.624,0,0,0-4.669,4.669,5.367,5.367,0,0,0,1.307,3.362,4.5,4.5,0,0,0,3.362,1.307H54.127A4.624,4.624,0,0,0,58.8,12.155a5.378,5.378,0,0,0-1.307-3.362,4.5,4.5,0,0,0-3.362-1.307H45.908a2.469,2.469,0,0,1-2.424-2.428A2.469,2.469,0,0,1,45.908,2.63h8.219a8.767,8.767,0,0,1,6.537,2.8,9.518,9.518,0,0,1,2.8,6.537,9.525,9.525,0,0,1-9.523,9.338" transform="translate(16.093 2.225)" fill="#4e8ae1"/><path d="M34.207,14.194a7.1,7.1,0,1,1,7.1-7.1,7.094,7.094,0,0,1-7.1,7.1m0-9.338a2.474,2.474,0,0,0-2.43,2.428,2.429,2.429,0,0,0,4.857,0,2.472,2.472,0,0,0-2.428-2.428" transform="translate(22.94 -0.001)" fill="#4e8ae1"/><path d="M76.975,104.523H20.389A10.364,10.364,0,0,1,10.115,94.251v-77.5A10.364,10.364,0,0,1,20.389,6.475h8.4A2.474,2.474,0,0,1,31.221,8.9a2.474,2.474,0,0,1-2.43,2.428h-8.4a5.5,5.5,0,0,0-5.605,5.6V94.439a5.5,5.5,0,0,0,5.605,5.6H76.975A5.661,5.661,0,0,0,82.578,95a2.386,2.386,0,0,1,2.241-2.053,2.444,2.444,0,0,1,2.428,2.239v.188a10.468,10.468,0,0,1-10.272,9.15" transform="translate(8.559 5.478)" fill="#4e8ae1"/><path d="M59.225,69.685a2.447,2.447,0,0,1-2.43-2.241V16.832a5.5,5.5,0,0,0-5.6-5.6h-8.4A2.472,2.472,0,0,1,40.362,8.8,2.472,2.472,0,0,1,42.79,6.373h8.4A10.364,10.364,0,0,1,61.466,16.645V67.257a2.12,2.12,0,0,1-2.241,2.428" transform="translate(34.154 5.392)" fill="#4e8ae1"/><path d="M23.484,30.683a7.1,7.1,0,1,1,7.1-7.1,7.094,7.094,0,0,1-7.1,7.1m0-9.338a2.428,2.428,0,1,0,2.428,2.428,2.472,2.472,0,0,0-2.428-2.428" transform="translate(13.867 13.952)" fill="#4e8ae1"/><path d="M40.7,22.558H28.932a2.428,2.428,0,1,1,0-4.855H40.7a2.472,2.472,0,0,1,2.428,2.428A2.6,2.6,0,0,1,40.7,22.558" transform="translate(22.426 14.979)" fill="#4e8ae1"/><path d="M56.945,26.4H28.931a2.428,2.428,0,1,1,0-4.855H56.945a2.428,2.428,0,1,1,0,4.855" transform="translate(22.427 18.232)" fill="#4e8ae1"/><path d="M23.484,40.8a7.1,7.1,0,1,1,7.1-7.1,7.094,7.094,0,0,1-7.1,7.1m0-9.338a2.428,2.428,0,1,0,2.428,2.428,2.472,2.472,0,0,0-2.428-2.428" transform="translate(13.867 22.512)" fill="#4e8ae1"/><path d="M40.7,32.674H28.932a2.428,2.428,0,1,1,0-4.855H40.7a2.472,2.472,0,0,1,2.428,2.428A2.6,2.6,0,0,1,40.7,32.674" transform="translate(22.426 23.539)" fill="#4e8ae1"/><path d="M56.945,36.518H28.931a2.428,2.428,0,1,1,0-4.855H56.945a2.428,2.428,0,1,1,0,4.855" transform="translate(22.427 26.792)" fill="#4e8ae1"/><path d="M23.484,50.915a7.1,7.1,0,1,1,7.1-7.1,7.094,7.094,0,0,1-7.1,7.1m0-9.338A2.428,2.428,0,1,0,25.912,44a2.472,2.472,0,0,0-2.428-2.428" transform="translate(13.867 31.072)" fill="#4e8ae1"/><path d="M40.7,42.79H28.932a2.428,2.428,0,1,1,0-4.855H40.7a2.472,2.472,0,0,1,2.428,2.428A2.611,2.611,0,0,1,40.7,42.79" transform="translate(22.426 32.099)" fill="#4e8ae1"/><path d="M52.276,46.634H28.931a2.428,2.428,0,1,1,0-4.855H52.276a2.428,2.428,0,1,1,0,4.855" transform="translate(22.427 35.352)" fill="#4e8ae1"/><path d="M59.428,70.634a14.187,14.187,0,0,1-2.8-.186,16.279,16.279,0,0,1,0-32.124,14.188,14.188,0,0,1,2.8-.186A16.456,16.456,0,0,1,75.859,54.572,16.14,16.14,0,0,1,59.428,70.634m0-28.014a5.783,5.783,0,0,0-1.87.186,11.66,11.66,0,0,0-9.713,11.579,11.807,11.807,0,0,0,9.713,11.579,7.023,7.023,0,0,0,2.055.186A11.837,11.837,0,0,0,71.378,54.385,12,12,0,0,0,59.428,42.62" transform="translate(36.38 32.27)" fill="#4e8ae1"/><path d="M52.907,56.612h0a2.281,2.281,0,0,1-1.68-.746L47.865,52.69a2.377,2.377,0,0,1,3.362-3.362l1.68,1.68,5.976-5.974a2.377,2.377,0,0,1,3.364,3.36l-7.658,7.658a3.019,3.019,0,0,1-1.682.559" transform="translate(39.91 37.514)" fill="#4e8ae1"/><path d="M7.1,54.658a7.1,7.1,0,1,1,7.1-7.1,7.217,7.217,0,0,1-7.1,7.1m0-9.338a2.428,2.428,0,1,0,0,4.855,2.472,2.472,0,0,0,2.428-2.428A2.772,2.772,0,0,0,7.1,45.319" transform="translate(0 34.24)" fill="#4e8ae1"/><path d="M58.9,15.524a5.79,5.79,0,1,1,5.79-5.79,5.818,5.818,0,0,1-5.79,5.79m0-6.91a1.205,1.205,0,0,0-1.121,1.121,1.12,1.12,0,1,0,2.239,0A1.076,1.076,0,0,0,58.9,8.614" transform="translate(44.94 3.337)" fill="#4e8ae1"/></g></g></svg>