<svg xmlns="http://www.w3.org/2000/svg" xmlns:xlink="http://www.w3.org/1999/xlink" width="79.065" height="80" viewBox="0 0 79.065 80"><defs><clipPath id="a"><rect width="79.065" height="80" fill="none"/></clipPath></defs><g transform="translate(0 0)" clip-path="url(#a)"><path d="M53.875,26.785a27.986,27.986,0,0,0-3.733-8.667A26.556,26.556,0,0,0,38.276,8.385,26.622,26.622,0,0,0,1.209,32.918,26.951,26.951,0,0,0,12.542,54.785a6.65,6.65,0,0,1,9.2.266,6.213,6.213,0,0,1,1.867,4.266,22.024,22.024,0,0,0,4.266.4A26.856,26.856,0,0,0,52.142,44.251a11.582,11.582,0,0,0,.934-2.267,25.456,25.456,0,0,0,1.6-9.067,23.47,23.47,0,0,0-.8-6.133" transform="translate(0.39 2.016)" fill="#fff"/><path d="M67.9,20.411v4l-6,1.333a16.022,16.022,0,0,1-2,4.934l3.333,5.2-2.933,2.8-5.2-3.335a16.017,16.017,0,0,1-4.933,2l-1.333,6h-4.8a25.451,25.451,0,0,0,1.6-9.067,30.909,30.909,0,0,0-.667-6.133H45.1a7.806,7.806,0,0,0,1.734.267,6.116,6.116,0,0,0,6.133-6.134,6.232,6.232,0,0,0-6.133-6.266,6.464,6.464,0,0,0-5.6,3.466H41.1A26.55,26.55,0,0,0,29.238,9.744L33.1,5.877l5.2,3.333a15.966,15.966,0,0,1,4.933-2l1.333-6h4l1.333,6a15.987,15.987,0,0,1,4.934,2l5.2-3.333,2.8,2.8-3.334,5.2a14.757,14.757,0,0,1,2,4.933Z" transform="translate(9.428 0.39)" fill="#b8d0f3"/><path d="M29.492,58.02v3.6H3.226v-3.6a16.261,16.261,0,0,1,1.467-1.6,16.746,16.746,0,0,1,23.467,0c.4.534.934,1.067,1.333,1.6" transform="translate(1.04 16.645)" fill="#b8d0f3"/><path d="M10.275,43.37a6.65,6.65,0,0,1,9.2.266A6.213,6.213,0,0,1,21.342,47.9a6.7,6.7,0,0,1-1.867,5.066,6.442,6.442,0,0,1-9.332,0,6.679,6.679,0,0,1,0-9.332.462.462,0,0,1,.132-.266" transform="translate(2.658 13.43)" fill="#b8d0f3"/><path d="M6.654,1.311A4.133,4.133,0,1,1,2.521,5.444,4.132,4.132,0,0,1,6.654,1.311" transform="translate(0.813 0.423)" fill="#fff"/><path d="M55.055,35.288a3.333,3.333,0,1,1-3.334,3.333,3.333,3.333,0,0,1,3.334-3.333" transform="translate(16.677 11.378)" fill="#fff"/><path d="M55.257,58.465A1.733,1.733,0,1,0,53.525,60.2a1.865,1.865,0,0,0,1.732-1.735M58.191,53.8a6.7,6.7,0,0,1,2,4.666,6.47,6.47,0,0,1-2,4.667,6.6,6.6,0,0,1-9.466,0L35.791,50.2l9.466-9.467Z" transform="translate(11.541 13.134)" fill="#b8d0f3"/><path d="M37.677,52.085l-1.732,1.734-5.868-5.868-.134-.132A27.077,27.077,0,0,0,42.877,34.884l.134.135,5.866,5.865-1.734,1.734Z" transform="translate(9.655 11.248)" fill="#b8d0f3"/><path d="M25.539,13.813A16.666,16.666,0,1,1,8.872,30.48,16.666,16.666,0,0,1,25.539,13.813" transform="translate(2.861 4.454)" fill="#fff"/><path d="M58.362,10.183a1.6,1.6,0,1,1-1.6,1.6,1.6,1.6,0,0,1,1.6-1.6" transform="translate(18.303 3.283)" fill="#4e8ae1"/><path d="M55.841,44.161a1.6,1.6,0,1,1-1.6,1.6,1.6,1.6,0,0,1,1.6-1.6" transform="translate(17.49 14.239)" fill="#4e8ae1"/><path d="M49.591,1.311a1.6,1.6,0,1,1-1.6,1.6,1.6,1.6,0,0,1,1.6-1.6" transform="translate(15.474 0.423)" fill="#4e8ae1"/><path d="M34.467,55.553a1.6,1.6,0,1,1-1.6,1.6,1.6,1.6,0,0,1,1.6-1.6" transform="translate(10.598 17.913)" fill="#4e8ae1"/><path d="M28.116,49.2a1.6,1.6,0,1,1-1.6,1.6,1.6,1.6,0,0,1,1.6-1.6" transform="translate(8.55 15.865)" fill="#4e8ae1"/><rect width="3.334" height="3.335" transform="translate(33.332 41.732)" fill="#4e8ae1"/><rect width="3.334" height="3.335" transform="translate(28.4 41.732)" fill="#4e8ae1"/><rect width="3.334" height="3.334" transform="translate(28.4 28.4)" fill="#4e8ae1"/><rect width="3.334" height="3.335" transform="translate(23.332 41.732)" fill="#4e8ae1"/><rect width="3.334" height="3.334" transform="translate(23.332 28.4)" fill="#4e8ae1"/><rect width="3.334" height="3.334" transform="translate(18.399 28.4)" fill="#4e8ae1"/><path d="M12.992,1.311a1.6,1.6,0,1,1-1.6,1.6,1.6,1.6,0,0,1,1.6-1.6" transform="translate(3.673 0.423)" fill="#4e8ae1"/><path d="M2.91,42.951a1.6,1.6,0,1,1-1.6,1.6,1.6,1.6,0,0,1,1.6-1.6" transform="translate(0.422 13.849)" fill="#4e8ae1"/><path d="M53.907,67.18a8.273,8.273,0,0,1-5.868-2.4L35.106,51.846a1.7,1.7,0,0,1,2.4-2.4L50.439,62.379a5,5,0,0,0,8.534-3.6,5.4,5.4,0,0,0-1.467-3.6L44.573,42.246a1.7,1.7,0,0,1,2.4-2.4L59.905,52.778a8.054,8.054,0,0,1,2.4,5.868,8.612,8.612,0,0,1-2.4,5.866,8.023,8.023,0,0,1-6,2.667" transform="translate(11.159 12.687)" fill="#4e8ae1"/><path d="M36.326,55.933a1.627,1.627,0,0,1-1.2-.533l-5.866-5.868a1.7,1.7,0,1,1,2.4-2.4L36.326,51.8l.533-.533,10-10L42.192,36.6a1.7,1.7,0,1,1,2.4-2.4l5.868,5.865a2,2,0,0,1,.533,1.2,1.63,1.63,0,0,1-.533,1.2L37.392,55.4a1.211,1.211,0,0,1-1.066.533" transform="translate(9.273 10.866)" fill="#4e8ae1"/><path d="M50.014,51.622a3.333,3.333,0,1,1-3.334,3.331,3.333,3.333,0,0,1,3.334-3.331" transform="translate(15.052 16.645)" fill="#4e8ae1"/><path d="M49.086,45.6h-4.8a1.733,1.733,0,0,1,0-3.466h3.466l1.067-4.8a1.576,1.576,0,0,1,1.2-1.2,12.93,12.93,0,0,0,4.4-1.866,1.4,1.4,0,0,1,1.732,0l4.134,2.666L61.219,36l-2.666-4.133a1.4,1.4,0,0,1,0-1.734,16.183,16.183,0,0,0,1.866-4.4,1.58,1.58,0,0,1,1.2-1.2l4.8-1.066V22.134l-4.8-1.067a1.576,1.576,0,0,1-1.2-1.2,12.882,12.882,0,0,0-1.866-4.4,1.4,1.4,0,0,1,0-1.734L61.219,9.6l-.932-.932-4.134,2.666a1.4,1.4,0,0,1-1.732,0,16.192,16.192,0,0,0-4.4-1.866,1.576,1.576,0,0,1-1.2-1.2l-1.067-4.8H46.419l-1.066,4.8a1.58,1.58,0,0,1-1.2,1.2,12.919,12.919,0,0,0-4.4,1.866,1.4,1.4,0,0,1-1.734,0L33.886,8.667,30.953,11.6a1.7,1.7,0,0,1-2.4-2.4L32.42,5.333a1.808,1.808,0,0,1,2.133-.266l4.4,2.8A15.976,15.976,0,0,1,42.42,6.4l1.066-5.066A1.585,1.585,0,0,1,45.086,0h4a1.585,1.585,0,0,1,1.6,1.333L51.753,6.4a15.965,15.965,0,0,1,3.466,1.468l4.4-2.8a1.832,1.832,0,0,1,2.133.266l2.933,2.8a1.81,1.81,0,0,1,.267,2.132l-2.8,4.4a15.907,15.907,0,0,1,1.467,3.467L68.685,19.2a1.585,1.585,0,0,1,1.334,1.6v4a1.585,1.585,0,0,1-1.334,1.6l-5.066,1.067a15.924,15.924,0,0,1-1.467,3.466l2.8,4.4a1.839,1.839,0,0,1-.267,2.134l-2.933,2.8a1.81,1.81,0,0,1-2.133.266l-4.4-2.8A15.961,15.961,0,0,1,51.753,39.2l-1.066,5.066a1.583,1.583,0,0,1-1.6,1.333" transform="translate(9.046 0)" fill="#4e8ae1"/><path d="M44.174,27.025a13.243,13.243,0,0,1-2.267-.266,1.687,1.687,0,0,1,1.067-3.2,4.14,4.14,0,0,0,1.333.132,4.533,4.533,0,1,0,0-9.065,4.246,4.246,0,0,0-4,2.534,1.7,1.7,0,0,1-3.067-1.467,7.869,7.869,0,0,1,14.933,3.466,8,8,0,0,1-8,7.866" transform="translate(11.958 3.641)" fill="#4e8ae1"/><path d="M25.961,15.868A15.066,15.066,0,1,0,41.026,30.935,15.051,15.051,0,0,0,25.961,15.868m0,33.332A18.4,18.4,0,1,1,44.227,30.935,18.436,18.436,0,0,1,25.961,49.2" transform="translate(2.438 3.999)" fill="#4e8ae1"/><path d="M14.314,32.665a1.678,1.678,0,0,1-.667-3.2l6.666-3.334a1.646,1.646,0,0,1,2.267.8l.934,1.732,10.133-5.733a1.671,1.671,0,0,1,1.6,2.933L23.515,32.532a1.575,1.575,0,0,1-1.333.134,2.071,2.071,0,0,1-1.067-.8L20.182,30l-5.2,2.534a1.445,1.445,0,0,1-.667.134" transform="translate(4.085 7.335)" fill="#4e8ae1"/><path d="M5.382,60.444H28.315V59.11c-.266-.4-.667-.667-.932-1.066a14.808,14.808,0,0,0-21.067,0,7.666,7.666,0,0,0-.934,1.066Zm24.533,3.334H3.648a1.766,1.766,0,0,1-1.732-1.734v-3.6a1.77,1.77,0,0,1,.4-1.066,20.684,20.684,0,0,1,1.6-1.734A18.038,18.038,0,0,1,16.849,50.31a18.271,18.271,0,0,1,12.934,5.333c.533.534,1.066,1.2,1.6,1.734a1.512,1.512,0,0,1,.4,1.066v3.6a1.993,1.993,0,0,1-1.867,1.734" transform="translate(0.618 16.222)" fill="#4e8ae1"/><path d="M28.4,61.7a26.121,26.121,0,0,1-4.533-.4A1.707,1.707,0,0,1,22.4,59.7,1.746,1.746,0,0,1,24,57.971h.267a20.231,20.231,0,0,0,4,.266,23.9,23.9,0,0,0,10.533-2.4A25.529,25.529,0,0,0,50.931,43.7a10.069,10.069,0,0,0,.8-2.133A26.066,26.066,0,0,0,53.2,33.038a26.929,26.929,0,0,0-.667-5.733,25.854,25.854,0,0,0-3.466-8.134A24.9,24.9,0,0,0,38,9.971a24.468,24.468,0,0,0-9.733-2A24.9,24.9,0,0,0,13.866,53.3c.134,0,.134.134.267.134a1.689,1.689,0,0,1,.533,1.2,1.765,1.765,0,0,1-1.734,1.732A1.92,1.92,0,0,1,12,56.1,28.622,28.622,0,0,1,0,32.9a28.357,28.357,0,0,1,39.466-26A28,28,0,0,1,52,17.3a28.4,28.4,0,0,1,4,9.2,26.584,26.584,0,0,1,.8,6.533,26.079,26.079,0,0,1-1.732,9.6c-.267.8-.667,1.6-.934,2.4A28.631,28.631,0,0,1,40.4,58.771a24.21,24.21,0,0,1-12,2.933" transform="translate(0 1.495)" fill="#4e8ae1"/><path d="M15.224,43.663A4.625,4.625,0,0,0,11.89,45l-.135.132a5,5,0,0,0,0,6.935,4.834,4.834,0,0,0,6.934,0,5.472,5.472,0,0,0,1.468-3.735,4.258,4.258,0,0,0-1.468-3.2,4.836,4.836,0,0,0-3.465-1.465m0,13.2a8.046,8.046,0,0,1-5.866-2.4,8.369,8.369,0,0,1,0-11.733c.132-.134.132-.134.267-.267a7.956,7.956,0,0,1,5.6-2.133,8.046,8.046,0,0,1,5.865,2.4,8.267,8.267,0,0,1-5.865,14.133" transform="translate(2.243 13.004)" fill="#4e8ae1"/><path d="M55.478,37.443a1.734,1.734,0,1,0,1.732,1.735,1.863,1.863,0,0,0-1.732-1.735m0,6.668a5.067,5.067,0,1,1,5.066-5.068,5.153,5.153,0,0,1-5.066,5.068" transform="translate(16.254 10.956)" fill="#4e8ae1"/><path d="M7.076,3.334A2.533,2.533,0,1,0,9.61,5.866,2.452,2.452,0,0,0,7.076,3.334m0,8.4A5.919,5.919,0,0,1,1.21,5.866,5.919,5.919,0,0,1,7.076,0a5.919,5.919,0,0,1,5.866,5.866,5.919,5.919,0,0,1-5.866,5.868" transform="translate(0.39 0)" fill="#4e8ae1"/></g></svg>