<svg xmlns="http://www.w3.org/2000/svg" xmlns:xlink="http://www.w3.org/1999/xlink" width="79.864" height="80" viewBox="0 0 79.864 80"><defs><clipPath id="a"><rect width="79.864" height="80" fill="none"/></clipPath></defs><path d="M56.756,13.061V1.416H11.431V68.338H69.354V13.061Z" transform="translate(2.924 1.782)" fill="#b8d0f3"/><rect width="26.547" height="9.587" transform="translate(23.349 8.474)" fill="#fff"/><g transform="translate(0 0)"><g clip-path="url(#a)"><path d="M4.711,1.416a3.4,3.4,0,1,1-3.4,3.4,3.4,3.4,0,0,1,3.4-3.4" transform="translate(0.451 0.485)" fill="#fff"/><path d="M57,53.209a2.581,2.581,0,1,1-2.581,2.582A2.582,2.582,0,0,1,57,53.209" transform="translate(18.65 18.234)" fill="#fff"/><path d="M43.094,1.416,55.047,13.369H43.094Z" transform="translate(14.768 0.485)" fill="#fff"/><path d="M57.311,43.636a1.722,1.722,0,0,1,.542,1.222,1.472,1.472,0,0,1-.542,1.223,2.028,2.028,0,0,1-1.222.544,1.8,1.8,0,0,1-1.767-1.767,1.476,1.476,0,0,1,.544-1.222,2.023,2.023,0,0,1,1.223-.542,1.722,1.722,0,0,1,1.222.542" transform="translate(18.615 14.768)" fill="#4e8ae1"/><path d="M56.1,4.388a1.723,1.723,0,0,1,.542,1.223A1.471,1.471,0,0,1,56.1,6.833a2.027,2.027,0,0,1-1.222.542,1.8,1.8,0,0,1-1.767-1.764,1.477,1.477,0,0,1,.544-1.223,1.646,1.646,0,0,1,2.445,0" transform="translate(18.199 1.317)" fill="#4e8ae1"/><path d="M48.51,56.281a1.726,1.726,0,0,1,.542,1.223,1.47,1.47,0,0,1-.542,1.222,2.028,2.028,0,0,1-1.222.544A1.8,1.8,0,0,1,45.521,57.5a1.479,1.479,0,0,1,.544-1.223,1.649,1.649,0,0,1,2.445,0" transform="translate(15.599 19.101)" fill="#4e8ae1"/><path d="M2.989,30.993a1.723,1.723,0,0,1,.544,1.222,1.325,1.325,0,0,1-.544,1.222,1.717,1.717,0,0,1-1.223.545A1.8,1.8,0,0,1,0,32.215a1.476,1.476,0,0,1,.544-1.222,1.723,1.723,0,0,1,1.222-.544,1.726,1.726,0,0,1,1.223.544" transform="translate(0 10.434)" fill="#4e8ae1"/><path d="M55.4,15.484H43.444a1.8,1.8,0,0,1-1.766-1.766V1.766a1.766,1.766,0,1,1,3.531,0V11.953H55.4a1.766,1.766,0,0,1,0,3.531" transform="translate(14.283 0)" fill="#4e8ae1"/><path d="M66.212,71.443H11.882a1.8,1.8,0,0,1-1.766-1.764V1.766A1.8,1.8,0,0,1,11.882,0H54.4a1.658,1.658,0,0,1,1.222.544L67.57,12.5a2.021,2.021,0,0,1,.544,1.222V69.813a1.9,1.9,0,0,1-1.9,1.63M13.647,68.049H64.582V14.4L53.716,3.531H13.647Z" transform="translate(3.467 0)" fill="#4e8ae1"/><path d="M51.383,76.949H5.61a1.8,1.8,0,0,1-1.766-1.764V10.668A1.8,1.8,0,0,1,5.61,8.9a1.8,1.8,0,0,1,1.766,1.766V73.555H49.889V66.762a1.766,1.766,0,0,1,3.531,0v8.557a2.339,2.339,0,0,1-2.037,1.63" transform="translate(1.317 3.05)" fill="#4e8ae1"/><path d="M45.871,18.775H16.94a1.8,1.8,0,0,1-1.766-1.764V6.824A1.8,1.8,0,0,1,16.94,5.057H45.871a1.8,1.8,0,0,1,1.766,1.767V17.011a1.888,1.888,0,0,1-1.766,1.764M18.705,15.381H44.24V8.588H18.705Z" transform="translate(5.2 1.733)" fill="#4e8ae1"/><path d="M42.475,22.549H16.94a1.766,1.766,0,1,1,0-3.531H42.475a1.8,1.8,0,0,1,1.766,1.767,2.014,2.014,0,0,1-1.766,1.764" transform="translate(5.2 6.517)" fill="#4e8ae1"/><path d="M46.076,22.549H40.915a1.766,1.766,0,1,1,0-3.531h5.161a1.766,1.766,0,1,1,0,3.531" transform="translate(13.416 6.517)" fill="#4e8ae1"/><path d="M42.475,27.608H16.94a1.766,1.766,0,0,1,0-3.533H42.475a1.8,1.8,0,0,1,1.766,1.767,2.015,2.015,0,0,1-1.766,1.766" transform="translate(5.2 8.25)" fill="#4e8ae1"/><path d="M46.076,27.608H40.915a1.766,1.766,0,0,1,0-3.533h5.161a1.766,1.766,0,1,1,0,3.533" transform="translate(13.416 8.25)" fill="#4e8ae1"/><path d="M42.475,32.665H16.94a1.766,1.766,0,1,1,0-3.531H42.475A1.8,1.8,0,0,1,44.24,30.9a1.9,1.9,0,0,1-1.766,1.766" transform="translate(5.2 9.984)" fill="#4e8ae1"/><path d="M46.076,32.665H40.915a1.766,1.766,0,1,1,0-3.531h5.161a1.766,1.766,0,1,1,0,3.531" transform="translate(13.416 9.984)" fill="#4e8ae1"/><path d="M42.475,37.724H16.94a1.766,1.766,0,0,1,0-3.533H42.475a1.8,1.8,0,0,1,1.766,1.767,1.9,1.9,0,0,1-1.766,1.766" transform="translate(5.2 11.717)" fill="#4e8ae1"/><path d="M46.076,37.724H40.915a1.766,1.766,0,0,1,0-3.533h5.161a1.766,1.766,0,1,1,0,3.533" transform="translate(13.416 11.717)" fill="#4e8ae1"/><path d="M42.475,42.781H16.94a1.766,1.766,0,1,1,0-3.531H42.475a1.8,1.8,0,0,1,1.766,1.766,1.9,1.9,0,0,1-1.766,1.766" transform="translate(5.2 13.45)" fill="#4e8ae1"/><path d="M46.076,42.781H40.915a1.766,1.766,0,1,1,0-3.531h5.161a1.766,1.766,0,1,1,0,3.531" transform="translate(13.416 13.45)" fill="#4e8ae1"/><path d="M42.475,47.839H16.94a1.766,1.766,0,1,1,0-3.531H42.475a1.8,1.8,0,0,1,1.766,1.767,2.013,2.013,0,0,1-1.766,1.764" transform="translate(5.2 15.184)" fill="#4e8ae1"/><path d="M46.076,47.839H40.915a1.766,1.766,0,1,1,0-3.531h5.161a1.766,1.766,0,1,1,0,3.531" transform="translate(13.416 15.184)" fill="#4e8ae1"/><path d="M5.161,10.323a5.161,5.161,0,1,1,5.161-5.161,5.158,5.158,0,0,1-5.161,5.161m0-6.791A1.8,1.8,0,0,0,3.4,5.3,1.8,1.8,0,0,0,5.161,7.063,1.8,1.8,0,0,0,6.927,5.3,1.8,1.8,0,0,0,5.161,3.531" transform="translate(0 0)" fill="#4e8ae1"/><path d="M57.421,60.416a4.211,4.211,0,1,1,4.211-4.211,4.231,4.231,0,0,1-4.211,4.211m0-5.026a.815.815,0,1,0,.814.815.876.876,0,0,0-.814-.815" transform="translate(18.234 17.818)" fill="#4e8ae1"/></g></g></svg>