<svg xmlns="http://www.w3.org/2000/svg" xmlns:xlink="http://www.w3.org/1999/xlink" width="80.291" height="80" viewBox="0 0 80.291 80"><defs><clipPath id="a"><rect width="80.291" height="80" fill="none"/></clipPath></defs><g transform="translate(0 0)" clip-path="url(#a)"><path d="M17.443,48.7A3.643,3.643,0,1,1,13.8,52.343,3.642,3.642,0,0,1,17.443,48.7" transform="translate(6.309 22.265)" fill="#fff"/><path d="M4.069,1.1A2.769,2.769,0,1,1,1.3,3.869,2.769,2.769,0,0,1,4.069,1.1" transform="translate(0.594 0.503)" fill="#fff"/><path d="M52.117,7.4A4.517,4.517,0,1,1,47.6,11.917,4.517,4.517,0,0,1,52.117,7.4" transform="translate(21.762 3.383)" fill="#fff"/><rect width="14.571" height="5.392" transform="translate(53.371 63.553) rotate(-45.004)" fill="#fff"/><path d="M56.058,45.657a7.319,7.319,0,0,1,2.186,5.1,6.835,6.835,0,0,1-2.186,5.1,7.214,7.214,0,0,1-10.346,0L39.3,49.446,49.646,39.1Z" transform="translate(17.968 17.876)" fill="#fff"/><path d="M48.775,38.329,38.429,48.675,32.6,42.846A29.32,29.32,0,0,0,42.946,32.5Z" transform="translate(14.905 14.859)" fill="#fff"/><path d="M52.313,11.009a28.938,28.938,0,0,0-41.239,0,29.163,29.163,0,0,0,35.41,45.756A29.32,29.32,0,0,0,56.831,46.419a29.162,29.162,0,0,0-4.517-35.41" transform="translate(1.166 1.086)" fill="#b8d0f3"/><path d="M28.215,9.9A18.215,18.215,0,1,1,10,28.115,18.216,18.216,0,0,1,28.215,9.9" transform="translate(4.572 4.526)" fill="#fff"/><path d="M49.406,26.683a1.847,1.847,0,0,1,.583,1.311,1.42,1.42,0,0,1-.583,1.311,1.847,1.847,0,0,1-1.311.583A1.929,1.929,0,0,1,46.2,27.994a1.582,1.582,0,0,1,.583-1.311,1.767,1.767,0,0,1,2.623,0" transform="translate(21.122 11.933)" fill="#4e8ae1"/><path d="M41.906,2.983a1.847,1.847,0,0,1,.583,1.311,1.582,1.582,0,0,1-.583,1.311,1.847,1.847,0,0,1-1.311.583A1.929,1.929,0,0,1,38.7,4.294a1.582,1.582,0,0,1,.583-1.311A2.17,2.17,0,0,1,40.594,2.4a1.42,1.42,0,0,1,1.311.583" transform="translate(17.693 1.097)" fill="#4e8ae1"/><path d="M30.706,47.983a1.847,1.847,0,0,1,.583,1.311,1.582,1.582,0,0,1-.583,1.311,1.847,1.847,0,0,1-1.311.583A1.929,1.929,0,0,1,27.5,49.294a1.582,1.582,0,0,1,.583-1.311,1.847,1.847,0,0,1,1.311-.583,1.582,1.582,0,0,1,1.311.583" transform="translate(12.573 21.671)" fill="#4e8ae1"/><path d="M4.406,40.529a1.847,1.847,0,0,1,.583,1.311,1.42,1.42,0,0,1-.583,1.311,2.034,2.034,0,0,1-1.311.437A1.929,1.929,0,0,1,1.2,41.694a1.582,1.582,0,0,1,.583-1.311A1.847,1.847,0,0,1,3.094,39.8a1.962,1.962,0,0,1,1.311.729" transform="translate(0.549 18.196)" fill="#4e8ae1"/><path d="M3.206,10.529a1.847,1.847,0,0,1,.583,1.311,1.582,1.582,0,0,1-.583,1.311,2.35,2.35,0,0,1-1.311.437A1.929,1.929,0,0,1,0,11.694a1.582,1.582,0,0,1,.583-1.311A1.847,1.847,0,0,1,1.894,9.8a2.978,2.978,0,0,1,1.311.729" transform="translate(0 4.48)" fill="#4e8ae1"/><path d="M54.558,63.538a9.421,9.421,0,0,1-6.412-2.623L31.971,44.74a1.855,1.855,0,1,1,2.623-2.623L50.769,58.292A5.381,5.381,0,0,0,54.7,59.9a5.474,5.474,0,0,0,5.537-5.537,5.9,5.9,0,0,0-1.6-3.934L42.318,34.394a1.855,1.855,0,0,1,2.623-2.623L61.115,47.946a9.041,9.041,0,0,1,2.623,6.412,9.421,9.421,0,0,1-2.623,6.412,9.809,9.809,0,0,1-6.557,2.769" transform="translate(14.367 14.276)" fill="#4e8ae1"/><path d="M37.283,49.323a1.78,1.78,0,0,1-1.311-.583,1.847,1.847,0,0,1,0-2.623L46.318,35.771a1.855,1.855,0,1,1,2.623,2.623L38.594,48.74a2.618,2.618,0,0,1-1.311.583" transform="translate(16.196 16.105)" fill="#4e8ae1"/><path d="M39.883,51.923a1.78,1.78,0,0,1-1.311-.583,1.847,1.847,0,0,1,0-2.623L48.918,38.371a1.855,1.855,0,0,1,2.623,2.623L41.194,51.34a1.582,1.582,0,0,1-1.311.583" transform="translate(17.385 17.293)" fill="#4e8ae1"/><path d="M28.764,12.343a16.807,16.807,0,0,0-11.658,4.809A16.3,16.3,0,0,0,12.3,28.809a16.807,16.807,0,0,0,4.809,11.658,16.3,16.3,0,0,0,11.658,4.809,16.807,16.807,0,0,0,11.658-4.809A16.3,16.3,0,0,0,45.23,28.809a16.807,16.807,0,0,0-4.809-11.658,15.953,15.953,0,0,0-11.658-4.809m0,36.284A19.9,19.9,0,0,1,8.8,28.664,19.9,19.9,0,0,1,28.764,8.7,19.9,19.9,0,0,1,48.727,28.664,19.714,19.714,0,0,1,42.9,42.8a19.47,19.47,0,0,1-14.135,5.829" transform="translate(4.023 3.978)" fill="#4e8ae1"/><path d="M29.975,19.429a1.78,1.78,0,0,1-1.311-.583,5.381,5.381,0,0,0-3.934-1.6,5.63,5.63,0,0,0-3.934,1.6,1.855,1.855,0,0,1-2.623-2.623A8.8,8.8,0,0,1,24.583,13.6a9.421,9.421,0,0,1,6.412,2.623,1.847,1.847,0,0,1,0,2.623.976.976,0,0,1-1.02.583" transform="translate(8.058 6.218)" fill="#4e8ae1"/><path d="M18.037,51.089a1.894,1.894,0,1,0,1.894,1.894,1.929,1.929,0,0,0-1.894-1.894m0,7.286a5.537,5.537,0,1,1,5.537-5.537,5.731,5.731,0,0,1-5.537,5.537" transform="translate(5.715 21.625)" fill="#4e8ae1"/><path d="M4.617,3.5a.94.94,0,0,0-.874.874.94.94,0,0,0,.874.874.94.94,0,0,0,.874-.874A.94.94,0,0,0,4.617,3.5m0,5.537A4.54,4.54,0,0,1,.1,4.517a4.517,4.517,0,0,1,9.035,0A4.54,4.54,0,0,1,4.617,9.035" transform="translate(0.046 0)" fill="#4e8ae1"/><path d="M52.712,9.889a2.769,2.769,0,1,0,2.769,2.769,2.767,2.767,0,0,0-2.769-2.769m0,9.035a6.412,6.412,0,1,1,6.412-6.412,6.567,6.567,0,0,1-6.412,6.412" transform="translate(21.168 2.789)" fill="#4e8ae1"/><path d="M32.2,4.889A27.722,27.722,0,0,0,12.823,12.9,27.322,27.322,0,0,0,32.2,59.534a26.7,26.7,0,0,0,13.843-3.789,25.6,25.6,0,0,0,5.392-4.226,29.958,29.958,0,0,0,4.226-5.392A27.345,27.345,0,0,0,51.439,12.9,26.534,26.534,0,0,0,32.2,4.889m0,58.142A30.63,30.63,0,0,1,10.346,54,30.963,30.963,0,1,1,58.871,47.73a27.859,27.859,0,0,1-4.809,6.12,31.747,31.747,0,0,1-6.12,4.809A29.8,29.8,0,0,1,32.2,63.031" transform="translate(0.583 0.503)" fill="#4e8ae1"/></g></svg>