<svg xmlns="http://www.w3.org/2000/svg" xmlns:xlink="http://www.w3.org/1999/xlink" width="602.463" height="527.12" viewBox="0 0 602.463 527.12"><defs><clipPath id="a"><rect width="602.463" height="527.12" fill="none"/></clipPath><clipPath id="c"><rect width="571.437" height="496.875" fill="none"/></clipPath><clipPath id="d"><rect width="317.872" height="463.107" fill="none"/></clipPath><clipPath id="f"><path d="M342.432,211.808a14.777,14.777,0,1,1,2.783.265,14.806,14.806,0,0,1-2.783-.265m-23.86-19.618a27.1,27.1,0,1,0,26.622-22.027,27.15,27.15,0,0,0-26.622,22.027" transform="translate(-318.088 -170.162)" fill="none"/></clipPath><clipPath id="g"><path d="M342.432,211.808a14.777,14.777,0,1,1,2.783.265,14.806,14.806,0,0,1-2.783-.265m-2.973-41.026a27.115,27.115,0,0,0,.656,53.133l.16.031a27.155,27.155,0,0,0,4.931.455h.085a27.119,27.119,0,1,0-5.832-53.618" transform="translate(-318.088 -170.162)" fill="none"/></clipPath></defs><g transform="translate(-466.932 -1202.572)"><g transform="translate(466.932 1202.572)"><g clip-path="url(#a)"><g clip-path="url(#a)"><g transform="translate(0.506)" opacity="0.5"><g clip-path="url(#c)"><path d="M570.527,102.505a97.466,97.466,0,0,0,.23-29.9c-5.489-36.455-35.89-69.3-72.63-72.351-33.3-2.766-63.895,17.213-90.344,37.639s-53.83,43.08-87,47.131c-33.395,4.077-65.862-11.609-99.328-15.049a138.735,138.735,0,0,0-90.835,22.735c-15.148,10.207-28.591,24.046-34.484,41.335-11.256,33.012,7.012,69.793-.59,103.833-6.651,29.78-31.41,51.435-53.494,72.49C14.66,336.484-3.974,363.628,1.238,402.427c4.425,32.933,24.368,65.89,56.986,77.071,31.3,10.73,65.775-.006,95.734-14.051s59.248-31.736,92.106-35.635c8.845-1.049,18.414-.9,25.862,3.988,11.413,7.488,13.8,22.882,20.455,34.8,12.044,21.581,39.576,31.373,63.97,27.41,19.846-3.224,34.1-13.4,48.51-26.226,11.25-10.009,28.06-16.7,34.214-30.97,6.241-14.47,8.291-25.857,22.425-36.12,18.617-13.521,43.38-15.693,62.9-27.871,24.9-15.534,37.844-50.086,24.761-76.361-7.307-14.675-20.943-24.927-32.646-36.408s-22.354-26.435-20.727-42.746c2.037-20.446,21.644-33.589,36.72-47.546,19.655-18.2,33.836-43.046,38.016-69.258" transform="translate(-0.362 0)" fill="#f5e3da"/></g></g><g transform="translate(223.647 27.164)" opacity="0.5"><g clip-path="url(#d)"><path d="M0-.5H307.807a.5.5,0,0,1,.5.5V453.041a.5.5,0,0,1-.5.5H0a.5.5,0,0,1-.5-.5V0A.5.5,0,0,1,0-.5ZM307.307.5H.5V452.541H307.307Z" transform="translate(0.697 0.697)" fill="#4e8ae1"/><path d="M0-.5H307.807a.5.5,0,0,1,.5.5V453.041a.5.5,0,0,1-.5.5H0a.5.5,0,0,1-.5-.5V0A.5.5,0,0,1,0-.5ZM307.307.5H.5V452.541H307.307Z" transform="translate(5.032 5.033)" fill="#4e8ae1"/><path d="M0-.5H307.807a.5.5,0,0,1,.5.5V453.041a.5.5,0,0,1-.5.5H0a.5.5,0,0,1-.5-.5V0A.5.5,0,0,1,0-.5ZM307.307.5H.5V452.541H307.307Z" transform="translate(9.367 9.368)" fill="#4e8ae1"/></g></g></g><path d="M375.809,58.3l-4.662-16.258L358.3,52.592Z" transform="translate(141.504 16.602)" fill="#b8d0f3"/><path d="M376.549,59.063l-19.272-6.278,14.14-11.616ZM359.322,52.4l15.747,5.13-4.193-14.621Z" transform="translate(141.504 16.602)" fill="#b8d0f3"/><g clip-path="url(#a)"><path d="M386.9,51.265a40.672,40.672,0,0,1-76.3-7.383l-5.3.162A45.869,45.869,0,0,0,391.6,53.494L386.9,51.265" transform="translate(120.574 17.33)" fill="#b8d0f3"/><path d="M311.768,42.346l.293,1.173a38.875,38.875,0,0,0,5.176,11.853,39.41,39.41,0,0,0,19.8,15.6A38.888,38.888,0,0,0,350.054,73.2c.4,0,.808-.006,1.21-.018a39,39,0,0,0,20.571-6.6,39.418,39.418,0,0,0,13.71-15.954l.641-1.363,1.4.666,4.652,2.209,1.351.641-.637,1.353A47.647,47.647,0,0,1,376.382,73.4a47.181,47.181,0,0,1-24.869,7.973c-.486.015-.978.022-1.462.022a47.167,47.167,0,0,1-29.735-10.538,47.586,47.586,0,0,1-10.4-11.728,46.985,46.985,0,0,1-6.073-14.759l-.4-1.771ZM350.054,76.2a41.985,41.985,0,0,1-26.082-9.069,42.385,42.385,0,0,1-9.246-10.117,41.875,41.875,0,0,1-5.264-11.593l-2.261.069a44,44,0,0,0,5.253,12.049,44.65,44.65,0,0,0,22.6,18.243,44.029,44.029,0,0,0,15,2.617c.454,0,.916-.007,1.371-.021a44.184,44.184,0,0,0,23.29-7.466A44.658,44.658,0,0,0,389.58,54.2l-1.985-.943a42.429,42.429,0,0,1-14.088,15.818,42,42,0,0,1-22.152,7.1C350.923,76.19,350.485,76.2,350.054,76.2Z" transform="translate(120.574 17.33)" fill="#b8d0f3"/><path d="M347.665,3.946a45.914,45.914,0,0,0-39.809,25.716l4.7,2.232a40.666,40.666,0,0,1,76.474,10.339l5.25-.16A45.943,45.943,0,0,0,347.665,3.946" transform="translate(121.583 1.55)" fill="#b8d0f3"/><path d="M349.077,2.425h0A47.2,47.2,0,0,1,379.708,13.7,47.519,47.519,0,0,1,390.123,26.19a46.919,46.919,0,0,1,5.637,15.631l.289,1.7-8.254.252-.238-1.26a38.8,38.8,0,0,0-4.791-12.669,39.419,39.419,0,0,0-20.148-16.8,38.858,38.858,0,0,0-13.535-2.418h0c-.4,0-.81.006-1.211.018a39,39,0,0,0-20.273,6.4A39.474,39.474,0,0,0,313.9,32.556l-.653,1.326-7.409-3.518L306.509,29A47.685,47.685,0,0,1,323.066,10.21a47.2,47.2,0,0,1,24.553-7.763C348.1,2.432,348.595,2.425,349.077,2.425Zm43.4,38.2a43.921,43.921,0,0,0-4.955-12.937A44.661,44.661,0,0,0,364.594,8.233,44.014,44.014,0,0,0,349.08,5.425h0c-.458,0-.905.007-1.367.021a44.2,44.2,0,0,0-22.993,7.27A44.691,44.691,0,0,0,309.9,28.97l1.993.946a42.485,42.485,0,0,1,14.059-15.376,42,42,0,0,1,21.831-6.9c.431-.013.87-.02,1.3-.02h0a42,42,0,0,1,26.989,9.807,42.321,42.321,0,0,1,9.272,10.879,41.792,41.792,0,0,1,4.9,12.386Z" transform="translate(121.583 1.55)" fill="#b8d0f3"/><path d="M303.908,19.55l4.341,15.6,13.257-9.883c-5.841-1.981-11.715-3.865-17.6-5.714" transform="translate(120.023 7.721)" fill="#b8d0f3"/><path d="M303.179,18.8l.878.276c6.953,2.184,12.548,4,17.609,5.717l.9.306L307.963,35.984Zm17.264,6.635c-4.6-1.551-9.67-3.2-15.807-5.129l3.9,14.007Z" transform="translate(120.023 7.721)" fill="#b8d0f3"/><path d="M125.157,378.526c-4.234,1.668-9.59,1.36-14.827.838-11.412-1.522-9.347-1.052-10.569-9.82-1.248-8.962-3.02-31.883-1.936-40.867a16.865,16.865,0,0,1,2.443-7.689c2.306-3.328,6.346-4.921,10.175-6.238a41.815,41.815,0,0,1,8.37-2.193c5.124-.639,10.611.608,14.474,4.034,5.892,5.227,3.218,12.224,2.966,19.355-.391,11-2.529,27.818-3.613,38.3-.466,4.494-4.271,3.021-7.481,4.285" transform="translate(38.501 123.375)" fill="#efb68f"/><path d="M98.668,362.728a45.606,45.606,0,0,1,.473-8.233l17.852.253,8.926.127c2.472.035,5.267-.5,7.669.046a34.963,34.963,0,0,0,1.211,7.534,2.893,2.893,0,0,0,.784,1.512,2.975,2.975,0,0,0,1.4.52c9.982,1.859,20.486,2.993,29.044,8.46,1.684,1.076,3.461,3.056,2.5,4.811-1.11,2.032-7,2.077-9.031,2.256a70.656,70.656,0,0,1-11.584-.359,186.2,186.2,0,0,0-24.113-.287c-2.313.123-5.274.522-7.478-.41-1.827-.771-2.445-3.247-4.188-3.821a22.43,22.43,0,0,1-.8,4.168.644.644,0,0,1-.8.534c-2.408.036-5.563.651-7.912.049-2.54-.653-2.472-3.023-2.794-5.316a105.256,105.256,0,0,1-1.156-11.844" transform="translate(38.959 140.002)" fill="#222221"/><path d="M75.773,92.484c-1.767,5.429-3.751,10.8-5.15,16.34-.4,1.6-.121,3.141-.746,4.736a20.044,20.044,0,0,1-2.409,4.022c-1.625,2.325-3.166,5.309-1.935,7.865a5.844,5.844,0,0,0,4.331,2.918,19.49,19.49,0,0,0,5.4-.1c9.947-1.013,19.98-.509,29.966,0q1.559-10.983,2.512-22.041c.543-6.294,1.47-13.237-.667-19.337-2.4-6.856-8.312-11.112-15.747-10.388a16.3,16.3,0,0,0-11.7,6.915c-1.862,2.722-2.837,5.935-3.858,9.071" transform="translate(25.705 30.18)" fill="#222221"/><path d="M174.719,154.81a22.726,22.726,0,0,0-2.081-3.09c-3.57-4.529-8.7-8.513-13.363-11.846-6.081-4.345-12.228-8.594-18.2-13.09-5.171-3.893-10.688-8.863-16.8-11.267-3.462-1.361-7.611-3.7-11.332-2.321a15.4,15.4,0,0,0-8.031,7.562,24.09,24.09,0,0,0-2.13,11.03,17.121,17.121,0,0,0,1.911,8.361c2.046,3.519,5.835,5.6,9.516,7.342,4.7,2.221,9.236,4.607,14.06,6.731a74.306,74.306,0,0,1,16.778,10.228c3.553,2.875,7.026,6.178,11.45,7.321a10.024,10.024,0,0,0,9.668-2.788c2.392-2.3,5.118-2.307,7.793-4.376a6.429,6.429,0,0,0,1.912-2.1,5.74,5.74,0,0,0,.363-3.465,13.031,13.031,0,0,0-1.514-4.225" transform="translate(40.59 44.539)" fill="#efb68f"/><path d="M34.054,374.6a22.211,22.211,0,0,0,5.592,1c4.4.028,8.8.128,13.2.082,2.466-.025,2.465-.653,3.457-2.868q1.333-2.973,2.652-5.951c3.564-8.074,6.984-16.222,9.829-24.582,1.165-3.425,2.177-7.4.276-10.48-1.173-1.9-3.243-3.041-5.291-3.927a40.769,40.769,0,0,0-19.886-3.159c-3.027.283-6.206,1-8.371,3.137-1.8,1.773-2.643,4.273-3.383,6.687a195.57,195.57,0,0,0-6.258,27.292c-.759,4.9-.967,10.547,4.806,11.87,1.089.251,2.225.583,3.374.9" transform="translate(10.065 128.17)" fill="#efb68f"/><path d="M131.715,166.592q1.693,9.776,3.384,19.553c.082.477.134,1.049-.233,1.364a1.42,1.42,0,0,1-.731.257l-58.117,8.882a10.551,10.551,0,0,1-3.921.1,1.557,1.557,0,0,1-.889-.459c-.375-.458-.222-1.128-.117-1.712.915-5.105-3.162-9.381-3.946-14.214-.566-3.5.861-9.674,4.32-11.572,1.907-1.046,4.423-.788,6.5-.816q5.17-.069,10.339-.163,10.223-.186,20.446-.467,11.481-.314,22.963-.755" transform="translate(26.47 65.793)" fill="#4e8ae1"/><path d="M100.406,81.493c-.689,3.09-.315,6.8-.223,9.269.166,4.425.942,10.535-1.473,14.394a36.09,36.09,0,0,1-8.976,9.721c-2.728,2.038-3.807,4.465-5.5,7.291-.84,1.4-2.1,2.671-.968,4.355a5.423,5.423,0,0,0,2.77,1.875,25.557,25.557,0,0,0,7.657,1.208c5.612.23,11.231-.049,16.841-.328a5.531,5.531,0,0,0,2.352-.467,4.877,4.877,0,0,0,2.051-3.166,19.093,19.093,0,0,0,.6-7.079c-.246-2.374-.937-4.694-1.053-7.078-.134-2.737.494-5.453.589-8.191a42.382,42.382,0,0,0-1.635-11.226l-2.277-9.536c-.8-3.352-3.743-8.194-7.876-5.648a6.86,6.86,0,0,0-2.879,4.606" transform="translate(32.707 30.084)" fill="#222221"/><path d="M52.659,274.568A189.42,189.42,0,0,0,41.8,316.01c-1.823,12.69-2.36,25.584-5.177,38.091-4.5,20-14.725,38.529-17.658,58.819,17.538,5.87,39.291,6.475,57.717,7.086,1.813.06,9.5-36.052,10.222-38.67l12.747-46.359c4.739-17.233,9.487-34.492,12.857-52.057,1.576-8.216,2.249-16.222,5.3-24.025,3.017-7.718,6.265-15.385,8.139-23.485a97.374,97.374,0,0,0,1.73-29.157c-.315-4.255-.382-8.96-1.127-13.108-.639-3.557-2.349-6.795-2.8-10.427-.587-4.783-2.925-9.349-7.238-11.356-4.229-1.97-11.441-1.9-12.775-6.337.858,2.855-9.063,10.212-10.794,11.985-15.826,16.215-16.282,36.327-22.655,56.837-3.42,11.007-9.12,21.14-13.841,31.657q-2.013,4.482-3.789,9.066" transform="translate(7.489 65.173)" fill="#4e8ae1"/><path d="M95.056,298.383c.247,2.3.442,4.621.569,6.965q1.509,27.894.745,55.848c-.241,8.851-.66,17.739-2.429,26.414-2.4,9.608-1.582,19.282-2.306,29,16.536,1.533,33.176,1.345,49.78,1.155,1.62-.018,4.215.066,5.3-1.315a7.45,7.45,0,0,0,1.193-3.3l1.908-10a27.291,27.291,0,0,0,.651-5.221c-.061-12.46,2.9-24.061,2.235-36.734q-1.36-26.017-2.768-52.032c-1.9-34.643-4.27-69.33-9.838-103.607-1.713-10.55-6.606-18.988-11.836-28.317-2.839-5.066-4.492-7.672-9.808-9.925-3.193-1.353-8.591-4.107-12.128-2.592-4.737,2.03-8.038,6.65-9.629,11.486-1.331,4.038-5.412,6.849-6.362,10.974-.8,3.458.769,8.89.776,12.545.021,12-1.306,24.17-1.953,36.158-.4,7.365-1.66,15.615-.628,22.945,1.9,13.472,5.093,26.209,6.527,39.557" transform="translate(34.806 64.878)" fill="#4e8ae1"/><path d="M126.173,128.277c-1.016-1.442-3.628-.907-5.145-1.162A40.045,40.045,0,0,1,113.3,125a4.925,4.925,0,0,1-2.509-1.678,5.206,5.206,0,0,1-.624-2.3q-.349-3.134-.7-6.267c-.294-2.639.151-3.591,2.123-5.322,2.578-2.264,3.183-6,3.344-9.43a62.906,62.906,0,0,0-1.311-16.043,11.736,11.736,0,0,0-1.656-4.425c-2.306-3.254-6.764-4.114-10.356-3.051-7.414,2.194-16,8.074-16.681,16.432-.312,3.854.578,7.689,1.3,11.487.905,4.779,1.546,9.745.409,14.474s-4.39,9.216-9.06,10.575c-1.449.421-3.024.552-4.294,1.367-1.826,1.173-1.336,2.264-.854,3.761.6,1.848.89,3.854,1.484,5.79.057.194.124.385.187.578.018.052.033.106.053.158a14.354,14.354,0,0,0,4.423,6.484,23.992,23.992,0,0,0,17.258,5.8c.233-.015.467-.046.7-.064.093,0,.188.007.28.008,11.918.166,24.308-6.154,27.675-18.229.008-.031.013-.06.021-.091,1.1-2.511,2.73-5.228,1.666-6.743" transform="translate(28.427 30.038)" fill="#efb68f"/><path d="M124.516,113.692c-2.374,3.034-.76,8.6-3.6,11.618-2.5,2.652-7.368,8.286-21.806,7.27-9.48-.667-18.576-11.957-21.917-16.561a51.354,51.354,0,0,0-7.2,2.437c-1,1.819.266,22.71-.536,32.245-1.142,13.577.123,26.554-1.13,40.855l63.1,1.081c0-5.644.509-11.3.845-16.93.382-6.413-.1-12.574,1.681-18.719a33.178,33.178,0,0,0,7.876,1.455,215.6,215.6,0,0,1,11.663-25.5c.677-1.3,2.9-4.1,2.708-5.6-.24-1.868-2.811-2.984-4.221-3.969q-5.9-4.12-12.073-7.846c-3.591-2.168-10.786-5.813-14.712-2.547a4.62,4.62,0,0,0-.681.7" transform="translate(26.985 44.109)" fill="#f79654"/><path d="M52.064,354.975c-1.449-.054-17.286-1.285-17.273-1.349q-.755,3.771-1.509,7.542a3.464,3.464,0,0,1-.425,1.254,3.291,3.291,0,0,1-1.516,1.057c-9.329,4.052-20.1,4.136-29.151,8.771a4.706,4.706,0,0,0-1.626,1.182,3.441,3.441,0,0,0-.036,3.712,7.583,7.583,0,0,0,3.653,3.365H39.7a16.649,16.649,0,0,0,9.01-4.813c.282-.28.619-.591,1.013-.537.425.059.667.508.831.905a39.071,39.071,0,0,1,1.451,4.137l9.633.565a72.835,72.835,0,0,0,6.519-17.046c.636-2.918,1.235-5.846,1.827-8.78-5.88-.442-11.991.252-17.921.033" transform="translate(0 139.659)" fill="#222221"/><path d="M88.665,203.491c-.287.756-3.658,4.588-4.331,4.715-6.959,1.306-5.506.335-6.227.276-12.183-10.2-25.544-41.456-28.019-55.446-.954-5.391.382-10.977,1.562-16.324.527-2.39,4.381-10.23,10.373-14.517,3.246-2.323,8.679-4.447,16.364-5.623,1.368,2.119,2.006,5.065,3.25,8.318,1.755,4.589,3.529,9.257,3.787,14.22a15.876,15.876,0,0,1-1.723,8.745c-.677,1.187-2.483,2.318-2.947,3.439-.753,1.815.448,3.888,1.243,5.675a100.77,100.77,0,0,1,8.276,31.809,32.748,32.748,0,0,1-1.608,14.714" transform="translate(19.653 46.039)" fill="#efb68f"/><path d="M66.655,181.428a14.569,14.569,0,0,0,1.918,18.141,17.117,17.117,0,0,0,5.915,4.111,5.047,5.047,0,0,0,1.964.452,4.88,4.88,0,0,0,2.235-.861c10.726-6.445,18.993-16.446,24.922-27.465s10.654-24.922,15-35.985c.13-.329-8.743-7.954-10.341-8.289,0,0-6.308,7.791-9.548,11.419-9.639,10.788-22.876,23.142-31.841,38.119-.074.123-.148.243-.22.357" transform="translate(25.414 51.947)" fill="#efb68f"/><path d="M145.38,147.3a28.332,28.332,0,0,0-2.751,3.118c-7.03,9.261-16.66,16.724-25.159,24.628a3.021,3.021,0,0,0-.831,1.045c-1.087,2.781,3.3,13.126,7.044,12.236,9.5-2.258,18.836-8.534,26.759-13.983,4.885-3.359,9.866-6.742,13.954-11.079,3.616-3.837,7.566-10.166,6.446-15.676-1.58-7.767-11.42-8.6-17.4-5.85a28.716,28.716,0,0,0-8.06,5.562" transform="translate(45.998 55.41)" fill="#efb68f"/><path d="M103.056,119.388c-3.352,3.087-5.786,7.258-4.776,11.95.483,2.242,4.017,1.688,3.532-.568-.741-3.441,1.059-6.358,3.517-8.619,1.686-1.553-.572-4.328-2.272-2.763" transform="translate(38.723 46.967)" fill="#efb68f"/><path d="M138.61,155.557H104.452a2.444,2.444,0,0,1-2.444-2.444v-49.3a2.443,2.443,0,0,1,2.444-2.444h35.216a1.386,1.386,0,0,1,1.385,1.385v50.363a2.444,2.444,0,0,1-2.444,2.444" transform="translate(40.286 40.032)" fill="#b8d0f3"/><path d="M116.5,118.521c-5.352,1.19-10.163,2.567-14.965,6.418-2.984,2.394-.117,4.581,1.889,3.232a40.944,40.944,0,0,1,14.071-6.041c2.352-.522,1.356-4.132-.995-3.609" transform="translate(39.593 46.787)" fill="#efb68f"/><path d="M119.921,121.138c-6.122,1.548-11.84,4.246-17.515,6.964-2.172,1.039-.275,4.268,1.889,3.232,5.391-2.582,10.8-5.114,16.619-6.585,2.337-.59,1.348-4.2-.993-3.61" transform="translate(40.064 47.816)" fill="#efb68f"/><path d="M119.058,124.843a7.051,7.051,0,0,0-3.466.559q-2.086.617-4.105,1.431a50.152,50.152,0,0,0-7.591,3.835c-2.046,1.264-.167,4.5,1.889,3.232a45.63,45.63,0,0,1,6.3-3.292q1.586-.665,3.221-1.2.8-.262,1.6-.494a5.572,5.572,0,0,0,1.244-.385,1.771,1.771,0,0,0,1.678-.5l.054-.06a1.891,1.891,0,0,0-.826-3.127" transform="translate(40.683 49.275)" fill="#efb68f"/><path d="M116.14,128.547a48.06,48.06,0,0,0-11.15,5.207c-2.059,1.243-.18,4.482,1.889,3.232a44.265,44.265,0,0,1,10.256-4.829c2.3-.7,1.32-4.313-.995-3.61" transform="translate(41.112 50.732)" fill="#efb68f"/><path d="M112.4,135.617a2.53,2.53,0,0,1,.36,1.716,4.252,4.252,0,0,1-.929,2.049c-1.714,2.434-3.794,4.822-6.619,5.764a8.313,8.313,0,0,1-7.6-1.3c-2.113-1.64-3.521-1.7-3.33-4.369a31.052,31.052,0,0,1,1.762-5.46c1.087-2.712,4.93-10.274,8.445-10.938,2.606-.492,4.206,7.721,7.906,12.535" transform="translate(37.231 48.601)" fill="#efb68f"/><path d="M118.329,105.409a1.6,1.6,0,1,1-1.6-1.6,1.6,1.6,0,0,1,1.6,1.6" transform="translate(45.466 40.996)" fill="#222221"/><path d="M50,161.922c5.521-1.029,11.125-1.278,16.709-2.009,6.958-.911,13.843-2.124,20.835-2.78a1.591,1.591,0,0,0,.166-.156,3.539,3.539,0,0,0,.579-1.753c1.772-12.977-1.385-26.6-3.1-39.45a1.105,1.105,0,0,0-1.568-1.148c-6.982,1.177-14.182,2.437-20.125,6.287-.59.382-1.124.833-1.679,1.26a40.127,40.127,0,0,0-8.086,10.335c-4.852,9.264-4.638,19.342-3.956,29.434l.226-.02" transform="translate(19.514 45.247)" fill="#f79654"/><path d="M73.3,182.051a4.883,4.883,0,0,1-1.549-.249,5.04,5.04,0,0,1-3.156-3.215.5.5,0,0,1,.954-.3,3.957,3.957,0,0,0,6.074,2.034.5.5,0,1,1,.582.814A5.025,5.025,0,0,1,73.3,182.051Z" transform="translate(27.281 70.471)" fill="#222221"/><path d="M93.463,114.351c.518-2.277,1.035-4.552,1.656-6.8a44.832,44.832,0,0,1,3.215-8.629c1.271-2.469,2.122-4.9,3.288-7.386a9.49,9.49,0,0,1,7.3-5.073c2.016-.239,4.073-.067,6.071-.43,2.929-.531,5.758-2.416,6.714-5.237s-.541-6.438-3.423-7.184c-2.35-.608-4.331.739-6.587.975-2.383.25-3.164-.427-5.312-.82-4.72-.865-8.706.329-13.045,2.27L84.71,79.895a17.5,17.5,0,0,0-5.429,3.271c-3.669,3.676-3.387,9.7-5.8,14.294-2.034,3.868-5.947,6.637-7.368,10.769-.615,1.787-.716,3.711-1.232,5.527-.8,2.821-2.593,5.368-2.839,8.289-.413,4.927,6.422,7.462,10.348,8.166a47,47,0,0,0,7.237.725c2.868.064,6.911.1,9.043-2.131a8.74,8.74,0,0,0,1.706-3.112,91.911,91.911,0,0,0,3.091-11.341" transform="translate(24.494 29.01)" fill="#222221"/><path d="M89.685,98.115a6.507,6.507,0,0,1-5.355-.621,4.6,4.6,0,0,1-1.759-1.819,4.394,4.394,0,0,1-.169-3.222,5.82,5.82,0,0,1,6.393-3.877c2.042.377,2.595,1.575,3.363,3.505s-1.354,4.284-2.473,6.033" transform="translate(32.454 34.949)" fill="#efb68f"/><path d="M92.749,205.152a.5.5,0,0,1-.113-.987,9.2,9.2,0,0,0,5.959-5.477,24.763,24.763,0,0,0,1.646-8.473,136.134,136.134,0,0,0-.232-20.657.5.5,0,1,1,1-.087,137.138,137.138,0,0,1,.234,20.809,25.992,25.992,0,0,1-1.73,8.813,10.2,10.2,0,0,1-6.646,6.046A.5.5,0,0,1,92.749,205.152Z" transform="translate(36.63 66.947)" fill="#222221"/><path d="M122.4,166.147a30.918,30.918,0,0,1-4.278,1.129l-3.79.679c-1.431.257-3.694.53-4.607,1.813-1,1.4-.559,3.776-.264,5.312a18.842,18.842,0,0,0,2.337,6.965c1.97,2.977,4.768,3.727,7.913,2.229a68.987,68.987,0,0,0,11.957-6.753c3.3-2.479,6.753-5.475,7.354-9.562.321-2.182-.5-4.754-2.547-5.576-1.449-.583-3.088-.152-4.581.308-3.165.979-6.311,2.4-9.494,3.455" transform="translate(43.089 64.019)" fill="#efb68f"/><path d="M120.928,175.6a42.23,42.23,0,0,1-14.891,3.229,1.767,1.767,0,0,0-.957-.042l-.735.174c-2.016.477-1.565,3.6.485,3.589a44.844,44.844,0,0,0,17.07-3.426c2.141-.89,1.2-4.428-.972-3.525" transform="translate(40.695 69.294)" fill="#efb68f"/><path d="M119.405,169.346q-9.186,1.956-18.508,3.033c-2.31.264-2.337,3.921,0,3.655q9.82-1.119,19.48-3.164c2.3-.488,1.325-4.013-.972-3.524" transform="translate(39.16 66.862)" fill="#efb68f"/><path d="M116.284,173.179a65.013,65.013,0,0,1-14.185,1.836c-2.349.045-2.356,3.7,0,3.655a69.65,69.65,0,0,0,15.156-1.965c2.285-.557,1.317-4.082-.971-3.525" transform="translate(39.625 68.371)" fill="#efb68f"/><path d="M118.438,166.43l-17.444,2.429c-2.32.324-1.332,3.846.972,3.525l17.444-2.429c2.318-.324,1.331-3.846-.972-3.525" transform="translate(39.363 65.721)" fill="#efb68f"/><path d="M88.554,247.323a.5.5,0,0,1-.468-.675c4.129-11.056,8.192-23.326,11.147-33.665a.5.5,0,1,1,.962.275C97.233,223.621,93.161,235.919,89.022,247A.5.5,0,0,1,88.554,247.323Z" transform="translate(34.973 84.168)" fill="#222221"/><path d="M67.564,261.453h-.021a35.586,35.586,0,0,1-13.035-3.079.5.5,0,1,1,.41-.912,34.575,34.575,0,0,0,12.665,2.992.5.5,0,0,1-.02,1Z" transform="translate(21.608 101.86)" fill="#222221"/><path d="M114.372,263.311a18.835,18.835,0,0,1-3.165-.266.5.5,0,1,1,.168-.986,18.24,18.24,0,0,0,10.642-1.421.5.5,0,1,1,.421.907A19.255,19.255,0,0,1,114.372,263.311Z" transform="translate(43.953 103.114)" fill="#222221"/><path d="M88.278,94.931a.5.5,0,0,1-.439-.739,2.386,2.386,0,0,0-2.952-3.366.5.5,0,0,1-.357-.934,3.386,3.386,0,0,1,4.188,4.778A.5.5,0,0,1,88.278,94.931Z" transform="translate(33.454 35.615)" fill="#222221"/><path d="M98.09,95.929a6.618,6.618,0,0,1-2.436-.458.5.5,0,1,1,.369-.93,5.765,5.765,0,0,0,5.142-.491.5.5,0,0,1,.538.843A6.746,6.746,0,0,1,98.09,95.929Z" transform="translate(37.85 37.31)" fill="#222221"/><path d="M73.3,152.288a.5.5,0,0,1-.041-1l.957-.08.329-.028a56.837,56.837,0,0,1-2.436-22.753.5.5,0,0,1,1,.1,55.827,55.827,0,0,0,2.587,22.944.5.5,0,0,1-.433.656l-.958.08-.958.08Z" transform="translate(28.57 50.74)" fill="#222221"/><path d="M97.308,102.459a16.68,16.68,0,0,1-4.327-.563.5.5,0,0,1,.26-.966A16.016,16.016,0,0,0,105.531,99.2a.5.5,0,0,1,.517.856,16.95,16.95,0,0,1-6.347,2.24A17.127,17.127,0,0,1,97.308,102.459Z" transform="translate(36.773 39.344)" fill="#222221"/><path d="M97.818,129.631a.506.506,0,0,1-.059,0,.5.5,0,0,1-.438-.555,14.586,14.586,0,0,1,5.822-9.957.5.5,0,1,1,.589.808,13.627,13.627,0,0,0-5.418,9.265A.5.5,0,0,1,97.818,129.631Z" transform="translate(38.631 47.202)" fill="#222221"/><path d="M102.175,141.458a.5.5,0,0,1-.21-.954,12.33,12.33,0,0,0,5.865-5.764.5.5,0,1,1,.9.436,13.329,13.329,0,0,1-6.346,6.236A.5.5,0,0,1,102.175,141.458Z" transform="translate(40.352 53.299)" fill="#222221"/><path d="M244.77,320.469h0c.933,1.979.35,4.217-1.3,5l-49.323,23.259c-1.653.78-3.75-.194-4.683-2.173s-.35-4.215,1.3-5L240.09,318.3c1.65-.781,3.747.192,4.68,2.172" transform="translate(74.649 125.6)" fill="#222221"/><path d="M263.392,325.651a22.633,22.633,0,1,1-19.837-25.119,22.634,22.634,0,0,1,19.837,25.119" transform="translate(86.206 118.628)" fill="#f5e3da"/><path d="M240.941,346.145a23.458,23.458,0,0,1-2.726-.16,23.134,23.134,0,0,1,2.671-46.109,23.466,23.466,0,0,1,2.726.16,23.134,23.134,0,0,1-2.672,46.109Zm-.054-45.269a22.133,22.133,0,0,0-2.555,44.116,22.457,22.457,0,0,0,2.609.153,22.133,22.133,0,0,0,2.555-44.116A22.465,22.465,0,0,0,240.887,300.876Z" transform="translate(86.206 118.628)" fill="#222221"/><path d="M257.907,323.933a18.335,18.335,0,1,1-16.07-20.349,18.335,18.335,0,0,1,16.07,20.349" transform="translate(87.423 119.845)" fill="#b8d0f3"/><path d="M239.338,330.135a16.026,16.026,0,0,1-15.513-12.476.5.5,0,1,1,.977-.212,15,15,0,0,0,15.68,11.642.5.5,0,1,1,.08,1Q239.95,330.135,239.338,330.135Z" transform="translate(88.589 125.412)" fill="#222221"/><rect width="166.075" height="86.639" transform="translate(265.774 318.516)" fill="#fdc9a6"/><path d="M265.62,271.28a1,1,0,0,1-.762-.352l-21.2-24.9-47.72,20.477a1,1,0,0,1-.789-1.838l48.4-20.768a1,1,0,0,1,1.156.271l21.195,24.884L355.422,228.5a1,1,0,0,1,.825,1.822L266.032,271.19A1,1,0,0,1,265.62,271.28Z" transform="translate(77.225 90.604)" fill="#222221"/><path d="M298.239,227.916l21.683-.663L311.4,244Z" transform="translate(117.784 89.75)" fill="#222221"/><rect width="9.187" height="40.531" transform="translate(276.25 360.214)" fill="#4e8ae1"/><rect width="9.329" height="49.674" transform="translate(293.286 351.07)" fill="#4e8ae1"/><rect width="8.989" height="55.945" transform="translate(310.322 344.798)" fill="#4e8ae1"/><rect width="8.307" height="45.203" transform="translate(327.359 355.541)" fill="#4e8ae1"/><rect width="9.505" height="35.95" transform="translate(344.395 364.795)" fill="#4e8ae1"/><rect width="9.187" height="40.531" transform="translate(361.43 360.214)" fill="#4e8ae1"/><rect width="9.149" height="51.332" transform="translate(378.466 349.413)" fill="#4e8ae1"/><rect width="8.632" height="58.421" transform="translate(395.503 342.324)" fill="#4e8ae1"/><rect width="9.123" height="65.376" transform="translate(412.539 335.367)" fill="#4e8ae1"/><path d="M302.324,291.366c-3.156,0-6.377-.048-11.452-.145a.5.5,0,1,1,.019-1c10.133.193,12.863.193,22.474,0a.5.5,0,1,1,.02,1C308.571,291.318,305.48,291.366,302.324,291.366Z" transform="translate(114.879 114.815)"/><path d="M247.976,291.365c-12.121,0-24.266-.048-43.665-.144a.5.5,0,0,1,0-1h0c38.8.192,48.573.192,87.18,0h0a.5.5,0,0,1,0,1C272.194,291.317,260.1,291.365,247.976,291.365Z" transform="translate(80.69 114.815)"/><rect width="169.395" height="83.194" transform="translate(173.506 17.745)" fill="#fdc9a6"/><path d="M137.285,1.5H0A1.5,1.5,0,0,1-1.5,0,1.5,1.5,0,0,1,0-1.5H137.285a1.5,1.5,0,0,1,1.5,1.5A1.5,1.5,0,0,1,137.285,1.5Z" transform="translate(195.441 36.482)" fill="#fff"/><path d="M137.285,1.5H0A1.5,1.5,0,0,1-1.5,0,1.5,1.5,0,0,1,0-1.5H137.285a1.5,1.5,0,0,1,1.5,1.5A1.5,1.5,0,0,1,137.285,1.5Z" transform="translate(195.441 55.294)" fill="#fff"/><path d="M137.285,1.5H0A1.5,1.5,0,0,1-1.5,0,1.5,1.5,0,0,1,0-1.5H137.285a1.5,1.5,0,0,1,1.5,1.5A1.5,1.5,0,0,1,137.285,1.5Z" transform="translate(195.441 74.104)" fill="#fff"/><rect width="169.395" height="83.194" transform="translate(208.19 43.758)" fill="#f79654"/><path d="M137.287,1.5H0A1.5,1.5,0,0,1-1.5,0,1.5,1.5,0,0,1,0-1.5H137.287a1.5,1.5,0,0,1,1.5,1.5A1.5,1.5,0,0,1,137.287,1.5Z" transform="translate(230.123 62.494)" fill="#fff"/><path d="M137.287,1.5H0A1.5,1.5,0,0,1-1.5,0,1.5,1.5,0,0,1,0-1.5H137.287a1.5,1.5,0,0,1,1.5,1.5A1.5,1.5,0,0,1,137.287,1.5Z" transform="translate(230.123 81.305)" fill="#fff"/><path d="M137.287,1.5H0A1.5,1.5,0,0,1-1.5,0,1.5,1.5,0,0,1,0-1.5H137.287a1.5,1.5,0,0,1,1.5,1.5A1.5,1.5,0,0,1,137.287,1.5Z" transform="translate(230.123 100.117)" fill="#fff"/><path d="M269.551,91.1h0c-11.068-.017-22.126-.017-32.867,0a.5.5,0,1,1,0-1c10.742-.017,21.8-.017,32.87,0a.5.5,0,0,1,0,1Z" transform="translate(93.474 35.777)"/><path d="M258.882,91.1h0c-34.944-.017-68.837-.017-103.615,0a.5.5,0,0,1,0-1c34.778-.017,68.671-.017,103.616,0a.5.5,0,0,1,0,1Z" transform="translate(61.32 35.777)"/><path d="M0,65.048a.5.5,0,0,1-.5-.5V0A.5.5,0,0,1,0-.5.5.5,0,0,1,.5,0V64.548A.5.5,0,0,1,0,65.048Z" transform="translate(207.433 50.269)"/><rect width="169.394" height="84.458" transform="translate(385.599 127.101)" fill="#fdc9a6"/><rect width="25.425" height="78.516" transform="translate(520.757 183.289) rotate(-61.113)" fill="#f79654"/><path d="M359.875,113.584l18.738,24.856,12.281-22.26Z" transform="translate(142.126 44.858)" fill="#edbf34"/><path d="M359.875,113.584l18.738,24.856,12.281-22.26Z" transform="translate(142.126 44.858)" fill="#fff"/><path d="M368.751,125.357l5.817-10.544-14.693-1.229Z" transform="translate(142.126 44.858)" fill="#222221"/><path d="M69.4,38.79a.5.5,0,0,1-.241-.062L-.242.438a.5.5,0,0,1-.2-.679.5.5,0,0,1,.679-.2l69.4,38.289a.5.5,0,0,1-.242.938Z" transform="translate(524.419 175.079)" fill="#222221"/><path d="M69.4,38.79a.5.5,0,0,1-.241-.062L-.242.438a.5.5,0,0,1-.2-.679.5.5,0,0,1,.679-.2l69.4,38.289a.5.5,0,0,1-.242.938Z" transform="translate(528.031 168.533)" fill="#222221"/><rect width="27.456" height="27.456" transform="translate(396.031 140.008)" fill="#fff"/><rect width="27.456" height="27.456" transform="translate(446.609 140.008)" fill="#fff"/><rect width="27.456" height="27.456" transform="translate(396.031 171.8)" fill="#fff"/><rect width="27.456" height="27.456" transform="translate(446.609 171.8)" fill="#fff"/><path d="M299.393,123.719a1,1,0,0,1-.707-.293l-14.451-14.45a1,1,0,1,1,1.414-1.414l13.673,13.671,19.532-23.716a1,1,0,1,1,1.544,1.271l-20.232,24.566a1,1,0,0,1-.724.363Z" transform="translate(112.533 38.764)" fill="#222221"/><path d="M299.393,146.512a1,1,0,0,1-.707-.293l-14.451-14.452a1,1,0,1,1,1.414-1.414l13.673,13.673,19.532-23.717a1,1,0,0,1,1.544,1.271l-20.232,24.568a1,1,0,0,1-.724.363Z" transform="translate(112.533 47.765)" fill="#222221"/><path d="M337.724,123.719a1,1,0,0,1-.707-.293l-14.452-14.45a1,1,0,1,1,1.414-1.414l13.673,13.671,19.532-23.716a1,1,0,1,1,1.544,1.271L338.5,123.355a1,1,0,0,1-.724.363Z" transform="translate(127.671 38.764)" fill="#222221"/><path d="M337.724,146.512a1,1,0,0,1-.707-.293l-14.451-14.452a1,1,0,1,1,1.414-1.414l13.673,13.673,19.532-23.717a1,1,0,1,1,1.544,1.271L338.5,146.147a1,1,0,0,1-.724.363Z" transform="translate(127.671 47.765)" fill="#222221"/><path d="M435.834,170.671a.5.5,0,0,1-.243-.063l-46.785-25.964a.5.5,0,1,1,.485-.874l46.346,25.721,11.792-21.371-35.489-18.4a.5.5,0,0,1,.46-.888l35.945,18.638a.5.5,0,0,1,.208.685l-12.282,22.259a.5.5,0,0,1-.438.258Z" transform="translate(153.649 51.055)" fill="#222221"/><path d="M22.4.5H0A.5.5,0,0,1-.5,0,.5.5,0,0,1,0-.5H22.4a.5.5,0,0,1,.5.5A.5.5,0,0,1,22.4.5Z" transform="translate(502.84 211.228)"/><path d="M333.024,152.093c-15.671,0-31.272-.056-46.366-.168a.5.5,0,0,1,0-1h0c30.184.224,62.392.224,93.142,0h0a.5.5,0,0,1,0,1C364.437,152.037,348.7,152.093,333.024,152.093Z" transform="translate(113.212 59.803)"/><rect width="169.394" height="86.819" transform="translate(341.621 220.402)" fill="#fdc9a6"/><path d="M285.277,171.787a27.759,27.759,0,1,1-27.759,27.759,27.76,27.76,0,0,1,27.759-27.759" transform="translate(101.702 67.844)" fill="#fff"/><path d="M277.731,202.3l-1.106-37.478c.368-.011.738-.017,1.106-.017A37.674,37.674,0,0,1,315.226,202.3Z" transform="translate(109.248 65.088)" fill="#f79654"/><path d="M286.64,191.687l-19.773,25.886q-.624-.477-1.226-.983a32.589,32.589,0,0,1-11.575-24.745Z" transform="translate(100.339 75.704)" fill="#4e8ae1"/></g><g transform="translate(443.711 237.365)"><g clip-path="url(#f)"><path d="M371.842,202.372A27.116,27.116,0,1,1,350.3,170.647a27.145,27.145,0,0,1,21.543,31.725M330.683,194.5a14.789,14.789,0,1,0,17.3-11.748,14.806,14.806,0,0,0-17.3,11.748" transform="translate(-318.087 -170.162)" fill="#f79654"/></g></g><g transform="translate(443.712 237.365)"><g clip-path="url(#g)"><path d="M310.767,191.3l37.56,7.8L327.4,166.4Z" transform="translate(-320.979 -171.648)" fill="#fff"/><path d="M317.8,176.049l30.7,23L344.93,163.4Z" transform="translate(-318.203 -172.831)" fill="#b8d0f3"/><path d="M345.357,162.652l3.749,37.482-32.278-24.185Zm2.527,35.317L344.5,164.154l-25.739,12Z" transform="translate(-318.203 -172.831)" fill="#b8d0f3"/><path d="M336.35,164.17l1.526,35.7,29.148-22.86Z" transform="translate(-310.876 -172.528)" fill="#4e8ae1"/><path d="M355.784,222.506l-12.369-32.587-18.791,28.374Z" transform="translate(-315.507 -162.359)"/></g></g></g></g><g transform="translate(8187.933 9391.714)"><circle cx="24" cy="24" r="24" transform="translate(-7528 -8155)" fill="#5adfe8"/><text transform="translate(-7515 -8117)" fill="#12263f" font-size="40" font-family="Roboto-Bold, Roboto" font-weight="700" letter-spacing="0.003em"><tspan x="0" y="0">+</tspan></text></g><g transform="translate(8299 9548.692)"><circle cx="24" cy="24" r="24" transform="translate(-7528 -8155)" fill="#5adfe8"/><text transform="translate(-7515 -8117)" fill="#12263f" font-size="40" font-family="Roboto-Bold, Roboto" font-weight="700" letter-spacing="0.003em"><tspan x="0" y="0">+</tspan></text></g><g transform="translate(8494.933 9456.714)"><circle cx="24" cy="24" r="24" transform="translate(-7528 -8155)" fill="#5adfe8"/><text transform="translate(-7515 -8117)" fill="#12263f" font-size="40" font-family="Roboto-Bold, Roboto" font-weight="700" letter-spacing="0.003em"><tspan x="0" y="0">+</tspan></text></g><g transform="translate(8451.933 9698.714)"><circle cx="24" cy="24" r="24" transform="translate(-7528 -8155)" fill="#5adfe8"/><text transform="translate(-7515 -8117)" fill="#12263f" font-size="40" font-family="Roboto-Bold, Roboto" font-weight="700" letter-spacing="0.003em"><tspan x="0" y="0">+</tspan></text></g></g></svg>