<svg xmlns="http://www.w3.org/2000/svg" xmlns:xlink="http://www.w3.org/1999/xlink" width="87.101" height="80" viewBox="0 0 87.101 80"><defs><clipPath id="a"><rect width="87.101" height="80" fill="none"/></clipPath></defs><path d="M37.557,43.28l-5.523,3.213L24.9,42.376V34.142l7.129-4.117,7.13,4.117v8.234Z" transform="translate(14.454 18.933)" fill="#fff"/><path d="M19.883,20.485,24.9,17.573l7.129,4.117v8.234L24.9,34.041l-7.129-4.117V21.69Z" transform="translate(10.315 11.081)" fill="#fff"/><g transform="translate(0 0)"><g clip-path="url(#a)"><path d="M12.773,17.071h7.391L25.091,22l-3.042,1.739V35.622l10.29,5.94V53.448L42.627,59.39,50.6,54.751l4.639,4.639H65.816A34.357,34.357,0,0,1,8.134,34.172a33.654,33.654,0,0,1,4.639-17.1" transform="translate(3.605 7.566)" fill="#fff"/><path d="M64.536,64.876H53.956l-4.637-4.637,2.319-1.3V47.049l10.143-6.086V29.08L51.492,23.138,41.2,29.08l-10.29-5.942-7.248,4.2-4.927-4.927H11.347A34.429,34.429,0,0,1,75.7,39.514,35.255,35.255,0,0,1,64.536,64.876m1.3-14.493a1.883,1.883,0,1,0-1.883,1.885,1.918,1.918,0,0,0,1.883-1.885" transform="translate(5.029 2.225)" fill="#b8d0f3"/><path d="M8.745,49a3.623,3.623,0,1,1-3.624,3.623A3.589,3.589,0,0,1,8.745,49" transform="translate(2.27 21.72)" fill="#b8d0f3"/><path d="M11.591,3.816A2.752,2.752,0,0,1,14.344,6.57a2.666,2.666,0,0,1-2.754,2.754A2.665,2.665,0,0,1,8.837,6.57a2.752,2.752,0,0,1,2.754-2.754" transform="translate(3.917 1.691)" fill="#fff"/><path d="M56.109,1.305A4.493,4.493,0,1,1,51.615,5.8a4.424,4.424,0,0,1,4.494-4.493" transform="translate(22.878 0.578)" fill="#b8d0f3"/><path d="M26.64,24.636a2.767,2.767,0,1,1-3.913,3.913,2.767,2.767,0,0,1,3.913-3.913" transform="translate(9.736 10.582)" fill="#b8d0f3"/><path d="M35.477,37.188A2.767,2.767,0,0,1,31.565,41.1a2.767,2.767,0,1,1,3.913-3.913" transform="translate(13.653 16.145)" fill="#b8d0f3"/><path d="M52.613,23.615V35.355L42.323,41.3l-10.29-5.942V23.615l10.29-5.942Z" transform="translate(14.198 7.833)" fill="#fff"/><path d="M50.889,52.82A1.884,1.884,0,1,1,49,54.7a1.919,1.919,0,0,1,1.886-1.885" transform="translate(21.72 23.412)" fill="#4e8ae1"/><path d="M48.379,35.247a1.884,1.884,0,1,1-1.885,1.885,1.919,1.919,0,0,1,1.885-1.885" transform="translate(20.608 15.623)" fill="#4e8ae1"/><path d="M47.174,1.305A1.919,1.919,0,0,1,49.057,3.19a1.89,1.89,0,0,1-1.883,1.739A2.016,2.016,0,0,1,45.289,3.19a2.026,2.026,0,0,1,1.885-1.885" transform="translate(20.074 0.578)" fill="#4e8ae1"/><path d="M37.132,11.347a1.92,1.92,0,0,1,1.885,1.885,1.891,1.891,0,0,1-1.885,1.738,2.014,2.014,0,0,1-1.885-1.738,1.92,1.92,0,0,1,1.885-1.885" transform="translate(15.623 5.029)" fill="#4e8ae1"/><path d="M28.295,11.347a1.92,1.92,0,0,1,1.885,1.885,1.8,1.8,0,0,1-1.885,1.738,1.918,1.918,0,0,1-1.885-1.883,2.016,2.016,0,0,1,1.885-1.739" transform="translate(11.706 5.029)" fill="#4e8ae1"/><path d="M19.558,36.452a1.92,1.92,0,0,1,1.885,1.885,1.894,1.894,0,0,1-1.885,1.739,2.026,2.026,0,0,1-1.885-1.885,1.8,1.8,0,0,1,1.885-1.739" transform="translate(7.833 16.157)" fill="#4e8ae1"/><path d="M18.253,52.82A1.884,1.884,0,1,1,16.368,54.7a1.919,1.919,0,0,1,1.885-1.885" transform="translate(7.255 23.412)" fill="#4e8ae1"/><path d="M5.7,41.473a1.884,1.884,0,1,1,0,3.768,1.919,1.919,0,0,1-1.883-1.883A2.026,2.026,0,0,1,5.7,41.473" transform="translate(1.691 18.382)" fill="#4e8ae1"/><path d="M28.6,43.782a2.072,2.072,0,0,1-.87-.29L17.439,37.55a1.664,1.664,0,0,1-.87-1.593V24.071a1.815,1.815,0,0,1,.87-1.593l10.289-5.942a2.137,2.137,0,0,1,1.883,0L39.9,22.478a1.816,1.816,0,0,1-1.739,3.188L28.743,20.3l-8.55,4.927v9.856l9.419,5.362a1.858,1.858,0,0,1,.726,2.464,2.507,2.507,0,0,1-1.739.87" transform="translate(7.344 7.232)" fill="#4e8ae1"/><path d="M42.946,43.782a1.822,1.822,0,0,1-1.595-.87,1.86,1.86,0,0,1,.725-2.464L51.5,35.086V25.23L42.946,20.3,34.395,25.23V35.956a1.883,1.883,0,1,1-3.767,0V24.071a1.816,1.816,0,0,1,.869-1.593l10.29-5.942a2.137,2.137,0,0,1,1.883,0l10.29,5.942a1.661,1.661,0,0,1,.869,1.593V35.956a1.817,1.817,0,0,1-.869,1.593l-10.29,5.942a1.108,1.108,0,0,1-.725.29" transform="translate(13.575 7.232)" fill="#4e8ae1"/><path d="M35.727,56.132a2.082,2.082,0,0,1-.87-.289L24.568,49.9a1.666,1.666,0,0,1-.869-1.595V36.422a1.817,1.817,0,0,1,.869-1.593l10.289-5.942a2.15,2.15,0,0,1,1.885,0l10.29,5.942a1.665,1.665,0,0,1,.869,1.593V48.307a1.824,1.824,0,0,1-.869,1.595l-10.29,5.942a3.693,3.693,0,0,1-1.015.289m-8.55-8.84,8.55,4.927,8.551-4.927V37.437l-8.551-4.927-8.55,4.927Z" transform="translate(10.504 12.707)" fill="#4e8ae1"/><path d="M43.16,76.279A36.247,36.247,0,0,1,6.928,40.047,35.545,35.545,0,0,1,9.1,27.729a33.562,33.562,0,0,1,2.609-5.652A36.7,36.7,0,0,1,24.755,8.888,35.543,35.543,0,0,1,43.16,3.816,36.284,36.284,0,0,1,72.725,61.062a31.4,31.4,0,0,1-5.072,5.652A35.647,35.647,0,0,1,43.16,76.279m0-68.841A32.628,32.628,0,0,0,14.9,23.815a28.382,28.382,0,0,0-2.318,5.217A31.4,31.4,0,0,0,10.7,40.047,32.657,32.657,0,0,0,43.306,72.655a32.276,32.276,0,0,0,22.028-8.55,30.582,30.582,0,0,0,4.493-5.219,32.453,32.453,0,0,0,6.088-18.84A32.877,32.877,0,0,0,43.16,7.439" transform="translate(3.071 1.691)" fill="#4e8ae1"/><path d="M34.016,44.232a4.5,4.5,0,0,1-3.188-1.3,4.548,4.548,0,0,1,0-6.376,4.549,4.549,0,0,1,6.378,0,4.548,4.548,0,0,1,0,6.376,4.262,4.262,0,0,1-3.19,1.3m0-5.362a.577.577,0,0,0-.579.29,1.079,1.079,0,0,0,0,1.3c.29.29.434.29.579.29a.578.578,0,0,0,.58-.29,1.079,1.079,0,0,0,0-1.3.578.578,0,0,0-.58-.29" transform="translate(13.086 15.622)" fill="#4e8ae1"/><path d="M25.278,31.68a4.45,4.45,0,1,1,3.19-1.3,4.5,4.5,0,0,1-3.19,1.3m0-5.362a.577.577,0,0,0-.579.29c-.292.289-.292.434-.292.58a.576.576,0,0,0,.292.579c.29.29.434.29.579.29a.578.578,0,0,0,.58-.29c.29-.29.29-.434.29-.579a1.026,1.026,0,0,0-.87-.87" transform="translate(9.214 10.059)" fill="#4e8ae1"/><path d="M67.262,51.972h-22.9a1.769,1.769,0,0,1-1.3-.579L33.2,41.537a1.845,1.845,0,1,1,2.609-2.609L45.09,48.2H67.118A1.917,1.917,0,0,1,69,50.088a1.9,1.9,0,0,1-1.739,1.883" transform="translate(14.477 17.013)" fill="#4e8ae1"/><path d="M62.306,52.672H53.9a1.884,1.884,0,1,1,0-3.768h8.26a1.919,1.919,0,0,1,1.885,1.883,1.9,1.9,0,0,1-1.739,1.885" transform="translate(23.055 21.676)" fill="#4e8ae1"/><path d="M63.76,45.14H46.369a1.883,1.883,0,0,1,0-3.767H63.76a1.883,1.883,0,1,1,0,3.767" transform="translate(19.718 18.338)" fill="#4e8ae1"/><path d="M32.366,29.389a1.771,1.771,0,0,1-1.3-.58l-9.276-9.276H4.395a1.883,1.883,0,1,1,0-3.767H22.51a1.771,1.771,0,0,1,1.3.579L33.669,26.2a1.885,1.885,0,0,1-1.3,3.188" transform="translate(1.113 6.988)" fill="#4e8ae1"/><path d="M7.391,15.718H1.885a1.884,1.884,0,1,1,0-3.768H7.391a1.884,1.884,0,1,1,0,3.768" transform="translate(0 5.297)" fill="#4e8ae1"/><path d="M15.944,23.249H3.19a1.884,1.884,0,1,1,0-3.768H15.944a1.919,1.919,0,0,1,1.883,1.885,2.149,2.149,0,0,1-1.883,1.883" transform="translate(0.578 8.635)" fill="#4e8ae1"/><path d="M43.843,26.362H38.337a1.884,1.884,0,1,1,0-3.768h5.506a1.919,1.919,0,0,1,1.885,1.883,2.151,2.151,0,0,1-1.885,1.885" transform="translate(16.157 10.014)" fill="#4e8ae1"/><path d="M43.264,30.077H39.64a1.884,1.884,0,0,1,0-3.768h3.624a1.919,1.919,0,0,1,1.885,1.883,2.153,2.153,0,0,1-1.885,1.885" transform="translate(16.736 11.661)" fill="#4e8ae1"/><path d="M9.323,58.714a5.507,5.507,0,1,1,5.507-5.507,5.5,5.5,0,0,1-5.507,5.507m0-7.246a1.884,1.884,0,1,0,1.885,1.883,1.827,1.827,0,0,0-1.885-1.883" transform="translate(1.692 21.142)" fill="#4e8ae1"/><path d="M12.125,11.6A4.493,4.493,0,1,1,16.618,7.1,4.516,4.516,0,0,1,12.125,11.6m0-5.363a.935.935,0,0,0-.87.87.935.935,0,0,0,.87.869.934.934,0,0,0,.869-.869.835.835,0,0,0-.869-.87" transform="translate(3.383 1.157)" fill="#4e8ae1"/><path d="M56.688,12.754a6.435,6.435,0,0,1-6.379-6.376,6.377,6.377,0,1,1,12.754,0,6.432,6.432,0,0,1-6.375,6.376m0-8.986a2.751,2.751,0,0,0-2.755,2.754,2.753,2.753,0,1,0,5.506,0,2.75,2.75,0,0,0-2.751-2.754" transform="translate(22.299 0)" fill="#4e8ae1"/></g></g></svg>