<svg xmlns="http://www.w3.org/2000/svg" width="31.541" height="72.809" viewBox="0 0 31.541 72.809"><g transform="translate(31.541 53.214) rotate(90)"><g transform="translate(-53.214 0)"><path d="M62.812,0C59.948,0,58.534,2.388,57.4,4.309c-1.15,1.943-1.929,3.133-3.4,3.133s-2.244-1.191-3.392-3.133C49.476,2.388,48.062,0,45.2,0s-4.277,2.388-5.413,4.309c-1.149,1.943-1.928,3.133-3.393,3.133S34.151,6.251,33,4.309C31.866,2.388,30.453,0,27.59,0s-4.276,2.39-5.41,4.31c-1.149,1.941-1.927,3.132-3.39,3.132S16.548,6.251,15.4,4.31C14.264,2.388,12.851,0,9.989,0S5.714,2.388,4.579,4.31C3.43,6.251,2.652,7.442,1.188,7.442a1.241,1.241,0,0,0,0,2.48c2.861,0,4.275-2.388,5.41-4.309C7.746,3.671,8.525,2.48,9.989,2.48s2.241,1.191,3.39,3.133c1.136,1.92,2.549,4.309,5.41,4.309S23.064,7.534,24.2,5.613C25.347,3.671,26.125,2.48,27.59,2.48s2.243,1.191,3.392,3.133c1.136,1.92,2.549,4.309,5.412,4.309s4.276-2.388,5.413-4.309C42.954,3.671,43.733,2.48,45.2,2.48s2.243,1.191,3.392,3.133C49.725,7.534,51.14,9.922,54,9.922s4.279-2.388,5.414-4.309c1.15-1.943,1.929-3.133,3.394-3.133s2.245,1.191,3.4,3.133c1.136,1.92,2.551,4.309,5.414,4.309a1.241,1.241,0,0,0,0-2.48c-1.466,0-2.245-1.191-3.4-3.133C67.09,2.388,65.677,0,62.812,0Z" transform="translate(0 21.619)" fill="#fdc9a6"/><path d="M62.812,0C59.948,0,58.534,2.39,57.4,4.309c-1.15,1.944-1.929,3.135-3.4,3.135S51.759,6.253,50.611,4.31C49.476,2.39,48.062,0,45.2,0s-4.277,2.39-5.413,4.31c-1.149,1.943-1.928,3.133-3.393,3.133S34.151,6.253,33,4.31C31.866,2.39,30.453,0,27.59,0s-4.276,2.391-5.41,4.31c-1.149,1.943-1.927,3.133-3.39,3.133S16.548,6.253,15.4,4.31C14.264,2.39,12.851,0,9.989,0S5.714,2.39,4.579,4.31C3.43,6.253,2.652,7.443,1.188,7.443a1.241,1.241,0,0,0,0,2.48c2.861,0,4.275-2.39,5.41-4.31,1.148-1.941,1.927-3.132,3.39-3.132s2.241,1.191,3.39,3.132c1.136,1.92,2.549,4.31,5.41,4.31s4.275-2.39,5.409-4.31c1.149-1.941,1.927-3.132,3.392-3.132s2.243,1.191,3.392,3.132c1.136,1.92,2.549,4.31,5.412,4.31s4.276-2.39,5.413-4.31c1.148-1.941,1.927-3.132,3.393-3.132s2.243,1.191,3.392,3.132c1.134,1.92,2.549,4.31,5.412,4.31s4.279-2.39,5.414-4.31c1.15-1.941,1.929-3.132,3.394-3.132s2.245,1.191,3.4,3.132c1.136,1.92,2.551,4.31,5.414,4.31a1.241,1.241,0,0,0,0-2.48c-1.466,0-2.245-1.191-3.4-3.133C67.09,2.39,65.677,0,62.812,0Z" transform="translate(0 10.808)" fill="#fdc9a6"/><path d="M62.812,0C59.948,0,58.534,2.388,57.4,4.309c-1.15,1.943-1.929,3.133-3.4,3.133s-2.244-1.191-3.392-3.133C49.476,2.388,48.062,0,45.2,0s-4.277,2.388-5.413,4.309c-1.149,1.943-1.928,3.133-3.393,3.133S34.151,6.251,33,4.309C31.866,2.388,30.453,0,27.59,0s-4.276,2.388-5.41,4.309c-1.149,1.943-1.927,3.133-3.39,3.133S16.548,6.251,15.4,4.309C14.264,2.388,12.851,0,9.989,0S5.714,2.388,4.579,4.309C3.43,6.251,2.652,7.442,1.188,7.442a1.241,1.241,0,0,0,0,2.48c2.861,0,4.275-2.39,5.41-4.31C7.746,3.671,8.525,2.48,9.989,2.48s2.241,1.191,3.39,3.132c1.136,1.92,2.549,4.31,5.41,4.31s4.275-2.39,5.409-4.309C25.347,3.671,26.125,2.48,27.59,2.48s2.243,1.191,3.392,3.133c1.136,1.919,2.549,4.309,5.412,4.309s4.276-2.39,5.413-4.309C42.954,3.671,43.733,2.48,45.2,2.48s2.243,1.191,3.392,3.133C49.725,7.532,51.14,9.922,54,9.922s4.279-2.39,5.414-4.309c1.15-1.943,1.929-3.133,3.394-3.133s2.245,1.191,3.4,3.133c1.136,1.919,2.551,4.309,5.414,4.309a1.241,1.241,0,0,0,0-2.48c-1.466,0-2.245-1.191-3.4-3.133C67.09,2.388,65.677,0,62.812,0Z" fill="#fdc9a6"/></g></g></svg>