<svg xmlns="http://www.w3.org/2000/svg" xmlns:xlink="http://www.w3.org/1999/xlink" width="76.929" height="80" viewBox="0 0 76.929 80"><defs><clipPath id="a"><rect width="76.929" height="80" fill="none"/></clipPath></defs><g transform="translate(0 0)" clip-path="url(#a)"><path d="M41.836,3.731A28,28,0,0,0,13.913,31.654a29.919,29.919,0,0,0,2.513,11.728A27.776,27.776,0,0,0,29.969,56.924a28.4,28.4,0,0,0,11.866,2.652,27.923,27.923,0,1,0,0-55.845" transform="translate(5.353 1.436)" fill="#fff"/><path d="M43.58,16.334V40.766H36.6V16.334Z" transform="translate(14.082 6.285)" fill="#b8d0f3"/><path d="M33.5,20.669V39.1H26.516V20.669Z" transform="translate(10.203 7.953)" fill="#b8d0f3"/><path d="M48.621,13.813V41.736H41.64V13.813Z" transform="translate(16.022 5.315)" fill="#b8d0f3"/><path d="M38.538,18.451v21.5H31.557v-21.5Z" transform="translate(12.142 7.1)" fill="#b8d0f3"/><rect width="6.981" height="13.961" transform="translate(29.738 33.089)" fill="#b8d0f3"/><path d="M13.944,1.109a2.653,2.653,0,1,1-2.652,2.653,2.653,2.653,0,0,1,2.652-2.653" transform="translate(4.345 0.427)" fill="#fff"/><path d="M4.8,26.416a3.49,3.49,0,1,1-3.49,3.49,3.49,3.49,0,0,1,3.49-3.49" transform="translate(0.504 10.164)" fill="#fff"/><path d="M48.487,46.58a4.328,4.328,0,1,1-4.327,4.329,4.328,4.328,0,0,1,4.327-4.329" transform="translate(16.992 17.923)" fill="#fff"/><path d="M9.967,56.819a1.815,1.815,0,1,0-1.815,1.814,1.951,1.951,0,0,0,1.815-1.814m16.753-8.8L13.177,61.566A7.01,7.01,0,0,1,8.292,63.66,6.774,6.774,0,0,1,3.4,61.566a6.914,6.914,0,0,1,0-9.914L16.948,38.111Z" transform="translate(0.504 14.664)" fill="#fff"/><path d="M30.877,45.907h0L24.734,52.05l-1.815-1.815-9.912-9.912-1.815-1.814,6.143-6.144h.14a28.676,28.676,0,0,0,13.4,13.543" transform="translate(4.306 12.453)" fill="#fff"/><path d="M53.4,39.018a1.676,1.676,0,1,1-1.676,1.676A1.675,1.675,0,0,1,53.4,39.018" transform="translate(19.901 15.013)" fill="#4e8ae1"/><path d="M52.188,3.731a1.675,1.675,0,1,1-1.676,1.674,1.675,1.675,0,0,1,1.676-1.674" transform="translate(19.436 1.436)" fill="#4e8ae1"/><path d="M38.274,47.89A1.676,1.676,0,1,1,36.6,49.566a1.675,1.675,0,0,1,1.676-1.676" transform="translate(14.082 18.427)" fill="#4e8ae1"/><path d="M24.461,52.931a1.676,1.676,0,1,1-1.676,1.676,1.676,1.676,0,0,1,1.676-1.676" transform="translate(8.767 20.367)" fill="#4e8ae1"/><path d="M21.941,0a1.676,1.676,0,1,1-1.676,1.676A1.676,1.676,0,0,1,21.941,0" transform="translate(7.798 0)" fill="#4e8ae1"/><path d="M6.818,12.6a1.676,1.676,0,1,1-1.676,1.676A1.675,1.675,0,0,1,6.818,12.6" transform="translate(1.979 4.849)" fill="#4e8ae1"/><path d="M4.3,36.5a1.676,1.676,0,1,1-1.676,1.676A1.676,1.676,0,0,1,4.3,36.5" transform="translate(1.009 14.044)" fill="#4e8ae1"/><path d="M8.757,65.791a8.432,8.432,0,0,1-6.144-2.512A8.432,8.432,0,0,1,.1,57.135a9.032,9.032,0,0,1,2.512-6.143L16.156,37.449a1.777,1.777,0,0,1,2.513,2.513L4.988,53.367a5.388,5.388,0,0,0-1.536,3.768A5.65,5.65,0,0,0,4.988,60.9,5.15,5.15,0,0,0,8.757,62.44,5.391,5.391,0,0,0,12.527,60.9L26.07,47.363a1.776,1.776,0,1,1,2.512,2.512L15.04,63.418a9.777,9.777,0,0,1-6.283,2.374" transform="translate(0.039 14.209)" fill="#4e8ae1"/><path d="M25.239,54.22a1.706,1.706,0,0,1-1.257-.559l-13.543-13.4A2.089,2.089,0,0,1,9.88,39a1.712,1.712,0,0,1,.558-1.259L16.582,31.6a1.776,1.776,0,0,1,2.512,2.512L14.209,39,25.377,50.171l4.888-4.885A1.776,1.776,0,1,1,32.777,47.8l-6.143,6.144a4.156,4.156,0,0,1-1.4.278" transform="translate(3.802 11.959)" fill="#4e8ae1"/><path d="M7.322,49.1a3.49,3.49,0,1,1-3.491,3.491A3.491,3.491,0,0,1,7.322,49.1" transform="translate(1.474 18.893)" fill="#4e8ae1"/><path d="M42.34,5.91A26.307,26.307,0,0,0,16.093,32.158a27.487,27.487,0,0,0,2.374,11.03A26.148,26.148,0,0,0,31.171,55.893,25.623,25.623,0,0,0,42.34,58.405a26.248,26.248,0,0,0,0-52.5m0,55.847a29.538,29.538,0,0,1-12.564-2.792A28.861,28.861,0,0,1,15.395,44.584,29.71,29.71,0,1,1,72.079,32.158a29.644,29.644,0,0,1-29.739,29.6" transform="translate(4.849 0.931)" fill="#4e8ae1"/><path d="M21.576,24.448a1.261,1.261,0,0,1-.7-.14,1.752,1.752,0,0,1-.978-2.235,21.463,21.463,0,0,1,7.54-9.633A20.427,20.427,0,0,1,39.448,8.671a1.815,1.815,0,0,1,0,3.631,17.057,17.057,0,0,0-16.2,11.168,1.937,1.937,0,0,1-1.676.978" transform="translate(7.603 3.336)" fill="#4e8ae1"/><path d="M28.96,40.075H21.979a1.849,1.849,0,0,1-1.815-1.814V24.3a1.851,1.851,0,0,1,1.815-1.817H28.96a1.815,1.815,0,0,1,0,3.631H23.655V36.586H28.96A1.846,1.846,0,0,1,30.774,38.4a1.821,1.821,0,0,1-1.814,1.676" transform="translate(7.759 8.651)" fill="#4e8ae1"/><path d="M34,41.278H27.02A1.849,1.849,0,0,1,25.2,39.464V21.173a1.849,1.849,0,0,1,1.815-1.815H34a1.815,1.815,0,1,1,0,3.63H28.7v14.8H34A1.847,1.847,0,0,1,35.817,39.6,1.822,1.822,0,0,1,34,41.278" transform="translate(9.698 7.449)" fill="#4e8ae1"/><path d="M39.042,42.131H32.061a1.849,1.849,0,0,1-1.815-1.814V18.955a1.849,1.849,0,0,1,1.815-1.815h6.981a1.815,1.815,0,1,1,0,3.63H33.737V38.641h5.305a1.847,1.847,0,0,1,1.815,1.814,1.822,1.822,0,0,1-1.815,1.676" transform="translate(11.638 6.595)" fill="#4e8ae1"/><path d="M44.084,42.946H37.1a1.849,1.849,0,0,1-1.815-1.814V16.838A1.849,1.849,0,0,1,37.1,15.023h6.982A1.848,1.848,0,0,1,45.9,16.838a1.823,1.823,0,0,1-1.814,1.676H38.778V39.456h5.306A1.847,1.847,0,0,1,45.9,41.27a1.822,1.822,0,0,1-1.814,1.676" transform="translate(13.578 5.781)" fill="#4e8ae1"/><path d="M43.819,40.465h3.49V16.032h-3.49Zm5.306,3.49H42.145a1.849,1.849,0,0,1-1.817-1.814V14.216A1.851,1.851,0,0,1,42.145,12.4h6.981a1.849,1.849,0,0,1,1.814,1.815V42.14a2.07,2.07,0,0,1-1.814,1.814" transform="translate(15.517 4.772)" fill="#4e8ae1"/><path d="M5.305,28.635a1.815,1.815,0,0,0,0,3.63,1.848,1.848,0,0,0,1.815-1.815,1.95,1.95,0,0,0-1.815-1.814m0,6.981A5.306,5.306,0,1,1,10.61,30.31a5.489,5.489,0,0,1-5.305,5.305" transform="translate(0 9.621)" fill="#4e8ae1"/><path d="M14.409,3.351a.9.9,0,0,0-.836.838.837.837,0,1,0,1.674,0c.14-.42-.28-.838-.838-.838m0,5.306a4.329,4.329,0,1,1,4.329-4.329,4.35,4.35,0,0,1-4.329,4.329" transform="translate(3.879 0)" fill="#4e8ae1"/><path d="M48.992,48.76a2.653,2.653,0,1,0,2.653,2.653,2.651,2.651,0,0,0-2.653-2.653m0,8.795a6.143,6.143,0,1,1,6.144-6.141,6.2,6.2,0,0,1-6.144,6.141" transform="translate(16.487 17.419)" fill="#4e8ae1"/></g></svg>