<svg xmlns="http://www.w3.org/2000/svg" xmlns:xlink="http://www.w3.org/1999/xlink" width="83.473" height="80" viewBox="0 0 83.473 80"><defs><clipPath id="a"><rect width="83.473" height="80" fill="none"/></clipPath></defs><g transform="translate(0 0)"><g transform="translate(0 0)" clip-path="url(#a)"><path d="M33.256,24V30.94H11.727a37.905,37.905,0,0,0,.694,6.944,35.131,35.131,0,0,0,9.166,17.362H1.311V24Z" transform="translate(0.495 9.06)" fill="#fff"/><path d="M29.088,60.57H5.756a4.387,4.387,0,0,1-4.445-4.445V46.681H21.589a23.256,23.256,0,0,0,1.944,1.806A16.764,16.764,0,0,1,29.088,60.57" transform="translate(0.495 17.625)" fill="#b8d0f3"/><path d="M33.256,25.142v5.973H1.311V25.142A16.019,16.019,0,0,1,8.393,11.808a8.858,8.858,0,0,0,2.639-2.916A8.821,8.821,0,0,0,12,5.142H22.7a8.18,8.18,0,0,0,3.611,6.666,16.616,16.616,0,0,1,6.946,13.334" transform="translate(0.495 1.941)" fill="#b8d0f3"/><path d="M23.029,4.089v2.5H7.057v-2.5A2.786,2.786,0,0,1,9.834,1.31H20.251a2.786,2.786,0,0,1,2.777,2.779" transform="translate(2.665 0.494)" fill="#fff"/><path d="M52.2,1.31A4.306,4.306,0,1,1,47.89,5.618,4.3,4.3,0,0,1,52.2,1.31" transform="translate(18.082 0.494)" fill="#fff"/><path d="M31.2,7.663a3.472,3.472,0,1,1-3.471,3.471A3.471,3.471,0,0,1,31.2,7.663" transform="translate(10.469 2.893)" fill="#fff"/><path d="M59.573,19.191a6.221,6.221,0,0,1-.694,2.638l-7.64,12.918H39.017l10.7-18.2A5.192,5.192,0,0,1,54.3,13.914a5.273,5.273,0,0,1,5.277,5.277" transform="translate(14.732 5.253)" fill="#fff"/><path d="M9.566,35.981a37.906,37.906,0,0,1-.694-6.944H78.456A34.4,34.4,0,0,1,66.511,55.148a15.749,15.749,0,0,0-5.417,12.084H26.371a16.122,16.122,0,0,0-5.415-12.084,25.046,25.046,0,0,1-1.945-1.8A32.514,32.514,0,0,1,9.566,35.981" transform="translate(3.35 10.963)" fill="#b8d0f3"/><path d="M58.822,12.644c0,.139.141.416.141.555a1.747,1.747,0,0,1-1.252,1.667c-.138,0-.415.139-.555.139a1.745,1.745,0,0,1-1.665-1.249c0-.141-.139-.417-.139-.557A1.744,1.744,0,0,1,56.6,11.532a1.615,1.615,0,0,1,2.221,1.112" transform="translate(20.899 4.301)" fill="#4e8ae1"/><path d="M58.822,50.451c0,.141.141.417.141.555a1.746,1.746,0,0,1-1.252,1.667c-.138,0-.415.139-.555.139a1.743,1.743,0,0,1-1.665-1.249c0-.139-.139-.417-.139-.557A1.745,1.745,0,0,1,56.6,49.339a1.617,1.617,0,0,1,2.221,1.112" transform="translate(20.899 18.577)" fill="#4e8ae1"/><path d="M43.7,13.836c0,.139.139.416.139.555a1.743,1.743,0,0,1-1.251,1.665c-.138,0-.415.141-.555.141a1.747,1.747,0,0,1-1.667-1.251c0-.139-.138-.416-.138-.555a1.745,1.745,0,0,1,1.249-1.667A1.819,1.819,0,0,1,43.7,13.836" transform="translate(15.189 4.777)" fill="#4e8ae1"/><path d="M39.969,5.082c0,.139.139.416.139.555A1.743,1.743,0,0,1,38.858,7.3c-.138,0-.415.141-.555.141a1.747,1.747,0,0,1-1.667-1.251c0-.139-.138-.416-.138-.555A1.745,1.745,0,0,1,37.747,3.97a1.616,1.616,0,0,1,2.222,1.112" transform="translate(13.781 1.446)" fill="#4e8ae1"/><path d="M36.139,20.2c0,.139.138.416.138.555a1.744,1.744,0,0,1-1.251,1.667c-.138,0-.416.139-.555.139A1.747,1.747,0,0,1,32.8,21.317c0-.141-.138-.417-.138-.557a1.745,1.745,0,0,1,1.249-1.667A1.617,1.617,0,0,1,36.139,20.2" transform="translate(12.334 7.156)" fill="#4e8ae1"/><path d="M39.478,37.01a1.948,1.948,0,0,1-.832-.278,1.625,1.625,0,0,1-.557-2.361L48.783,16.176a7.184,7.184,0,0,1,5.973-3.471A6.964,6.964,0,0,1,61.7,19.649a5.967,5.967,0,0,1-.973,3.471l-7.5,12.916a1.715,1.715,0,0,1-2.916-1.806l7.5-12.916a3.929,3.929,0,0,0,.555-1.806,3.525,3.525,0,0,0-3.473-3.473,3.618,3.618,0,0,0-3.054,1.807l-10.7,18.194a2.121,2.121,0,0,1-1.667.973" transform="translate(14.272 4.797)" fill="#4e8ae1"/><path d="M61.261,36.379H9.871a1.805,1.805,0,0,1,0-3.611H61.261a1.839,1.839,0,0,1,1.806,1.8,1.941,1.941,0,0,1-1.806,1.806" transform="translate(3.046 12.372)" fill="#4e8ae1"/><path d="M54.379,36.379H50.907a1.805,1.805,0,1,1,0-3.611h3.471a1.805,1.805,0,1,1,0,3.611" transform="translate(18.539 12.372)" fill="#4e8ae1"/><path d="M23.524,8.89H20.886a1.806,1.806,0,0,1,0-3.612h.971V4.444a1.094,1.094,0,0,0-1.11-1.11H10.329a1.1,1.1,0,0,0-1.11,1.11v.833h.971a1.806,1.806,0,0,1,0,3.612H7.552A1.839,1.839,0,0,1,5.746,7.083v-2.5A4.624,4.624,0,0,1,10.329,0H20.746a4.625,4.625,0,0,1,4.585,4.583v2.5A1.84,1.84,0,0,1,23.524,8.89" transform="translate(2.17 0)" fill="#4e8ae1"/><path d="M29.166,78.515H6.25A6.224,6.224,0,0,1,0,72.265V25.6A17.535,17.535,0,0,1,7.916,10.876,7.92,7.92,0,0,0,10,8.654a5.646,5.646,0,0,0,.694-2.916,1.839,1.839,0,0,1,1.8-1.806h10.7A1.839,1.839,0,0,1,25,5.738a6.712,6.712,0,0,0,2.777,5.277,17.876,17.876,0,0,1,7.917,14.721v12.78a1.838,1.838,0,0,1-1.8,1.8,1.966,1.966,0,0,1-1.945-1.8V25.6a14.3,14.3,0,0,0-6.251-11.8A9.56,9.56,0,0,1,21.527,7.4h-7.5a12.057,12.057,0,0,1-.973,2.916,8.543,8.543,0,0,1-3.195,3.473,14.306,14.306,0,0,0-6.25,11.8V72.126A2.786,2.786,0,0,0,6.389,74.9H29.307a1.722,1.722,0,0,1,1.8,1.667,1.639,1.639,0,0,1-1.667,1.8.48.48,0,0,1-.278.139" transform="translate(0 1.484)" fill="#4e8ae1"/><path d="M61.451,69.493H26.728a1.839,1.839,0,0,1-1.806-1.8,14.113,14.113,0,0,0-4.86-10.694c-.7-.7-1.39-1.251-2.084-1.945A35.9,35.9,0,0,1,8.255,36.856a42.466,42.466,0,0,1-.693-7.223,1.838,1.838,0,0,1,1.8-1.806H78.812a1.839,1.839,0,0,1,1.806,1.806,36.589,36.589,0,0,1-12.5,27.5,13.924,13.924,0,0,0-3.612,4.86,14.216,14.216,0,0,0-1.249,5.834,2.06,2.06,0,0,1-1.8,1.665m-33.2-3.471H59.644a15.824,15.824,0,0,1,1.529-5.554,17.244,17.244,0,0,1,4.444-5.973A32.3,32.3,0,0,0,76.867,31.438H11.033c.139,1.667.277,3.334.555,4.863a33.032,33.032,0,0,0,8.75,16.527l1.806,1.8a15.617,15.617,0,0,1,6.111,11.39" transform="translate(2.855 10.507)" fill="#4e8ae1"/><path d="M22.083,48.981H1.8a1.805,1.805,0,0,1,0-3.611H22.083a1.838,1.838,0,0,1,1.806,1.8,1.94,1.94,0,0,1-1.806,1.806" transform="translate(0 17.13)" fill="#4e8ae1"/><path d="M33.751,26.3H1.806a1.805,1.805,0,1,1,0-3.611H33.751a1.839,1.839,0,0,1,1.806,1.8A1.943,1.943,0,0,1,33.751,26.3" transform="translate(0 8.565)" fill="#4e8ae1"/><path d="M31.693,16.807a5.278,5.278,0,1,1,5.278-5.279,5.277,5.277,0,0,1-5.278,5.279m0-6.946A1.806,1.806,0,1,0,33.5,11.668a1.84,1.84,0,0,0-1.806-1.806" transform="translate(9.974 2.36)" fill="#4e8ae1"/><path d="M52.691,12.222A6.165,6.165,0,0,1,46.58,6.111a6.112,6.112,0,0,1,12.223,0,6.166,6.166,0,0,1-6.112,6.111m0-8.611A2.638,2.638,0,0,0,50.051,6.25,2.555,2.555,0,0,0,52.691,8.89,2.638,2.638,0,0,0,55.33,6.25a2.555,2.555,0,0,0-2.639-2.639" transform="translate(17.588 0)" fill="#4e8ae1"/></g></g></svg>