<svg xmlns="http://www.w3.org/2000/svg" xmlns:xlink="http://www.w3.org/1999/xlink" width="133.447" height="140" viewBox="0 0 133.447 140"><defs><clipPath id="a"><rect width="133.447" height="140" fill="none"/></clipPath></defs><g transform="translate(0 0)"><g transform="translate(0 0)" clip-path="url(#a)"><path d="M77.016,22.668V1.316H1.314V122.631H97.641l-4.125-4.123,2.185-2.185-7.037-7.037a24.2,24.2,0,1,1,4.61-37.849,22.844,22.844,0,0,1,4.852,7.037V22.668Z" transform="translate(1.838 1.84)" fill="#fff1e8"/><rect width="51.681" height="18.198" transform="translate(15.286 15.528)" fill="#fff"/><path d="M32.876,1.417c8.249,8.251,12.861,12.859,21.352,21.349H32.876Z" transform="translate(45.978 1.981)" fill="#fff"/><path d="M55.573,9a7.521,7.521,0,1,1-7.522,7.522A7.52,7.52,0,0,1,55.573,9" transform="translate(67.201 12.592)" fill="#fff"/><path d="M52.9,32.978a6.066,6.066,0,1,1-6.066,6.063A6.066,6.066,0,0,1,52.9,32.978" transform="translate(65.503 46.121)" fill="#fff"/><path d="M65.373,57.774A9.092,9.092,0,0,1,52.515,70.632L43.779,61.9l-4.125-4.125,2.185-2.183L50.332,47.1l2.183-2.183Z" transform="translate(55.457 62.815)" fill="#fff"/><path d="M53.261,49.927,44.768,58.42l-7.035-7.035a23.2,23.2,0,0,0,4.852-3.641,23.02,23.02,0,0,0,3.639-4.852Z" transform="translate(52.771 59.986)" fill="#fff"/><path d="M68.695,41.725a33.227,33.227,0,0,0-4.852-7.037,24.191,24.191,0,1,0-4.61,37.851,21.472,21.472,0,0,0,8.491-8.491,24.922,24.922,0,0,0,.971-22.323" transform="translate(31.513 38.587)" fill="#fff"/><path d="M50.03,35.914a13.554,13.554,0,1,1-19.169,0,13.932,13.932,0,0,1,19.169,0" transform="translate(37.562 44.883)" fill="#fff"/><path d="M55.816,45.279a3.068,3.068,0,0,1,.971,2.183,2.627,2.627,0,0,1-.971,2.183,3.6,3.6,0,0,1-2.183.974,3.214,3.214,0,0,1-3.154-3.156,2.632,2.632,0,0,1,.969-2.183,2.94,2.94,0,0,1,4.368,0" transform="translate(70.596 61.966)" fill="#ffcaa6"/><path d="M54.6,21.3a3.068,3.068,0,0,1,.971,2.183A2.362,2.362,0,0,1,54.6,25.67a3.6,3.6,0,0,1-2.183.974,3.214,3.214,0,0,1-3.154-3.156,2.635,2.635,0,0,1,.969-2.183,2.941,2.941,0,0,1,4.368,0" transform="translate(68.899 28.436)" fill="#ffcaa6"/><path d="M49.545,3.6a3.077,3.077,0,0,1,.969,2.183,2.37,2.37,0,0,1-.969,2.185,3.624,3.624,0,0,1-2.185.971,3.214,3.214,0,0,1-3.154-3.156A2.63,2.63,0,0,1,45.177,3.6a2.945,2.945,0,0,1,4.368,0" transform="translate(61.823 3.679)" fill="#ffcaa6"/><path d="M25.468,27.575a3.068,3.068,0,0,1,.971,2.183,2.364,2.364,0,0,1-.971,2.185,3.611,3.611,0,0,1-2.183.971,3.212,3.212,0,0,1-3.154-3.156,2.635,2.635,0,0,1,.969-2.183,2.945,2.945,0,0,1,4.368,0" transform="translate(28.154 37.209)" fill="#ffcaa6"/><path d="M24.254,56.708a3.068,3.068,0,0,1,.971,2.183,2.632,2.632,0,0,1-.971,2.185,3.617,3.617,0,0,1-2.183.971,3.211,3.211,0,0,1-3.154-3.156,2.635,2.635,0,0,1,.969-2.183,3.621,3.621,0,0,1,2.185-.969,3.077,3.077,0,0,1,2.183.969" transform="translate(26.456 77.953)" fill="#ffcaa6"/><path d="M56.068,27.66H34.716a3.211,3.211,0,0,1-3.154-3.152V3.154a3.154,3.154,0,1,1,6.308,0v18.2h18.2a3.212,3.212,0,0,1,3.154,3.156,3.6,3.6,0,0,1-3.154,3.152" transform="translate(44.14 0)" fill="#ffcaa6"/><path d="M59.651,29.564H8.212a3.21,3.21,0,0,1-3.154-3.152V8.212A3.212,3.212,0,0,1,8.212,5.058H59.651a3.212,3.212,0,0,1,3.154,3.154v18.2a3.058,3.058,0,0,1-3.154,3.152M11.124,23.5H56.739V11.366H11.124Z" transform="translate(7.074 7.074)" fill="#ffcaa6"/><path d="M50.114,54.785a2.969,2.969,0,0,1-2.185-.969l-7.035-7.037a3.088,3.088,0,0,1,4.368-4.368L52.3,49.446a3.078,3.078,0,0,1,0,4.37,2.964,2.964,0,0,1-2.183.969" transform="translate(55.918 58.04)" fill="#ffcaa6"/><path d="M46.472,58.326a2.978,2.978,0,0,1-2.185-.969l-7.035-7.037a3.088,3.088,0,0,1,4.368-4.368l7.035,7.035a3.078,3.078,0,0,1,0,4.37,2.642,2.642,0,0,1-2.183.969" transform="translate(50.825 62.992)" fill="#ffcaa6"/><path d="M99.237,127.626H3.154A3.21,3.21,0,0,1,0,124.472V3.154A3.212,3.212,0,0,1,3.154,0h75.7a2.972,2.972,0,0,1,2.185.971l21.352,21.352a3.61,3.61,0,0,1,.971,2.185v55.8a3.155,3.155,0,0,1-6.311,0V25.722L77.643,6.311H6.066V121.562H99.237a3.21,3.21,0,0,1,3.154,3.152,3.009,3.009,0,0,1-3.154,2.912" transform="translate(0 0)" fill="#ffcaa6"/><path d="M60.763,78.2a11.384,11.384,0,0,1-8.493-3.641L39.411,61.7a3.616,3.616,0,0,1-.971-2.185,2.967,2.967,0,0,1,.971-2.185L52.27,44.468a3.621,3.621,0,0,1,2.185-.969,2.955,2.955,0,0,1,2.183.969L69.5,57.327a12.464,12.464,0,0,1,0,17.229A12.315,12.315,0,0,1,60.763,78.2M45.72,59.754,56.4,70.43a5.847,5.847,0,0,0,4.368,1.7,6.987,6.987,0,0,0,4.368-1.7,5.866,5.866,0,0,0,0-8.493L54.213,51.018Z" transform="translate(53.76 60.834)" fill="#ffcaa6"/><path d="M48.56,80.895a27.99,27.99,0,0,1-19.411-8.006A27.3,27.3,0,0,1,48.56,26.3a27.99,27.99,0,0,1,19.411,8.006,30.168,30.168,0,0,1,5.579,7.764A26.573,26.573,0,0,1,72.339,67.3a30.985,30.985,0,0,1-4.125,5.339,21.06,21.06,0,0,1-5.339,4.125A26.336,26.336,0,0,1,48.56,80.895m0-48.527a21.126,21.126,0,0,0-15.044,6.308,21.384,21.384,0,0,0,0,30.087A20.719,20.719,0,0,0,48.56,75.071,20.161,20.161,0,0,0,59.236,72.16a18.057,18.057,0,0,0,4.123-3.4,27.991,27.991,0,0,0,3.4-4.125,20.921,20.921,0,0,0,.971-19.654,17.554,17.554,0,0,0-4.37-6.063,20.41,20.41,0,0,0-14.8-6.553" transform="translate(29.567 36.784)" fill="#ffcaa6"/><path d="M42.194,63.853A16.575,16.575,0,1,1,53.838,59a16.334,16.334,0,0,1-11.645,4.855m0-26.933a11.093,11.093,0,0,0-7.522,3.154A10.646,10.646,0,0,0,31.518,47.6a11.093,11.093,0,0,0,3.154,7.522,10.646,10.646,0,0,0,7.522,3.154,11.093,11.093,0,0,0,7.522-3.154,11.908,11.908,0,0,0,2.912-7.764,11.093,11.093,0,0,0-3.154-7.522,10.265,10.265,0,0,0-7.28-2.912" transform="translate(35.934 43.15)" fill="#ffcaa6"/><path d="M57.953,25.326H9.426a3.154,3.154,0,1,1,0-6.308H57.953a3.154,3.154,0,1,1,0,6.308" transform="translate(8.772 26.597)" fill="#ffcaa6"/><path d="M57.953,29.07H9.426a3.154,3.154,0,1,1,0-6.308H57.953a3.212,3.212,0,0,1,3.154,3.154,3.059,3.059,0,0,1-3.154,3.154" transform="translate(8.772 31.833)" fill="#ffcaa6"/><path d="M33.69,32.913H9.426a3.154,3.154,0,1,1,0-6.308H33.69a3.154,3.154,0,1,1,0,6.308" transform="translate(8.772 37.208)" fill="#ffcaa6"/><path d="M30.778,48.087H9.426a3.154,3.154,0,0,1,0-6.308H30.778a3.212,3.212,0,0,1,3.154,3.154,3.388,3.388,0,0,1-3.154,3.154" transform="translate(8.772 58.429)" fill="#ffcaa6"/><path d="M30.778,51.832H9.426a3.155,3.155,0,0,1,0-6.311H30.778a3.214,3.214,0,0,1,3.154,3.156,3.375,3.375,0,0,1-3.154,3.154" transform="translate(8.772 63.662)" fill="#ffcaa6"/><path d="M57.412,29.041A10.77,10.77,0,0,1,46.736,18.365a10.676,10.676,0,0,1,21.352,0A10.77,10.77,0,0,1,57.412,29.041m0-15.286a4.606,4.606,0,0,0-4.61,4.61,4.462,4.462,0,0,0,4.61,4.61,4.607,4.607,0,0,0,4.61-4.61,4.461,4.461,0,0,0-4.61-4.61" transform="translate(65.362 10.753)" fill="#ffcaa6"/><path d="M54.742,50.105a9.221,9.221,0,1,1,9.22-9.222,9.376,9.376,0,0,1-9.22,9.222m0-12.134A3.155,3.155,0,1,0,57.9,41.125a3.39,3.39,0,0,0-3.154-3.154" transform="translate(63.664 44.281)" fill="#ffcaa6"/></g></g></svg>