<svg xmlns="http://www.w3.org/2000/svg" xmlns:xlink="http://www.w3.org/1999/xlink" width="110.479" height="110" viewBox="0 0 110.479 110"><defs><clipPath id="a"><rect width="110.479" height="110" fill="none"/></clipPath></defs><g transform="translate(0 0)" clip-path="url(#a)"><path d="M83.591,63.69H10.183a9.4,9.4,0,0,1,2.936-6.975,9.7,9.7,0,0,1,6.975-2.934H73.5A9.8,9.8,0,0,1,83.591,63.69" transform="translate(8.352 44.108)" fill="#b8d0f3"/><path d="M50.313,42.788l1.1.734a7.3,7.3,0,0,0,0,7.709l-1.1.734H22.786V42.788Z" transform="translate(18.69 35.096)" fill="#b8d0f3"/><path d="M53.111,14.066,48.89,20.672a6.786,6.786,0,0,0-3.853-1.1,6.971,6.971,0,0,0-6.973,6.973,7.3,7.3,0,0,0,3.12,5.874L30.539,48.932l-3.853-2.568L22.832,43.8l-3.855-2.57-3.853-2.568L37.512,3.971l3.853,2.57Z" transform="translate(12.404 3.257)" fill="#b8d0f3"/><rect width="4.533" height="4.532" transform="translate(35.602 6.128) rotate(-58.231)" fill="#4e8ae1"/><rect width="4.588" height="4.589" transform="translate(30.732 13.942) rotate(-58.264)" fill="#4e8ae1"/><rect width="4.587" height="4.588" transform="translate(25.854 21.649) rotate(-58.252)" fill="#4e8ae1"/><rect width="4.587" height="4.588" transform="translate(21.13 29.452) rotate(-58.252)" fill="#4e8ae1"/><rect width="4.587" height="4.588" transform="matrix(0.526, -0.85, 0.85, 0.526, 16.154, 37.315)" fill="#4e8ae1"/><path d="M67.736,62.583H51.587a2.386,2.386,0,1,1,0-4.773H67.736A2.43,2.43,0,0,1,70.123,60.2a2.555,2.555,0,0,1-2.386,2.386" transform="translate(40.356 47.417)" fill="#4e8ae1"/><path d="M18.535,62.583H2.384a2.386,2.386,0,0,1,0-4.773H18.535A2.43,2.43,0,0,1,20.922,60.2a2.315,2.315,0,0,1-2.386,2.386" transform="translate(0 47.417)" fill="#4e8ae1"/><path d="M84.664,67.048H11.258a2.43,2.43,0,0,1-2.386-2.386,11.645,11.645,0,0,1,3.67-8.624,11.945,11.945,0,0,1,8.626-3.671H74.755a12.377,12.377,0,0,1,12.3,12.112v.184a2.313,2.313,0,0,1-2.386,2.386M13.827,62.461H81.912a7.545,7.545,0,0,0-7.341-5.322h-53.4a7.057,7.057,0,0,0-5.322,2.2,8.3,8.3,0,0,0-2.019,3.122" transform="translate(7.277 42.952)" fill="#4e8ae1"/><path d="M39.788,60.413a2.257,2.257,0,0,1-2.019-1.285L33.18,49.952A2.339,2.339,0,0,1,37.4,47.933l4.589,9.176a2.265,2.265,0,0,1-1.1,3.12,6.468,6.468,0,0,0-1.1.184" transform="translate(27.013 38.209)" fill="#4e8ae1"/><path d="M25.086,60.4a2.325,2.325,0,0,1-1.1-.184,2.421,2.421,0,0,1-1.1-3.12l4.589-9.176a2.339,2.339,0,1,1,4.219,2.019L27.1,59.113A2.259,2.259,0,0,1,25.086,60.4" transform="translate(18.592 38.224)" fill="#4e8ae1"/><path d="M51.389,55.424H23.861a2.428,2.428,0,0,1-2.386-2.386V43.861a2.429,2.429,0,0,1,2.386-2.384H51.389a2.385,2.385,0,1,1,0,4.771H26.246v4.587H51.389a2.431,2.431,0,0,1,2.386,2.388,2.4,2.4,0,0,1-2.386,2.2" transform="translate(17.614 34.021)" fill="#4e8ae1"/><path d="M45.875,58.619a8.771,8.771,0,0,1-7.525-4.035,8.822,8.822,0,0,1,0-10.277,9.1,9.1,0,0,1,16.7,5.138,4.034,4.034,0,0,1-.184,1.467,9.06,9.06,0,0,1-8.992,7.707m0-13.763a4.784,4.784,0,0,0-3.853,2.019,4.859,4.859,0,0,0,0,5.14,4.543,4.543,0,0,0,3.853,2.017,4.709,4.709,0,0,0,4.587-3.853v-.734a4.37,4.37,0,0,0-3.486-4.4,3.2,3.2,0,0,0-1.1-.186" transform="translate(30.102 33.028)" fill="#4e8ae1"/><path d="M54.816,75.672a2.259,2.259,0,0,1-1.835-.917,2.138,2.138,0,0,1,.55-3.12A29.544,29.544,0,0,0,66.378,47.225,29.919,29.919,0,0,0,36.463,17.314a2.386,2.386,0,0,1,0-4.773A34.516,34.516,0,0,1,56.285,75.3a5.672,5.672,0,0,1-1.469.368" transform="translate(27.952 10.286)" fill="#4e8ae1"/><path d="M60.455,51.988h-.55a2.246,2.246,0,0,1-1.653-2.752,29.8,29.8,0,0,0-4.037-24.224,2.24,2.24,0,0,1,3.67-2.57,34.525,34.525,0,0,1,4.589,28.077,1.988,1.988,0,0,1-2.019,1.469" transform="translate(44.149 17.636)" fill="#4e8ae1"/><path d="M49.576,63.71a2.254,2.254,0,0,1-1.835-.917,2.138,2.138,0,0,1,.55-3.12A20.686,20.686,0,0,0,36.363,22.051a2.385,2.385,0,1,1,0-4.771,25.308,25.308,0,0,1,14.5,46.065,2.662,2.662,0,0,1-1.283.366" transform="translate(27.869 14.174)" fill="#4e8ae1"/><path d="M26.576,39.362A3.429,3.429,0,0,1,25.291,39l-3.853-2.57a2.266,2.266,0,1,1,2.386-3.853l2.019,1.285,9.36-14.5a2.266,2.266,0,1,1,3.853,2.384L28.411,38.263a2.017,2.017,0,0,1-1.835,1.1" transform="translate(16.734 15.03)" fill="#4e8ae1"/><path d="M20.224,44.573a3.43,3.43,0,0,1-1.285-.366l-3.853-2.568a2.342,2.342,0,0,1-.734-3.122L36.741,3.832A2.34,2.34,0,0,1,39.86,3.1l15.416,9.909a1.867,1.867,0,0,1,.917,1.469,1.76,1.76,0,0,1-.366,1.651l-4.221,6.607a2.266,2.266,0,0,1-3.853-2.386l3.118-4.773L39.311,8.053,19.49,39.068l2.019,1.285a2.34,2.34,0,0,1,.734,3.12,2.535,2.535,0,0,1-2.019,1.1" transform="translate(11.525 2.295)" fill="#4e8ae1"/><path d="M35.793,29.684a9.732,9.732,0,0,1-4.955-1.469,8.838,8.838,0,0,1-4.221-7.707,9.085,9.085,0,0,1,9.176-9.176A9.228,9.228,0,0,1,40.747,12.8a16.526,16.526,0,0,1,1.835,1.651,9.124,9.124,0,0,1,2.2,6.058,8.589,8.589,0,0,1-1.651,5.139,8.888,8.888,0,0,1-7.341,4.037m0-13.765a4.543,4.543,0,0,0-4.587,4.589,4.314,4.314,0,0,0,2.2,3.853,4.034,4.034,0,0,0,2.386.734,4.79,4.79,0,0,0,3.855-2.019,4.219,4.219,0,0,0,.734-2.568,4.176,4.176,0,0,0-1.1-2.938c-.184-.366-.552-.55-.917-.917a5.029,5.029,0,0,0-2.57-.734" transform="translate(21.832 9.295)" fill="#4e8ae1"/><path d="M23.352,40.45a3.429,3.429,0,0,1-1.287-.366l-7.707-4.956a1.869,1.869,0,0,1-.916-1.467,1.763,1.763,0,0,1,.366-1.653L18.763,24.3a2.266,2.266,0,0,1,3.853,2.384l-3.67,5.874L22.8,35.127l3.668-5.872a2.266,2.266,0,1,1,3.853,2.386L25.369,39.35a1.876,1.876,0,0,1-1.467.916.67.67,0,0,1-.55.184" transform="translate(10.967 19.083)" fill="#4e8ae1"/><path d="M26.2,32.742a3.4,3.4,0,0,1-1.285-.368L17.2,27.419a2.266,2.266,0,1,1,2.385-3.853L27.3,28.52a2.342,2.342,0,0,1,.734,3.122,2.022,2.022,0,0,1-1.835,1.1" transform="translate(13.262 19.082)" fill="#4e8ae1"/><path d="M38.312,17.139a3.43,3.43,0,0,1-1.285-.366L29.5,11.817a2.339,2.339,0,0,1-.734-3.12L33.723.99A1.869,1.869,0,0,1,35.192.073a1.762,1.762,0,0,1,1.651.366l7.709,4.956a2.343,2.343,0,0,1,.734,3.12l-4.955,7.707a2.369,2.369,0,0,1-2.019.917m-4.4-7.891,3.853,2.568,2.57-3.853L36.476,5.395Z" transform="translate(23.35 0)" fill="#4e8ae1"/><path d="M35.109,52.822a1.107,1.107,0,0,1-.734-.182L9.233,43.463a2.265,2.265,0,0,1,1.651-4.219l25.143,9.176a2.232,2.232,0,0,1,1.285,2.934,2.72,2.72,0,0,1-2.2,1.469" transform="translate(6.366 32.035)" fill="#4e8ae1"/><path d="M54.964,16.306a6.974,6.974,0,1,1,6.975-6.973,7.091,7.091,0,0,1-6.975,6.973m0-9.176a2.385,2.385,0,1,0,2.386,2.386,2.723,2.723,0,0,0-2.386-2.386" transform="translate(39.364 1.934)" fill="#4e8ae1"/><path d="M34.8,44.032a6.973,6.973,0,1,1,6.973-6.973A7.217,7.217,0,0,1,34.8,44.032m0-9.176a2.385,2.385,0,1,0,0,4.771A2.274,2.274,0,0,0,37,37.242a2.4,2.4,0,0,0-2.2-2.386" transform="translate(22.824 24.677)" fill="#4e8ae1"/></g></svg>