<svg xmlns="http://www.w3.org/2000/svg" xmlns:xlink="http://www.w3.org/1999/xlink" width="624" height="474.537" viewBox="0 0 624 474.537"><defs><clipPath id="a"><rect width="472.235" height="439.078" fill="none"/></clipPath><clipPath id="c"><rect width="434.491" height="337.004" transform="translate(7.086 98.041)" fill="none"/></clipPath><clipPath id="d"><rect width="191.793" height="98.764" transform="translate(178.477)" fill="none"/></clipPath><clipPath id="e"><path d="M129.127,218.529c2.625,23.675,21.835,44.692,43.161,38.517s53.941-68.828,53.941-68.828L211.8,171.646,161.625,222.8s-8.782-36.1-16.458-46.768-35.231-18.442-35.231-18.442Z" fill="none"/></clipPath><clipPath id="f"><rect width="77.983" height="70.774" transform="translate(130.088 195.133)" fill="none"/></clipPath><clipPath id="h"><path d="M71.26,184.817C53.026,204.888,56.815,278.9,56.815,278.9h80.657s-5.327-25.089-2.826-37.687,9.035-35.215,2.129-50.928c-7.649-17.4-18.724-24.02-30.2-24.019-12.636,0-25.758,8.032-35.314,18.55" fill="none"/></clipPath><clipPath id="i"><rect width="105.875" height="86.31" transform="translate(44.735 192.591)" fill="none"/></clipPath><clipPath id="k"><rect width="177.59" height="42.56" transform="translate(22.463 282.184)" fill="none"/></clipPath><clipPath id="l"><rect width="90.56" height="137.316" transform="translate(109.493 282.184)" fill="none"/></clipPath><clipPath id="m"><rect width="13.39" height="77.35" transform="translate(247.743 269.36)" fill="none"/></clipPath><clipPath id="n"><rect width="13.39" height="77.35" transform="translate(268.78 269.36)" fill="none"/></clipPath><clipPath id="o"><rect width="13.389" height="77.35" transform="translate(289.818 269.36)" fill="none"/></clipPath><clipPath id="p"><rect width="196.78" height="33.75" transform="translate(235.553 312.96)" fill="none"/></clipPath><clipPath id="q"><rect width="13.389" height="77.35" transform="translate(372.55 347.15)" fill="none"/></clipPath><clipPath id="r"><rect width="13.39" height="77.35" transform="translate(351.512 347.15)" fill="none"/></clipPath><clipPath id="s"><rect width="13.39" height="77.35" transform="translate(330.475 347.15)" fill="none"/></clipPath><clipPath id="t"><rect width="196.78" height="33.75" transform="translate(201.349 390.75)" fill="none"/></clipPath><clipPath id="u"><rect width="59.548" height="38.408" transform="translate(337.018 118.851)" fill="none"/></clipPath><clipPath id="v"><rect width="15.989" height="99.7" transform="translate(334.153 157.259)" fill="none"/></clipPath><clipPath id="w"><rect width="38.96" height="48.35" transform="translate(408.093 376.15)" fill="none"/></clipPath><clipPath id="x"><rect width="48.769" height="44.38" transform="translate(145.256 378.468)" fill="none"/></clipPath><clipPath id="y"><rect width="58.094" height="12.81" transform="translate(140.571 319.869)" fill="none"/></clipPath><clipPath id="z"><rect width="58.093" height="12.809" transform="translate(140.561 414.723)" fill="none"/></clipPath><clipPath id="aa"><rect width="44.709" height="27.695" transform="translate(147.757 341.239)" fill="none"/></clipPath><clipPath id="ab"><rect width="624" height="224" transform="translate(477.792 3660)" fill="#fff" stroke="#707070" stroke-width="1"/></clipPath></defs><g transform="translate(-478 -3684.135)"><g transform="translate(564.091 3719.594)"><g clip-path="url(#a)"><g clip-path="url(#a)"><g opacity="0.5"><g clip-path="url(#c)"><path d="M441.476,278.523c.26-12.157.26-24.514-3.094-36.2-8.877-30.938-43.535-52-75.086-45.637-9.871,1.992-19.2,6.267-29.144,7.873s-21.368-.11-27.712-7.932c-3.053-3.765-4.6-8.545-5.424-13.32-3-17.269,2.543-34.751,3.856-52.229.392-5.215.388-10.575-1.286-15.53-5.985-17.71-31.057-21.911-47.449-12.924S230,128.891,220.617,145.058,200.24,178.1,182.912,185.12c-29.353,11.885-60.759-9.287-91.945-14.793-10.614-1.875-21.974-1.8-31.668,2.915-7.944,3.863-14.164,10.528-19.553,17.527A147.736,147.736,0,0,0,18.752,228.31C3.258,269.031,6.5,314.15,9.959,357.581c1.4,17.507,3.3,36.3,14.755,49.612,10.151,11.8,25.9,16.965,41.029,20.611a247.919,247.919,0,0,0,44.522,6.949c36,1.957,71.641-6.378,107.341-11.406a588.881,588.881,0,0,1,152.354-1.521c37.3,4.5,46.564-13.132,57.833-46.629,10.434-31.012,12.987-64.166,13.683-96.674" fill="#fff1e8"/></g></g><path d="M18.93,366.366c-1.483-6.173-2.242-13.189-6.152-17.424C11.154,347.183,9.129,346.1,7.4,344.5,3.825,341.186,1.754,335.842.895,330.4s-.631-11.037-.4-16.57c-.517,5.549,2.962,10.3,6.181,14.2,1.764,2.139,3.6,4.334,5.908,5.409,2.447,1.139,5.162.894,7.72,1.558,6.028,1.565,10.624,8.227,12.3,15.587,1.448,6.353,1.152,13.551,4.226,18.939,3.2,5.6,16.817,19.866,2.4,19.623-10.555-.179-17.5-11.154-20.3-22.789" fill="#7f7d2a"/><path d="M44,388.374a7.685,7.685,0,0,1-3.906-1.353c-3.349-2.084-7.141-6.411-10.4-11.871a73.161,73.161,0,0,1-8.4-21.638,21.829,21.829,0,0,0-3.436-8.068,40.687,40.687,0,0,0-5.1-5.7,41.723,41.723,0,0,1-7.45-9.011C2.7,326.279.966,320.773,0,313.9l.99-.139c.948,6.737,2.643,12.123,5.181,16.464a40.907,40.907,0,0,0,7.289,8.8c3.728,3.677,7.25,7.151,8.808,14.264a72.151,72.151,0,0,0,8.286,21.339c3.183,5.328,6.855,9.533,10.073,11.535,1.6.994,2.991,1.384,4.03,1.127l.24.971A3.712,3.712,0,0,1,44,388.374Z" fill="#a2a34a"/><path d="M28.271,350.144c1.522-7.222,4.172-14.737,2.354-21.853-.757-2.956-2.236-5.543-3.172-8.419-1.936-5.954-1.4-12.8.389-18.821s4.725-11.4,7.635-16.708c-3.2,5.109-2.06,12.417-.764,18.687.711,3.437,1.464,6.983,3.229,9.773,1.871,2.957,4.678,4.743,6.89,7.313,5.211,6.056,6.532,16.089,4.626,24.631-1.645,7.373-5.428,14.279-5,21.913.451,7.937,7.024,32.244-7.138,21.223-10.366-8.066-11.926-24.127-9.053-37.739" fill="#6b671f"/><path d="M43.277,391.129c-3.332-1.51-6.327-8.3-7.816-17.719a85.129,85.129,0,0,1-.933-15.886,93.512,93.512,0,0,1,2.359-18.2,28.588,28.588,0,0,0,.51-10.613A62.514,62.514,0,0,0,35.1,319.22a62.8,62.8,0,0,1-3-14.439A55.808,55.808,0,0,1,35,284.193l.954.3A54.835,54.835,0,0,0,33.1,304.715a61.992,61.992,0,0,0,2.96,14.221c1.9,6.4,3.7,12.446,1.8,20.617a92.51,92.51,0,0,0-2.334,18,84.129,84.129,0,0,0,.921,15.7,48.3,48.3,0,0,0,3.128,11.532c1.26,2.872,2.721,4.8,4.113,5.432Z" fill="#a2a34a"/><path d="M41.847,354.717c2.708-5.5,6.4-10.884,6.329-17.326-.031-2.676-.734-5.271-.93-7.936a26.62,26.62,0,0,1,4.1-15.429c2.684-4.426,6.19-7.957,9.66-11.441-3.67,3.23-4.193,9.621-4.38,15.2-.1,3.059-.192,6.222.706,9.073.953,3.021,2.913,5.366,4.224,8.173,3.091,6.616,2.17,15.314-1.119,21.781-2.839,5.582-7.349,10.117-8.523,16.558-1.22,6.7-.667,28.812-10.156,15.325-6.945-9.871-5.011-23.623.092-33.98" fill="#7f7d2a"/><path d="M45.944,393.274c-2.448-2.276-3.559-8.814-2.9-17.062a71.917,71.917,0,0,1,2.419-13.428,73.8,73.8,0,0,1,5.609-14.326,23.1,23.1,0,0,0,2.539-8.576,56.333,56.333,0,0,0,.009-8.544,56.052,56.052,0,0,1,.42-12.87,44.006,44.006,0,0,1,6.54-16.15l.845.535a43.031,43.031,0,0,0-6.4,15.786,55.249,55.249,0,0,0-.406,12.652c.287,5.885.558,11.444-2.66,17.63a72.8,72.8,0,0,0-5.532,14.132,70.915,70.915,0,0,0-2.386,13.241,43.989,43.989,0,0,0,.271,10.485c.465,2.763,1.286,4.811,2.313,5.765Z" fill="#a2a34a"/><path d="M222.618,310.382c-1.483-6.173-2.242-13.189-6.152-17.424-1.624-1.759-3.649-2.844-5.376-4.443-3.577-3.313-5.648-8.657-6.507-14.094s-.631-11.038-.4-16.57c-.517,5.549,2.962,10.3,6.181,14.2,1.764,2.139,3.6,4.334,5.908,5.409,2.447,1.139,5.162.894,7.72,1.557,6.028,1.566,10.624,8.228,12.3,15.588,1.448,6.353,1.152,13.55,4.226,18.939,3.2,5.6,16.817,19.866,2.4,19.622-10.555-.178-17.5-11.153-20.3-22.788" fill="#7f7d2a"/><path d="M247.693,332.389a7.686,7.686,0,0,1-3.907-1.353c-3.349-2.084-7.141-6.411-10.4-11.872a73.16,73.16,0,0,1-8.4-21.637,21.831,21.831,0,0,0-3.436-8.068,40.69,40.69,0,0,0-5.1-5.7,41.724,41.724,0,0,1-7.45-9.012c-2.6-4.456-4.341-9.961-5.308-16.83l.99-.139c.948,6.737,2.643,12.123,5.181,16.464a40.908,40.908,0,0,0,7.289,8.8c3.728,3.678,7.25,7.151,8.808,14.265a72.15,72.15,0,0,0,8.285,21.338c3.183,5.328,6.855,9.533,10.073,11.535,1.6.994,2.991,1.384,4.03,1.127l.24.971A3.71,3.71,0,0,1,247.693,332.389Z" fill="#a2a34a"/><path d="M231.958,294.159c1.524-7.222,4.173-14.737,2.354-21.853-.756-2.956-2.235-5.543-3.17-8.419-1.937-5.954-1.4-12.795.388-18.821s4.725-11.4,7.635-16.708c-3.2,5.109-2.06,12.417-.764,18.687.711,3.437,1.464,6.983,3.229,9.773,1.871,2.957,4.678,4.743,6.889,7.313,5.212,6.056,6.533,16.089,4.627,24.631-1.646,7.373-5.428,14.279-5,21.913.451,7.937,7.024,32.244-7.138,21.223-10.366-8.066-11.925-24.127-9.054-37.739" fill="#6b671f"/><path d="M246.964,335.144c-3.332-1.51-6.327-8.3-7.816-17.719a85.129,85.129,0,0,1-.933-15.886,93.513,93.513,0,0,1,2.359-18.2,28.586,28.586,0,0,0,.51-10.613,62.514,62.514,0,0,0-2.294-9.493,62.8,62.8,0,0,1-3-14.44,55.808,55.808,0,0,1,2.9-20.588l.954.3a54.834,54.834,0,0,0-2.854,20.222,61.994,61.994,0,0,0,2.96,14.221c1.9,6.4,3.7,12.446,1.8,20.616a92.509,92.509,0,0,0-2.334,18,84.127,84.127,0,0,0,.921,15.7,48.3,48.3,0,0,0,3.128,11.532c1.26,2.872,2.721,4.8,4.113,5.432Z" fill="#a2a34a"/><path d="M245.535,298.732c2.708-5.495,6.4-10.884,6.329-17.326-.031-2.676-.734-5.271-.93-7.936a26.62,26.62,0,0,1,4.1-15.429c2.683-4.426,6.19-7.957,9.66-11.441-3.67,3.23-4.193,9.621-4.381,15.2-.1,3.059-.191,6.222.707,9.073.953,3.021,2.913,5.366,4.224,8.173,3.091,6.616,2.17,15.314-1.119,21.781-2.839,5.582-7.349,10.117-8.523,16.558-1.22,6.7-.667,28.812-10.156,15.325-6.945-9.872-5.011-23.623.092-33.98" fill="#7f7d2a"/><path d="M249.632,337.289c-2.448-2.276-3.559-8.814-2.9-17.062a71.917,71.917,0,0,1,2.419-13.428,73.8,73.8,0,0,1,5.609-14.326A23.1,23.1,0,0,0,257.3,283.9a56.335,56.335,0,0,0,.009-8.544,56.05,56.05,0,0,1,.42-12.87,44.006,44.006,0,0,1,6.54-16.15l.845.535a43.03,43.03,0,0,0-6.4,15.786,55.248,55.248,0,0,0-.406,12.652c.287,5.885.558,11.444-2.66,17.63a72.8,72.8,0,0,0-5.532,14.132,70.915,70.915,0,0,0-2.386,13.241A43.988,43.988,0,0,0,248,330.792c.465,2.763,1.286,4.811,2.313,5.765Z" fill="#a2a34a"/><path d="M444.635,439.078H32.252a9.789,9.789,0,0,1,0-19.578H444.635a9.789,9.789,0,1,1,0,19.578" fill="#f2e6dd"/><g opacity="0.5"><g clip-path="url(#d)"><path d="M181.629,53.751c4.654,7.506,13.633,11.457,22.432,12.222s17.579-1.2,26.192-3.153l37.877-8.587c13.414-3.041,30.188-4.942,38.383,6.1,4.956,6.681,4.7,15.863,8.132,23.443,7.109,15.72,30.575,19.749,43.945,8.845s15.21-32.444,5.787-46.9S336.473,24.187,319.316,26c-8.514.9-17.438,3.68-25.355.419C285.577,22.971,281.149,13.88,274.22,8.03,259.422-4.464,237.251.069,218.6,5.285c-16.974,4.745-50.531,26.593-36.969,48.466" fill="#fff1e8"/></g></g><path d="M211.508,170.766c.238-.82,6.465-14.475,10.762-13.385,2.26.572-1.013,9.816-1.013,9.816s11.617-11.458,13.435-9.925-1.718,5.407-1.718,5.407,4.082-6.629,5.609-5.15.952,5.676-2.324,8.695c0,0,2.448-4.475,4.436-3.06s.634,5.471-2.6,8.42c0,0,2.132-4.824,3.467-2.39s-5.554,12.147-19.452,18.439-11.573-13.526-10.6-16.867" fill="#fca388"/><path d="M233.723,161.539c-3.8,6.348-6.574,8.812-6.574,8.812" fill="#fca388"/><path d="M227.149,170.851a.5.5,0,0,1-.332-.874c.027-.024,2.771-2.506,6.477-8.7a.5.5,0,0,1,.858.514c-3.8,6.341-6.555,8.826-6.671,8.929A.5.5,0,0,1,227.149,170.851Z" fill="#d16247"/><path d="M237.891,164a56.274,56.274,0,0,1-7.455,8.27" fill="#fca388"/><path d="M230.436,172.769a.5.5,0,0,1-.33-.876,56.281,56.281,0,0,0,7.38-8.188.5.5,0,1,1,.808.589,57.352,57.352,0,0,1-7.53,8.352A.5.5,0,0,1,230.436,172.769Z" fill="#d16247"/><path d="M239.768,168.981a36.05,36.05,0,0,1-7.691,6.607" fill="#fca388"/><path d="M232.077,176.088a.5.5,0,0,1-.253-.932,35.96,35.96,0,0,0,7.571-6.509.5.5,0,0,1,.744.668,36.229,36.229,0,0,1-7.811,6.7A.5.5,0,0,1,232.077,176.088Z" fill="#d16247"/><path d="M220.507,166.267c-.566,6.118-1.521,11.63-1.521,11.63" fill="#fca388"/><path d="M218.987,178.4a.5.5,0,0,1-.493-.585c.01-.055.958-5.564,1.516-11.591a.5.5,0,1,1,1,.092c-.561,6.068-1.517,11.614-1.526,11.669A.5.5,0,0,1,218.987,178.4Z" fill="#d16247"/><path d="M60.79,272.2C43.876,334.586,49.847,412.19,49.847,412.19L161.4,409.16S152.555,304.023,137.472,278.9s-72.408-22.47-76.682-6.7" fill="#fff"/><path d="M92.573,259.678h0a82.377,82.377,0,0,1,13.329,1.078,67.906,67.906,0,0,1,12.856,3.37,45.962,45.962,0,0,1,11.1,5.883,30,30,0,0,1,8.038,8.634c3.468,5.777,6.887,16.241,10.162,31.1,2.613,11.859,5.145,26.541,7.526,43.638,4.052,29.1,6.29,55.473,6.312,55.736l.044.527L49.385,412.7l-.036-.474c-.015-.194-1.488-19.737-.873-46.651.361-15.807,1.361-31.029,2.972-45.243a326.694,326.694,0,0,1,8.86-48.269c1.015-3.743,4.838-6.909,11.058-9.157A64.567,64.567,0,0,1,92.573,259.678Zm68.286,149c-.337-3.866-2.529-28.353-6.262-55.159-2.377-17.07-4.9-31.725-7.512-43.558-3.251-14.754-6.63-25.116-10.042-30.8a29,29,0,0,0-7.774-8.344,44.968,44.968,0,0,0-10.86-5.752,66.9,66.9,0,0,0-12.666-3.32,81.373,81.373,0,0,0-13.167-1.065h0a63.548,63.548,0,0,0-20.868,3.171,24.544,24.544,0,0,0-7,3.7,9.437,9.437,0,0,0-3.437,4.778,325.69,325.69,0,0,0-8.83,48.113c-1.607,14.183-2.605,29.373-2.966,45.149-.561,24.546.617,42.946.836,46.089Z"/><path d="M109.936,157.594s27.556,7.779,35.231,18.442S161.624,222.8,161.624,222.8l50.178-51.16,14.427,16.573s-32.616,62.654-53.942,68.828-40.536-14.842-43.161-38.518" fill="#215681"/></g><g clip-path="url(#e)"><g opacity="0.57" style="mix-blend-mode:multiply;isolation:isolate"><g clip-path="url(#f)"><path d="M141.194,195.133c3.532,42.548,9.6,51.667,25.025,54.053s41.853-26.6,41.853-26.6L186.4,260.956,138.9,265.907l-8.815-18.921,2.269-19.833Z" fill="#215681"/></g></g></g><g clip-path="url(#a)"><path d="M136.775,190.287c6.907,15.712.373,38.329-2.129,50.927s2.827,37.687,2.827,37.687H56.816s-3.789-74.012,14.445-94.083,49.445-31.085,65.514,5.469" fill="#215681"/></g><g clip-path="url(#h)"><g opacity="0.57" style="mix-blend-mode:multiply;isolation:isolate"><g clip-path="url(#i)"><path d="M44.735,258.5l17.71-28.51c3.614-5.819,8.249-11.3,11.252-17.409,1.789-3.641,3.018-7.535,4.817-11.171,1.519-3.071,5.367-6,6.5-8.822a96.733,96.733,0,0,0-6.983,33.421c-.075,2.67.151,5.746,2.288,7.35,3.4,2.55,10.287,1.84,14.509,3.574a80.856,80.856,0,0,0,19.279,4.85c6.785.97,21.716,3.7,27.366-1.96,7.714-7.732,9.132,39.075,9.132,39.075L46.577,273.453Z" fill="#215681"/></g></g></g><g clip-path="url(#a)"><path d="M98.169,152.63c-10.2-1.714-18.661,4.423-22.5,6.058s15.31,20.59,16.9,51.086S88.4,273.038,88.4,273.038l39.777-8.21s.33-58.38,0-79.505-4.225-22.8-4.225-22.8a73.083,73.083,0,0,0-25.784-9.89" fill="#fff"/><path d="M88.309,156.018c10.909,18.832,18.95,52.97,18.384,63.944s1.467,27.024,1.467,27.024l15.794-7.92s-2.582-10.785-2.076-31.2a270.844,270.844,0,0,0-2.128-41.6c-.969-9.134-3.073-9-3.073-9s-15.3-12.363-28.368-1.255" fill="#f7d8d0"/><path d="M133.925,290.086,81.14,285.64a3.309,3.309,0,0,1-3.019-3.574l6.25-74.21a3.31,3.31,0,0,1,3.575-3.02l52.785,4.446a3.309,3.309,0,0,1,3.019,3.575l-6.25,74.21a3.31,3.31,0,0,1-3.575,3.019" fill="#cc6017"/><path d="M125.753,213.257l-23.706-2a3.684,3.684,0,1,1,.618-7.342l23.706,2a3.684,3.684,0,0,1-.618,7.343" fill="#af4700"/><path d="M108.108,249.649c.766-.378,15.039-5.012,17.139-1.108,1.1,2.053-7.922,5.885-7.922,5.885s16.979-.6,17.076,1.775-5.829,3.811-5.829,3.811,7.645-1.469,7.586.657-3.541,4.536-7.98,4.16c0,0,4.953-1.218,5.253,1.2s-3.6,4.163-7.966,3.77c0,0,5-1.687,4.105.942s-12.708,4.111-26.736-1.885,2.154-17.67,5.274-19.211" fill="#fca388"/><path d="M130.088,259.557a44.029,44.029,0,0,1-10.41,1.4" fill="#fca388"/><path d="M119.678,261.456a.5.5,0,0,1,0-1,43.861,43.861,0,0,0,10.274-1.38.5.5,0,1,1,.272.962A44.026,44.026,0,0,1,119.678,261.456Z" fill="#d16247"/><path d="M79.041,158.5c-9.568,2.08-15.89,1.852-22.163,13.77S25.517,223.6,27.4,241.214s4.154,36.433,76.4,31.415l2.891-21.58L65.55,238.165l21.462-49.307" fill="#215681"/><path d="M97.348,141.41l-1.069,15.108a6.85,6.85,0,0,0,13.657,1.077l1.407-16.185Z" fill="#f4876e"/><path d="M145.126,120.537c.731,18.734-8.351,30.009-12.77,33.222-11.766,8.555-29.745.426-36.338-12.988-5.822-11.844-5.973-35.076,13.271-40.458s35.1,1.282,35.837,20.224" fill="#fca388"/><path d="M122.793,103.3c-13.556.8-14.268,23.828-22.228,24.592s-7.99,0-7.99,0c.071,1.748,1.576,4.169,2.105,5.886.808,2.625,1.646,5.325,2.319,7.981a12.1,12.1,0,0,1,.112,3.949l-.462,5.64a5.563,5.563,0,0,1-.343,1.778c-.728,1.678-2.374,1.588-3.881,1.931-1.371.312-2.762.57-4.116.962-3.083.893-6.061,2.359-9.268,2.485-2.519.1-5.378-.946-6.731-3.182-.561-.928-.5-4.763-1.035-5.13.119.083,7.045,4.845,7.444-4.18.4-9.1-10.867-18.16-4.226-41.505s45.269-27.168,54.633-14.691a14.3,14.3,0,0,1,16.042,5.4c6.44,8.855,8.225,25.519-.534,34.811,0,0-1.093-21.8-5.732-25.274s-9.776,2.567-9.776,2.567-2.922-4.226-6.333-4.025" fill="#491a10"/><path d="M98.292,130.313c-7.048-11.822-14.551-.455-9.776,7.275s12.049,8.867,12.049,2.047" fill="#fca388"/><path d="M121.007,115.613c-.485-3-11.818-1.914-11.18,1.734s11.524.4,11.18-1.734" fill="#491a10"/><path d="M132.365,115.687c.435-3.006,9.37-2.068,8.8,1.585s-9.112.547-8.8-1.585" fill="#491a10"/><path d="M121.878,126.205c0,1.707-.953,3.09-2.128,3.09s-2.128-1.383-2.128-3.09.953-3.09,2.128-3.09,2.128,1.383,2.128,3.09" fill="#491a10"/><path d="M138.9,126.205c0,1.707-.953,3.09-2.128,3.09s-2.128-1.383-2.128-3.09.953-3.09,2.128-3.09,2.128,1.383,2.128,3.09" fill="#491a10"/><path d="M131.149,130.031c.337,2.943,4.045,3.973,2.528,6.033s-4.551,1.913-4.551,1.913" fill="#fca388"/><path d="M129.273,138.48c-.1,0-.155,0-.171,0a.5.5,0,0,1,.049-1c.027,0,2.788.1,4.124-1.71.541-.734.238-1.191-.765-2.309a6.13,6.13,0,0,1-1.858-3.371.5.5,0,0,1,.994-.114,5.183,5.183,0,0,0,1.608,2.817c.889.991,1.9,2.114.825,3.569A6.129,6.129,0,0,1,129.273,138.48Z" fill="#d16247"/><path d="M130.306,141.3a19.511,19.511,0,0,1-12.684-2.88s-.508,5.821,3.393,7.341,9.291-4.461,9.291-4.461" fill="#d16247"/><path d="M96.261,132.586c-3.872-4.6-7.018-2.541-6.171.726" fill="#fca388"/><path d="M90.09,133.812a.5.5,0,0,1-.484-.375c-.432-1.666.054-3.137,1.238-3.748a3.03,3.03,0,0,1,2.647.039,8.744,8.744,0,0,1,3.152,2.536.5.5,0,1,1-.765.644c-2.031-2.412-3.7-2.785-4.576-2.33-.753.389-1.039,1.413-.729,2.609a.5.5,0,0,1-.484.626Z" fill="#d16247"/><path d="M94.661,131.015c-3.361.845-2.151,5.582,1.116,6.965" fill="#fca388"/><path d="M95.777,138.48a.5.5,0,0,1-.195-.04A5.791,5.791,0,0,1,93,136.233a4.9,4.9,0,0,1-.829-2.963,2.952,2.952,0,0,1,2.369-2.74.5.5,0,0,1,.244.97,1.952,1.952,0,0,0-1.616,1.847,4.542,4.542,0,0,0,2.805,4.173.5.5,0,0,1-.2.961Z" fill="#d16247"/><path d="M201.987,282.185H20.528a6.085,6.085,0,0,1-6.085-6.085v-4.108a6.085,6.085,0,0,1,6.085-6.085H201.987a6.085,6.085,0,0,1,6.085,6.085V276.1a6.085,6.085,0,0,1-6.085,6.085" fill="#cc6017"/><path d="M200.053,282.184l-4.87,42.56L173.823,419.5H48.693l-21.36-94.756-4.87-42.56Z" fill="#af4700"/><g opacity="0.55" style="mix-blend-mode:multiply;isolation:isolate"><g clip-path="url(#k)"><path d="M200.053,282.184l-4.87,42.56H27.333l-4.87-42.56Z" fill="#8e3900"/></g></g><g opacity="0.55" style="mix-blend-mode:multiply;isolation:isolate"><g clip-path="url(#l)"><path d="M200.053,282.184l-4.87,42.56L173.823,419.5h-64.33V282.184Z" fill="#8e3900"/></g></g><path d="M427.976,346.71H239.914a4.36,4.36,0,0,1-4.36-4.36V273.715a4.36,4.36,0,0,1,4.36-4.359H427.976a4.36,4.36,0,0,1,4.36,4.359V342.35a4.36,4.36,0,0,1-4.36,4.36" fill="#215681"/><g opacity="0.5" style="mix-blend-mode:overlay;isolation:isolate"><g clip-path="url(#m)"><path d="M261.133,346.71H252.1a4.357,4.357,0,0,1-4.36-4.36V273.71a4.355,4.355,0,0,1,4.36-4.35h9.03a4.355,4.355,0,0,0-4.36,4.35v68.64a4.357,4.357,0,0,0,4.36,4.36" fill="#fff"/></g></g><g opacity="0.5" style="mix-blend-mode:overlay;isolation:isolate"><g clip-path="url(#n)"><path d="M282.17,346.71h-9.03a4.357,4.357,0,0,1-4.36-4.36V273.71a4.355,4.355,0,0,1,4.36-4.35h9.03a4.355,4.355,0,0,0-4.36,4.35v68.64a4.357,4.357,0,0,0,4.36,4.36" fill="#fff"/></g></g><g opacity="0.5" style="mix-blend-mode:overlay;isolation:isolate"><g clip-path="url(#o)"><path d="M303.207,346.71h-9.03a4.357,4.357,0,0,1-4.36-4.36V273.71a4.355,4.355,0,0,1,4.36-4.35h9.03a4.355,4.355,0,0,0-4.36,4.35v68.64a4.357,4.357,0,0,0,4.36,4.36" fill="#fff"/></g></g><g opacity="0.3" style="mix-blend-mode:multiply;isolation:isolate"><g clip-path="url(#p)"><path d="M432.333,312.96v29.39a4.357,4.357,0,0,1-4.36,4.36H239.913a4.357,4.357,0,0,1-4.36-4.36V312.96a4.357,4.357,0,0,0,4.36,4.36h188.06a4.357,4.357,0,0,0,4.36-4.36" fill="#215681"/></g></g><path d="M305.185,337.263V278.8c0-2.456,1.64-4.447,3.663-4.447H428.672c2.024,0,3.664,1.991,3.664,4.447v58.461c0,2.456-1.64,4.447-3.664,4.447H308.848c-2.023,0-3.663-1.991-3.663-4.447" fill="#f8efe0"/><path d="M422.96,283.275H318.913a2.537,2.537,0,0,1,0-5.074H422.96a2.537,2.537,0,1,1,0,5.074" fill="#e3cdbb"/><path d="M422.96,300.7H318.913a2.537,2.537,0,0,1,0-5.074H422.96a2.537,2.537,0,1,1,0,5.074" fill="#e3cdbb"/><path d="M422.96,318.132H318.913a2.537,2.537,0,0,1,0-5.074H422.96a2.537,2.537,0,1,1,0,5.074" fill="#e3cdbb"/><path d="M422.96,335.561H318.913a2.537,2.537,0,0,1,0-5.074H422.96a2.537,2.537,0,1,1,0,5.074" fill="#e3cdbb"/><path d="M205.707,424.5H393.77a4.36,4.36,0,0,0,4.359-4.36V351.5a4.36,4.36,0,0,0-4.359-4.359H205.707a4.36,4.36,0,0,0-4.36,4.359v68.635a4.36,4.36,0,0,0,4.36,4.36" fill="#d3492a"/><g opacity="0.5" style="mix-blend-mode:overlay;isolation:isolate"><g clip-path="url(#q)"><path d="M372.549,424.5h9.03a4.357,4.357,0,0,0,4.36-4.36V351.5a4.355,4.355,0,0,0-4.36-4.35h-9.03a4.355,4.355,0,0,1,4.36,4.35v68.64a4.357,4.357,0,0,1-4.36,4.36" fill="#fff"/></g></g><g opacity="0.5" style="mix-blend-mode:overlay;isolation:isolate"><g clip-path="url(#r)"><path d="M351.512,424.5h9.03a4.357,4.357,0,0,0,4.36-4.36V351.5a4.355,4.355,0,0,0-4.36-4.35h-9.03a4.355,4.355,0,0,1,4.36,4.35v68.64a4.357,4.357,0,0,1-4.36,4.36" fill="#fff"/></g></g><g opacity="0.5" style="mix-blend-mode:overlay;isolation:isolate"><g clip-path="url(#s)"><path d="M330.475,424.5h9.03a4.357,4.357,0,0,0,4.36-4.36V351.5a4.355,4.355,0,0,0-4.36-4.35h-9.03a4.355,4.355,0,0,1,4.36,4.35v68.64a4.357,4.357,0,0,1-4.36,4.36" fill="#fff"/></g></g><g opacity="0.3" style="mix-blend-mode:multiply;isolation:isolate"><g clip-path="url(#t)"><path d="M201.349,390.75v29.39a4.357,4.357,0,0,0,4.36,4.36h188.06a4.357,4.357,0,0,0,4.36-4.36V390.75a4.357,4.357,0,0,1-4.36,4.36H205.709a4.357,4.357,0,0,1-4.36-4.36" fill="#d3492a"/></g></g><path d="M328.5,415.053V356.592c0-2.456-1.64-4.447-3.663-4.447H205.011c-2.024,0-3.664,1.991-3.664,4.447v58.461c0,2.456,1.64,4.447,3.664,4.447H324.835c2.023,0,3.663-1.991,3.663-4.447" fill="#f8efe0"/><path d="M210.722,361.065H314.769a2.537,2.537,0,0,0,0-5.074H210.722a2.537,2.537,0,1,0,0,5.074" fill="#e3cdbb"/><path d="M210.722,378.494H314.769a2.537,2.537,0,0,0,0-5.074H210.722a2.537,2.537,0,1,0,0,5.074" fill="#e3cdbb"/><path d="M210.722,395.922H314.769a2.537,2.537,0,0,0,0-5.074H210.722a2.537,2.537,0,1,0,0,5.074" fill="#e3cdbb"/><path d="M210.722,413.351H314.769a2.537,2.537,0,0,0,0-5.074H210.722a2.537,2.537,0,1,0,0,5.074" fill="#e3cdbb"/><path d="M396.566,144.661v4.775H367.777c-16,0-21.333,7.823-21.333,7.823H327.582s-5.336-7.823-21.333-7.823H277.46v-4.775h16l9.838-6.492s20.177.666,23.051-4.407,4.511-14.911,4.511-14.911h12.31s1.638,9.839,4.5,14.911,23.059,4.407,23.059,4.407l9.838,6.492Z" fill="#35729b"/><g opacity="0.28" style="mix-blend-mode:multiply;isolation:isolate"><g clip-path="url(#u)"><path d="M396.566,144.661v4.775H367.777c-16,0-21.333,7.823-21.333,7.823h-9.427V118.851h6.151s1.638,9.839,4.5,14.911,23.059,4.407,23.059,4.407l9.838,6.492Z" fill="#215681"/></g></g><path d="M350.142,256.959H323.885c8.2-38.557,7.386-99.7,7.386-99.7h11.485s-.823,61.143,7.386,99.7" fill="#215681"/><g opacity="0.57" style="mix-blend-mode:multiply;isolation:isolate"><g clip-path="url(#v)"><path d="M334.153,256.959c4.994-38.557,4.494-99.7,4.494-99.7h4.109s-.823,61.143,7.386,99.7Z" fill="#215681"/></g></g><path d="M368.442,269.7H305.587s1.895-12.747,18.3-12.747h26.252c16.406,0,18.3,12.747,18.3,12.747" fill="#35729b"/><path d="M329.883,117.142a7.132,7.132,0,1,0,7.131-7.131,7.131,7.131,0,0,0-7.131,7.131" fill="#ea9b1c"/><path d="M334.112,117.142a2.9,2.9,0,1,0,2.9-2.9,2.9,2.9,0,0,0-2.9,2.9" fill="#cc6017"/><path d="M326.673,144.107a10.341,10.341,0,1,0,10.341-10.341,10.342,10.342,0,0,0-10.341,10.341" fill="#ea9b1c"/><path d="M332.806,144.107a4.208,4.208,0,1,0,4.208-4.208,4.208,4.208,0,0,0-4.208,4.208" fill="#cc6017"/><path d="M253.1,212.817l-1.88-.681,24.651-68.064,24.65,68.064-1.88.681-22.77-62.872Z" fill="#0f3749"/><path d="M283,147.009a7.132,7.132,0,1,1-7.132-7.131A7.132,7.132,0,0,1,283,147.009" fill="#ea9b1c"/><path d="M278.77,147.009a2.9,2.9,0,1,1-2.9-2.9,2.9,2.9,0,0,1,2.9,2.9" fill="#cc6017"/><path d="M299.578,211.489c0,2.431-.089,19.93-23.71,19.93s-23.711-17.5-23.711-19.93,10.616-4.4,23.711-4.4,23.71,1.97,23.71,4.4" fill="#35729b"/><path d="M299.578,211.489c0,2.431-10.615,4.4-23.71,4.4s-23.711-1.97-23.711-4.4,10.616-4.4,23.711-4.4,23.71,1.97,23.71,4.4" fill="#59a1c9"/><path d="M296.793,211.489c0,1.873-9.368,3.391-20.925,3.391s-20.925-1.518-20.925-3.391,9.368-3.391,20.925-3.391,20.925,1.518,20.925,3.391" fill="#215681"/><path d="M375.387,212.817l-1.88-.681,24.651-68.064,24.65,68.064-1.88.681-22.77-62.872Z" fill="#0f3749"/><path d="M405.289,147.009a7.132,7.132,0,1,1-7.131-7.131,7.131,7.131,0,0,1,7.131,7.131" fill="#ea9b1c"/><path d="M401.059,147.009a2.9,2.9,0,1,1-2.9-2.9,2.9,2.9,0,0,1,2.9,2.9" fill="#cc6017"/><path d="M421.868,211.489c0,2.431-.089,19.93-23.71,19.93s-23.711-17.5-23.711-19.93,10.616-4.4,23.711-4.4,23.71,1.97,23.71,4.4" fill="#35729b"/><path d="M421.868,211.489c0,2.431-10.615,4.4-23.71,4.4s-23.711-1.97-23.711-4.4,10.616-4.4,23.711-4.4,23.71,1.97,23.71,4.4" fill="#59a1c9"/><path d="M419.083,211.489c0,1.873-9.368,3.391-20.925,3.391s-20.925-1.518-20.925-3.391,9.368-3.391,20.925-3.391,20.925,1.518,20.925,3.391" fill="#215681"/><path d="M254.057,210.486a2.731,2.731,0,1,1-2.731-2.731,2.731,2.731,0,0,1,2.731,2.731" fill="#ea9b1c"/><path d="M303.769,210.486a2.731,2.731,0,1,1-2.731-2.731,2.731,2.731,0,0,1,2.731,2.731" fill="#ea9b1c"/><path d="M376.033,210.486a2.731,2.731,0,1,1-2.731-2.731,2.731,2.731,0,0,1,2.731,2.731" fill="#ea9b1c"/><path d="M425.745,210.486a2.731,2.731,0,1,1-2.731-2.731,2.731,2.731,0,0,1,2.731,2.731" fill="#ea9b1c"/><path d="M405.854,344.013c-.3-6.435.475-13.472-3.217-18.751-1.534-2.193-3.713-3.852-5.41-5.921-3.513-4.285-4.722-10.092-4.447-15.626s1.9-10.9,3.509-16.2c-1.96,5.231,1.089,10.885,4.029,15.635,1.611,2.6,3.294,5.283,5.817,7.017,2.675,1.837,6.006,2.412,8.929,3.822,6.889,3.322,10.823,11.163,11.072,18.807.214,6.6-1.877,13.5.531,19.645,2.5,6.393,15.483,24.313-1.839,19.762-12.679-3.33-18.408-16.06-18.974-28.189" fill="#7f7d2a"/><path d="M431.823,373.031c-1.863-.088-4.025-1.273-6.252-3.429a36.419,36.419,0,0,1-6.328-8.708,59.545,59.545,0,0,1-5.056-12.819A66.09,66.09,0,0,1,411.91,332.3a19.848,19.848,0,0,0-2.194-8.839,45.328,45.328,0,0,0-4.776-7.063,45.33,45.33,0,0,1-6.8-10.968c-2.069-5.111-2.836-10.982-2.346-17.948l1,.07c-.48,6.811.264,12.536,2.275,17.5a44.525,44.525,0,0,0,6.669,10.733c3.607,4.683,7.013,9.106,7.177,16.49a65.089,65.089,0,0,0,2.242,15.54,59.375,59.375,0,0,0,4.97,12.6,35.421,35.421,0,0,0,6.144,8.466c2.049,1.984,3.987,3.072,5.6,3.148Z" fill="#a2a34a"/><path d="M421.02,331.062c3.576-6.554,8.58-13.055,8.1-20.505-.2-3.1-1.358-6.049-1.793-9.12-.9-6.357,1.4-12.836,5-18.15s8.441-9.652,13.228-13.932c-5.09,4-5.475,11.435-5.423,17.908.029,3.548.082,7.215,1.538,10.451,1.543,3.429,4.495,6,6.541,9.159,4.823,7.437,4,17.569-.357,25.289-3.76,6.664-9.982,12.235-11.3,19.774-1.37,7.837.7,33.395-13.717,18.462-10.55-10.93-8.561-26.984-1.821-39.336" fill="#6b671f"/><path d="M429.313,375.364c-1.776-1.2-3.192-3.657-4.095-7.113a42.125,42.125,0,0,1-1.022-12.409,68.923,68.923,0,0,1,2.706-15.719,76.5,76.5,0,0,1,7.236-16.978,23.081,23.081,0,0,0,3.159-10.108,52.59,52.59,0,0,0-.478-9.884c-.511-4.619-1.039-9.395-.136-14.935,1.025-6.294,3.8-12.559,8.467-19.153l.816.578c-4.582,6.467-7.3,12.595-8.3,18.735-.881,5.405-.36,10.112.143,14.664.751,6.8,1.461,13.214-2.809,20.6a75.5,75.5,0,0,0-7.142,16.756,67.922,67.922,0,0,0-2.668,15.49A41.129,41.129,0,0,0,426.185,368c.84,3.217,2.115,5.477,3.686,6.537Z" fill="#a2a34a"/><path d="M436.282,339.562c4.587-4.523,10.341-8.648,11.8-14.922.607-2.607.385-5.336.791-7.981.84-5.477,4.353-10.256,8.654-13.749s9.379-5.871,14.4-8.214c-5.2,2.037-7.371,8.083-8.941,13.443-.861,2.939-1.73,5.982-1.334,9.018.421,3.218,2.218,6.079,3.122,9.2,2.132,7.346-1.074,15.512-6.6,20.8-4.767,4.569-11.3,7.621-14.262,13.521-3.084,6.134-7.744,27.764-15.932,11.836-5.993-11.659-.35-24.427,8.3-32.952" fill="#7f7d2a"/><path d="M432.042,378.272c-1.18-1.445-1.742-3.846-1.626-6.943a36.421,36.421,0,0,1,2.251-10.527,59.539,59.539,0,0,1,6.159-12.327,66.076,66.076,0,0,1,10.219-12.236,19.851,19.851,0,0,0,5.111-7.539,45.33,45.33,0,0,0,2.064-8.272,45.329,45.329,0,0,1,3.614-12.39c2.42-4.954,6.276-9.448,11.787-13.737l.614.789c-5.388,4.194-9.151,8.573-11.5,13.387a44.525,44.525,0,0,0-3.53,12.133c-1.074,5.813-2.089,11.3-7.474,16.359a65.076,65.076,0,0,0-10.064,12.05,59.373,59.373,0,0,0-6.056,12.119,35.425,35.425,0,0,0-2.194,10.228c-.107,2.85.378,5.02,1.4,6.273Z" fill="#a2a34a"/><path d="M453.233,361.7l-6.18,38.82-3.82,23.98h-27.44l-7.7-48.35-2.3-14.45Z" fill="#ea9b1c"/><g opacity="0.58" style="mix-blend-mode:multiply;isolation:isolate"><g clip-path="url(#w)"><path d="M447.053,400.52l-3.82,23.98h-27.44l-7.7-48.35Z" fill="#cc6017"/></g></g><path d="M163.593,334.53v.04l-.28-.02Z" fill="#ea9b1c"/><path d="M163.313,334.55l-.28.02v-.04Z" fill="#ea9b1c"/><path d="M198.653,414.735a55.176,55.176,0,0,1-1.127,10.837l-27.591,1.961-.329.023-.328-.023-27.591-1.961a55.181,55.181,0,0,1-1.128-10.837c.024-20.417,13.467-29.129,19.02-31.771,5.519-2.63,5.988-6.516,6.012-9.756v-.047c-.153-3.006-1.057-6.375-6-8.724-5.553-2.641-19-11.353-19.02-31.77A55.253,55.253,0,0,1,141.7,321.83l27.591-1.961.329-.023.329.023,27.591,1.961a55.252,55.252,0,0,1,1.127,10.837c-.024,20.417-13.467,29.129-19.02,31.77-5.519,2.63-5.988,6.516-6.012,9.757v.047c.153,3.006,1.057,6.375,6,8.723,5.553,2.642,19,11.354,19.02,31.771" fill="#ea9b1c"/><path d="M193.522,326.256l-23.9-1.7-23.9,1.7a48.777,48.777,0,0,0-.446,6.411,33.176,33.176,0,0,0,2.489,13.068A28.258,28.258,0,0,0,161.61,360.2c4.191,2,6.845,4.873,8.007,8.735.9-2.958,3.018-6.363,8.008-8.735a28.282,28.282,0,0,0,14.84-17.13,34.86,34.86,0,0,0,1.5-10.4,48.637,48.637,0,0,0-.446-6.411m-.012,82.656a28.374,28.374,0,0,0-15.9-21.709,14.646,14.646,0,0,1-7.08-6.446,12.346,12.346,0,0,1-.927-2.289c-.9,2.959-3.018,6.363-8.007,8.735-4.908,2.337-16.32,9.7-16.344,27.532a48.625,48.625,0,0,0,.446,6.411l23.9,1.7,23.9-1.7a48.625,48.625,0,0,0,.446-6.411,37.688,37.688,0,0,0-.446-5.823" fill="#cc6017"/><g style="mix-blend-mode:multiply;isolation:isolate"><g clip-path="url(#x)"><path d="M193.945,414.736a25.971,25.971,0,0,1-.435,6.409l-23.9,1.7-23.9-1.7a48.446,48.446,0,0,1-.447-6.41c1.609-4.427,5.354-5.518,14.559-10.743s10.449-14.171,9.792-25.525h1.174s-.117.858-.247,2.29a44.865,44.865,0,0,0,.689,13.471,12.8,12.8,0,0,0,3.682,6.794c3.565,3.2,7.759,3.076,11.776,5.286a18.751,18.751,0,0,1,2.62,1.859,17.328,17.328,0,0,1,3.478,3.356,6.887,6.887,0,0,1,1.167,3.213" fill="#cc6017"/></g></g><g opacity="0.52" style="mix-blend-mode:multiply;isolation:isolate"><g clip-path="url(#y)"><path d="M198.665,332.667a1.4,1.4,0,0,1-.223.012H140.783a1.257,1.257,0,0,1-.212-.012A55.253,55.253,0,0,1,141.7,321.83l27.591-1.961h.658l27.591,1.961a55.176,55.176,0,0,1,1.127,10.837" fill="#cc6017"/></g></g><path d="M198.811,326.285h-58.4a2.11,2.11,0,0,1-2.11-2.11v-4.047a2.11,2.11,0,0,1,2.11-2.11h58.4a2.11,2.11,0,0,1,2.109,2.11v4.047a2.11,2.11,0,0,1-2.109,2.11" fill="#ea9b1c"/><g opacity="0.52" style="mix-blend-mode:multiply;isolation:isolate"><g clip-path="url(#z)"><path d="M140.561,414.734a1.387,1.387,0,0,1,.222-.012h57.659a1.254,1.254,0,0,1,.212.012,55.252,55.252,0,0,1-1.127,10.837l-27.591,1.961h-.658l-27.59-1.961a55.176,55.176,0,0,1-1.127-10.837" fill="#cc6017"/></g></g><path d="M140.415,421.117h58.4a2.11,2.11,0,0,1,2.11,2.11v4.047a2.11,2.11,0,0,1-2.11,2.11h-58.4a2.11,2.11,0,0,1-2.11-2.11v-4.047a2.11,2.11,0,0,1,2.11-2.11" fill="#ea9b1c"/><g style="mix-blend-mode:multiply;isolation:isolate"><g clip-path="url(#aa)"><path d="M192.466,343.069a28.28,28.28,0,0,1-14.841,17.13c-4.989,2.371-7.1,5.776-8.007,8.735-1.162-3.863-3.816-6.739-8.007-8.735a28.265,28.265,0,0,1-13.854-14.465c15.474-5.882,34.072-5.107,44.709-2.665" fill="#cc6017"/></g></g></g></g></g><g transform="translate(0.208 27.135)" opacity="0.5" clip-path="url(#ab)"><path d="M426,3a429.826,429.826,0,0,0-43.253,2.184,424.1,424.1,0,0,0-42,6.41c-13.627,2.789-27.265,6.3-40.536,10.423-13.122,4.081-26.2,8.867-38.861,14.223A424.243,424.243,0,0,0,36.24,261.35c-5.357,12.664-10.142,25.739-14.223,38.861-4.128,13.271-7.634,26.909-10.423,40.536a424.1,424.1,0,0,0-6.41,42,429.388,429.388,0,0,0,0,86.506,424.1,424.1,0,0,0,6.41,42c2.789,13.627,6.3,27.265,10.423,40.536,4.081,13.122,8.867,26.2,14.223,38.861A424.243,424.243,0,0,0,261.35,815.76c12.664,5.357,25.739,10.142,38.861,14.223,13.271,4.128,26.909,7.634,40.536,10.423a424.1,424.1,0,0,0,42,6.41,429.388,429.388,0,0,0,86.506,0,424.1,424.1,0,0,0,42-6.41c13.627-2.789,27.265-6.3,40.536-10.423,13.122-4.081,26.2-8.867,38.861-14.223A424.243,424.243,0,0,0,815.76,590.65c5.357-12.664,10.142-25.739,14.223-38.861,4.128-13.271,7.634-26.909,10.423-40.536a424.1,424.1,0,0,0,6.41-42,429.388,429.388,0,0,0,0-86.506,424.1,424.1,0,0,0-6.41-42c-2.789-13.627-6.3-27.265-10.423-40.536-4.081-13.122-8.867-26.2-14.223-38.861A424.243,424.243,0,0,0,590.65,36.24c-12.664-5.357-25.739-10.142-38.861-14.223-13.271-4.128-26.909-7.634-40.536-10.423a424.1,424.1,0,0,0-42-6.41A429.826,429.826,0,0,0,426,3m0-3C661.273,0,852,190.727,852,426S661.273,852,426,852,0,661.273,0,426,190.727,0,426,0Z" transform="translate(373.792 3672)" fill="#3e6eb4"/></g><g transform="translate(8044 11919.135)"><circle cx="24" cy="24" r="24" transform="translate(-7528 -8155)" fill="#5adfe8"/><path d="M13.555-15.918h7.051v5.1H13.555v7.969H8.184V-10.82H1.113v-5.1h7.07v-7.637h5.371Z" transform="translate(-7515 -8117)" fill="#12263f"/></g><g transform="translate(8564 11919.135)"><circle cx="24" cy="24" r="24" transform="translate(-7528 -8155)" fill="#5adfe8"/><path d="M13.555-15.918h7.051v5.1H13.555v7.969H8.184V-10.82H1.113v-5.1h7.07v-7.637h5.371Z" transform="translate(-7515 -8117)" fill="#12263f"/></g><g transform="translate(8217 11839.135)"><circle cx="24" cy="24" r="24" transform="translate(-7528 -8155)" fill="#5adfe8"/><path d="M13.555-15.918h7.051v5.1H13.555v7.969H8.184V-10.82H1.113v-5.1h7.07v-7.637h5.371Z" transform="translate(-7515 -8117)" fill="#12263f"/></g><g transform="translate(8391 11839.135)"><circle cx="24" cy="24" r="24" transform="translate(-7528 -8155)" fill="#5adfe8"/><path d="M13.555-15.918h7.051v5.1H13.555v7.969H8.184V-10.82H1.113v-5.1h7.07v-7.637h5.371Z" transform="translate(-7515 -8117)" fill="#12263f"/></g></g></svg>