<svg xmlns="http://www.w3.org/2000/svg" xmlns:xlink="http://www.w3.org/1999/xlink" width="84.016" height="80" viewBox="0 0 84.016 80"><defs><clipPath id="a"><rect width="84.016" height="80" fill="none"/></clipPath></defs><g transform="translate(-1005.427 -1920)"><g transform="translate(1005.427 1920)"><path d="M35.587,37.516v5.741l-5.025,2.871-5.023,3.015-5.025-3.015-5.023-2.871V31.631l5.023-2.872,5.025-3.014,5.023,3.014,5.025,2.872Z" transform="translate(6.429 10.678)" fill="#fff"/><path d="M57.176,25.276v5.741l-5.023,2.871L46.984,36.9l-.143-.143-4.881-2.872-1.147-.573-3.877-2.3V19.391l5.023-2.872L46.984,13.5l5.168,3.014,5.023,2.872Z" transform="translate(15.298 5.601)" fill="#fff"/><path d="M28.506,49.714V55.6l-5.025,2.871-5.023,2.872-5.025-2.872L8.41,55.6V43.973l5.023-3.015,5.025-2.871,5.023,2.871,5.025,3.015Z" transform="translate(3.524 15.788)" fill="#fff"/><path d="M39.988,25.889l3.875,2.3,1.148.573,4.881,2.871V43.257l-5.025,2.871-5.025,3.015L34.82,46.128l-5.168-2.871V31.63l5.168-2.871,5.023-3.014Z" transform="translate(12.307 10.678)" fill="#edf3fc"/><path d="M49.952,12.892v5.741l-5.025,3.014L39.9,24.52l-5.025-2.872-5.025-3.014V7.007l5.025-2.872L39.9,1.265l5.023,2.871,5.025,2.872Z" transform="translate(12.391 0.53)" fill="#fff"/><path d="M22.377,16.331v5.741l-5.168,3.014-5.023,2.872L7.161,25.087,2.138,22.073V10.445L7.161,7.575,12.186,4.7l5.023,2.871,5.168,2.871Z" transform="translate(0.896 1.971)" fill="#b8d0f3"/><g transform="translate(0 0)"><g clip-path="url(#a)"><path d="M23.093,46.157a1.8,1.8,0,0,1-1.577-.86,1.836,1.836,0,0,1,.718-2.436L27.248,40l5.011-2.865a1.795,1.795,0,1,1,1.72,3.151l-5.014,2.865-5.014,2.866a1.814,1.814,0,0,1-.858.143" transform="translate(8.869 15.365)" fill="#4e8ae1"/><path d="M16.038,45.609a1.9,1.9,0,0,1-1.863-1.862v-11.6a1.8,1.8,0,0,1,.858-1.576L25.063,24.7a2.115,2.115,0,0,1,1.861,0l10.028,5.872a1.8,1.8,0,0,1-1.72,3.152l-9.167-5.3-8.306,4.727v10.6a1.777,1.777,0,0,1-1.719,1.862" transform="translate(5.897 10.184)" fill="#4e8ae1"/><path d="M12.669,30.34a2.038,2.038,0,0,1-.86-.286L1.783,24.18A1.645,1.645,0,0,1,.923,22.6V11a1.8,1.8,0,0,1,.86-1.576L11.809,3.553a2.128,2.128,0,0,1,1.862,0L23.7,9.427A1.645,1.645,0,0,1,24.558,11V22.6a1.8,1.8,0,0,1-.86,1.576L13.671,30.054a2.658,2.658,0,0,1-1,.286M4.361,21.6l8.308,4.727L20.976,21.6v-9.6L12.669,7.277,4.361,12.005Z" transform="translate(0.384 1.389)" fill="#4e8ae1"/><path d="M40.286,51.381a2.033,2.033,0,0,1-.858-.286L29.4,45.221a1.644,1.644,0,0,1-.86-1.575v-11.6a1.8,1.8,0,0,1,.86-1.576l10.028-5.874a1.82,1.82,0,0,1,1.718,0l.143.143,3.867,2.293a1.794,1.794,0,1,1-1.718,3.151l-3.152-1.862-8.308,4.728v9.6l8.308,4.727,8.308-4.727v-10.6a1.862,1.862,0,1,1,3.724,0v11.6a1.8,1.8,0,0,1-.858,1.575L41.433,51.095a2.173,2.173,0,0,1-1.147.286" transform="translate(11.873 10.142)" fill="#4e8ae1"/><path d="M18.941,63.679a2.038,2.038,0,0,1-.86-.286l-5.013-2.865L8.055,57.664a1.645,1.645,0,0,1-.86-1.576v-11.6a1.8,1.8,0,0,1,.86-1.576l10.027-5.872a2.128,2.128,0,0,1,1.862,0L29.97,42.909a1.646,1.646,0,0,1,.86,1.576v11.6a1.8,1.8,0,0,1-.86,1.576l-5.013,2.865-5.014,2.865a3.658,3.658,0,0,1-1,.286m-8.308-8.594,8.308,4.727L23.1,57.378l4.153-2.436v-9.6l-8.308-4.727-8.308,4.727Z" transform="translate(2.993 15.318)" fill="#4e8ae1"/><path d="M47.468,39.093a2.038,2.038,0,0,1-.86-.286l-.143-.143L36.58,32.934a1.645,1.645,0,0,1-.858-1.575v-11.6a1.862,1.862,0,1,1,3.724,0v10.6l8.308,4.727,4.155-2.434,4.153-2.436v-9.6L46.608,15.6a1.794,1.794,0,1,1,1.718-3.151l10.027,5.872a1.643,1.643,0,0,1,.861,1.576V31.5a1.793,1.793,0,0,1-.861,1.575L53.34,35.941l-5.014,2.866c-.142.286-.428.286-.858.286" transform="translate(14.86 5.097)" fill="#4e8ae1"/><path d="M40.388,26.859a2.038,2.038,0,0,1-.861-.286L29.5,20.7a1.647,1.647,0,0,1-.86-1.576V7.522a1.8,1.8,0,0,1,.86-1.576L34.515,3.08,39.527.215a2.131,2.131,0,0,1,1.863,0L46.4,3.08l5.014,2.866a1.646,1.646,0,0,1,.858,1.576v11.6a1.8,1.8,0,0,1-.858,1.576L41.391,26.573a3.659,3.659,0,0,1-1,.286M32.079,18.12l8.309,4.727L48.7,18.12v-9.6L44.541,6.232,40.388,3.8,36.234,6.232,32.079,8.667Z" transform="translate(11.915 0)" fill="#4e8ae1"/><path d="M37.382,57.678a1.9,1.9,0,0,1-1.861-1.862V42.782a1.861,1.861,0,1,1,3.723,0V55.816a2,2,0,0,1-1.862,1.862" transform="translate(14.777 17.023)" fill="#4e8ae1"/><path d="M1.737,59.574A1.576,1.576,0,0,1,.3,58.715a1.793,1.793,0,0,1,.43-2.436L10.9,49.4a1.764,1.764,0,0,1,2.436.43,1.791,1.791,0,0,1-.429,2.434L2.74,59.145a1.9,1.9,0,0,1-1,.429" transform="translate(0 20.425)" fill="#4e8ae1"/><path d="M51.735,22.828a1.749,1.749,0,0,1-1.289-.573,1.815,1.815,0,0,1,0-2.579l9.31-9.453A1.823,1.823,0,0,1,62.336,12.8l-9.31,9.453a2.569,2.569,0,0,1-1.29.573" transform="translate(20.763 4.029)" fill="#4e8ae1"/><path d="M61.461,34.778a2.658,2.658,0,0,1-1-.286L50.718,27.9a1.749,1.749,0,0,1,2.006-2.866l9.739,6.589a1.688,1.688,0,0,1,.43,2.436,1.763,1.763,0,0,1-1.433.716" transform="translate(20.777 10.272)" fill="#4e8ae1"/><path d="M32.338,15.914H25.749a1.862,1.862,0,1,1,0-3.724h6.589a1.862,1.862,0,1,1,0,3.724" transform="translate(9.937 5.071)" fill="#4e8ae1"/><path d="M32.338,7.72H25.749a1.9,1.9,0,0,1-1.862-1.862A1.9,1.9,0,0,1,25.749,4h6.589A1.9,1.9,0,0,1,34.2,5.858,2,2,0,0,1,32.338,7.72" transform="translate(9.937 1.662)" fill="#4e8ae1"/><path d="M51.736,56.458a6.3,6.3,0,1,1,6.3-6.3,6.358,6.358,0,0,1-6.3,6.3m0-9.024a2.722,2.722,0,1,0,2.722,2.722,2.719,2.719,0,0,0-2.722-2.722" transform="translate(18.9 18.243)" fill="#4e8ae1"/><path d="M6.569,38.25a5.443,5.443,0,1,1,5.443-5.443A5.44,5.44,0,0,1,6.569,38.25m0-7.162a1.862,1.862,0,1,0,0,3.724,1.862,1.862,0,1,0,0-3.724" transform="translate(0.468 11.383)" fill="#4e8ae1"/></g></g></g></g></svg>