<svg xmlns="http://www.w3.org/2000/svg" xmlns:xlink="http://www.w3.org/1999/xlink" width="104.046" height="104.69" viewBox="0 0 104.046 104.69"><defs><clipPath id="a"><rect width="104.046" height="104.69" fill="none"/></clipPath></defs><g transform="translate(0 0)" clip-path="url(#a)"><path d="M100.184,41.663V59.141l-11.122.883a40.441,40.441,0,0,1-4.237,10.24l7.239,8.473L79.7,91.094l-8.475-7.237a34.6,34.6,0,0,1-4.413,2.294V70.616a25.436,25.436,0,1,0-40.779-20.3,25.3,25.3,0,0,0,5.472,15.712H15.8a36.212,36.212,0,0,1-2.119-6.179L2.556,58.965V41.488L13.678,40.6a34.915,34.915,0,0,1,4.236-10.238L10.677,21.89,23.034,9.533l8.475,7.239a34.843,34.843,0,0,1,10.24-4.237L42.63,1.412H60.109l.883,11.122a34.833,34.833,0,0,1,10.238,4.237A14.212,14.212,0,0,0,84.824,30.365,34.872,34.872,0,0,1,89.062,40.6Z" transform="translate(1.92 1.06)" fill="#fff1e8"/><path d="M32.05,45.975V65.748H25.342V45.975Z" transform="translate(19.032 34.528)" fill="#fff"/><path d="M24.488,51.016V61.962H17.78V51.016Z" transform="translate(13.353 38.314)" fill="#fff"/><path d="M35.7,43.455V67.64H29.173V43.455Z" transform="translate(21.909 32.636)" fill="#fff1e8"/><path d="M28.144,48.5V63.854H21.611V48.5Z" transform="translate(16.23 36.421)" fill="#fff1e8"/><rect width="6.708" height="6.71" transform="translate(24.602 93.744)" fill="#fff1e8"/><path d="M67.649,58.362V71.427H56.527V47.242H50v4.413H43.287v4.414H36.754v4.413H30.046V64.9H23.515v6.531H10.274V63.659L1.447,62.6l8.827-6.531V38.413H67.649V58.362Z" transform="translate(1.087 28.849)" fill="#fff"/><path d="M5.861,1.815A4.413,4.413,0,1,1,1.447,6.229,4.415,4.415,0,0,1,5.861,1.815" transform="translate(1.087 1.363)" fill="#fff"/><path d="M55.112,54.747A3.354,3.354,0,1,1,51.757,58.1a3.354,3.354,0,0,1,3.355-3.355" transform="translate(38.871 41.116)" fill="#fff"/><path d="M56.5,1.616A14.51,14.51,0,0,0,41.675,15.562v1.059A14.21,14.21,0,0,0,55.27,30.215h.352A14.512,14.512,0,0,0,70.451,16.268,14.354,14.354,0,0,0,56.5,1.616" transform="translate(31.299 1.211)" fill="#fff1e8"/><path d="M57.807,48.5a2.118,2.118,0,1,1-2.117,2.117A2.119,2.119,0,0,1,57.807,48.5" transform="translate(41.824 36.421)" fill="#fdc9a6"/><path d="M56.5,38.413a2.119,2.119,0,1,1-2.119,2.119A2.118,2.118,0,0,1,56.5,38.413" transform="translate(40.84 28.849)" fill="#fdc9a6"/><path d="M43.894,54.847a2.119,2.119,0,1,1-2.119,2.119,2.118,2.118,0,0,1,2.119-2.119" transform="translate(31.374 41.191)" fill="#fdc9a6"/><path d="M21.21.6a2.119,2.119,0,1,1-2.119,2.119A2.119,2.119,0,0,1,21.21.6" transform="translate(14.338 0.454)" fill="#fdc9a6"/><path d="M3.566,14.519a2.118,2.118,0,1,1-2.119,2.117,2.118,2.118,0,0,1,2.119-2.117" transform="translate(1.087 10.904)" fill="#fdc9a6"/><path d="M3.566,38.413a2.119,2.119,0,1,1-2.119,2.119,2.119,2.119,0,0,1,2.119-2.119" transform="translate(1.087 28.849)" fill="#fdc9a6"/><path d="M57.059,4.817A12.135,12.135,0,0,0,44.878,16.645v.884A11.936,11.936,0,0,0,56.354,29h.531a12.132,12.132,0,0,0,12.18-11.828,11.434,11.434,0,0,0-3.353-8.652,13.057,13.057,0,0,0-8.475-3.882.173.173,0,0,1-.177.175m0,28.6h-.881A17.185,17.185,0,0,1,45.233,28.65,16.805,16.805,0,0,1,40.465,17.7V16.47A17.459,17.459,0,0,1,45.408,4.993,16.608,16.608,0,0,1,56.884.4h.529a16.482,16.482,0,0,1,11.474,5.12A17.138,17.138,0,0,1,73.477,17.35a17.086,17.086,0,0,1-4.941,11.476,16.608,16.608,0,0,1-11.476,4.589" transform="translate(30.39 0.303)" fill="#fdc9a6"/><path d="M16.68,69.381a2.168,2.168,0,0,1-1.942-1.236A27.858,27.858,0,0,1,12.971,63.2l-9.708-.881A2.271,2.271,0,0,1,1.145,60.2V42.723A2.039,2.039,0,0,1,3.264,40.6L12.8,39.9a39.733,39.733,0,0,1,3.355-7.944L9.972,24.364a2.195,2.195,0,0,1,.175-3L22.506,9a2.2,2.2,0,0,1,3-.177l7.237,6.179a39.846,39.846,0,0,1,7.946-3.353L41.4,2.119A2.271,2.271,0,0,1,43.514,0H61.168a2.04,2.04,0,0,1,2.119,2.119l.706,9.534a35.471,35.471,0,0,1,9.181,4.061,2.056,2.056,0,0,1,.883,2.824,2.272,2.272,0,0,1-3,1.059h-.175a39.054,39.054,0,0,0-9.711-4.061,2.068,2.068,0,0,1-1.588-1.942l-.707-9H45.456l-.706,9a2.068,2.068,0,0,1-1.588,1.942A39.027,39.027,0,0,0,33.451,19.6a2.115,2.115,0,0,1-2.471-.177l-6.887-5.826-9.531,9.533,5.824,6.885a2.135,2.135,0,0,1,.177,2.472A36.423,36.423,0,0,0,16.5,42.194a2.066,2.066,0,0,1-1.94,1.588l-8.829.883V58.083l9,.706a2.068,2.068,0,0,1,1.942,1.588c.529,1.944,1.236,3.886,1.942,5.827a2.072,2.072,0,0,1-1.059,2.824c-.177.352-.529.352-.883.352" transform="translate(0.86 0)" fill="#fdc9a6"/><path d="M53.063,81.732a2,2,0,0,1-1.411-.529l-7.239-6.179c-1.059.531-2.119,1.059-3.353,1.588a2.18,2.18,0,0,1-1.59-4.061q2.117-1.056,4.237-2.117a2.112,2.112,0,0,1,2.472.177l6.883,5.826L62.6,66.9l-6.179-6.71a2.4,2.4,0,0,1-.177-2.648A38.961,38.961,0,0,0,60.3,47.836a2.068,2.068,0,0,1,1.942-1.588l9-.706V32.124l-9-.706A2.068,2.068,0,0,1,60.3,29.83a38.989,38.989,0,0,0-4.061-9.711.172.172,0,0,0-.177-.175,2.328,2.328,0,0,1,1.061-3,2.054,2.054,0,0,1,2.823.883,36.627,36.627,0,0,1,4.061,9.356l9.534.707a2.256,2.256,0,0,1,1.942,2.119V47.484A2.041,2.041,0,0,1,73.366,49.6l-9.533.706a39.792,39.792,0,0,1-3.355,7.944l6.179,7.239a2.2,2.2,0,0,1-.179,3L54.122,80.85c0,.707-.529.883-1.059.883" transform="translate(28.561 12.541)" fill="#fdc9a6"/><path d="M57.882,63.648a2.291,2.291,0,0,1-1.413-4.061,23,23,0,0,0,9.181-18.536,23.3,23.3,0,1,0-46.607,0,23.912,23.912,0,0,0,4.945,14.476,2.453,2.453,0,0,1-.354,3.178,2.454,2.454,0,0,1-3.178-.352A27.691,27.691,0,1,1,69.887,41.228,27,27,0,0,1,58.941,63.117a1.255,1.255,0,0,1-1.059.531" transform="translate(10.854 10.147)" fill="#fdc9a6"/><path d="M68.736,74.63H57.614a2.3,2.3,0,0,1,0-4.591h8.827V41.44H13.479V56.977a2.176,2.176,0,0,1-.883,1.765L8.184,62.095l3.353.355a2.254,2.254,0,0,1,1.942,2.117v5.649H24.425a2.3,2.3,0,0,1,0,4.591H11.185a2.338,2.338,0,0,1-2.3-2.294V66.684L2,65.979A2.542,2.542,0,0,1,.061,64.39a2.018,2.018,0,0,1,.884-2.3l7.943-6V39.5a2.338,2.338,0,0,1,2.3-2.294H68.559a2.337,2.337,0,0,1,2.3,2.294V72.513a2.278,2.278,0,0,1-2.119,2.117" transform="translate(0 27.941)" fill="#fdc9a6"/><path d="M21.641,63.424H14.933a2.336,2.336,0,0,1-2.294-2.3V54.421a2.336,2.336,0,0,1,2.294-2.3h6.708a2.3,2.3,0,0,1,0,4.591H17.228V59.01h4.413a2.339,2.339,0,0,1,2.3,2.3,2.312,2.312,0,0,1-2.3,2.117" transform="translate(9.492 39.147)" fill="#fdc9a6"/><path d="M25.472,65.317H18.764a2.336,2.336,0,0,1-2.294-2.3V51.9A2.334,2.334,0,0,1,18.764,49.6h6.708a2.295,2.295,0,1,1,0,4.589H21.059V60.9h4.413a2.339,2.339,0,0,1,2.3,2.3,2.618,2.618,0,0,1-2.3,2.117" transform="translate(12.369 37.254)" fill="#fdc9a6"/><path d="M29.2,67.21H22.5a2.337,2.337,0,0,1-2.3-2.3V49.38a2.337,2.337,0,0,1,2.3-2.3H29.2a2.295,2.295,0,0,1,0,4.589H24.789V62.8H29.2a2.337,2.337,0,0,1,2.294,2.3A2.31,2.31,0,0,1,29.2,67.21" transform="translate(15.171 35.361)" fill="#fdc9a6"/><path d="M33.035,69.028H26.327a2.337,2.337,0,0,1-2.3-2.3V46.96a2.337,2.337,0,0,1,2.3-2.3h6.708a2.3,2.3,0,0,1,0,4.591H28.62V64.792h4.414a2.334,2.334,0,0,1,2.294,2.294,2.651,2.651,0,0,1-2.294,1.942" transform="translate(18.048 33.544)" fill="#fdc9a6"/><path d="M32.351,66.506h2.294V46.557H32.351Zm4.413,4.414H30.056a2.336,2.336,0,0,1-2.294-2.3V44.44a2.335,2.335,0,0,1,2.294-2.3h6.708a2.336,2.336,0,0,1,2.3,2.3V68.8a2.312,2.312,0,0,1-2.3,2.117" transform="translate(20.85 31.651)" fill="#fdc9a6"/><path d="M13.657,58.6a1.937,1.937,0,0,1-1.763-1.058,2.171,2.171,0,0,1,.527-3L32.194,41.3a2.155,2.155,0,1,1,2.472,3.53L14.894,58.068a1.916,1.916,0,0,1-1.236.529" transform="translate(8.649 30.733)" fill="#fdc9a6"/><path d="M6.845,5.1a2.337,2.337,0,0,0-2.3,2.294,2.337,2.337,0,0,0,2.3,2.3,2.336,2.336,0,0,0,2.294-2.3A2.455,2.455,0,0,0,6.845,5.1m0,8.827a6.709,6.709,0,1,1,6.708-6.708,6.821,6.821,0,0,1-6.708,6.708" transform="translate(0.103 0.379)" fill="#fdc9a6"/><path d="M56.021,57.95a1.059,1.059,0,1,0,1.058,1.061c.179-.707-.352-1.061-1.058-1.061m0,6.533a5.473,5.473,0,1,1,5.472-5.472,5.388,5.388,0,0,1-5.472,5.472" transform="translate(37.962 40.207)" fill="#fdc9a6"/><path d="M53.566,39.408a2.338,2.338,0,0,1-2.3-2.3,13.24,13.24,0,1,0-26.481,0,2.295,2.295,0,1,1-4.589,0,17.654,17.654,0,1,1,35.308,0,2.055,2.055,0,0,1-1.942,2.3" transform="translate(15.171 14.614)" fill="#fdc9a6"/></g></svg>