<svg xmlns="http://www.w3.org/2000/svg" xmlns:xlink="http://www.w3.org/1999/xlink" width="67.225" height="80" viewBox="0 0 67.225 80"><defs><clipPath id="a"><rect width="67.225" height="80" fill="none"/></clipPath></defs><g transform="translate(0 0)"><g transform="translate(0 0)" clip-path="url(#a)"><path d="M12.2,1.416H53.729A11.03,11.03,0,0,1,64.765,12.45V77.641H1.315V1.416Z" transform="translate(0.572 0.616)" fill="#b8d0f3"/><path d="M65.337,79.956H1.887A1.921,1.921,0,0,1,0,78.07V1.988A1.922,1.922,0,0,1,1.887.1H54.3A12.951,12.951,0,0,1,67.225,13.024V78.214a1.9,1.9,0,0,1-1.887,1.742M3.63,76.328H63.595v-63.3A9.359,9.359,0,0,0,54.3,3.731H3.63Z" transform="translate(0 0.044)" fill="#4e8ae1"/><path d="M9.474,61.852a1.922,1.922,0,0,1-1.887-1.889V1.887a1.887,1.887,0,0,1,3.775,0V59.963a2.154,2.154,0,0,1-1.887,1.889" transform="translate(3.303 0)" fill="#4e8ae1"/><path d="M9.474,48.126A1.921,1.921,0,0,1,7.587,46.24v-.146a1.887,1.887,0,0,1,3.775,0v.146a2.152,2.152,0,0,1-1.887,1.886" transform="translate(3.303 19.242)" fill="#4e8ae1"/><path d="M9.474,51.87a1.922,1.922,0,0,1-1.887-1.887v-.145a1.887,1.887,0,0,1,3.775,0v.145A2.153,2.153,0,0,1,9.474,51.87" transform="translate(3.303 20.872)" fill="#4e8ae1"/><rect width="2.995" height="18.247" transform="translate(20.054 21.825)" fill="#4e8ae1"/><path d="M30.29,28.582c.016,5.791-7.65,6.06-11.685,4.244V30c2.606,1.563,10.554,2.47,8.289-2.608-1.622-1.823-4.932-2.071-6.69-3.944-5.18-6.48,4.591-10.641,9.823-7.264l-.95,2.408c-2.5-1.47-8.909-1.73-6.9,2.652,2.474,2.536,8.388,2.617,8.108,7.333" transform="translate(8.099 6.523)" fill="#4e8ae1"/><path d="M45.681,24.36c1.178,12.382-18.3,12.362-17.074-.026C27.4,11.99,46.9,11.994,45.681,24.36m-13.929,0c-1.058,8.95,11.871,8.969,10.785,0,1.064-9.084-11.838-8.84-10.785,0" transform="translate(12.428 6.564)" fill="#4e8ae1"/></g><rect width="38" height="4" transform="translate(20.004 48)" fill="#fff"/><rect width="38" height="4" transform="translate(20.004 57)" fill="#fff"/><rect width="27" height="4" transform="translate(20.004 66)" fill="#fff"/></g></svg>