<svg xmlns="http://www.w3.org/2000/svg" xmlns:xlink="http://www.w3.org/1999/xlink" width="81.769" height="80" viewBox="0 0 81.769 80"><defs><clipPath id="a"><rect width="81.769" height="80" fill="none"/></clipPath></defs><g transform="translate(0 0)"><path d="M59.38,24.076V42.993l-2.529,5.058-2.529-5.058V24.076Z" transform="translate(20.973 13.913)" fill="#fff"/><g transform="translate(0 0)"><g clip-path="url(#a)"><path d="M61.125,21.1v5.17h-6.8V21.1a3.369,3.369,0,0,1,3.4-3.4,3.91,3.91,0,0,1,2.449.952,3.918,3.918,0,0,1,.952,2.449" transform="translate(18.739 6.106)" fill="#fff"/><path d="M11.893,6.349h0V67.03c-6.259-4.489-10.476-.136-10.476-.136V6.621A4.939,4.939,0,0,1,3.048,2.812a5.346,5.346,0,0,1,3.81-1.5,5.111,5.111,0,0,1,5.034,5.034" transform="translate(0.489 0.453)" fill="#fff"/><path d="M9.206,5.058V69.684H64.716V5.058Z" transform="translate(3.176 1.744)" fill="#b8d0f3"/><path d="M38.2,27.047a1.729,1.729,0,0,1,.545,1.225A1.327,1.327,0,0,1,38.2,29.5a1.726,1.726,0,0,1-1.225.543A1.8,1.8,0,0,1,35.2,28.273a1.477,1.477,0,0,1,.545-1.225,1.725,1.725,0,0,1,1.224-.543,2.565,2.565,0,0,1,1.225.543" transform="translate(12.144 9.142)" fill="#4e8ae1"/><path d="M34.454,27.047A1.724,1.724,0,0,1,35,28.273a1.324,1.324,0,0,1-.545,1.224,1.723,1.723,0,0,1-1.224.543,1.8,1.8,0,0,1-1.769-1.767A1.48,1.48,0,0,1,32,27.047,1.728,1.728,0,0,1,33.23,26.5a3.363,3.363,0,0,1,1.224.543" transform="translate(10.853 9.142)" fill="#4e8ae1"/><path d="M30.61,27.047a1.729,1.729,0,0,1,.545,1.225A1.327,1.327,0,0,1,30.61,29.5a1.726,1.726,0,0,1-1.225.543,1.8,1.8,0,0,1-1.769-1.767,1.477,1.477,0,0,1,.545-1.225,1.725,1.725,0,0,1,1.224-.543,2.565,2.565,0,0,1,1.225.543" transform="translate(9.527 9.142)" fill="#4e8ae1"/><path d="M26.867,27.047a1.769,1.769,0,0,1-1.224,2.993,1.8,1.8,0,0,1-1.769-1.767,1.48,1.48,0,0,1,.543-1.225,1.728,1.728,0,0,1,1.225-.543,3.363,3.363,0,0,1,1.224.543" transform="translate(8.236 9.142)" fill="#4e8ae1"/><path d="M65.169,71.906H9.66a1.8,1.8,0,0,1-1.77-1.769V5.512A1.8,1.8,0,0,1,9.66,3.743H65.169a1.8,1.8,0,0,1,1.77,1.769V70.137a1.8,1.8,0,0,1-1.77,1.769M11.291,68.5H63.4V7.28H11.291Z" transform="translate(2.722 1.291)" fill="#4e8ae1"/><path d="M12.382,69.117a1.8,1.8,0,0,1-1.769-1.769V6.94A3.486,3.486,0,0,0,7.212,3.4,3.718,3.718,0,0,0,3.537,7.076V67.348a1.8,1.8,0,0,1-1.769,1.769A1.8,1.8,0,0,1,0,67.348V7.076A6.973,6.973,0,0,1,7.076,0a6.82,6.82,0,0,1,6.8,6.8V67.484a1.4,1.4,0,0,1-1.5,1.633" transform="translate(0 -0.001)" fill="#4e8ae1"/><path d="M67.835,63.645H9.194a9.445,9.445,0,0,1-6.8-2.857,8.628,8.628,0,0,1-2.178-6.8V50.992A1.659,1.659,0,0,1,.76,49.768a8.267,8.267,0,0,1,3.673-2.04c2.04-.545,5.306-.681,9.116,2.04a1.681,1.681,0,0,1-1.769,2.857.133.133,0,0,1-.136-.136c-3.946-2.857-6.667-1.5-7.756-.816v2.449a5.163,5.163,0,0,0,1.361,4.218A6.053,6.053,0,0,0,9.6,60.108H68.244a1.8,1.8,0,0,1,1.769,1.769,2.623,2.623,0,0,1-2.177,1.769" transform="translate(0.056 16.354)" fill="#4e8ae1"/><path d="M58.142,60.741a1.673,1.673,0,0,1-1.5-.952l-3.4-6.8a1.728,1.728,0,0,1-.136-.816V21.558a5.169,5.169,0,0,1,5.17-5.171,5.507,5.507,0,0,1,3.673,1.5,5.261,5.261,0,0,1,1.5,3.674V52.17a1.728,1.728,0,0,1-.136.816l-3.4,6.8a2.866,2.866,0,0,1-1.769.952m-1.769-8.979,1.769,3.4,1.769-3.4v-30.2a1.665,1.665,0,0,0-.543-1.225,1.728,1.728,0,0,0-1.225-.543,1.8,1.8,0,0,0-1.769,1.769Z" transform="translate(18.321 5.652)" fill="#4e8ae1"/><path d="M61.578,26.2h-6.8a1.769,1.769,0,0,1,0-3.537h6.8a1.8,1.8,0,0,1,1.769,1.769A1.893,1.893,0,0,1,61.578,26.2" transform="translate(18.286 7.816)" fill="#4e8ae1"/><path d="M18.928,13.552h-3.4a1.769,1.769,0,1,1,0-3.537h3.4A1.8,1.8,0,0,1,20.7,11.784a1.715,1.715,0,0,1-1.769,1.769" transform="translate(4.746 3.454)" fill="#4e8ae1"/><path d="M49.11,13.552H21.9a1.769,1.769,0,1,1,0-3.537H49.11a1.8,1.8,0,0,1,1.769,1.769,1.893,1.893,0,0,1-1.769,1.769" transform="translate(6.944 3.454)" fill="#4e8ae1"/><path d="M18.928,17.4h-3.4a1.769,1.769,0,1,1,0-3.537h3.4a1.769,1.769,0,0,1,0,3.537" transform="translate(4.746 4.78)" fill="#4e8ae1"/><path d="M49.11,17.4H21.9a1.769,1.769,0,1,1,0-3.537H49.11a1.8,1.8,0,0,1,1.769,1.769A2.018,2.018,0,0,1,49.11,17.4" transform="translate(6.944 4.78)" fill="#4e8ae1"/><path d="M18.928,21.139h-3.4a1.769,1.769,0,1,1,0-3.537h3.4A1.8,1.8,0,0,1,20.7,19.371a1.715,1.715,0,0,1-1.769,1.769" transform="translate(4.746 6.072)" fill="#4e8ae1"/><path d="M49.11,21.139H21.9a1.769,1.769,0,1,1,0-3.537H49.11a1.8,1.8,0,0,1,1.769,1.769,1.893,1.893,0,0,1-1.769,1.769" transform="translate(6.944 6.072)" fill="#4e8ae1"/><path d="M18.928,24.983h-3.4a1.769,1.769,0,1,1,0-3.537h3.4a1.769,1.769,0,0,1,0,3.537" transform="translate(4.746 7.398)" fill="#4e8ae1"/><path d="M49.11,24.983H21.9a1.769,1.769,0,1,1,0-3.537H49.11a1.8,1.8,0,0,1,1.769,1.769,2.018,2.018,0,0,1-1.769,1.769" transform="translate(6.944 7.398)" fill="#4e8ae1"/><path d="M54.711,41.371H15.527a1.769,1.769,0,1,1,0-3.537H54.711A1.687,1.687,0,0,1,56.344,39.6a1.782,1.782,0,0,1-1.633,1.769" transform="translate(4.746 13.051)" fill="#4e8ae1"/><path d="M54.711,45.215H15.527a1.769,1.769,0,1,1,0-3.537H54.711a1.687,1.687,0,0,1,1.633,1.769,1.782,1.782,0,0,1-1.633,1.769" transform="translate(4.746 14.377)" fill="#4e8ae1"/><path d="M46.405,48.958H39.6a1.769,1.769,0,1,1,0-3.537h6.8a1.774,1.774,0,0,1,0,3.537" transform="translate(13.051 15.668)" fill="#4e8ae1"/></g></g></g></svg>