<svg xmlns="http://www.w3.org/2000/svg" xmlns:xlink="http://www.w3.org/1999/xlink" width="110" height="110" viewBox="0 0 110 110"><defs><clipPath id="a"><rect width="110" height="110" fill="none"/></clipPath></defs><g transform="translate(0 0)"><path d="M1.311,1.311V64.849H108.69V1.311Z" fill="#edf3fc"/><path d="M1.311,1.311V6.358H29.3V1.311Z" transform="translate(39.695 80.411)" fill="#b8d0f3"/><rect width="2.521" height="2.52" transform="translate(81.729 55.978)" fill="#4e8ae1"/><rect width="2.521" height="2.52" transform="translate(67.734 55.978)" fill="#4e8ae1"/><rect width="2.521" height="2.52" transform="translate(53.74 55.978)" fill="#4e8ae1"/><rect width="2.521" height="2.52" transform="translate(39.745 55.978)" fill="#4e8ae1"/><rect width="2.52" height="2.52" transform="translate(25.751 55.978)" fill="#4e8ae1"/><g transform="translate(0 0)"><g clip-path="url(#a)"><path d="M107.62,82.363H2.38A2.423,2.423,0,0,1,0,79.983V2.38A2.423,2.423,0,0,1,2.38,0H107.62A2.423,2.423,0,0,1,110,2.38V80.166a2.716,2.716,0,0,1-2.38,2.2M4.575,77.786H105.24V4.575H4.575Z" transform="translate(0 0)" fill="#4e8ae1"/><path d="M64.471,68.713a2.423,2.423,0,0,1-2.38-2.38V54.988h-41V66.517a2.38,2.38,0,0,1-4.76,0V52.791a2.423,2.423,0,0,1,2.38-2.38H64.471a2.423,2.423,0,0,1,2.38,2.38V66.517a2.4,2.4,0,0,1-2.38,2.2" transform="translate(13.317 41.103)" fill="#4e8ae1"/><path d="M21.249,61.167a2.318,2.318,0,0,1-1.1-.183,2.415,2.415,0,0,1-1.1-3.112l6.955-13.726a2.333,2.333,0,0,1,4.21,2.011L23.262,59.885a2.25,2.25,0,0,1-2.013,1.282" transform="translate(15.358 34.923)" fill="#4e8ae1"/><path d="M44.468,61.181A2.248,2.248,0,0,1,42.455,59.9L35.5,46.172a2.332,2.332,0,1,1,4.208-2.011l6.956,13.726A2.259,2.259,0,0,1,45.567,61a2.322,2.322,0,0,1-1.1.183" transform="translate(28.743 34.909)" fill="#4e8ae1"/><path d="M107.072,39.945H2.38a2.379,2.379,0,1,1,0-4.758H107.072a2.379,2.379,0,1,1,0,4.758" transform="translate(0 28.69)" fill="#4e8ae1"/><path d="M77.732,62.548H13.672a2.423,2.423,0,0,1-2.38-2.38,2.269,2.269,0,0,1,2.38-2.195h64.06a2.423,2.423,0,0,1,2.38,2.378,2.4,2.4,0,0,1-2.38,2.2" transform="translate(9.207 47.269)" fill="#4e8ae1"/><path d="M21.683,28.937a2.446,2.446,0,0,1-1.465-.548l-5.49-4.21a2.251,2.251,0,0,1-.915-1.83V11.366a2.251,2.251,0,0,1,.915-1.83l5.49-4.21a2.5,2.5,0,0,1,2.747,0l5.49,4.21a2.361,2.361,0,1,1-2.745,3.843L21.5,10.268,18.2,12.648v8.786L21.5,23.813l4.21-3.112a2.362,2.362,0,1,1,2.745,3.845l-5.49,4.208c-.367,0-.732.183-1.282.183" transform="translate(11.263 4.008)" fill="#4e8ae1"/><path d="M27.649,28.937a1.668,1.668,0,0,1-1.282-.548l-5.49-4.21a2.251,2.251,0,0,1-.915-1.83V11.366a2.251,2.251,0,0,1,.915-1.83l5.49-4.21a2.5,2.5,0,0,1,2.747,0l5.49,4.21a2.251,2.251,0,0,1,.915,1.83V22.349a2.379,2.379,0,0,1-4.758,0V12.465l-3.295-2.38-3.11,2.38v8.786l4.575,3.476a2.342,2.342,0,0,1,.548,3.295,2.253,2.253,0,0,1-1.83.915" transform="translate(16.277 4.008)" fill="#4e8ae1"/><path d="M30.757,37.305a2.426,2.426,0,0,1-1.463-.548L23.8,32.547a2.253,2.253,0,0,1-.915-1.83V19.736A2.257,2.257,0,0,1,23.8,17.9L29.293,13.7a2.489,2.489,0,0,1,2.745,0l5.49,4.208a2.253,2.253,0,0,1,.917,1.832V30.717a2.25,2.25,0,0,1-.917,1.83l-5.49,4.21a1.659,1.659,0,0,1-1.282.548m-3.112-7.686L30.94,32l3.295-2.38V20.834l-3.295-2.38-3.295,2.38Z" transform="translate(18.661 10.831)" fill="#4e8ae1"/><path d="M54.139,29.312H42.608a2.423,2.423,0,0,1-2.38-2.378V8.631a2.423,2.423,0,0,1,2.38-2.38H54.139a2.423,2.423,0,0,1,2.378,2.38v18.3a2.422,2.422,0,0,1-2.378,2.378m-9.151-4.575h6.955V11.009H44.988Z" transform="translate(32.8 5.096)" fill="#4e8ae1"/><path d="M57.5,24.823H41.4a2.38,2.38,0,0,1,0-4.76H57.5a2.423,2.423,0,0,1,2.38,2.38,2.558,2.558,0,0,1-2.38,2.38" transform="translate(31.814 16.358)" fill="#4e8ae1"/><path d="M57.5,28.653H41.4a2.379,2.379,0,1,1,0-4.758H57.5a2.423,2.423,0,0,1,2.38,2.378,2.558,2.558,0,0,1-2.38,2.38" transform="translate(31.814 19.483)" fill="#4e8ae1"/></g></g></g></svg>